<svg width="24" height="24" viewBox="0 0 24 24" fill="none" xmlns="http://www.w3.org/2000/svg">
<path fill-rule="evenodd" clip-rule="evenodd" d="M4.25 8.515C4.25 4.453 7.771 1.25 12 1.25C16.229 1.25 19.75 4.453 19.75 8.515C19.75 12.325 17.387 16.8 13.575 18.429C13.077 18.6411 12.5413 18.7504 12 18.7504C11.4587 18.7504 10.923 18.6411 10.425 18.429C6.613 16.8 4.25 12.326 4.25 8.515ZM12 2.75C8.497 2.75 5.75 5.38 5.75 8.515C5.75 11.843 7.855 15.7 11.015 17.05C11.3267 17.1817 11.6616 17.2496 12 17.2496C12.3384 17.2496 12.6733 17.1817 12.985 17.05C16.145 15.7 18.25 11.843 18.25 8.515C18.25 5.381 15.503 2.75 12 2.75ZM12 7.75C11.6685 7.75 11.3505 7.8817 11.1161 8.11612C10.8817 8.35054 10.75 8.66848 10.75 9C10.75 9.33152 10.8817 9.64946 11.1161 9.88388C11.3505 10.1183 11.6685 10.25 12 10.25C12.3315 10.25 12.6495 10.1183 12.8839 9.88388C13.1183 9.64946 13.25 9.33152 13.25 9C13.25 8.66848 13.1183 8.35054 12.8839 8.11612C12.6495 7.8817 12.3315 7.75 12 7.75ZM9.25 9C9.25 8.27065 9.53973 7.57118 10.0555 7.05546C10.5712 6.53973 11.2707 6.25 12 6.25C12.7293 6.25 13.4288 6.53973 13.9445 7.05546C14.4603 7.57118 14.75 8.27065 14.75 9C14.75 9.72935 14.4603 10.4288 13.9445 10.9445C13.4288 11.4603 12.7293 11.75 12 11.75C11.2707 11.75 10.5712 11.4603 10.0555 10.9445C9.53973 10.4288 9.25 9.72935 9.25 9ZM3.595 14.997C3.72847 15.1444 3.79796 15.3387 3.78821 15.5373C3.77846 15.7358 3.69026 15.9224 3.543 16.056C2.975 16.57 2.75 17.062 2.75 17.5C2.75 18.264 3.474 19.205 5.237 19.998C6.929 20.76 9.32 21.25 12 21.25C14.68 21.25 17.071 20.76 18.763 19.998C20.526 19.205 21.25 18.264 21.25 17.5C21.25 17.062 21.025 16.57 20.457 16.056C20.3095 15.9225 20.2212 15.7358 20.2113 15.5371C20.2015 15.3384 20.271 15.144 20.4045 14.9965C20.538 14.849 20.7247 14.7607 20.9234 14.7508C21.1221 14.741 21.3165 14.8105 21.464 14.944C22.227 15.635 22.75 16.501 22.75 17.5C22.75 19.222 21.235 20.53 19.379 21.366C17.452 22.233 14.842 22.75 12 22.75C9.158 22.75 6.548 22.233 4.621 21.366C2.765 20.53 1.25 19.222 1.25 17.5C1.25 16.501 1.773 15.635 2.536 14.944C2.60905 14.8778 2.69443 14.8267 2.78726 14.7935C2.88009 14.7604 2.97854 14.7459 3.07699 14.7508C3.17543 14.7557 3.27195 14.78 3.361 14.8222C3.45006 14.8645 3.52891 14.9239 3.595 14.997Z" fill="#FFFEFB"/>
</svg>
