<svg width="18" height="22" viewBox="0 0 18 22" fill="none" xmlns="http://www.w3.org/2000/svg">
<path fill-rule="evenodd" clip-rule="evenodd" d="M0 8.893C0 3.994 3.905 0 8.75 0C13.595 0 17.5 3.994 17.5 8.893C17.5 11.258 16.826 13.798 15.634 15.992C14.444 18.183 12.706 20.087 10.531 21.104C9.97355 21.365 9.36553 21.5003 8.75 21.5003C8.13447 21.5003 7.52645 21.365 6.969 21.104C4.794 20.087 3.056 18.184 1.866 15.992C0.674 13.798 0 11.258 0 8.893ZM8.75 1.5C4.758 1.5 1.5 4.797 1.5 8.893C1.5 10.99 2.103 13.285 3.184 15.276C4.266 17.269 5.796 18.9 7.604 19.745C7.96252 19.913 8.35359 20 8.7495 20C9.14541 20 9.53648 19.913 9.895 19.745C11.704 18.9 13.234 17.269 14.316 15.276C15.397 13.286 16 10.99 16 8.893C16 4.797 12.742 1.5 8.75 1.5ZM8.75 6.5C8.45453 6.5 8.16194 6.5582 7.88896 6.67127C7.61598 6.78434 7.36794 6.95008 7.15901 7.15901C6.95008 7.36794 6.78434 7.61598 6.67127 7.88896C6.5582 8.16194 6.5 8.45453 6.5 8.75C6.5 9.04547 6.5582 9.33806 6.67127 9.61104C6.78434 9.88402 6.95008 10.1321 7.15901 10.341C7.36794 10.5499 7.61598 10.7157 7.88896 10.8287C8.16194 10.9418 8.45453 11 8.75 11C9.34674 11 9.91903 10.7629 10.341 10.341C10.7629 9.91903 11 9.34674 11 8.75C11 8.15326 10.7629 7.58097 10.341 7.15901C9.91903 6.73705 9.34674 6.5 8.75 6.5ZM5 8.75C5 7.75544 5.39509 6.80161 6.09835 6.09835C6.80161 5.39509 7.75544 5 8.75 5C9.74456 5 10.6984 5.39509 11.4017 6.09835C12.1049 6.80161 12.5 7.75544 12.5 8.75C12.5 9.74456 12.1049 10.6984 11.4017 11.4017C10.6984 12.1049 9.74456 12.5 8.75 12.5C7.75544 12.5 6.80161 12.1049 6.09835 11.4017C5.39509 10.6984 5 9.74456 5 8.75Z" fill="#FFFEFB"/>
</svg>
