<svg width="360" height="360" viewBox="0 0 360 360" fill="none" xmlns="http://www.w3.org/2000/svg">
<g clip-path="url(#clip0_1174_6248)">
<path d="M52.0615 95.6251C51.193 95.6386 50.3395 95.8529 49.5676 96.2514L-15.8662 130.012C-17.7244 130.978 -18.8927 132.895 -18.8984 134.989V354.352C-18.9148 358.686 -14.2305 361.41 -10.472 359.252C10.4554 347.132 31.4609 333.634 52.1055 321.558L113.145 359.175C114.031 359.717 115.05 360.002 116.089 359.999H335.451C338.579 360.017 341.121 357.48 341.109 354.352V134.989C341.096 131.878 338.561 129.368 335.451 129.386C251.099 129.386 189.224 129.386 117.506 129.386L54.7641 96.2953C53.9336 95.849 53.0043 95.6185 52.0615 95.6251Z" fill="#C9E4E7"/>
<path d="M-7.64852 125.771L-15.8662 130.012C-17.7244 130.977 -18.8927 132.895 -18.8984 134.989V354.352C-18.9148 358.686 -14.2305 361.41 -10.472 359.252C8.57504 348.221 27.657 336.144 46.5025 324.942V309.231C31.3167 318.455 16.0509 327.906 0.777903 336.752C-2.9806 338.91 -7.66488 336.186 -7.64852 331.852V125.771ZM54.7641 96.2952C53.9599 95.8629 53.0624 95.6329 52.1494 95.625V321.58L113.145 359.175C114.031 359.716 115.05 360.002 116.089 359.999H117.561L117.534 129.386L54.7641 96.2952Z" fill="#DCE2E8"/>
<path d="M222.884 0C179.578 0 144.113 33.8966 144.113 75.8603C144.113 104.423 163.176 137.804 181.697 164.849C200.218 191.895 218.688 212.354 218.688 212.354C220.921 214.827 224.803 214.827 227.037 212.354C227.037 212.354 245.551 191.895 264.072 164.849C282.592 137.804 301.612 104.423 301.612 75.8603C301.612 33.8965 266.19 0 222.884 0Z" fill="#68AEC9"/>
<path d="M222.887 44.1426C205.179 44.1426 190.664 58.532 190.664 76.1896C190.664 93.8472 205.179 108.248 222.887 108.248C240.594 108.248 255.109 93.8472 255.109 76.1896C255.109 58.532 240.594 44.1426 222.887 44.1426Z" fill="#C9E4E7"/>
<path d="M119.122 211.809L116.008 222.646L235.842 257.11L238.956 246.314L119.122 211.809Z" fill="#7B98A3"/>
<path d="M136.751 129.385L112.769 213.474L49.3672 249.674L54.9262 259.43L122.36 220.988L148.463 129.385H136.751Z" fill="#7B98A3"/>
<path d="M52.1055 310.309C31.4609 322.384 10.4554 335.882 -10.472 348.003C-14.2305 350.16 -18.9148 347.437 -18.8984 343.103V354.353C-18.9148 358.687 -14.2305 361.41 -10.472 359.253C10.4554 347.132 31.4609 333.634 52.1055 321.559L113.145 359.176C114.031 359.717 115.05 360.002 116.089 360H335.451C338.579 360.018 341.121 357.481 341.109 354.353V343.103C341.121 346.231 338.579 348.768 335.451 348.75H116.089C115.05 348.752 114.031 348.467 113.145 347.926L52.1055 310.309Z" fill="#C9E4E7"/>
<path d="M52.059 95.6251C51.1905 95.6385 50.337 95.8529 49.5652 96.2514L46.5 97.8334V324.942C48.3604 323.836 50.248 322.643 52.103 321.558L57.7499 325.041V97.8663L54.7616 96.2953C53.9312 95.849 53.0018 95.6185 52.059 95.6251Z" fill="#7B98A3"/>
<path d="M175.534 15.3809C156.515 29.2182 144.113 51.1007 144.113 75.8604C144.113 104.423 163.176 137.804 181.697 164.849C200.218 191.895 218.688 212.354 218.688 212.354C220.921 214.827 224.803 214.827 227.037 212.354C227.037 212.354 229.038 210.086 231.838 206.817C231.34 206.264 212.773 185.619 193.991 158.192C174.954 130.393 155.363 96.0783 155.363 66.7198C155.363 47.0158 163.026 29.093 175.534 15.3809Z" fill="#6581A9"/>
<path d="M206.414 48.7246C197.017 54.3324 190.66 64.5309 190.66 76.1903C190.66 93.8479 205.175 108.248 222.883 108.248C234.649 108.248 244.976 101.875 250.601 92.4281C245.767 95.3129 240.146 96.9984 234.133 96.9984C216.425 96.9984 201.91 82.5979 201.91 64.9404C201.91 59.0209 203.579 53.4905 206.414 48.7246Z" fill="#C9E4E7"/>
<path d="M341.109 154.885L107.125 355.472L113.145 359.175C114.032 359.716 115.051 360.001 116.09 359.999H119.144L341.109 169.705V154.885Z" fill="#7B98A3"/>
<path d="M210.305 271.889L201.879 279.326L273.059 359.999H288.044L210.305 271.889Z" fill="#7B98A3"/>
<path d="M107.125 355.473L113.145 359.175C114.032 359.716 115.051 360.001 116.09 359.999H119.144L132.261 348.749H116.09C115.761 348.75 115.444 348.672 115.123 348.617L107.125 355.473Z" fill="#7B98A3"/>
<path d="M52.1249 305.781C50.2699 306.866 48.3823 308.059 46.5219 309.165L46.5 324.941C48.3604 323.835 50.248 322.642 52.103 321.557L57.7499 325.04L57.7718 309.264L52.1249 305.781Z" fill="#7B98A3"/>
<path d="M263.125 348.748L273.057 359.998H288.042L278.121 348.748H263.125Z" fill="#7B98A3"/>
<path d="M149.055 276.438V287.473H97.834L97.1504 278.928L126.789 231.906H137.971L125.861 252.17L111.115 276.438H149.055ZM140.998 231.906V303H126.936V231.906H140.998ZM204.523 261.203V273.508C204.523 278.846 203.954 283.452 202.814 287.326C201.675 291.167 200.031 294.325 197.883 296.799C195.767 299.24 193.244 301.047 190.314 302.219C187.385 303.391 184.13 303.977 180.549 303.977C177.684 303.977 175.015 303.618 172.541 302.902C170.067 302.154 167.837 300.998 165.852 299.436C163.898 297.873 162.206 295.904 160.773 293.527C159.374 291.118 158.299 288.254 157.551 284.934C156.802 281.613 156.428 277.805 156.428 273.508V261.203C156.428 255.865 156.997 251.291 158.137 247.482C159.309 243.641 160.952 240.5 163.068 238.059C165.217 235.617 167.756 233.827 170.686 232.688C173.615 231.516 176.87 230.93 180.451 230.93C183.316 230.93 185.969 231.304 188.41 232.053C190.884 232.769 193.114 233.892 195.1 235.422C197.085 236.952 198.778 238.921 200.178 241.33C201.577 243.706 202.652 246.555 203.4 249.875C204.149 253.163 204.523 256.939 204.523 261.203ZM190.412 275.363V259.299C190.412 256.727 190.266 254.481 189.973 252.561C189.712 250.64 189.305 249.012 188.752 247.678C188.199 246.311 187.515 245.204 186.701 244.357C185.887 243.511 184.96 242.893 183.918 242.502C182.876 242.111 181.721 241.916 180.451 241.916C178.856 241.916 177.44 242.225 176.203 242.844C174.999 243.462 173.973 244.455 173.127 245.822C172.281 247.157 171.63 248.947 171.174 251.193C170.751 253.407 170.539 256.109 170.539 259.299V275.363C170.539 277.935 170.669 280.197 170.93 282.15C171.223 284.104 171.646 285.78 172.199 287.18C172.785 288.547 173.469 289.67 174.25 290.549C175.064 291.395 175.992 292.014 177.033 292.404C178.107 292.795 179.279 292.99 180.549 292.99C182.111 292.99 183.495 292.681 184.699 292.062C185.936 291.411 186.978 290.402 187.824 289.035C188.703 287.635 189.354 285.812 189.777 283.566C190.201 281.32 190.412 278.586 190.412 275.363ZM263.898 276.438V287.473H212.678L211.994 278.928L241.633 231.906H252.814L240.705 252.17L225.959 276.438H263.898ZM255.842 231.906V303H241.779V231.906H255.842Z" fill="#344358"/>
</g>
<defs>
<clipPath id="clip0_1174_6248">
<rect width="360" height="360" fill="white"/>
</clipPath>
</defs>
</svg>
