<svg width="31" height="24" viewBox="0 0 31 24" fill="none" xmlns="http://www.w3.org/2000/svg">
<g clip-path="url(#clip0_1257_7006)">
<path d="M19.614 17.0423H11.2656V2.03906H19.614V17.0423Z" fill="#6C6BBD"/>
<path d="M11.7959 9.54175C11.7959 6.49821 13.2208 3.78718 15.4399 2.04012C13.8172 0.762573 11.769 0 9.54335 0C4.27421 0 0.00292969 4.27188 0.00292969 9.54175C0.00292969 14.8115 4.27421 19.0834 9.54335 19.0834C11.7691 19.0834 13.8172 18.3208 15.4399 17.0433C13.2208 15.2962 11.7959 12.5852 11.7959 9.54175Z" fill="#D32011"/>
<path d="M30.877 9.54175C30.877 14.8115 26.6057 19.0834 21.3366 19.0834C19.1108 19.0834 17.0628 18.3208 15.4395 17.0433C17.6592 15.2962 19.0841 12.5852 19.0841 9.54175C19.0841 6.49821 17.6592 3.78718 15.4395 2.04012C17.0628 0.762573 19.111 0 21.3366 0C26.6057 0 30.877 4.27188 30.877 9.54175Z" fill="#0099DF"/>
<path d="M22.4391 21.283C22.5501 21.283 22.7097 21.3043 22.8316 21.3522L22.6618 21.8715C22.5453 21.8236 22.4288 21.8078 22.3172 21.8078C21.9569 21.8078 21.7767 22.0407 21.7767 22.4593V23.88H21.2253V21.3467H21.7712V21.6543C21.9144 21.4316 22.1212 21.283 22.4391 21.283ZM20.402 21.8502H19.5011V22.9949C19.5011 23.2491 19.591 23.4189 19.867 23.4189C20.0102 23.4189 20.1903 23.371 20.3542 23.2758L20.513 23.7472C20.3384 23.869 20.0629 23.9438 19.8245 23.9438C19.1724 23.9438 18.9449 23.5937 18.9449 23.0053V21.8502H18.4305V21.3467H18.9449V20.5781H19.5011V21.3467H20.402V21.8502ZM13.3475 22.3908C13.4063 22.025 13.6285 21.7757 14.0209 21.7757C14.3758 21.7757 14.6038 21.9982 14.6621 22.3908H13.3475ZM15.2348 22.6134C15.2293 21.8235 14.7415 21.283 14.0312 21.283C13.2894 21.283 12.77 21.8236 12.77 22.6133C12.77 23.4183 13.3106 23.9431 14.0688 23.9431C14.4504 23.9431 14.7998 23.8478 15.1073 23.5883L14.8368 23.18C14.6252 23.3498 14.3545 23.4451 14.1004 23.4451C13.7455 23.4451 13.4221 23.2807 13.3427 22.8252H15.2238C15.2293 22.756 15.2348 22.6874 15.2348 22.6134ZM17.6564 21.9934C17.5029 21.8975 17.1904 21.7756 16.867 21.7756C16.5649 21.7756 16.3848 21.8873 16.3848 22.0729C16.3848 22.2421 16.5753 22.29 16.8137 22.3216L17.0734 22.3586C17.6248 22.4387 17.9584 22.6717 17.9584 23.1169C17.9584 23.5991 17.5343 23.9437 16.8034 23.9437C16.3897 23.9437 16.0081 23.8375 15.7059 23.6149L15.9657 23.1854C16.1513 23.3286 16.4273 23.4505 16.8088 23.4505C17.185 23.4505 17.3864 23.3396 17.3864 23.143C17.3864 23.0004 17.2432 22.9204 16.9411 22.8785L16.6814 22.8415C16.1142 22.7614 15.8067 22.5072 15.8067 22.0941C15.8067 21.5906 16.2204 21.283 16.8616 21.283C17.2644 21.283 17.6302 21.3735 17.8947 21.5481L17.6564 21.9934ZM24.4536 21.8065C24.3402 21.8065 24.2353 21.8266 24.1376 21.866C24.0431 21.9043 23.9572 21.9613 23.8852 22.0334C23.8127 22.1073 23.7557 22.195 23.7178 22.2913C23.6773 22.3915 23.657 22.5017 23.6571 22.6219C23.6571 22.7426 23.6771 22.8523 23.7178 22.9524C23.7585 23.0527 23.8143 23.1386 23.8852 23.2103C23.9572 23.2825 24.0431 23.3394 24.1376 23.3777C24.2353 23.4177 24.3402 23.4371 24.4536 23.4371C24.5669 23.4371 24.6726 23.4178 24.7696 23.3777C24.8645 23.3395 24.9508 23.2826 25.0232 23.2103C25.0954 23.1388 25.1513 23.0525 25.1925 22.9524C25.2332 22.8523 25.2532 22.7426 25.2532 22.6219C25.2533 22.5017 25.233 22.3915 25.1925 22.2913C25.1513 22.1912 25.0954 22.1051 25.0232 22.0334C24.9508 21.9611 24.8646 21.9042 24.7697 21.866C24.6692 21.8259 24.5619 21.8057 24.4537 21.8066M24.4537 21.2832C24.6503 21.2831 24.8323 21.3173 24.9997 21.3857C25.1671 21.4537 25.312 21.5475 25.4341 21.6672C25.557 21.7877 25.6546 21.9317 25.721 22.0905C25.7901 22.2538 25.8247 22.4309 25.8247 22.622C25.8247 22.813 25.7901 22.9901 25.721 23.1534C25.6546 23.3125 25.557 23.4566 25.434 23.5774C25.3122 23.6969 25.1671 23.7904 24.9998 23.8589C24.8322 23.9268 24.6502 23.9608 24.4537 23.9608C24.2571 23.9608 24.0751 23.9268 23.9077 23.8589C23.7403 23.7904 23.5966 23.6969 23.4752 23.5774C23.3529 23.4563 23.2557 23.3122 23.1894 23.1534C23.1203 22.9901 23.0857 22.813 23.0857 22.622C23.0857 22.4309 23.1203 22.2538 23.1894 22.0906C23.2558 21.932 23.353 21.7881 23.4752 21.6672C23.5994 21.5457 23.7464 21.45 23.9077 21.3857C24.0751 21.3173 24.2571 21.2831 24.4537 21.2832ZM10.1276 22.6133C10.1276 22.1682 10.4195 21.8024 10.8962 21.8024C11.3519 21.8024 11.6594 22.1524 11.6594 22.6134C11.6594 23.0745 11.3519 23.4239 10.8962 23.4239C10.4195 23.4239 10.1276 23.0586 10.1276 22.6133ZM12.1787 22.6134V21.3468H11.6278V21.6544C11.4526 21.4263 11.1881 21.2832 10.8277 21.2832C10.1174 21.2832 9.56104 21.8394 9.56104 22.6134C9.56104 23.387 10.1174 23.9438 10.8277 23.9438C11.1881 23.9438 11.4525 23.8006 11.6278 23.5726V23.8801H12.1787V22.6134ZM9.0732 23.8801V22.2902C9.0732 21.6914 8.69161 21.2886 8.07714 21.2832C7.7538 21.2777 7.41949 21.3784 7.1866 21.7339C7.01185 21.453 6.73591 21.2832 6.3489 21.2832C6.07887 21.2832 5.81378 21.3626 5.60695 21.6592V21.3468H5.05615V23.8801H5.61237V22.4758C5.61237 22.036 5.85623 21.8025 6.23227 21.8025C6.59818 21.8025 6.78379 22.0408 6.78379 22.4704V23.8801H7.34013V22.4757C7.34013 22.0359 7.59485 21.8024 7.96003 21.8024C8.3368 21.8024 8.51698 22.0407 8.51698 22.4703V23.8801H9.0732Z" fill="#11313D"/>
</g>
<defs>
<clipPath id="clip0_1257_7006">
<rect width="30.88" height="24" fill="white"/>
</clipPath>
</defs>
</svg>
