<svg width="68" height="22" viewBox="0 0 68 22" fill="none" xmlns="http://www.w3.org/2000/svg">
<g clip-path="url(#clip0_1257_6999)">
<path d="M35.1681 7.00512C35.1293 10.0576 37.894 11.7608 39.9766 12.7736C42.1163 13.8127 42.835 14.479 42.8265 15.4083C42.8106 16.8304 41.1197 17.458 39.5375 17.4824C36.7771 17.5251 35.1721 16.7387 33.8961 16.1439L32.9017 20.7875C34.1819 21.3762 36.5524 21.8896 39.0106 21.9121C44.7808 21.9121 48.5558 19.0696 48.5763 14.6624C48.5989 9.06915 40.8238 8.75956 40.877 6.25951C40.8953 5.50144 41.6201 4.69247 43.2084 4.48679C43.9946 4.38288 46.1649 4.30336 48.6254 5.43411L49.5912 0.941341C48.2679 0.460522 46.5673 0.000112534 44.4499 0.000112534C39.0188 0.000112534 35.1989 2.88132 35.1681 7.00512ZM58.8708 0.3871C57.8172 0.3871 56.9293 1.00045 56.533 1.94168L48.2905 21.5821H54.0565L55.2039 18.4176H62.2498L62.9154 21.5821H67.9975L63.5627 0.3871H58.8708ZM59.6775 6.11267L61.3415 14.0716H56.7842L59.6775 6.11267ZM28.1771 0.387363L23.6321 21.5818H29.1267L33.6695 0.386835L28.1771 0.387363ZM20.0488 0.387363L14.3299 14.8133L12.0165 2.54708C11.745 1.17777 10.673 0.3871 9.4826 0.3871H0.133872L0.00292969 1.00257C1.92218 1.41818 4.10279 2.08852 5.4239 2.80577C6.2324 3.24392 6.46295 3.62693 6.72855 4.66809L11.1102 21.5821H16.9166L25.8186 0.3871L20.0488 0.387363Z" fill="url(#paint0_linear_1257_6999)"/>
</g>
<defs>
<linearGradient id="paint0_linear_1257_6999" x1="3125.99" y1="65.8676" x2="3189.28" y2="-2184.53" gradientUnits="userSpaceOnUse">
<stop stop-color="#222357"/>
<stop offset="1" stop-color="#254AA5"/>
</linearGradient>
<clipPath id="clip0_1257_6999">
<rect width="68" height="22" fill="white"/>
</clipPath>
</defs>
</svg>
