<svg width="31" height="24" viewBox="0 0 31 24" fill="none" xmlns="http://www.w3.org/2000/svg">
<g clip-path="url(#clip0_1257_7001)">
<path d="M5.61576 23.8815V22.2931C5.61576 21.684 5.24502 21.287 4.60956 21.287C4.2919 21.287 3.9477 21.3929 3.70938 21.7371C3.52414 21.4458 3.25941 21.287 2.86227 21.287C2.59742 21.287 2.33282 21.3663 2.12092 21.6576V21.3399H1.56494V23.8815H2.12092V22.4783C2.12092 22.0283 2.35923 21.8164 2.72997 21.8164C3.10046 21.8164 3.28595 22.0547 3.28595 22.4783V23.8815H3.84193V22.4783C3.84193 22.0283 4.10653 21.8164 4.45073 21.8164C4.82146 21.8164 5.00671 22.0547 5.00671 22.4783V23.8815H5.61576ZM13.8494 21.3399H12.9494V20.5722H12.3934V21.3399H11.8904V21.8428H12.3933V23.0079C12.3933 23.5904 12.6316 23.9345 13.2671 23.9345C13.5054 23.9345 13.77 23.8551 13.9555 23.7492L13.7965 23.2726C13.6377 23.3785 13.4524 23.405 13.32 23.405C13.0553 23.405 12.9494 23.2462 12.9494 22.9813V21.8428H13.8494V21.3399ZM18.5621 21.2869C18.2445 21.2869 18.0327 21.4458 17.9003 21.6576V21.3399H17.3443V23.8815H17.9003V22.4519C17.9003 22.0283 18.0855 21.79 18.4297 21.79C18.5356 21.79 18.668 21.8166 18.7739 21.843L18.9327 21.3135C18.8269 21.287 18.668 21.287 18.5621 21.287M11.4403 21.5518C11.1754 21.3665 10.8048 21.2871 10.4077 21.2871C9.77234 21.2871 9.34878 21.6048 9.34878 22.1078C9.34878 22.5315 9.66645 22.7697 10.2224 22.8492L10.4872 22.8757C10.7784 22.9285 10.9372 23.008 10.9372 23.1404C10.9372 23.3257 10.7255 23.4581 10.3547 23.4581C9.984 23.4581 9.69286 23.3257 9.50749 23.1934L9.24277 23.6169C9.53403 23.8287 9.93117 23.9346 10.3282 23.9346C11.0695 23.9346 11.4932 23.5905 11.4932 23.1139C11.4932 22.6638 11.149 22.4255 10.6195 22.3461L10.3547 22.3196C10.1164 22.2931 9.93117 22.2402 9.93117 22.0814C9.93117 21.896 10.1164 21.7901 10.4077 21.7901C10.7255 21.7901 11.0431 21.9224 11.202 22.0019L11.4403 21.5518ZM26.2135 21.2871C25.8958 21.2871 25.684 21.4459 25.5516 21.6577V21.3401H24.9956V23.8816H25.5516V22.452C25.5516 22.0285 25.7369 21.7901 26.081 21.7901C26.187 21.7901 26.3194 21.8167 26.4253 21.8431L26.5842 21.3136C26.4783 21.2871 26.3194 21.2871 26.2135 21.2871ZM19.1181 22.6109C19.1181 23.3786 19.6476 23.9346 20.4684 23.9346C20.839 23.9346 21.1037 23.8552 21.3684 23.6435L21.1037 23.1934C20.8919 23.3522 20.6802 23.4316 20.4418 23.4316C19.9918 23.4316 19.6741 23.1139 19.6741 22.6109C19.6741 22.1343 19.9918 21.8166 20.4418 21.7901C20.6802 21.7901 20.8919 21.8695 21.1037 22.0285L21.3684 21.5784C21.1037 21.3665 20.839 21.2871 20.4684 21.2871C19.6476 21.2871 19.1181 21.8431 19.1181 22.6109ZM24.2544 22.6109V21.3401H23.6984V21.6577C23.513 21.4195 23.2483 21.2871 22.9041 21.2871C22.1893 21.2871 21.6333 21.8431 21.6333 22.6109C21.6333 23.3786 22.1893 23.9346 22.9041 23.9346C23.2747 23.9346 23.5395 23.8023 23.6984 23.564V23.8816H24.2544V22.6109ZM22.2157 22.6109C22.2157 22.1608 22.5069 21.7901 22.9834 21.7901C23.4335 21.7901 23.7513 22.1343 23.7513 22.6109C23.7513 23.0609 23.4335 23.4316 22.9834 23.4316C22.5069 23.405 22.2157 23.0609 22.2157 22.6109ZM15.5704 21.2871C14.8291 21.2871 14.2995 21.8166 14.2995 22.6109C14.2995 23.4051 14.829 23.9346 15.5969 23.9346C15.9675 23.9346 16.3382 23.8287 16.6295 23.5905L16.3646 23.1934C16.1528 23.3522 15.8881 23.4581 15.6234 23.4581C15.2792 23.4581 14.935 23.2993 14.8555 22.849H16.7354V22.6374C16.7619 21.8166 16.2854 21.2871 15.5704 21.2871ZM15.5703 21.7636C15.9144 21.7636 16.1528 21.9755 16.2057 22.3727H14.8819C14.9349 22.0285 15.1732 21.7636 15.5703 21.7636ZM29.3639 22.6109V20.334H28.808V21.6577C28.6226 21.4195 28.3579 21.2871 28.0137 21.2871C27.2989 21.2871 26.7429 21.8431 26.7429 22.6109C26.7429 23.3786 27.2989 23.9346 28.0137 23.9346C28.3844 23.9346 28.6491 23.8023 28.808 23.564V23.8816H29.3639V22.6109ZM27.3254 22.6109C27.3254 22.1608 27.6165 21.7901 28.0931 21.7901C28.5432 21.7901 28.8609 22.1343 28.8609 22.6109C28.8609 23.0609 28.5432 23.4316 28.0931 23.4316C27.6165 23.405 27.3254 23.0609 27.3254 22.6109ZM8.73961 22.6109V21.3401H8.18364V21.6577C7.99827 21.4195 7.73354 21.2871 7.38934 21.2871C6.67453 21.2871 6.11855 21.8431 6.11855 22.6109C6.11855 23.3786 6.67453 23.9346 7.38934 23.9346C7.76008 23.9346 8.0248 23.8023 8.18364 23.564V23.8816H8.73961V22.6109ZM6.67453 22.6109C6.67453 22.1608 6.96579 21.7901 7.44229 21.7901C7.89238 21.7901 8.21017 22.1343 8.21017 22.6109C8.21017 23.0609 7.89238 23.4316 7.44229 23.4316C6.96579 23.405 6.67453 23.0609 6.67453 22.6109Z" fill="black"/>
<path d="M11.2549 2.03906H19.5946V17.0241H11.2549V2.03906Z" fill="#FF5F00"/>
<path d="M11.7845 9.53114C11.7845 6.48651 13.2141 3.78597 15.4115 2.03855C13.7967 0.767759 11.7581 0 9.53419 0C4.2654 0 0.00292969 4.26247 0.00292969 9.53114C0.00292969 14.7998 4.2654 19.0623 9.53407 19.0623C11.758 19.0623 13.7965 18.2945 15.4115 17.0236C13.2141 15.3027 11.7845 12.5758 11.7845 9.53114Z" fill="#EB001B"/>
<path d="M30.8466 9.53114C30.8466 14.7997 26.5841 19.0623 21.3155 19.0623C19.0915 19.0623 17.053 18.2945 15.438 17.0236C17.6619 15.2763 19.0651 12.5758 19.0651 9.53114C19.0651 6.48651 17.6354 3.78597 15.438 2.03855C17.0529 0.767759 19.0915 0 21.3155 0C26.5841 0 30.8466 4.28901 30.8466 9.53114Z" fill="#F79E1B"/>
</g>
<defs>
<clipPath id="clip0_1257_7001">
<rect width="30.88" height="24" fill="white"/>
</clipPath>
</defs>
</svg>
