<svg width="24" height="24" viewBox="0 0 24 24" fill="none" xmlns="http://www.w3.org/2000/svg">
<path d="M20.25 12C20.25 9.81196 19.3812 7.71319 17.834 6.16602C16.2868 4.61884 14.188 3.75 12 3.75C9.81196 3.75 7.71319 4.61884 6.16602 6.16602C4.61884 7.71319 3.75 9.81196 3.75 12C3.75 13.0834 3.96333 14.1563 4.37793 15.1572C4.79253 16.1581 5.39995 17.0679 6.16602 17.834C6.93209 18.6001 7.84186 19.2075 8.84277 19.6221C9.84371 20.0367 10.9166 20.25 12 20.25C13.0834 20.25 14.1563 20.0367 15.1572 19.6221C16.1581 19.2075 17.0679 18.6001 17.834 17.834C18.6001 17.0679 19.2075 16.1581 19.6221 15.1572C20.0367 14.1563 20.25 13.0834 20.25 12ZM21.75 12C21.75 13.2804 21.4978 14.5485 21.0078 15.7314C20.5178 16.9143 19.7998 17.9892 18.8945 18.8945C17.9892 19.7998 16.9143 20.5178 15.7314 21.0078C14.5485 21.4978 13.2804 21.75 12 21.75C10.7196 21.75 9.45148 21.4978 8.26855 21.0078C7.08573 20.5178 6.01078 19.7998 5.10547 18.8945C4.20016 17.9892 3.48217 16.9143 2.99219 15.7314C2.5022 14.5485 2.25 13.2804 2.25 12C2.25 9.41414 3.27699 6.93395 5.10547 5.10547C6.93395 3.27699 9.41414 2.25 12 2.25C14.5859 2.25 17.0661 3.27699 18.8945 5.10547C20.723 6.93395 21.75 9.41414 21.75 12Z" fill="#FFFEFB"/>
<path d="M11.25 7C11.25 6.58579 11.5858 6.25 12 6.25C12.4142 6.25 12.75 6.58579 12.75 7V11.6895L15.5303 14.4697C15.8232 14.7626 15.8232 15.2374 15.5303 15.5303C15.2374 15.8232 14.7626 15.8232 14.4697 15.5303L11.4697 12.5303C11.3291 12.3896 11.25 12.1989 11.25 12V7Z" fill="#FFFEFB"/>
</svg>
