<svg width="24" height="24" viewBox="0 0 24 24" fill="none" xmlns="http://www.w3.org/2000/svg">
<path d="M20.25 6C20.25 5.86421 20.1358 5.75 20 5.75H4C3.86421 5.75 3.75 5.86421 3.75 6V18C3.75 18.1358 3.86421 18.25 4 18.25H20C20.1358 18.25 20.25 18.1358 20.25 18V6ZM21.75 18C21.75 18.9642 20.9642 19.75 20 19.75H4C3.03579 19.75 2.25 18.9642 2.25 18V6C2.25 5.03579 3.03579 4.25 4 4.25H20C20.9642 4.25 21.75 5.03579 21.75 6V18Z" fill="#FFFEFB"/>
<path d="M20.6094 5.86002C20.9628 5.64419 21.4237 5.75567 21.6397 6.10904C21.8555 6.46246 21.744 6.92336 21.3906 7.13931L12.3906 12.6393C12.1506 12.7859 11.8494 12.7859 11.6094 12.6393L2.60938 7.13931C2.256 6.92336 2.14452 6.46246 2.36035 6.10904C2.5763 5.75567 3.03721 5.64419 3.39063 5.86002L12 11.1208L20.6094 5.86002Z" fill="#FFFEFB"/>
</svg>
