<svg width="20" height="20" viewBox="0 0 20 20" fill="none" xmlns="http://www.w3.org/2000/svg">
<path d="M18.1071 9.75C18.1071 6.593 17.9881 4.3913 17.8768 3.01967L17.8596 2.87912C17.7429 2.18836 17.1943 1.68131 16.4803 1.62319V1.62228C15.1087 1.51097 12.9069 1.39286 9.75 1.39286C6.59264 1.39286 4.39036 1.51095 3.01876 1.62228L3.01967 1.62319C2.25818 1.68518 1.68518 2.25818 1.62319 3.01967C1.51187 4.3913 1.39286 6.593 1.39286 9.75C1.39286 12.907 1.51187 15.1087 1.62319 16.4803L1.64042 16.6209C1.75713 17.3116 2.30568 17.8187 3.01967 17.8768H3.01876C4.39036 17.9881 6.59264 18.1071 9.75 18.1071C12.907 18.1071 15.1087 17.9881 16.4803 17.8768C17.2418 17.8148 17.8148 17.2418 17.8768 16.4803C17.9881 15.1087 18.1071 12.907 18.1071 9.75ZM19.5 9.75C19.5 12.9422 19.3797 15.1819 19.2651 16.5937C19.1478 18.0352 18.0352 19.1478 16.5937 19.2651C15.1819 19.3797 12.9422 19.5 9.75 19.5C6.55779 19.5 4.31805 19.3797 2.90632 19.2651C1.4648 19.1478 0.352228 18.0352 0.234863 16.5937C0.12028 15.1819 0 12.9422 0 9.75C0 6.55779 0.12028 4.31805 0.234863 2.90632C0.352229 1.4648 1.4648 0.352229 2.90632 0.234863C4.31805 0.12028 6.55779 0 9.75 0C12.1442 0 14.0026 0.0675095 15.3777 0.149623L16.5937 0.234863L16.8603 0.268415C18.1706 0.492778 19.1551 1.55501 19.2651 2.90632C19.3797 4.31805 19.5 6.55779 19.5 9.75Z" fill="#FCFEFE"/>
<path d="M11.4325 18.7795V12.3538C11.4326 11.9694 11.7444 11.6574 12.1289 11.6574H14.5165C14.5569 11.6574 14.5869 11.6437 14.6018 11.632C14.6084 11.6268 14.6106 11.6233 14.6108 11.623V11.6211C14.6759 11.1578 14.6737 10.6874 14.6045 10.2247V10.2237C14.6039 10.2231 14.603 10.222 14.6018 10.221C14.5928 10.214 14.5689 10.202 14.531 10.202H12.1289C11.7444 10.202 11.4326 9.89006 11.4325 9.50556C11.4325 8.95811 11.4545 8.47905 11.5331 8.07733C11.613 7.66924 11.7623 7.28226 12.0609 6.97466C12.3609 6.66579 12.7404 6.50963 13.1364 6.42422C13.5235 6.34075 13.9811 6.31356 14.4921 6.30362C14.5392 6.30267 14.5749 6.28652 14.5936 6.27188C14.6021 6.26514 14.6062 6.25999 14.6072 6.25828C14.6079 6.25716 14.6085 6.25577 14.609 6.25193C14.6913 5.69302 14.6577 5.20261 14.6063 4.85817C14.5976 4.85288 14.5785 4.84432 14.5483 4.84456C12.7258 4.86043 11.5655 4.99262 10.8231 5.55459C10.1394 6.07224 9.637 7.11228 9.637 9.50556C9.63686 9.89006 9.32511 10.202 8.94057 10.202H7.09159C7.07435 10.202 7.05997 10.2041 7.04988 10.2074C7.04789 10.2081 7.04602 10.2086 7.04444 10.2092C7.00242 10.4925 6.97535 10.8925 7.02539 11.379L7.0526 11.5976V11.5985C7.05368 11.606 7.05601 11.6158 7.07164 11.6284C7.09023 11.6433 7.12296 11.6574 7.16414 11.6574H8.94057C9.3251 11.6574 9.63683 11.9694 9.637 12.3538V18.8012C9.637 19.1859 9.3252 19.4977 8.94057 19.4977C8.55598 19.4976 8.24414 19.1858 8.24414 18.8012V13.0503H7.16414C6.47259 13.0503 5.78566 12.576 5.67334 11.798L5.63979 11.5223C5.57494 10.8925 5.61155 10.3655 5.67062 9.97982C5.78716 9.21935 6.45922 8.8093 7.09159 8.80913H8.26047C8.35098 6.69072 8.8748 5.28228 9.9825 4.44375C11.1487 3.56099 12.79 3.4669 14.5365 3.45171H14.5374C15.1948 3.44653 15.8691 3.88149 15.9838 4.64597C16.0509 5.09283 16.0944 5.72757 15.9874 6.45505C15.8794 7.18774 15.2659 7.62647 14.6444 7.68922L14.5202 7.69647C14.0221 7.70615 13.6779 7.73285 13.4302 7.78625C13.1914 7.83776 13.1023 7.90169 13.0602 7.94494C13.0168 7.98961 12.9501 8.08748 12.8997 8.34484C12.8746 8.47289 12.8575 8.62551 12.8453 8.80913H14.531C15.1961 8.80913 15.8689 9.25375 15.9828 10.0188L16.0119 10.2428C16.0711 10.7672 16.064 11.2974 15.9901 11.8206L15.9892 11.8252C15.8743 12.6014 15.1845 13.0503 14.5165 13.0503H12.8253V18.7795C12.8253 19.1641 12.5135 19.4759 12.1289 19.4759C11.7443 19.4759 11.4325 19.1641 11.4325 18.7795Z" fill="#FCFEFE"/>
</svg>
