<svg width="20" height="20" viewBox="0 0 20 20" fill="none" xmlns="http://www.w3.org/2000/svg">
<path d="M18 7.15039C18 6.01802 17.9997 5.21336 17.9482 4.58399C17.9039 4.04094 17.8243 3.67877 17.7012 3.39258L17.6455 3.27442C17.3728 2.73938 16.9583 2.29172 16.4492 1.97949L16.2256 1.85449C15.9209 1.6993 15.5366 1.60247 14.916 1.55176C14.2866 1.50033 13.482 1.5 12.3496 1.5H7.15039C6.01802 1.5 5.21336 1.50033 4.58399 1.55176C4.04094 1.59614 3.67877 1.67569 3.39258 1.79883L3.27442 1.85449C2.73938 2.12716 2.29172 2.54169 1.97949 3.05078L1.85449 3.27442C1.6993 3.57911 1.60247 3.96343 1.55176 4.58399C1.50033 5.21336 1.5 6.01802 1.5 7.15039V12.3496C1.5 13.482 1.50033 14.2866 1.55176 14.916C1.60247 15.5366 1.6993 15.9209 1.85449 16.2256L1.97949 16.4492C2.29172 16.9583 2.73938 17.3728 3.27442 17.6455L3.39258 17.7012C3.67877 17.8243 4.04094 17.9039 4.58399 17.9482C5.21336 17.9997 6.01802 18 7.15039 18H12.3496C13.482 18 14.2866 17.9997 14.916 17.9482C15.5366 17.8975 15.9209 17.8007 16.2256 17.6455L16.4492 17.5205C16.9583 17.2083 17.3728 16.7606 17.6455 16.2256L17.7012 16.1074C17.8243 15.8212 17.9039 15.4591 17.9482 14.916C17.9997 14.2866 18 13.482 18 12.3496V7.15039ZM15.25 3.5C15.6642 3.5 16 3.83579 16 4.25C16 4.66421 15.6642 5 15.25 5H14.75C14.3358 5 14 4.66421 14 4.25C14 3.83579 14.3358 3.5 14.75 3.5H15.25ZM19.5 12.3496C19.5 13.4572 19.5009 14.3335 19.4434 15.0381C19.3851 15.7514 19.2632 16.355 18.9824 16.9062C18.527 17.8 17.8 18.527 16.9062 18.9824C16.355 19.2632 15.7514 19.3851 15.0381 19.4434C14.3335 19.5009 13.4572 19.5 12.3496 19.5H7.15039C6.04278 19.5 5.16654 19.5009 4.46192 19.4434C3.74858 19.3851 3.14499 19.2632 2.59375 18.9824C1.70002 18.527 0.972971 17.8 0.517579 16.9062C0.236842 16.355 0.114927 15.7514 0.0566415 15.0381C-0.000931252 14.3335 9.17122e-07 13.4572 9.17122e-07 12.3496V7.15039C9.17122e-07 6.04278 -0.000931233 5.16654 0.0566415 4.46192C0.114927 3.74858 0.236842 3.145 0.517579 2.59375C0.972971 1.70002 1.70002 0.972971 2.59375 0.517579C3.145 0.236842 3.74858 0.114927 4.46192 0.0566415C5.16654 -0.000931233 6.04278 9.17122e-07 7.15039 9.17122e-07H12.3496C13.4572 9.17122e-07 14.3335 -0.000931252 15.0381 0.0566415C15.7514 0.114927 16.355 0.236842 16.9062 0.517579C17.8 0.972971 18.527 1.70002 18.9824 2.59375C19.2632 3.14499 19.3851 3.74858 19.4434 4.46192C19.5009 5.16654 19.5 6.04278 19.5 7.15039V12.3496Z" fill="#FCFEFE"/>
<path d="M9.12694 5.54542C10.242 5.38021 11.3779 5.66478 12.2832 6.33644C13.1882 7.00802 13.7898 8.01166 13.9551 9.12647C14.0369 9.6786 14.0087 10.2423 13.873 10.7837C13.7373 11.325 13.4965 11.8346 13.164 12.2827C12.8315 12.7309 12.4133 13.1092 11.9346 13.396C11.4558 13.6828 10.9251 13.8728 10.373 13.9546C9.82098 14.0364 9.25811 14.0083 8.71678 13.8726C8.17545 13.7369 7.66597 13.4961 7.21776 13.1636C6.31246 12.4919 5.71109 11.4876 5.54588 10.3726C5.38073 9.25755 5.66528 8.12254 6.3369 7.2173C7.00847 6.31214 8.01205 5.71072 9.12694 5.54542ZM9.34764 7.02882C8.62625 7.1357 7.9766 7.52526 7.54198 8.11085C7.10738 8.69662 6.92242 9.43134 7.02928 10.1528C7.13617 10.8743 7.52563 11.5239 8.11131 11.9585C8.40137 12.1737 8.73168 12.3297 9.08202 12.4175C9.43222 12.5052 9.79618 12.5231 10.1533 12.4702C10.5106 12.4173 10.8542 12.2945 11.164 12.1089C11.4738 11.9233 11.7438 11.6782 11.959 11.3882C12.1741 11.0982 12.3302 10.7687 12.418 10.4185C12.5057 10.0683 12.5235 9.70431 12.4707 9.34718C12.3638 8.62563 11.9745 7.97613 11.3887 7.54151C10.803 7.107 10.069 6.92207 9.34764 7.02882Z" fill="#FCFEFE"/>
</svg>
