<svg width="24" height="24" viewBox="0 0 24 24" fill="none" xmlns="http://www.w3.org/2000/svg">
<path d="M18.25 6C18.25 5.30964 17.6904 4.75 17 4.75H7C6.30964 4.75 5.75 5.30964 5.75 6V19C5.75 19.6904 6.30964 20.25 7 20.25H17C17.6904 20.25 18.25 19.6904 18.25 19V6ZM19.75 19C19.75 20.5188 18.5188 21.75 17 21.75H7C5.48122 21.75 4.25 20.5188 4.25 19V6C4.25 4.48122 5.48122 3.25 7 3.25H17C18.5188 3.25 19.75 4.48122 19.75 6V19Z" fill="#FCFEFE"/>
<path d="M13 16.25C13.4142 16.25 13.75 16.5858 13.75 17C13.75 17.4142 13.4142 17.75 13 17.75H9C8.58579 17.75 8.25 17.4142 8.25 17C8.25 16.5858 8.58579 16.25 9 16.25H13ZM15 12.25C15.4142 12.25 15.75 12.5858 15.75 13C15.75 13.4142 15.4142 13.75 15 13.75H9C8.58579 13.75 8.25 13.4142 8.25 13C8.25 12.5858 8.58579 12.25 9 12.25H15ZM15 8.25C15.4142 8.25 15.75 8.58579 15.75 9C15.75 9.41421 15.4142 9.75 15 9.75H9C8.58579 9.75 8.25 9.41421 8.25 9C8.25 8.58579 8.58579 8.25 9 8.25H15Z" fill="#FCFEFE"/>
</svg>
