<svg width="29" height="34" viewBox="0 0 29 34" fill="none" xmlns="http://www.w3.org/2000/svg">
<path d="M18.4443 2.90683e-07C20.0235 -0.000454422 21.5618 0.532579 22.8128 1.52185C24.0643 2.51152 24.9583 3.90209 25.3462 5.47457C25.7338 7.04539 25.5797 8.70303 24.9129 10.1716C24.8094 10.3996 24.6912 10.6187 24.5656 10.8325H27.133C27.9427 10.8325 28.5989 11.5115 28.5993 12.3488C28.5993 13.1864 27.943 13.8669 27.133 13.8669H21.0565L9.93473 19.4989H27.133C27.943 19.4989 28.5993 20.1794 28.5993 21.017C28.5989 21.8543 27.9427 22.5333 27.133 22.5333H6.56706C6.03199 23.6515 5.87318 24.9131 6.1123 26.1287L6.21794 26.5657C6.50664 27.5678 7.08915 28.4665 7.89909 29.1391C8.82572 29.9085 9.99185 30.3334 11.1987 30.3332H17.3755L17.7264 30.3184C18.5406 30.2498 19.3177 29.942 19.9608 29.4335C20.6951 28.8528 21.2114 28.0448 21.4342 27.1414C21.6344 26.3298 22.4326 25.8403 23.2174 26.0473C24.0023 26.2543 24.4758 27.0796 24.2756 27.8913C23.8876 29.4637 22.9936 30.8544 21.7422 31.844C20.4914 32.8328 18.9542 33.3662 17.3755 33.3658H11.1987C9.32983 33.3661 7.51433 32.7109 6.06217 31.5052C4.70012 30.3742 3.73485 28.8234 3.31396 27.0859L3.23698 26.736C2.9606 25.3327 3.02994 23.8903 3.42497 22.5333H1.46631C0.656546 22.5333 0.000413812 21.8543 0 21.017C0 20.1794 0.656291 19.4989 1.46631 19.4989H4.9987C5.76857 18.5355 6.73399 17.7438 7.83643 17.1846L14.3856 13.8669H1.46631C0.656291 13.8669 0 13.1864 0 12.3488C0.000414757 11.5115 0.656547 10.8325 1.46631 10.8325H20.3761L20.4048 10.8177C21.2275 10.4009 21.8791 9.71672 22.2578 8.88299C22.6363 8.0495 22.7221 7.1118 22.5031 6.22439C22.2802 5.32109 21.7639 4.51304 21.0296 3.93236C20.2948 3.35136 19.3844 3.03231 18.4443 3.03258H11.2238C10.2836 3.03231 9.3734 3.35123 8.63851 3.93236C7.90422 4.51306 7.38787 5.32108 7.16504 6.22439C6.96484 7.036 6.16669 7.52553 5.38184 7.31856C4.59695 7.11153 4.12352 6.28621 4.32373 5.47457C4.71169 3.90216 5.60565 2.51146 6.8571 1.52185C8.10785 0.533003 9.64509 -0.00033417 11.2238 2.90683e-07H18.4443Z" fill="#68AEC9"/>
</svg>
