<svg width="44" height="44" viewBox="0 0 44 44" fill="none" xmlns="http://www.w3.org/2000/svg">
<path fill-rule="evenodd" clip-rule="evenodd" d="M19.25 3.66602C16.7651 3.66623 14.3162 4.26068 12.1078 5.39979C9.89933 6.53889 7.99531 8.18961 6.55458 10.2142C5.11384 12.2388 4.17816 14.5787 3.82561 17.0384C3.47306 19.4982 3.71385 22.0066 4.5279 24.3544C5.34196 26.7022 6.70566 28.8213 8.50524 30.5348C10.3048 32.2484 12.4881 33.5068 14.8729 34.205C17.2577 34.9031 19.7749 35.0209 22.2145 34.5484C24.6541 34.0758 26.9453 33.0268 28.897 31.4887L35.5923 38.184C35.9381 38.518 36.4012 38.7028 36.8819 38.6986C37.3626 38.6944 37.8224 38.5016 38.1623 38.1617C38.5022 37.8218 38.695 37.3619 38.6992 36.8813C38.7034 36.4006 38.5186 35.9375 38.1846 35.5917L31.4893 28.8963C33.3006 26.5985 34.4284 23.8371 34.7437 20.9282C35.0589 18.0193 34.5488 15.0804 33.2717 12.4479C31.9947 9.81532 30.0023 7.5955 27.5225 6.04244C25.0428 4.48938 22.1759 3.66582 19.25 3.66602ZM7.33331 19.2493C7.33331 16.0889 8.58881 13.0578 10.8236 10.823C13.0584 8.58818 16.0895 7.33268 19.25 7.33268C22.4105 7.33268 25.4415 8.58818 27.6763 10.823C29.9111 13.0578 31.1666 16.0889 31.1666 19.2493C31.1666 22.4098 29.9111 25.4409 27.6763 27.6757C25.4415 29.9105 22.4105 31.166 19.25 31.166C16.0895 31.166 13.0584 29.9105 10.8236 27.6757C8.58881 25.4409 7.33331 22.4098 7.33331 19.2493Z" fill="#68AEC9"/>
</svg>
