<svg width="44" height="44" viewBox="0 0 44 44" fill="none" xmlns="http://www.w3.org/2000/svg">
<path d="M21.8926 9.86491C21.8208 9.93664 21.7671 10.0247 21.735 10.1209C21.5685 10.6228 21.2865 11.0784 20.9132 11.453C20.5394 11.828 20.0834 12.112 19.5812 12.2801C19.5328 12.2963 19.4847 12.318 19.4416 12.3446L19.3216 12.4395L4.55469 27.201L6.99316 29.6395C7.87103 29.1277 8.88274 28.87 9.91146 28.909C11.2684 28.9607 12.5553 29.5243 13.5155 30.4845C14.4756 31.4448 15.0376 32.7316 15.0892 34.0885C15.1282 35.1171 14.8704 36.1273 14.3587 37.005L16.7972 39.4417L31.5659 24.6766C31.6374 24.6045 31.6913 24.5169 31.7235 24.4206C31.89 23.9186 32.1719 23.4631 32.5452 23.0885C32.9191 22.7135 33.3751 22.4295 33.8773 22.2614C33.9735 22.2293 34.0634 22.1756 34.1351 22.1038L39.4435 16.7936L37.005 14.3551C36.1289 14.8666 35.121 15.1266 34.0939 15.0892C32.7373 15.0396 31.448 14.4791 30.4863 13.5208L30.4845 13.519C29.5248 12.5589 28.9626 11.2716 28.9108 9.91504C28.8716 8.88686 29.1285 7.87627 29.6395 6.99854L27.201 4.55469L21.8926 9.86491ZM42.625 16.7936C42.625 17.2468 42.4441 17.6816 42.1237 18.0021L36.0794 24.0464C35.7055 24.4205 35.2492 24.701 34.7474 24.8682L34.7492 24.87C34.6524 24.9024 34.5635 24.957 34.4914 25.0293C34.4194 25.1016 34.3659 25.1903 34.3338 25.2871L34.332 25.2889C34.1649 25.7904 33.8837 26.2468 33.5103 26.6209L18.0075 42.1237C17.687 42.4441 17.2504 42.625 16.7972 42.625C16.3443 42.6248 15.9108 42.4438 15.5905 42.1237L11.7967 38.3317C11.4941 38.029 11.3151 37.6226 11.2972 37.1948C11.2792 36.7645 11.4242 36.3427 11.7036 36.015L11.7072 36.0114C12.1402 35.5072 12.3677 34.8583 12.3428 34.1942C12.3176 33.5298 12.0412 32.899 11.5711 32.4289C11.101 31.9587 10.4703 31.6824 9.80583 31.6572C9.14165 31.6322 8.49285 31.8598 7.98861 32.2928L7.98503 32.2946C7.65728 32.5742 7.23557 32.7208 6.80518 32.7028C6.37476 32.6848 5.9662 32.5039 5.66292 32.1979L1.8763 28.4095C1.55636 28.089 1.375 27.6539 1.375 27.201C1.37518 26.7481 1.55608 26.3129 1.8763 25.9925L17.3773 10.4933C17.7512 10.1202 18.2082 9.8387 18.7093 9.67155L18.8472 9.6071C18.8901 9.58043 18.9294 9.54822 18.9653 9.51221C19.0375 9.43977 19.0925 9.35149 19.1247 9.25439C19.2917 8.75245 19.5741 8.29457 19.9482 7.92057L25.9925 1.8763C26.3129 1.55609 26.7481 1.37518 27.201 1.375C27.5974 1.375 27.9801 1.51284 28.2842 1.76172L28.4095 1.87451L32.1979 5.66829L32.3071 5.78646C32.5126 6.0326 32.645 6.33172 32.6885 6.64941L32.7028 6.80876L32.701 6.96989C32.6815 7.34347 32.5393 7.70173 32.2946 7.98861L32.2928 7.99219C31.8603 8.49657 31.6338 9.14549 31.659 9.80941C31.6843 10.4727 31.9584 11.103 32.4271 11.5729L32.6115 11.7394C33.0567 12.1066 33.6129 12.3197 34.1942 12.341C34.8582 12.3651 35.5077 12.137 36.0114 11.7036L36.015 11.7C36.3017 11.4554 36.6603 11.3132 37.0337 11.2936H37.1948L37.3542 11.3079C37.723 11.3583 38.0667 11.5277 38.3317 11.7931L42.1237 15.5851C42.444 15.9056 42.625 16.3405 42.625 16.7936Z" fill="#F0B523"/>
<path d="M30.9581 21.4999C31.4949 20.9631 32.3655 20.9636 32.9025 21.4999L34.3222 22.9197C34.8589 23.4566 34.8591 24.3271 34.3222 24.864C33.7854 25.4009 32.9149 25.4007 32.3779 24.864L30.9581 23.4442C30.4218 22.9072 30.4214 22.0367 30.9581 21.4999ZM27.1769 17.7169C27.7141 17.1806 28.5847 17.1816 29.1212 17.7186L30.0665 18.664C30.6031 19.2012 30.6019 20.0716 30.0648 20.6083C29.5276 21.1449 28.6572 21.1453 28.1204 20.6083L27.1751 19.6612C26.6387 19.124 26.6398 18.2535 27.1769 17.7169ZM23.3921 13.9356C23.9288 13.3984 24.7992 13.3971 25.3364 13.9338L26.2817 14.8791C26.8188 15.4157 26.8198 16.2862 26.2835 16.8235C25.747 17.3605 24.8764 17.3614 24.3392 16.8253L23.3921 15.8799C22.8549 15.3432 22.8554 14.4728 23.3921 13.9356ZM19.1364 9.67812C19.6733 9.14115 20.5437 9.14115 21.0807 9.67812L22.5005 11.0961C23.0374 11.6331 23.0374 12.5053 22.5005 13.0422C21.9635 13.5792 21.0913 13.5791 20.5543 13.0422L19.1364 11.6225C18.5994 11.0855 18.5994 10.2151 19.1364 9.67812Z" fill="#F0B523"/>
</svg>
