<svg width="44" height="44" viewBox="0 0 44 44" fill="none" xmlns="http://www.w3.org/2000/svg">
<path d="M21.8927 9.86491C21.8209 9.93664 21.7672 10.0247 21.7351 10.1209C21.5687 10.6228 21.2866 11.0784 20.9134 11.453C20.5396 11.828 20.0835 12.112 19.5813 12.2801C19.5329 12.2963 19.4849 12.318 19.4417 12.3446L19.3217 12.4395L4.55481 27.201L6.99329 29.6395C7.87115 29.1277 8.88286 28.87 9.91158 28.909C11.2685 28.9607 12.5554 29.5243 13.5156 30.4845C14.4758 31.4448 15.0377 32.7316 15.0893 34.0885C15.1283 35.1171 14.8705 36.1273 14.3588 37.005L16.7973 39.4417L31.566 24.6766C31.6375 24.6045 31.6914 24.5169 31.7236 24.4206C31.8901 23.9186 32.172 23.4631 32.5454 23.0885C32.9192 22.7135 33.3753 22.4295 33.8774 22.2614C33.9737 22.2293 34.0635 22.1756 34.1352 22.1038L39.4436 16.7936L37.0052 14.3551C36.129 14.8666 35.1211 15.1266 34.094 15.0892C32.7374 15.0396 31.4481 14.4791 30.4865 13.5208L30.4847 13.519C29.5249 12.5589 28.9627 11.2716 28.9109 9.91504C28.8717 8.88686 29.1286 7.87627 29.6396 6.99854L27.2011 4.55469L21.8927 9.86491ZM42.6251 16.7936C42.6251 17.2468 42.4442 17.6816 42.1238 18.0021L36.0795 24.0464C35.7057 24.4205 35.2493 24.701 34.7475 24.8682L34.7493 24.87C34.6525 24.9024 34.5636 24.957 34.4915 25.0293C34.4196 25.1016 34.366 25.1903 34.3339 25.2871L34.3322 25.2889C34.165 25.7904 33.8838 26.2468 33.5104 26.6209L18.0076 42.1237C17.6871 42.4441 17.2505 42.625 16.7973 42.625C16.3444 42.6248 15.9109 42.4438 15.5906 42.1237L11.7968 38.3317C11.4942 38.029 11.3153 37.6226 11.2973 37.1948C11.2793 36.7645 11.4243 36.3427 11.7037 36.015L11.7073 36.0114C12.1403 35.5072 12.3679 34.8583 12.3429 34.1942C12.3177 33.5298 12.0413 32.899 11.5712 32.4289C11.1011 31.9587 10.4704 31.6824 9.80595 31.6572C9.14178 31.6322 8.49298 31.8598 7.98873 32.2928L7.98515 32.2946C7.6574 32.5742 7.23569 32.7208 6.8053 32.7028C6.37488 32.6848 5.96632 32.5039 5.66305 32.1979L1.87642 28.4095C1.55648 28.089 1.37512 27.6539 1.37512 27.201C1.3753 26.7481 1.5562 26.3129 1.87642 25.9925L17.3774 10.4933C17.7513 10.1202 18.2083 9.8387 18.7094 9.67155L18.8473 9.6071C18.8902 9.58043 18.9295 9.54822 18.9655 9.51221C19.0377 9.43977 19.0927 9.35149 19.1248 9.25439C19.2919 8.75245 19.5742 8.29457 19.9484 7.92057L25.9926 1.8763C26.313 1.55609 26.7482 1.37518 27.2011 1.375C27.5975 1.375 27.9802 1.51284 28.2843 1.76172L28.4096 1.87451L32.198 5.66829L32.3073 5.78646C32.5128 6.0326 32.6452 6.33172 32.6886 6.64941L32.7029 6.80876L32.7011 6.96989C32.6816 7.34347 32.5394 7.70173 32.2947 7.98861L32.2929 7.99219C31.8605 8.49657 31.634 9.14549 31.6591 9.80941C31.6844 10.4727 31.9586 11.103 32.4272 11.5729L32.6116 11.7394C33.0569 12.1066 33.613 12.3197 34.1943 12.341C34.8584 12.3651 35.5078 12.137 36.0115 11.7036L36.0151 11.7C36.3018 11.4554 36.6604 11.3132 37.0338 11.2936H37.1949L37.3543 11.3079C37.7231 11.3583 38.0669 11.5277 38.3318 11.7931L42.1238 15.5851C42.4441 15.9056 42.6251 16.3405 42.6251 16.7936Z" fill="#68AEC9"/>
<path d="M30.9581 21.4999C31.4949 20.9631 32.3655 20.9636 32.9025 21.4999L34.3222 22.9197C34.8589 23.4566 34.8591 24.3271 34.3222 24.864C33.7854 25.4009 32.9149 25.4007 32.3779 24.864L30.9581 23.4442C30.4218 22.9072 30.4214 22.0367 30.9581 21.4999ZM27.1769 17.7169C27.7141 17.1806 28.5847 17.1816 29.1212 17.7186L30.0665 18.664C30.6031 19.2012 30.6019 20.0716 30.0648 20.6083C29.5276 21.1449 28.6572 21.1453 28.1204 20.6083L27.1751 19.6612C26.6387 19.124 26.6398 18.2535 27.1769 17.7169ZM23.3921 13.9356C23.9288 13.3984 24.7992 13.3971 25.3364 13.9338L26.2817 14.8791C26.8188 15.4157 26.8198 16.2862 26.2835 16.8235C25.747 17.3605 24.8764 17.3614 24.3392 16.8253L23.3921 15.8799C22.8549 15.3432 22.8554 14.4728 23.3921 13.9356ZM19.1364 9.67812C19.6733 9.14115 20.5437 9.14115 21.0807 9.67812L22.5005 11.0961C23.0374 11.6331 23.0374 12.5053 22.5005 13.0422C21.9635 13.5792 21.0913 13.5791 20.5543 13.0422L19.1364 11.6225C18.5994 11.0855 18.5994 10.2151 19.1364 9.67812Z" fill="#68AEC9"/>
</svg>
