<svg width="24" height="24" viewBox="0 0 24 24" fill="none" xmlns="http://www.w3.org/2000/svg">
<path d="M9.531 5.469C9.60084 5.53867 9.65626 5.62143 9.69407 5.71255C9.73188 5.80367 9.75134 5.90135 9.75134 6C9.75134 6.09865 9.73188 6.19633 9.69407 6.28745C9.65626 6.37857 9.60084 6.46133 9.531 6.531L5.5605 10.5H12.75C14.938 10.5 17.0365 11.3692 18.5836 12.9164C20.1308 14.4635 21 16.562 21 18.75C21 18.9489 20.921 19.1397 20.7803 19.2803C20.6397 19.421 20.4489 19.5 20.25 19.5C20.0511 19.5 19.8603 19.421 19.7197 19.2803C19.579 19.1397 19.5 18.9489 19.5 18.75C19.5 16.9598 18.7888 15.2429 17.523 13.977C16.2571 12.7112 14.5402 12 12.75 12H5.5605L9.531 15.969C9.60073 16.0387 9.65604 16.1215 9.69378 16.2126C9.73152 16.3037 9.75095 16.4014 9.75095 16.5C9.75095 16.5986 9.73152 16.6963 9.69378 16.7874C9.65604 16.8785 9.60073 16.9613 9.531 17.031C9.46127 17.1007 9.37848 17.156 9.28737 17.1938C9.19626 17.2315 9.09861 17.2509 9 17.2509C8.90138 17.2509 8.80373 17.2315 8.71262 17.1938C8.62151 17.156 8.53873 17.1007 8.469 17.031L3.219 11.781C3.14915 11.7113 3.09374 11.6286 3.05593 11.5374C3.01812 11.4463 2.99866 11.3486 2.99866 11.25C2.99866 11.1513 3.01812 11.0537 3.05593 10.9625C3.09374 10.8714 3.14915 10.7887 3.219 10.719L8.469 5.469C8.53867 5.39915 8.62143 5.34374 8.71255 5.30593C8.80367 5.26812 8.90135 5.24866 9 5.24866C9.09865 5.24866 9.19633 5.26812 9.28745 5.30593C9.37857 5.34374 9.46133 5.39915 9.531 5.469Z" fill="black"/>
</svg>
