<svg width="24" height="24" viewBox="0 0 24 24" fill="none" xmlns="http://www.w3.org/2000/svg">
<path d="M12.0001 1.40234C14.8106 1.40234 17.5059 2.51879 19.4932 4.50607C21.4805 6.49336 22.5969 9.1887 22.5969 11.9991C22.5969 14.8096 21.4805 17.5049 19.4932 19.4922C17.5059 21.4795 14.8106 22.5959 12.0001 22.5959C9.18967 22.5959 6.49434 21.4795 4.50705 19.4922C2.51977 17.5049 1.40332 14.8096 1.40332 11.9991C1.40332 9.1887 2.51977 6.49336 4.50705 4.50607C6.49434 2.51879 9.18967 1.40234 12.0001 1.40234ZM12.0001 15.9591C10.8724 15.9586 9.76434 16.2545 8.78707 16.8173C7.8098 17.3801 6.99767 18.1899 6.43212 19.1655C8.02321 20.4052 9.98315 21.0771 12.0001 21.0743C14.0167 21.0762 15.9761 20.4038 17.5665 19.1639C17.0009 18.1888 16.1889 17.3795 15.212 16.817C14.235 16.2545 13.1274 15.9587 12.0001 15.9591ZM12.0001 2.92074C10.2412 2.92182 8.52052 3.43381 7.04716 4.39449C5.5738 5.35517 4.41124 6.72317 3.70079 8.33219C2.99033 9.94122 2.76259 11.722 3.04524 13.458C3.32789 15.194 4.10875 16.8106 5.29292 18.1111C6.01226 16.9848 7.00389 16.0578 8.17619 15.416C9.34848 14.7742 10.6636 14.4383 12.0001 14.4391C14.8177 14.4391 17.2929 15.9047 18.7073 18.1095C19.891 16.8089 20.6714 15.1925 20.9538 13.4568C21.2361 11.721 21.0082 9.94059 20.2979 8.33187C19.5875 6.72315 18.4251 5.35539 16.9521 4.39479C15.479 3.43419 13.7587 2.9221 12.0001 2.92074ZM12.0001 6.64874C12.5029 6.63407 13.0035 6.72043 13.4723 6.90271C13.9412 7.08499 14.3686 7.35947 14.7295 7.70992C15.0903 8.06037 15.3771 8.47966 15.573 8.94296C15.7689 9.40625 15.8698 9.90414 15.8698 10.4071C15.8698 10.9101 15.7689 11.408 15.573 11.8713C15.3771 12.3346 15.0903 12.7539 14.7295 13.1044C14.3686 13.4548 13.9412 13.7293 13.4723 13.9116C13.0035 14.0939 12.5029 14.1802 12.0001 14.1655C11.0165 14.1453 10.0801 13.7403 9.39168 13.0375C8.70325 12.3347 8.31768 11.3901 8.31768 10.4063C8.31768 9.42256 8.70325 8.47796 9.39168 7.77519C10.0801 7.07241 11.0165 6.66904 12.0001 6.64874ZM12.0001 8.16554C11.406 8.16554 10.8363 8.40154 10.4162 8.82163C9.99612 9.24171 9.76012 9.81146 9.76012 10.4055C9.76012 10.9996 9.99612 11.5694 10.4162 11.9895C10.8363 12.4095 11.406 12.6455 12.0001 12.6455C12.5942 12.6455 13.164 12.4095 13.584 11.9895C14.0041 11.5694 14.2401 10.9996 14.2401 10.4055C14.2401 9.81146 14.0041 9.24171 13.584 8.82163C13.164 8.40154 12.5942 8.16554 12.0001 8.16554Z" fill="#0F3339"/>
</svg>
