<svg width="22" height="21" viewBox="0 0 22 21" fill="none" xmlns="http://www.w3.org/2000/svg">
<path d="M20 10.25C20 8.34366 19.9976 6.98935 19.8594 5.96191C19.724 4.95617 19.4709 4.37569 19.0479 3.95215C18.625 3.52891 18.0451 3.27496 17.0391 3.13965C16.0114 3.00144 14.6567 3 12.75 3H8.75C6.84366 3 5.48935 3.00235 4.46191 3.14063C3.45617 3.27602 2.87569 3.52908 2.45215 3.95215C2.02891 4.37503 1.77496 4.95487 1.63965 5.96094C1.50144 6.98857 1.5 8.34329 1.5 10.25V12.25C1.5 14.1563 1.50235 15.5106 1.64063 16.5381C1.77602 17.5438 2.02908 18.1243 2.45215 18.5479C2.87503 18.9711 3.45487 19.225 4.46094 19.3604C5.48857 19.4986 6.84329 19.5 8.75 19.5H12.75C14.6563 19.5 16.0106 19.4976 17.0381 19.3594C18.0438 19.224 18.6243 18.9709 19.0479 18.5479C19.4711 18.125 19.725 17.5451 19.8604 16.5391C19.9986 15.5114 20 14.1567 20 12.25V10.25ZM21.5 12.25C21.5 14.1143 21.5015 15.5884 21.3467 16.7393C21.189 17.9114 20.8569 18.8604 20.1084 19.6084C19.36 20.3562 18.4106 20.6889 17.2383 20.8467C16.0876 21.0015 14.6142 21 12.75 21H8.75C6.88571 21 5.41161 21.0015 4.26074 20.8467C3.08857 20.689 2.13963 20.3569 1.3916 19.6084C0.643806 18.86 0.311148 17.9106 0.153321 16.7383C-0.0015431 15.5876 5.89797e-07 14.1142 5.89797e-07 12.25V10.25C5.89797e-07 8.38571 -0.00146586 6.91161 0.153321 5.76074C0.311008 4.58857 0.643064 3.63963 1.3916 2.8916C2.14004 2.14381 3.08939 1.81115 4.26172 1.65332C5.41242 1.49846 6.88583 1.5 8.75 1.5H12.75C14.6143 1.5 16.0884 1.49853 17.2393 1.65332C18.4114 1.81101 19.3604 2.14306 20.1084 2.8916C20.8562 3.64004 21.1889 4.58939 21.3467 5.76172C21.5015 6.91242 21.5 8.38583 21.5 10.25V12.25Z" fill="#1B242E"/>
<path d="M20.25 6.5C20.6642 6.5 21 6.83579 21 7.25C21 7.66421 20.6642 8 20.25 8H1.25C0.835786 8 0.5 7.66421 0.5 7.25C0.5 6.83579 0.835786 6.5 1.25 6.5H20.25ZM5 2.25V0.75C5 0.335786 5.33579 0 5.75 0C6.16421 0 6.5 0.335786 6.5 0.75V2.25C6.5 2.66421 6.16421 3 5.75 3C5.33579 3 5 2.66421 5 2.25ZM15 2.25V0.75C15 0.335786 15.3358 0 15.75 0C16.1642 0 16.5 0.335786 16.5 0.75V2.25C16.5 2.66421 16.1642 3 15.75 3C15.3358 3 15 2.66421 15 2.25Z" fill="#1B242E"/>
<path d="M16.75 15.25C16.75 15.5152 16.6446 15.7696 16.4571 15.9571C16.2696 16.1446 16.0152 16.25 15.75 16.25C15.4848 16.25 15.2304 16.1446 15.0429 15.9571C14.8554 15.7696 14.75 15.5152 14.75 15.25C14.75 14.9848 14.8554 14.7304 15.0429 14.5429C15.2304 14.3554 15.4848 14.25 15.75 14.25C16.0152 14.25 16.2696 14.3554 16.4571 14.5429C16.6446 14.7304 16.75 14.9848 16.75 15.25ZM16.75 11.25C16.75 11.5152 16.6446 11.7696 16.4571 11.9571C16.2696 12.1446 16.0152 12.25 15.75 12.25C15.4848 12.25 15.2304 12.1446 15.0429 11.9571C14.8554 11.7696 14.75 11.5152 14.75 11.25C14.75 10.9848 14.8554 10.7304 15.0429 10.5429C15.2304 10.3554 15.4848 10.25 15.75 10.25C16.0152 10.25 16.2696 10.3554 16.4571 10.5429C16.6446 10.7304 16.75 10.9848 16.75 11.25ZM11.75 15.25C11.75 15.5152 11.6446 15.7696 11.4571 15.9571C11.2696 16.1446 11.0152 16.25 10.75 16.25C10.4848 16.25 10.2304 16.1446 10.0429 15.9571C9.85536 15.7696 9.75 15.5152 9.75 15.25C9.75 14.9848 9.85536 14.7304 10.0429 14.5429C10.2304 14.3554 10.4848 14.25 10.75 14.25C11.0152 14.25 11.2696 14.3554 11.4571 14.5429C11.6446 14.7304 11.75 14.9848 11.75 15.25ZM11.75 11.25C11.75 11.5152 11.6446 11.7696 11.4571 11.9571C11.2696 12.1446 11.0152 12.25 10.75 12.25C10.4848 12.25 10.2304 12.1446 10.0429 11.9571C9.85536 11.7696 9.75 11.5152 9.75 11.25C9.75 10.9848 9.85536 10.7304 10.0429 10.5429C10.2304 10.3554 10.4848 10.25 10.75 10.25C11.0152 10.25 11.2696 10.3554 11.4571 10.5429C11.6446 10.7304 11.75 10.9848 11.75 11.25ZM6.75 15.25C6.75 15.5152 6.64464 15.7696 6.45711 15.9571C6.26957 16.1446 6.01522 16.25 5.75 16.25C5.48478 16.25 5.23043 16.1446 5.04289 15.9571C4.85536 15.7696 4.75 15.5152 4.75 15.25C4.75 14.9848 4.85536 14.7304 5.04289 14.5429C5.23043 14.3554 5.48478 14.25 5.75 14.25C6.01522 14.25 6.26957 14.3554 6.45711 14.5429C6.64464 14.7304 6.75 14.9848 6.75 15.25ZM6.75 11.25C6.75 11.5152 6.64464 11.7696 6.45711 11.9571C6.26957 12.1446 6.01522 12.25 5.75 12.25C5.48478 12.25 5.23043 12.1446 5.04289 11.9571C4.85536 11.7696 4.75 11.5152 4.75 11.25C4.75 10.9848 4.85536 10.7304 5.04289 10.5429C5.23043 10.3554 5.48478 10.25 5.75 10.25C6.01522 10.25 6.26957 10.3554 6.45711 10.5429C6.64464 10.7304 6.75 10.9848 6.75 11.25Z" fill="#1B242E"/>
</svg>
