<svg width="24" height="24" viewBox="0 0 24 24" fill="none" xmlns="http://www.w3.org/2000/svg">
<path d="M1.25 12C1.25 10.0438 1.77305 8.20533 2.68848 6.62404C2.89599 6.26558 3.3554 6.14313 3.71387 6.3506C4.07234 6.55812 4.19483 7.01751 3.9873 7.37599C3.20076 8.73467 2.75 10.3143 2.75 12C2.75 17.1088 6.89121 21.25 12 21.25C17.1088 21.25 21.25 17.1088 21.25 12C21.25 6.89123 17.1088 2.75001 12 2.75001H11.999C10.3759 2.74734 8.78085 3.17439 7.37598 3.98732C7.01748 4.19477 6.55806 4.07236 6.35059 3.71388C6.14314 3.35539 6.26557 2.89597 6.62402 2.68849C8.25765 1.74314 10.1126 1.24809 12 1.25099C17.9372 1.25099 22.75 6.06281 22.75 12C22.75 17.9372 17.9372 22.75 12 22.75C6.06279 22.75 1.25 17.9372 1.25 12ZM13.9697 8.96974C14.2626 8.67685 14.7374 8.67685 15.0303 8.96974C15.3232 9.26263 15.3232 9.73739 15.0303 10.0303L13.0605 12L15.0303 13.9697C15.3232 14.2626 15.3232 14.7374 15.0303 15.0303C14.7374 15.3232 14.2626 15.3232 13.9697 15.0303L12 13.0606L10.0303 15.0303C9.73738 15.3232 9.26262 15.3232 8.96973 15.0303C8.67684 14.7374 8.67684 14.2626 8.96973 13.9697L10.9395 12L8.96973 10.0303C8.67684 9.73739 8.67684 9.26263 8.96973 8.96974C9.26262 8.67686 9.73738 8.67685 10.0303 8.96974L12 10.9395L13.9697 8.96974Z" fill="black"/>
</svg>
