<svg width="24" height="24" viewBox="0 0 24 24" fill="none" xmlns="http://www.w3.org/2000/svg">
<path d="M13.9385 4.25V4.25098C14.6944 4.25092 15.4285 4.50268 16.0244 4.96777C16.6205 5.43313 17.0442 6.08466 17.2275 6.81836C17.4107 7.5511 17.339 8.32456 17.0234 9.01074C16.9858 9.09247 16.9442 9.17206 16.9004 9.25H18C18.4142 9.25 18.75 9.58579 18.75 10C18.75 10.4142 18.4142 10.75 18 10.75H15.1768L10.1777 13.25H18C18.4142 13.25 18.75 13.5858 18.75 14C18.75 14.4142 18.4142 14.75 18 14.75H8.43066C8.19698 15.2497 8.12742 15.8108 8.23535 16.3525C8.34236 16.8875 8.63177 17.369 9.05371 17.7148C9.47566 18.0607 10.0042 18.25 10.5498 18.25H13.4385C13.86 18.2501 14.2693 18.109 14.6016 17.8496C14.9339 17.5902 15.1702 17.2273 15.2725 16.8184C15.3729 16.4165 15.7798 16.1721 16.1816 16.2725C16.5835 16.3729 16.8279 16.7798 16.7275 17.1816C16.5442 17.9153 16.1205 18.5669 15.5244 19.0322C14.9285 19.4973 14.1944 19.7501 13.4385 19.75H10.5498C9.6575 19.75 8.79265 19.4407 8.10254 18.875C7.41256 18.3094 6.93973 17.5223 6.76465 16.6475V16.6465C6.63847 16.0139 6.6667 15.3648 6.83789 14.75H6C5.58579 14.75 5.25 14.4142 5.25 14C5.25 13.5858 5.58579 13.25 6 13.25H7.61719C7.97863 12.8104 8.42918 12.4474 8.94434 12.1895L11.8232 10.75H6C5.58579 10.75 5.25 10.4142 5.25 10C5.25 9.58579 5.58579 9.25 6 9.25H14.8223C15.1918 9.06473 15.4874 8.7594 15.6602 8.38379C15.8332 8.00758 15.8729 7.58338 15.7725 7.18164C15.6702 6.77265 15.4339 6.40981 15.1016 6.15039C14.7693 5.89101 14.36 5.74994 13.9385 5.75H10.5615C10.14 5.74994 9.73072 5.89101 9.39844 6.15039C9.06613 6.40981 8.82977 6.77265 8.72754 7.18164C8.62714 7.58345 8.22017 7.82786 7.81836 7.72754C7.41655 7.62714 7.17214 7.22017 7.27246 6.81836C7.4558 6.08466 7.87946 5.43313 8.47559 4.96777C9.07148 4.50268 9.80561 4.25092 10.5615 4.25098V4.25H13.9385Z" fill="#1B242E"/>
</svg>
