<svg width="24" height="24" viewBox="0 0 24 24" fill="none" xmlns="http://www.w3.org/2000/svg">
<path d="M20.25 9.40039C20.25 8.26802 20.2497 7.46336 20.1982 6.83399C20.1539 6.29094 20.0743 5.92877 19.9512 5.64258L19.8955 5.52442C19.6228 4.98938 19.2083 4.54172 18.6992 4.22949L18.4756 4.10449C18.1709 3.9493 17.7866 3.85247 17.166 3.80176C16.5366 3.75033 15.732 3.75 14.5996 3.75H9.40039C8.26802 3.75 7.46336 3.75033 6.83399 3.80176C6.29094 3.84614 5.92877 3.92569 5.64258 4.04883L5.52442 4.10449C4.98938 4.37716 4.54172 4.79169 4.22949 5.30078L4.10449 5.52442C3.9493 5.82911 3.85247 6.21343 3.80176 6.83399C3.75033 7.46336 3.75 8.26802 3.75 9.40039V14.5996C3.75 15.732 3.75033 16.5366 3.80176 17.166C3.85247 17.7866 3.9493 18.1709 4.10449 18.4756L4.22949 18.6992C4.54172 19.2083 4.98938 19.6228 5.52442 19.8955L5.64258 19.9512C5.92877 20.0743 6.29094 20.1539 6.83399 20.1982C7.46336 20.2497 8.26802 20.25 9.40039 20.25H14.5996C15.732 20.25 16.5366 20.2497 17.166 20.1982C17.7866 20.1475 18.1709 20.0507 18.4756 19.8955L18.6992 19.7705C19.2083 19.4583 19.6228 19.0106 19.8955 18.4756L19.9512 18.3574C20.0743 18.0712 20.1539 17.7091 20.1982 17.166C20.2497 16.5366 20.25 15.732 20.25 14.5996V9.40039ZM17.5 5.75C17.9142 5.75 18.25 6.08579 18.25 6.5C18.25 6.91421 17.9142 7.25 17.5 7.25H17C16.5858 7.25 16.25 6.91421 16.25 6.5C16.25 6.08579 16.5858 5.75 17 5.75H17.5ZM21.75 14.5996C21.75 15.7072 21.7509 16.5835 21.6934 17.2881C21.6351 18.0014 21.5132 18.605 21.2324 19.1562C20.777 20.05 20.05 20.777 19.1562 21.2324C18.605 21.5132 18.0014 21.6351 17.2881 21.6934C16.5835 21.7509 15.7072 21.75 14.5996 21.75H9.40039C8.29278 21.75 7.41654 21.7509 6.71192 21.6934C5.99858 21.6351 5.39499 21.5132 4.84375 21.2324C3.95002 20.777 3.22297 20.05 2.76758 19.1562C2.48684 18.605 2.36493 18.0014 2.30664 17.2881C2.24907 16.5835 2.25 15.7072 2.25 14.5996V9.40039C2.25 8.29278 2.24907 7.41654 2.30664 6.71192C2.36493 5.99858 2.48684 5.395 2.76758 4.84375C3.22297 3.95002 3.95002 3.22297 4.84375 2.76758C5.395 2.48684 5.99858 2.36493 6.71192 2.30664C7.41654 2.24907 8.29278 2.25 9.40039 2.25H14.5996C15.7072 2.25 16.5835 2.24907 17.2881 2.30664C18.0014 2.36493 18.605 2.48684 19.1562 2.76758C20.05 3.22297 20.777 3.95002 21.2324 4.84375C21.5132 5.39499 21.6351 5.99858 21.6934 6.71192C21.7509 7.41654 21.75 8.29278 21.75 9.40039V14.5996Z" fill="#FFFEFB"/>
<path d="M11.3762 7.79591C12.4913 7.6307 13.6272 7.91527 14.5325 8.58692C15.4375 9.25851 16.0391 10.2622 16.2043 11.377C16.2861 11.9291 16.258 12.4928 16.1223 13.0342C15.9866 13.5754 15.7458 14.0851 15.4133 14.5332C15.0808 14.9814 14.6626 15.3597 14.1838 15.6465C13.7051 15.9333 13.1743 16.1233 12.6223 16.2051C12.0702 16.2868 11.5074 16.2588 10.9661 16.1231C10.4247 15.9874 9.91524 15.7466 9.46703 15.4141C8.56173 14.7424 7.96036 13.7381 7.79515 12.6231C7.63 11.508 7.91455 10.373 8.58617 9.46778C9.25774 8.56263 10.2613 7.9612 11.3762 7.79591ZM11.5969 9.27931C10.8755 9.38619 10.2259 9.77575 9.79125 10.3613C9.35665 10.9471 9.17169 11.6818 9.27855 12.4033C9.38544 13.1248 9.77489 13.7744 10.3606 14.209C10.6506 14.4242 10.981 14.5802 11.3313 14.668C11.6815 14.7557 12.0454 14.7736 12.4026 14.7207C12.7598 14.6678 13.1035 14.545 13.4133 14.3594C13.723 14.1738 13.9931 13.9287 14.2082 13.6387C14.4234 13.3487 14.5794 13.0192 14.6672 12.669C14.755 12.3188 14.7728 11.9548 14.72 11.5977C14.6131 10.8761 14.2237 10.2266 13.6379 9.792C13.0523 9.35749 12.3183 9.17256 11.5969 9.27931Z" fill="#FFFEFB"/>
</svg>
