<svg width="19" height="20" viewBox="0 0 19 20" fill="none" xmlns="http://www.w3.org/2000/svg">
<path d="M10 4.25C10 3.88886 9.92922 3.53091 9.79102 3.19727C9.65282 2.86369 9.44965 2.56098 9.19434 2.30566C8.93902 2.05035 8.63631 1.84718 8.30273 1.70898C7.96909 1.57078 7.61114 1.5 7.25 1.5C6.52065 1.5 5.82139 1.78994 5.30566 2.30566C4.78994 2.82139 4.5 3.52065 4.5 4.25C4.5 4.97935 4.78994 5.67861 5.30566 6.19434C5.82139 6.71006 6.52065 7 7.25 7C7.61114 7 7.96909 6.92922 8.30273 6.79102C8.63631 6.65282 8.93902 6.44965 9.19434 6.19434C9.44965 5.93902 9.65282 5.63631 9.79102 5.30273C9.92922 4.96909 10 4.61114 10 4.25ZM11.5 4.25C11.5 4.80795 11.3902 5.36047 11.1768 5.87598C10.9632 6.39161 10.6495 6.86023 10.2549 7.25488C9.86023 7.64953 9.39161 7.96318 8.87598 8.17676C8.36047 8.39021 7.80795 8.5 7.25 8.5C6.12283 8.5 5.04215 8.05191 4.24512 7.25488C3.44809 6.45785 3 5.37717 3 4.25C3 3.12283 3.44809 2.04215 4.24512 1.24512C5.04215 0.448088 6.12283 0 7.25 0C7.80795 0 8.36047 0.109785 8.87598 0.323242C9.39161 0.536825 9.86023 0.850468 10.2549 1.24512C10.6495 1.63977 10.9632 2.10839 11.1768 2.62402C11.3902 3.13953 11.5 3.69205 11.5 4.25Z" fill="black"/>
<path d="M11.25 11C11.6642 11 12 11.3358 12 11.75C12 12.1642 11.6642 12.5 11.25 12.5H7.15039C6.01802 12.5 5.21336 12.5003 4.58399 12.5518C4.04094 12.5961 3.67877 12.6757 3.39258 12.7988L3.27442 12.8545C2.73938 13.1272 2.29172 13.5417 1.97949 14.0508L1.85449 14.2744C1.6993 14.5791 1.60247 14.9634 1.55176 15.584C1.50263 16.1852 1.50112 16.946 1.50098 18H11.25C11.6642 18 12 18.3358 12 18.75C12 19.1642 11.6642 19.5 11.25 19.5H0.750001C0.335787 19.5 9.17071e-07 19.1642 9.17071e-07 18.75V18.1504C9.17071e-07 17.0428 -0.000931233 16.1665 0.0566415 15.4619C0.114927 14.7486 0.236842 14.145 0.517579 13.5938C0.972971 12.7 1.70002 11.973 2.59375 11.5176C3.145 11.2368 3.74858 11.1149 4.46192 11.0566C5.16654 10.9991 6.04278 11 7.15039 11H11.25ZM17.7197 12.7197C18.0126 12.4268 18.4874 12.4268 18.7803 12.7197C19.0732 13.0126 19.0732 13.4874 18.7803 13.7803L17.3105 15.25L18.7803 16.7197C19.0732 17.0126 19.0732 17.4874 18.7803 17.7803C18.4874 18.0732 18.0126 18.0732 17.7197 17.7803L16.25 16.3105L14.7803 17.7803C14.4874 18.0732 14.0126 18.0732 13.7197 17.7803C13.4268 17.4874 13.4268 17.0126 13.7197 16.7197L15.1895 15.25L13.7197 13.7803C13.4268 13.4874 13.4268 13.0126 13.7197 12.7197C14.0126 12.4268 14.4874 12.4268 14.7803 12.7197L16.25 14.1895L17.7197 12.7197Z" fill="black"/>
</svg>
