<svg width="20" height="19" viewBox="0 0 20 19" fill="none" xmlns="http://www.w3.org/2000/svg">
<path d="M13.3801 12.6405L13.8361 12.1875L12.7771 11.1235L12.3231 11.5765L13.3801 12.6405ZM15.3652 11.9975L17.2761 13.0365L17.9911 11.7185L16.0812 10.6805L15.3652 11.9975ZM17.6432 15.1005L16.2232 16.5135L17.2801 17.5765L18.7001 16.1645L17.6432 15.1005ZM15.3572 16.9675C13.9072 17.1035 10.1572 16.9825 6.09515 12.9445L5.03715 14.0075C9.46915 18.4145 13.6882 18.6305 15.4972 18.4615L15.3572 16.9675ZM6.09515 12.9445C2.22415 9.09447 1.58215 5.85747 1.50215 4.45247L0.00414998 4.53747C0.10415 6.30547 0.89915 9.89347 5.03715 14.0075L6.09515 12.9445ZM7.47015 6.76447L7.75715 6.47847L6.70115 5.41547L6.41415 5.70047L7.47015 6.76447ZM7.98515 2.84347L6.72515 1.15947L5.52415 2.05947L6.78415 3.74247L7.98515 2.84347ZM2.48415 0.792472L0.91415 2.35247L1.97215 3.41647L3.54115 1.85647L2.48415 0.792472ZM6.94215 6.23247C6.41215 5.70047 6.41215 5.70047 6.41215 5.70247H6.41015L6.40715 5.70647C6.35963 5.75439 6.31708 5.80699 6.28015 5.86347C6.22615 5.94347 6.16715 6.04847 6.11715 6.18147C5.99543 6.5248 5.9651 6.89388 6.02915 7.25247C6.16315 8.11747 6.75915 9.26047 8.28515 10.7785L9.34315 9.71447C7.91415 8.29447 7.57415 7.43047 7.51115 7.02247C7.48115 6.82847 7.51215 6.73247 7.52115 6.71047C7.52715 6.69714 7.52715 6.69514 7.52115 6.70447C7.51224 6.71827 7.5022 6.73132 7.49115 6.74347L7.48115 6.75347L7.47115 6.76247L6.94215 6.23247ZM8.28515 10.7785C9.81215 12.2965 10.9612 12.8885 11.8272 13.0205C12.2702 13.0885 12.6271 13.0345 12.8981 12.9335C13.05 12.8779 13.1918 12.7983 13.3181 12.6975L13.3682 12.6525L13.3752 12.6465L13.3782 12.6435L13.3792 12.6415C13.3792 12.6415 13.3802 12.6405 12.8512 12.1085C12.3212 11.5765 12.3242 11.5755 12.3242 11.5755L12.3261 11.5735L12.3281 11.5715L12.3342 11.5665L12.3442 11.5565L12.3821 11.5265C12.3915 11.5205 12.3891 11.5211 12.3751 11.5285C12.3502 11.5375 12.2521 11.5685 12.0552 11.5385C11.6412 11.4745 10.7712 11.1345 9.34315 9.71447L8.28515 10.7785ZM6.72515 1.15847C5.70515 -0.201528 3.70115 -0.417528 2.48415 0.792472L3.54115 1.85647C4.07315 1.32747 5.01715 1.38247 5.52415 2.05947L6.72515 1.15847ZM1.50315 4.45347C1.48315 4.10747 1.64215 3.74547 1.97215 3.41747L0.91315 2.35347C0.37615 2.88747 -0.04685 3.64347 0.00414998 4.53747L1.50315 4.45347ZM16.2232 16.5135C15.9492 16.7875 15.6532 16.9415 15.3582 16.9685L15.4972 18.4615C16.2322 18.3925 16.8332 18.0225 17.2812 17.5775L16.2232 16.5135ZM7.75715 6.47847C8.74215 5.49947 8.81515 3.95247 7.98615 2.84447L6.78515 3.74347C7.18815 4.28247 7.12815 4.98947 6.70015 5.41647L7.75715 6.47847ZM17.2771 13.0375C18.0941 13.4815 18.2211 14.5275 17.6441 15.1015L18.7022 16.1645C20.0422 14.8315 19.6291 12.6085 17.9921 11.7195L17.2771 13.0375ZM13.8361 12.1885C14.2201 11.8065 14.8382 11.7125 15.3661 11.9985L16.0821 10.6815C14.9981 10.0915 13.6542 10.2545 12.7782 11.1245L13.8361 12.1885Z" fill="#226078"/>
</svg>
