<svg width="24" height="24" viewBox="0 0 24 24" fill="none" xmlns="http://www.w3.org/2000/svg">
<path d="M16.6289 13.8905L17.0849 13.4375L16.0259 12.3735L15.5719 12.8265L16.6289 13.8905ZM18.6139 13.2475L20.5249 14.2865L21.2399 12.9685L19.3299 11.9305L18.6139 13.2475ZM20.8919 16.3505L19.4719 17.7635L20.5289 18.8265L21.9489 17.4145L20.8919 16.3505ZM18.6059 18.2175C17.1559 18.3535 13.4059 18.2325 9.34393 14.1945L8.28593 15.2575C12.7179 19.6645 16.9369 19.8805 18.7459 19.7115L18.6059 18.2175ZM9.34393 14.1945C5.47293 10.3445 4.83093 7.10747 4.75093 5.70247L3.25293 5.78747C3.35293 7.55547 4.14793 11.1435 8.28593 15.2575L9.34393 14.1945ZM10.7189 8.01447L11.0059 7.72847L9.94993 6.66547L9.66293 6.95047L10.7189 8.01447ZM11.2339 4.09347L9.97393 2.40947L8.77293 3.30947L10.0329 4.99247L11.2339 4.09347ZM5.73293 2.04247L4.16293 3.60247L5.22093 4.66647L6.78993 3.10647L5.73293 2.04247ZM10.1909 7.48247C9.66093 6.95047 9.66093 6.95047 9.66093 6.95247H9.65893L9.65593 6.95647C9.60841 7.00439 9.56586 7.05699 9.52893 7.11347C9.47493 7.19347 9.41593 7.29847 9.36593 7.43147C9.2442 7.7748 9.21388 8.14388 9.27793 8.50247C9.41193 9.36747 10.0079 10.5105 11.5339 12.0285L12.5919 10.9645C11.1629 9.54447 10.8229 8.68047 10.7599 8.27247C10.7299 8.07847 10.7609 7.98247 10.7699 7.96047C10.7759 7.94714 10.7759 7.94514 10.7699 7.95447C10.761 7.96827 10.751 7.98132 10.7399 7.99347L10.7299 8.00347L10.7199 8.01247L10.1909 7.48247ZM11.5339 12.0285C13.0609 13.5465 14.2099 14.1385 15.0759 14.2705C15.5189 14.3385 15.8759 14.2845 16.1469 14.1835C16.2987 14.1279 16.4406 14.0483 16.5669 13.9475L16.6169 13.9025L16.6239 13.8965L16.6269 13.8935L16.6279 13.8915C16.6279 13.8915 16.6289 13.8905 16.0999 13.3585C15.5699 12.8265 15.5729 12.8255 15.5729 12.8255L15.5749 12.8235L15.5769 12.8215L15.5829 12.8165L15.5929 12.8065L15.6309 12.7765C15.6403 12.7705 15.6379 12.7711 15.6239 12.7785C15.5989 12.7875 15.5009 12.8185 15.3039 12.7885C14.8899 12.7245 14.0199 12.3845 12.5919 10.9645L11.5339 12.0285ZM9.97393 2.40847C8.95393 1.04847 6.94993 0.832472 5.73293 2.04247L6.78993 3.10647C7.32193 2.57747 8.26593 2.63247 8.77293 3.30947L9.97393 2.40847ZM4.75193 5.70347C4.73193 5.35747 4.89093 4.99547 5.22093 4.66747L4.16193 3.60347C3.62493 4.13747 3.20193 4.89347 3.25293 5.78747L4.75193 5.70347ZM19.4719 17.7635C19.1979 18.0375 18.9019 18.1915 18.6069 18.2185L18.7459 19.7115C19.4809 19.6425 20.0819 19.2725 20.5299 18.8275L19.4719 17.7635ZM11.0059 7.72847C11.9909 6.74947 12.0639 5.20247 11.2349 4.09447L10.0339 4.99347C10.4369 5.53247 10.3769 6.23947 9.94893 6.66647L11.0059 7.72847ZM20.5259 14.2875C21.3429 14.7315 21.4699 15.7775 20.8929 16.3515L21.9509 17.4145C23.2909 16.0815 22.8779 13.8585 21.2409 12.9695L20.5259 14.2875ZM17.0849 13.4385C17.4689 13.0565 18.0869 12.9625 18.6149 13.2485L19.3309 11.9315C18.2469 11.3415 16.9029 11.5045 16.0269 12.3745L17.0849 13.4385Z" fill="#0F3339"/>
</svg>
