<svg width="24" height="24" viewBox="0 0 24 24" fill="none" xmlns="http://www.w3.org/2000/svg">
<path d="M16.8712 10.5605C16.8712 9.73185 16.7078 8.91113 16.3907 8.14551C16.0736 7.37993 15.6085 6.68459 15.0225 6.09863C14.4366 5.51271 13.7412 5.0476 12.9756 4.73047C12.2101 4.41335 11.3893 4.25001 10.5606 4.25C9.73191 4.25 8.91119 4.41334 8.14557 4.73047C7.37998 5.0476 6.68465 5.51267 6.09869 6.09863C4.91525 7.28207 4.25006 8.88691 4.25006 10.5605C4.25008 12.2342 4.91527 13.839 6.09869 15.0225C7.28213 16.2058 8.88701 16.8711 10.5606 16.8711C12.2342 16.8711 13.8391 16.2059 15.0225 15.0225C15.6085 14.4365 16.0736 13.7411 16.3907 12.9756C16.7078 12.21 16.8711 11.3892 16.8712 10.5605ZM18.3712 10.5605C18.3711 11.5862 18.1689 12.6022 17.7764 13.5498C17.4799 14.2655 17.0778 14.9307 16.587 15.5264L20.5303 19.4697C20.8232 19.7626 20.8232 20.2374 20.5303 20.5303C20.2375 20.8232 19.7627 20.8231 19.4698 20.5303L15.5274 16.5879C14.1348 17.7355 12.3805 18.3711 10.5606 18.3711C8.48919 18.3711 6.50288 17.5477 5.03815 16.083C3.57342 14.6183 2.75008 12.632 2.75006 10.5605C2.75006 8.48908 3.5734 6.50283 5.03815 5.03809C5.76335 4.31289 6.62385 3.73724 7.57135 3.34473C8.51896 2.95221 9.53492 2.75 10.5606 2.75C11.5863 2.75001 12.6023 2.95223 13.5499 3.34473C14.4973 3.73724 15.3579 4.31292 16.0831 5.03809C16.8082 5.76328 17.3839 6.6238 17.7764 7.57129C18.1689 8.5189 18.3712 9.53486 18.3712 10.5605Z" fill="#11313D"/>
</svg>
