<svg width="24" height="24" viewBox="0 0 24 24" fill="none" xmlns="http://www.w3.org/2000/svg">
<path d="M13.9404 9.50093C14.2162 9.19203 14.69 9.16481 14.999 9.44038C15.3079 9.71615 15.3351 10.19 15.0596 10.499L11.4883 14.499C11.346 14.6583 11.1423 14.7499 10.9287 14.75C10.7152 14.7499 10.5114 14.6592 10.3691 14.5L8.94042 12.8994C8.66478 12.5905 8.69143 12.1167 8.99999 11.8408C9.30893 11.5649 9.78364 11.5914 10.0596 11.9003L10.9287 12.873L13.9404 9.50093Z" fill="black"/>
<path d="M3.0459 13.2646C3.45212 13.1837 3.84771 13.4473 3.92871 13.8535C4.71246 17.7837 7.94794 19.8571 10.1992 20.8398L10.6611 21.0352C10.7911 21.0861 10.9049 21.1246 11.0244 21.1553C11.2524 21.2136 11.5306 21.25 12 21.25C12.4703 21.25 12.7487 21.2137 12.9766 21.1553C13.2152 21.0941 13.4293 21.0021 13.8008 20.8398L13.8018 20.8389C14.3518 20.5994 14.9711 20.288 15.6045 19.8955C15.9566 19.6773 16.4195 19.7857 16.6377 20.1377C16.8559 20.4897 16.7475 20.9527 16.3955 21.1709C15.6931 21.6062 15.0082 21.9503 14.4004 22.2148L14.3994 22.2139C14.0505 22.3663 13.7247 22.512 13.3486 22.6084C12.9613 22.7077 12.5496 22.75 12 22.75C11.4507 22.75 11.0388 22.7077 10.6514 22.6084C10.2748 22.5119 9.94824 22.3666 9.59863 22.2139C7.20392 21.1685 3.38729 18.8119 2.45703 14.1465C2.37622 13.7405 2.64003 13.3458 3.0459 13.2646ZM20.25 11.9912V10.417C20.25 8.80896 20.25 7.63438 20.2041 6.79297C20.1812 6.37307 20.1482 6.06165 20.1045 5.83496C20.0829 5.72295 20.06 5.64206 20.04 5.58594C20.0202 5.53028 20.0075 5.51086 20.0088 5.5127H20.0078C20.0046 5.5088 19.9897 5.49184 19.9541 5.46289C19.9095 5.42666 19.843 5.37954 19.7461 5.32324C19.5496 5.20915 19.2692 5.07788 18.8828 4.9209C18.4955 4.76356 18.0257 4.59018 17.4639 4.3916L15.4922 3.71094L14.9189 3.51465C13.3049 2.96154 12.6583 2.75 12 2.75C11.5063 2.75 11.0194 2.86938 10.126 3.16211L9.08105 3.51465L8.50781 3.71094C6.99515 4.22857 5.89156 4.6063 5.11719 4.9209C4.7308 5.07788 4.45041 5.20915 4.25391 5.32324C4.15697 5.37954 4.09049 5.42666 4.0459 5.46289C4.01028 5.49184 3.99543 5.5088 3.99219 5.5127H3.99121C3.99247 5.5109 3.97982 5.53035 3.95996 5.58594C3.93996 5.64204 3.91711 5.723 3.89551 5.83496C3.8518 6.06158 3.81879 6.37309 3.7959 6.79297C3.75005 7.63424 3.75 8.80855 3.75 10.417C3.75 10.8312 3.41421 11.167 3 11.167C2.58579 11.167 2.25 10.8312 2.25 10.417C2.25 8.82754 2.25019 7.60315 2.29883 6.71094C2.32318 6.26427 2.36028 5.87514 2.42285 5.55078C2.48306 5.23869 2.57939 4.91406 2.76465 4.65039H2.76562C2.95268 4.38449 3.22696 4.18548 3.50098 4.02637C3.78618 3.86077 4.14063 3.69868 4.55273 3.53125C5.37584 3.19686 6.52818 2.80236 8.02246 2.29102L8.59473 2.0957L9.63281 1.74316C10.5776 1.43223 11.2758 1.25 12 1.25C12.9657 1.25 13.8853 1.57481 15.4053 2.0957H15.4043L15.9775 2.29102C17.4718 2.80236 18.6242 3.19686 19.4473 3.53125C19.8594 3.69868 20.2138 3.86077 20.499 4.02637C20.773 4.18548 21.0473 4.38449 21.2344 4.65039H21.2354C21.4206 4.91407 21.5169 5.23871 21.5771 5.55078C21.6397 5.87528 21.6768 6.26505 21.7012 6.71191C21.7498 7.60422 21.75 8.82823 21.75 10.417V11.9912C21.75 14.6783 20.8472 16.7712 19.5889 18.3682C19.3325 18.6933 18.8614 18.7493 18.5361 18.4932C18.2108 18.2368 18.1548 17.7648 18.4111 17.4395C19.4786 16.0845 20.25 14.3137 20.25 11.9912Z" fill="black"/>
</svg>
