<svg width="24" height="24" viewBox="0 0 24 24" fill="none" xmlns="http://www.w3.org/2000/svg">
<path d="M15.2607 3.90027C16.1221 3.90002 16.9612 4.19077 17.6436 4.73037C18.3262 5.27019 18.8138 6.02868 19.0254 6.8864C19.2368 7.74321 19.1528 8.64737 18.7891 9.44839C18.7326 9.57278 18.6681 9.69231 18.5996 9.80891H20C20.4417 9.80891 20.7996 10.1793 20.7998 10.636C20.7998 11.0929 20.4418 11.4641 20 11.4641H16.6855L10.6191 14.536H20C20.4418 14.536 20.7998 14.9072 20.7998 15.3641C20.7996 15.8208 20.4417 16.1912 20 16.1912H8.78223C8.49037 16.8011 8.40375 17.4892 8.53418 18.1523L8.5918 18.3906C8.74927 18.9373 9.06701 19.4275 9.50879 19.7943C10.0142 20.214 10.6503 20.4458 11.3086 20.4457H14.6777L14.8691 20.4376C15.3132 20.4001 15.7371 20.2323 16.0879 19.9549C16.4884 19.6381 16.7701 19.1974 16.8916 18.7047C17.0008 18.262 17.4362 17.995 17.8643 18.1079C18.2924 18.2208 18.5506 18.671 18.4414 19.1137C18.2298 19.9714 17.7422 20.7299 17.0596 21.2697C16.3773 21.8091 15.5388 22.1 14.6777 22.0998H11.3086C10.2892 22.0999 9.29892 21.7426 8.50684 21.0849C7.7639 20.468 7.23739 19.6221 7.00781 18.6744L6.96582 18.4835C6.81507 17.7181 6.85289 16.9314 7.06836 16.1912H6C5.55831 16.1912 5.20042 15.8208 5.2002 15.3641C5.2002 14.9072 5.55817 14.536 6 14.536H7.92676C8.34669 14.0106 8.87328 13.5787 9.47461 13.2737L13.0469 11.4641H6C5.55817 11.4641 5.2002 11.0929 5.2002 10.636C5.20042 10.1793 5.55831 9.80891 6 9.80891H16.3145L16.3301 9.80083C16.7788 9.57351 17.1342 9.2003 17.3408 8.74554C17.5473 8.2909 17.5941 7.77943 17.4746 7.29539C17.353 6.80268 17.0714 6.36192 16.6709 6.04519C16.2701 5.72828 15.7735 5.55426 15.2607 5.55441H11.3223C10.8094 5.55426 10.313 5.72821 9.91211 6.04519C9.51159 6.36194 9.22994 6.80267 9.1084 7.29539C8.9992 7.73808 8.56384 8.00511 8.13574 7.89221C7.70762 7.77928 7.44939 7.32911 7.55859 6.8864C7.77021 6.02872 8.25782 5.27016 8.94043 4.73037C9.62266 4.191 10.4612 3.90009 11.3223 3.90027H15.2607Z" fill="#0F3339"/>
</svg>
