<svg width="208" height="77" viewBox="0 0 208 77" fill="none" xmlns="http://www.w3.org/2000/svg">
<path d="M79.7527 0.640598C77.7661 1.38558 76.4417 2.58583 75.2828 4.738C74.4137 6.31074 74.3723 6.89017 74.3723 19.2238V32.0954L75.4484 34.1234C76.8142 36.855 79.3802 38.4691 82.7741 38.7588C87.7406 39.2141 91.5897 37.3516 93.2452 33.7095C93.9488 32.2195 94.0316 30.7296 94.0316 19.3893V6.68323L92.8727 4.48967C91.2586 1.38558 88.5684 -0.0216064 84.3468 0.0197792C82.7327 0.0197792 80.6633 0.309494 79.7527 0.640598ZM86.5404 6.14519C87.782 7.38682 87.8648 8.75262 87.7406 20.5896L87.6164 31.516L86.4576 32.5093C84.9262 33.7923 83.1052 33.7923 81.8221 32.4679L80.7874 31.4746V19.4307V7.38682L81.8221 6.39351C83.0638 5.11049 85.3815 4.98632 86.5404 6.14519Z" fill="#FFFEFB"/>
<path d="M143.49 0.642776C139.683 2.04996 138.275 4.74018 137.944 11.5692L137.696 16.3288L135.792 16.4529L133.888 16.5771L133.64 13.7627C133.474 12.2314 133.35 8.58925 133.35 5.65071V0.394447H130.246H127.142V19.4329V38.4713H130.246H133.35L133.433 36.8986C133.516 36.0708 133.557 32.3873 133.557 28.7451V22.1231L135.668 21.9989L137.779 21.8748L138.069 24.4408C138.193 25.848 138.317 28.1243 138.317 29.5315C138.358 34.0014 140.469 37.1469 144.277 38.2644C150.361 40.0854 155.865 37.7263 157.479 32.6356C158.473 29.6143 158.514 9.49978 157.521 6.23014C156.734 3.58131 154.5 1.18082 152.14 0.477226C149.864 -0.184982 145.56 -0.102207 143.49 0.642776ZM150.526 6.39569L151.561 7.389V19.3501C151.561 30.7732 151.52 31.3112 150.733 32.1803C148.954 34.0842 146.222 33.7117 145.063 31.4354C144.401 30.1109 144.318 9.29284 144.939 7.55455C145.518 6.0232 146.47 5.361 148.126 5.361C149.078 5.361 149.864 5.6921 150.526 6.39569Z" fill="#FFFEFB"/>
<path d="M179.085 0.313492C177.926 0.437656 177.595 0.934311 173.912 8.09441C171.759 12.316 169.856 15.8753 169.69 15.9581C169.483 16.0823 169.359 12.6057 169.359 8.30135V0.396267H166.255H163.151V19.3105V38.2662L166.255 38.3076L169.359 38.349V32.5546C169.359 27.0501 169.4 26.6776 170.435 24.8979L171.511 23.0768L174.532 30.4025C176.229 34.4585 177.761 37.9351 177.968 38.142C178.175 38.349 179.747 38.4731 181.486 38.3903L184.631 38.2662L182.769 33.9204C181.693 31.52 179.665 26.719 178.216 23.201L175.567 16.8273L178.216 12.0263C180.699 7.51498 184.259 0.561817 184.259 0.272102C184.259 0.106552 180.823 0.147942 179.085 0.313492Z" fill="#FFFEFB"/>
<path d="M192.949 0.641838C191.045 1.4696 189.762 2.71123 188.686 4.73924C187.816 6.31198 187.775 6.89141 187.775 19.225V32.0552L188.934 34.1246C190.341 36.7321 192.162 37.9737 195.266 38.5531C200.026 39.4223 204.247 37.7668 206.193 34.3316C207.02 32.7588 207.227 31.7655 207.352 28.2062L207.517 23.9846H204.413H201.309L201.143 27.7509C201.019 31.1033 200.895 31.6 200.026 32.3036C198.536 33.5038 196.135 33.3383 195.059 32.0139C194.232 30.9378 194.19 30.3997 194.19 19.225C194.19 8.05027 194.232 7.51223 195.059 6.43614C196.094 5.11173 198.536 4.94618 200.026 6.14643C200.854 6.80863 201.019 7.38806 201.143 10.0783L201.309 13.2238H204.165H207.02V9.78856C206.979 4.73924 205.53 2.1318 201.971 0.600449C199.985 -0.227306 194.894 -0.185921 192.949 0.641838Z" fill="#FFFEFB"/>
<path d="M6.95316 1.09852C6.829 1.5124 6.08402 5.65119 5.25626 10.328C3.93185 17.902 0.869145 34.333 0.248327 37.3129L0 38.4718H3.14548C6.58067 38.4718 6.41512 38.6373 6.91178 34.9538C7.36704 31.2289 7.11872 31.4358 11.63 31.4358H15.7274L16.1827 34.5813C16.431 36.3196 16.7621 37.8924 16.8863 38.0993C17.0104 38.3062 18.5004 38.4718 20.1973 38.4718C23.1772 38.4718 23.26 38.4304 23.26 37.4371C23.26 36.8577 22.9289 34.7469 22.4736 32.7603C22.0597 30.7736 20.5284 22.703 19.0798 14.7565L16.4724 0.394928H11.7955C7.73953 0.394928 7.1601 0.477703 6.95316 1.09852ZM12.913 16.1223C13.6166 20.3439 14.2788 24.2757 14.403 24.8966L14.6513 26.0554H11.5058C9.76754 26.0554 8.36035 25.9313 8.36035 25.7243C8.31896 25.1449 10.9264 8.87944 11.1333 8.25863C11.4231 7.38948 11.5058 7.59642 12.913 16.1223Z" fill="#FFFEFB"/>
<path d="M27.3984 19.4751V38.5549L34.3516 38.3894C40.2287 38.2652 41.5531 38.0997 43.1672 37.3547C46.6852 35.782 47.8441 32.9676 47.5957 26.7594C47.3888 21.8756 46.768 20.2615 44.533 18.9371L43.0844 18.0679L44.533 16.9091C46.3541 15.3777 46.8921 13.6808 46.8921 9.54203C46.8921 5.85851 46.3127 4.07883 44.5744 2.38193C42.9189 0.726414 41.1806 0.395313 33.9377 0.395313H27.3984V19.4751ZM39.5665 6.56211C40.3115 7.30709 40.4356 7.92791 40.4356 10.5767C40.4356 14.55 39.732 15.295 36.0485 15.295H33.6066V10.5767C33.6066 5.23769 33.5652 5.32047 36.8763 5.5688C38.0351 5.65157 38.987 5.98268 39.5665 6.56211ZM39.9804 21.8756C40.7253 22.6206 40.8909 23.3656 40.9737 26.6352C41.1392 30.1946 41.0564 30.5671 40.1459 31.5604C39.194 32.6365 37.9937 32.9262 34.9724 32.7606L33.6066 32.6779V26.9663C33.6066 23.8209 33.7308 21.0893 33.9377 20.9237C34.1033 20.7168 35.3449 20.6754 36.6693 20.7995C38.4076 20.9651 39.3595 21.2962 39.9804 21.8756Z" fill="#FFFEFB"/>
<path d="M50.5754 3.08422V5.77444H53.8865C56.7422 5.77444 57.1975 5.85721 57.2803 6.47803C57.3217 6.89191 57.3631 14.2176 57.3631 22.7435L57.4044 38.2639H60.7155H64.0265L64.1093 22.1227L64.1921 5.98138L67.5445 5.85721L70.8555 5.73305V3.08422V0.394012H60.7155H50.5754V3.08422Z" fill="#FFFEFB"/>
<path d="M102.558 5.02843C102.434 7.59448 102.185 14.3821 101.978 20.0936C101.606 31.7236 101.357 32.6755 98.9984 32.6755H97.7567V35.6141V38.594L100.24 38.3457C103.717 38.056 105.579 36.9799 106.821 34.6208C107.69 32.9239 107.855 31.8064 108.145 26.1362C108.311 22.5769 108.476 17.4034 108.518 14.6304C108.518 11.8574 108.642 8.75334 108.766 7.67725L109.056 5.77341H112.077H115.14V22.1216V38.4698H118.244H121.348V19.4314V0.392986H112.077H102.806L102.558 5.02843Z" fill="#FFFEFB"/>
<path d="M198.347 77.0002C196.468 77.0002 194.991 76.6308 193.914 75.892C192.859 75.1533 192.12 74.1506 191.698 72.8842C191.276 71.5966 191.064 70.119 191.064 68.4515V59.3013C191.064 57.5493 191.276 56.0296 191.698 54.742C192.12 53.4544 192.859 52.4624 193.914 51.7658C194.991 51.0692 196.468 50.721 198.347 50.721C200.12 50.721 201.502 51.027 202.494 51.6391C203.508 52.2302 204.225 53.085 204.647 54.2037C205.069 55.3225 205.281 56.6206 205.281 58.0981V60.2511H200.785V58.0348C200.785 57.3171 200.742 56.6628 200.658 56.0718C200.595 55.4808 200.394 55.0164 200.056 54.6787C199.74 54.3198 199.18 54.1404 198.378 54.1404C197.576 54.1404 196.985 54.3304 196.605 54.7103C196.246 55.0692 196.014 55.5652 195.909 56.1984C195.803 56.8106 195.75 57.5071 195.75 58.2881V69.433C195.75 70.3618 195.824 71.1322 195.972 71.7443C196.12 72.3354 196.384 72.7892 196.764 73.1058C197.165 73.4013 197.703 73.5491 198.378 73.5491C199.159 73.5491 199.708 73.3696 200.025 73.0108C200.362 72.6309 200.574 72.1348 200.658 71.5227C200.742 70.9106 200.785 70.2246 200.785 69.4647V67.1534H205.281V69.2114C205.281 70.7312 205.08 72.0821 204.679 73.2641C204.278 74.425 203.571 75.3432 202.558 76.0187C201.566 76.673 200.162 77.0002 198.347 77.0002Z" fill="#68AEC9"/>
<path d="M181.141 77.0002C179.41 77.0002 178.049 76.6414 177.057 75.9237C176.065 75.206 175.368 74.2034 174.967 72.9158C174.566 71.6282 174.366 70.119 174.366 68.3882V65.3487H171.516V76.6519H166.988V51.0059H171.516V61.8659H174.366V59.1746C174.366 57.4438 174.566 55.9451 174.967 54.6787C175.368 53.4122 176.065 52.4412 177.057 51.7658C178.049 51.0692 179.41 50.721 181.141 50.721C182.893 50.721 184.255 51.0692 185.226 51.7658C186.218 52.4624 186.914 53.4439 187.315 54.7103C187.737 55.9768 187.949 57.4649 187.949 59.1746V68.3882C187.949 70.0979 187.737 71.6071 187.315 72.9158C186.914 74.2034 186.218 75.206 185.226 75.9237C184.255 76.6414 182.893 77.0002 181.141 77.0002ZM181.141 73.5491C181.88 73.5491 182.429 73.3802 182.788 73.0425C183.146 72.7048 183.379 72.2404 183.484 71.6494C183.611 71.0583 183.674 70.4146 183.674 69.718V57.9082C183.674 57.1905 183.611 56.5467 183.484 55.9768C183.379 55.4069 183.146 54.9636 182.788 54.647C182.429 54.3093 181.88 54.1404 181.141 54.1404C180.424 54.1404 179.875 54.3093 179.495 54.647C179.136 54.9636 178.904 55.4069 178.798 55.9768C178.693 56.5467 178.64 57.1905 178.64 57.9082V69.718C178.64 70.4146 178.693 71.0583 178.798 71.6494C178.904 72.2404 179.136 72.7048 179.495 73.0425C179.875 73.3802 180.424 73.5491 181.141 73.5491Z" fill="#68AEC9"/>
<path d="M145.518 76.6521V73.296C146.109 73.3171 146.605 73.2854 147.006 73.201C147.428 73.0954 147.777 72.8738 148.051 72.5361C148.347 72.1984 148.589 71.6812 148.779 70.9847C148.969 70.267 149.127 69.3066 149.254 68.1034C149.381 66.9003 149.518 65.37 149.666 63.5125L150.489 51.0061H162.964V76.6521H158.309V54.5206H154.637L154.067 64.0824C153.94 65.961 153.792 67.618 153.623 69.0533C153.476 70.4886 153.233 71.7129 152.895 72.7261C152.579 73.7181 152.125 74.5202 151.534 75.1323C150.943 75.7445 150.162 76.1772 149.191 76.4305C148.22 76.6627 146.996 76.7365 145.518 76.6521Z" fill="#68AEC9"/>
<path d="M128.647 76.6521V51.0061H143.433V76.6521H138.81V54.3306H133.269V76.6521H128.647Z" fill="#68AEC9"/>
<path d="M117.899 68.8608V65.9163H125.561V68.8608H117.899Z" fill="#68AEC9"/>
<path d="M100.759 76.6521V51.0061H104.59V67.1853L111.619 51.0061H114.753V76.6521H110.89V60.2197L103.83 76.6521H100.759Z" fill="#FFFEFB"/>
<path d="M90.4989 77.0002C88.6203 77.0002 87.1428 76.6308 86.0663 75.892C85.0109 75.1533 84.2721 74.1506 83.85 72.8842C83.4278 71.5966 83.2167 70.119 83.2167 68.4515V59.3013C83.2167 57.5493 83.4278 56.0296 83.85 54.742C84.2721 53.4544 85.0109 52.4624 86.0663 51.7658C87.1428 51.0692 88.6203 50.721 90.4989 50.721C92.272 50.721 93.6546 51.027 94.6466 51.6391C95.6598 52.2302 96.3775 53.085 96.7996 54.2037C97.2218 55.3225 97.4329 56.6206 97.4329 58.0981V60.2511H92.9369V58.0348C92.9369 57.3171 92.8947 56.6628 92.8102 56.0718C92.7469 55.4808 92.5464 55.0164 92.2087 54.6787C91.8921 54.3198 91.3327 54.1404 90.5306 54.1404C89.7285 54.1404 89.1375 54.3304 88.7575 54.7103C88.3987 55.0692 88.1665 55.5652 88.061 56.1984C87.9554 56.8106 87.9027 57.5071 87.9027 58.2881V69.433C87.9027 70.3618 87.9766 71.1322 88.1243 71.7443C88.2721 72.3354 88.5359 72.7892 88.9159 73.1058C89.3169 73.4013 89.8551 73.5491 90.5306 73.5491C91.3116 73.5491 91.8604 73.3696 92.177 73.0108C92.5147 72.6309 92.7258 72.1348 92.8102 71.5227C92.8947 70.9106 92.9369 70.2246 92.9369 69.4647V67.1534H97.4329V69.2114C97.4329 70.7312 97.2323 72.0821 96.8313 73.2641C96.4302 74.425 95.7231 75.3432 94.71 76.0187C93.7179 76.673 92.3142 77.0002 90.4989 77.0002Z" fill="#FFFEFB"/>
<path d="M65.7565 76.6521L70.8857 51.0061H75.8883L81.0175 76.6521H76.6798L75.6667 70.7314H71.2024L70.1575 76.6521H65.7565ZM71.6773 67.7552H75.1601L73.4187 56.9902L71.6773 67.7552Z" fill="#FFFEFB"/>
<path d="M49.9883 76.6521V51.0061H54.6426V61.7711H55.5925L59.7402 51.0061H64.3944L59.5185 63.1009L64.7744 76.6521H60.0251L55.5925 64.8423H54.6426V76.6521H49.9883Z" fill="#FFFEFB"/>
<path d="M33.2286 76.6521V51.0061H40.7641C42.305 51.0061 43.5504 51.2911 44.5002 51.861C45.4712 52.4309 46.1783 53.2646 46.6215 54.3623C47.0859 55.4388 47.3181 56.7474 47.3181 58.2883C47.3181 59.9558 47.0332 61.3067 46.4632 62.341C45.8933 63.3542 45.0912 64.093 44.0569 64.5573C43.0438 65.0217 41.8406 65.2539 40.4475 65.2539H37.9146V76.6521H33.2286ZM37.9146 61.9611H39.6876C40.5319 61.9611 41.1863 61.845 41.6507 61.6128C42.1361 61.3595 42.4633 60.969 42.6322 60.4413C42.8221 59.8925 42.9171 59.1643 42.9171 58.2566C42.9171 57.3279 42.8432 56.5786 42.6955 56.0087C42.5688 55.4176 42.2733 54.9849 41.809 54.7105C41.3657 54.4361 40.6586 54.2989 39.6876 54.2989H37.9146V61.9611Z" fill="#FFFEFB"/>
<path d="M19.6858 76.6521V51.0061H30.4508V54.2989H24.3717V61.6761H29.1526V64.9373H24.3717V73.4226H30.5141V76.6521H19.6858Z" fill="#FFFEFB"/>
<path d="M11.1036 76.6521V65.4439C10.4704 65.5705 9.88992 65.6655 9.36222 65.7288C8.83452 65.7921 8.31738 65.8238 7.8108 65.8238C5.57337 65.8238 3.85308 65.3067 2.64993 64.2724C1.44679 63.2381 0.845215 61.6656 0.845215 59.5548V51.0061H5.53115V58.9215C5.53115 59.8503 5.62614 60.6102 5.81611 61.2012C6.02718 61.7922 6.36491 62.2249 6.82928 62.4993C7.31476 62.7526 7.948 62.8793 8.72899 62.8793C9.06671 62.8793 9.4361 62.8582 9.83715 62.8159C10.2593 62.7526 10.6815 62.6787 11.1036 62.5943V51.0061H15.7579V76.6521H11.1036Z" fill="#FFFEFB"/>
</svg>
