<svg width="24" height="24" viewBox="0 0 24 24" fill="none" xmlns="http://www.w3.org/2000/svg">
<g clip-path="url(#clip0_229_3919)">
<path d="M11.9415 5.38086C11.9023 5.41999 11.873 5.468 11.8555 5.52051C11.7647 5.79427 11.6109 6.04276 11.4073 6.24707C11.2034 6.45165 10.9546 6.60655 10.6807 6.69824C10.6543 6.70705 10.6281 6.71889 10.6046 6.7334L10.5391 6.78516L2.48444 14.8369L3.81451 16.167C4.29335 15.8878 4.84519 15.7473 5.40631 15.7686C6.14646 15.7967 6.84838 16.1042 7.37213 16.6279C7.89587 17.1517 8.20238 17.8536 8.23053 18.5938C8.2518 19.1548 8.11116 19.7058 7.83209 20.1846L9.16217 21.5137L17.2178 13.46C17.2568 13.4206 17.2862 13.3729 17.3038 13.3203C17.3946 13.0465 17.5484 12.7981 17.752 12.5938C17.9559 12.3892 18.2047 12.2343 18.4786 12.1426C18.5311 12.1251 18.5801 12.0958 18.6192 12.0566L21.5147 9.16016L20.1846 7.83008C19.7067 8.10904 19.157 8.25087 18.5967 8.23047C17.8567 8.2034 17.1535 7.89767 16.629 7.375L16.628 7.37402C16.1045 6.85031 15.7978 6.14816 15.7696 5.4082C15.7482 4.84738 15.8883 4.29615 16.1671 3.81738L14.837 2.48438L11.9415 5.38086ZM23.2501 9.16016C23.2501 9.40736 23.1514 9.64451 22.9766 9.81934L19.6797 13.1162C19.4758 13.3203 19.2269 13.4733 18.9532 13.5645L18.9542 13.5654C18.9014 13.5831 18.8529 13.6129 18.8135 13.6523C18.7743 13.6918 18.7451 13.7401 18.7276 13.793L18.7266 13.7939C18.6355 14.0675 18.4821 14.3164 18.2784 14.5205L9.82233 22.9766C9.6475 23.1513 9.40937 23.25 9.16217 23.25C8.91514 23.2499 8.67868 23.1512 8.50397 22.9766L6.43463 20.9082C6.26955 20.7431 6.17195 20.5214 6.16217 20.2881C6.15235 20.0534 6.23143 19.8233 6.38385 19.6445L6.3858 19.6426C6.62197 19.3676 6.7461 19.0136 6.73248 18.6514C6.71874 18.289 6.568 17.9449 6.31158 17.6885C6.05513 17.432 5.71111 17.2813 5.34869 17.2676C4.98642 17.2539 4.63253 17.3781 4.35748 17.6143L4.35553 17.6152C4.17676 17.7677 3.94673 17.8477 3.71198 17.8379C3.4772 17.8281 3.25435 17.7294 3.08893 17.5625L1.0235 15.4961C0.848983 15.3213 0.750061 15.0839 0.750061 14.8369C0.750159 14.5898 0.848832 14.3525 1.0235 14.1777L9.47858 5.72363C9.68252 5.5201 9.93182 5.36656 10.2051 5.27539L10.2803 5.24023C10.3037 5.22569 10.3252 5.20812 10.3448 5.18848C10.3842 5.14896 10.4142 5.10081 10.4317 5.04785C10.5228 4.77406 10.6769 4.52431 10.8809 4.32031L14.1778 1.02344C14.3525 0.848779 14.5899 0.750098 14.837 0.75C15.0532 0.75 15.2619 0.825185 15.4278 0.960938L15.4962 1.02246L17.5626 3.0918L17.6221 3.15625C17.7342 3.29051 17.8065 3.45367 17.8301 3.62695L17.838 3.71387L17.837 3.80176C17.8263 4.00553 17.7488 4.20094 17.6153 4.35742L17.6143 4.35938C17.3784 4.63449 17.2549 4.98845 17.2686 5.35059C17.2824 5.71236 17.4319 6.05619 17.6876 6.3125L17.7881 6.40332C18.031 6.6036 18.3344 6.71985 18.6514 6.73145C19.0136 6.74461 19.3679 6.62018 19.6426 6.38379L19.6446 6.38184C19.801 6.24843 19.9966 6.17085 20.2003 6.16016H20.2881L20.3751 6.16797C20.5762 6.19543 20.7637 6.28781 20.9083 6.43262L22.9766 8.50098C23.1513 8.67578 23.25 8.91298 23.2501 9.16016Z" fill="#0F3339"/>
<path d="M16.8862 11.7272C17.179 11.4345 17.6539 11.4347 17.9468 11.7272L18.7212 12.5017C19.0139 12.7946 19.014 13.2694 18.7212 13.5622C18.4284 13.855 17.9536 13.8549 17.6606 13.5622L16.8862 12.7878C16.5937 12.4949 16.5935 12.02 16.8862 11.7272ZM14.8237 9.66376C15.1168 9.37125 15.5916 9.37179 15.8843 9.66474L16.3999 10.1804C16.6926 10.4734 16.6919 10.9482 16.3989 11.2409C16.1059 11.5336 15.6311 11.5338 15.3384 11.2409L14.8228 10.7243C14.5301 10.4313 14.5308 9.95647 14.8237 9.66376ZM12.7593 7.60126C13.052 7.30824 13.5268 7.30752 13.8198 7.60029L14.3355 8.11591C14.6284 8.40859 14.6289 8.88341 14.3364 9.17646C14.0438 9.46938 13.5689 9.46989 13.2759 9.17743L12.7593 8.66181C12.4663 8.36905 12.4665 7.89429 12.7593 7.60126ZM10.438 5.279C10.7309 4.9861 11.2056 4.9861 11.4985 5.279L12.273 6.05243C12.5658 6.34533 12.5658 6.82107 12.273 7.11396C11.9801 7.40684 11.5043 7.40683 11.2114 7.11396L10.438 6.33954C10.1451 6.04665 10.1451 5.57189 10.438 5.279Z" fill="#0F3339"/>
</g>
<defs>
<clipPath id="clip0_229_3919">
<rect width="24" height="24" fill="white"/>
</clipPath>
</defs>
</svg>
