<svg width="60" height="60" viewBox="0 0 60 60" fill="none" xmlns="http://www.w3.org/2000/svg">
<circle cx="30" cy="30" r="30" fill="#CDD3DC"/>
<g clip-path="url(#clip0_784_2623)">
<path fill-rule="evenodd" clip-rule="evenodd" d="M37.5 30C37.5 34.15 34.15 37.5 30 37.5C25.85 37.5 22.5 34.15 22.5 30C22.5 25.85 25.85 22.5 30 22.5C34.15 22.5 37.5 25.85 37.5 30ZM35 30C35.0002 30.6568 34.871 31.3071 34.6198 31.914C34.3686 32.5208 34.0003 33.0723 33.5361 33.5368C32.5984 34.4749 31.3264 35.0022 30 35.0025C29.3432 35.0027 28.6929 34.8735 28.086 34.6223C27.4792 34.3711 26.9277 34.0028 26.4632 33.5386C25.5251 32.6009 24.9978 31.3289 24.9975 30.0025C24.9972 28.6761 25.5238 27.4039 26.4614 26.4657C27.3991 25.5276 28.6711 25.0003 29.9975 25C31.3239 24.9997 32.5961 25.5263 33.5343 26.4639C34.4724 27.4016 34.9997 28.6736 35 30Z" fill="#344358"/>
<path fill-rule="evenodd" clip-rule="evenodd" d="M12.925 19.0492C14.5475 17.8042 16.75 17.5592 20.6 17.5117L22.2625 14.8617C22.7128 14.1412 23.3394 13.5473 24.083 13.1361C24.8266 12.7249 25.6628 12.51 26.5125 12.5117H33.4625C35.1875 12.5117 36.7875 13.3992 37.7125 14.8617L39.375 17.5117C43.225 17.5617 45.425 17.8042 47.05 19.0492C47.5717 19.4509 48.0333 19.9126 48.435 20.4342C49.985 22.4542 49.985 25.3842 49.985 31.2592C49.985 37.1342 49.985 40.0592 48.435 42.0842C48.0333 42.6059 47.5717 43.0676 47.05 43.4692C45.03 45.0192 42.1 45.0192 36.225 45.0192H23.725C17.85 45.0192 14.925 45.0192 12.9 43.4692C12.3798 43.0701 11.9141 42.6044 11.515 42.0842C9.965 40.0642 9.965 37.1342 9.965 31.2592C9.965 25.3842 9.965 22.4592 11.515 20.4342C11.9167 19.9126 12.3783 19.4509 12.9 19.0492H12.925ZM37.25 18.8367C37.7 19.5592 38.4875 20.0017 39.34 20.0117C43.315 20.0617 44.665 20.3692 45.54 21.0342C45.89 21.3009 46.1975 21.6084 46.4625 21.9567C46.8475 22.4567 47.15 23.1867 47.3175 24.6817C47.4925 26.2267 47.495 28.2567 47.495 31.2567C47.495 34.2567 47.4925 36.2817 47.3175 37.8317C47.15 39.3267 46.8475 40.0542 46.4625 40.5567C46.1958 40.9067 45.8883 41.2142 45.54 41.4792C45.0375 41.8642 44.31 42.1667 42.815 42.3342C41.27 42.5092 39.24 42.5117 36.24 42.5117H23.74C20.74 42.5117 18.715 42.5067 17.165 42.3342C15.67 42.1642 14.9425 41.8642 14.44 41.4792C14.0934 41.2126 13.7832 40.9016 13.5175 40.5542C13.1325 40.0542 12.83 39.3267 12.6625 37.8292C12.4875 36.2867 12.485 34.2542 12.485 31.2542C12.485 28.2542 12.4875 26.2292 12.6625 24.6792C12.83 23.1867 13.1325 22.4592 13.5175 21.9542C13.7842 21.6076 14.0917 21.3009 14.44 21.0342C15.305 20.3717 16.6525 20.0592 20.64 20.0092C21.0589 20.0042 21.4699 19.8939 21.835 19.6886C22.2002 19.4833 22.508 19.1895 22.73 18.8342L24.3925 16.1842C24.6172 15.8247 24.9297 15.5282 25.3006 15.3226C25.6714 15.1171 26.0885 15.0092 26.5125 15.0092H33.4625C33.8865 15.0092 34.3036 15.1171 34.6744 15.3226C35.0453 15.5282 35.3578 15.8247 35.5825 16.1842L37.245 18.8342L37.25 18.8367Z" fill="#344358"/>
</g>
<defs>
<clipPath id="clip0_784_2623">
<rect width="40" height="40" fill="white" transform="translate(10 10)"/>
</clipPath>
</defs>
</svg>
