<svg width="60" height="60" viewBox="0 0 60 60" fill="none" xmlns="http://www.w3.org/2000/svg">
<circle cx="30" cy="30" r="30" fill="#CDD3DC"/>
<path d="M32.0833 37.4987C32.0833 33.1264 28.5389 29.582 24.1667 29.582C19.7944 29.582 16.25 33.1264 16.25 37.4987C16.25 41.871 19.7944 45.4154 24.1667 45.4154C28.5389 45.4154 32.0833 41.871 32.0833 37.4987ZM34.5833 37.4987C34.5833 43.2517 29.9196 47.9154 24.1667 47.9154C18.4137 47.9154 13.75 43.2517 13.75 37.4987C13.75 31.7457 18.4137 27.082 24.1667 27.082C29.9196 27.082 34.5833 31.7457 34.5833 37.4987Z" fill="#344358"/>
<path d="M43.75 37.4987C43.75 33.1264 40.2055 29.582 35.8333 29.582C31.461 29.582 27.9166 33.1264 27.9166 37.4987C27.9166 41.871 31.461 45.4154 35.8333 45.4154C40.2055 45.4154 43.75 41.871 43.75 37.4987ZM46.25 37.4987C46.25 43.2517 41.5863 47.9154 35.8333 47.9154C30.0803 47.9154 25.4166 43.2517 25.4166 37.4987C25.4166 31.7457 30.0803 27.082 35.8333 27.082C41.5863 27.082 46.25 31.7457 46.25 37.4987Z" fill="#344358"/>
<path d="M35.4167 16.8965C35.4165 15.5155 34.4739 14.582 33.3334 14.582C32.7308 14.582 32.3129 14.7104 32.0004 14.9059C31.6855 15.1031 31.3861 15.4259 31.1133 15.959C30.8996 16.3768 30.4694 16.641 30 16.641C29.5307 16.641 29.1005 16.3768 28.8868 15.959C28.614 15.4259 28.3146 15.1031 27.9997 14.9059C27.6872 14.7104 27.2693 14.582 26.6667 14.582C25.5262 14.582 24.5836 15.5155 24.5834 16.8965C24.5834 18.8355 25.8883 20.5424 27.4707 21.8704C28.2367 22.5133 29.0096 23.0178 29.5931 23.3613C29.7422 23.4491 29.8809 23.5205 30 23.5859C30.1192 23.5205 30.2579 23.4491 30.4069 23.3613C30.9905 23.0178 31.7633 22.5133 32.5293 21.8704C34.1118 20.5424 35.4167 18.8355 35.4167 16.8965ZM37.9167 16.8965C37.9167 19.9708 35.8883 22.3167 34.1374 23.7861C33.2372 24.5416 32.3427 25.1225 31.6765 25.5146C31.342 25.7115 31.061 25.8637 30.861 25.9671C30.761 26.0189 30.6803 26.0582 30.6234 26.0859C30.595 26.0998 30.5715 26.1107 30.5551 26.1185L30.529 26.1315L30.5258 26.1331C30.234 26.2683 29.9028 26.2851 29.6013 26.1836L29.4743 26.1331L29.445 26.1185C29.4286 26.1107 29.4051 26.0998 29.3767 26.0859C29.3198 26.0582 29.2391 26.0189 29.139 25.9671C28.939 25.8637 28.6581 25.7115 28.3236 25.5146C27.6574 25.1225 26.7629 24.5416 25.8627 23.7861C24.1118 22.3167 22.0834 19.9708 22.0834 16.8965C22.0836 14.3413 23.9476 12.082 26.6667 12.082C27.6422 12.082 28.5406 12.2964 29.3246 12.7868C29.57 12.9403 29.7932 13.1187 30 13.3125C30.2069 13.1187 30.4301 12.9403 30.6755 12.7868C31.4595 12.2964 32.3579 12.082 33.3334 12.082C36.0525 12.082 37.9164 14.3413 37.9167 16.8965Z" fill="#344358"/>
</svg>
