<svg width="24" height="24" viewBox="0 0 24 24" fill="none" xmlns="http://www.w3.org/2000/svg">
<path d="M2.25 14.0002V12.0041C2.2491 9.74832 3.03055 7.56185 4.46094 5.81757C5.89139 4.07328 7.88239 2.87849 10.0947 2.43768C12.3071 1.99688 14.604 2.3377 16.5938 3.40057C18.5834 4.46341 20.1431 6.18298 21.0068 8.26678C21.8706 10.3508 21.9856 12.6704 21.3311 14.8293C20.6765 16.988 19.2934 18.8532 17.418 20.1066C15.5424 21.3601 13.2899 21.9243 11.0449 21.7033C8.79989 21.4823 6.70062 20.4899 5.10547 18.8947C4.81268 18.6019 4.81287 18.1271 5.10547 17.8342C5.39836 17.5413 5.87312 17.5413 6.16602 17.8342C7.51567 19.1838 9.29191 20.0231 11.1914 20.2101C13.091 20.3971 14.997 19.9201 16.584 18.8596C18.171 17.7989 19.3417 16.2205 19.8955 14.3937C20.4493 12.567 20.3519 10.6043 19.6211 8.841C18.8902 7.07782 17.5703 5.62213 15.8867 4.72284C14.2031 3.82366 12.2596 3.53639 10.3877 3.90936C8.51586 4.28237 6.83143 5.29293 5.62109 6.76874C4.4107 8.24475 3.74917 10.0953 3.75 12.0041V14.0002C3.74997 14.4144 3.41419 14.7502 3 14.7502C2.58581 14.7502 2.25003 14.4144 2.25 14.0002Z" fill="black"/>
<path d="M4.46973 11.4697C4.76262 11.1768 5.23738 11.1768 5.53028 11.4697C5.82317 11.7626 5.82317 12.2374 5.53028 12.5303L3.53028 14.5303C3.23738 14.8232 2.76262 14.8232 2.46973 14.5303L0.469731 12.5303C0.176838 12.2374 0.176838 11.7626 0.469731 11.4697C0.762624 11.1768 1.23738 11.1768 1.53028 11.4697L3 12.9395L4.46973 11.4697ZM10.25 8C10.25 7.58579 10.5858 7.25 11 7.25C11.4142 7.25 11.75 7.58579 11.75 8V12.25H16C16.4142 12.25 16.75 12.5858 16.75 13C16.75 13.4142 16.4142 13.75 16 13.75H11C10.5858 13.75 10.25 13.4142 10.25 13V8Z" fill="black"/>
</svg>
