<svg width="40" height="40" viewBox="0 0 40 40" fill="none" xmlns="http://www.w3.org/2000/svg">
<g clip-path="url(#clip0_1015_616)">
<path d="M24.6667 7.5C24.6667 7.72101 24.7545 7.93298 24.9107 8.08926C25.067 8.24554 25.279 8.33333 25.5 8.33333C25.721 8.33333 25.933 8.24554 26.0893 8.08926C26.2455 7.93298 26.3333 7.72101 26.3333 7.5C26.3246 7.25405 26.4011 7.01263 26.55 6.81667C26.8513 6.36267 27.0082 5.82814 27 5.28333C27.0082 4.73853 26.8513 4.204 26.55 3.75C26.4011 3.55404 26.3246 3.31262 26.3333 3.06667C26.3246 2.82071 26.4011 2.5793 26.55 2.38333C26.8545 1.92463 27.0115 1.3838 27 0.833333C27 0.61232 26.9122 0.400358 26.7559 0.244078C26.5996 0.0877974 26.3877 0 26.1667 0C25.9457 0 25.7337 0.0877974 25.5774 0.244078C25.4211 0.400358 25.3333 0.61232 25.3333 0.833333C25.3421 1.07929 25.2656 1.32071 25.1167 1.51667C24.8154 1.97066 24.6585 2.50519 24.6667 3.05C24.6585 3.59481 24.8154 4.12934 25.1167 4.58333C25.2656 4.7793 25.3421 5.02071 25.3333 5.26667C25.3421 5.51262 25.2656 5.75404 25.1167 5.95C24.8121 6.4087 24.6551 6.94954 24.6667 7.5ZM19.6667 7.5C19.6667 7.72101 19.7545 7.93298 19.9107 8.08926C20.067 8.24554 20.279 8.33333 20.5 8.33333C20.721 8.33333 20.933 8.24554 21.0893 8.08926C21.2455 7.93298 21.3333 7.72101 21.3333 7.5C21.3246 7.25405 21.4011 7.01263 21.55 6.81667C21.8513 6.36267 22.0082 5.82814 22 5.28333C22.0082 4.73853 21.8513 4.204 21.55 3.75C21.4011 3.55404 21.3246 3.31262 21.3333 3.06667C21.3246 2.82071 21.4011 2.5793 21.55 2.38333C21.8545 1.92463 22.0115 1.3838 22 0.833333C22 0.61232 21.9122 0.400358 21.7559 0.244078C21.5996 0.0877974 21.3877 0 21.1667 0C20.9457 0 20.7337 0.0877974 20.5774 0.244078C20.4211 0.400358 20.3333 0.61232 20.3333 0.833333C20.3421 1.07929 20.2656 1.32071 20.1167 1.51667C19.8154 1.97066 19.6585 2.50519 19.6667 3.05C19.6585 3.59481 19.8154 4.12934 20.1167 4.58333C20.2656 4.7793 20.3421 5.02071 20.3333 5.26667C20.3421 5.51262 20.2656 5.75404 20.1167 5.95C19.8121 6.4087 19.6551 6.94954 19.6667 7.5ZM14.6667 7.5C14.6667 7.72101 14.7545 7.93298 14.9107 8.08926C15.067 8.24554 15.279 8.33333 15.5 8.33333C15.721 8.33333 15.933 8.24554 16.0893 8.08926C16.2455 7.93298 16.3333 7.72101 16.3333 7.5C16.3246 7.25405 16.4011 7.01263 16.55 6.81667C16.8513 6.36267 17.0082 5.82814 17 5.28333C17.0082 4.73853 16.8513 4.204 16.55 3.75C16.4011 3.55404 16.3246 3.31262 16.3333 3.06667C16.3246 2.82071 16.4011 2.5793 16.55 2.38333C16.8545 1.92463 17.0115 1.3838 17 0.833333C17 0.61232 16.9122 0.400358 16.7559 0.244078C16.5996 0.0877974 16.3877 0 16.1667 0C15.9457 0 15.7337 0.0877974 15.5774 0.244078C15.4211 0.400358 15.3333 0.61232 15.3333 0.833333C15.3421 1.07929 15.2656 1.32071 15.1167 1.51667C14.8154 1.97066 14.6585 2.50519 14.6667 3.05C14.6585 3.59481 14.8154 4.12934 15.1167 4.58333C15.2656 4.7793 15.3421 5.02071 15.3333 5.26667C15.3421 5.51262 15.2656 5.75404 15.1167 5.95C14.8121 6.4087 14.6551 6.94954 14.6667 7.5ZM39.1667 31.6667H29.1667C30.0201 30.967 30.7917 30.1731 31.4667 29.3C33.2562 28.696 34.8819 27.6864 36.2167 26.35C37.3834 25.1912 38.3084 23.8121 38.9378 22.2928C39.5673 20.7736 39.8887 19.1445 39.8833 17.5C39.8833 16.8398 39.6222 16.2065 39.157 15.7381C38.6918 15.2697 38.0602 15.0044 37.4 15H34.8333L35 12.5667C35.0092 12.4518 34.9945 12.3362 34.9568 12.2273C34.919 12.1183 34.8591 12.0184 34.7808 11.9338C34.7025 11.8492 34.6075 11.7818 34.5018 11.7358C34.396 11.6899 34.2819 11.6663 34.1667 11.6667H5.83333C5.71956 11.6665 5.60695 11.6896 5.50244 11.7345C5.39794 11.7795 5.30374 11.8454 5.22567 11.9281C5.1476 12.0109 5.0873 12.1088 5.04849 12.2157C5.00967 12.3227 4.99317 12.4364 5 12.55L5.63333 21.7833C5.79181 23.6955 6.33394 25.5562 7.22736 27.2543C8.12078 28.9524 9.34717 30.453 10.8333 31.6667H0.833333C0.61232 31.6667 0.400358 31.7545 0.244078 31.9107C0.0877974 32.067 0 32.279 0 32.5C0 34.4891 0.790176 36.3968 2.1967 37.8033C3.60322 39.2098 5.51088 40 7.5 40H32.5C34.4891 40 36.3968 39.2098 37.8033 37.8033C39.2098 36.3968 40 34.4891 40 32.5C40 32.279 39.9122 32.067 39.7559 31.9107C39.5996 31.7545 39.3877 31.6667 39.1667 31.6667ZM34.3667 21.7667L34.7167 16.6667H37.4C37.621 16.6667 37.833 16.7545 37.9893 16.9107C38.1455 17.067 38.2333 17.279 38.2333 17.5C38.2316 19.3685 37.7475 21.2048 36.8277 22.8312C35.9079 24.4576 34.5837 25.819 32.9833 26.7833C33.7432 25.2082 34.2119 23.5086 34.3667 21.7667ZM7.3 21.6667L6.66667 13.3333H33.3333L32.7667 21.6667C32.6047 23.7354 31.9322 25.7318 30.8095 27.4769C29.6868 29.2221 28.1488 30.6616 26.3333 31.6667H13.7333C11.9226 30.6559 10.3886 29.2149 9.26661 27.4709C8.14464 25.7269 7.46923 23.7335 7.3 21.6667ZM32.5 38.3333H7.5C6.08796 38.3443 4.71961 37.8441 3.64748 36.9252C2.57535 36.0062 1.8718 34.7304 1.66667 33.3333H38.3333C38.1282 34.7304 37.4247 36.0062 36.3525 36.9252C35.2804 37.8441 33.912 38.3443 32.5 38.3333Z" fill="#4C6381"/>
</g>
<defs>
<clipPath id="clip0_1015_616">
<rect width="40" height="40" fill="white"/>
</clipPath>
</defs>
</svg>
