<svg width="60" height="60" viewBox="0 0 60 60" fill="none" xmlns="http://www.w3.org/2000/svg">
<circle cx="30" cy="30" r="30" fill="#CDD3DC"/>
<path d="M31.6195 29.6059C32.1091 29.1198 32.9006 29.123 33.3871 29.6124L38.3871 34.6417H38.3854L38.3871 34.6433H38.3887C38.3915 34.6461 38.394 34.6502 38.3968 34.6531L39.2188 35.4783H39.2204C39.3225 35.5809 39.4432 35.6635 39.5768 35.7191C39.7107 35.7748 39.855 35.8038 40 35.8038C40.145 35.8038 40.2893 35.7748 40.4232 35.7191C40.5568 35.6635 40.6775 35.5809 40.7796 35.4783C40.9881 35.2663 41.1051 34.9813 41.1052 34.684C41.1052 34.3863 40.9885 34.1001 40.7796 33.8881L31.1458 24.1973H30.5208L28.8298 25.8982C27.281 27.4554 24.8707 27.6825 23.0713 26.4955L22.7197 26.2383C22.4175 25.9952 22.0924 25.7443 21.8652 25.4555C21.4943 24.9838 21.2776 24.4091 21.2451 23.81C21.2128 23.2101 21.366 22.6135 21.6846 22.1042C21.8787 21.794 22.1759 21.5101 22.4479 21.2367L22.4496 21.2335L23.7207 19.9639C25.0963 18.5884 26.0139 17.6421 27.2119 17.1433H27.2152C27.8598 16.8771 28.5764 16.7694 29.3262 16.7185C30.0771 16.6675 30.9646 16.668 31.971 16.668C33.2233 16.668 34.1214 16.6593 34.9463 16.8438L35.2962 16.935L35.3011 16.9366C35.8293 17.0983 36.492 17.4755 37.0785 17.835C37.3909 18.0266 37.7191 18.2376 38.0469 18.4519L39.0137 19.0915C39.9037 19.686 40.1518 19.8343 40.4069 19.9118C40.6599 19.9887 40.9434 20.0014 42.0182 20.0014H46.6667C47.357 20.0014 47.9167 20.561 47.9167 21.2514C47.9167 21.9417 47.357 22.5014 46.6667 22.5014H42.0182C41.09 22.5014 40.3696 22.5142 39.6794 22.3044C38.9916 22.0954 38.4029 21.6899 37.627 21.1716L36.6797 20.5434C36.3667 20.3387 36.0601 20.1425 35.7715 19.9656C35.1553 19.5878 34.7488 19.381 34.5687 19.3259V19.3243C34.079 19.1781 33.5401 19.168 31.971 19.168C30.9351 19.168 30.1432 19.168 29.4955 19.212C28.8464 19.256 28.4443 19.3392 28.169 19.4529C27.535 19.7177 27.0036 20.2162 25.4883 21.7315V21.7331L24.2171 23.0027L24.2155 23.001C24.0473 23.1701 23.9462 23.274 23.8721 23.3542L23.8053 23.4307C23.7598 23.5035 23.7372 23.5892 23.7419 23.6749C23.7465 23.7601 23.7771 23.842 23.8298 23.9092L23.8314 23.9109C23.8405 23.9201 23.8632 23.9418 23.9063 23.9792C23.9882 24.0505 24.1013 24.1406 24.2871 24.2901C25.1148 24.9555 26.306 24.8908 27.0573 24.1355L29.113 22.0668L29.305 21.9089C29.5092 21.7724 29.7508 21.6973 30 21.6973H31.6667C31.9995 21.6973 32.3191 21.8308 32.5537 22.0668L42.5537 32.127L42.5553 32.1286C43.228 32.8088 43.6052 33.7274 43.6052 34.684C43.6051 35.6405 43.2279 36.5592 42.5553 37.2393L42.5537 37.2409C42.2192 37.5775 41.82 37.8448 41.3818 38.0271C40.9439 38.2091 40.4743 38.3038 40 38.3038C39.7599 38.3038 39.5213 38.2779 39.2871 38.2305C39.1185 38.7994 38.8133 39.3245 38.3887 39.754L38.3871 39.7556C38.0525 40.0922 37.6534 40.3595 37.2152 40.5417C36.7772 40.7238 36.3077 40.8184 35.8333 40.8184C35.359 40.8184 34.8895 40.7238 34.4515 40.5417C34.3344 40.493 34.2206 40.4362 34.1097 40.3757C33.9337 40.7631 33.6937 41.1222 33.3887 41.4304L33.3871 41.432C33.0525 41.7686 32.6534 42.0359 32.2152 42.2182C31.7772 42.4003 31.3077 42.4949 30.8333 42.4949C30.359 42.4949 29.8895 42.4003 29.4515 42.2182C29.0133 42.0359 28.6142 41.7686 28.2796 41.432L28.208 41.3604C28.0393 41.6918 27.8217 41.9995 27.5553 42.2686L27.5537 42.2702C27.2192 42.6068 26.82 42.8741 26.3818 43.0564C25.9438 43.2385 25.4744 43.3331 25 43.3331C24.5256 43.3331 24.0562 43.2385 23.6182 43.0564C23.18 42.8741 22.7809 42.6068 22.4463 42.2702L22.4398 42.2654L17.7344 37.4607C16.8239 36.5314 16.4899 36.2142 16.1979 36.0561L16.0726 35.9975C15.7409 35.858 15.3508 35.8347 13.8656 35.8347H13.3333C12.643 35.8347 12.0833 35.2751 12.0833 34.5847C12.0833 33.8943 12.643 33.3347 13.3333 33.3347H13.8656C15.1413 33.3347 16.1339 33.3122 17.0378 33.6911H17.0394C17.9467 34.0716 18.6272 34.7999 19.5199 35.711L24.2269 40.5141C24.3276 40.6138 24.446 40.6939 24.5768 40.7484C24.7107 40.8041 24.855 40.8331 25 40.8331C25.145 40.8331 25.2893 40.8041 25.4232 40.7484C25.5565 40.6929 25.6777 40.6116 25.7796 40.5092C25.9889 40.2972 26.1067 40.0112 26.1068 39.7133C26.1068 39.4147 25.9881 39.128 25.778 38.9158V38.9141L24.9463 38.0792C24.4599 37.5895 24.4633 36.7982 24.9528 36.3116C25.4424 35.8252 26.2338 35.827 26.7204 36.3165L30.0537 39.6693C30.1558 39.772 30.2765 39.8545 30.4102 39.9102C30.5441 39.9659 30.6883 39.9949 30.8333 39.9949C30.9783 39.9949 31.1226 39.9659 31.2565 39.9102C31.3902 39.8545 31.5109 39.772 31.613 39.6693C31.8217 39.4574 31.94 39.1726 31.9401 38.8751C31.9401 38.6513 31.8729 38.4341 31.7513 38.2501L31.6113 38.0775L28.2829 34.7491C27.7948 34.261 27.795 33.4697 28.2829 32.9815C28.771 32.4934 29.5623 32.4934 30.0505 32.9815L33.3838 36.3148L33.3871 36.3165L35.0537 37.9929C35.1558 38.0956 35.2765 38.1781 35.4102 38.2338C35.5441 38.2895 35.6883 38.3184 35.8333 38.3184C35.9783 38.3184 36.1226 38.2895 36.2565 38.2338C36.3902 38.1781 36.5109 38.0956 36.613 37.9929C36.8213 37.781 36.9385 37.4959 36.9385 37.1986C36.9384 36.9005 36.8208 36.6148 36.6113 36.4027V36.4011L31.613 31.3751C31.1263 30.8855 31.1299 30.0926 31.6195 29.6059Z" fill="#344358"/>
<path d="M46.6667 33.3333C47.357 33.3333 47.9167 33.893 47.9167 34.5833C47.9167 35.2737 47.357 35.8333 46.6667 35.8333H42.5C41.8097 35.8333 41.25 35.2737 41.25 34.5833C41.25 33.893 41.8097 33.3333 42.5 33.3333H46.6667ZM24.1667 20C24.857 20 25.4167 20.5596 25.4167 21.25C25.4167 21.9404 24.857 22.5 24.1667 22.5H13.3333C12.643 22.5 12.0833 21.9404 12.0833 21.25C12.0833 20.5596 12.643 20 13.3333 20H24.1667Z" fill="#344358"/>
</svg>
