<svg width="60" height="60" viewBox="0 0 60 60" fill="none" xmlns="http://www.w3.org/2000/svg">
<circle cx="30" cy="30" r="30" fill="#CDD3DC"/>
<path d="M36.2499 42.4997C36.2499 41.1215 35.7814 39.9833 34.9218 39.4056L34.3814 39.072C33.0912 38.3371 31.597 37.9164 29.9999 37.9164H29.9983C28.2471 37.9131 26.5336 38.4318 25.0781 39.4056C24.2194 39.9837 23.7499 41.1228 23.7499 42.4997C23.7499 43.19 23.1903 43.7497 22.4999 43.7497C21.8096 43.7497 21.2499 43.19 21.2499 42.4997C21.2499 40.6578 21.8765 38.5445 23.6865 37.3288L23.6881 37.3272C25.5556 36.0777 27.753 35.4143 29.9999 35.418C32.1887 35.418 34.2344 36.0359 35.9684 37.1074L36.3118 37.3272L36.3134 37.3288C38.1257 38.5449 38.7499 40.6589 38.7499 42.4997C38.7499 43.19 38.1903 43.7497 37.4999 43.7497C36.8096 43.7497 36.2499 43.19 36.2499 42.4997Z" fill="#344358"/>
<path d="M32.9166 28.3327C32.9166 26.7219 31.6108 25.416 30 25.416C28.3891 25.416 27.0833 26.7219 27.0833 28.3327C27.0833 29.9435 28.3891 31.2493 30 31.2493C31.6108 31.2493 32.9166 29.9435 32.9166 28.3327ZM35.4166 28.3327C35.4166 31.3242 32.9915 33.7493 30 33.7493C27.0084 33.7493 24.5833 31.3242 24.5833 28.3327C24.5833 25.3411 27.0084 22.916 30 22.916C32.9915 22.916 35.4166 25.3411 35.4166 28.3327Z" fill="#344358"/>
<path d="M44.5833 34.1673V34.0078C44.5833 32.6963 44.1802 31.6187 43.4082 31.0358C42.1843 30.1126 40.7258 29.584 39.1666 29.584C38.4763 29.584 37.9166 29.0243 37.9166 28.334C37.9166 27.6436 38.4763 27.084 39.1666 27.084C41.3071 27.084 43.2877 27.8124 44.9137 29.0387L44.9153 29.0404C46.5626 30.2842 47.0833 32.2896 47.0833 34.0078V34.1673C47.0833 34.8577 46.5236 35.4173 45.8333 35.4173C45.1429 35.4173 44.5833 34.8577 44.5833 34.1673Z" fill="#344358"/>
<path d="M41.25 20.8333C41.25 19.6827 40.3172 18.75 39.1666 18.75C38.0161 18.75 37.0833 19.6827 37.0833 20.8333C37.0833 21.9839 38.0161 22.9167 39.1666 22.9167C40.3172 22.9167 41.25 21.9839 41.25 20.8333ZM43.75 20.8333C43.75 23.3646 41.698 25.4167 39.1666 25.4167C36.6353 25.4167 34.5833 23.3646 34.5833 20.8333C34.5833 18.302 36.6353 16.25 39.1666 16.25C41.698 16.25 43.75 18.302 43.75 20.8333Z" fill="#344358"/>
<path d="M12.9166 34.1673V34.0078C12.9166 32.2896 13.4374 30.2842 15.0846 29.0404L15.0862 29.0387C16.7122 27.8124 18.6929 27.084 20.8333 27.084C21.5236 27.084 22.0833 27.6436 22.0833 28.334C22.0833 29.0243 21.5236 29.584 20.8333 29.584C19.2741 29.584 17.8156 30.1126 16.5918 31.0358C15.8197 31.6187 15.4166 32.6963 15.4166 34.0078V34.1673C15.4166 34.8577 14.857 35.4173 14.1666 35.4173C13.4763 35.4173 12.9166 34.8577 12.9166 34.1673Z" fill="#344358"/>
<path d="M22.9166 20.8333C22.9166 19.6827 21.9839 18.75 20.8333 18.75C19.6827 18.75 18.7499 19.6827 18.7499 20.8333C18.7499 21.9839 19.6827 22.9167 20.8333 22.9167C21.9839 22.9167 22.9166 21.9839 22.9166 20.8333ZM25.4166 20.8333C25.4166 23.3646 23.3646 25.4167 20.8333 25.4167C18.302 25.4167 16.2499 23.3646 16.2499 20.8333C16.2499 18.302 18.302 16.25 20.8333 16.25C23.3646 16.25 25.4166 18.302 25.4166 20.8333Z" fill="#344358"/>
</svg>
