<svg width="40" height="40" viewBox="0 0 40 40" fill="none" xmlns="http://www.w3.org/2000/svg">
<path d="M38.3333 33.966L35.8333 24.066V4.16602C35.8333 3.50297 35.5699 2.86709 35.1011 2.39825C34.6323 1.92941 33.9964 1.66602 33.3333 1.66602H6.66667C6.00363 1.66602 5.36774 1.92941 4.8989 2.39825C4.43006 2.86709 4.16667 3.50297 4.16667 4.16602V24.066L1.66667 33.966C1.66157 34.0326 1.66157 34.0994 1.66667 34.166V35.8327C1.66667 36.4957 1.93006 37.1316 2.3989 37.6004C2.86774 38.0693 3.50363 38.3327 4.16667 38.3327H35.8333C36.4964 38.3327 37.1323 38.0693 37.6011 37.6004C38.0699 37.1316 38.3333 36.4957 38.3333 35.8327V34.166C38.3384 34.0994 38.3384 34.0326 38.3333 33.966ZM5.83334 4.16602C5.83334 3.945 5.92113 3.73304 6.07741 3.57676C6.23369 3.42048 6.44566 3.33268 6.66667 3.33268H33.3333C33.5543 3.33268 33.7663 3.42048 33.9226 3.57676C34.0789 3.73304 34.1667 3.945 34.1667 4.16602V23.3327H5.83334V4.16602ZM5.65 24.9994H34.35L36.4333 33.3327H3.56667L5.65 24.9994ZM36.6667 35.8327C36.6667 36.0537 36.5789 36.2657 36.4226 36.4219C36.2663 36.5782 36.0543 36.666 35.8333 36.666H4.16667C3.94566 36.666 3.73369 36.5782 3.57741 36.4219C3.42113 36.2657 3.33334 36.0537 3.33334 35.8327V34.9994H36.6667V35.8327ZM9.16667 28.3327H5.83334V26.666H9.16667V28.3327ZM14.1667 28.3327H10.8333V26.666H14.1667V28.3327ZM19.1667 28.3327H15.8333V26.666H19.1667V28.3327ZM24.1667 28.3327H20.8333V26.666H24.1667V28.3327ZM29.1667 28.3327H25.8333V26.666H29.1667V28.3327ZM30.8333 26.666H34.1667V28.3327H30.8333V26.666ZM8.33334 29.9994H11.6667V31.666H8.33334V29.9994ZM13.3333 29.9994H16.6667V31.666H13.3333V29.9994ZM18.3333 29.9994H21.6667V31.666H18.3333V29.9994ZM23.3333 29.9994H26.6667V31.666H23.3333V29.9994ZM28.3333 29.9994H31.6667V31.666H28.3333V29.9994ZM18.3333 5.83268H8.33334C8.11232 5.83268 7.90036 5.92048 7.74408 6.07676C7.5878 6.23304 7.5 6.445 7.5 6.66602V16.666C7.5 16.887 7.5878 17.099 7.74408 17.2553C7.90036 17.4116 8.11232 17.4993 8.33334 17.4993H18.3333C18.5543 17.4993 18.7663 17.4116 18.9226 17.2553C19.0789 17.099 19.1667 16.887 19.1667 16.666V6.66602C19.1667 6.445 19.0789 6.23304 18.9226 6.07676C18.7663 5.92048 18.5543 5.83268 18.3333 5.83268ZM17.5 15.8327H9.16667V7.49935H17.5V15.8327ZM26.6667 14.166C25.1196 14.166 23.6358 14.7806 22.5419 15.8746C21.4479 16.9685 20.8333 18.4523 20.8333 19.9993V20.8327C20.8333 21.0537 20.9211 21.2657 21.0774 21.4219C21.2337 21.5782 21.4457 21.666 21.6667 21.666H31.6667C31.8877 21.666 32.0996 21.5782 32.2559 21.4219C32.4122 21.2657 32.5 21.0537 32.5 20.8327V19.9993C32.5 18.4523 31.8854 16.9685 30.7915 15.8746C29.6975 14.7806 28.2138 14.166 26.6667 14.166ZM22.5 19.9993C22.5 18.8943 22.939 17.8345 23.7204 17.0531C24.5018 16.2717 25.5616 15.8327 26.6667 15.8327C27.7717 15.8327 28.8315 16.2717 29.6129 17.0531C30.3943 17.8345 30.8333 18.8943 30.8333 19.9993H22.5ZM26.6667 13.3327C27.4908 13.3327 28.2963 13.0883 28.9815 12.6305C29.6667 12.1726 30.2008 11.5219 30.5162 10.7605C30.8315 9.99917 30.914 9.16139 30.7533 8.35314C30.5925 7.54489 30.1957 6.80246 29.6129 6.21974C29.0302 5.63702 28.2878 5.24018 27.4795 5.07941C26.6713 4.91864 25.8335 5.00115 25.0722 5.31652C24.3108 5.63188 23.6601 6.16594 23.2022 6.85114C22.7444 7.53634 22.5 8.34193 22.5 9.16602C22.5 10.2711 22.939 11.3309 23.7204 12.1123C24.5018 12.8937 25.5616 13.3327 26.6667 13.3327ZM26.6667 6.66602C27.1611 6.66602 27.6445 6.81264 28.0556 7.08734C28.4667 7.36205 28.7871 7.75249 28.9764 8.20931C29.1656 8.66612 29.2151 9.16879 29.1186 9.65374C29.0222 10.1387 28.7841 10.5842 28.4344 10.9338C28.0848 11.2834 27.6393 11.5215 27.1544 11.618C26.6694 11.7144 26.1668 11.6649 25.71 11.4757C25.2531 11.2865 24.8627 10.9661 24.588 10.5549C24.3133 10.1438 24.1667 9.66047 24.1667 9.16602C24.1667 8.50297 24.4301 7.86709 24.8989 7.39825C25.3677 6.92941 26.0036 6.66602 26.6667 6.66602ZM15.8333 10.8327H10.8333V9.16602H15.8333V10.8327ZM15.8333 14.166H10.8333V12.4993H15.8333V14.166ZM7.5 19.166H19.1667V20.8327H7.5V19.166Z" fill="#4C6381"/>
</svg>
