<svg width="40" height="40" viewBox="0 0 40 40" fill="none" xmlns="http://www.w3.org/2000/svg">
<path d="M30.5356 29.0402C32.1875 26.2796 33.75 23.1602 33.75 21.2502C33.7509 19.7781 33.316 18.3386 32.5 17.1133V1.87522C32.5 1.78253 32.4794 1.691 32.4397 1.60725C32.4 1.52351 32.3421 1.44964 32.2703 1.39101C32.1985 1.33238 32.1146 1.29046 32.0246 1.26827C31.9346 1.24608 31.8408 1.24419 31.75 1.26272L19.39 3.7346L9.52625 1.26897C9.41115 1.23979 9.29008 1.24435 9.1775 1.2821L1.6775 3.7821C1.553 3.82357 1.4447 3.90317 1.36797 4.00963C1.29124 4.11609 1.24997 4.24399 1.25 4.37522V26.8752C1.24999 26.9726 1.27276 27.0687 1.31648 27.1558C1.3602 27.2428 1.42367 27.3184 1.50181 27.3766C1.57995 27.4348 1.67061 27.4739 1.76655 27.4908C1.86249 27.5077 1.96106 27.5019 2.05437 27.474L14.3531 23.7865L20.295 26.0158C20.8124 27.0457 21.3693 28.0552 21.9644 29.0421C16.9412 29.7315 13.75 31.5383 13.75 33.7502C13.75 37.0002 20.1906 38.7502 26.25 38.7502C32.3094 38.7502 38.75 37.0002 38.75 33.7502C38.75 31.5383 35.5587 29.7315 30.5356 29.0402ZM8.75 24.1602L2.5 26.0352V19.2008L8.75 17.1177V24.1602ZM8.75 15.7996L2.5 17.8827V11.7008L8.75 9.61772V15.7996ZM8.75 8.2996L2.5 10.3827V4.82585L8.75 2.7421V8.2996ZM25 3.88772L31.25 2.63772V8.2996L25 10.3833V3.88772ZM25 11.7002L31.25 9.6171V15.6752C30.4168 14.9143 29.4199 14.355 28.3362 14.0408C27.2525 13.7265 26.111 13.6656 25 13.8627V11.7002ZM17.5 4.55085L19.2238 4.98147C19.3134 5.00417 19.4069 5.0063 19.4975 4.98772L23.75 4.13772V10.6252H17.5V4.55085ZM17.5 11.8752H23.75V14.1877C22.8058 14.5242 21.9383 15.0458 21.1983 15.722C20.4583 16.3981 19.8608 17.2152 19.4406 18.1252H17.5V11.8752ZM16.25 23.1608L14.595 22.5396C14.4668 22.4919 14.3266 22.4873 14.1956 22.5265L10 23.7852V17.1177L16.25 19.2008V23.1608ZM16.25 17.8833L10 15.7996V9.61772L16.25 11.7008V17.8833ZM16.25 10.3833L10 8.2996V2.6746L16.25 4.2371V10.3833ZM17.5 23.6333V19.3752H19C18.8374 19.9871 18.7534 20.6171 18.75 21.2502C18.8247 22.3416 19.0988 23.4101 19.5588 24.4027L17.5 23.6333ZM20 21.2502C20 19.5926 20.6585 18.0029 21.8306 16.8308C23.0027 15.6587 24.5924 15.0002 26.25 15.0002C27.9076 15.0002 29.4973 15.6587 30.6694 16.8308C31.8415 18.0029 32.5 19.5926 32.5 21.2502C32.5 23.9602 28.375 30.324 26.25 33.3083C24.125 30.3246 20 23.9615 20 21.2502ZM26.25 37.5002C19.6206 37.5002 15 35.524 15 33.7502C15 32.4533 17.6931 30.8008 22.6813 30.2121C24.205 32.644 25.6187 34.5727 25.7469 34.7458C25.805 34.8247 25.8808 34.8887 25.9682 34.9329C26.0555 34.977 26.1521 35.0001 26.25 35.0001C26.3479 35.0001 26.4445 34.977 26.5318 34.9329C26.6192 34.8887 26.695 34.8247 26.7531 34.7458C26.8781 34.5727 28.295 32.644 29.8188 30.2121C34.8069 30.8008 37.5 32.4533 37.5 33.7502C37.5 35.524 32.8794 37.5002 26.25 37.5002Z" fill="#4C6381"/>
<path d="M30 20.625C30 19.8833 29.7801 19.1583 29.368 18.5416C28.956 17.9249 28.3703 17.4443 27.6851 17.1605C26.9998 16.8766 26.2458 16.8024 25.5184 16.9471C24.791 17.0918 24.1228 17.4489 23.5984 17.9734C23.0739 18.4978 22.7168 19.166 22.5721 19.8934C22.4274 20.6208 22.5016 21.3748 22.7855 22.0601C23.0693 22.7453 23.5499 23.331 24.1666 23.743C24.7833 24.1551 25.5083 24.375 26.25 24.375C27.2443 24.374 28.1975 23.9786 28.9006 23.2756C29.6036 22.5725 29.999 21.6193 30 20.625ZM23.75 20.625C23.75 20.1305 23.8966 19.6472 24.1713 19.2361C24.446 18.825 24.8365 18.5045 25.2933 18.3153C25.7501 18.1261 26.2528 18.0766 26.7377 18.173C27.2227 18.2695 27.6681 18.5076 28.0178 18.8572C28.3674 19.2069 28.6055 19.6523 28.702 20.1373C28.7984 20.6222 28.7489 21.1249 28.5597 21.5817C28.3705 22.0385 28.0501 22.429 27.6389 22.7037C27.2278 22.9784 26.7445 23.125 26.25 23.125C25.587 23.125 24.9511 22.8616 24.4822 22.3928C24.0134 21.9239 23.75 21.288 23.75 20.625Z" fill="#4C6381"/>
</svg>
