<svg width="40" height="40" viewBox="0 0 40 40" fill="none" xmlns="http://www.w3.org/2000/svg">
<path d="M19.375 0.625H9.375C8.5465 0.625992 7.75222 0.955551 7.16639 1.54139C6.58055 2.12722 6.25099 2.9215 6.25 3.75V26.25C6.25099 27.0785 6.58055 27.8728 7.16639 28.4586C7.75222 29.0444 8.5465 29.374 9.375 29.375H18.125V31.25C18.1239 33.0135 18.7712 34.7159 19.9437 36.0331L23.2831 39.79L24.2169 38.96L20.875 35.2031C19.9076 34.1137 19.3739 32.707 19.375 31.25V27.5C19.375 27.403 19.3524 27.3073 19.309 27.2205C19.2656 27.1337 19.2026 27.0582 19.125 27L15.43 24.2287C15.1032 23.9825 14.8379 23.6639 14.6548 23.2979C14.4718 22.932 14.376 22.5286 14.375 22.1194C14.375 21.9686 14.4143 21.8204 14.4889 21.6893C14.5635 21.5583 14.6709 21.4489 14.8006 21.3719C14.9303 21.2949 15.0778 21.253 15.2285 21.2503C15.3793 21.2475 15.5282 21.284 15.6606 21.3562L22.1031 24.8706L26.4044 29.7863L27.3456 28.9637L22.9706 23.9637C22.9219 23.9084 22.864 23.8618 22.7994 23.8263L22.5 23.6631V15.8837L25.8081 19.1919C27.3314 20.7218 28.3213 22.7016 28.6312 24.8381L30.0062 34.4631C30.0161 34.5283 30.0362 34.5916 30.0656 34.6506L32.5656 39.6506L33.6844 39.0919L31.2294 34.1875L29.8687 24.6613C29.52 22.2572 28.4061 20.0294 26.6919 18.3081L22.5 14.1163V3.75C22.499 2.9215 22.1694 2.12722 21.5836 1.54139C20.9978 0.955551 20.2035 0.625992 19.375 0.625ZM9.375 1.875H19.375C19.8723 1.875 20.3492 2.07254 20.7008 2.42417C21.0525 2.77581 21.25 3.25272 21.25 3.75V5.625H7.5V3.75C7.5 3.25272 7.69754 2.77581 8.04917 2.42417C8.4008 2.07254 8.87772 1.875 9.375 1.875ZM7.5 26.25V25.625H12.9875C12.674 25.9658 12.5 26.4119 12.5 26.875C12.5 27.3381 12.674 27.7842 12.9875 28.125H9.375C8.87772 28.125 8.4008 27.9275 8.04917 27.5758C7.69754 27.2242 7.5 26.7473 7.5 26.25ZM14.375 27.5C14.2514 27.5 14.1305 27.4633 14.0278 27.3947C13.925 27.326 13.8449 27.2284 13.7976 27.1142C13.7503 27 13.7379 26.8743 13.762 26.7531C13.7861 26.6318 13.8456 26.5205 13.9331 26.4331C14.0205 26.3456 14.1318 26.2861 14.2531 26.262C14.3743 26.2379 14.5 26.2503 14.6142 26.2976C14.7284 26.3449 14.826 26.425 14.8947 26.5278C14.9633 26.6306 15 26.7514 15 26.875C15 27.0408 14.9342 27.1997 14.8169 27.3169C14.6997 27.4342 14.5408 27.5 14.375 27.5ZM18.125 28.125H15.7625C15.9827 27.8905 16.1359 27.6013 16.2064 27.2875C16.2769 26.9737 16.2619 26.6467 16.1631 26.3406L18.125 27.8125V28.125ZM16.2587 20.2588C15.936 20.0826 15.573 19.9935 15.2054 20.0002C14.8378 20.0068 14.4782 20.109 14.1621 20.2967C13.8459 20.4844 13.5841 20.7512 13.4022 21.0708C13.2204 21.3903 13.1249 21.7517 13.125 22.1194C13.1282 22.929 13.3838 23.7175 13.8562 24.375H7.5V6.875H21.25V22.9813L16.2587 20.2588Z" fill="#4C6381"/>
<path d="M16.875 3.125H11.875V4.375H16.875V3.125Z" fill="#4C6381"/>
<path d="M19.8169 12.058L17.9419 10.183C17.8247 10.0658 17.6657 10 17.5 10C17.3343 10 17.1753 10.0658 17.0581 10.183L13.125 14.1161L11.6919 12.683C11.5747 12.5658 11.4157 12.5 11.25 12.5C11.0843 12.5 10.9253 12.5658 10.8081 12.683L8.93311 14.558C8.81594 14.6752 8.75012 14.8341 8.75012 14.9999C8.75012 15.1656 8.81594 15.3245 8.93311 15.4417L12.6831 19.1917C12.8003 19.3089 12.9593 19.3747 13.125 19.3747C13.2907 19.3747 13.4497 19.3089 13.5669 19.1917L19.8169 12.9417C19.934 12.8245 19.9999 12.6656 19.9999 12.4999C19.9999 12.3341 19.934 12.1752 19.8169 12.058ZM13.125 17.8661L10.2587 14.9999L11.25 14.0086L12.6831 15.4417C12.8003 15.5589 12.9593 15.6247 13.125 15.6247C13.2907 15.6247 13.4497 15.5589 13.5669 15.4417L17.5 11.5086L18.4912 12.4999L13.125 17.8661Z" fill="#4C6381"/>
</svg>
