<svg width="60" height="60" viewBox="0 0 60 60" fill="none" xmlns="http://www.w3.org/2000/svg">
<circle cx="30" cy="30" r="30" fill="#CDD3DC"/>
<path fill-rule="evenodd" clip-rule="evenodd" d="M32.767 11C33.6904 11 34.5489 11.2082 35.3137 11.6476C35.9679 12.0217 36.7098 12.5398 37.2589 13.3112L37.2475 13.3208L37.257 13.3342L39.4839 16.2335L40.2688 17.284C41.4454 18.8513 42.0816 20.761 42.0813 22.724C42.0809 24.6871 41.444 26.5966 40.2669 28.1635L35.9621 33.7452L42.5988 42.3259C42.8947 42.7089 43.0353 43.1901 42.9924 43.673C42.9496 44.1558 42.7264 44.6045 42.3677 44.9288L38.485 48.442C38.2905 48.618 38.0621 48.7519 37.8139 48.8355C37.5658 48.919 37.3032 48.9504 37.0424 48.9278C36.7817 48.9051 36.5283 48.8288 36.2981 48.7037C36.068 48.5785 35.8658 48.4072 35.7043 48.2003L30.1753 41.1171L24.5938 48.2655C24.2847 48.6614 23.8331 48.9195 23.3364 48.9841C22.8396 49.0487 22.3375 48.9147 21.9382 48.6109L17.7566 45.4286C17.5547 45.275 17.3853 45.0825 17.2582 44.8625C17.131 44.6424 17.0487 44.3992 17.016 44.1469C16.9833 43.8946 17.0009 43.6383 17.0677 43.3928C17.1345 43.1474 17.2492 42.9178 17.4052 42.7174L24.3895 33.7394L20.0885 28.2575L20.0828 28.2498C18.9059 26.683 18.2691 24.7737 18.2688 22.8109C18.2684 20.848 18.9046 18.9385 20.0809 17.3713L20.0828 17.3694L20.8572 16.3313L23.0889 13.4253L23.192 13.2901C24.2529 11.8155 26.0147 11 27.7575 11H32.767ZM34.3665 13.3131C34.8926 13.6153 35.3405 13.9463 35.6537 14.3569L35.6394 14.3675L35.7349 14.4922C36.2216 15.1598 36.4822 15.9668 36.4784 16.7943C36.4746 17.6219 36.2066 18.4264 35.7139 19.0896C34.822 18.5427 33.761 18.204 32.6801 18.204H27.6696C26.5972 18.204 25.5048 18.4919 24.5747 19.0905C24.1189 18.422 23.8743 17.6309 23.8729 16.8206C23.8729 16.0387 24.1173 15.2549 24.611 14.5843L24.7208 14.4404L24.7304 14.4269C25.4007 13.4848 26.5696 12.9188 27.7565 12.9188H32.7679C33.3982 12.9188 33.9224 13.0579 34.3665 13.3131ZM25.7493 20.6198L30.1419 26.3205L34.5345 20.6198C33.9635 20.308 33.3141 20.1228 32.682 20.1228H27.6706C26.983 20.1228 26.3146 20.2946 25.7493 20.6198ZM34.7465 32.19L31.3547 27.8824L37.1472 20.3646C37.7306 19.6286 38.1239 18.7592 38.2921 17.8337L38.7457 18.441C39.6706 19.6741 40.171 21.1759 40.1715 22.7199C40.1721 24.2638 39.6726 25.766 38.7486 26.9997L34.7465 32.19ZM25.608 35.2907L18.9111 43.8993L23.0917 47.0816L28.9607 39.5639L25.608 35.2907ZM23.2044 20.4519C22.6257 19.7103 22.235 18.8384 22.0662 17.9114L21.6088 18.5245L21.6059 18.5283C20.6813 19.7608 20.1808 21.2621 20.1799 22.8054C20.1791 24.3488 20.6779 25.8506 21.6011 27.0841L30.9268 38.971L37.2083 47.0164L41.091 43.5031L34.0055 34.341L29.4267 28.5271L23.2044 20.4519Z" fill="#344358"/>
</svg>
