<svg width="60" height="60" viewBox="0 0 60 60" fill="none" xmlns="http://www.w3.org/2000/svg">
<circle cx="30" cy="30" r="30" fill="#CDD3DC"/>
<path d="M22.6666 35.0638C22.6666 34.5113 22.8861 33.9814 23.2768 33.5907C23.6675 33.2 24.1974 32.9805 24.75 32.9805C25.3025 32.9805 25.8324 33.2 26.2231 33.5907C26.6138 33.9814 26.8333 34.5113 26.8333 35.0638C26.8333 35.6163 26.6138 36.1462 26.2231 36.5369C25.8324 36.9276 25.3025 37.1471 24.75 37.1471C24.1974 37.1471 23.6675 36.9276 23.2768 36.5369C22.8861 36.1462 22.6666 35.6163 22.6666 35.0638ZM37.25 32.9805C36.6974 32.9805 36.1675 33.2 35.7768 33.5907C35.3861 33.9814 35.1666 34.5113 35.1666 35.0638C35.1666 35.6163 35.3861 36.1462 35.7768 36.5369C36.1675 36.9276 36.6974 37.1471 37.25 37.1471C37.8025 37.1471 38.3324 36.9276 38.7231 36.5369C39.1138 36.1462 39.3333 35.6163 39.3333 35.0638C39.3333 34.5113 39.1138 33.9814 38.7231 33.5907C38.3324 33.2 37.8025 32.9805 37.25 32.9805Z" fill="#344358"/>
<path d="M23.75 15C22.3273 14.9996 20.947 15.4847 19.8372 16.375C18.7275 17.2654 17.9547 18.5077 17.6467 19.8967H17.5C16.837 19.8967 16.2011 20.1601 15.7322 20.6289C15.2634 21.0977 15 21.7336 15 22.3967V23.6467C15 24.3367 15.56 24.8967 16.25 24.8967H17.5V38.3333C17.5 39.5417 18.0717 40.6167 18.9583 41.3017V43.75C18.9583 44.413 19.2217 45.0489 19.6906 45.5178C20.1594 45.9866 20.7953 46.25 21.4583 46.25C22.1214 46.25 22.7573 45.9866 23.2261 45.5178C23.6949 45.0489 23.9583 44.413 23.9583 43.75V42.0833H38.125V43.75C38.125 44.413 38.3884 45.0489 38.8572 45.5178C39.3261 45.9866 39.962 46.25 40.625 46.25C41.288 46.25 41.9239 45.9866 42.3928 45.5178C42.8616 45.0489 43.125 44.413 43.125 43.75V41.3017C43.5788 40.9513 43.9463 40.5015 44.1991 39.9869C44.4519 39.4724 44.5833 38.9067 44.5833 38.3333V24.8967H45.8333C46.1649 24.8967 46.4828 24.765 46.7172 24.5306C46.9516 24.2961 47.0833 23.9782 47.0833 23.6467V22.3967C47.0833 21.7336 46.8199 21.0977 46.3511 20.6289C45.8823 20.1601 45.2464 19.8967 44.5833 19.8967H44.4367C44.1286 18.5077 43.3558 17.2654 42.2461 16.375C41.1364 15.4847 39.7561 14.9996 38.3333 15H23.75ZM42.0833 21.25V27.2917H20V21.25C20 20.2554 20.3951 19.3016 21.0984 18.5984C21.8016 17.8951 22.7554 17.5 23.75 17.5H38.3333C39.3279 17.5 40.2817 17.8951 40.985 18.5984C41.6882 19.3016 42.0833 20.2554 42.0833 21.25ZM40.8333 39.5833H21.25C20.9185 39.5833 20.6005 39.4516 20.3661 39.2172C20.1317 38.9828 20 38.6649 20 38.3333V29.7917H42.0833V38.3333C42.0833 38.6649 41.9516 38.9828 41.7172 39.2172C41.4828 39.4516 41.1649 39.5833 40.8333 39.5833Z" fill="#344358"/>
</svg>
