<svg width="40" height="40" viewBox="0 0 40 40" fill="none" xmlns="http://www.w3.org/2000/svg">
<path d="M36.25 10.625H34.375V10C34.375 8.96625 33.5338 8.125 32.5 8.125C31.4662 8.125 30.625 8.96625 30.625 10V10.625H30C30 5.11125 25.5137 0.625 20 0.625C14.4863 0.625 10 5.11125 10 10.625H9.375V10C9.375 8.96625 8.53375 8.125 7.5 8.125C6.46625 8.125 5.625 8.96625 5.625 10V10.625H3.75C2.02688 10.625 0.625 12.0269 0.625 13.75V36.25C0.625 37.9731 2.02688 39.375 3.75 39.375H36.25C37.9731 39.375 39.375 37.9731 39.375 36.25V13.75C39.375 12.0269 37.9731 10.625 36.25 10.625ZM31.875 10C31.875 9.655 32.1556 9.375 32.5 9.375C32.8444 9.375 33.125 9.655 33.125 10V12.5C33.125 12.845 32.8444 13.125 32.5 13.125C32.1556 13.125 31.875 12.845 31.875 12.5V10ZM20 1.875C24.825 1.875 28.75 5.8 28.75 10.625C28.75 15.45 24.825 19.375 20 19.375C15.175 19.375 11.25 15.45 11.25 10.625C11.25 5.8 15.175 1.875 20 1.875ZM25.625 18.8863C25.6875 18.8431 25.7456 18.7938 25.8075 18.75H28.125V21.25H25.625V18.8863ZM18.75 20.5381C19.1606 20.59 19.5756 20.625 20 20.625C20.4244 20.625 20.8394 20.59 21.25 20.5381V21.25H18.75V20.5381ZM6.875 10C6.875 9.655 7.15563 9.375 7.5 9.375C7.84437 9.375 8.125 9.655 8.125 10V12.5C8.125 12.845 7.84437 13.125 7.5 13.125C7.15563 13.125 6.875 12.845 6.875 12.5V10ZM38.125 36.25C38.125 37.2838 37.2838 38.125 36.25 38.125H3.75C2.71625 38.125 1.875 37.2838 1.875 36.25V13.75C1.875 12.7162 2.71625 11.875 3.75 11.875H5.625V12.5C5.625 13.5338 6.46625 14.375 7.5 14.375C8.53375 14.375 9.375 13.5338 9.375 12.5V11.875H10.0869C10.6 15.9631 13.5869 19.2831 17.5 20.2956V21.875C17.5 22.2206 17.78 22.5 18.125 22.5H21.875C22.22 22.5 22.5 22.2206 22.5 21.875V20.2956C23.1538 20.1262 23.78 19.8944 24.375 19.6031V21.875C24.375 22.2206 24.655 22.5 25 22.5H28.75C29.095 22.5 29.375 22.2206 29.375 21.875V18.125C29.375 17.7794 29.095 17.5 28.75 17.5H27.2431C28.6756 15.9919 29.6413 14.0419 29.9131 11.875H30.625V12.5C30.625 13.5338 31.4662 14.375 32.5 14.375C33.5338 14.375 34.375 13.5338 34.375 12.5V11.875H36.25C37.2838 11.875 38.125 12.7162 38.125 13.75V36.25Z" fill="#226078"/>
<path d="M35.625 17.5H31.875C31.53 17.5 31.25 17.7794 31.25 18.125V21.875C31.25 22.2206 31.53 22.5 31.875 22.5H35.625C35.97 22.5 36.25 22.2206 36.25 21.875V18.125C36.25 17.7794 35.97 17.5 35.625 17.5ZM35 21.25H32.5V18.75H35V21.25ZM21.875 24.375H18.125C17.78 24.375 17.5 24.6544 17.5 25V28.75C17.5 29.0956 17.78 29.375 18.125 29.375H21.875C22.22 29.375 22.5 29.0956 22.5 28.75V25C22.5 24.6544 22.22 24.375 21.875 24.375ZM21.25 28.125H18.75V25.625H21.25V28.125ZM28.75 24.375H25C24.655 24.375 24.375 24.6544 24.375 25V28.75C24.375 29.0956 24.655 29.375 25 29.375H28.75C29.095 29.375 29.375 29.0956 29.375 28.75V25C29.375 24.6544 29.095 24.375 28.75 24.375ZM28.125 28.125H25.625V25.625H28.125V28.125ZM35.625 24.375H31.875C31.53 24.375 31.25 24.6544 31.25 25V28.75C31.25 29.0956 31.53 29.375 31.875 29.375H35.625C35.97 29.375 36.25 29.0956 36.25 28.75V25C36.25 24.6544 35.97 24.375 35.625 24.375ZM35 28.125H32.5V25.625H35V28.125ZM8.125 24.375H4.375C4.03 24.375 3.75 24.6544 3.75 25V28.75C3.75 29.0956 4.03 29.375 4.375 29.375H8.125C8.47 29.375 8.75 29.0956 8.75 28.75V25C8.75 24.6544 8.47 24.375 8.125 24.375ZM7.5 28.125H5V25.625H7.5V28.125ZM15 24.375H11.25C10.905 24.375 10.625 24.6544 10.625 25V28.75C10.625 29.0956 10.905 29.375 11.25 29.375H15C15.345 29.375 15.625 29.0956 15.625 28.75V25C15.625 24.6544 15.345 24.375 15 24.375ZM14.375 28.125H11.875V25.625H14.375V28.125ZM21.875 31.25H18.125C17.78 31.25 17.5 31.5294 17.5 31.875V35.625C17.5 35.9706 17.78 36.25 18.125 36.25H21.875C22.22 36.25 22.5 35.9706 22.5 35.625V31.875C22.5 31.5294 22.22 31.25 21.875 31.25ZM21.25 35H18.75V32.5H21.25V35ZM28.75 31.25H25C24.655 31.25 24.375 31.5294 24.375 31.875V35.625C24.375 35.9706 24.655 36.25 25 36.25H28.75C29.095 36.25 29.375 35.9706 29.375 35.625V31.875C29.375 31.5294 29.095 31.25 28.75 31.25ZM28.125 35H25.625V32.5H28.125V35ZM35.625 31.25H31.875C31.53 31.25 31.25 31.5294 31.25 31.875V35.625C31.25 35.9706 31.53 36.25 31.875 36.25H35.625C35.97 36.25 36.25 35.9706 36.25 35.625V31.875C36.25 31.5294 35.97 31.25 35.625 31.25ZM35 35H32.5V32.5H35V35ZM8.125 31.25H4.375C4.03 31.25 3.75 31.5294 3.75 31.875V35.625C3.75 35.9706 4.03 36.25 4.375 36.25H8.125C8.47 36.25 8.75 35.9706 8.75 35.625V31.875C8.75 31.5294 8.47 31.25 8.125 31.25ZM7.5 35H5V32.5H7.5V35ZM15 31.25H11.25C10.905 31.25 10.625 31.5294 10.625 31.875V35.625C10.625 35.9706 10.905 36.25 11.25 36.25H15C15.345 36.25 15.625 35.9706 15.625 35.625V31.875C15.625 31.5294 15.345 31.25 15 31.25ZM14.375 35H11.875V32.5H14.375V35ZM20 18.125C24.1356 18.125 27.5 14.7606 27.5 10.625C27.5 6.48937 24.1356 3.125 20 3.125C15.8644 3.125 12.5 6.48937 12.5 10.625C12.5 14.7606 15.8644 18.125 20 18.125ZM20 4.375C23.4462 4.375 26.25 7.17875 26.25 10.625C26.25 14.0712 23.4462 16.875 20 16.875C16.5538 16.875 13.75 14.0712 13.75 10.625C13.75 7.17875 16.5538 4.375 20 4.375Z" fill="#226078"/>
<path d="M20 11.875C20.2187 11.875 20.4219 11.8138 20.6006 11.7144L22.8031 13.0362L23.4462 11.9644L21.2475 10.645C21.2481 10.6381 21.25 10.6319 21.25 10.625C21.25 10.1644 20.9969 9.76562 20.625 9.54875V5.625H19.375V9.54875C19.0031 9.76562 18.75 10.1644 18.75 10.625C18.75 11.3144 19.3106 11.875 20 11.875Z" fill="#226078"/>
</svg>
