<svg width="60" height="60" viewBox="0 0 60 60" fill="none" xmlns="http://www.w3.org/2000/svg">
<circle cx="30" cy="30" r="30" fill="#CDD3DC"/>
<path d="M43.75 37.4515C43.75 36.4238 43.7487 35.7476 43.6947 35.2249C43.6564 34.8548 43.5968 34.622 43.5205 34.4502L43.4375 34.2956C43.3234 34.1105 43.142 33.9193 42.723 33.6527C42.2797 33.3706 41.6746 33.0658 40.7552 32.6061L39.5834 32.0186V45.4154H41.6667C42.4877 45.4154 42.9774 45.4121 43.3285 45.3649C43.4893 45.3433 43.5706 45.318 43.6068 45.3031C43.6149 45.2997 43.6199 45.2966 43.6231 45.2949L43.628 45.2933L43.6296 45.2884C43.6312 45.2853 43.6344 45.2802 43.6377 45.2721C43.6526 45.2359 43.6779 45.1546 43.6996 44.9938C43.7468 44.6428 43.75 44.1531 43.75 43.332V37.4515ZM24.9496 25.64C23.9771 26.4176 23.5306 26.9262 23.2829 27.4417C23.0352 27.9575 22.9167 28.6241 22.9167 29.8701V45.4154H37.0834V29.8701C37.0833 28.6232 36.9647 27.9569 36.7171 27.4417C36.4695 26.9266 36.0233 26.4187 35.0505 25.64L30 21.5986L24.9496 25.64ZM16.25 43.332C16.25 44.1531 16.2533 44.6428 16.3005 44.9938C16.3221 45.1546 16.3474 45.2359 16.3623 45.2721C16.3657 45.2802 16.3688 45.2853 16.3705 45.2884L16.3721 45.2933L16.377 45.2949C16.3801 45.2966 16.3852 45.2997 16.3932 45.3031C16.4295 45.318 16.5108 45.3433 16.6716 45.3649C17.0226 45.4121 17.5123 45.4154 18.3334 45.4154H20.4167V32.0186L19.2448 32.6061C18.3254 33.0658 17.7204 33.3706 17.277 33.6527C16.858 33.9193 16.6767 34.1105 16.5625 34.2956L16.5609 34.2939C16.445 34.482 16.3564 34.7328 16.3054 35.2266C16.2513 35.7494 16.25 36.4256 16.25 37.4531V43.332ZM46.25 43.332C46.25 44.0825 46.2533 44.771 46.1784 45.3275C46.0987 45.9201 45.9105 46.5459 45.3955 47.0609C44.8806 47.5758 44.2548 47.764 43.6621 47.8438C43.1057 47.9186 42.4171 47.9154 41.6667 47.9154H18.3334C17.5829 47.9154 16.8944 47.9186 16.3379 47.8438C15.7453 47.764 15.1195 47.5758 14.6045 47.0609C14.0896 46.5459 13.9014 45.9201 13.8216 45.3275C13.7468 44.771 13.75 44.0825 13.75 43.332V37.4531C13.75 36.4768 13.748 35.6503 13.8184 34.9694C13.8919 34.2592 14.0529 33.6023 14.4352 32.9821C14.8177 32.3624 15.3326 31.9262 15.9343 31.5433C16.5117 31.1758 17.253 30.8066 18.1266 30.3698L20.4281 29.2191C20.4663 28.1482 20.6164 27.2211 21.0303 26.3594C21.526 25.3277 22.3298 24.5323 23.3871 23.6868L28.75 19.3965V17.9154H26.6667C25.9763 17.9154 25.4167 17.3557 25.4167 16.6654C25.4167 15.975 25.9763 15.4154 26.6667 15.4154H28.75V13.332C28.75 12.6417 29.3097 12.082 30 12.082C30.6904 12.082 31.25 12.6417 31.25 13.332V15.4154H33.3334C34.0237 15.4154 34.5834 15.975 34.5834 16.6654C34.5834 17.3557 34.0237 17.9154 33.3334 17.9154H31.25V19.3965L36.613 23.6868V23.6885C37.6695 24.5342 38.4741 25.3282 38.9697 26.3594C39.3838 27.2209 39.5322 28.1477 39.5703 29.2191L41.8734 30.3698V30.3714C42.7471 30.8083 43.4883 31.1758 44.0658 31.5433C44.6674 31.9262 45.1823 32.3624 45.5648 32.9821L45.6983 33.2165C45.9862 33.7669 46.1174 34.3467 46.1817 34.9678C46.2521 35.6485 46.25 36.4752 46.25 37.4515V43.332Z" fill="#344358"/>
<path d="M32.0834 46.6641V39.9974C32.0834 39.4449 31.8637 38.9151 31.473 38.5244C31.0823 38.1337 30.5526 37.9141 30 37.9141C29.4475 37.9141 28.9177 38.1337 28.527 38.5244C28.1363 38.9151 27.9167 39.4449 27.9167 39.9974V46.6641C27.9167 47.3544 27.357 47.9141 26.6667 47.9141C25.9763 47.9141 25.4167 47.3544 25.4167 46.6641V39.9974C25.4167 38.7818 25.8999 37.6164 26.7595 36.7568C27.619 35.8973 28.7844 35.4141 30 35.4141C31.2156 35.4141 32.381 35.8973 33.2406 36.7568C34.1001 37.6164 34.5834 38.7818 34.5834 39.9974V46.6641C34.5834 47.3544 34.0237 47.9141 33.3334 47.9141C32.643 47.9141 32.0834 47.3544 32.0834 46.6641Z" fill="#344358"/>
<path d="M30.013 26.6641C30.9335 26.6641 31.6796 27.4103 31.6796 28.3307C31.6796 29.2512 30.9335 29.9974 30.013 29.9974H29.9983C29.0779 29.9974 28.3317 29.2512 28.3317 28.3307C28.3317 27.4103 29.0779 26.6641 29.9983 26.6641H30.013Z" fill="#344358"/>
</svg>
