<svg width="60" height="60" viewBox="0 0 60 60" fill="none" xmlns="http://www.w3.org/2000/svg">
<circle cx="30" cy="30" r="30" fill="#CDD3DC"/>
<path d="M41.2507 18.6772C41.2505 18.3365 41.1137 18.01 40.8727 17.769C40.6317 17.5281 40.3054 17.3926 39.9645 17.3926H16.3322C15.9914 17.3927 15.665 17.5281 15.424 17.769C15.183 18.01 15.0477 18.3365 15.0475 18.6772V19.5371H41.2507V18.6772ZM33.9367 26.6035H41.2507V22.1079H33.9367V26.6035ZM24.7639 26.6035H31.3659V22.1079H24.7639V26.6035ZM15.0475 26.6035H22.1931V22.1079H15.0475V26.6035ZM43.8215 26.6035H43.9548C44.9777 26.6035 45.959 27.0096 46.6823 27.7329C47.4057 28.4563 47.8117 29.4375 47.8117 30.4604V36.979C47.8116 38.0019 47.4056 38.9833 46.6823 39.7065C45.959 40.4297 44.9776 40.8359 43.9548 40.8359H41.8923C41.1825 40.8356 40.6076 40.2597 40.6076 39.5498C40.6078 38.8401 41.1826 38.2654 41.8923 38.2651H43.9548C44.2958 38.2651 44.6233 38.1283 44.8644 37.8872C45.1052 37.6462 45.2408 37.3197 45.2409 36.979V30.4604C45.2409 30.1195 45.1056 29.7919 44.8644 29.5508C44.6233 29.3097 44.2957 29.1743 43.9548 29.1743H15.0475V37.3467C15.0477 37.8526 15.4587 38.2648 15.9645 38.2651H17.1423C17.8522 38.2651 18.4282 38.8399 18.4284 39.5498C18.4284 40.2599 17.8524 40.8359 17.1423 40.8359H15.9645C14.0385 40.8356 12.4754 39.2727 12.4753 37.3467V18.6772C12.4754 17.6545 12.8829 16.6744 13.6061 15.9512C14.3293 15.228 15.3095 14.8205 16.3322 14.8203H39.9645C40.9874 14.8204 41.9688 15.2279 42.6921 15.9512C43.4149 16.6743 43.8213 17.6548 43.8215 18.6772V26.6035Z" fill="#344358"/>
<path d="M40.6104 39.5132C40.6104 38.9021 40.3671 38.3149 39.9351 37.8828C39.5031 37.451 38.917 37.2091 38.3062 37.209C37.6954 37.209 37.1093 37.4511 36.6772 37.8828C36.2452 38.3149 36.002 38.9021 36.002 39.5132C36.0021 40.124 36.2453 40.7102 36.6772 41.1421C37.1093 41.5738 37.6953 41.8159 38.3062 41.8159C38.917 41.8158 39.5031 41.574 39.9351 41.1421C40.367 40.7102 40.6102 40.124 40.6104 39.5132ZM18.4136 39.5132C18.4137 40.124 18.6555 40.7102 19.0874 41.1421C19.5195 41.5742 20.1067 41.8159 20.7178 41.8159C21.3286 41.8158 21.9147 41.574 22.3467 41.1421C22.7786 40.7102 23.0203 40.124 23.0205 39.5132C23.0205 38.9021 22.7788 38.3149 22.3467 37.8828C21.9148 37.4509 21.3286 37.2091 20.7178 37.209C20.1067 37.209 19.5195 37.4507 19.0874 37.8828C18.6553 38.3149 18.4136 38.9021 18.4136 39.5132ZM43.1812 39.5132C43.181 40.806 42.6671 42.0458 41.7529 42.96C40.8387 43.8741 39.599 44.3881 38.3062 44.3882C37.0131 44.3882 35.7722 43.8743 34.8579 42.96C34.2535 42.3555 33.8256 41.6082 33.604 40.7979H25.4185C25.1969 41.6083 24.769 42.3555 24.1646 42.96C23.2504 43.8741 22.0106 44.388 20.7178 44.3882C19.4247 44.3882 18.1839 43.8743 17.2695 42.96C16.3554 42.0458 15.8415 40.806 15.8413 39.5132C15.8413 38.2201 16.3552 36.9793 17.2695 36.0649C18.1839 35.1506 19.4247 34.6367 20.7178 34.6367C22.0105 34.6369 23.2504 35.1508 24.1646 36.0649C24.769 36.6694 25.1969 37.4167 25.4185 38.2271H33.604C33.8256 37.4167 34.2535 36.6694 34.8579 36.0649C35.7722 35.1506 37.0131 34.6367 38.3062 34.6367C39.5989 34.6368 40.8387 35.1509 41.7529 36.0649C42.6673 36.9793 43.1812 38.2201 43.1812 39.5132Z" fill="#344358"/>
</svg>
