<svg width="60" height="60" viewBox="0 0 60 60" fill="none" xmlns="http://www.w3.org/2000/svg">
<circle cx="30" cy="30" r="30" fill="#CDD3DC"/>
<path d="M28.9999 30.9801C32.5744 30.9801 35.8816 31.8848 38.4659 33.4216C41.0412 34.953 42.9767 37.1655 43.6133 39.8059C43.767 40.4435 43.3742 41.0856 42.7366 41.2393C42.099 41.393 41.4569 41.0001 41.3032 40.3626C40.8567 38.5108 39.4441 36.7661 37.2521 35.4626C35.0686 34.1642 32.1879 33.3551 28.9999 33.3551C25.812 33.3551 22.9312 34.1642 20.7477 35.4626C18.5558 36.7661 17.1432 38.5108 16.6966 40.3626C16.5429 41.0001 15.9009 41.393 15.2633 41.2393C14.6257 41.0856 14.2329 40.4435 14.3866 39.8059C15.0232 37.1655 16.9587 34.953 19.534 33.4216C22.1183 31.8848 25.4255 30.9801 28.9999 30.9801ZM43.6458 25.8343C43.6456 23.3674 42.1315 21.3148 40.0755 20.4039C40.8946 22.7629 40.4824 25.5002 38.6901 27.433C38.2441 27.9139 37.4918 27.9424 37.0109 27.4964C36.5306 27.0504 36.5033 26.2994 36.9491 25.8188C38.5342 24.1095 38.4797 21.2873 36.8378 19.5164C36.7945 19.4697 36.7539 19.4194 36.7187 19.3664C35.6891 17.8181 34.314 16.9713 32.9753 16.7749C31.6538 16.5812 30.2478 17.0014 29.0572 18.2191C28.5986 18.6876 27.8468 18.696 27.378 18.2377C26.909 17.7792 26.901 17.0274 27.3594 16.5585C29.0535 14.8258 31.2077 14.1164 33.3201 14.4262C34.7539 14.6365 36.1117 15.3063 37.2583 16.359C37.4055 15.0049 36.8853 13.729 35.8404 13.1258C35.2724 12.798 35.0781 12.0719 35.4059 11.5038C35.7339 10.9362 36.4601 10.7416 37.0279 11.0694C39.4551 12.4706 40.0602 15.2903 39.3998 17.7011C43.0665 18.4808 46.0206 21.7346 46.0208 25.8343C46.0208 26.4901 45.4891 27.0218 44.8333 27.0218C44.1774 27.0218 43.6458 26.4901 43.6458 25.8343Z" fill="#344358"/>
<path d="M40.0833 42.7408C40.6766 42.7408 41.2585 42.8939 41.7734 43.183L41.9898 43.316L42.0022 43.3237L42.4119 43.5804C43.3869 44.1418 44.4944 44.4397 45.625 44.4401C46.2807 44.4403 46.8125 44.9719 46.8125 45.6276C46.8123 46.2833 46.2807 46.8151 45.625 46.8151C43.8613 46.8146 42.1383 46.2848 40.6786 45.2952L40.541 45.2179C40.3984 45.1509 40.2421 45.1158 40.0833 45.1158C39.8718 45.1158 39.6644 45.1783 39.488 45.2952C37.9918 46.3082 36.2669 46.8151 34.5417 46.8151C32.7779 46.8146 31.0549 46.2848 29.5953 45.2952L29.4577 45.2179C29.3151 45.1509 29.1588 45.1158 29 45.1158C28.7884 45.1158 28.5811 45.1783 28.4047 45.2952C26.9084 46.3082 25.1836 46.8151 23.4583 46.8151C21.6946 46.8146 19.9716 46.2848 18.512 45.2952L18.3743 45.2179C18.2318 45.1509 18.0755 45.1158 17.9167 45.1158C17.7051 45.1158 17.4977 45.1783 17.3214 45.2952C15.8251 46.3082 14.1002 46.8151 12.375 46.8151C11.7192 46.8151 11.1875 46.2834 11.1875 45.6276C11.1875 44.9718 11.7192 44.4401 12.375 44.4401C13.6379 44.4401 14.9016 44.0694 15.9993 43.3237L16.0102 43.316C16.5755 42.9413 17.2384 42.7408 17.9167 42.7408C18.51 42.7408 19.0918 42.8939 19.6067 43.183L19.8232 43.316L19.8355 43.3237L20.2453 43.5804C21.2202 44.1418 22.3277 44.4397 23.4583 44.4401C24.7212 44.4401 25.9849 44.0694 27.0827 43.3237L27.0935 43.316C27.6588 42.9413 28.3218 42.7408 29 42.7408C29.5933 42.7408 30.1752 42.8939 30.69 43.183L30.9065 43.316L30.9189 43.3237L31.3286 43.5804C32.3035 44.1418 33.4111 44.4397 34.5417 44.4401C35.8045 44.4401 37.0683 44.0694 38.166 43.3237L38.1768 43.316C38.7422 42.9413 39.4051 42.7408 40.0833 42.7408ZM30.1349 32.1693C30.1349 28.2973 30.9693 24.7333 32.377 22.0941C32.5265 21.8136 32.6852 21.5406 32.8516 21.2761C28.9177 23.3201 26.2292 27.4295 26.2292 32.1693C26.2292 32.8251 25.6975 33.3568 25.0417 33.3568C24.3858 33.3568 23.8542 32.8251 23.8542 32.1693C23.8542 24.0805 30.4112 17.5234 38.5 17.5234C39.1558 17.5234 39.6875 18.0551 39.6875 18.7109C39.6875 19.3668 39.1558 19.8984 38.5 19.8984C37.1701 19.8984 35.6897 20.9292 34.4721 23.212C33.2818 25.4437 32.5099 28.6085 32.5099 32.1693C32.5099 32.825 31.9781 33.3565 31.3224 33.3568C30.6666 33.3568 30.1349 32.8251 30.1349 32.1693Z" fill="#344358"/>
</svg>
