<svg width="40" height="40" viewBox="0 0 40 40" fill="none" xmlns="http://www.w3.org/2000/svg">
<path d="M14.375 31.25V8.75C14.375 8.40482 14.6548 8.125 15 8.125C15.3452 8.125 15.625 8.40482 15.625 8.75V31.25C15.625 31.5952 15.3452 31.875 15 31.875C14.6548 31.875 14.375 31.5952 14.375 31.25Z" fill="#4C6381"/>
<path d="M35.625 10C35.625 9.83424 35.5592 9.67524 35.442 9.55803C35.3248 9.44082 35.1658 9.375 35 9.375H5C4.83424 9.375 4.67524 9.44082 4.55803 9.55803C4.44082 9.67524 4.375 9.83424 4.375 10V13.8766C4.37497 14.0204 4.42464 14.1598 4.51561 14.2711C4.60659 14.3824 4.7333 14.4589 4.87419 14.4875L4.87495 14.4876C6.14536 14.7472 7.28716 15.4376 8.10715 16.442C8.92714 17.4465 9.375 18.7033 9.375 20C9.375 21.2967 8.92714 22.5535 8.10715 23.558C7.28716 24.5624 6.14536 25.2528 4.87495 25.5124L4.87419 25.5125C4.7333 25.5411 4.60659 25.6176 4.51561 25.7289C4.42465 25.8402 4.37497 25.9796 4.375 26.1234V30C4.375 30.1658 4.44082 30.3248 4.55803 30.442C4.67524 30.5592 4.83424 30.625 5 30.625H35C35.1658 30.625 35.3248 30.5592 35.442 30.442C35.5592 30.3248 35.625 30.1658 35.625 30V26.1234C35.625 25.9796 35.5754 25.8402 35.4844 25.7289C35.3934 25.6176 35.2667 25.5411 35.1258 25.5125L35.125 25.5124C33.8546 25.2528 32.7128 24.5624 31.8929 23.558C31.0729 22.5535 30.625 21.2967 30.625 20C30.625 18.7033 31.0729 17.4465 31.8929 16.442C32.7128 15.4376 33.8546 14.7472 35.125 14.4877L35.1258 14.4875C35.2667 14.4589 35.3934 14.3824 35.4844 14.2711C35.5754 14.1598 35.625 14.0204 35.625 13.8766V10ZM36.875 13.8764L36.8745 13.9169C36.8656 14.3347 36.7172 14.7379 36.4523 15.0621C36.1789 15.3966 35.7984 15.6262 35.3751 15.7123L35.3752 15.7124C34.3871 15.9142 33.499 16.4512 32.8612 17.2325C32.2234 18.0138 31.875 18.9914 31.875 20C31.875 21.0086 32.2234 21.9862 32.8612 22.7675C33.499 23.5488 34.3871 24.0858 35.3752 24.2876H35.3751C35.7984 24.3737 36.1789 24.6034 36.4523 24.9379C36.7257 25.2725 36.8751 25.6914 36.875 26.1235V30C36.875 30.4973 36.6775 30.9742 36.3258 31.3258C35.9742 31.6775 35.4973 31.875 35 31.875H5C4.50272 31.875 4.0258 31.6775 3.67416 31.3258C3.32253 30.9742 3.125 30.4973 3.125 30V26.1235C3.12494 25.6914 3.27429 25.2725 3.54774 24.9379C3.82106 24.6035 4.20155 24.3737 4.62479 24.2876L4.7171 24.2677C5.66818 24.052 6.52095 23.5244 7.13882 22.7675C7.77663 21.9862 8.125 21.0086 8.125 20C8.125 18.9914 7.77663 18.0138 7.13882 17.2325C6.50102 16.4512 5.61293 15.9142 4.62479 15.7124V15.7123C4.20156 15.6262 3.82106 15.3965 3.54774 15.0621C3.27427 14.7275 3.12492 14.3086 3.125 13.8764V10C3.125 9.50272 3.32253 9.02579 3.67416 8.67416C4.02579 8.32253 4.50272 8.125 5 8.125H35C35.4973 8.125 35.9742 8.32253 36.3258 8.67416C36.6775 9.0258 36.875 9.50272 36.875 10V13.8764Z" fill="#4C6381"/>
</svg>
