<svg width="1078" height="427" viewBox="0 0 1078 427" fill="none" xmlns="http://www.w3.org/2000/svg">
<path d="M12.147 0.913114C31.8702 0.695661 51.5674 0.547621 71.8554 0.561727C76.4783 0.564807 76.0427 0.707128 77.9433 0.724596C81.4362 0.757532 87.2981 0.586694 88.1199 0.583776C93.22 0.566361 91.227 0.826046 91.9135 0.833862C99.566 0.918428 97.3634 0.633089 104.68 0.583281C114.207 0.518402 126.433 0.536716 137.913 0.520953C141.944 0.515973 140.15 0.730404 148.851 0.691848C155.014 0.667117 173.922 0.365559 182.629 0.615463C182.68 0.718242 181.581 0.834119 181.118 0.940837C193.599 0.487842 198.066 0.486721 215.76 0.556577C218.559 0.567812 221.21 0.375755 226.141 0.432594C231.07 0.489895 231.278 0.779798 241.19 0.758013C244.706 0.749643 246.839 0.53682 252.23 0.515853C267.563 0.453543 296.765 0.666505 309.349 0.657007C334.132 0.636388 347.616 0.210472 369.625 0.307015C371.32 0.314267 367.597 0.583699 370.704 0.583663C373.838 0.584129 377.1 0.227753 377.871 0.217627C386.191 0.108178 403.773 0.55469 408.401 0.490877C419.65 0.328291 408.565 0.187943 424.154 0.0889585C438.999 -0.00870132 459.494 0.44201 474.209 0.521779C491.26 0.615222 496.759 -0.135562 509.6 0.622226C554.697 0.520558 599.974 0.436611 645.122 0.34147C644.994 0.511835 644.844 0.682247 644.691 0.852548C648.26 0.731813 651.831 0.610148 655.401 0.489219C654.862 0.617271 654.35 0.745308 653.811 0.871832C670.578 0.366871 685.523 0.0862522 705.115 0.203257C705.497 0.205504 704.491 0.557833 704.808 0.566561C709.225 0.629118 714.162 0.353257 718.04 0.413266C727.414 0.555979 743.337 1.32475 736.326 0.377004C758.18 0.554969 783.861 0.204553 804.689 0.375738C813.702 0.449908 816.402 1.03493 820.715 1.06685C825.025 1.09833 822.831 0.593808 824.361 0.573332C833.555 0.454261 848.686 0.462516 850.28 1.03483C852.128 0.805248 854.084 0.572277 855.958 0.340183C854.86 0.976552 883.271 0.697501 890.725 0.708103C892.086 0.71017 892.276 0.993015 893.303 0.989657C904.753 0.94825 907.552 0.501128 917.359 0.345472C920.801 0.290634 915.464 0.797618 924.299 0.574852C925.069 0.55524 924.66 0.102322 935.214 0.0970798C952.062 0.0896232 984.292 -0.118123 1004.35 0.0981174C1005.99 0.115207 1000.99 0.625249 1008.51 0.503087C1011.23 0.459593 1009.92 0.0994518 1016.52 0.0922351C1032.59 0.0724854 1049.31 0.224172 1066 0.251635C1073.47 0.087492 1080.15 6.80479 1080.02 14.228C1080.04 17.786 1080.07 21.3294 1080.12 24.8514C1079.71 23.9003 1079.24 14.606 1079.5 28.5768C1079.55 30.8095 1079.92 29.1427 1079.93 30.1441C1080.04 38.2582 1079.78 45.2934 1079.93 54.0752C1079.97 56.6692 1080.27 57.3132 1080.34 60.5492C1080.45 65.3257 1080.03 67.4389 1080.21 72.9861C1080.49 81.6618 1080.89 83.0019 1080.11 93.7597C1080.19 154.729 1080.43 215.415 1080.09 276.179C1080.32 293.745 1080.59 309.955 1080.68 328.266C1080.7 333.659 1080.15 334.69 1080.34 343.292C1080.38 345.219 1080.97 358.962 1079.85 360.965C1079.95 364.79 1079.95 367.208 1080.01 370.495C1080.18 368.003 1080.34 365.432 1080.51 363.044C1080.33 376.912 1080.73 388.237 1080.91 400.514C1081.05 409.551 1080.57 403.134 1080.62 408.68C1080.63 409.601 1080.64 410.439 1080.64 411.228C1080.49 415.876 1079.23 420.047 1073.22 423.459C1071.05 425.038 1068.67 425.769 1066 425.783C1066 425.783 1066 425.783 1066 425.783C1062.86 425.782 1059.18 425.618 1053.29 425.607C1052.21 425.606 1045.98 425.863 1040.76 425.811C1037.01 425.774 1035.9 425.36 1029.95 425.424C1028.97 425.434 1016.39 425.946 1012.38 425.992C1006.14 426.066 996.221 425.534 995.014 425.528C977.475 425.433 970.715 425.955 958.259 425.093C955.743 425.604 945.349 425.901 936.952 425.85C926.345 425.785 905.077 424.74 902.174 425.839C889.9 425.346 891.232 425.649 876.676 425.655C863.425 425.661 828.343 425.233 817.603 425.29C806.868 425.345 812.099 425.952 807.836 426.031C800.857 426.162 804.627 425.718 799.851 425.722C786.343 425.736 774.603 425.817 761.711 426.004C761.018 425.692 760.272 425.38 759.553 425.068C758.886 425.172 758.221 425.275 757.554 425.379C754.781 425.374 751.672 425.38 749.104 425.369C770.775 426.742 728.172 425.258 715.382 425.221C704.596 425.189 686.64 425.82 674.801 425.949C671.927 425.981 673.902 425.652 673.313 425.659C666.378 425.75 665.326 425.974 656.003 425.937C651.073 425.917 646.04 425.503 641.238 425.492C605.977 425.418 571.946 425.803 536.916 425.815C530.958 425.817 525.818 425.328 520.81 425.315C513.647 425.295 509.126 425.686 502.399 425.686C495.697 425.686 486.036 425.21 481.489 425.279C476.944 425.345 484.722 425.803 476.401 425.672C472.579 425.612 479.33 425.282 474.607 425.268C459.865 425.226 439.063 425.618 423.371 425.209C424.064 425.308 425.011 425.397 425.858 425.492C409.139 425.438 394.369 425.19 377.11 425.142C371.075 425.125 360.191 425.397 354.258 425.389C348.327 425.381 345.628 425.076 340.879 425.063C338.927 425.057 339.69 425.329 338.38 425.322C321.998 425.233 313.009 424.749 295.856 424.79C233.01 424.935 168.207 425.027 104.385 425.097C101.819 425.099 100.091 425.402 96.3435 425.441C90.5703 425.501 90.2875 425.233 89.5174 425.222C84.4852 425.156 86.5377 425.406 79.7837 425.395C64.9134 425.369 40.925 425.117 26.1063 425.112C21.306 425.111 16.6133 425.113 12 425.117C4.43131 425.278 -2.09012 418.499 -1.92115 411.228C-1.96984 390.204 -2.04883 370.068 -2.07097 347.824C-2.07416 345.41 -1.76589 347.047 -1.75442 342.861C-1.67129 313.356 -1.9451 307.11 -1.78795 270.386C-1.63067 233.659 -1.33369 164.34 -1.21999 121.348C-1.21945 121.348 -1.21891 121.348 -1.21836 121.348C-1.62279 107.815 -1.45524 90.3044 -1.12531 75.7689C-0.254599 159.597 -0.697328 239.804 -0.763704 329.334C-0.769017 356.212 -0.692816 383.596 -0.573251 411.228C-0.707873 417.914 5.33729 423.908 12 423.714C75.0598 423.411 139.09 422.914 201.029 423.014C209.992 423.028 213.593 423.439 221.144 423.354C222.42 423.339 219.115 423.022 223.041 422.989C276.973 422.535 334.478 423.278 387.435 423.066C401.714 423.007 403.953 422.618 416.511 422.513C414.303 422.698 412.86 422.891 410.934 423.077C468.258 423.655 525.664 423.407 583.733 423.494C586.352 423.499 586.687 423.905 589.435 423.921C594.93 423.954 600.193 423.507 604.995 423.491C611.262 423.472 612.346 423.797 618.125 423.777C620.945 423.767 620.102 423.453 626.234 423.507C626.748 423.511 627.084 423.841 631.164 423.799C642.335 423.683 665.167 423.407 674.414 423.323C686.226 423.216 695.704 423.72 700.174 423.754C712.243 423.844 711.992 423.326 722.208 423.326C794.942 423.322 864.474 423.929 938.928 423.929C943.606 423.929 960.906 423.334 969.561 423.358C972.461 423.368 987.63 423.525 989.903 423.538C999.123 423.588 1007.09 423.95 1012.18 424.026C1022.04 424.174 1033.06 423.61 1038.42 423.553C1046.45 423.468 1059.77 423.51 1066 423.533C1066 423.533 1066 423.533 1066 423.533C1067.12 423.536 1068 423.393 1068.59 423.269C1073.36 422.021 1074.45 420.36 1075.51 419.607C1076.42 418.679 1077.48 418.04 1078.47 414.469C1078.76 412.91 1078.44 413.617 1078.4 411.228C1078.34 410.387 1078.3 409.142 1078.3 407.237C1078.3 401.257 1078.71 398.837 1078.78 394.755C1078.85 390.672 1078.23 383.182 1078.24 380.637C1078.33 367.333 1078.74 361.446 1078.76 346.961C1078.77 334.934 1078.49 279.336 1078.34 274.714C1077.69 254.012 1077.98 288.489 1077.96 290.433C1077.83 300.937 1077.58 299.4 1078.06 309.878C1076.58 319.252 1078.88 351.923 1077.13 360.295C1078.3 368.95 1077.71 376.222 1077.47 385.339C1077.15 397.941 1077.83 388.345 1077.84 397.538C1077.84 400.085 1077.57 406.03 1077.44 411.228C1077.4 413.335 1076.75 415.228 1076.04 416.583C1073.71 420.439 1071.64 422.631 1066 423.094C1066 423.094 1066 423.094 1066 423.094C1065.36 423.103 1064.68 423.109 1063.94 423.112C1050.93 423.154 1040.45 422.963 1029.51 422.475C1027.5 422.691 1025.64 422.907 1023.66 423.123C1016.11 422.891 1008.53 422.66 1000.98 422.43C1002.18 422.618 1003.39 422.809 1004.6 422.997C1002.39 423.025 1000.18 423.05 997.967 423.076C990.622 422.793 983.607 422.53 976.057 422.238C955.542 423.328 961.496 422.385 950.093 422.244C938.693 422.104 932.095 422.733 923.289 422.737C911.424 422.742 905.975 422.821 894.008 422.777C887.074 422.751 875.311 422.148 884.967 423.104C863.316 423.182 833.674 423.446 814.31 423.061C808.592 422.949 816.216 422.65 815.241 422.613C810.388 422.438 806.3 422.922 801.293 422.853C792.973 422.738 776.769 422.364 770.218 422.277C760.793 422.152 745.974 422.776 744.459 422.821C735.987 423.073 733.72 422.559 730.999 422.595C715.514 422.803 712.095 423.017 707.216 421.939C703.207 422.408 686.412 423.19 682.354 422.41C682.25 423.115 668.306 422.997 659.729 423.172C658.136 422.969 656.517 422.768 654.924 422.564C637.024 423.818 601.378 422.906 577.827 422.767C577.236 422.764 576.181 423.279 572.636 423.163C572.412 423.153 572.777 422.923 570.399 422.893C562.565 422.796 532.677 422.231 529.238 422.229C516.576 422.214 514.363 422.591 506.658 422.628C496.515 422.677 495.049 422.34 485.397 422.391C480.877 422.414 476.766 422.856 469.654 422.795C465.444 422.759 465.027 422.415 461.693 422.388C449.827 422.293 441.113 422.51 430.583 422.071C427.835 423.154 422.803 422.357 417.59 422.279C396.428 421.959 370.054 422.421 351.896 422.331C295.241 422.051 245.004 421.475 189.66 421.41C180.671 421.4 178.505 421.879 169.079 421.857C164.843 421.847 160.474 421.509 153.542 421.513C147.97 421.515 139.987 421.695 133.029 421.701C131.18 421.703 131.016 421.39 128.293 421.391C107.646 421.4 87.4838 421.646 66.6312 421.814C58.9028 421.876 54.1226 421.489 55.4324 422.171C52.4791 422.006 49.6079 421.863 46.8344 421.703C36.2017 422.141 27.518 421.708 13.1356 421.834C12.9216 421.836 12.5312 421.847 12 421.863C10.5501 421.944 7.70248 421.603 5.31754 419.765C2.89194 418.009 1.38547 414.886 1.30808 412.497C1.03086 412.127 0.943786 413.024 0.717864 412.892C0.632481 412.367 0.583443 411.81 0.580592 411.228C0.552657 405.222 0.768134 397.17 0.7893 393.438C0.812691 389.333 0.517365 386.586 0.514129 385.351C0.504605 380.651 0.888828 381.746 0.894992 381.387C1.24187 359.483 1.03234 361.789 0.467472 348.563C0.327914 345.249 0.715614 322.763 0.285881 318.214C0.459763 318.009 0.613601 319.263 0.780288 319.623C0.819523 312.868 0.858875 306.061 0.896008 299.281C0.733722 300.719 0.570624 302.446 0.405659 303.756C0.539963 289.915 0.154294 278.406 0.166451 267.081C0.173049 260.609 0.519011 261.398 0.441518 257.597C0.426295 256.853 0.193755 258.111 0.174629 255.905C0.0217665 237.901 0.263327 230.013 0.298478 211.984C0.313764 203.536 -0.0773903 196.142 0.17592 184.021C0.201842 182.914 0.52876 171.023 0.0502348 163.679C0.200061 161.342 0.277599 159.281 0.401771 157.534C-0.30054 142.664 0.389096 146.773 0.524811 126.664C0.59554 116.258 0.448887 81.2557 0.37864 69.9309C0.33426 63.1859 0.099995 63.3088 0.0903189 62.1053C0.0358001 54.915 0.260338 54.9094 0.22043 48.26C0.179722 41.6082 -0.0657637 33.205 -0.0418015 26.3734C-0.0244396 21.1403 0.237343 25.2655 0.14417 17.5369C0.126209 16.0771 -0.0578364 19.7523 -0.0245749 14.228C-0.021055 13.6921 0.0175071 13.0722 0.135213 12.3635C0.190794 11.7674 1.0214 8.03137 3.89816 5.54536C6.65673 2.91666 10.7367 2.39814 12 2.50771C8.4332 2.0196 0.174161 6.55123 0.527019 14.228C0.593764 20.3164 0.653021 26.2151 0.683581 29.5877C1.50971 121.057 2.36157 278.472 2.69962 411.228C2.59868 416.236 7.13273 420.626 12 420.481C58.767 420.37 101.793 420.316 136.88 420.305C149.642 420.299 157.988 420.723 166.308 420.749C174.629 420.774 167.594 420.379 175.144 420.399C182.695 420.42 188.197 420.701 195.259 420.715C242.872 420.812 290.845 420.944 338.073 420.98C350.324 420.99 360.115 420.612 371.261 420.598C375.599 420.593 375.733 421.07 378.814 421.063C412.02 420.995 442.739 420.493 475.765 420.516C489.478 420.526 504.295 420.935 517.88 420.966C529.076 420.991 540.683 420.69 550.75 420.676C556.214 420.667 559.097 421.054 561.074 421.083C567.957 421.181 565.552 420.706 569.07 420.703C578.776 420.697 583.604 421.272 592.694 421.222C596.263 421.202 595.804 420.832 600.986 420.771C607.559 420.693 605.128 421.037 609.822 421.047C610.105 421.048 609.184 420.783 611.674 420.771C627.7 420.69 647.709 420.466 663.17 420.474C695.144 420.488 726.707 420.997 756.498 421.09C764.023 421.112 762.026 420.755 764.414 420.736C775.918 420.649 780.027 421.078 792.071 420.919C794.075 420.893 802.142 420.39 809.846 420.514C814.006 420.58 818.728 420.891 822.271 420.963C825.814 421.035 826.383 420.574 830.642 420.572C838.398 420.568 836.143 420.888 847.236 420.828C851.704 420.804 866.624 420.361 878.13 420.391C896.929 420.439 920.228 420.836 942.392 420.839C949.995 420.841 959.76 420.36 971.548 420.354C985.956 420.345 1012.5 420.451 1027.27 420.457C1034.82 420.46 1035.37 420.963 1036.27 420.984C1042.04 421.124 1039.71 420.562 1043.58 420.584C1048.9 420.614 1053.86 421.029 1058.69 421.056C1061.77 421.074 1062.25 420.659 1062.92 420.656C1063.95 420.65 1064.98 420.645 1066 420.64C1066 420.64 1066 420.64 1066 420.64C1071.14 420.71 1075.49 416.088 1075.34 411.228C1075.31 394.902 1075.32 379.143 1075.29 362.067C1075.09 246.465 1074.71 129.893 1074.86 14.228C1074.99 9.51086 1070.73 5.23313 1066 5.34044C1056.21 5.32331 1046.43 5.30235 1036.66 5.27726C1025.64 5.24942 1025.23 4.75975 1015.55 4.82947C1005.87 4.89903 996.512 5.93656 988.551 4.77395C988.294 5.00679 988.319 5.17295 988.062 5.38481C968.056 5.03769 948.048 5.35705 928.479 5.37496C913.995 5.3894 901.151 5.33798 887.772 5.29766C875.913 5.25984 876.937 4.87245 866.669 5.36786C815.637 4.98994 764.058 4.99158 713.463 4.43556C701.597 5.19309 690.223 4.6872 673.812 4.55518C671.786 4.53826 673.96 4.81733 667.951 4.78492C660.405 4.74444 656.5 4.3212 643.793 4.32863C640.429 4.33291 615.51 4.75024 606.289 4.50455C597.069 4.26111 583.714 4.11005 574.135 3.88388C575.496 4.05535 577.22 4.2204 578.735 4.39066C573.958 4.41303 569.156 4.43396 564.379 4.45564C563.685 4.25175 562.991 4.04799 562.323 3.84351C559.549 4.03315 556.774 4.21929 553.975 4.40901C547.941 3.36705 554.127 3.7145 540.698 3.95704C533.969 4.07694 528.627 3.89213 521.719 3.98588C519.229 4.02034 517.637 4.31466 514.893 4.3479C508.165 4.42805 512.086 4.02821 507.93 4.02453C503.744 4.02307 497.734 4.45507 490.235 4.24652C498.064 3.47337 475.435 3.70457 474.356 4.3003C471.662 4.29678 469.404 4.26812 466.428 4.2799C469.176 2.77745 455.07 3.83213 449.471 4.02304C443.876 4.21665 444.102 3.81975 442.793 3.83356C439.02 3.87127 441.767 4.03953 439.124 4.04094C421.608 4.04469 405.116 3.78254 387.832 3.73779C385.345 3.73115 387.551 3.94724 384.652 3.92163C381.75 3.89572 378.968 3.68108 374.679 3.68966C373.529 3.69172 373.167 3.87562 371.374 3.87279C333.801 3.80107 298.124 3.59426 259.806 3.51438C256.339 3.50742 253.617 3.79022 246.915 3.76667C240.213 3.74268 230.043 3.47127 221.723 3.43969C219.514 3.43104 218.915 3.6586 215.987 3.64675C206.024 3.60612 197.441 3.40889 187.093 3.36369C169.605 3.28839 151.296 3.38331 133.551 3.23305C130.188 3.20543 130.725 3.03887 125.874 2.98603C117.501 2.89558 120.652 3.13919 118.957 3.16866C113.411 3.26221 111.668 2.9452 106.304 3.01879C105.484 3.02996 106.654 3.21604 105.918 3.21772C94.5146 3.22771 93.9159 2.80735 81.7936 3.01471C71.0135 2.76446 89.0196 2.70458 90.8685 2.57553C95.3845 2.26348 83.4466 1.89715 76.4099 1.7912C70.3502 1.69821 70.3948 1.88578 67.9824 1.88717C55.2191 1.89696 36.2122 1.94073 26.5034 1.86668C20.622 1.8232 31.2233 1.74221 28.2184 1.68853C25.2402 1.63612 23.3121 1.76573 20.2566 1.6306C17.2003 1.49416 10.9656 1.10632 12.147 0.913114ZM1079.06 13.7372C1078.79 8.86253 1073.91 1.80016 1066 2.04505C1041.79 2.73067 1006.39 2.59291 985.064 2.47482C961.949 2.34175 942.022 1.11962 946.799 2.89593C971.786 2.91398 991.997 2.73714 1018.42 2.79671C1021.17 2.80301 1037.56 2.97523 1043.26 3.00702C1046.47 3.02443 1046.57 3.32713 1050.94 3.32543C1051.89 3.32432 1057.16 2.92934 1059.08 2.94021C1060.73 2.9493 1063.19 2.99436 1066 3.05676C1072.33 2.76162 1077.4 10.1458 1076.7 14.228C1076.67 15.7677 1076.65 16.9016 1076.65 17.4233C1076.7 25.0217 1077.18 22.1057 1077.26 25.3852C1077.55 36.4031 1076.83 37.6175 1077.06 48.5326C1077.1 50.4844 1077.73 56.9568 1077.65 65.0469C1077.61 68.3345 1077.29 73.9336 1077.3 76.4502C1077.38 90.1644 1077.82 105.473 1077.74 118.031C1077.68 128.326 1077.19 125.558 1077.13 131.002C1077.06 136.446 1077.63 143.021 1077.66 146.744C1077.72 152.702 1077.39 159.945 1077.39 161.793C1077.49 198.211 1077.87 230.596 1078 265.729C1078.23 241.87 1078.44 218.039 1078.67 194.334C1078.16 180.877 1078.64 187.575 1078.8 178.717C1078.93 171.706 1078.06 170.01 1078.15 160.794C1078.15 160.802 1078.15 160.809 1078.15 160.817C1078.21 156.065 1078.8 145.767 1078.55 135.648C1078.54 135.288 1078.09 134.387 1078.08 126.811C1078.04 109.785 1077.82 83.6945 1077.91 64.5358C1077.94 58.9113 1078.4 60.0569 1078.46 53.4051C1078.5 48.5531 1078.07 42.9322 1078.17 35.3347C1078.29 25.8064 1079.02 21.2352 1078 14.6861C1078.22 14.371 1078.42 14.3331 1078.63 14.228C1078.78 14.1488 1078.93 14.0321 1079.06 13.7372ZM558.109 2.0785C556.771 2.04445 538.847 1.16726 544.162 2.10861C568.252 2.51929 594.297 2.31722 619.646 2.56114C610.991 1.57894 596.349 1.97355 578.576 2.04331C578.569 2.04331 578.561 2.04331 578.553 2.04331C577.714 2.04679 581.222 1.79619 576.452 1.84268C574.141 1.86612 565.275 2.24677 558.109 2.0785Z" fill="#EEBB3A"/>
</svg>
