<svg width="19" height="18" viewBox="0 0 19 18" fill="none" xmlns="http://www.w3.org/2000/svg">
<path d="M3.25 0C2.38805 0 1.5614 0.34241 0.951903 0.951903C0.34241 1.5614 0 2.38805 0 3.25V14.75C0 15.612 0.34241 16.4386 0.951903 17.0481C1.5614 17.6576 2.38805 18 3.25 18H12.25C12.4489 18 12.6397 17.921 12.7803 17.7803C12.921 17.6397 13 17.4489 13 17.25C13 17.0511 12.921 16.8603 12.7803 16.7197C12.6397 16.579 12.4489 16.5 12.25 16.5H3.25C2.78587 16.5 2.34075 16.3156 2.01256 15.9874C1.68437 15.6592 1.5 15.2141 1.5 14.75V3.25C1.5 2.284 2.284 1.5 3.25 1.5H12.25C12.4489 1.5 12.6397 1.42098 12.7803 1.28033C12.921 1.13968 13 0.948912 13 0.75C13 0.551088 12.921 0.360322 12.7803 0.21967C12.6397 0.0790175 12.4489 0 12.25 0H3.25ZM14.53 4.22C14.4613 4.14631 14.3785 4.08721 14.2865 4.04622C14.1945 4.00523 14.0952 3.98319 13.9945 3.98141C13.8938 3.97963 13.7938 3.99816 13.7004 4.03588C13.607 4.0736 13.5222 4.12974 13.451 4.20096C13.3797 4.27218 13.3236 4.35701 13.2859 4.4504C13.2482 4.54379 13.2296 4.64382 13.2314 4.74452C13.2332 4.84523 13.2552 4.94454 13.2962 5.03654C13.3372 5.12854 13.3963 5.21134 13.47 5.28L16.44 8.25H5.75C5.55109 8.25 5.36032 8.32902 5.21967 8.46967C5.07902 8.61032 5 8.80109 5 9C5 9.19891 5.07902 9.38968 5.21967 9.53033C5.36032 9.67098 5.55109 9.75 5.75 9.75H16.44L13.47 12.72C13.3963 12.7887 13.3372 12.8715 13.2962 12.9635C13.2552 13.0555 13.2332 13.1548 13.2314 13.2555C13.2296 13.3562 13.2482 13.4562 13.2859 13.5496C13.3236 13.643 13.3797 13.7278 13.451 13.799C13.5222 13.8703 13.607 13.9264 13.7004 13.9641C13.7938 14.0018 13.8938 14.0204 13.9945 14.0186C14.0952 14.0168 14.1945 13.9948 14.2865 13.9538C14.3785 13.9128 14.4613 13.8537 14.53 13.78L18.78 9.53C18.9205 9.38937 18.9993 9.19875 18.9993 9C18.9993 8.80125 18.9205 8.61063 18.78 8.47L14.53 4.22Z" fill="#C9E4E7"/>
</svg>
