<svg width="800" height="600" xmlns="http://www.w3.org/2000/svg">

 <g>
  <title>Layer 1</title>
  <g stroke="null">
   <path stroke="null" fill="black" d="m405.04797,104.96317c1.86964,-0.11364 3.73927,-0.22729 5.66608,-0.34438c2.56375,-0.14312 2.56375,-0.14312 5.17895,-0.28914c3.35505,-0.1021 6.71011,-0.2042 10.16693,-0.3094c1.72441,-0.00668 3.44768,-0.01336 5.22469,-0.02025c1.8319,0.04072 3.66494,0.08144 5.55402,0.12338c1.97255,0.09664 3.94625,0.19327 5.97941,0.29282c2.25271,0.1805 4.50542,0.361 6.82675,0.54697c2.75586,0.31178 5.51057,0.62354 8.3499,0.94476c3.03945,0.39321 6.07775,0.78642 9.20867,1.19153c4.78101,0.66502 4.78101,0.66502 9.65922,1.34348c4.95825,0.72792 4.95825,0.72792 10.01713,1.47053c3.3642,0.51203 6.72726,1.02404 10.19323,1.55157c3.38021,0.52843 6.76042,1.05686 10.24355,1.60131c3.37449,0.53846 6.75013,1.07691 10.22754,1.63168c3.25443,0.52143 6.50771,1.04288 9.85933,1.58011c2.94796,0.46315 5.89707,0.92618 8.93423,1.4033c2.81989,0.44128 5.63978,0.88244 8.5443,1.33705c2.80503,0.44141 5.6112,0.88282 8.50084,1.33768c2.79473,0.44342 5.58947,0.88684 8.46882,1.34372c2.79359,0.45159 5.58718,0.90306 8.46654,1.36836c2.88622,0.46894 5.77357,0.93789 8.74898,1.42116c3.01543,0.48944 6.03086,0.97887 9.13778,1.48314c3.33218,0.5347 6.66322,1.06952 10.09604,1.62056c3.9714,0.62232 7.94281,1.24465 12.03428,1.88583c6.35905,0.99182 6.35905,0.99182 12.84617,2.00376c4.26071,0.67035 8.52257,1.34083 12.9125,2.03154c4.22641,0.66494 8.45281,1.33001 12.80729,2.01507c6.15093,0.95008 6.15093,0.95008 12.42765,1.91927c3.82847,0.60648 7.65808,1.21284 11.60432,1.83768c3.4168,0.53369 6.83361,1.06738 10.35447,1.61729c2.89765,0.58612 5.7953,1.17223 8.781,1.7762c2.16352,0.79607 4.32704,1.59214 6.55573,2.41223c1.61006,0.86346 3.22012,1.72704 4.87935,2.61665c2.83018,2.4893 2.83018,2.4893 5.71754,5.02888c0.96741,1.42619 1.93367,2.85238 2.92967,4.3217c0.92052,1.89287 1.83991,3.78587 2.78787,5.73607c0.71469,2.3207 1.42939,4.64153 2.16695,7.03264c1.19154,4.6091 1.19154,4.6091 2.40709,9.31123c0.39222,1.80637 0.7833,3.61262 1.18696,5.47369c0.38994,1.94215 0.77873,3.88443 1.1801,5.88555c0.38765,2.05732 0.7753,4.11476 1.17553,6.23456c0.38765,2.1027 0.7753,4.20553 1.17438,6.37197c0.3968,2.02991 0.79359,4.05969 1.20183,6.15108c0.38422,2.08171 0.76958,4.16341 1.16524,6.30823c0.36135,2.19825 0.72155,4.3965 1.09319,6.66151c0.32018,2.37665 0.64036,4.75343 0.97084,7.20224c0.255,2.67524 0.51,5.35186 0.77301,8.10895c0.20583,2.86269 0.41281,5.72664 0.6255,8.67734c0.1681,2.98087 0.33619,5.963 0.51,9.03439c0.18754,4.64417 0.18754,4.64417 0.3785,9.38138c0.07433,3.19711 0.1498,6.39422 0.22641,9.68814c0.03888,3.25494 0.07776,6.50989 0.11778,9.8629c0.008,3.26123 0.01601,6.52246 0.02401,9.88301c-0.00343,3.27757 -0.00686,6.55515 -0.01144,9.9333c0.01944,3.34044 0.03774,6.68087 0.05603,10.12314c0.00114,3.24111 0.00229,6.48097 0.00229,9.82015c-0.03431,3.04499 -0.06861,6.08872 -0.10406,9.22548c-0.15437,4.03694 -0.15437,4.03694 -0.31103,8.15433c-0.35106,3.12042 -0.35106,3.12042 -0.70898,6.30245c-0.29159,1.6721 -0.58433,3.34421 -0.88622,5.0666c-0.90795,3.70754 -0.90795,3.70754 -1.83533,7.48926c-0.75472,2.07441 -1.50943,4.14883 -2.28702,6.2861c-1.88679,1.65953 -3.77358,3.31906 -5.71754,5.02888c-2.26643,1.24465 -2.26643,1.24465 -4.57861,2.51444c-1.71984,0.82977 -3.44082,1.65953 -5.21211,2.51444c-2.72955,1.32511 -2.72955,1.32511 -5.51285,2.67662c-1.74156,0.77571 -3.48427,1.55267 -5.27958,2.35226c-2.61749,0.80336 -5.23613,1.60799 -7.93366,2.43649c-2.86449,1.28362 -2.86449,1.28362 -5.78844,2.59239c-0.68496,1.92103 -1.37107,3.84081 -2.07661,5.81967c-0.44711,1.81291 -0.89422,3.62708 -1.35391,5.49531c2.0263,0.15212 4.05374,0.30425 6.14178,0.4614c3.99999,0.31682 3.99999,0.31682 8.08117,0.63867c3.95997,0.30676 3.95997,0.30676 7.99999,0.61855c2.47798,0.26276 4.95482,0.52552 7.50828,0.79582c2.01829,0.39225 4.03544,0.78451 6.11548,1.18807c1.37793,0.43751 2.75586,0.87628 4.17609,1.32637c0,0.82977 0,1.65953 0,2.51444c-2.68839,1.11515 -5.37792,2.23031 -8.1475,3.37941c-1.91881,0.67513 -3.83647,1.35151 -5.8136,2.04676c-2.18524,0.69901 -4.37049,1.39803 -6.62206,2.11716c-2.263,0.6349 -4.52601,1.26979 -6.85648,1.92355c-2.5626,0.66256 -5.12406,1.32637 -7.76328,2.0103c-3.03258,0.76816 -6.06517,1.53758 -9.18923,2.32963c-3.46369,0.83731 -6.92737,1.67462 -10.49626,2.53707c-3.96797,0.90017 -7.93595,1.79908 -12.02399,2.72691c-4.30531,0.94794 -8.61176,1.89589 -13.04857,2.87149c-4.50428,0.97812 -9.0097,1.95624 -13.6512,2.96327c-4.69753,1.01206 -9.39507,2.02413 -14.23439,3.06762c-4.92395,1.06738 -9.84789,2.1335 -14.92164,3.23231c-4.88964,1.05858 -9.78043,2.1159 -14.81873,3.20591c-4.72498,1.01835 -9.44995,2.03544 -14.31787,3.08396c-4.2104,0.90268 -8.42194,1.80537 -12.76041,2.73571c-3.11377,0.6613 -6.22869,1.3226 -9.43738,2.00401c-3.88564,0.81971 -3.88564,0.81971 -7.84904,1.6545c-2.42538,0.51043 -4.85076,1.01961 -7.34933,1.54512c-3.47741,0.73045 -3.47741,0.73045 -7.02572,1.47598c-2.33276,0.48906 -4.66666,0.97937 -7.07146,1.48478c-2.51801,0.5318 -5.03487,1.06487 -7.62834,1.61301c-2.77644,0.59341 -5.55288,1.18682 -8.41279,1.79783c-3.43396,0.74302 -6.86791,1.48729 -10.40593,2.2542c-4.74442,1.04349 -9.48883,2.08824 -14.37733,3.16317c-5.36877,1.18807 -10.73754,2.37615 -16.26984,3.59942c-5.57003,1.23585 -11.14006,2.47044 -16.87933,3.74275c-8.4551,1.87954 -8.4551,1.87954 -17.08173,3.79555c-5.45225,1.21322 -10.9045,2.42518 -16.52141,3.67486c-5.1961,1.15664 -10.39335,2.31329 -15.74725,3.50513c-4.65751,1.03846 -9.31388,2.07567 -14.11318,3.14557c-6.75813,1.50112 -6.75813,1.50112 -13.65235,3.03242c-5.11834,1.14407 -10.23783,2.28814 -15.51169,3.46616c-4.3156,0.9316 -8.63006,1.86194 -13.07602,2.81995c-2.73299,0.33065 -5.46597,0.6613 -8.28129,1.002c-2.92738,0.08423 -5.85476,0.16847 -8.87134,0.25522c-2.36363,0.04652 -4.72612,0.09303 -7.16179,0.13955c-2.73413,0.03897 -5.46711,0.07669 -8.28472,0.11566c-4.31446,0.02389 -4.31446,0.02389 -8.71468,0.04777c-3.01772,0.00377 -6.03429,0.00754 -9.14349,0.01131c-4.67809,0.00126 -4.67809,0.00126 -9.4511,0.00126c-3.10806,-0.01383 -6.21497,-0.0264 -9.41679,-0.04023c-3.0303,-0.03269 -6.06174,-0.06538 -9.18352,-0.09806c-2.77186,-0.05909 -5.54259,-0.11692 -8.39793,-0.17727c-3.33447,-0.14584 -3.33447,-0.14584 -6.73641,-0.29419c-2.89193,-0.18481 -2.89193,-0.18481 -5.84218,-0.37339c-1.77816,-0.14081 -3.55631,-0.28287 -5.38821,-0.42746c-1.66495,-0.15715 -3.33104,-0.31431 -5.0463,-0.47649c-3.24756,-0.34825 -6.49513,-0.6965 -9.83989,-1.05607c-3.12063,-0.37717 -6.24127,-0.75433 -9.45681,-1.14407c-3.27386,-0.36459 -6.54773,-0.72919 -9.92108,-1.1051c-3.30588,-0.38722 -6.61291,-0.77445 -10.01942,-1.17299c-3.25557,-0.42494 -6.51182,-0.84988 -9.86665,-1.28739c-2.48336,-0.34699 -2.48336,-0.34699 -5.0168,-0.70027c-1.71561,-0.2527 -3.43121,-0.50415 -5.19885,-0.76313c-1.84391,-0.28413 -3.6877,-0.56826 -5.58741,-0.85994c-2.83933,-0.45511 -2.83933,-0.45511 -5.73595,-0.91777c-1.89079,-0.31305 -3.78158,-0.62484 -5.72955,-0.94794c-1.87261,-0.31933 -3.7451,-0.63867 -5.67432,-0.9668c-1.82756,-0.32059 -3.65511,-0.64118 -5.53801,-0.97057c-1.76329,-0.32059 -3.52647,-0.63993 -5.34316,-0.96932c-3.24882,-0.63112 -6.49764,-1.26099 -9.84492,-1.91098c-2.612,-0.59089 -5.224,-1.18304 -7.91525,-1.7928c-2.15208,-0.54941 -4.30417,-1.09881 -6.52154,-1.66456c-4.74053,-1.40054 -4.74053,-1.40054 -9.57688,-2.82875c-1.50943,-0.82977 -3.01886,-1.65953 -4.57403,-2.51444c0.37736,-1.24465 0.75472,-2.4893 1.14351,-3.77166c1.9339,-0.64873 3.86792,-1.29619 5.86048,-1.96378c2.59428,-0.59718 5.18867,-1.1931 7.86162,-1.80788c3.06609,-0.46643 6.13206,-0.93286 9.29101,-1.41437c3.89147,-0.54438 3.89147,-0.54438 7.86162,-1.10007c0.75472,-0.41488 1.50943,-0.82977 2.28702,-1.25722c-1.24997,-1.08875 -2.49994,-2.17751 -3.78787,-3.3002c-1.39154,-1.40054 -2.78307,-2.79983 -4.21669,-4.24312c-1.13207,-2.4893 -2.26415,-4.97859 -3.43053,-7.54332c-3.2311,-1.03721 -6.46219,-2.07441 -9.79129,-3.14305c-1.84848,-0.50917 -3.69696,-1.01709 -5.60136,-1.54135c-2.56935,-0.79331 -2.56935,-0.79331 -5.1905,-1.6017c-2.14625,-1.1931 -4.29239,-2.38495 -6.5037,-3.61451c-1.62733,-1.29619 -3.25477,-2.59239 -4.93138,-3.92881c-1.43865,-1.3226 -2.8773,-2.64519 -4.35963,-4.00676c-1.80423,-2.37363 -1.80423,-2.37363 -3.64493,-4.79378c-1.03773,-2.17751 -2.07547,-4.35627 -3.14465,-6.60041c-0.84906,-2.38495 -1.69811,-4.77115 -2.57289,-7.22902c-0.99056,-3.34546 -0.99056,-3.34546 -2.00114,-6.75756c-0.4717,-2.3334 -0.94339,-4.6668 -1.42939,-7.07187c-0.35377,-2.82623 -0.70755,-5.65246 -1.07204,-8.56419c-0.02358,-2.56724 -0.04717,-5.13449 -0.07147,-7.77968c1.50943,-2.4893 3.01886,-4.97859 4.57403,-7.54332c0.32871,-2.3686 0.65743,-4.73846 0.9961,-7.17999c0.21374,-2.76463 0.42748,-5.52926 0.64769,-8.37812c0.41126,-4.36633 0.41126,-4.36633 0.83083,-8.82066c0.31545,-2.742 0.6309,-5.484 0.9559,-8.30897c0.40979,-2.06813 0.81958,-4.13626 1.24178,-6.26599c0.46285,-1.71862 0.9257,-3.43598 1.40258,-5.20615c1.01418,-2.85263 2.02836,-5.70401 3.07318,-8.64339c0.89617,-1.78902 1.79245,-3.57805 2.71583,-5.42114c1.36786,-1.53004 2.73584,-3.06008 4.14522,-4.63663c2.52361,-2.17751 5.0471,-4.35627 7.64721,-6.60041c1.50497,-1.17173 3.01006,-2.34346 4.56065,-3.55039c1.63179,-1.21448 3.26357,-2.42769 4.94476,-3.67863c1.7379,-1.25219 3.47581,-2.50564 5.26643,-3.79555c2.69971,-1.89463 2.69971,-1.89463 5.45396,-3.82572c1.82344,-1.25848 3.64676,-2.5157 5.52543,-3.81189c1.80869,-1.20567 3.61737,-2.41135 5.48084,-3.65348c1.74968,-1.07618 3.49936,-2.15236 5.30211,-3.26123c1.67009,-1.02338 3.34019,-2.04801 5.06094,-3.10282c1.57278,-1.01961 3.14568,-2.03921 4.76614,-3.08899c1.42241,-1.02966 2.84493,-2.05933 4.31046,-3.11916c2.21703,-2.17751 4.43395,-4.35627 6.71811,-6.60041c1.55666,-2.38495 3.1132,-4.77115 4.71697,-7.22902c0.68393,-3.08522 1.36798,-6.1717 2.07261,-9.34995c0.44814,-2.72314 0.89628,-5.44628 1.35792,-8.25114c1.88679,-1.65953 3.77358,-3.31906 5.71754,-5.02876c2.26415,-0.41488 4.52829,-0.82977 6.86105,-1.25722c1.69811,-2.4893 3.39622,-4.97859 5.14579,-7.54332c0.9817,-1.59466 1.9634,-3.18944 2.97541,-4.83238c1.09319,-1.7244 2.18753,-3.44881 3.31389,-5.22539c1.259,-1.7503 2.51801,-3.50061 3.81474,-5.30384c1.33562,-1.7762 2.67124,-3.55253 4.04688,-5.38254c1.36078,-1.79405 2.72155,-3.58811 4.12235,-5.43647c1.32876,-1.73245 2.65637,-3.4649 4.02515,-5.2499c1.7976,-2.34585 1.7976,-2.34585 3.63178,-4.73909c1.13665,-1.46994 2.27329,-2.93988 3.44425,-4.45433c2.19325,-2.77456 4.3865,-5.54899 6.64607,-8.40766c3.28987,-4.00613 3.28987,-4.00613 6.64607,-8.09336c1.95769,-2.30775 3.91537,-4.61551 5.93252,-6.99329c1.46255,-1.63363 2.92395,-3.26714 4.4311,-4.95031c1.17896,-1.27055 2.35906,-2.54109 3.57346,-3.85024c1.88679,-2.07441 3.77358,-4.14883 5.71754,-6.2861c1.94625,-2.06146 1.94625,-2.06146 3.93138,-4.16454c1.72098,-1.52991 3.4431,-3.0597 5.21669,-4.636c2.57061,-1.73735 5.14121,-3.47458 7.78958,-5.26461c2.7124,-1.58171 5.4248,-3.16342 8.21954,-4.79315c1.98284,-0.8881 3.96569,-1.7762 6.00799,-2.69121c2.16809,-0.77143 4.33618,-1.54286 6.5706,-2.33766c2.03087,-0.39057 4.06289,-0.78115 6.15551,-1.18355c2.16695,-0.25768 4.3339,-0.51536 6.56603,-0.78086c2.5283,-0.29981 5.05545,-0.59963 7.66036,-0.90853c2.70783,-0.29658 5.41566,-0.59316 8.20582,-0.89872c4.07889,-0.4643 4.07889,-0.4643 8.24127,-0.938c4.37621,-0.46917 4.37621,-0.46917 8.84046,-0.94783c4.76843,-0.45945 4.76843,-0.45945 9.63406,-0.92818c2.60606,-0.23246 2.60606,-0.23246 5.26471,-0.46961c1.89937,-0.16105 3.79874,-0.3221 5.75528,-0.48804c3.24413,-0.26345 3.24413,-0.26345 6.55459,-0.53223c2.31103,-0.17928 4.62092,-0.35856 7.0017,-0.54328c2.38078,-0.17624 4.76157,-0.35249 7.21439,-0.53407c2.43796,-0.16896 4.87592,-0.3379 7.38821,-0.51198c2.47913,-0.15436 4.95711,-0.30872 7.51171,-0.46777c2.45626,-0.1422 4.91251,-0.28442 7.4431,-0.43094c2.4048,-0.12944 4.8096,-0.2589 7.28758,-0.39227c2.23556,-0.11851 4.47112,-0.23702 6.77414,-0.35913zm20.58315,7.54332c-1.93367,1.06314 -3.86849,2.12627 -5.86048,3.22163c-2.19325,2.13927 -2.19325,2.13927 -4.4311,4.32168c-1.29674,1.21875 -2.59462,2.4375 -3.93138,3.69309c-1.34362,1.68543 -2.68839,3.37099 -4.07318,5.10746c-1.86278,2.93008 -3.72669,5.86028 -5.64664,8.87912c-0.96626,1.6369 -1.93367,3.27368 -2.92967,4.96011c-0.94339,1.65626 -1.88679,3.31265 -2.85877,5.01908c-1.6741,3.08572 -3.34934,6.17144 -5.07489,9.35058c-1.34362,2.72264 -2.68839,5.4454 -4.07318,8.25051c-1.13207,3.31906 -2.26415,6.63812 -3.43053,10.05777c-1.16295,2.39526 -2.3259,4.79064 -3.52429,7.25856c-1.40766,2.73886 -2.81532,5.47771 -4.26529,8.29954c-1.53688,3.0079 -3.07261,6.0158 -4.65522,9.11485c-1.55288,3.05982 -3.10691,6.11952 -4.70782,9.272c-1.38822,2.82636 -2.77758,5.65284 -4.20811,8.56482c-1.32304,2.72264 -2.64722,5.4454 -4.01143,8.25051c-1.29216,2.65462 -2.58547,5.30912 -3.91652,8.04483c-1.27844,2.58233 -2.55688,5.16592 -3.87306,7.82746c-1.33676,2.58359 -2.67352,5.16718 -4.05145,7.82871c-1.25786,2.39501 -2.51458,4.79001 -3.81017,7.25793c-1.69354,3.18957 -1.69354,3.18957 -3.42138,6.44326c-0.80503,1.60799 -1.61006,3.21597 -2.4391,4.87173c0,0.82977 0,1.65953 0,2.51444c2.52372,0.25899 5.04745,0.51923 7.64778,0.78576c4.13836,-0.38848 4.13836,-0.38848 8.36133,-0.78576c1.80446,-2.21648 1.80446,-2.21648 3.6455,-4.47822c0.68382,-1.84183 1.36764,-3.6824 2.07204,-5.57955c1.13207,-2.90418 2.26415,-5.80836 3.43053,-8.80054c0.25958,-3.08522 0.51915,-6.1717 0.78673,-9.34995c0.74214,-5.32936 0.74214,-5.32936 1.50028,-10.76558c1.20297,-3.00777 2.40594,-6.01567 3.6455,-9.11472c0.80389,-1.62383 1.60892,-3.24778 2.43796,-4.92076c1.012,-2.0064 2.02287,-4.0128 3.0646,-6.07992c1.36535,-2.91386 2.72955,-5.82785 4.13607,-8.82996c1.48885,-3.15374 2.9777,-6.3076 4.51114,-9.55689c1.41681,-2.99822 2.83361,-5.99631 4.29273,-9.0853c1.39051,-2.5509 2.78101,-5.1018 4.21269,-7.73002c1.39051,-1.5445 2.77987,-3.08887 4.21269,-4.68013c1.251,-0.94493 2.502,-1.88973 3.79187,-2.86319c1.69811,-0.75194 3.39622,-1.50389 5.14579,-2.27871c2.54774,-0.73899 2.54774,-0.73899 5.14579,-1.49295c3.96226,-0.62232 3.96226,-0.62232 8.00456,-1.25722c2.91595,-0.81682 5.83189,-1.63363 8.83589,-2.47509c1.65008,-0.36057 3.30017,-0.72102 4.99942,-1.0924c1.7084,-0.27483 3.41566,-0.54966 5.17552,-0.83278c5.06574,-0.19688 5.06574,-0.19688 10.23326,-0.39778c2.80274,1.16846 5.60433,2.33692 8.49169,3.54084c1.12636,2.54311 1.12636,2.54311 2.27673,5.13751c0.68839,3.27418 0.68839,3.27418 1.39051,6.61461c0.29617,2.43612 0.59348,4.87223 0.8988,7.38215c0.16695,2.63161 0.33505,5.26323 0.50886,7.97455c0.1761,4.07754 0.1761,4.07754 0.35677,8.23731c0.06289,2.72377 0.12693,5.44754 0.19211,8.2539c0.01258,2.68178 0.02516,5.36355 0.03774,8.12655c0.0183,2.4297 0.03659,4.85941 0.05603,7.36279c0.23099,3.42605 0.46312,6.8521 0.70097,10.382c0.24014,2.87526 0.48142,5.75053 0.72841,8.71254c0.16123,2.84886 0.32133,5.69772 0.48713,8.63333c0.18296,4.94465 0.18296,4.94465 0.3705,9.98862c0.04574,2.2894 0.09262,4.57754 0.14065,6.93609c0.06061,3.76663 0.06061,3.76663 0.12236,7.60996c0.04231,2.54084 0.08348,5.08169 0.12693,7.70048c0.05489,3.80686 0.05489,3.80686 0.11092,7.69168c0.01715,2.48175 0.03431,4.96351 0.05146,7.52195c0.02859,2.29694 0.05718,4.59388 0.08691,6.95997c0.16581,3.59691 0.33276,7.19256 0.50429,10.89759c1.13207,0.41488 2.26415,0.82977 3.43053,1.25722c0.75472,-0.41488 1.50943,-0.82977 2.28702,-1.25722c0.04688,-3.52022 0.04688,-3.52022 0.09377,-7.11084c-0.10177,-3.25494 -0.20354,-6.50863 -0.30875,-9.86164c-0.19211,-5.50537 -0.19211,-5.50537 -0.38765,-11.12389c-0.12579,-2.96578 -0.12579,-2.96578 -0.255,-5.99191c-0.09377,-2.02664 -0.18868,-4.05454 -0.28588,-6.14278c-0.10177,-2.02161 -0.20354,-4.04448 -0.30875,-6.12769c-0.1681,-3.07139 -0.1681,-3.07139 -0.33848,-6.20313c-0.18525,-3.12796 -0.18525,-3.12796 -0.37393,-6.31753c-0.13493,-2.11842 -0.26987,-4.23558 -0.40823,-6.41685c-0.14523,-2.15362 -0.29159,-4.30724 -0.44139,-6.52498c-0.1578,-2.17876 -0.31561,-4.35753 -0.47913,-6.60292c-0.17038,-2.19385 -0.34077,-4.38896 -0.51687,-6.64944c-0.18639,-2.21246 -0.37164,-4.42441 -0.56375,-6.70337c-0.20698,-2.23622 -0.41395,-4.47256 -0.62664,-6.77654c-0.33047,-3.35263 -0.33047,-3.35263 -0.66895,-6.7729c-0.3442,-3.32208 -0.3442,-3.32208 -0.69411,-6.7113c-0.24014,-2.18203 -0.47913,-4.36406 -0.72613,-6.61235c-0.25386,-2.13426 -0.50657,-4.26852 -0.76844,-6.46752c-0.255,-2.07605 -0.51,-4.15222 -0.77301,-6.29126c-0.25157,-2.00753 -0.50429,-4.01519 -0.76386,-6.08356c-0.22985,-1.92405 -0.45969,-3.84823 -0.6964,-5.83061c-0.32819,-3.54272 -0.65752,-7.08544 -0.996,-10.73541c-0.35563,-3.09553 -0.71012,-6.19093 -1.07604,-9.38012c-0.67238,-3.95999 -0.67238,-3.95999 -1.35849,-8.00007c-1.13207,-2.88545 -1.13207,-2.88545 -2.28702,-5.82935c-3.13664,-0.90759 -6.27329,-1.81505 -9.50484,-2.75017c-4.35219,0.73899 -4.35219,0.73899 -8.79129,1.49295c2.8542,0 5.70725,0 8.64721,0c4.2104,-0.62232 4.2104,-0.62232 8.50542,-1.25722c-0.56604,-4.97859 -0.56604,-4.97859 -1.14351,-10.05777c-1.13207,-3.07265 -1.13207,-3.07265 -2.28702,-6.20753c-1.13207,-2.52817 -1.13207,-2.52817 -2.28702,-5.10745c-0.56604,-0.62232 -0.56604,-0.62232 -1.14351,-1.25722c-4.52829,-0.27226 -4.52829,-0.27226 -9.14807,-0.55003c-1.76558,0.01297 -3.5323,0.02594 -5.35162,0.03929c-1.6295,0.16856 -3.26014,0.3371 -4.93996,0.51075zm-11.43508,0c-4.5706,0.16287 -4.5706,0.16287 -9.23269,0.32904c-1.91309,0.08104 -3.82504,0.16207 -5.7953,0.24555c-2.09262,0.09562 -4.18524,0.19124 -6.3419,0.28975c-2.17724,0.10372 -4.35562,0.20744 -6.59919,0.31431c-2.31103,0.12155 -4.62092,0.2431 -7.0017,0.36833c-2.45054,0.14322 -4.90108,0.28645 -7.42709,0.43402c-2.61177,0.17604 -5.22469,0.35208 -7.91651,0.53345c-2.84162,0.22953 -5.68209,0.45905 -8.60948,0.69553c-2.9411,0.25828 -5.88335,0.51657 -8.91365,0.78268c-4.42652,0.40798 -4.42652,0.40798 -8.94224,0.82412c-2.91709,0.27747 -5.83418,0.55494 -8.84046,0.8407c-2.83018,0.26854 -5.65922,0.53708 -8.57517,0.81367c-2.6861,0.26314 -5.3722,0.52615 -8.13949,0.7972c-3.76214,0.38785 -3.76214,0.38785 -7.59976,0.78363c-2.21155,0.24704 -4.42423,0.49409 -6.70325,0.74855c-4.72498,0.65878 -4.72498,0.65878 -9.54601,1.33089c-3.19954,0.58586 -3.19954,0.58586 -6.46311,1.18355c-2.09948,0.64822 -4.19782,1.29657 -6.36019,1.96441c-2.0526,1.01131 -4.10405,2.02262 -6.2184,3.06448c-2.47684,1.73735 -4.95254,3.47471 -7.5037,5.26461c-2.42996,1.99659 -4.85877,3.99331 -7.36191,6.05037c-1.86278,1.73735 -3.72669,3.47471 -5.64664,5.26461c-1.90966,1.99659 -3.82046,3.99331 -5.78844,6.05037c-1.40766,1.49748 -2.81532,2.99495 -4.26529,4.53781c-2.20468,2.38231 -2.20468,2.38231 -4.45397,4.81277c-1.3825,1.50238 -2.765,3.00463 -4.18981,4.55252c-1.53459,1.83051 -1.53459,1.83051 -3.10005,3.69799c0,0.82977 0,1.65953 0,2.51444c3.32647,-0.17664 6.65408,-0.35328 10.08117,-0.53532c2.15208,-0.17262 4.30302,-0.34511 6.52029,-0.523c3.42138,-0.29293 3.42138,-0.29293 6.91136,-0.59177c3.26929,-0.27106 3.26929,-0.27106 6.6049,-0.54752c2.18524,-0.17752 4.37049,-0.35491 6.62206,-0.53784c3.39165,-0.26552 3.39165,-0.26552 6.8519,-0.53646c2.21841,-0.16495 4.43681,-0.32989 6.72269,-0.49975c2,-0.14219 3.99885,-0.28438 6.05945,-0.43098c2.02172,-0.11868 4.04345,-0.23736 6.12577,-0.35969c2.16237,-0.09869 4.32589,-0.19751 6.55345,-0.29922c2.49514,-0.05519 4.99141,-0.11038 7.56202,-0.16734c3.1801,0.02992 6.36019,0.05972 9.63635,0.09052c3.50485,0.05771 7.00971,0.11529 10.62091,0.17475c5.38249,0.04853 5.38249,0.04853 10.87477,0.09819c3.66494,0.03558 7.32989,0.07128 11.1069,0.108c5.59633,0.15564 5.59633,0.15564 11.30701,0.31431c3.5666,0.00968 7.13321,0.01949 10.8073,0.02954c3.23384,0.05406 6.46883,0.10812 9.79987,0.16382c4.04916,-1.10698 4.04916,-1.10698 8.17952,-2.23634c1.77587,-2.97773 3.55059,-5.95545 5.38021,-9.02332c1.86506,-4.86834 1.86506,-4.86834 3.76786,-9.83499c1.6741,-2.82636 3.34934,-5.65272 5.07489,-8.56482c1.72098,-2.56712 3.4431,-5.13411 5.21669,-7.77905c1.81589,-2.30775 3.63178,-4.61551 5.50256,-6.99329c1.58033,-1.84107 3.16066,-3.68202 4.78901,-5.57892c1.50943,-1.65952 3.01886,-3.31905 4.57403,-5.02887c-1.88679,0 -3.77358,0 -5.71754,0zm34.30525,1.25722c0.49514,1.63361 0.99028,3.26725 1.50028,4.95029c0.63693,2.10031 1.27387,4.20075 1.93024,6.36468c0.31561,1.94505 0.63236,3.89009 0.95712,5.8941c0.81647,1.7889 1.63293,3.5778 2.47341,5.42088c2.01486,0.6261 4.03087,1.25219 6.10748,1.89715c3.93481,0.33719 3.93481,0.33719 7.94967,0.68116c2.90108,0.2786 5.80216,0.55707 8.79129,0.8441c4.64493,0.36736 4.64493,0.36736 9.38477,0.74214c4.67238,0.4355 4.67238,0.4355 9.43966,0.87968c4.63578,0.43726 4.63578,0.43726 9.36533,0.88345c3.02801,0.27043 6.05602,0.54086 9.17551,0.81946c2.77072,0.26276 5.54144,0.52552 8.39678,0.7962c2.23442,0.26439 4.46883,0.52879 6.77071,0.8011c1.91309,0.25584 3.82732,0.51169 5.79873,0.77533c4.85076,0.69776 4.85076,0.69776 9.79987,1.40947c2.73756,0.39866 5.47512,0.79733 8.29501,1.20819c1.95654,0.27546 3.91309,0.55091 5.92795,0.83479c1.13207,0 2.26415,0 3.43053,0c-0.11778,-1.71133 -0.23556,-3.42278 -0.35677,-5.18604c-0.25958,-2.02249 -0.51915,-4.04511 -0.78673,-6.12895c-1.13207,-2.4893 -2.26415,-4.97859 -3.43053,-7.54332c-2.26415,-0.82977 -4.52829,-1.65953 -6.86105,-2.51444c-3.00285,-0.51307 -6.00571,-1.02627 -9.10004,-1.55493c-3.77129,-0.56625 -7.54373,-1.13238 -11.42937,-1.71573c-4.1052,-0.61591 -8.21039,-1.2317 -12.44023,-1.86622c-4.30874,-0.63854 -8.61748,-1.27708 -13.05658,-1.93499c-4.29044,-0.64822 -8.58203,-1.29645 -13.00283,-1.96441c-4.11091,-0.61264 -8.22183,-1.22516 -12.45852,-1.85629c-5.66494,-0.84513 -5.66494,-0.84513 -11.44423,-1.70726c-3.19839,-0.40577 -6.39679,-0.81154 -9.69238,-1.2296c-3.48427,-0.09085 -3.48427,-0.09085 -7.03829,-0.18354c-2.1761,0.09086 -2.1761,0.09086 -4.39679,0.18354zm113.20733,16.34386c0.54202,1.94479 1.08519,3.88959 1.64437,5.89322c0.58891,2.20403 1.17896,4.40819 1.78616,6.67898c0.37736,2.07441 0.75472,4.14883 1.14351,6.2861c2.36935,0.56889 4.73756,1.13766 7.1778,1.72378c4.90222,0.66369 4.90222,0.66369 9.90393,1.3407c1.75071,0.24742 3.50142,0.49497 5.30474,0.74981c2.76043,0.39225 2.76043,0.39225 5.57575,0.7923c1.93939,0.26615 3.87878,0.53231 5.87649,0.80663c3.06117,0.43211 3.06117,0.43211 6.18409,0.87289c2.17953,0.33341 4.35905,0.66696 6.60376,1.01043c3.3379,0.52577 3.3379,0.52577 6.74327,1.0621c3.28759,0.5215 3.28759,0.5215 6.64264,1.05368c2.15323,0.34259 4.30645,0.68531 6.526,1.03834c3.19725,0.50301 3.19725,0.50301 6.46082,1.01634c2.94568,0.46203 2.94568,0.46203 5.95196,0.93336c3.00285,0.47158 6.00571,0.94317 9.0989,1.42908c-4.58318,-0.59316 -4.58318,-0.59316 -9.26013,-1.19826c-2.98113,-0.38735 -2.98113,-0.38735 -6.02286,-0.78237c-2.1498,-0.27986 -4.29959,-0.55971 -6.51457,-0.84812c-2.16809,-0.28225 -4.33618,-0.56462 -6.56946,-0.85541c-2.18868,-0.28652 -4.37621,-0.57317 -6.63006,-0.86836c-2.19782,-0.28992 -4.3945,-0.5797 -6.65751,-0.87842c-3.15494,-0.42331 -3.15494,-0.42331 -6.37277,-0.85516c-1.87421,-0.26112 -3.74842,-0.52225 -5.67981,-0.79129c-1.73013,-0.24616 -3.45911,-0.4922 -5.24184,-0.74578c-3.14122,-0.45222 -6.28244,-0.90432 -9.51856,-1.37024c-2.80388,-0.40998 -5.60777,-0.82009 -8.49627,-1.24251c-2.14865,-0.29004 -4.29845,-0.58021 -6.51228,-0.87905c-1.50943,0 -3.01886,0 -4.57403,0c0.1418,1.60773 0.28245,3.21534 0.42882,4.87173c0.23556,2.12634 0.47227,4.25255 0.71469,6.44326c0.33047,2.25596 0.66095,4.51191 1.00057,6.83614c0.42424,1.89287 0.84848,3.78587 1.28645,5.73607c1.13207,0.82977 2.26415,1.65953 3.43053,2.51444c3.54945,0.42381 7.0989,0.84762 10.75584,1.28425c4.72612,0.4448 9.45224,0.88974 14.3213,1.34812c7.6981,0.73648 7.6981,0.73648 15.55286,1.48805c5.41337,0.50716 10.82559,1.01445 16.40248,1.53708c8.05259,0.76087 8.05259,0.76087 16.26869,1.5372c7.72097,0.73648 7.72097,0.73648 15.59746,1.48805c4.7387,0.4448 9.47854,0.88974 14.36018,1.34799c4.03773,0.42381 8.07546,0.84762 12.23554,1.28425c2.88393,0.36547 5.76671,0.73095 8.73755,1.10749c2.02287,0.46429 4.04459,0.92858 6.12806,1.40696c1.88679,1.65953 3.77358,3.31906 5.71754,5.02888c0.77873,2.5152 1.55631,5.03052 2.35791,7.6219c0.36478,1.66117 0.72841,3.32233 1.10349,5.03379c0.55117,3.07038 0.55117,3.07038 1.11263,6.20262c0.40251,2.68215 0.80503,5.36431 1.21898,8.12781c0.5992,4.37815 0.5992,4.37815 1.21098,8.84455c0.57061,4.36884 0.57061,4.36884 1.15266,8.82569c0.32704,2.68794 0.65409,5.37713 0.99142,8.14679c0.20926,2.10584 0.41852,4.21043 0.63465,6.37914c0.1681,1.70731 0.33619,3.41335 0.50886,5.17221c0.37736,2.41135 0.75472,4.8227 1.14351,7.30697c1.50943,0 3.01886,0 4.57403,0c-0.18182,-2.37615 -0.36249,-4.75104 -0.54888,-7.19885c-0.26758,-3.27757 -0.53402,-6.55389 -0.8096,-9.93079c-0.31332,-3.54913 -0.62779,-7.09827 -0.9514,-10.75552c-0.36935,-3.65851 -0.73985,-7.31828 -1.12064,-11.08856c-0.6438,-5.02234 -0.6438,-5.02234 -1.30017,-10.14615c-0.46655,-3.18617 -0.93425,-6.37235 -1.41566,-9.65508c-0.49285,-3.08245 -0.98456,-6.16491 -1.49228,-9.34077c-0.49743,-2.82963 -0.996,-5.65925 -1.50943,-8.57462c-0.47456,-2.41474 -0.94911,-4.82949 -1.43853,-7.3174c-0.46884,-2.09704 -0.93768,-4.19421 -1.42024,-6.35487c-0.94339,-3.37086 -1.88679,-6.74185 -2.85877,-10.21492c-0.86106,-1.7405 -1.72212,-3.48112 -2.60834,-5.27442c-1.02573,-1.57844 -2.0526,-3.15701 -3.1092,-4.78335c-2.26415,-2.07441 -4.52829,-4.14883 -6.86105,-6.2861c-2.32475,-0.67814 -4.64951,-1.35629 -7.04401,-2.05493c-4.43796,-0.84976 -4.43796,-0.84976 -8.96511,-1.71673c-3.45454,-0.58511 -6.90908,-1.17022 -10.46768,-1.77318c-3.87878,-0.5963 -7.7587,-1.1926 -11.75527,-1.80688c-4.25614,-0.65727 -8.51228,-1.31442 -12.89763,-1.99144c-6.63692,-1.01495 -6.63692,-1.01495 -13.40764,-2.0504c-4.41966,-0.68141 -8.83932,-1.36295 -13.39277,-2.06511c-4.25843,-0.65551 -8.51571,-1.31103 -12.90335,-1.98641c-3.87992,-0.59492 -7.75985,-1.18983 -11.7587,-1.80273c-3.50257,-0.53143 -7.00628,-1.06285 -10.61519,-1.6105c-3.17324,-0.48529 -6.34762,-0.97057 -9.61691,-1.47057c-3.73012,-0.51672 -3.73012,-0.51672 -7.53572,-1.04387c-1.88679,0 -3.77358,0 -5.71754,0zm-106.34628,7.54332c0.14637,1.76652 0.29159,3.53304 0.44254,5.35299c0.23099,2.38231 0.46198,4.76474 0.70097,7.21921c0.31446,2.33051 0.62779,4.66102 0.9514,7.06206c0.3705,2.59629 0.73985,5.19257 1.12064,7.86744c0.40595,2.97232 0.81075,5.94452 1.22927,9.00685c0.41967,3.30284 0.83934,6.60569 1.27272,10.00861c0.20583,1.82448 0.41166,3.64883 0.62321,5.52863c0.20354,1.89325 0.40595,3.78662 0.61406,5.73733c0.19897,1.91739 0.39794,3.83477 0.60263,5.81025c0.1944,1.9365 0.38879,3.87299 0.59005,5.86808c0.19211,1.95749 0.38536,3.91511 0.58319,5.93194c0.18525,1.91248 0.3705,3.82509 0.56032,5.79554c0.33047,3.49419 0.66095,6.98826 1.00057,10.58819c0.23556,2.43134 0.47227,4.86155 0.71469,7.36593c0.18868,2.1335 0.37736,4.26575 0.57175,6.46337c0.25157,3.25243 0.25157,3.25243 0.50886,6.57149c0.16238,2.80989 0.32476,5.61978 0.49171,8.51516c0.09148,2.17122 0.18182,4.34244 0.27559,6.58029c0.1418,3.67988 0.1418,3.67988 0.28702,7.43646c0.0972,2.52073 0.1944,5.04271 0.29503,7.64139c0.09377,2.5509 0.18868,5.1018 0.28588,7.72939c0.08119,2.5157 0.16238,5.03014 0.24585,7.62253c0.08462,2.34346 0.1681,4.68692 0.255,7.10078c0.21155,3.69874 0.42424,7.39623 0.64265,11.20686c0.75472,0.41488 1.50943,0.82977 2.28702,1.25722c3.39393,-0.47146 3.39393,-0.47146 6.85762,-0.95172c4.53401,-0.76313 4.53401,-0.76313 9.16065,-1.54261c4.98798,-0.83228 4.98798,-0.83228 10.0766,-1.67965c5.267,-0.89011 5.267,-0.89011 10.64035,-1.79783c3.41337,-0.57329 6.82789,-1.14784 10.34532,-1.73874c3.35734,-0.56072 6.71583,-1.12144 10.17494,-1.69851c3.28644,-0.54689 6.57289,-1.09378 9.95767,-1.65827c3.10234,-0.4966 6.20582,-0.9932 9.40193,-1.50489c2.81646,-0.3998 5.63292,-0.79834 8.53515,-1.2107c2.48713,-0.33316 4.97426,-0.66633 7.53686,-1.00955c2.16009,-0.27533 4.32132,-0.55066 6.54773,-0.83605c1.59176,-0.2351 3.18353,-0.47146 4.82446,-0.71536c0.75472,-0.41488 1.50943,-0.82977 2.28702,-1.25722c0.22985,-1.67336 0.45969,-3.34798 0.6964,-5.07289c0.05374,-2.08573 0.10635,-4.17146 0.16123,-6.32005c0.11206,-2.0895 0.22413,-4.179 0.33962,-6.33136c-0.77301,-1.61804 -1.54488,-3.23734 -2.34076,-4.90567c-4.48827,-0.38597 -4.48827,-0.38597 -9.06802,-0.78073c-1.86621,0.10183 -3.73241,0.20241 -5.65465,0.30676c-1.93367,0.15715 -3.86849,0.31305 -5.86048,0.47397c-1.78044,0.09303 -3.56089,0.18481 -5.39622,0.28036c-1.75414,0.08926 -3.50828,0.17727 -5.31503,0.2703c-1.7793,0.11315 -3.5586,0.22756 -5.39279,0.34448c-1.80789,0.11944 -3.61692,0.23887 -5.47969,0.36208c-1.89251,0.11692 -3.78501,0.23259 -5.73469,0.35202c-1.87535,0.11064 -3.75071,0.22127 -5.68209,0.33568c-1.80103,0.10309 -3.60205,0.20618 -5.45682,0.31179c-1.64894,0.08549 -3.29673,0.16972 -4.99599,0.25773c-3.82961,0.12698 -3.82961,0.12698 -7.73698,0.25522c-2.02172,0.02012 -4.04459,0.03897 -6.12806,0.05909c-2.97198,-0.10309 -5.94396,-0.20744 -9.00513,-0.31431c-1.50943,-0.82977 -3.01886,-1.65953 -4.57403,-2.51444c-1.19154,-2.37489 -1.19154,-2.37489 -2.40709,-4.79881c-0.71469,-2.14985 -1.43053,-4.30095 -2.16695,-6.51617c-0.47684,-2.5157 -0.95483,-5.0314 -1.44539,-7.62379c-0.60034,-4.26952 -0.60034,-4.26952 -1.21212,-8.62705c-0.44482,-3.12796 -0.88965,-6.25719 -1.34705,-9.4807c-0.67124,-4.88179 -0.67124,-4.88179 -1.3562,-9.8634c-0.45969,-3.24049 -0.92052,-6.48085 -1.39508,-9.81952c-0.44025,-3.1335 -0.8805,-6.26699 -1.33333,-9.49554c-0.3968,-2.85112 -0.79245,-5.70238 -1.20068,-8.64c-0.33047,-2.67675 -0.66095,-5.3535 -1.00171,-8.11146c-0.42195,-4.09665 -0.42195,-4.09665 -0.85191,-8.27603c-0.09605,-2.24741 -0.19211,-4.49494 -0.29159,-6.81062c0.75472,-1.65953 1.50943,-3.31906 2.28702,-5.02888c2.78444,-0.15552 5.56889,-0.31116 8.43795,-0.47146c1.86163,0.04539 3.72326,0.09077 5.64207,0.13754c2.14637,0.11013 4.29159,0.22039 6.50313,0.33392c2.43682,0.16206 4.87249,0.32411 7.38363,0.49107c2.62092,0.20103 5.24184,0.40193 7.94167,0.609c2.71469,0.22693 5.42938,0.45386 8.2264,0.68757c2.76958,0.23988 5.5403,0.47963 8.39564,0.7268c4.20125,0.35982 4.20125,0.35982 8.48826,0.7268c2.7044,0.22693 5.40879,0.45386 8.19438,0.68757c2.43796,0.21071 4.87592,0.42142 7.38821,0.63842c2.26872,0.15238 4.53744,0.30475 6.87477,0.46165c3.55402,0.03407 3.55402,0.03407 7.18123,0.06877c1.78044,-0.02263 3.56203,-0.04539 5.39736,-0.06877c-0.33047,-2.5152 -0.66095,-5.03039 -1.00057,-7.6219c-0.42424,-2.87828 -0.84848,-5.75644 -1.28645,-8.72197c-1.13207,-4.35627 -1.13207,-4.35627 -2.28702,-8.80054c-1.91538,-0.54023 -3.83075,-1.08058 -5.80445,-1.63715c-2.61292,-0.28954 -5.22583,-0.57908 -7.91765,-0.87729c-2.98341,-0.43701 -5.96568,-0.87389 -9.03943,-1.3241c-3.35277,-0.4609 -6.70439,-0.92179 -10.15893,-1.39652c-3.67066,-0.50251 -7.34132,-1.0049 -11.12291,-1.52249c-5.72212,-0.77784 -5.72212,-0.77784 -11.55973,-1.57153c-5.73584,-0.79243 -5.73584,-0.79243 -11.58717,-1.60094c-3.66723,-0.49924 -7.33446,-0.99836 -11.11376,-1.51256c-3.34934,-0.45813 -6.69982,-0.91614 -10.15092,-1.3881c-2.88507,-0.32952 -5.77014,-0.65916 -8.74327,-0.99874c-2.27673,-0.04916 -4.55345,-0.09844 -6.89879,-0.14911c-2.24585,0.0738 -2.24585,0.0738 -4.5363,0.14911zm-18.29613,26.40163c-5.02343,0.19449 -5.02343,0.19449 -10.14864,0.39288c-1.74957,0.11994 -3.49914,0.23988 -5.30245,0.36346c-2.53973,0.24792 -2.53973,0.24792 -5.13207,0.50088c-4.35105,0.73899 -4.35105,0.73899 -8.79129,1.49295c-2.38193,0.75194 -4.76386,1.50401 -7.21783,2.27871c-1.35163,1.09718 -2.70325,2.19435 -4.09605,3.32472c-1.28988,1.39212 -2.57976,2.78437 -3.90851,4.2186c-1.48542,2.23647 -1.48542,2.23647 -3.00171,4.5182c-0.89651,1.62056 -1.79302,3.24124 -2.71583,4.91096c-1.45912,2.64972 -1.45912,2.64972 -2.94796,5.35299c-0.91366,1.76011 -1.82847,3.52009 -2.76958,5.33338c-2.12235,4.58961 -2.12235,4.58961 -4.28816,9.272c-1.22698,2.74866 -2.45283,5.4972 -3.7164,8.32909c-1.24985,2.25596 -2.49971,4.51191 -3.7873,6.83614c-1.01429,1.89287 -2.02858,3.78587 -3.07375,5.73607c-0.75472,2.90405 -1.50943,5.80823 -2.28702,8.80042c0,2.90418 0,5.80836 0,8.80054c2.26415,-3.11162 2.26415,-3.11162 4.57403,-6.2861c1.29674,-2.82623 2.59462,-5.65246 3.93138,-8.56469c0.78673,-1.75835 1.57347,-3.51682 2.38422,-5.32848c0.93539,-2.05329 1.86964,-4.10671 2.83247,-6.22224c1.19382,-2.53305 2.38765,-5.0661 3.61806,-7.67596c1.28302,-2.65299 2.56489,-5.30585 3.88564,-8.0393c1.20526,-2.50225 2.40937,-5.00449 3.65008,-7.58255c1.2247,-2.26891 2.4494,-4.53781 3.71183,-6.87549c1.35506,-1.90746 2.70897,-3.81491 4.1052,-5.7802c1.93024,-2.11741 1.93024,-2.11741 3.89936,-4.27757c1.88679,-0.80387 3.77358,-1.60761 5.71754,-2.43586c1.88679,-0.44078 3.77358,-0.88156 5.71754,-1.3358c3.96226,-0.62232 3.96226,-0.62232 8.00456,-1.25722c2.11663,-0.1134 4.23327,-0.22693 6.41394,-0.34372c2.31789,-0.04212 4.63464,-0.08436 7.02229,-0.12773c2.32933,-0.0616 4.65751,-0.12321 7.05773,-0.18657c2.87478,0.32575 2.87478,0.32575 5.80674,0.65803c1.13207,2.07441 2.26415,4.14883 3.43053,6.2861c0.255,2.13929 0.51,4.27845 0.77301,6.48261c0.18296,4.25896 0.18296,4.25896 0.3705,8.60404c0.06289,3.66907 0.12693,7.33827 0.19211,11.11861c0.00686,1.98201 0.01372,3.96402 0.02058,6.00612c0,2.02413 0.00114,4.04838 0.00229,6.13385c0.01372,2.02425 0.02744,4.04838 0.04231,6.13385c0.00229,1.98201 0.00343,3.96414 0.00572,6.00625c-0.08691,3.66932 -0.17381,7.33789 -0.26301,11.11836c-0.26415,2.81366 -0.52716,5.62732 -0.79931,8.52521c-0.49057,2.16619 -0.98227,4.33113 -1.4877,6.56143c-2.83018,3.73395 -2.83018,3.73395 -5.71754,7.54332c-1.69811,0.85617 -3.39622,1.71108 -5.14579,2.59365c-3.67867,1.20567 -3.67867,1.20567 -7.4328,2.43524c-1.97941,0.51923 -3.95883,1.03721 -5.99885,1.57153c-2.14751,0.54438 -4.29502,1.08875 -6.50885,1.65073c-2.06175,0.49409 -4.12349,0.98818 -6.24813,1.49735c-1.73585,0.51672 -3.47055,1.03344 -5.25785,1.5665c-1.50943,1.24465 -3.01886,2.4893 -4.57403,3.77166c1.13207,-1.86697 1.13207,-1.86697 2.28702,-3.77166c0,-3.31906 0,-6.63812 0,-10.05777c-0.37736,-0.82977 -0.75472,-1.65953 -1.14351,-2.51444c-2.26415,0.62232 -2.26415,0.62232 -4.57403,1.25722c-1.03831,1.81543 -2.07547,3.63085 -3.14465,5.50034c-0.84848,1.91852 -1.69811,3.83829 -2.57289,5.81465c0,1.24465 0,2.4893 0,3.77166c0.75472,0 1.50943,0 2.28702,0c0,0.82977 0,1.65953 0,2.51444c-1.53344,0.12949 -3.06575,0.25899 -4.64493,0.39351c-2.24128,0.28413 -4.48141,0.56952 -6.79015,0.86371c-3.08976,0.67387 -6.17952,1.349 -9.36305,2.04298c-2.57061,1.40054 -5.14121,2.80109 -7.78958,4.24312c0.02401,2.75583 0.04688,5.5104 0.0709,8.3492c0.35449,3.46741 0.70783,6.93609 1.07261,10.50911c0.04002,3.53028 0.08005,7.05929 0.12007,10.69643c0.03202,3.57554 0.06289,7.14981 0.09491,10.83347c0.01601,3.60822 0.03202,7.21519 0.04803,10.93153c0.29045,2.97961 0.5809,5.95797 0.8805,9.02684c3.39622,3.11162 3.39622,3.11162 6.86105,6.2861c1.06118,2.43775 2.12235,4.8755 3.21555,7.38617c1.58033,2.12596 3.16066,4.25318 4.78901,6.44326c2.71698,-0.01006 5.43281,-0.01886 8.23212,-0.02892c1.73356,-0.1735 3.46597,-0.34699 5.25213,-0.52552c1.96455,-0.23133 3.93024,-0.46391 5.95539,-0.70279c2.21498,-0.23007 4.42995,-0.46014 6.71239,-0.69776c2.3602,-0.24893 4.7204,-0.49912 7.15265,-0.75559c2.40823,-0.27407 4.8176,-0.54815 7.29901,-0.82977c2.4494,-0.28413 4.89993,-0.56701 7.42366,-0.85994c2.52029,-0.28287 5.04173,-0.56701 7.63864,-0.85868c2.38422,-0.27407 4.76957,-0.54815 7.22697,-0.83102c3.25443,-0.37214 3.25443,-0.37214 6.57517,-0.75308c1.6032,-0.23133 3.20754,-0.46266 4.85991,-0.70027c0.37736,-0.41488 0.75472,-0.82977 1.14351,-1.25722c0.13951,-3.15311 0.13951,-3.15311 0.2813,-6.36908c0.07204,-2.69548 0.14408,-5.39096 0.21955,-8.16691c0.06861,-2.67285 0.13836,-5.3457 0.20926,-8.09902c0.14294,-2.48804 0.28588,-4.97482 0.43339,-7.53829c1.13207,-4.97859 1.13207,-4.97859 2.28702,-10.05777c-3.01886,0 -6.03772,0 -9.14807,0c-3.267,0.6349 -6.53286,1.27105 -9.89821,1.9248c-1.82847,0.39728 -3.6558,0.79456 -5.53915,1.20316c-1.88679,0.41991 -3.77358,0.83982 -5.71754,1.27231c-1.92224,0.41991 -3.84448,0.83982 -5.82503,1.27231c-2.72384,0.59592 -2.72384,0.59592 -5.50256,1.20316c-2.86563,0.6349 -5.73126,1.26979 -8.6838,1.9248c4.03773,-1.14281 4.03773,-1.14281 8.15665,-2.30826c1.67181,-0.46014 3.34362,-0.91903 5.06574,-1.393c1.67524,-0.43877 3.34934,-0.87628 5.07375,-1.32762c4.06403,-0.88005 4.06403,-0.88005 8.21039,-1.77771c3.78959,-0.75308 3.78959,-0.75308 7.65579,-1.52249c2.56832,-0.50917 5.1355,-1.01709 7.78157,-1.54135c2.00686,-0.47649 4.01486,-0.95297 6.08346,-1.44455c0.75472,-0.82977 1.50943,-1.65953 2.28702,-2.51444c0.06861,-1.74125 0.13836,-3.48376 0.20926,-5.27781c-0.03774,-2.30826 -0.07662,-4.61651 -0.11549,-6.99518c-0.06175,-3.86595 -0.06175,-3.86595 -0.12464,-7.80985c-0.06061,-2.786 -0.12121,-5.57074 -0.1841,-8.43972c-0.05718,-2.84006 -0.11435,-5.67887 -0.17381,-8.60442c-0.06747,-2.87275 -0.13608,-5.74424 -0.20583,-8.70248c-0.08348,-2.88029 -0.16695,-5.76184 -0.25272,-8.72888c-0.0972,-2.74074 -0.19554,-5.48022 -0.29617,-8.30269c-0.11435,-2.3862 -0.22756,-4.77241 -0.34534,-7.23153c-0.12693,-2.19636 -0.25272,-4.39273 -0.38308,-6.65698c-0.2024,-3.14305 -0.2024,-3.14305 -0.41052,-6.35022c-0.21498,-3.01155 -0.21498,-3.01155 -0.43339,-6.08419c-0.14866,-1.97132 -0.29617,-3.94277 -0.4494,-5.97394c-0.15209,-1.90997 -0.30417,-3.82006 -0.46198,-5.78799c-0.46884,-5.4185 -0.46884,-5.4185 -0.94682,-10.94662c-0.46884,-5.16579 -0.46884,-5.16579 -0.94682,-10.43594c-0.30074,-3.0905 -0.60149,-6.181 -0.91138,-9.36529c-0.27444,-2.6643 -0.54888,-5.3286 -0.83133,-8.07375c-0.24471,-2.003 -0.48942,-4.00613 -0.74099,-6.06999c-0.56604,-1.86697 -0.56604,-1.86697 -1.14351,-3.77166c-1.13207,-0.62232 -1.13207,-0.62232 -2.28702,-1.25722c-2.83018,-0.07782 -2.83018,-0.07782 -5.71754,-0.15715c-2.6415,0.05192 -5.28301,0.10372 -8.00456,0.15715zm-282.44658,104.34919c-1.13207,1.24465 -2.26415,2.4893 -3.43053,3.77166c13.01884,1.24465 13.01884,1.24465 26.30069,2.51444c-3.39622,2.4893 -6.79244,4.97859 -10.29158,7.54332c-2.33493,0.58335 -2.33493,0.58335 -4.71697,1.17927c-1.83956,0.02514 -3.67924,0.05155 -5.5746,0.07795c-3.04242,-0.12949 -6.08495,-0.25899 -9.21954,-0.39225c-2.61795,-0.28539 -5.2359,-0.57078 -7.93309,-0.86497c0,-0.82977 0,-1.65953 0,-2.51444c-1.88679,0.82977 -3.77358,1.65953 -5.71754,2.51444c-2.52361,1.71108 -5.0471,3.42341 -7.64721,5.18604c-2.7594,2.02287 -5.5188,4.04574 -8.36191,6.12895c-3.1132,2.64519 -3.1132,2.64519 -6.2893,5.34319c-1.69811,1.55644 -3.39622,3.11162 -5.14579,4.71458c-2.26415,2.07441 -4.52829,4.14883 -6.86105,6.2861c-1.59199,2.56724 -1.59199,2.56724 -3.21612,5.18604c-0.8255,1.60799 -1.651,3.21597 -2.50142,4.87173c-0.37736,1.24465 -0.75472,2.4893 -1.14351,3.77166c0,3.73395 0,7.46789 0,11.31499c0.75472,0 1.50943,0 2.28702,0c1.13207,-1.24465 2.26415,-2.4893 3.43053,-3.77166c4.15905,-0.24767 4.15905,-0.24767 8.40216,-0.50037c1.75574,-0.00754 3.51149,-0.01509 5.32052,-0.02263c1.91023,0.01634 3.82035,0.03394 5.78844,0.05155c2.94934,0.01383 2.94934,0.01383 5.95814,0.02766c2.04185,0.02389 4.08358,0.04652 6.18718,0.0704c3.17266,0.07166 3.17266,0.07166 6.40936,0.14458c2.15517,0.07543 4.31046,0.15087 6.53103,0.22881c2.16855,0.11441 4.33698,0.22881 6.57129,0.34699c3.24116,0.20744 3.24116,0.20744 6.54784,0.41865c2.13207,0.15464 4.26426,0.30928 6.46094,0.46894c2.07627,0.16344 4.15254,0.32562 6.29181,0.49409c1.99005,0.15841 3.9801,0.31682 6.03052,0.479c1.89262,0.16344 3.78513,0.32562 5.73515,0.49409c1.77953,0.17601 3.55963,0.35202 5.39267,0.53306c1.64894,0.17727 3.29788,0.35454 4.99713,0.53683c2.83933,0.32813 5.67752,0.65501 8.60261,0.99195c2.06746,0.50289 4.13378,1.00452 6.263,1.52249c1.13207,2.07441 2.26415,4.14883 3.43053,6.2861c1.88679,-1.24465 3.77358,-2.4893 5.71754,-3.77166c1.15609,-1.71108 2.31103,-3.42215 3.50142,-5.18604c1.48656,-2.02287 2.97198,-4.04448 4.50314,-6.12895c1.97255,-1.76765 3.9451,-3.53656 5.97712,-5.35827c3.83304,-2.94818 3.83304,-2.94818 7.74498,-5.95671c2.1658,-1.38169 2.1658,-1.38169 4.37621,-2.79229c1.52315,-0.89766 3.04631,-1.79657 4.6152,-2.72314c1.58147,-0.89388 3.1618,-1.78651 4.7913,-2.70805c1.60663,-0.89011 3.2144,-1.78148 4.8702,-2.698c1.59519,-0.9052 3.18925,-1.8104 4.83132,-2.74326c2.3785,-1.33391 2.3785,-1.33391 4.80388,-2.69422c1.55631,-0.84737 3.11263,-1.69599 4.71583,-2.56976c1.56089,-0.80714 3.12292,-1.61301 4.73184,-2.44404c2.48141,-1.15413 2.48141,-1.15413 5.01314,-2.33089c2.35448,-1.03595 2.35448,-1.03595 4.75585,-2.09327c2.43682,-1.02966 4.87363,-2.05933 7.38363,-3.11916c-1.498,0.79456 -2.99485,1.58787 -4.53858,2.40632c-2.0869,1.12521 -4.17381,2.24917 -6.32475,3.40833c-2.28359,1.25722 -4.56717,2.5157 -6.91937,3.81064c-3.65008,2.08196 -3.65008,2.08196 -7.37449,4.20415c-2.42195,1.46466 -4.8439,2.93058 -7.33904,4.43925c-3.54831,2.2366 -3.54831,2.2366 -7.1698,4.51845c-2.27558,1.47975 -4.55116,2.9595 -6.8965,4.48451c-1.99314,1.37163 -3.98513,2.74451 -6.03887,4.15889c-2.52372,2.10082 -5.04745,4.20037 -7.64778,6.36531c-1.62721,1.63313 -3.25443,3.26626 -4.93081,4.94968c-1.88679,2.07441 -3.77358,4.14883 -5.71754,6.2861c-0.75472,1.65953 -1.50943,3.31906 -2.28702,5.02888c1.50943,-0.41488 3.01886,-0.82977 4.57403,-1.25722c1.17896,-1.34774 2.35791,-2.69674 3.57346,-4.08597c1.46255,-1.55518 2.92395,-3.11162 4.4311,-4.71458c1.69811,-1.11515 3.39622,-2.23031 5.14579,-3.37815c2.07547,-0.96052 4.15094,-1.91978 6.2893,-2.90795c2.92395,-0.90771 5.84905,-1.81543 8.86219,-2.74954c2.73642,-0.75308 5.47169,-1.50489 8.29044,-2.27934c2.26415,-0.82977 4.52829,-1.65953 6.86105,-2.51444c1.97941,-1.42695 1.97941,-1.42695 3.99771,-2.88281c1.4877,-1.20065 2.97427,-2.40129 4.50771,-3.6384c2.56032,-2.02287 2.56032,-2.02287 5.17209,-4.08597c1.90165,-1.47849 3.80331,-2.95698 5.76214,-4.47948c2.13722,-1.58158 4.27443,-3.16317 6.47683,-4.79253c2.22641,-1.60799 4.45168,-3.21597 6.74441,-4.87173c2.20926,-1.57781 4.41737,-3.15437 6.69181,-4.7787c3.1618,-2.18505 3.1618,-2.18505 6.38764,-4.41536c1.89594,-1.2107 3.79073,-2.42141 5.74384,-3.66857c2.49857,-1.52878 2.49857,-1.52878 5.04859,-3.08899c3.71412,-2.25545 3.71412,-2.25545 7.5037,-4.55742c0,-0.41488 0,-0.82977 0,-1.25722c-6.2264,-0.62232 -6.2264,-0.62232 -12.57859,-1.25722c-4.57175,-0.12321 -9.14349,-0.24642 -13.8536,-0.37339c-5.62606,-0.09932 -11.25098,-0.19738 -17.04742,-0.29922c-9.21896,-0.1647 -9.21896,-0.1647 -18.62318,-0.33191c-6.44024,-0.10938 -12.87934,-0.21876 -19.51511,-0.33065c-9.59404,-0.17224 -9.59404,-0.17224 -19.38132,-0.34699c-6.16008,-0.10812 -12.32016,-0.21498 -18.66663,-0.32688c-5.63978,-0.09681 -11.27842,-0.19361 -17.08745,-0.29419c-5.06002,-0.0704 -10.12005,-0.13955 -15.3333,-0.21121c-6.84024,-0.13201 -6.84024,-0.13201 -13.81873,-0.26779c-3.36432,0.08926 -6.72863,0.17727 -10.19495,0.26779zm563.74966,0c-4.10863,0.13955 -8.21725,0.2791 -12.45052,0.42243c-8.33503,0.29168 -8.33503,0.29168 -16.83816,0.58964c-9.00513,0.32311 -9.00513,0.32311 -18.19093,0.6525c-6.33618,0.22881 -12.6735,0.45763 -19.20065,0.69273c-6.3236,0.21876 -12.64606,0.43751 -19.16063,0.66256c-9.01199,0.32813 -9.01199,0.32813 -18.20465,0.66381c-5.56088,0.19738 -11.12176,0.39477 -16.85074,0.59844c-6.38306,0.36962 -6.38306,0.36962 -12.8942,0.74679c-1.88679,0.82977 -3.77358,1.65953 -5.71754,2.51444c-0.30646,3.60445 -0.61292,7.2089 -0.92853,10.92273c0.68382,3.44856 1.36764,6.89711 2.07204,10.45002c2.68153,0.04275 5.36305,0.08549 8.12577,0.12949c3.3562,-0.45763 6.71239,-0.91526 10.17036,-1.38671c4.4654,-0.39351 4.4654,-0.39351 9.02228,-0.79456c4.65179,-0.44128 4.65179,-0.44128 9.3985,-0.89011c5.19038,-0.48654 5.19038,-0.48654 10.48369,-0.9844c3.57461,-0.33819 7.14921,-0.67513 10.83246,-1.02338c3.52201,-0.33316 7.04287,-0.66633 10.67122,-1.00955c3.47741,-0.32688 6.95482,-0.65375 10.53743,-0.98943c3.40079,-0.31808 6.80273,-0.6349 10.30759,-0.96177c3.27844,-0.29419 6.55802,-0.58712 9.93594,-0.89011c4.71469,-0.37465 4.71469,-0.37465 9.52543,-0.75685c2.87707,-0.21876 5.75299,-0.43751 8.71696,-0.66256c2.53173,-0.18355 5.06231,-0.36837 7.67065,-0.55695c2.01486,-0.17727 4.02972,-0.35579 6.10519,-0.53809c2.83018,-0.62232 2.83018,-0.62232 5.71754,-1.25722c-0.56604,-1.86697 -0.56604,-1.86697 -1.14351,-3.77166c0.75472,0 1.50943,0 2.28702,0c0,1.24465 0,2.4893 0,3.77166c1.13207,0 2.26415,0 3.43053,0c0.37736,-1.24465 0.75472,-2.4893 1.14351,-3.77166c0.75472,0 1.50943,0 2.28702,0c0,-2.90418 0,-5.80836 0,-8.80054c-1.13207,-0.41488 -2.26415,-0.82977 -3.43053,-1.25722c-0.56604,-1.24465 -0.56604,-1.24465 -1.14351,-2.51444c-0.75472,0 -1.50943,0 -2.28702,0zm-384.21883,3.77166c-1.82618,0.914 -3.65237,1.828 -5.53458,2.76966c-1.97027,1.26476 -3.94167,2.52827 -5.9714,3.83075c-2.10863,1.46969 -4.21612,2.93938 -6.38764,4.45433c-2.39679,1.74502 -4.79359,3.4913 -7.26357,5.28913c-1.4614,1.04349 -2.92281,2.08573 -4.42766,3.16065c-1.54945,1.1051 -3.09776,2.20894 -4.6941,3.34672c-2.33161,1.67839 -2.33161,1.67839 -4.71125,3.38947c-1.54374,1.11641 -3.08747,2.23282 -4.67809,3.38318c-1.50829,1.09127 -3.01658,2.18379 -4.57175,3.30775c-1.40766,1.03595 -2.81646,2.07316 -4.26757,3.14054c-2.29502,1.78651 -4.59004,3.57428 -6.95482,5.41611c-1.13207,1.65953 -2.26415,3.31906 -3.43053,5.02888c6.79244,0.82977 13.58488,1.65953 20.58315,2.51444c-0.21269,1.50364 -0.42424,3.00853 -0.64265,4.55742c-0.54317,2.23031 -1.08519,4.46062 -1.64437,6.75756c-1.20297,2.93058 -2.40594,5.85991 -3.6455,8.87975c-1.43853,2.87778 -2.87707,5.75556 -4.35905,8.72134c-1.48542,1.97132 -2.97198,3.94139 -4.50314,5.9718c-1.15494,1.349 -2.31103,2.69674 -3.50142,4.08597c0,0.82977 0,1.65953 0,2.51444c-2.26415,1.24465 -2.26415,1.24465 -4.57403,2.51444c-1.13207,1.24465 -2.26415,2.4893 -3.43053,3.77166c0.37736,2.07441 0.75472,4.14883 1.14351,6.2861c1.50943,2.4893 3.01886,4.97859 4.57403,7.54332c1.13207,0.41488 2.26415,0.82977 3.43053,1.25722c1.9028,-0.07166 3.8056,-0.14207 5.76671,-0.21624c3.47855,-0.35957 3.47855,-0.35957 7.02686,-0.72667c2.37392,-0.35202 4.74899,-0.70279 7.19496,-1.06612c2.08347,-0.58084 4.1658,-1.16293 6.31217,-1.76262c1.88679,-2.15236 3.77358,-4.30472 5.71754,-6.5212c1.69811,-3.61828 1.69811,-3.61828 3.43053,-7.30822c1.27387,-1.76262 2.54659,-3.5265 3.85934,-5.34319c2.05145,-2.3334 2.05145,-2.3334 4.14522,-4.71458c1.86278,-1.58158 3.72669,-3.16317 5.64664,-4.79253c1.90966,-1.3226 3.82046,-2.64519 5.78844,-4.00802c3.01886,-1.24465 6.03772,-2.4893 9.14807,-3.77166c2.93653,-0.54438 2.93653,-0.54438 5.93252,-1.10007c2.19325,-0.05155 4.3865,-0.10309 6.64607,-0.15715c2.59005,0.61981 5.18009,1.23836 7.8479,1.87577c2.3156,0.6261 4.63235,1.25093 7.01771,1.89589c0.01372,-2.81995 0.0263,-5.63989 0.04002,-8.54533c0.01029,-3.71383 0.02058,-7.42892 0.03087,-11.2559c0.01372,-3.67486 0.02744,-7.35097 0.04117,-11.13772c-0.03774,-3.48124 -0.07433,-6.96249 -0.11206,-10.54934c-0.07318,-4.44302 -0.07318,-4.44302 -0.14751,-8.97781c-0.32819,-2.01532 -0.65752,-4.03191 -0.996,-6.10884c-2.26415,0.41488 -4.52829,0.82977 -6.86105,1.25722c-2.28473,0.94794 -4.56946,1.89589 -6.92394,2.87275c-2.57289,1.15287 -5.14693,2.30449 -7.79873,3.49256c-2.59119,1.15539 -5.18238,2.31077 -7.85247,3.50136c-2.97655,1.33894 -2.97655,1.33894 -6.01257,2.70554c3.24642,-1.5489 3.24642,-1.5489 6.55688,-3.12796c2.36478,-1.45712 4.72955,-2.91424 7.16522,-4.41536c1.53001,-2.47672 1.53001,-2.47672 3.0909,-5.00374c0.58433,-1.74628 1.16752,-3.4913 1.76901,-5.28913c1.03831,-3.24237 2.07547,-6.48349 3.14465,-9.82266c0,-1.24465 0,-2.4893 0,-3.77166c-3.46712,-0.62232 -3.46712,-0.62232 -7.00399,-1.25722c-3.34934,0.41488 -6.69753,0.82977 -10.14864,1.25722zm388.79287,13.82943c-0.37736,0.41488 -0.75472,0.82977 -1.14351,1.25722c-1.48427,-0.01131 -2.96969,-0.02137 -4.49971,-0.03269c-2.28816,0.01006 -4.57746,0.02137 -6.93538,0.03269c-4.67695,0.37088 -4.67695,0.37088 -9.44767,0.74805c-3.69125,0.34448 -7.38249,0.68896 -11.18466,1.04475c-6.12806,0.56952 -6.12806,0.56952 -12.37962,1.15161c-4.271,0.40231 -8.54201,0.80588 -12.94337,1.22076c-4.17724,0.38722 -8.35562,0.77571 -12.66093,1.1755c-4.11549,0.38471 -8.23212,0.76942 -12.47339,1.1667c-4.02172,0.38471 -8.04344,0.77068 -12.18751,1.1667c-5.75871,0.55821 -5.75871,0.55821 -11.63405,1.12647c-5.40765,0.51672 -5.40765,0.51672 -10.92394,1.04349c-4.84505,0.48277 -4.84505,0.48277 -9.78843,0.9756c-4.25271,0.41865 -4.25271,0.41865 -8.59118,0.84485c-2.02858,0.29922 -4.05602,0.59969 -6.14521,0.90771c-0.37736,0.82977 -0.75472,1.65953 -1.14351,2.51444c0.37736,2.07441 0.75472,4.14883 1.14351,6.2861c-0.10863,2.83503 -0.21841,5.66881 -0.33047,8.58933c-0.12693,3.31152 -0.25386,6.62178 -0.38422,10.03388c-0.15666,3.32661 -0.31218,6.65447 -0.47341,10.08165c0.39222,2.5597 0.78445,5.11815 1.18811,7.75454c1.84562,0.18481 3.69125,0.36962 5.5929,0.55946c2.30531,-0.18481 4.61063,-0.36962 6.98569,-0.55946c2.00571,-0.16344 4.01257,-0.32813 6.07889,-0.4966c2.0606,-0.23133 4.12235,-0.46266 6.2447,-0.70153c3.39165,-0.391 3.39165,-0.391 6.85076,-0.79079c2.32818,-0.27659 4.65637,-0.55443 7.05545,-0.83982c2.35906,-0.25773 4.71812,-0.51546 7.14807,-0.78073c2.25042,-0.26779 4.50085,-0.53432 6.81874,-0.81091c2.0526,-0.23636 4.10405,-0.47397 6.2184,-0.71787c1.6638,-0.37842 3.32761,-0.75685 5.04287,-1.14784c1.50943,-1.65953 3.01886,-3.31906 4.57403,-5.02888c1.88679,-2.90418 3.77358,-5.80836 5.71754,-8.80054c2.26415,-1.65953 4.52829,-3.31906 6.86105,-5.02888c3.39622,0 6.79244,0 10.29158,0c2.26415,1.65953 4.52829,3.31906 6.86105,5.02888c1.50943,2.4893 3.01886,4.97859 4.57403,7.54332c2.49971,0 4.99942,0 7.57574,0c4.74099,-0.62232 4.74099,-0.62232 9.57688,-1.25722c2.76386,0.16972 2.76386,0.16972 5.58375,0.34448c2.75471,0.06286 2.75471,0.06286 5.56546,0.12698c3.11263,-0.98566 6.2264,-1.97006 9.43394,-2.9859c0.96169,-3.24489 0.96169,-3.24489 1.94282,-6.55641c0.27902,-2.63262 0.55689,-5.2665 0.84505,-7.97958c0.13836,-3.9703 0.13836,-3.9703 0.2813,-8.01981c0.11892,-2.09956 0.23785,-4.19786 0.36135,-6.36028c1.13207,-0.41488 2.26415,-0.82977 3.43053,-1.25722c-0.04688,-2.10082 -0.09491,-4.20037 -0.14294,-6.36405c-0.49514,-3.07265 -0.49514,-3.07265 -1.00057,-6.20816c-1.13207,0 -2.26415,0 -3.43053,0zm-154.37364,15.08665c-2.7307,0.36837 -5.46025,0.73547 -8.27328,1.1139c-3.267,0.51169 -6.53286,1.02212 -9.89821,1.54764c-3.57118,0.55569 -7.14235,1.11264 -10.82216,1.68468c-3.7347,0.58838 -7.46825,1.17676 -11.31502,1.78274c-5.5746,0.86748 -5.5746,0.86748 -11.26127,1.75382c-3.57689,0.55821 -7.15493,1.11767 -10.84046,1.69348c-3.27158,0.5142 -6.54316,1.02715 -9.91307,1.55644c-2.92624,0.47523 -5.85133,0.95046 -8.86562,1.43952c-2.5809,0.42494 -5.1618,0.84988 -7.82045,1.28739c-2.92166,0.60724 -2.92166,0.60724 -5.90165,1.22705c-1.13207,0.82977 -2.26415,1.65953 -3.43053,2.51444c-0.24357,2.9859 -0.48599,5.97054 -0.73756,9.0457c-0.06289,3.70503 -0.12579,7.41006 -0.19097,11.22698c-0.10177,3.71132 -0.20354,7.42263 -0.30875,11.24584c0.40823,2.87526 0.81647,5.75053 1.23728,8.71254c1.48656,0.22881 2.97312,0.45763 4.50542,0.69399c2.28702,-0.22881 4.57289,-0.45763 6.92966,-0.69399c3.12864,-0.32939 6.25842,-0.65878 9.48197,-0.99823c3.68095,-0.45889 7.36191,-0.91651 11.15492,-1.38797c6.01142,-0.7493 6.01142,-0.7493 12.1452,-1.51244c6.27329,-0.79331 6.27329,-0.79331 12.67236,-1.6017c4.20011,-0.51797 8.39907,-1.03721 12.72611,-1.57153c4.00228,-0.50163 8.00456,-1.00452 12.12691,-1.52249c3.67638,-0.46014 7.35276,-0.92154 11.14006,-1.39677c2.9331,-0.43626 5.86734,-0.87377 8.88963,-1.32385c2.26415,-0.82977 4.52829,-1.65953 6.86105,-2.51444c0.23442,-2.83629 0.46884,-5.67258 0.71012,-8.59436c-0.06861,-3.54285 -0.13836,-7.0857 -0.20926,-10.73541c-0.07318,-5.30421 -0.07318,-5.30421 -0.14751,-10.71529c-0.17496,-4.42039 -0.17496,-4.42039 -0.35334,-8.92878c-0.56604,-2.4893 -0.56604,-2.4893 -1.14351,-5.02888c-3.01886,0 -6.03772,0 -9.14807,0zm-471.12547,7.54332c-0.37736,0.82977 -0.75472,1.65953 -1.14351,2.51444c0.75472,0 1.50943,0 2.28702,0c-0.37736,-0.82977 -0.75472,-1.65953 -1.14351,-2.51444zm-3.43053,2.51444c-1.13207,1.24465 -2.26415,2.4893 -3.43053,3.77166c0.37736,1.65953 0.75472,3.31906 1.14351,5.02888c1.13207,-1.24465 2.26415,-2.4893 3.43053,-3.77166c0.37736,-1.65953 0.75472,-3.31906 1.14351,-5.02888c-0.75472,0 -1.50943,0 -2.28702,0zm628.92964,0c0,0.82977 0,1.65953 0,2.51444c1.13207,0 2.26415,0 3.43053,0c0,-0.82977 0,-1.65953 0,-2.51444c-1.13207,0 -2.26415,0 -3.43053,0zm1.14351,5.02888c-0.37736,1.24465 -0.75472,2.4893 -1.14351,3.77166c1.13207,0 2.26415,0 3.43053,0c0,-1.24465 0,-2.4893 0,-3.77166c-0.75472,0 -1.50943,0 -2.28702,0zm-635.79069,2.51444c-0.75472,2.07441 -1.50943,4.14883 -2.28702,6.2861c0.37736,1.65953 0.75472,3.31906 1.14351,5.02888c0.75472,0.41488 1.50943,0.82977 2.28702,1.25722c0.37736,-3.31906 0.75472,-6.63812 1.14351,-10.05777c-0.75472,-0.82977 -1.50943,-1.65953 -2.28702,-2.51444zm376.21427,0c-1.69811,4.35627 -1.69811,4.35627 -3.43053,8.80054c-0.28588,2.64393 -0.57175,5.28661 -0.86678,8.00975c-0.13836,2.93184 -0.27673,5.86368 -0.41967,8.88478c-0.1681,2.95447 -0.33619,5.90894 -0.50886,8.95267c0.21498,2.25671 0.42996,4.51468 0.6518,6.84054c2.6415,0 5.28301,0 8.00456,0c0.37736,-1.65953 0.75472,-3.31906 1.14351,-5.02888c0.05031,-2.58359 0.10063,-5.16592 0.15209,-7.82746c-0.00457,-4.6052 -0.00457,-4.6052 -0.00915,-9.30218c0.00343,-3.07642 0.00572,-6.15158 0.00915,-9.32103c-0.07547,-3.71006 -0.07547,-3.71006 -0.15209,-7.49429c-0.37736,-0.82977 -0.75472,-1.65953 -1.14351,-2.51444c-1.13207,0 -2.26415,0 -3.43053,0zm196.68345,2.51444c-2.44139,1.94492 -2.44139,1.94492 -4.93081,3.92881c-1.39165,1.60799 -2.7833,3.21597 -4.21726,4.87173c-1.50943,2.4893 -3.01886,4.97859 -4.57403,7.54332c0.37736,0.41488 0.75472,0.82977 1.14351,1.25722c2.26415,0 4.52829,0 6.86105,0c1.88679,-1.65953 3.77358,-3.31906 5.71754,-5.02888c0.75472,-0.41488 1.50943,-0.82977 2.28702,-1.25722c2.6415,0 5.28301,0 8.00456,0c1.50943,1.24465 3.01886,2.4893 4.57403,3.77166c1.88679,-0.82977 3.77358,-1.65953 5.71754,-2.51444c-1.13207,-2.07441 -2.26415,-4.14883 -3.43053,-6.2861c-2.26415,-2.07441 -4.52829,-4.14883 -6.86105,-6.2861c-3.39622,0 -6.79244,0 -10.29158,0zm-385.36234,0c-1.88679,0.41488 -3.77358,0.82977 -5.71754,1.25722c2.83018,3.73395 2.83018,3.73395 5.71754,7.54332c3.01886,-0.41488 6.03772,-0.82977 9.14807,-1.25722c-2.6415,1.24465 -5.28301,2.4893 -8.00456,3.77166c-2.26415,0.82977 -4.52829,1.65953 -6.86105,2.51444c0,0.41488 0,0.82977 0,1.25722c1.88679,0.23384 3.77358,0.46643 5.71754,0.70782c2.83018,0.27156 2.83018,0.27156 5.71754,0.54941c-1.43853,2.4629 -2.87707,4.92705 -4.35905,7.46538c-1.95769,2.92932 -3.91537,5.85991 -5.93252,8.87849c-2.09948,2.12596 -4.19782,4.25318 -6.36019,6.44326c-2.0526,1.60799 -4.10405,3.21597 -6.2184,4.87173c-3.01886,1.24465 -6.03772,2.4893 -9.14807,3.77166c-2.6415,0 -5.28301,0 -8.00456,0c-1.69811,-3.11162 -1.69811,-3.11162 -3.43053,-6.2861c-0.37736,-2.4893 -0.75472,-4.97859 -1.14351,-7.54332c-0.75472,1.24465 -1.50943,2.4893 -2.28702,3.77166c-1.50943,2.90418 -3.01886,5.80836 -4.57403,8.80054c0,0.82977 0,1.65953 0,2.51444c-1.13207,-1.24465 -2.26415,-2.4893 -3.43053,-3.77166c-0.75472,-1.65953 -1.50943,-3.31906 -2.28702,-5.02888c-2.6415,1.24465 -5.28301,2.4893 -8.00456,3.77166c1.13207,-2.4893 2.26415,-4.97859 3.43053,-7.54332c1.88679,-1.65953 3.77358,-3.31906 5.71754,-5.02888c2.6415,-0.82977 5.28301,-1.65953 8.00456,-2.51444c1.13207,-2.4893 2.26415,-4.97859 3.43053,-7.54332c2.26415,-1.24465 4.52829,-2.4893 6.86105,-3.77166c2.28473,-0.5318 4.56946,-1.06361 6.92394,-1.6105c2.57289,-0.5054 5.14693,-1.01206 7.79873,-1.53255c2.59119,-0.5054 5.18238,-1.01081 7.85247,-1.53255c1.98399,-0.53055 3.96797,-1.06235 6.01257,-1.6105c0,-1.24465 0,-2.4893 0,-3.77166c-2.83018,-3.11162 -2.83018,-3.11162 -5.71754,-6.2861c-2.28816,0.18104 -4.57518,0.36334 -6.93195,0.55066c-2.61863,0.64747 -5.23613,1.29619 -7.93366,1.96378c-3.50257,1.04978 -3.50257,1.04978 -7.07603,2.12219c-2.19325,0.95926 -4.3865,1.91852 -6.64607,2.90669c-1.83076,1.18053 -3.66151,2.3598 -5.5483,3.57554c-1.94282,1.72365 -3.88564,3.44856 -5.88678,5.22501c-1.62035,2.52324 -3.23956,5.04648 -4.90908,7.64642c-2.20468,4.18906 -2.20468,4.18906 -4.45397,8.46235c-1.50143,2.80863 -3.004,5.61726 -4.55116,8.51013c-1.06918,2.24791 -2.13722,4.49582 -3.23842,6.81162c0.37736,0.82977 0.75472,1.65953 1.14351,2.51444c4.4574,0.05155 4.4574,0.05155 9.00513,0.10309c1.85934,-0.04777 3.71755,-0.09555 5.63292,-0.14458c2.94225,-0.09555 2.94225,-0.09555 5.9451,-0.19361c1.92681,-0.04023 3.85362,-0.08046 5.83761,-0.12069c1.87078,-0.05657 3.74156,-0.11189 5.66837,-0.16972c5.06002,-0.36208 5.06002,-0.36208 10.22068,-0.7317c1.79988,-0.55821 3.59976,-1.11641 5.45454,-1.69096c1.59634,-0.68644 3.19268,-1.37288 4.83704,-2.0807c1.74499,-1.27105 3.49113,-2.54084 5.28873,-3.84961c1.65123,-1.63439 3.30131,-3.26752 5.00285,-4.95093c2.0869,-2.87778 2.0869,-2.87778 4.21726,-5.81465c1.87421,-3.34546 1.87421,-3.34546 3.7873,-6.75756c1.27387,-2.82623 2.54659,-5.65246 3.85934,-8.56419c0.99028,-2.56724 1.98056,-5.13449 3.00171,-7.77968c0.37736,-2.07441 0.75472,-4.14883 1.14351,-6.2861c-1.88679,-0.82977 -3.77358,-1.65953 -5.71754,-2.51444c-2.6415,0 -5.28301,0 -8.00456,0zm-189.8224,10.05777c0,1.24465 0,2.4893 0,3.77166c0.75472,2.4893 1.50943,4.97859 2.28702,7.54332c0.75472,0 1.50943,0 2.28702,0c-0.37736,-2.90418 -0.75472,-5.80836 -1.14351,-8.80054c-1.13207,-0.82977 -2.26415,-1.65953 -3.43053,-2.51444zm179.53082,3.77166c0,1.24465 0,2.4893 0,3.77166c0.75472,0 1.50943,0 2.28702,0c0,-1.24465 0,-2.4893 0,-3.77166c-0.75472,0 -1.50943,0 -2.28702,0zm-125.78593,2.51444c-0.40091,2.12596 -0.80183,4.25318 -1.21498,6.44326c-0.3538,2.43775 -0.7076,4.8755 -1.07204,7.38617c-1.88679,2.07441 -3.77358,4.14883 -5.71754,6.2861c-0.75472,0.41488 -1.50943,0.82977 -2.28702,1.25722c-0.37736,-2.07441 -0.75472,-4.14883 -1.14351,-6.2861c-0.37736,0 -0.75472,0 -1.14351,0c0.14145,1.84057 0.28302,3.6824 0.42882,5.57955c0.23579,1.89212 0.4717,3.78549 0.71469,5.73544c0.75472,0.41488 1.50943,0.82977 2.28702,1.25722c0,-1.24465 0,-2.4893 0,-3.77166c1.88679,-1.24465 3.77358,-2.4893 5.71754,-3.77166c1.50943,0.41488 3.01886,0.82977 4.57403,1.25722c2.26415,1.24465 4.52829,2.4893 6.86105,3.77166c0.75472,-1.65953 1.50943,-3.31906 2.28702,-5.02888c0.1179,-2.04801 0.23591,-4.09728 0.35735,-6.2069c-0.1179,-2.10082 -0.23591,-4.20163 -0.35735,-6.36531c-1.13207,-2.07441 -2.26415,-4.14883 -3.43053,-6.2861c-3.39622,-0.62232 -3.39622,-0.62232 -6.86105,-1.25722zm114.35084,0c1.13207,1.29619 2.26415,2.59365 3.43053,3.92881c1.69811,2.41135 1.69811,2.41135 3.43053,4.87173c0,2.4893 0,4.97859 0,7.54332c-2.24013,0.10435 -4.48141,0.20744 -6.79015,0.31431c-2.28702,-0.10309 -4.57518,-0.20744 -6.93195,-0.31431c-0.37736,0.82977 -0.75472,1.65953 -1.14351,2.51444c1.50943,3.31906 3.01886,6.63812 4.57403,10.05777c1.88679,-0.41488 3.77358,-0.82977 5.71754,-1.25722c2.28816,-1.97006 4.57518,-3.94139 6.93195,-5.9718c2.24128,-2.17751 4.48141,-4.35627 6.79015,-6.60041c1.50943,-2.07441 3.01886,-4.14883 4.57403,-6.2861c0,-0.82977 0,-1.65953 0,-2.51444c-2.26415,-0.82977 -4.52829,-1.65953 -6.86105,-2.51444c-1.50943,-1.24465 -3.01886,-2.4893 -4.57403,-3.77166c-3.01886,0 -6.03772,0 -9.14807,0zm-165.80872,6.2861c-0.37736,1.24465 -0.75472,2.4893 -1.14351,3.77166c-0.75472,0.82977 -1.50943,1.65953 -2.28702,2.51444c1.50943,0 3.01886,0 4.57403,0c0.37736,-2.07441 0.75472,-4.14883 1.14351,-6.2861c-0.75472,0 -1.50943,0 -2.28702,0zm3.43053,-6.2861c-0.07078,1.99647 -0.14157,3.99293 -0.21441,6.051c0.07078,2.56599 0.14157,5.13323 0.21441,7.77842c0.28302,3.85087 0.28302,3.85087 0.57175,7.77968c0.18868,1.99647 0.37736,3.99293 0.57175,6.04975c-4.15094,-1.65953 -8.30187,-3.31906 -12.57859,-5.02888c0,3.31906 0,6.63812 0,10.05777c2.16981,0.80336 4.33961,1.60799 6.57517,2.43649c3.53779,0.6613 3.53779,0.6613 7.14693,1.33517c1.50943,0.41488 3.01886,0.82977 4.57403,1.25722c3.01886,1.65953 6.03772,3.31906 9.14807,5.02888c2.7594,0.67387 5.5188,1.349 8.36191,2.04298c1.68187,0.2967 3.36374,0.59341 5.09662,0.89891c2.96066,0.41111 2.96066,0.41111 5.98112,0.82977c2.45729,0.2615 4.91446,0.52175 7.44618,0.79079c3.95562,0.34825 3.95562,0.34825 7.99118,0.70279c3.96443,0.28916 3.96443,0.28916 8.00902,0.58335c2.45134,0.14458 4.90268,0.28916 7.42835,0.43751c1.92064,0.0792 3.84139,0.15841 5.82023,0.24139c2.46094,0.03646 2.46094,0.03646 4.97163,0.07292c2.85374,-0.10309 5.70748,-0.20744 8.64778,-0.31431c2.18605,-0.43123 4.37209,-0.86245 6.62434,-1.30625c2.34191,-0.39854 4.68495,-0.79708 7.09776,-1.20819c2.00228,0.01006 4.00342,0.02012 6.06631,0.03017c2.10177,0.14584 4.20354,0.29168 6.36934,0.44128c2.44368,0.13578 4.8885,0.27282 7.4065,0.41237c2.88622,0.12321 5.77243,0.24642 8.74555,0.37339c1.80331,0.03017 3.60777,0.06035 5.46597,0.09052c2.89765,0.02389 2.89765,0.02389 5.85248,0.04652c1.9554,0.00629 3.90966,0.01257 5.92452,0.01886c1.95083,0 3.90279,0.00126 5.91308,0.00126c1.91195,0.00503 3.82389,0.01131 5.79301,0.01634c2.69525,-0.00251 2.69525,-0.00251 5.44539,-0.00629c4.4837,-0.08298 4.4837,-0.08298 9.05887,-0.16721c2.83018,-0.62232 2.83018,-0.62232 5.71754,-1.25722c-1.13207,-3.11162 -1.13207,-3.11162 -2.28702,-6.2861c-1.13207,-2.07441 -2.26415,-4.14883 -3.43053,-6.2861c-3.39622,0.62232 -3.39622,0.62232 -6.86105,1.25722c-2.67238,0.12824 -2.67238,0.12824 -5.39736,0.25773c-3.10806,0.06915 -3.10806,0.06915 -6.279,0.14081c-2.24814,0.05155 -4.49628,0.10435 -6.81188,0.15841c-3.51286,0.07418 -3.51286,0.07418 -7.09776,0.15087c-2.36935,0.05406 -4.73756,0.10812 -7.1778,0.16344c-3.35848,0.07669 -3.35848,0.07669 -6.78558,0.1559c-3.09662,0.06663 -3.09662,0.06663 -6.25499,0.13452c-1.48885,0.03143 -2.97655,0.06286 -4.51,0.09555c1.50943,-3.31906 3.01886,-6.63812 4.57403,-10.05777c2.40594,-4.27832 2.40594,-4.27832 4.85991,-8.64339c1.41566,-2.54084 2.83018,-5.08169 4.28816,-7.70048c0,-0.82977 0,-1.65953 0,-2.51444c-1.88679,0.41488 -3.77358,0.82977 -5.71754,1.25722c-1.50943,2.90418 -3.01886,5.80836 -4.57403,8.80054c1.13207,-2.4893 2.26415,-4.97859 3.43053,-7.54332c0,-0.82977 0,-1.65953 0,-2.51444c-1.88679,0 -3.77358,0 -5.71754,0c-1.47513,2.49935 -1.47513,2.49935 -2.97884,5.049c-0.97541,2.17122 -1.94968,4.34244 -2.95368,6.58029c-1.47398,3.2386 -1.47398,3.2386 -2.97884,6.54132c-1.24871,2.83 -1.24871,2.83 -2.52372,5.71658c-0.75472,1.65953 -1.50943,3.31906 -2.28702,5.02888c-1.50943,0.82977 -3.01886,1.65953 -4.57403,2.51444c-2.6415,0.82977 -5.28301,1.65953 -8.00456,2.51444c-2.91126,0.12446 -5.82252,0.25019 -8.82194,0.37842c-1.69251,0.01131 -3.38501,0.02263 -5.12886,0.0352c-1.78765,-0.00629 -3.57541,-0.01383 -5.41737,-0.02012c-1.83419,-0.00503 -3.66838,-0.0088 -5.55814,-0.01383c-1.8391,-0.0176 -3.67832,-0.03646 -5.57323,-0.05532c-1.81532,-0.04023 -3.63052,-0.08046 -5.50085,-0.12195c-1.70474,-0.06663 -3.40948,-0.13327 -5.16591,-0.20241c-4.18341,-0.35454 -4.18341,-0.35454 -8.45121,-0.71662c-2.37621,-0.30802 -4.75242,-0.61604 -7.20056,-0.93286c-2.05626,-0.30676 -4.11263,-0.61352 -6.23121,-0.92909c-1.83522,-0.39351 -3.67043,-0.78702 -5.56122,-1.1931c-1.84699,-0.51043 -3.69399,-1.02086 -5.5969,-1.54638c-1.54923,-0.73422 -3.09845,-1.46843 -4.69467,-2.22528c-1.50943,-2.4893 -3.01886,-4.97859 -4.57403,-7.54332c-0.44814,-1.94492 -0.89628,-3.88984 -1.35792,-5.89259c-0.45992,-3.30649 -0.45992,-3.30649 -0.9291,-6.67961c-0.28302,-3.81189 -0.28302,-3.81189 -0.57175,-7.70048c-0.18868,-2.02287 -0.37736,-4.04448 -0.57175,-6.12895c-0.75472,0 -1.50943,0 -2.28702,0zm251.57186,7.54332c-2.79473,0.70027 -2.79473,0.70027 -5.64664,1.41437c-1.90966,0.77822 -3.82046,1.55644 -5.78844,2.35729c-2.90108,1.6721 -2.90108,1.6721 -5.86048,3.37941c-1.83991,1.37414 -3.67867,2.74828 -5.5746,4.16391c-1.6032,1.60799 -3.20754,3.21597 -4.85991,4.87173c-1.41566,1.71108 -2.83018,3.42341 -4.28816,5.18604c-1.32075,1.78902 -2.6415,3.57805 -4.00228,5.42239c-0.94339,1.52878 -1.88679,3.05882 -2.85877,4.63537c0,1.24465 0,2.4893 0,3.77166c3.96226,0.38848 3.96226,0.38848 8.00456,0.78576c4.52829,-0.38848 4.52829,-0.38848 9.14807,-0.78576c1.6741,-1.34774 3.34934,-2.69674 5.07489,-4.08597c1.34362,-1.55518 2.68839,-3.11162 4.07318,-4.71458c3.01886,-1.65953 6.03772,-3.31906 9.14807,-5.02888c1.50943,-0.41488 3.01886,-0.82977 4.57403,-1.25722c2.97198,-0.1559 2.97198,-0.1559 6.00342,-0.31431c2.17038,0.10435 4.33961,0.20744 6.57517,0.31431c3.01886,1.24465 6.03772,2.4893 9.14807,3.77166c2.83018,2.4893 2.83018,2.4893 5.71754,5.02888c1.88679,-0.41488 3.77358,-0.82977 5.71754,-1.25722c1.13207,-0.82977 2.26415,-1.65953 3.43053,-2.51444c-1.13207,-3.11162 -1.13207,-3.11162 -2.28702,-6.2861c-1.17896,-1.65953 -2.35791,-3.31906 -3.57346,-5.02888c-1.46255,-1.65953 -2.92395,-3.31906 -4.4311,-5.02888c-1.50943,-1.1931 -3.01886,-2.38495 -4.57403,-3.61451c-1.50943,-0.88131 -3.01886,-1.76262 -4.57403,-2.67159c-2.6415,-0.82977 -5.28301,-1.65953 -8.00456,-2.51444c-3.39622,0 -6.79244,0 -10.29158,0zm-261.86343,6.2861c-0.37736,1.65953 -0.75472,3.31906 -1.14351,5.02888c2.83018,2.4893 2.83018,2.4893 5.71754,5.02888c1.50943,0 3.01886,0 4.57403,0c0,-0.82977 0,-1.65953 0,-2.51444c-1.88679,-0.41488 -3.77358,-0.82977 -5.71754,-1.25722c-0.37736,-2.07441 -0.75472,-4.14883 -1.14351,-6.2861c-0.75472,0 -1.50943,0 -2.28702,0zm633.50367,-1.25722c-2.12464,0.53055 -4.24813,1.05984 -6.43681,1.60547c-3.92452,1.03344 -3.92452,1.03344 -7.92794,2.08824c-3.92909,1.02841 -3.92909,1.02841 -7.93824,2.07693c-2.07432,0.58461 -4.14751,1.17047 -6.28472,1.77268c-0.37736,0.41488 -0.75472,0.82977 -1.14351,1.25722c-0.21269,3.34546 -0.42424,6.68967 -0.64265,10.13697c-0.16581,3.29266 -0.33047,6.58532 -0.50086,9.97856c4.52829,-0.62232 4.52829,-0.62232 9.14807,-1.25722c1.67181,-0.64621 3.34362,-1.29368 5.06574,-1.95875c1.67753,-0.78073 3.35505,-1.56021 5.08289,-2.36232c3.06575,-1.47849 6.13149,-2.95698 9.29101,-4.47948c0.75472,-0.82977 1.50943,-1.65953 2.28702,-2.51444c0.75472,-3.31906 1.50943,-6.63812 2.28702,-10.05777c0,-2.07441 0,-4.14883 0,-6.2861c-0.75472,0 -1.50943,0 -2.28702,0zm-52.60139,7.54332c-1.88679,2.07441 -3.77358,4.14883 -5.71754,6.2861c-0.68382,1.63313 -1.36764,3.26752 -2.07204,4.95093c-0.44826,2.09956 -0.89651,4.20037 -1.35849,6.36405c-0.0709,3.13802 -0.1418,6.27479 -0.21498,9.50836c0.0709,2.67034 0.1418,5.34067 0.21498,8.09273c1.88679,-0.41488 3.77358,-0.82977 5.71754,-1.25722c0,1.24465 0,2.4893 0,3.77166c-1.50943,-0.41488 -3.01886,-0.82977 -4.57403,-1.25722c0.37736,2.07441 0.75472,4.14883 1.14351,6.2861c1.50943,2.07441 3.01886,4.14883 4.57403,6.2861c1.50943,0.41488 3.01886,0.82977 4.57403,1.25722c1.88679,-1.24465 3.77358,-2.4893 5.71754,-3.77166c1.50943,-2.90418 3.01886,-5.80836 4.57403,-8.80054c0.37736,-2.07441 0.75472,-4.14883 1.14351,-6.2861c0.11778,-2.59239 0.23556,-5.18604 0.35677,-7.85763c-0.1761,-4.20037 -0.1761,-4.20037 -0.35677,-8.48624c-1.02573,-3.18957 -1.02573,-3.18957 -2.07204,-6.44326c-0.82561,-1.60799 -1.65123,-3.21471 -2.502,-4.87173c-1.13207,-1.24465 -2.26415,-2.4893 -3.43053,-3.77166c-1.88679,0 -3.77358,0 -5.71754,0zm-531.73142,7.54332c1.14351,2.51444 1.14351,2.51444 1.14351,2.51444l-1.14351,-2.51444zm511.14827,-1.25722c-1.79416,0.26024 -3.58719,0.52049 -5.4351,0.78828c-3.5323,0.5406 -3.5323,0.5406 -7.13435,1.09252c-2.55231,0.39225 -5.10348,0.78325 -7.7324,1.18682c-2.68724,0.41363 -5.37449,0.82725 -8.14292,1.25471c-4.01715,0.61352 -4.01715,0.61352 -8.11662,1.23962c-3.8319,0.58964 -3.8319,0.58964 -7.74041,1.19059c-3.53573,0.54312 -3.53573,0.54312 -7.14235,1.09755c-1.89136,0.31431 -3.78273,0.62735 -5.73126,0.95046c-1.50943,0.41488 -3.01886,0.82977 -4.57403,1.25722c-0.66095,3.21597 -1.32075,6.43068 -2.00114,9.74346c-0.47227,3.42341 -0.94339,6.84557 -1.42939,10.37207c0,2.07441 0,4.14883 0,6.2861c2.74671,-0.50037 5.49227,-1.002 8.32131,-1.51747c1.77015,-0.32311 3.53916,-0.64621 5.36305,-0.97937c2.81303,-0.5142 2.81303,-0.5142 5.68438,-1.03846c2.69982,-0.49283 2.69982,-0.49283 5.45568,-0.99446c1.79416,-0.32813 3.58947,-0.65627 5.43853,-0.99446c2.69754,-0.49786 2.69754,-0.49786 5.44882,-1.00578c1.79988,-0.33442 3.59976,-0.66884 5.45454,-1.01332c1.85477,-0.34574 3.70954,-0.69147 5.62034,-1.04726c2.63236,-0.50037 2.63236,-0.50037 5.31846,-1.01081c2.80617,-0.56449 5.6112,-1.13024 8.50084,-1.71359c0.75472,-0.41488 1.50943,-0.82977 2.28702,-1.25722c1.20297,-4.55114 1.20297,-4.55114 2.42996,-9.1928c0.70783,-3.18957 1.41452,-6.37914 2.14408,-9.66551c0,-1.65953 0,-3.31906 0,-5.02888c-0.75472,0 -1.50943,0 -2.28702,0zm-510.00476,3.77166c0.37736,0.82977 0.75472,1.65953 1.14351,2.51444c1.13207,-0.41488 2.26415,-0.82977 3.43053,-1.25722c-1.50943,-0.41488 -3.01886,-0.82977 -4.57403,-1.25722zm444.82478,6.2861c-2.21612,0.26905 -4.43224,0.53935 -6.71583,0.81594c-4.44139,0.67387 -4.44139,0.67387 -8.97197,1.36031c-3.26357,0.49157 -6.52715,0.98315 -9.88906,1.48981c-3.44653,0.52803 -6.89307,1.05481 -10.44366,1.59918c-3.34019,0.50289 -6.68038,1.00578 -10.12234,1.52501c-3.29788,0.49912 -6.5969,0.99949 -9.99655,1.51495c-3.24871,0.50037 -6.49741,1.002 -9.84446,1.51872c-4.69639,0.73799 -4.69639,0.73799 -9.48769,1.49106c-2.98913,0.48026 -5.97826,0.96177 -9.05887,1.45712c-2.70668,0.44757 -5.41223,0.89514 -8.20124,1.35654c-2.38993,0.39854 -4.77987,0.79582 -7.24298,1.20567c-2.58776,0.49912 -2.58776,0.49912 -5.22812,1.00955c-0.37736,0.41488 -0.75472,0.82977 -1.14351,1.25722c-0.37736,2.90418 -0.75472,5.80836 -1.14351,8.80054c-0.37736,3.31906 -0.75472,6.63812 -1.14351,10.05777c-0.21269,2.07441 -0.42424,4.14883 -0.64265,6.2861c-0.16581,1.65953 -0.33047,3.31906 -0.50086,5.02888c3.4431,-0.61981 3.4431,-0.61981 6.95482,-1.25219c3.29445,-0.59844 6.5889,-1.19562 9.98283,-1.81165c1.78959,-0.32688 3.57918,-0.65501 5.42137,-0.99069c1.91423,-0.35328 3.82847,-0.7053 5.79987,-1.06738c2.05946,-0.3822 4.11892,-0.76313 6.24013,-1.15664c2.23327,-0.4174 4.46654,-0.83479 6.76728,-1.26476c2.48942,-0.47146 4.97884,-0.94166 7.54487,-1.42695c2.60377,-0.4966 5.20868,-0.9932 7.8925,-1.50489c2.6152,-0.50289 5.23041,-1.00452 7.92451,-1.52249c2.59805,-0.50037 5.19496,-1.002 7.86963,-1.51747c2.55117,-0.4878 5.10119,-0.97686 7.73012,-1.47975c2.39679,-0.46517 4.79473,-0.92909 7.26585,-1.40809c2.1395,-0.41237 4.27787,-0.82599 6.48255,-1.25093c1.85134,-0.39728 3.70154,-0.79456 5.60891,-1.20442c2.6415,-0.82977 5.28301,-1.65953 8.00456,-2.51444c0.70783,-2.3334 1.41452,-4.6668 2.14408,-7.07187c0.63693,-3.96779 0.63693,-3.96779 1.28645,-8.01478c0.37736,-3.31906 0.75472,-6.63812 1.14351,-10.05777c-1.13207,-0.62232 -1.13207,-0.62232 -2.28702,-1.25722zm-113.20733,17.60109c-1.88679,0.41488 -3.77358,0.82977 -5.71754,1.25722c-0.87593,2.71811 -0.87593,2.71811 -1.76901,5.49028c-0.45397,2.28563 -0.90795,4.57 -1.37564,6.92477c-0.46541,2.27934 -0.93196,4.55742 -1.41109,6.90466c-0.38422,1.92229 -0.76729,3.84458 -1.1618,5.8247c-0.56604,1.86697 -0.56604,1.86697 -1.14351,3.77166c-2.7833,0.78953 -5.56546,1.57907 -8.43337,2.39123c-1.76558,0.41991 -3.5323,0.83857 -5.35162,1.26979c-1.86621,0.4262 -3.73241,0.85114 -5.65465,1.28991c-2.69296,0.62987 -2.69296,0.62987 -5.44081,1.27356c-2.68381,0.63112 -2.68381,0.63112 -5.42252,1.27482c-1.78845,0.41614 -3.57575,0.83228 -5.41794,1.26099c-2.69525,0.64244 -2.69525,0.64244 -5.44539,1.29745c-1.87993,0.47523 -3.75871,0.95046 -5.69467,1.43952c-1.77701,0.46014 -3.55288,0.92029 -5.38364,1.39426c-2.75929,0.72416 -5.51857,1.44832 -8.36133,2.19511c0.37736,-1.24465 0.75472,-2.4893 1.14351,-3.77166c0.21269,-2.02287 0.42424,-4.04448 0.64265,-6.12895c0.16581,-2.54084 0.33047,-5.08169 0.50086,-7.70048c0.24814,-4.47319 0.24814,-4.47319 0.50086,-9.03564c-0.16581,-2.41261 -0.33047,-4.82396 -0.50086,-7.30822c-2.26415,0 -4.52829,0 -6.86105,0c-0.18868,2.64645 -0.37736,5.2929 -0.57175,8.01981c0.18868,3.39575 0.37736,6.79025 0.57175,10.28909c0.1418,3.39827 0.28245,6.79653 0.42882,10.29789c0.61292,2.59113 1.22698,5.18226 1.8582,7.8526c2.5546,0.0088 2.5546,0.0088 5.16065,0.01634c2.07089,-0.41991 4.14064,-0.83982 6.27443,-1.27356c1.75872,-0.36962 3.51743,-0.7405 5.32989,-1.12144c1.79531,-0.4438 3.59062,-0.88634 5.43967,-1.34397c3.00171,-0.73422 3.00171,-0.73422 6.06403,-1.48352c2.06289,-0.51169 4.12578,-1.02338 6.25156,-1.55141c2.04002,-0.50163 4.08118,-1.00452 6.18409,-1.52249c2.008,-0.49283 4.016,-0.98566 6.08575,-1.49232c1.95083,-0.48026 3.90165,-0.95926 5.9108,-1.45335c1.85477,-0.4438 3.7084,-0.88885 5.61806,-1.34648c3.27386,-0.71662 6.54773,-1.43197 9.92108,-2.16996c2.3865,-0.52929 4.773,-1.05732 7.23155,-1.6017c1.13207,-0.62232 1.13207,-0.62232 2.28702,-1.25722c0.32133,-2.21899 0.64265,-4.43673 0.97427,-6.72362c0.43682,-4.17774 0.43682,-4.17774 0.88393,-8.44098c0.29731,-2.78977 0.59577,-5.57829 0.90223,-8.45229c0.2207,-2.16368 0.44254,-4.32735 0.6701,-6.55641c-1.88679,0 -3.77358,0 -5.71754,0zm-18.29613,2.51444c-1.93825,0.05783 -3.87649,0.11441 -5.8742,0.1735c-3.14122,0.16218 -3.14122,0.16218 -6.34762,0.32813c-2.28587,0.17224 -4.57289,0.34448 -6.92852,0.52175c-2.3602,0.23259 -4.71926,0.46517 -7.15036,0.7053c-2.36706,0.2703 -4.73527,0.5406 -7.17437,0.81845c-2.24814,0.37842 -4.49513,0.75685 -6.81074,1.14659c-2.05717,0.51546 -4.11434,1.02966 -6.23326,1.56147c-2.44482,1.13276 -2.44482,1.13276 -4.93881,2.28814c-1.1984,2.56724 -2.39679,5.13449 -3.63178,7.77968c-0.05146,2.98087 -0.10292,5.963 -0.15552,9.03564c0.35792,2.96578 0.71584,5.93157 1.08519,8.98787c0.51458,2.2718 1.02801,4.5436 1.5586,6.88454c4.28015,-1.01081 4.28015,-1.01081 8.64721,-2.04298c1.94968,-0.4702 3.89822,-0.9404 5.90622,-1.42443c2.36706,-0.51546 4.73412,-1.03092 7.17323,-1.56147c3.02801,-0.48906 6.05488,-0.97812 9.17437,-1.48352c4.76271,-0.82097 4.76271,-0.82097 9.62262,-1.65953c3.04059,-0.479 6.08118,-0.95926 9.21439,-1.45335c3.6821,-1.45838 3.6821,-1.45838 7.43738,-2.94693c1.08062,-2.43021 2.16123,-4.86167 3.27386,-7.36606c0.42882,-2.54839 0.85877,-5.09552 1.30017,-7.72059c0.28245,-2.38495 0.56604,-4.77115 0.85763,-7.22902c0.09377,-1.76262 0.18868,-3.5265 0.28588,-5.34319c-3.39622,0 -6.79244,0 -10.29158,0zm-99.48523,6.2861c-3.01886,1.24465 -6.03772,2.4893 -9.14807,3.77166c-1.22584,1.29619 -2.45283,2.59365 -3.7164,3.92881c-1.03831,1.60799 -2.07547,3.21597 -3.14465,4.87173c-0.8725,1.94492 -1.74499,3.88984 -2.64379,5.89385c-0.95597,2.68291 -0.95597,2.68291 -1.93024,5.42114c-0.37736,1.65953 -0.75472,3.31906 -1.14351,5.02888c-0.17724,4.08471 -0.17724,4.08471 -0.35677,8.25114c0.11778,3.08522 0.23556,6.17044 0.35677,9.34995c0.6598,2.5157 1.32075,5.03014 2.00114,7.62253c0.84848,2.04801 1.69811,4.09602 2.57289,6.2069c1.50943,2.07441 3.01886,4.14883 4.57403,6.2861c2.6415,1.24465 5.28301,2.4893 8.00456,3.77166c3.96226,-0.62232 3.96226,-0.62232 8.00456,-1.25722c2.26415,-1.65953 4.52829,-3.31906 6.86105,-5.02888c1.01429,-1.55518 2.02858,-3.11162 3.07375,-4.71458c0.8725,-1.76262 1.74499,-3.5265 2.64379,-5.34319c1.13207,-3.31906 2.26415,-6.63812 3.43053,-10.05777c0.26529,-2.85389 0.26529,-2.85389 0.53631,-5.76561c0.01144,-1.98641 0.02287,-3.97407 0.03545,-6.02083c-0.03202,-2.08699 -0.06518,-4.17523 -0.09834,-6.32508c-0.23442,-2.85892 -0.23442,-2.85892 -0.47341,-5.77567c-0.8016,-2.43775 -1.6032,-4.87424 -2.42996,-7.38617c-1.08519,-1.71108 -2.17038,-3.42215 -3.28759,-5.18604c-2.26415,-2.07441 -4.52829,-4.14883 -6.86105,-6.2861c-3.39622,-0.62232 -3.39622,-0.62232 -6.86105,-1.25722zm-232.13221,15.08665c-0.58959,2.41135 -1.17919,4.8227 -1.78673,7.30822c0.58959,2.56599 1.1793,5.13323 1.78673,7.77842c1.42241,0.57832 2.84493,1.15664 4.31046,1.75382c1.87947,0.30299 3.75883,0.60598 5.69524,0.91777c3.11103,0.30928 3.11103,0.30928 6.28484,0.62358c2.17129,0.15715 4.34259,0.31431 6.57963,0.47649c2.08873,0.24767 4.17747,0.4966 6.32955,0.75182c1.99142,0.2439 3.98284,0.48906 6.03464,0.74176c1.82344,0.19864 3.64676,0.39854 5.52543,0.60347c2.4654,0.20618 2.4654,0.20618 4.98055,0.4174c2.6415,0 5.28301,0 8.00456,0c0.37736,-0.82977 0.75472,-1.65953 1.14351,-2.51444c-0.14145,-2.10082 -0.28302,-4.20037 -0.42882,-6.36405c-0.23591,-2.04927 -0.4717,-4.09728 -0.71469,-6.20816c-0.56604,-0.62232 -0.56604,-0.62232 -1.14351,-1.25722c-5.03247,-0.60472 -5.03247,-0.60472 -10.16648,-1.22328c-2.08576,-0.22253 -4.17163,-0.44506 -6.32063,-0.67513c-3.30108,-0.34322 -3.30108,-0.34322 -6.66894,-0.69399c-2.18307,-0.2351 -4.36614,-0.46894 -6.61542,-0.71033c-2.09159,-0.22127 -4.1833,-0.44254 -6.33835,-0.6701c-1.92704,-0.20241 -3.85397,-0.40483 -5.83933,-0.61478c-2.44265,-0.2175 -2.44265,-0.2175 -4.9347,-0.44128c-1.88679,0 -3.77358,0 -5.71754,0z"/>
   <path stroke="null" fill="black" d="m242.66977,274.68782c3.16066,-0.33191 3.16066,-0.33191 6.38535,-0.66884c3.57003,-0.09932 3.57003,-0.09932 7.21211,-0.20116c2.4837,0.00754 4.9674,0.01509 7.52657,0.02263c2.55688,0.04652 5.11491,0.09178 7.74956,0.13955c2.61063,0.00251 5.22126,0.00503 7.91079,0.00754c2.46655,0.02137 4.93195,0.044 7.47283,0.06663c3.3905,0.04149 3.3905,0.04149 6.84847,0.08549c1.62607,0.18104 3.25099,0.36082 4.92623,0.54815c0,1.24465 0,2.4893 0,3.77166c-2.54774,1.29619 -5.09433,2.59239 -7.71868,3.92881c-2.73642,1.19185 -5.47169,2.38495 -8.29044,3.61451c-1.50943,0.41488 -3.01886,0.82977 -4.57403,1.25722c-1.8765,0.05406 -3.75299,0.10938 -5.68667,0.16595c-2.29731,-0.00251 -4.59576,-0.00629 -6.96282,-0.0088c-2.44253,-0.01509 -4.88507,-0.03017 -7.40193,-0.04526c-2.44025,-0.03646 -4.87935,-0.07418 -7.39278,-0.11189c-2.19211,-0.05029 -4.38421,-0.10058 -6.64264,-0.15212c-1.95883,-0.08046 -3.91766,-0.15967 -5.93595,-0.24139c-3.01886,-0.28539 -6.03772,-0.57078 -9.14807,-0.86371c0,-1.24465 0,-2.4893 0,-3.77166c2.50314,-1.96252 2.50314,-1.96252 5.05659,-3.96402c4.2893,-1.77142 4.2893,-1.77142 8.66551,-3.57931z"/>
   <path stroke="null" fill="black" d="m441.64024,287.26002c1.88679,0.41488 3.77358,0.82977 5.71754,1.25722c0.75472,0.82977 1.50943,1.65953 2.28702,2.51444c2.6415,0.82977 5.28301,1.65953 8.00456,2.51444c-0.37736,1.65953 -0.75472,3.31906 -1.14351,5.02888c-2.6415,0.82977 -5.28301,1.65953 -8.00456,2.51444c-3.39622,-0.62232 -3.39622,-0.62232 -6.86105,-1.25722c-0.37736,1.24465 -0.75472,2.4893 -1.14351,3.77166c-0.37736,-1.24465 -0.75472,-2.4893 -1.14351,-3.77166c-1.50943,-0.41488 -3.01886,-0.82977 -4.57403,-1.25722c0.37736,-1.65953 0.75472,-3.31906 1.14351,-5.02888c1.88679,-2.07441 3.77358,-4.14883 5.71754,-6.2861zm0,3.77166c-0.37736,0.82977 -0.75472,1.65953 -1.14351,2.51444c2.26415,0 4.52829,0 6.86105,0c0,-0.82977 0,-1.65953 0,-2.51444c-1.88679,0 -3.77358,0 -5.71754,0z"/>
   <path stroke="null" fill="black" d="m140.89752,340.06329c1.88679,0.41488 3.77358,0.82977 5.71754,1.25722c0.75472,1.65953 1.50943,3.31906 2.28702,5.02888c0,3.73395 0,7.46789 0,11.31499c-1.13207,1.86697 -1.13207,1.86697 -2.28702,3.77166c-1.88679,-1.65953 -3.77358,-3.31906 -5.71754,-5.02888c-0.37736,-2.4893 -0.75472,-4.97859 -1.14351,-7.54332c0.37736,-2.90418 0.75472,-5.80836 1.14351,-8.80054z"/>
   <path stroke="null" fill="black" d="m666.9114,362.69326c1.50943,0.82977 3.01886,1.65953 4.57403,2.51444c1.13207,2.90418 2.26415,5.80836 3.43053,8.80054c0.1418,2.02161 0.28359,4.04448 0.42882,6.12895c-0.1418,2.12596 -0.28359,4.25192 -0.42882,6.44326c-0.42424,1.99647 -0.84963,3.99293 -1.28645,6.04975c-0.70783,1.73748 -1.41566,3.47496 -2.14408,5.26524c-2.26415,2.07441 -4.52829,4.14883 -6.86105,6.2861c-0.75472,0 -1.50943,0 -2.28702,0c0.37736,-1.65953 0.75472,-3.31906 1.14351,-5.02888c1.88679,-0.82977 3.77358,-1.65953 5.71754,-2.51444c0.75472,-2.07441 1.50943,-4.14883 2.28702,-6.2861c0.42424,-3.03367 0.42424,-3.03367 0.85763,-6.12895c0.09491,-2.12722 0.18868,-4.25318 0.28588,-6.44326c-0.75472,-2.90418 -1.50943,-5.80836 -2.28702,-8.80054c-1.13207,-1.24465 -2.26415,-2.4893 -3.43053,-3.77166c0,-0.82977 0,-1.65953 0,-2.51444z"/>
   <path stroke="null" fill="black" d="m665.76789,368.97936c1.13207,0.41488 2.26415,0.82977 3.43053,1.25722c0.75472,2.07441 1.50943,4.14883 2.28702,6.2861c0,2.90418 0,5.80836 0,8.80054c-1.13207,3.31906 -2.26415,6.63812 -3.43053,10.05777c-1.88679,-0.41488 -3.77358,-0.82977 -5.71754,-1.25722c-0.37736,-0.82977 -0.75472,-1.65953 -1.14351,-2.51444c-0.11778,-2.3862 -0.23556,-4.77115 -0.35677,-7.22902c0.11778,-2.59365 0.23556,-5.18604 0.35677,-7.85763c1.50943,-2.4893 3.01886,-4.97859 4.57403,-7.54332z"/>
   <path stroke="null" fill="black" d="m349.01606,405.43876c1.88679,1.24465 3.77358,2.4893 5.71754,3.77166c1.50943,1.65953 3.01886,3.31906 4.57403,5.02888c0.66095,1.68468 1.32075,3.37061 2.00114,5.10683c0.47227,2.04927 0.94339,4.09728 1.42939,6.20816c0.16467,2.20391 0.33047,4.40782 0.50086,6.67836c-0.24814,3.53908 -0.24814,3.53908 -0.50086,7.15107c-0.6598,2.64393 -1.32075,5.28913 -2.00114,8.01478c-0.84963,2.3334 -1.69811,4.6668 -2.57289,7.07187c-2.26415,3.11162 -2.26415,3.11162 -4.57403,6.2861c-2.6415,1.65953 -5.28301,3.31906 -8.00456,5.02888c-1.13207,0 -2.26415,0 -3.43053,0c0.75472,-2.07441 1.50943,-4.14883 2.28702,-6.2861c3.01886,-1.65953 6.03772,-3.31906 9.14807,-5.02888c1.50943,-3.31906 3.01886,-6.63812 4.57403,-10.05777c0.33047,-2.04927 0.66095,-4.09728 1.00057,-6.20816c0.04688,-2.10082 0.09491,-4.20037 0.14294,-6.36405c-0.30646,-2.02287 -0.61292,-4.04574 -0.92853,-6.12895c-0.44826,-1.71233 -0.89651,-3.42341 -1.35849,-5.18604c-0.75472,-1.65953 -1.50943,-3.31906 -2.28702,-5.02888c-1.88679,-2.07441 -3.77358,-4.14883 -5.71754,-6.2861c0,-1.24465 0,-2.4893 0,-3.77166z"/>
   <path stroke="null" fill="black" d="m345.58553,416.75375c1.88679,0 3.77358,0 5.71754,0c1.50943,2.07441 3.01886,4.14883 4.57403,6.2861c0.37736,1.24465 0.75472,2.4893 1.14351,3.77166c0.1418,3.92756 0.1418,3.92756 0.28588,7.93558c-0.09491,2.77469 -0.18868,5.54937 -0.28588,8.40829c-1.13207,2.4893 -2.26415,4.97859 -3.43053,7.54332c-0.75472,0.82977 -1.50943,1.65953 -2.28702,2.51444c-3.01886,0 -6.03772,0 -9.14807,0c-1.13207,-1.24465 -2.26415,-2.4893 -3.43053,-3.77166c-0.75472,-2.4893 -1.50943,-4.97859 -2.28702,-7.54332c0,-3.73395 0,-7.46789 0,-11.31499c1.13207,-2.90418 2.26415,-5.80836 3.43053,-8.80054c1.88679,-1.65953 3.77358,-3.31906 5.71754,-5.02888z"/>
  </g>
 </g>
</svg>