<svg width="579" height="312" viewBox="0 0 579 312" fill="none" xmlns="http://www.w3.org/2000/svg">
<path d="M293 0.766113C294.635 0.675718 296.27 0.585322 297.955 0.492188C300.197 0.378347 300.197 0.378347 302.484 0.262207C305.418 0.180996 308.352 0.0997852 311.375 0.0161133C312.883 0.0107959 314.39 0.00547852 315.944 0C317.546 0.0323877 319.149 0.0647754 320.801 0.0981445C322.526 0.175005 324.252 0.251865 326.03 0.331055C328 0.474624 329.97 0.618193 332 0.766113C334.41 1.0141 336.819 1.26208 339.302 1.51758C341.96 1.83034 344.617 2.1431 347.355 2.46533C351.536 2.99429 351.536 2.99429 355.802 3.53394C360.138 4.11293 360.138 4.11293 364.562 4.70361C367.504 5.11088 370.445 5.51814 373.476 5.93774C376.432 6.35806 379.388 6.77837 382.434 7.21143C385.385 7.63972 388.337 8.06801 391.378 8.50928C394.224 8.92403 397.069 9.33879 400 9.76611C402.578 10.1345 405.157 10.5028 407.813 10.8823C410.279 11.2333 412.745 11.5842 415.285 11.9458C417.738 12.2969 420.192 12.648 422.719 13.0098C425.163 13.3625 427.607 13.7152 430.125 14.0786C432.568 14.4378 435.011 14.7969 437.529 15.167C440.053 15.54 442.578 15.913 445.18 16.2974C447.817 16.6867 450.454 17.076 453.171 17.4771C456.085 17.9024 458.998 18.3278 462 18.7661C465.473 19.2611 468.946 19.7561 472.524 20.2661C478.085 21.055 478.085 21.055 483.758 21.8599C487.484 22.3931 491.211 22.9264 495.05 23.4758C498.746 24.0047 502.442 24.5337 506.25 25.0786C511.629 25.8343 511.629 25.8343 517.118 26.6052C520.466 27.0876 523.815 27.5699 527.266 28.0669C530.254 28.4914 533.242 28.9159 536.321 29.3533C538.855 29.8195 541.389 30.2857 544 30.7661C545.892 31.3993 547.784 32.0325 549.733 32.6848C551.141 33.3716 552.549 34.0585 554 34.7661C556.475 36.7461 556.475 36.7461 559 38.7661C559.846 39.9005 560.691 41.0349 561.562 42.2036C562.367 43.7092 563.171 45.2149 564 46.7661C564.625 48.612 565.25 50.458 565.895 52.3599C566.937 56.026 566.937 56.026 568 59.7661C568.343 61.2029 568.685 62.6396 569.038 64.1199C569.379 65.6647 569.719 67.2096 570.07 68.8013C570.409 70.4377 570.748 72.0742 571.098 73.7603C571.437 75.4328 571.776 77.1054 572.125 78.8286C572.472 80.4432 572.819 82.0577 573.176 83.7212C573.512 85.377 573.849 87.0328 574.195 88.7388C574.511 90.4873 574.826 92.2358 575.151 94.0374C575.431 95.9278 575.711 97.8183 576 99.7661C576.223 101.894 576.446 104.023 576.676 106.216C576.856 108.493 577.037 110.771 577.223 113.118C577.37 115.489 577.517 117.861 577.669 120.304C577.833 123.998 577.833 123.998 578 127.766C578.065 130.309 578.131 132.852 578.198 135.472C578.232 138.061 578.266 140.65 578.301 143.317C578.308 145.911 578.315 148.505 578.322 151.178C578.319 153.785 578.316 156.392 578.312 159.079C578.329 161.736 578.345 164.393 578.361 167.131C578.362 169.709 578.363 172.286 578.363 174.942C578.333 177.364 578.303 179.785 578.272 182.28C578.137 185.491 578.137 185.491 578 188.766C577.693 191.248 577.693 191.248 577.38 193.779C577.125 195.109 576.869 196.439 576.605 197.809C575.811 200.758 575.811 200.758 575 203.766C574.34 205.416 573.68 207.066 573 208.766C571.35 210.086 569.7 211.406 568 212.766C566.018 213.756 566.018 213.756 563.996 214.766C562.492 215.426 560.987 216.086 559.438 216.766C557.051 217.82 557.051 217.82 554.617 218.895C553.094 219.512 551.57 220.13 550 220.766C547.711 221.405 545.421 222.045 543.062 222.704C540.557 223.725 540.557 223.725 538 224.766C537.401 226.294 536.801 227.821 536.184 229.395C535.793 230.837 535.402 232.28 535 233.766C536.772 233.887 538.545 234.008 540.371 234.133C543.869 234.385 543.869 234.385 547.438 234.641C550.901 234.885 550.901 234.885 554.434 235.133C556.601 235.342 558.767 235.551 561 235.766C562.765 236.078 564.529 236.39 566.348 236.711C567.553 237.059 568.758 237.408 570 237.766C570 238.426 570 239.086 570 239.766C567.649 240.653 565.297 241.54 562.875 242.454C561.197 242.991 559.52 243.529 557.791 244.082C555.88 244.638 553.969 245.194 552 245.766C550.021 246.271 548.042 246.776 546.004 247.296C543.763 247.823 541.523 248.351 539.215 248.895C536.563 249.506 533.911 250.118 531.179 250.748C528.15 251.414 525.121 252.08 522 252.766C518.53 253.482 515.06 254.197 511.485 254.935C507.72 255.689 503.954 256.443 500.074 257.219C496.135 257.997 492.195 258.775 488.136 259.576C484.028 260.381 479.92 261.186 475.688 262.016C471.382 262.865 467.076 263.713 462.639 264.587C458.363 265.429 454.086 266.27 449.68 267.137C445.548 267.947 441.416 268.756 437.159 269.59C433.477 270.308 429.794 271.026 426 271.766C423.277 272.292 420.553 272.818 417.747 273.36C414.349 274.012 414.349 274.012 410.883 274.676C408.762 275.082 406.641 275.487 404.456 275.905C401.415 276.486 401.415 276.486 398.312 277.079C396.272 277.468 394.231 277.858 392.128 278.26C389.926 278.683 387.725 279.107 385.457 279.543C383.029 280.015 380.601 280.487 378.1 280.973C375.097 281.564 372.094 282.156 369 282.766C364.851 283.596 360.702 284.427 356.427 285.282C351.732 286.227 347.037 287.172 342.199 288.145C337.328 289.128 332.457 290.11 327.438 291.122C320.044 292.617 320.044 292.617 312.5 294.141C307.732 295.106 302.964 296.07 298.052 297.064C293.508 297.984 288.963 298.904 284.281 299.852C280.208 300.678 276.136 301.503 271.939 302.354C266.029 303.548 266.029 303.548 260 304.766C255.524 305.676 251.047 306.586 246.435 307.523C242.661 308.264 238.888 309.004 235 309.766C232.61 310.029 230.22 310.292 227.758 310.563C225.198 310.63 222.638 310.697 220 310.766C217.933 310.803 215.867 310.84 213.737 310.877C211.346 310.908 208.956 310.938 206.492 310.969C202.719 310.988 202.719 310.988 198.871 311.007C196.232 311.01 193.594 311.013 190.875 311.016C186.784 311.017 186.784 311.017 182.61 311.017C179.892 311.006 177.175 310.996 174.375 310.985C171.725 310.959 169.074 310.933 166.344 310.907C163.92 310.86 161.497 310.814 159 310.766C156.084 310.65 156.084 310.65 153.109 310.532C150.58 310.385 150.58 310.385 148 310.235C146.445 310.123 144.89 310.01 143.288 309.895C141.832 309.77 140.375 309.645 138.875 309.516C136.035 309.239 133.195 308.962 130.27 308.676C127.541 308.376 124.812 308.076 122 307.766C119.137 307.476 116.274 307.186 113.324 306.887C110.433 306.579 107.541 306.271 104.562 305.954C101.715 305.616 98.8674 305.278 95.9336 304.93C93.7619 304.654 93.7619 304.654 91.5464 304.373C90.0461 304.172 88.5458 303.972 87 303.766C85.3875 303.54 83.7751 303.314 82.1138 303.082C79.6308 302.72 79.6308 302.72 77.0977 302.352C75.4442 302.103 73.7907 301.855 72.0872 301.598C70.4496 301.344 68.8121 301.09 67.125 300.829C65.5268 300.574 63.9286 300.319 62.282 300.057C60.74 299.802 59.1981 299.548 57.6094 299.286C54.7683 298.784 51.9272 298.283 49 297.766C46.7158 297.296 44.4316 296.825 42.0781 296.34C40.1961 295.903 38.3141 295.466 36.375 295.016C32.2294 293.902 32.2294 293.902 28 292.766C26.68 292.106 25.36 291.446 24 290.766C24.33 289.776 24.66 288.786 25 287.766C26.6912 287.25 28.3825 286.735 30.125 286.204C32.3937 285.729 34.6625 285.255 37 284.766C39.6813 284.395 42.3625 284.024 45.125 283.641C48.5281 283.208 48.5281 283.208 52 282.766C52.66 282.436 53.32 282.106 54 281.766C52.9069 280.9 51.8138 280.034 50.6875 279.141C49.4706 278.027 48.2537 276.914 47 275.766C46.01 273.786 45.02 271.806 44 269.766C41.1744 268.941 38.3488 268.116 35.4375 267.266C33.821 266.861 32.2045 266.457 30.5391 266.04C28.2922 265.409 28.2922 265.409 26 264.766C24.1231 263.817 22.2463 262.869 20.3125 261.891C18.8894 260.86 17.4662 259.829 16 258.766C14.7419 257.714 13.4838 256.662 12.1875 255.579C10.6097 253.691 10.6097 253.691 9 251.766C8.0925 250.034 7.185 248.301 6.25 246.516C5.5075 244.619 4.765 242.721 4 240.766C3.13375 238.105 3.13375 238.105 2.25 235.391C1.8375 233.535 1.425 231.679 1 229.766C0.690625 227.518 0.38125 225.27 0.0625 222.954C0.041875 220.912 0.02125 218.87 0 216.766C1.32 214.786 2.64 212.806 4 210.766C4.28746 208.882 4.57492 206.997 4.87109 205.055C5.05801 202.856 5.24492 200.657 5.4375 198.391C5.79715 194.918 5.79715 194.918 6.16406 191.375C6.43992 189.194 6.71578 187.013 7 184.766C7.35836 183.121 7.71672 181.476 8.08594 179.782C8.4907 178.415 8.89547 177.049 9.3125 175.641C10.1994 173.372 11.0863 171.104 12 168.766C12.7837 167.343 13.5675 165.92 14.375 164.454C15.5712 163.237 16.7675 162.02 18 160.766C20.2069 159.034 22.4137 157.301 24.6875 155.516C26.0036 154.584 27.3198 153.652 28.6758 152.692C30.1028 151.726 31.5298 150.761 33 149.766C34.5198 148.77 36.0396 147.773 37.6055 146.747C39.9664 145.24 39.9664 145.24 42.375 143.704C43.9696 142.703 45.5641 141.703 47.207 140.672C48.7887 139.713 50.3704 138.754 52 137.766C53.5301 136.91 55.0602 136.054 56.6367 135.172C58.0972 134.358 59.5577 133.543 61.0625 132.704C62.4379 131.893 63.8134 131.082 65.2305 130.247C66.4744 129.428 67.7184 128.609 69 127.766C70.9388 126.034 72.8775 124.301 74.875 122.516C76.2363 120.619 77.5975 118.721 79 116.766C79.5981 114.312 80.1963 111.857 80.8125 109.329C81.2044 107.163 81.5963 104.997 82 102.766C83.65 101.446 85.3 100.126 87 98.7661C88.98 98.4361 90.96 98.1061 93 97.7661C94.485 95.7861 95.97 93.8061 97.5 91.7661C98.3585 90.4977 99.217 89.2292 100.102 87.9224C101.058 86.5508 102.015 85.1792 103 83.7661C104.101 82.3739 105.202 80.9817 106.336 79.5474C107.504 78.1346 108.672 76.7217 109.875 75.2661C111.065 73.8391 112.255 72.4121 113.48 70.9419C114.642 69.5639 115.803 68.1859 117 66.7661C118.572 64.9002 118.572 64.9002 120.176 62.9966C121.17 61.8274 122.164 60.6582 123.188 59.4536C125.106 57.2467 127.024 55.0399 129 52.7661C131.877 49.5796 131.877 49.5796 134.812 46.3286C136.524 44.493 138.236 42.6574 140 40.7661C141.279 39.4667 142.557 38.1674 143.875 36.8286C144.906 35.818 145.938 34.8074 147 33.7661C148.65 32.1161 150.3 30.4661 152 28.7661C153.702 27.1264 153.702 27.1264 155.438 25.4536C156.943 24.2367 158.449 23.0199 160 21.7661C162.248 20.3842 164.496 19.0024 166.812 17.5786C169.184 16.3205 171.556 15.0624 174 13.7661C175.734 13.0597 177.468 12.3533 179.254 11.6255C181.15 11.0119 183.046 10.3983 185 9.76611C186.776 9.45545 188.553 9.14478 190.383 8.82471C192.278 8.61975 194.173 8.41479 196.125 8.20361C198.336 7.96514 200.546 7.72666 202.824 7.48096C205.192 7.24506 207.56 7.00916 210 6.76611C213.567 6.3968 213.567 6.3968 217.207 6.02002C221.034 5.64684 221.034 5.64684 224.938 5.26611C229.108 4.90066 229.108 4.90066 233.363 4.52783C235.642 4.34293 235.642 4.34293 237.967 4.1543C239.628 4.0262 241.289 3.8981 243 3.76611C245.837 3.55656 245.837 3.55656 248.732 3.34277C250.753 3.20017 252.773 3.05757 254.855 2.91064C256.937 2.77046 259.019 2.63027 261.164 2.48584C263.296 2.35145 265.428 2.21707 267.625 2.07861C269.793 1.95583 271.96 1.83305 274.194 1.70654C276.342 1.59343 278.49 1.48031 280.703 1.36377C282.806 1.26081 284.909 1.15784 287.076 1.05176C289.031 0.957495 290.986 0.863232 293 0.766113ZM311 6.76611C309.309 7.61174 307.617 8.45736 305.875 9.32861C303.957 11.0302 303.957 11.0302 302 12.7661C300.866 13.7355 299.731 14.7049 298.562 15.7036C297.387 17.0442 296.211 18.3849 295 19.7661C293.371 22.0967 291.741 24.4274 290.062 26.8286C289.217 28.1306 288.371 29.4325 287.5 30.7739C286.675 32.0913 285.85 33.4088 285 34.7661C283.536 37.2205 282.071 39.6749 280.562 42.2036C279.387 44.3692 278.211 46.5349 277 48.7661C276.01 51.4061 275.02 54.0461 274 56.7661C272.983 58.6713 271.966 60.5766 270.918 62.5396C269.687 64.7181 268.456 66.8966 267.188 69.1411C265.844 71.5336 264.501 73.9261 263.117 76.3911C261.759 78.8249 260.4 81.2586 259 83.7661C257.786 86.0142 256.571 88.2624 255.32 90.5786C254.163 92.7442 253.005 94.9099 251.812 97.1411C250.682 99.2526 249.551 101.364 248.387 103.54C247.269 105.594 246.151 107.649 245 109.766C243.831 111.821 242.662 113.876 241.457 115.993C240.357 117.898 239.258 119.803 238.125 121.766C236.644 124.303 236.644 124.303 235.133 126.891C234.429 128.17 233.725 129.449 233 130.766C233 131.426 233 132.086 233 132.766C235.207 132.972 237.414 133.179 239.688 133.391C243.307 133.082 243.307 133.082 247 132.766C248.578 131.003 248.578 131.003 250.188 129.204C250.786 127.739 251.384 126.275 252 124.766C252.99 122.456 253.98 120.146 255 117.766C255.227 115.312 255.454 112.857 255.688 110.329C256.337 106.09 256.337 106.09 257 101.766C258.052 99.3736 259.104 96.9811 260.188 94.5161C260.891 93.2245 261.595 91.9328 262.32 90.6021C263.205 89.0062 264.089 87.4103 265 85.7661C266.194 83.4484 267.387 81.1306 268.617 78.7427C269.919 76.2342 271.221 73.7256 272.562 71.1411C273.801 68.7563 275.04 66.3716 276.316 63.9146C277.532 61.8856 278.748 59.8566 280 57.7661C281.216 56.5376 282.431 55.3092 283.684 54.0435C284.778 53.2919 285.872 52.5404 287 51.7661C288.485 51.168 289.97 50.5699 291.5 49.9536C293.728 49.3658 293.728 49.3658 296 48.7661C299.465 48.2711 299.465 48.2711 303 47.7661C305.55 47.1164 308.1 46.4667 310.727 45.7974C312.17 45.5106 313.613 45.2239 315.099 44.9285C316.593 44.7099 318.086 44.4913 319.625 44.2661C324.055 44.1095 324.055 44.1095 328.574 43.9497C331.025 44.8791 333.475 45.8085 336 46.7661C336.985 48.7889 336.985 48.7889 337.991 50.8525C338.593 53.4568 338.593 53.4568 339.207 56.1138C339.466 58.0515 339.726 59.9892 339.993 61.9856C340.139 64.0788 340.286 66.172 340.438 68.3286C340.592 71.5719 340.592 71.5719 340.75 74.8806C340.805 77.0471 340.861 79.2136 340.918 81.4458C340.929 83.5789 340.94 85.712 340.951 87.9097C340.967 89.8423 340.983 91.7749 341 93.7661C341.202 96.4912 341.405 99.2163 341.613 102.024C341.823 104.311 342.034 106.598 342.25 108.954C342.391 111.22 342.531 113.486 342.676 115.821C342.836 119.754 342.836 119.754 343 123.766C343.04 125.587 343.081 127.407 343.123 129.283C343.176 132.279 343.176 132.279 343.23 135.336C343.267 137.357 343.303 139.378 343.341 141.461C343.389 144.489 343.389 144.489 343.438 147.579C343.453 149.553 343.468 151.527 343.483 153.562C343.508 155.389 343.533 157.216 343.559 159.098C343.704 161.959 343.85 164.819 344 167.766C344.99 168.096 345.98 168.426 347 168.766C347.66 168.436 348.32 168.106 349 167.766C349.041 164.966 349.041 164.966 349.082 162.11C348.993 159.521 348.904 156.933 348.812 154.266C348.644 149.887 348.644 149.887 348.473 145.418C348.363 143.059 348.363 143.059 348.25 140.652C348.168 139.04 348.085 137.427 348 135.766C347.911 134.158 347.822 132.549 347.73 130.892C347.583 128.449 347.583 128.449 347.434 125.958C347.272 123.47 347.272 123.47 347.107 120.933C346.989 119.248 346.871 117.564 346.75 115.829C346.623 114.116 346.495 112.403 346.364 110.639C346.226 108.906 346.088 107.173 345.945 105.387C345.796 103.642 345.647 101.896 345.493 100.098C345.33 98.3382 345.168 96.5788 345 94.7661C344.819 92.9874 344.638 91.2086 344.452 89.376C344.163 86.7093 344.163 86.7093 343.867 83.9888C343.566 81.3464 343.566 81.3464 343.26 78.6506C343.05 76.915 342.841 75.1794 342.625 73.3911C342.403 71.6935 342.182 69.9959 341.953 68.2468C341.73 66.5955 341.507 64.9441 341.277 63.2427C341.057 61.6459 340.836 60.049 340.609 58.4038C340.408 56.8734 340.207 55.3429 340 53.7661C339.713 50.9482 339.425 48.1303 339.129 45.2271C338.818 42.7649 338.508 40.3028 338.188 37.7661C337.6 34.6163 337.6 34.6163 337 31.4028C336.01 29.1077 336.01 29.1077 335 26.7661C332.257 26.0442 329.514 25.3224 326.688 24.5786C322.882 25.1664 322.882 25.1664 319 25.7661C321.496 25.7661 323.991 25.7661 326.562 25.7661C330.244 25.2711 330.244 25.2711 334 24.7661C333.505 20.8061 333.505 20.8061 333 16.7661C332.01 14.3221 332.01 14.3221 331 11.8286C330.01 9.81768 330.01 9.81768 329 7.76611C328.505 7.27111 328.505 7.27111 328 6.76611C324.04 6.54955 324.04 6.54955 320 6.32861C318.456 6.33893 316.911 6.34924 315.32 6.35986C313.895 6.49393 312.469 6.62799 311 6.76611ZM301 6.76611C297.003 6.89566 297.003 6.89566 292.926 7.02783C291.253 7.09229 289.581 7.15674 287.858 7.22314C286.028 7.2992 284.198 7.37525 282.312 7.45361C280.408 7.53611 278.503 7.61861 276.541 7.70361C274.52 7.80029 272.5 7.89697 270.418 7.99658C268.275 8.1105 266.132 8.22442 263.923 8.3418C261.639 8.48182 259.354 8.62185 257 8.76611C254.515 8.94868 252.031 9.13124 249.471 9.31934C246.899 9.52478 244.326 9.73022 241.676 9.94189C237.805 10.2664 237.805 10.2664 233.856 10.5974C231.305 10.8181 228.754 11.0388 226.125 11.2661C223.65 11.4797 221.176 11.6933 218.626 11.9133C216.277 12.1226 213.928 12.3318 211.508 12.5474C208.218 12.8559 208.218 12.8559 204.862 13.1707C202.928 13.3672 200.993 13.5637 199 13.7661C194.868 14.2901 194.868 14.2901 190.652 14.8247C187.854 15.2907 187.854 15.2907 185 15.7661C183.164 16.2817 181.329 16.7974 179.438 17.3286C177.643 18.133 175.849 18.9374 174 19.7661C171.834 21.148 169.669 22.5299 167.438 23.9536C165.313 25.5417 163.189 27.1299 161 28.7661C159.371 30.148 157.741 31.5299 156.062 32.9536C154.392 34.5417 152.721 36.1299 151 37.7661C149.769 38.9572 148.538 40.1483 147.27 41.3755C145.342 43.2704 145.342 43.2704 143.375 45.2036C142.166 46.3986 140.957 47.5935 139.711 48.8247C138.369 50.2807 138.369 50.2807 137 51.7661C137 52.4261 137 53.0861 137 53.7661C139.909 53.6256 142.819 53.4851 145.816 53.3403C147.698 53.203 149.579 53.0658 151.518 52.9243C154.51 52.6913 154.51 52.6913 157.562 52.4536C160.421 52.238 160.421 52.238 163.338 52.0181C165.249 51.8769 167.16 51.7358 169.129 51.5903C172.095 51.3791 172.095 51.3791 175.121 51.1636C177.061 51.0324 179.001 50.9012 181 50.7661C182.749 50.653 184.497 50.5399 186.299 50.4233C188.067 50.3289 189.835 50.2345 191.656 50.1372C193.547 50.0587 195.439 49.9801 197.387 49.8992C199.569 49.8553 201.752 49.8114 204 49.7661C206.781 49.7899 209.562 49.8136 212.427 49.8381C215.492 49.884 218.557 49.9298 221.715 49.9771C226.422 50.0157 226.422 50.0157 231.225 50.0552C234.43 50.0835 237.635 50.1119 240.938 50.1411C245.832 50.2649 245.832 50.2649 250.826 50.3911C253.945 50.3988 257.064 50.4066 260.277 50.4146C263.105 50.4576 265.934 50.5006 268.847 50.5449C272.388 49.6644 272.388 49.6644 276 48.7661C277.553 46.3976 279.105 44.0291 280.705 41.5889C282.336 37.7166 282.336 37.7166 284 33.7661C285.464 31.518 286.929 29.2699 288.438 26.9536C289.943 24.9117 291.449 22.8699 293 20.7661C294.588 18.9305 296.176 17.0949 297.812 15.2036C299.194 13.7392 300.576 12.2749 302 10.7661C303.32 9.44611 304.64 8.12611 306 6.76611C304.35 6.76611 302.7 6.76611 301 6.76611ZM331 7.76611C331.433 9.06549 331.866 10.3649 332.312 11.7036C332.869 13.3742 333.426 15.0449 334 16.7661C334.276 18.3132 334.553 19.8603 334.837 21.4543C335.551 22.8772 336.265 24.3001 337 25.7661C338.762 26.2641 340.525 26.7621 342.341 27.2751C345.782 27.5433 345.782 27.5433 349.293 27.8169C351.83 28.0385 354.367 28.26 356.981 28.4883C361.043 28.7805 361.043 28.7805 365.188 29.0786C369.274 29.425 369.274 29.425 373.443 29.7783C377.497 30.1261 377.497 30.1261 381.633 30.481C384.281 30.6961 386.929 30.9112 389.657 31.1328C392.08 31.3418 394.503 31.5508 397 31.7661C398.954 31.9764 400.908 32.1867 402.921 32.4033C404.594 32.6068 406.268 32.8103 407.992 33.02C412.234 33.575 412.234 33.575 416.562 34.1411C418.956 34.4582 421.35 34.7753 423.816 35.1021C425.527 35.3212 427.238 35.5403 429 35.7661C429.99 35.7661 430.98 35.7661 432 35.7661C431.897 34.4049 431.794 33.0436 431.688 31.6411C431.461 30.0324 431.234 28.4236 431 26.7661C430.01 24.7861 429.02 22.8061 428 20.7661C426.02 20.1061 424.04 19.4461 422 18.7661C419.374 18.358 416.748 17.9498 414.042 17.5293C410.744 17.0789 407.445 16.6286 404.047 16.1646C400.457 15.6747 396.867 15.1849 393.168 14.6802C389.4 14.1723 385.632 13.6644 381.75 13.1411C377.998 12.6255 374.245 12.1099 370.379 11.5786C366.784 11.0913 363.189 10.6041 359.484 10.1021C354.53 9.42988 354.53 9.42988 349.476 8.74414C346.679 8.42139 343.882 8.09864 341 7.76611C337.953 7.69385 337.953 7.69385 334.845 7.62012C332.942 7.69239 332.942 7.69239 331 7.76611ZM430 20.7661C430.474 22.313 430.949 23.8599 431.438 25.4536C431.953 27.2067 432.469 28.9599 433 30.7661C433.33 32.4161 433.66 34.0661 434 35.7661C436.072 36.2186 438.143 36.671 440.277 37.1372C444.564 37.6651 444.564 37.6651 448.938 38.2036C450.469 38.4004 452 38.5973 453.577 38.8C455.991 39.112 455.991 39.112 458.453 39.4302C460.149 39.6419 461.845 39.8536 463.592 40.0718C466.269 40.4155 466.269 40.4155 469 40.7661C470.906 41.0313 472.812 41.2966 474.775 41.5698C477.694 41.988 477.694 41.988 480.672 42.4146C483.547 42.8294 483.547 42.8294 486.481 43.2527C488.364 43.5252 490.247 43.7978 492.188 44.0786C494.984 44.4787 494.984 44.4787 497.838 44.887C500.414 45.2545 500.414 45.2545 503.043 45.6294C505.669 46.0045 508.295 46.3796 511 46.7661C506.992 46.2943 506.992 46.2943 502.902 45.813C500.295 45.5049 500.295 45.5049 497.635 45.1907C495.755 44.9681 493.875 44.7455 491.938 44.5161C490.042 44.2916 488.146 44.067 486.193 43.8357C484.279 43.6078 482.366 43.3798 480.395 43.145C478.473 42.9144 476.552 42.6839 474.573 42.4463C471.814 42.1096 471.814 42.1096 469 41.7661C467.361 41.5584 465.722 41.3507 464.033 41.1367C462.52 40.9409 461.008 40.7452 459.449 40.5435C456.702 40.1838 453.955 39.8242 451.125 39.4536C448.673 39.1275 446.221 38.8013 443.695 38.4653C441.816 38.2346 439.936 38.0038 438 37.7661C436.68 37.7661 435.36 37.7661 434 37.7661C434.124 39.0449 434.247 40.3236 434.375 41.6411C434.581 43.3324 434.788 45.0236 435 46.7661C435.289 48.5605 435.578 50.3549 435.875 52.2036C436.246 53.7092 436.617 55.2149 437 56.7661C437.99 57.4261 438.98 58.0861 440 58.7661C443.104 59.1032 446.208 59.4403 449.406 59.7876C453.539 60.1414 457.672 60.4953 461.93 60.8599C468.662 61.4457 468.662 61.4457 475.531 62.0435C480.265 62.4469 484.998 62.8504 489.875 63.2661C496.917 63.8713 496.917 63.8713 504.102 64.4888C510.854 65.0746 510.854 65.0746 517.742 65.6724C521.886 66.0262 526.031 66.3801 530.3 66.7446C533.831 67.0817 537.362 67.4188 541 67.7661C543.522 68.0568 546.043 68.3475 548.641 68.647C550.41 69.0163 552.178 69.3856 554 69.7661C555.65 71.0861 557.3 72.4061 559 73.7661C559.681 75.7667 560.361 77.7674 561.062 79.8286C561.381 81.1499 561.699 82.4712 562.027 83.8325C562.509 86.2747 562.509 86.2747 563 88.7661C563.352 90.8995 563.704 93.0329 564.066 95.231C564.59 98.7134 564.59 98.7134 565.125 102.266C565.624 105.741 565.624 105.741 566.133 109.286C566.419 111.424 566.705 113.563 567 115.766C567.183 117.441 567.366 119.115 567.555 120.84C567.702 122.198 567.849 123.555 568 124.954C568.33 126.872 568.66 128.79 569 130.766C570.32 130.766 571.64 130.766 573 130.766C572.841 128.876 572.683 126.987 572.52 125.04C572.286 122.433 572.053 119.827 571.812 117.141C571.538 114.318 571.263 111.495 570.98 108.586C570.657 105.676 570.333 102.765 570 99.7661C569.437 95.7713 569.437 95.7713 568.863 91.6958C568.455 89.1615 568.046 86.6272 567.625 84.0161C567.194 81.5643 566.764 79.1125 566.32 76.5864C565.885 74.3357 565.449 72.085 565 69.7661C564.585 67.8454 564.17 65.9247 563.742 63.9458C563.332 62.2778 562.922 60.6097 562.5 58.8911C561.675 56.2099 560.85 53.5286 560 50.7661C559.247 49.3817 558.494 47.9972 557.719 46.5708C556.822 45.3153 555.924 44.0597 555 42.7661C553.02 41.1161 551.04 39.4661 549 37.7661C546.967 37.2267 544.934 36.6873 542.84 36.1316C538.959 35.4557 538.959 35.4557 535 34.7661C531.979 34.3007 528.958 33.8353 525.846 33.3557C522.454 32.8814 519.061 32.4071 515.566 31.9185C511.844 31.3957 508.122 30.873 504.287 30.3345C498.483 29.5272 498.483 29.5272 492.562 28.7036C488.697 28.1616 484.832 27.6195 480.85 27.061C477.126 26.5396 473.403 26.0182 469.566 25.481C466.173 25.0078 462.78 24.5346 459.283 24.0471C456.22 23.6244 453.156 23.2017 450 22.7661C447.225 22.3801 444.449 21.9941 441.59 21.5964C438.328 21.1854 438.328 21.1854 435 20.7661C433.35 20.7661 431.7 20.7661 430 20.7661ZM337 26.7661C337.128 28.1712 337.255 29.5763 337.387 31.0239C337.589 32.9188 337.791 34.8138 338 36.7661C338.275 38.6198 338.549 40.4735 338.832 42.3833C339.156 44.4484 339.479 46.5135 339.812 48.6411C340.167 51.0053 340.521 53.3694 340.887 55.8052C341.254 58.4323 341.621 61.0594 342 63.7661C342.18 65.2173 342.36 66.6684 342.545 68.1636C342.723 69.6695 342.9 71.1755 343.082 72.7271C343.256 74.2522 343.43 75.7773 343.609 77.3486C343.779 78.8889 343.949 80.4292 344.125 82.0161C344.293 83.5731 344.462 85.1302 344.635 86.7344C344.797 88.2556 344.959 89.7769 345.125 91.3442C345.414 94.1235 345.703 96.9027 346 99.7661C346.206 101.7 346.413 103.633 346.625 105.625C346.79 107.322 346.955 109.018 347.125 110.766C347.345 113.353 347.345 113.353 347.57 115.993C347.712 118.228 347.854 120.463 348 122.766C348.08 124.493 348.159 126.22 348.241 128C348.365 130.927 348.365 130.927 348.492 133.915C348.577 135.92 348.662 137.926 348.75 139.993C348.832 142.022 348.915 144.051 349 146.141C349.071 148.142 349.142 150.142 349.215 152.204C349.289 154.068 349.362 155.932 349.438 157.852C349.623 160.794 349.809 163.735 350 166.766C350.66 167.096 351.32 167.426 352 167.766C354.968 167.391 354.968 167.391 357.997 167.009C361.962 166.402 361.962 166.402 366.008 165.782C370.37 165.12 370.37 165.12 374.82 164.446C379.426 163.738 379.426 163.738 384.125 163.016C387.11 162.56 390.096 162.103 393.172 161.633C396.108 161.187 399.045 160.741 402.07 160.282C404.944 159.847 407.818 159.412 410.778 158.963C413.491 158.568 416.205 158.173 419 157.766C421.463 157.448 423.926 157.131 426.464 156.803C428.639 156.538 430.814 156.273 433.055 156C434.944 155.781 436.834 155.562 438.781 155.335C440.173 155.148 441.565 154.96 443 154.766C443.66 154.436 444.32 154.106 445 153.766C445.201 152.435 445.402 151.103 445.609 149.731C445.656 148.072 445.702 146.413 445.75 144.704C445.848 143.042 445.946 141.38 446.047 139.668C445.371 138.381 444.696 137.093 444 135.766C440.075 135.459 440.075 135.459 436.07 135.145C434.438 135.226 432.806 135.306 431.125 135.389C429.434 135.514 427.742 135.638 426 135.766C424.443 135.84 422.886 135.913 421.281 135.989C419.747 136.06 418.213 136.13 416.633 136.204C415.077 136.294 413.521 136.385 411.917 136.478C410.336 136.573 408.754 136.668 407.125 136.766C405.47 136.859 403.815 136.951 402.11 137.046C400.47 137.134 398.83 137.222 397.141 137.313C395.566 137.395 393.991 137.477 392.369 137.561C390.927 137.629 389.486 137.696 388 137.766C384.651 137.867 384.651 137.867 381.234 137.969C379.466 137.985 377.697 138 375.875 138.016C373.276 137.934 370.677 137.851 368 137.766C366.68 137.106 365.36 136.446 364 135.766C362.958 133.877 362.958 133.877 361.895 131.949C361.27 130.239 360.644 128.528 360 126.766C359.583 124.765 359.165 122.764 358.736 120.702C358.211 117.306 358.211 117.306 357.676 113.84C357.287 111.352 356.898 108.863 356.498 106.299C355.911 102.416 355.911 102.416 355.312 98.4536C354.91 95.8761 354.507 93.2987 354.092 90.6431C353.707 88.1507 353.322 85.6583 352.926 83.0903C352.579 80.8225 352.233 78.5546 351.876 76.218C351.587 74.0889 351.298 71.9598 351 69.7661C350.631 66.5076 350.631 66.5076 350.255 63.1833C350.171 61.3957 350.087 59.608 350 57.7661C350.66 56.4461 351.32 55.1261 352 53.7661C354.435 53.6424 356.87 53.5186 359.379 53.3911C361.007 53.4272 362.635 53.4633 364.313 53.5005C366.19 53.5881 368.066 53.6758 370 53.7661C372.131 53.895 374.261 54.0239 376.457 54.1567C378.749 54.3166 381.041 54.4764 383.402 54.6411C385.776 54.8216 388.15 55.0021 390.596 55.188C393.018 55.3788 395.441 55.5695 397.938 55.7661C401.612 56.0523 401.612 56.0523 405.361 56.3442C407.726 56.5247 410.091 56.7052 412.527 56.8911C414.659 57.0587 416.791 57.2263 418.988 57.3989C420.972 57.5201 422.956 57.6413 425 57.7661C428.108 57.7932 428.108 57.7932 431.28 57.8208C432.837 57.8028 434.395 57.7847 436 57.7661C435.711 55.7655 435.422 53.7649 435.125 51.7036C434.754 49.4142 434.383 47.1249 434 44.7661C433.01 41.3011 433.01 41.3011 432 37.7661C430.325 37.3364 428.65 36.9066 426.924 36.4639C424.639 36.2336 422.354 36.0033 420 35.7661C417.391 35.4185 414.783 35.071 412.095 34.7129C409.163 34.3463 406.232 33.9797 403.211 33.6021C400.001 33.2024 396.791 32.8028 393.484 32.3911C388.48 31.7724 388.48 31.7724 383.375 31.1411C378.359 30.5108 378.359 30.5108 373.242 29.8677C370.035 29.4706 366.828 29.0736 363.523 28.6646C360.594 28.3002 357.664 27.9359 354.646 27.5605C352.123 27.2984 349.6 27.0362 347 26.7661C345.009 26.727 343.018 26.6878 340.967 26.6475C339.003 26.7062 339.003 26.7062 337 26.7661ZM321 47.7661C316.607 47.9208 316.607 47.9208 312.125 48.0786C310.595 48.174 309.065 48.2694 307.488 48.3677C305.267 48.5649 305.267 48.5649 303 48.7661C299.195 49.3539 299.195 49.3539 295.312 49.9536C293.229 50.5517 291.146 51.1499 289 51.7661C287.818 52.6388 286.636 53.5115 285.418 54.4106C284.29 55.5179 283.162 56.6253 282 57.7661C280.701 59.545 280.701 59.545 279.375 61.3599C278.591 62.6489 277.807 63.938 277 65.2661C275.724 67.3737 275.724 67.3737 274.422 69.5239C273.623 70.9239 272.823 72.3238 272 73.7661C270.144 77.4167 270.144 77.4167 268.25 81.1411C267.177 83.3274 266.105 85.5136 265 87.7661C263.907 89.5605 262.814 91.3549 261.688 93.2036C260.801 94.7092 259.914 96.2149 259 97.7661C258.34 100.076 257.68 102.386 257 104.766C257 107.076 257 109.386 257 111.766C258.98 109.291 258.98 109.291 261 106.766C262.134 104.518 263.269 102.27 264.438 99.9536C265.126 98.555 265.814 97.1563 266.523 95.7153C267.341 94.0821 268.158 92.4488 269 90.7661C270.044 88.7513 271.088 86.7365 272.164 84.6606C273.286 82.5504 274.407 80.4403 275.562 78.2661C276.616 76.2758 277.669 74.2855 278.754 72.2349C279.825 70.4302 280.896 68.6255 282 66.7661C283.185 65.2489 284.369 63.7317 285.59 62.1685C287.278 60.4843 287.278 60.4843 289 58.7661C290.65 58.1267 292.3 57.4874 294 56.8286C295.65 56.478 297.3 56.1274 299 55.7661C302.465 55.2711 302.465 55.2711 306 54.7661C307.851 54.6759 309.702 54.5856 311.609 54.4927C313.636 54.4592 315.662 54.4256 317.75 54.3911C319.787 54.3421 321.823 54.2931 323.922 54.2427C326.436 54.5018 326.436 54.5018 329 54.7661C329.99 56.4161 330.98 58.0661 332 59.7661C332.223 61.4677 332.446 63.1692 332.676 64.9224C332.836 68.31 332.836 68.31 333 71.7661C333.055 74.6845 333.111 77.603 333.168 80.6099C333.174 82.1864 333.18 83.7629 333.186 85.3872C333.186 86.9972 333.187 88.6073 333.188 90.2661C333.2 91.8762 333.212 93.4862 333.225 95.145C333.227 96.7215 333.228 98.2981 333.23 99.9224C333.154 102.841 333.078 105.759 333 108.766C332.769 111.004 332.539 113.242 332.301 115.547C331.872 117.27 331.442 118.992 331 120.766C328.525 123.736 328.525 123.736 326 126.766C324.515 127.447 323.03 128.127 321.5 128.829C318.283 129.788 318.283 129.788 315 130.766C313.269 131.179 311.538 131.591 309.754 132.016C307.876 132.449 305.998 132.882 304.062 133.329C302.259 133.722 300.456 134.115 298.598 134.52C297.08 134.931 295.563 135.342 294 135.766C292.68 136.756 291.36 137.746 290 138.766C290.99 137.281 290.99 137.281 292 135.766C292 133.126 292 130.486 292 127.766C291.67 127.106 291.34 126.446 291 125.766C289.02 126.261 289.02 126.261 287 126.766C286.092 128.21 285.185 129.654 284.25 131.141C283.508 132.667 282.765 134.194 282 135.766C282 136.756 282 137.746 282 138.766C282.66 138.766 283.32 138.766 284 138.766C284 139.426 284 140.086 284 140.766C282.659 140.869 281.319 140.972 279.938 141.079C277.978 141.305 276.019 141.532 274 141.766C271.298 142.302 268.596 142.839 265.812 143.391C263.564 144.505 261.316 145.619 259 146.766C259.021 148.958 259.041 151.149 259.062 153.407C259.372 156.165 259.681 158.924 260 161.766C260.035 164.574 260.07 167.381 260.105 170.274C260.133 173.118 260.16 175.961 260.188 178.891C260.202 181.761 260.216 184.63 260.23 187.586C260.484 189.956 260.738 192.325 261 194.766C263.97 197.241 263.97 197.241 267 199.766C267.928 201.705 268.856 203.644 269.812 205.641C271.194 207.332 272.576 209.024 274 210.766C276.376 210.758 278.751 210.751 281.199 210.743C282.715 210.605 284.23 210.467 285.792 210.325C287.51 210.141 289.229 209.956 291 209.766C292.937 209.583 294.874 209.4 296.87 209.211C298.934 209.013 300.998 208.814 303.125 208.61C305.231 208.392 307.338 208.174 309.508 207.95C311.65 207.724 313.793 207.499 316 207.266C318.204 207.041 320.409 206.815 322.68 206.583C324.765 206.365 326.851 206.147 329 205.922C331.846 205.626 331.846 205.626 334.75 205.323C336.152 205.139 337.555 204.955 339 204.766C339.33 204.436 339.66 204.106 340 203.766C340.122 201.258 340.122 201.258 340.246 198.7C340.309 196.556 340.372 194.412 340.438 192.204C340.498 190.078 340.559 187.952 340.621 185.762C340.746 183.783 340.871 181.805 341 179.766C341.99 175.806 341.99 175.806 343 171.766C340.36 171.766 337.72 171.766 335 171.766C332.143 172.271 329.287 172.777 326.344 173.297C324.745 173.613 323.147 173.929 321.5 174.254C319.85 174.588 318.2 174.922 316.5 175.266C314.819 175.6 313.138 175.934 311.406 176.278C309.024 176.752 309.024 176.752 306.594 177.235C304.088 177.74 301.582 178.245 299 178.766C302.531 177.857 302.531 177.857 306.133 176.93C307.595 176.564 309.057 176.199 310.563 175.822C312.028 175.473 313.492 175.125 315 174.766C318.554 174.066 318.554 174.066 322.18 173.352C325.494 172.753 325.494 172.753 328.875 172.141C331.121 171.736 333.366 171.332 335.68 170.915C337.435 170.536 339.191 170.157 341 169.766C341.66 169.106 342.32 168.446 343 167.766C343.06 166.381 343.121 164.995 343.183 163.568C343.15 161.732 343.116 159.896 343.082 158.004C343.028 154.929 343.028 154.929 342.973 151.792C342.92 149.576 342.867 147.361 342.812 145.079C342.762 142.82 342.712 140.562 342.66 138.235C342.601 135.95 342.541 133.666 342.48 131.313C342.407 129.022 342.334 126.73 342.259 124.37C342.174 122.19 342.088 120.011 342 117.766C341.9 115.868 341.801 113.97 341.698 112.014C341.587 110.267 341.477 108.52 341.363 106.719C341.186 104.219 341.186 104.219 341.004 101.668C340.816 99.2726 340.816 99.2726 340.625 96.8286C340.495 95.2606 340.366 93.6925 340.232 92.0769C340.099 90.5577 339.966 89.0384 339.828 87.4731C339.418 83.1632 339.418 83.1632 339 78.7661C338.59 74.6572 338.59 74.6572 338.172 70.4653C337.909 68.0071 337.646 65.5489 337.375 63.0161C337.135 60.8969 336.895 58.7777 336.648 56.5942C336.434 55.001 336.22 53.4077 336 51.7661C335.505 50.2811 335.505 50.2811 335 48.7661C334.01 48.2711 334.01 48.2711 333 47.7661C330.525 47.7042 330.525 47.7042 328 47.6411C325.69 47.6824 323.38 47.7236 321 47.7661ZM74 130.766C73.01 131.756 72.02 132.746 71 133.766C82.385 134.756 82.385 134.756 94 135.766C91.03 137.746 88.06 139.726 85 141.766C82.9581 142.23 82.9581 142.23 80.875 142.704C79.2663 142.724 77.6575 142.745 76 142.766C73.3394 142.663 70.6787 142.56 67.9375 142.454C65.6481 142.227 63.3587 142 61 141.766C61 141.106 61 140.446 61 139.766C59.35 140.426 57.7 141.086 56 141.766C53.7931 143.127 51.5863 144.489 49.3125 145.891C46.8994 147.5 44.4863 149.109 42 150.766C39.2775 152.87 39.2775 152.87 36.5 155.016C35.015 156.254 33.53 157.491 32 158.766C30.02 160.416 28.04 162.066 26 163.766C24.6078 165.808 24.6078 165.808 23.1875 167.891C22.4656 169.17 21.7437 170.449 21 171.766C20.67 172.756 20.34 173.746 20 174.766C20 177.736 20 180.706 20 183.766C20.66 183.766 21.32 183.766 22 183.766C22.99 182.776 23.98 181.786 25 180.766C28.6371 180.569 28.6371 180.569 32.3477 180.368C33.8831 180.362 35.4185 180.356 37.0005 180.35C38.671 180.363 40.3414 180.377 42.0625 180.391C44.6417 180.402 44.6417 180.402 47.2729 180.413C49.0585 180.432 50.844 180.45 52.6836 180.469C55.4581 180.526 55.4581 180.526 58.2886 180.584C60.1733 180.644 62.0581 180.704 64 180.766C65.8964 180.857 67.7927 180.948 69.7466 181.042C72.581 181.207 72.581 181.207 75.4727 181.375C77.3372 181.498 79.2018 181.621 81.1228 181.748C82.9385 181.878 84.7542 182.007 86.625 182.141C88.3653 182.267 90.1056 182.393 91.8987 182.522C93.5538 182.652 95.2088 182.781 96.9141 182.915C98.4703 183.055 100.027 183.195 101.63 183.339C103.072 183.48 104.514 183.621 106 183.766C108.483 184.027 110.965 184.287 113.523 184.555C115.331 184.955 117.138 185.354 119 185.766C119.99 187.416 120.98 189.066 122 190.766C123.65 189.776 125.3 188.786 127 187.766C128.011 186.405 129.021 185.044 130.062 183.641C131.362 182.032 132.661 180.424 134 178.766C135.725 177.36 137.45 175.953 139.227 174.504C142.579 172.159 142.579 172.159 146 169.766C147.894 168.667 147.894 168.667 149.827 167.545C151.159 166.831 152.491 166.116 153.863 165.379C155.246 164.668 156.628 163.958 158.053 163.225C159.458 162.517 160.864 161.808 162.312 161.079C163.707 160.359 165.101 159.639 166.537 158.897C168.617 157.836 168.617 157.836 170.738 156.754C172.099 156.08 173.46 155.405 174.862 154.71C176.227 154.068 177.593 153.427 179 152.766C181.17 151.848 181.17 151.848 183.384 150.912C185.443 150.088 185.443 150.088 187.543 149.247C189.674 148.428 191.805 147.609 194 146.766C192.69 147.398 191.381 148.029 190.031 148.68C188.206 149.575 186.381 150.469 184.5 151.391C182.503 152.391 180.506 153.392 178.449 154.422C175.257 156.078 175.257 156.078 172 157.766C169.882 158.931 167.764 160.097 165.582 161.297C162.479 163.076 162.479 163.076 159.312 164.891C157.322 166.068 155.332 167.245 153.281 168.458C151.538 169.549 149.796 170.641 148 171.766C145.793 173.437 143.586 175.107 141.312 176.829C139.889 178.128 138.466 179.427 137 180.766C135.35 182.416 133.7 184.066 132 185.766C131.34 187.086 130.68 188.406 130 189.766C131.32 189.436 132.64 189.106 134 188.766C135.031 187.694 136.062 186.621 137.125 185.516C138.404 184.279 139.682 183.041 141 181.766C142.485 180.879 143.97 179.992 145.5 179.079C147.315 178.315 149.13 177.552 151 176.766C153.557 176.044 156.115 175.322 158.75 174.579C161.143 173.98 163.535 173.382 166 172.766C167.98 172.106 169.96 171.446 172 170.766C173.731 169.631 173.731 169.631 175.496 168.473C176.797 167.518 178.097 166.563 179.438 165.579C181.677 163.97 181.677 163.97 183.961 162.329C185.624 161.153 187.287 159.977 189 158.766C190.869 157.508 192.738 156.25 194.664 154.954C196.611 153.675 198.557 152.396 200.562 151.079C202.494 149.824 204.425 148.57 206.414 147.278C209.179 145.54 209.179 145.54 212 143.766C213.658 142.803 215.315 141.84 217.023 140.848C219.208 139.632 219.208 139.632 221.438 138.391C224.686 136.597 224.686 136.597 228 134.766C228 134.436 228 134.106 228 133.766C222.555 133.271 222.555 133.271 217 132.766C213.002 132.668 209.004 132.57 204.885 132.469C199.965 132.39 195.046 132.312 189.977 132.231C181.915 132.1 181.915 132.1 173.691 131.967C168.059 131.88 162.428 131.793 156.625 131.704C148.235 131.567 148.235 131.567 139.676 131.428C134.289 131.342 128.902 131.257 123.352 131.168C118.42 131.091 113.489 131.014 108.409 130.934C103.984 130.878 99.559 130.823 95 130.766C89.0182 130.661 89.0182 130.661 82.9155 130.553C79.9734 130.624 77.0313 130.694 74 130.766ZM567 130.766C563.407 130.877 559.814 130.988 556.112 131.102C548.823 131.334 548.823 131.334 541.387 131.571C533.512 131.828 533.512 131.828 525.479 132.09C519.938 132.272 514.396 132.454 508.688 132.641C503.158 132.815 497.629 132.989 491.932 133.168C484.051 133.429 484.051 133.429 476.012 133.696C471.149 133.853 466.286 134.01 461.276 134.172C455.694 134.466 455.694 134.466 450 134.766C448.35 135.426 446.7 136.086 445 136.766C444.732 139.633 444.464 142.5 444.188 145.454C444.786 148.197 445.384 150.94 446 153.766C448.345 153.8 450.69 153.834 453.106 153.869C456.041 153.505 458.976 153.141 462 152.766C465.905 152.453 465.905 152.453 469.89 152.134C473.958 151.783 473.958 151.783 478.109 151.426C482.648 151.039 482.648 151.039 487.277 150.643C490.403 150.374 493.529 150.106 496.75 149.829C499.83 149.564 502.909 149.299 506.082 149.026C509.123 148.766 512.164 148.506 515.297 148.239C518.271 147.986 521.246 147.734 524.311 147.474C527.178 147.24 530.046 147.007 533 146.766C537.123 146.468 537.123 146.468 541.33 146.164C543.846 145.99 546.361 145.816 548.953 145.637C551.167 145.491 553.38 145.344 555.661 145.194C557.423 145.053 559.185 144.911 561 144.766C563.475 144.271 563.475 144.271 566 143.766C565.505 142.281 565.505 142.281 565 140.766C565.66 140.766 566.32 140.766 567 140.766C567 141.756 567 142.746 567 143.766C567.99 143.766 568.98 143.766 570 143.766C570.33 142.776 570.66 141.786 571 140.766C571.66 140.766 572.32 140.766 573 140.766C573 138.456 573 136.146 573 133.766C572.01 133.436 571.02 133.106 570 132.766C569.505 131.776 569.505 131.776 569 130.766C568.34 130.766 567.68 130.766 567 130.766ZM231 133.766C229.403 134.493 227.806 135.22 226.16 135.969C224.437 136.975 222.713 137.98 220.938 139.016C219.094 140.185 217.251 141.354 215.352 142.559C213.256 143.947 211.16 145.336 209 146.766C207.722 147.596 206.444 148.425 205.128 149.28C203.773 150.159 202.419 151.037 201.023 151.942C198.984 153.277 198.984 153.277 196.903 154.638C195.553 155.526 194.203 156.414 192.812 157.329C191.493 158.197 190.174 159.066 188.814 159.96C187.583 160.784 186.351 161.609 185.082 162.458C183.075 163.879 181.068 165.301 179 166.766C178.01 168.086 177.02 169.406 176 170.766C181.94 171.426 187.88 172.086 194 172.766C193.814 173.962 193.629 175.159 193.438 176.391C192.963 178.165 192.489 179.939 192 181.766C190.948 184.097 189.896 186.427 188.812 188.829C187.554 191.118 186.296 193.407 185 195.766C183.701 197.334 182.401 198.901 181.062 200.516C180.052 201.589 179.041 202.661 178 203.766C178 204.426 178 205.086 178 205.766C176.02 206.756 176.02 206.756 174 207.766C173.01 208.756 172.02 209.746 171 210.766C171.33 212.416 171.66 214.066 172 215.766C173.32 217.746 174.64 219.726 176 221.766C176.99 222.096 177.98 222.426 179 222.766C180.664 222.709 182.328 222.653 184.043 222.594C187.085 222.308 187.085 222.308 190.188 222.016C192.264 221.736 194.341 221.457 196.48 221.168C198.302 220.706 200.123 220.243 202 219.766C203.65 218.054 205.3 216.342 207 214.579C208.485 211.701 208.485 211.701 210 208.766C211.114 207.364 212.227 205.961 213.375 204.516C215.169 202.66 215.169 202.66 217 200.766C218.629 199.508 220.259 198.25 221.938 196.954C223.608 195.902 225.279 194.85 227 193.766C229.64 192.776 232.28 191.786 235 190.766C237.568 190.333 237.568 190.333 240.188 189.891C242.106 189.85 244.024 189.809 246 189.766C248.265 190.259 250.53 190.751 252.863 191.258C254.888 191.756 256.914 192.253 259 192.766C259.012 190.523 259.023 188.28 259.035 185.969C259.044 183.015 259.053 180.06 259.062 177.016C259.074 174.093 259.086 171.169 259.098 168.157C259.065 165.388 259.033 162.619 259 159.766C258.936 156.232 258.936 156.232 258.871 152.625C258.584 151.022 258.296 149.418 258 147.766C256.02 148.096 254.04 148.426 252 148.766C250.002 149.52 248.004 150.274 245.945 151.051C243.695 151.968 241.444 152.884 239.125 153.829C236.859 154.748 234.593 155.667 232.258 156.614C229.655 157.679 229.655 157.679 227 158.766C229.839 157.534 229.839 157.534 232.734 156.278C234.802 155.119 236.87 153.96 239 152.766C240.338 150.796 240.338 150.796 241.703 148.786C242.214 147.397 242.724 146.009 243.25 144.579C244.158 142 245.065 139.422 246 136.766C246 135.776 246 134.786 246 133.766C242.968 133.271 242.968 133.271 239.875 132.766C236.946 133.096 234.018 133.426 231 133.766ZM571 144.766C570.67 145.096 570.34 145.426 570 145.766C568.702 145.757 567.403 145.749 566.065 145.74C564.064 145.748 562.062 145.757 560 145.766C555.91 146.061 555.91 146.061 551.738 146.361C548.51 146.635 545.282 146.909 541.957 147.192C536.598 147.645 536.598 147.645 531.131 148.108C527.396 148.428 523.661 148.749 519.812 149.079C516.159 149.387 512.505 149.696 508.74 150.014C505.141 150.32 501.541 150.626 497.832 150.942C494.315 151.248 490.798 151.555 487.174 151.87C482.138 152.314 482.138 152.314 477 152.766C472.271 153.177 472.271 153.177 467.447 153.596C463.21 153.98 463.21 153.98 458.887 154.372C455.168 154.705 455.168 154.705 451.374 155.044C449.6 155.282 447.827 155.521 446 155.766C445.67 156.426 445.34 157.086 445 157.766C445.33 159.416 445.66 161.066 446 162.766C445.905 165.021 445.809 167.275 445.711 169.598C445.6 172.232 445.489 174.865 445.375 177.579C445.238 180.225 445.102 182.872 444.961 185.598C445.304 187.634 445.647 189.669 446 191.766C447.614 191.913 449.228 192.06 450.891 192.211C452.907 192.064 454.923 191.917 457 191.766C458.754 191.636 460.509 191.505 462.316 191.371C464.118 191.187 465.921 191.003 467.777 190.813C470.743 190.502 470.743 190.502 473.768 190.184C475.804 189.964 477.84 189.743 479.938 189.516C482.001 189.311 484.064 189.106 486.189 188.895C488.157 188.682 490.125 188.47 492.152 188.25C493.947 188.062 495.741 187.873 497.59 187.679C499.045 187.378 500.5 187.077 502 186.766C503.32 185.446 504.64 184.126 506 182.766C507.65 180.456 509.3 178.146 511 175.766C512.98 174.446 514.96 173.126 517 171.766C519.97 171.766 522.94 171.766 526 171.766C527.98 173.086 529.96 174.406 532 175.766C533.32 177.746 534.64 179.726 536 181.766C538.186 181.766 540.372 181.766 542.625 181.766C546.771 181.271 546.771 181.271 551 180.766C553.417 180.901 553.417 180.901 555.883 181.04C558.292 181.09 558.292 181.09 560.75 181.141C563.472 180.357 566.195 179.574 569 178.766C569.841 176.185 569.841 176.185 570.699 173.551C570.943 171.457 571.186 169.362 571.438 167.204C571.559 164.046 571.559 164.046 571.684 160.825C571.788 159.155 571.892 157.486 572 155.766C572.99 155.436 573.98 155.106 575 154.766C574.959 153.095 574.917 151.425 574.875 149.704C574.442 147.26 574.442 147.26 574 144.766C573.01 144.766 572.02 144.766 571 144.766ZM436 156.766C433.612 157.059 431.225 157.351 428.765 157.652C425.908 158.059 423.052 158.465 420.109 158.883C416.986 159.325 413.863 159.768 410.645 160.223C407.379 160.691 404.114 161.159 400.75 161.641C395.875 162.331 395.875 162.331 390.902 163.036C387.774 163.48 384.645 163.925 381.422 164.383C378.561 164.792 375.7 165.2 372.753 165.621C370.194 165.999 367.636 166.377 365 166.766C362.743 167.104 360.486 167.442 358.161 167.79C355.606 168.273 355.606 168.273 353 168.766C352.01 169.426 351.02 170.086 350 170.766C349.787 173.141 349.575 175.515 349.355 177.961C349.3 180.908 349.245 183.855 349.188 186.891C349.099 189.843 349.01 192.795 348.918 195.836C349.275 198.123 349.632 200.41 350 202.766C351.3 202.948 352.6 203.13 353.94 203.318C355.94 203.136 357.939 202.954 360 202.766C362.736 202.504 365.473 202.242 368.292 201.972C371.511 201.607 374.73 201.243 378.047 200.868C383.304 200.272 383.304 200.272 388.668 199.665C394.154 199.034 394.154 199.034 399.75 198.391C403.423 197.979 407.095 197.566 410.879 197.141C414.379 196.742 417.879 196.342 421.484 195.93C424.699 195.564 427.914 195.197 431.226 194.819C433.791 194.472 436.357 194.124 439 193.766C440.98 193.106 442.96 192.446 445 191.766C445.205 189.51 445.41 187.254 445.621 184.93C445.561 182.112 445.5 179.294 445.438 176.391C445.374 172.172 445.374 172.172 445.309 167.868C445.156 164.352 445.156 164.352 445 160.766C444.505 158.786 444.505 158.786 444 156.766C441.36 156.766 438.72 156.766 436 156.766ZM24 162.766C23.67 163.426 23.34 164.086 23 164.766C23.66 164.766 24.32 164.766 25 164.766C24.67 164.106 24.34 163.446 24 162.766ZM21 164.766C20.01 165.756 19.02 166.746 18 167.766C18.33 169.086 18.66 170.406 19 171.766C19.99 170.776 20.98 169.786 22 168.766C22.33 167.446 22.66 166.126 23 164.766C22.34 164.766 21.68 164.766 21 164.766ZM571 164.766C571 165.426 571 166.086 571 166.766C571.99 166.766 572.98 166.766 574 166.766C574 166.106 574 165.446 574 164.766C573.01 164.766 572.02 164.766 571 164.766ZM572 168.766C571.67 169.756 571.34 170.746 571 171.766C571.99 171.766 572.98 171.766 574 171.766C574 170.776 574 169.786 574 168.766C573.34 168.766 572.68 168.766 572 168.766ZM16 170.766C15.34 172.416 14.68 174.066 14 175.766C14.33 177.086 14.66 178.406 15 179.766C15.66 180.096 16.32 180.426 17 180.766C17.33 178.126 17.66 175.486 18 172.766C17.34 172.106 16.68 171.446 16 170.766ZM345 170.766C343.515 174.231 343.515 174.231 342 177.766C341.75 179.869 341.5 181.971 341.242 184.137C341.121 186.469 341 188.801 340.875 191.204C340.728 193.554 340.581 195.904 340.43 198.325C340.618 200.12 340.806 201.916 341 203.766C343.31 203.766 345.62 203.766 348 203.766C348.33 202.446 348.66 201.126 349 199.766C349.044 197.711 349.088 195.657 349.133 193.54C349.129 189.877 349.129 189.877 349.125 186.141C349.128 183.694 349.13 181.248 349.133 178.727C349.067 175.776 349.067 175.776 349 172.766C348.67 172.106 348.34 171.446 348 170.766C347.01 170.766 346.02 170.766 345 170.766ZM517 172.766C514.865 174.313 514.865 174.313 512.688 175.891C511.471 177.17 510.254 178.449 509 179.766C507.68 181.746 506.36 183.726 505 185.766C505.33 186.096 505.66 186.426 506 186.766C507.98 186.766 509.96 186.766 512 186.766C513.65 185.446 515.3 184.126 517 182.766C517.66 182.436 518.32 182.106 519 181.766C521.31 181.766 523.62 181.766 526 181.766C527.32 182.756 528.64 183.746 530 184.766C531.65 184.106 533.3 183.446 535 182.766C534.01 181.116 533.02 179.466 532 177.766C530.02 176.116 528.04 174.466 526 172.766C523.03 172.766 520.06 172.766 517 172.766ZM180 172.766C178.35 173.096 176.7 173.426 175 173.766C177.475 176.736 177.475 176.736 180 179.766C182.64 179.436 185.28 179.106 188 178.766C185.69 179.756 183.38 180.746 181 181.766C179.02 182.426 177.04 183.086 175 183.766C175 184.096 175 184.426 175 184.766C176.65 184.952 178.3 185.137 180 185.329C182.475 185.545 182.475 185.545 185 185.766C183.742 187.725 182.484 189.685 181.188 191.704C179.476 194.034 177.764 196.365 176 198.766C174.164 200.457 172.329 202.149 170.438 203.891C168.643 205.17 166.849 206.449 165 207.766C162.36 208.756 159.72 209.746 157 210.766C154.69 210.766 152.38 210.766 150 210.766C148.515 208.291 148.515 208.291 147 205.766C146.67 203.786 146.34 201.806 146 199.766C145.34 200.756 144.68 201.746 144 202.766C142.68 205.076 141.36 207.386 140 209.766C140 210.426 140 211.086 140 211.766C139.01 210.776 138.02 209.786 137 208.766C136.34 207.446 135.68 206.126 135 204.766C132.69 205.756 130.38 206.746 128 207.766C128.99 205.786 129.98 203.806 131 201.766C132.65 200.446 134.3 199.126 136 197.766C138.31 197.106 140.62 196.446 143 195.766C143.99 193.786 144.98 191.806 146 189.766C147.98 188.776 149.96 187.786 152 186.766C153.998 186.343 155.996 185.92 158.055 185.485C160.305 185.083 162.556 184.68 164.875 184.266C167.141 183.864 169.407 183.462 171.742 183.047C173.477 182.625 175.212 182.202 177 181.766C177 180.776 177 179.786 177 178.766C174.525 176.291 174.525 176.291 172 173.766C169.999 173.91 167.999 174.055 165.938 174.204C163.648 174.719 161.359 175.235 159 175.766C155.937 176.601 155.937 176.601 152.812 177.454C150.894 178.217 148.976 178.98 147 179.766C145.399 180.705 143.798 181.643 142.148 182.61C140.449 183.981 138.75 185.353 137 186.766C135.583 188.773 134.167 190.78 132.707 192.848C130.779 196.18 130.779 196.18 128.812 199.579C127.499 201.813 126.185 204.047 124.832 206.348C123.897 208.136 122.963 209.924 122 211.766C122.33 212.426 122.66 213.086 123 213.766C126.898 213.807 126.898 213.807 130.875 213.848C132.501 213.81 134.126 213.772 135.801 213.733C138.374 213.657 138.374 213.657 141 213.579C142.685 213.547 144.37 213.515 146.105 213.483C147.741 213.438 149.377 213.394 151.062 213.348C155.487 213.06 155.487 213.06 160 212.766C161.574 212.322 163.148 211.878 164.77 211.421C166.166 210.875 167.562 210.329 169 209.766C170.526 208.755 172.053 207.745 173.625 206.704C175.069 205.404 176.512 204.105 178 202.766C179.825 200.477 179.825 200.477 181.688 198.141C183.327 195.48 183.327 195.48 185 192.766C186.114 190.518 187.227 188.27 188.375 185.954C189.241 183.912 190.107 181.87 191 179.766C191.33 178.116 191.66 176.466 192 174.766C190.35 174.106 188.7 173.446 187 172.766C184.69 172.766 182.38 172.766 180 172.766ZM14 180.766C14 181.756 14 182.746 14 183.766C14.66 185.746 15.32 187.726 16 189.766C16.66 189.766 17.32 189.766 18 189.766C17.67 187.456 17.34 185.146 17 182.766C16.01 182.106 15.02 181.446 14 180.766ZM171 183.766C171 184.756 171 185.746 171 186.766C171.66 186.766 172.32 186.766 173 186.766C173 185.776 173 184.786 173 183.766C172.34 183.766 171.68 183.766 171 183.766ZM61 185.766C60.6494 187.457 60.2988 189.149 59.9375 190.891C59.6281 192.83 59.3187 194.769 59 196.766C57.35 198.416 55.7 200.066 54 201.766C53.34 202.096 52.68 202.426 52 202.766C51.67 201.116 51.34 199.466 51 197.766C50.67 197.766 50.34 197.766 50 197.766C50.1237 199.23 50.2475 200.695 50.375 202.204C50.5812 203.709 50.7875 205.215 51 206.766C51.66 207.096 52.32 207.426 53 207.766C53 206.776 53 205.786 53 204.766C54.65 203.776 56.3 202.786 58 201.766C59.32 202.096 60.64 202.426 62 202.766C63.98 203.756 65.96 204.746 68 205.766C68.66 204.446 69.32 203.126 70 201.766C70.1031 200.137 70.2063 198.507 70.3125 196.829C70.2094 195.158 70.1062 193.487 70 191.766C69.01 190.116 68.02 188.466 67 186.766C64.03 186.271 64.03 186.271 61 185.766ZM161 185.766C161.99 186.797 162.98 187.829 164 188.891C165.485 190.809 165.485 190.809 167 192.766C167 194.746 167 196.726 167 198.766C165.041 198.849 163.081 198.931 161.062 199.016C159.062 198.934 157.061 198.851 155 198.766C154.67 199.426 154.34 200.086 154 200.766C155.32 203.406 156.64 206.046 158 208.766C159.65 208.436 161.3 208.106 163 207.766C165.001 206.199 167.001 204.631 169.062 203.016C171.022 201.284 172.981 199.551 175 197.766C176.32 196.116 177.64 194.466 179 192.766C179 192.106 179 191.446 179 190.766C177.02 190.106 175.04 189.446 173 188.766C171.68 187.776 170.36 186.786 169 185.766C166.36 185.766 163.72 185.766 161 185.766ZM16 190.766C15.67 191.756 15.34 192.746 15 193.766C14.34 194.426 13.68 195.086 13 195.766C14.32 195.766 15.64 195.766 17 195.766C17.33 194.116 17.66 192.466 18 190.766C17.34 190.766 16.68 190.766 16 190.766ZM19 185.766C18.9381 187.354 18.8762 188.942 18.8125 190.579C18.8744 192.62 18.9363 194.662 19 196.766C19.2475 199.829 19.2475 199.829 19.5 202.954C19.665 204.542 19.83 206.13 20 207.766C16.37 206.446 12.74 205.126 9 203.766C9 206.406 9 209.046 9 211.766C10.8975 212.405 12.795 213.045 14.75 213.704C17.8438 214.23 17.8438 214.23 21 214.766C22.32 215.096 23.64 215.426 25 215.766C27.64 217.086 30.28 218.406 33 219.766C35.4131 220.302 37.8262 220.839 40.3125 221.391C41.7833 221.627 43.2541 221.863 44.7695 222.106C47.3586 222.433 47.3586 222.433 50 222.766C52.1489 222.974 54.2977 223.181 56.5117 223.395C59.9709 223.672 59.9709 223.672 63.5 223.954C66.9669 224.184 66.9669 224.184 70.5039 224.418C72.6476 224.533 74.7913 224.648 77 224.766C78.6796 224.829 80.3593 224.892 82.0898 224.958C84.2419 224.987 84.2419 224.987 86.4375 225.016C88.9331 224.934 91.4287 224.851 94 224.766C95.9117 224.423 97.8234 224.08 99.793 223.727C101.841 223.41 103.89 223.093 106 222.766C107.751 222.774 109.501 222.782 111.305 222.79C113.143 222.906 114.981 223.022 116.875 223.141C119.012 223.249 121.15 223.358 123.352 223.469C125.876 223.567 128.4 223.665 131 223.766C132.577 223.79 134.155 223.814 135.78 223.838C138.314 223.857 138.314 223.857 140.898 223.875C142.608 223.88 144.317 223.885 146.079 223.89C147.785 223.89 149.492 223.891 151.25 223.891C152.922 223.895 154.594 223.9 156.316 223.904C158.673 223.902 158.673 223.902 161.078 223.899C164.999 223.833 164.999 223.833 169 223.766C171.475 223.271 171.475 223.271 174 222.766C173.01 220.291 173.01 220.291 172 217.766C171.01 216.116 170.02 214.466 169 212.766C166.03 213.261 166.03 213.261 163 213.766C160.663 213.868 160.663 213.868 158.28 213.971C155.562 214.026 155.562 214.026 152.789 214.083C150.823 214.124 148.857 214.166 146.832 214.209C143.76 214.268 143.76 214.268 140.625 214.329C138.553 214.372 136.482 214.415 134.348 214.459C131.411 214.52 131.411 214.52 128.414 214.583C125.706 214.636 125.706 214.636 122.944 214.69C121.642 214.715 120.341 214.74 119 214.766C120.32 212.126 121.64 209.486 123 206.766C125.104 203.363 125.104 203.363 127.25 199.891C128.488 197.87 129.725 195.849 131 193.766C131 193.106 131 192.446 131 191.766C129.35 192.096 127.7 192.426 126 192.766C124.68 195.076 123.36 197.386 122 199.766C122.99 197.786 123.98 195.806 125 193.766C125 193.106 125 192.446 125 191.766C123.35 191.766 121.7 191.766 120 191.766C118.71 193.754 118.71 193.754 117.395 195.782C116.542 197.509 115.69 199.236 114.812 201.016C113.523 203.592 113.523 203.592 112.207 206.219C111.115 208.47 111.115 208.47 110 210.766C109.34 212.086 108.68 213.406 108 214.766C106.68 215.426 105.36 216.086 104 216.766C101.69 217.426 99.38 218.086 97 218.766C94.4541 218.865 91.9082 218.965 89.2852 219.067C87.8051 219.076 86.325 219.085 84.8 219.095C83.2367 219.09 81.6733 219.084 80.0625 219.079C78.4585 219.075 76.8545 219.072 75.2019 219.068C73.5936 219.054 71.9852 219.039 70.3281 219.024C68.7406 218.992 67.1532 218.96 65.5176 218.927C64.0268 218.874 62.536 218.821 61 218.766C57.3416 218.484 57.3416 218.484 53.6094 218.196C51.5314 217.951 49.4534 217.706 47.3125 217.454C45.5143 217.21 43.716 216.966 41.8633 216.715C40.2584 216.402 38.6535 216.089 37 215.766C35.3848 215.36 33.7696 214.954 32.1055 214.536C30.7507 213.952 29.3959 213.368 28 212.766C26.68 210.786 25.36 208.806 24 206.766C23.6081 205.219 23.2162 203.672 22.8125 202.079C22.4103 199.449 22.4103 199.449 22 196.766C21.7525 193.734 21.7525 193.734 21.5 190.641C21.335 189.032 21.17 187.424 21 185.766C20.34 185.766 19.68 185.766 19 185.766ZM239 191.766C236.556 192.323 236.556 192.323 234.062 192.891C232.392 193.51 230.721 194.129 229 194.766C226.463 196.096 226.463 196.096 223.875 197.454C222.266 198.547 220.658 199.64 219 200.766C217.598 202.045 216.195 203.324 214.75 204.641C213.512 206.002 212.275 207.364 211 208.766C209.845 210.189 208.69 211.612 207.5 213.079C206.675 214.295 205.85 215.512 205 216.766C205 217.756 205 218.746 205 219.766C208.465 220.075 208.465 220.075 212 220.391C215.96 220.082 215.96 220.082 220 219.766C221.464 218.694 222.929 217.621 224.438 216.516C225.613 215.279 226.789 214.041 228 212.766C230.64 211.446 233.28 210.126 236 208.766C237.32 208.436 238.64 208.106 240 207.766C242.599 207.642 242.599 207.642 245.25 207.516C247.148 207.599 249.045 207.681 251 207.766C253.64 208.756 256.28 209.746 259 210.766C261.475 212.746 261.475 212.746 264 214.766C265.65 214.436 267.3 214.106 269 213.766C269.99 213.106 270.98 212.446 272 211.766C271.01 209.291 271.01 209.291 270 206.766C268.969 205.446 267.938 204.126 266.875 202.766C265.596 201.446 264.318 200.126 263 198.766C261.68 197.817 260.36 196.869 259 195.891C257.68 195.19 256.36 194.489 255 193.766C252.69 193.106 250.38 192.446 248 191.766C245.03 191.766 242.06 191.766 239 191.766ZM10 196.766C9.67 198.086 9.34 199.406 9 200.766C11.475 202.746 11.475 202.746 14 204.766C15.32 204.766 16.64 204.766 18 204.766C18 204.106 18 203.446 18 202.766C16.35 202.436 14.7 202.106 13 201.766C12.67 200.116 12.34 198.466 12 196.766C11.34 196.766 10.68 196.766 10 196.766ZM564 195.766C562.142 196.188 560.285 196.609 558.371 197.043C554.939 197.865 554.939 197.865 551.438 198.704C548.002 199.522 548.002 199.522 544.496 200.356C542.682 200.821 540.869 201.287 539 201.766C538.67 202.096 538.34 202.426 538 202.766C537.814 205.427 537.629 208.087 537.438 210.829C537.293 213.448 537.149 216.067 537 218.766C540.96 218.271 540.96 218.271 545 217.766C546.462 217.252 547.924 216.737 549.43 216.208C550.897 215.587 552.364 214.967 553.875 214.329C556.556 213.153 559.237 211.977 562 210.766C562.66 210.106 563.32 209.446 564 208.766C564.66 206.126 565.32 203.486 566 200.766C566 199.116 566 197.466 566 195.766C565.34 195.766 564.68 195.766 564 195.766ZM518 201.766C516.35 203.416 514.7 205.066 513 206.766C512.402 208.065 511.804 209.365 511.188 210.704C510.796 212.374 510.404 214.045 510 215.766C509.938 218.262 509.876 220.757 509.812 223.329C509.874 225.453 509.936 227.577 510 229.766C511.65 229.436 513.3 229.106 515 228.766C515 229.756 515 230.746 515 231.766C513.68 231.436 512.36 231.106 511 230.766C511.33 232.416 511.66 234.066 512 235.766C513.32 237.416 514.64 239.066 516 240.766C517.32 241.096 518.64 241.426 520 241.766C521.65 240.776 523.3 239.786 525 238.766C526.32 236.456 527.64 234.146 529 231.766C529.33 230.116 529.66 228.466 530 226.766C530.103 224.704 530.206 222.641 530.312 220.516C530.158 217.175 530.158 217.175 530 213.766C529.103 211.229 529.103 211.229 528.188 208.641C527.466 207.362 526.744 206.084 526 204.766C525.01 203.776 524.02 202.786 523 201.766C521.35 201.766 519.7 201.766 518 201.766ZM53 207.766C54 209.766 54 209.766 54 209.766L53 207.766ZM500 206.766C498.431 206.973 496.863 207.18 495.247 207.393C492.158 207.823 492.158 207.823 489.008 208.262C486.776 208.574 484.545 208.885 482.246 209.206C479.896 209.535 477.546 209.864 475.125 210.204C471.612 210.692 471.612 210.692 468.027 211.19C464.676 211.659 464.676 211.659 461.258 212.137C458.166 212.569 458.166 212.569 455.012 213.01C453.358 213.26 451.704 213.509 450 213.766C448.68 214.096 447.36 214.426 446 214.766C445.422 217.324 444.845 219.881 444.25 222.516C443.837 225.239 443.425 227.961 443 230.766C443 232.416 443 234.066 443 235.766C445.402 235.368 447.803 234.969 450.277 234.559C451.825 234.302 453.372 234.045 454.967 233.78C457.427 233.371 457.427 233.371 459.938 232.954C462.299 232.562 462.299 232.562 464.709 232.163C466.278 231.902 467.848 231.641 469.465 231.372C471.824 230.976 471.824 230.976 474.23 230.572C475.804 230.306 477.378 230.04 479 229.766C480.622 229.491 482.244 229.216 483.915 228.933C486.217 228.535 486.217 228.535 488.566 228.129C491.02 227.68 493.473 227.23 496 226.766C496.66 226.436 497.32 226.106 498 225.766C499.052 222.146 499.052 222.146 500.125 218.454C500.744 215.917 501.362 213.38 502 210.766C502 209.446 502 208.126 502 206.766C501.34 206.766 500.68 206.766 500 206.766ZM54 209.766C54.33 210.426 54.66 211.086 55 211.766C55.99 211.436 56.98 211.106 58 210.766C56.68 210.436 55.36 210.106 54 209.766ZM443 214.766C441.062 214.98 439.124 215.195 437.127 215.415C433.243 215.951 433.243 215.951 429.281 216.497C426.427 216.888 423.573 217.279 420.633 217.682C417.619 218.102 414.605 218.521 411.5 218.954C408.579 219.354 405.658 219.754 402.648 220.167C399.764 220.564 396.879 220.962 393.906 221.372C391.065 221.77 388.224 222.169 385.297 222.58C381.19 223.167 381.19 223.167 377 223.766C374.386 224.148 371.772 224.531 369.078 224.925C366.711 225.281 364.345 225.637 361.906 226.004C359.816 226.321 357.726 226.637 355.572 226.963C353.309 227.36 353.309 227.36 351 227.766C350.67 228.096 350.34 228.426 350 228.766C349.67 231.076 349.34 233.386 349 235.766C348.67 238.406 348.34 241.046 348 243.766C347.814 245.416 347.629 247.066 347.438 248.766C347.293 250.086 347.149 251.406 347 252.766C350.011 252.273 350.011 252.273 353.082 251.77C355.963 251.294 358.844 250.819 361.812 250.329C363.377 250.069 364.942 249.808 366.553 249.541C368.227 249.26 369.901 248.98 371.625 248.692C373.426 248.388 375.227 248.085 377.082 247.772C379.035 247.44 380.988 247.108 383 246.766C385.177 246.391 387.354 246.017 389.598 245.631C391.875 245.236 394.153 244.841 396.5 244.434C398.787 244.034 401.074 243.635 403.43 243.223C405.702 242.825 407.973 242.426 410.312 242.016C412.543 241.628 414.773 241.239 417.072 240.839C419.168 240.469 421.265 240.1 423.426 239.719C425.297 239.391 427.167 239.062 429.095 238.724C430.714 238.408 432.332 238.092 434 237.766C436.31 237.106 438.62 236.446 441 235.766C441.619 233.91 442.237 232.054 442.875 230.141C443.432 226.985 443.432 226.985 444 223.766C444.33 221.126 444.66 218.486 445 215.766C444.01 215.271 444.01 215.271 443 214.766ZM344 228.766C342.35 229.096 340.7 229.426 339 229.766C338.234 231.928 338.234 231.928 337.453 234.133C337.056 235.951 336.659 237.768 336.25 239.641C335.843 241.454 335.435 243.266 335.016 245.133C334.68 246.662 334.345 248.191 334 249.766C333.505 251.251 333.505 251.251 333 252.766C330.566 253.394 328.133 254.022 325.625 254.668C324.081 255.002 322.536 255.335 320.945 255.678C319.313 256.017 317.681 256.355 316 256.704C313.645 257.205 313.645 257.205 311.242 257.717C308.895 258.219 308.895 258.219 306.5 258.731C304.936 259.062 303.373 259.393 301.762 259.734C299.405 260.245 299.405 260.245 297 260.766C295.356 261.144 293.713 261.522 292.02 261.911C290.466 262.277 288.913 262.643 287.312 263.02C284.899 263.596 282.486 264.172 280 264.766C280.33 263.776 280.66 262.786 281 261.766C281.186 260.157 281.371 258.549 281.562 256.891C281.707 254.87 281.851 252.849 282 250.766C282.217 247.208 282.217 247.208 282.438 243.579C282.293 241.66 282.149 239.742 282 237.766C280.02 237.766 278.04 237.766 276 237.766C275.835 239.871 275.67 241.976 275.5 244.145C275.665 246.846 275.83 249.546 276 252.329C276.124 255.032 276.247 257.735 276.375 260.52C276.911 262.581 277.448 264.642 278 266.766C280.234 266.773 280.234 266.773 282.513 266.779C284.324 266.445 286.134 266.111 288 265.766C289.538 265.472 291.076 265.177 292.661 264.874C294.231 264.521 295.801 264.169 297.418 263.805C300.043 263.221 300.043 263.221 302.721 262.625C304.525 262.218 306.329 261.811 308.188 261.391C309.972 260.992 311.757 260.592 313.596 260.18C315.352 259.788 317.108 259.396 318.918 258.993C320.624 258.611 322.33 258.23 324.087 257.837C325.709 257.484 327.33 257.13 329 256.766C331.863 256.196 334.726 255.627 337.676 255.04C339.763 254.619 341.85 254.199 344 253.766C344.99 253.271 344.99 253.271 346 252.766C346.281 251.001 346.562 249.237 346.852 247.418C347.234 244.095 347.234 244.095 347.625 240.704C347.885 238.485 348.146 236.267 348.414 233.981C348.607 232.26 348.801 230.539 349 228.766C347.35 228.766 345.7 228.766 344 228.766ZM328 230.766C326.305 230.812 324.61 230.857 322.863 230.904C320.116 231.033 320.116 231.033 317.312 231.165C315.313 231.302 313.313 231.439 311.253 231.58C309.189 231.765 307.126 231.95 305 232.141C302.93 232.356 300.859 232.571 298.726 232.792C296.76 233.093 294.795 233.394 292.77 233.704C290.971 234.114 289.172 234.523 287.319 234.946C285.181 235.847 285.181 235.847 283 236.766C281.952 238.808 280.904 240.85 279.824 242.954C279.779 245.325 279.734 247.697 279.688 250.141C280.001 252.5 280.314 254.859 280.637 257.29C281.087 259.097 281.536 260.904 282 262.766C285.743 261.962 285.743 261.962 289.562 261.141C291.267 260.767 292.971 260.393 294.727 260.008C296.797 259.598 298.867 259.188 301 258.766C303.648 258.377 306.295 257.988 309.023 257.586C313.188 256.933 313.188 256.933 317.438 256.266C320.097 255.885 322.756 255.503 325.496 255.11C328.716 253.95 328.716 253.95 332 252.766C332.945 250.833 333.89 248.899 334.863 246.907C335.238 244.88 335.614 242.854 336 240.766C336.247 238.869 336.495 236.971 336.75 235.016C336.832 233.614 336.915 232.211 337 230.766C334.03 230.766 331.06 230.766 328 230.766ZM241 235.766C238.36 236.756 235.72 237.746 233 238.766C231.928 239.797 230.855 240.829 229.75 241.891C228.842 243.17 227.935 244.449 227 245.766C226.237 247.313 225.474 248.86 224.688 250.454C223.852 252.588 223.852 252.588 223 254.766C222.67 256.086 222.34 257.406 222 258.766C221.845 262.015 221.845 262.015 221.688 265.329C221.791 267.783 221.894 270.237 222 272.766C222.577 274.767 223.155 276.767 223.75 278.829C224.492 280.458 225.235 282.087 226 283.766C227.32 285.416 228.64 287.066 230 288.766C232.31 289.756 234.62 290.746 237 291.766C240.465 291.271 240.465 291.271 244 290.766C245.98 289.446 247.96 288.126 250 286.766C250.887 285.529 251.774 284.291 252.688 283.016C253.451 281.614 254.214 280.211 255 278.766C255.99 276.126 256.98 273.486 258 270.766C258.232 268.496 258.232 268.496 258.469 266.18C258.479 264.6 258.489 263.019 258.5 261.391C258.472 259.731 258.443 258.07 258.414 256.36C258.209 254.086 258.209 254.086 258 251.766C257.299 249.827 256.598 247.889 255.875 245.891C254.926 244.53 253.977 243.169 253 241.766C251.02 240.116 249.04 238.466 247 236.766C244.03 236.271 244.03 236.271 241 235.766ZM38 247.766C37.4844 249.684 36.9688 251.602 36.4375 253.579C36.9531 255.62 37.4688 257.662 38 259.766C39.2439 260.226 40.4879 260.686 41.7695 261.161C43.4131 261.402 45.0566 261.643 46.75 261.891C49.4706 262.137 49.4706 262.137 52.2461 262.387C54.1449 262.512 56.0437 262.637 58 262.766C59.8266 262.963 61.6532 263.161 63.5352 263.364C65.2767 263.558 67.0182 263.753 68.8125 263.954C70.4071 264.112 72.0016 264.271 73.6445 264.434C75.8005 264.598 75.8005 264.598 78 264.766C80.31 264.766 82.62 264.766 85 264.766C85.33 264.106 85.66 263.446 86 262.766C85.8763 261.095 85.7525 259.425 85.625 257.704C85.4187 256.074 85.2125 254.445 85 252.766C84.505 252.271 84.505 252.271 84 251.766C79.5991 251.285 79.5991 251.285 75.1094 250.793C73.2854 250.616 71.4613 250.439 69.582 250.256C66.6952 249.983 66.6952 249.983 63.75 249.704C61.8409 249.517 59.9318 249.331 57.9648 249.139C56.1357 248.963 54.3065 248.787 52.4219 248.606C50.7367 248.445 49.0516 248.284 47.3154 248.117C45.1793 247.944 45.1793 247.944 43 247.766C41.35 247.766 39.7 247.766 38 247.766Z" fill="black"/>
<path d="M151 135.766C153.764 135.502 153.764 135.502 156.584 135.234C159.706 135.155 159.706 135.155 162.891 135.074C165.063 135.08 167.235 135.086 169.473 135.092C171.709 135.129 173.946 135.165 176.25 135.203C178.533 135.205 180.816 135.207 183.168 135.209C185.325 135.226 187.481 135.244 189.703 135.262C192.668 135.295 192.668 135.295 195.692 135.33C197.114 135.474 198.535 135.617 200 135.766C200 136.756 200 137.746 200 138.766C197.772 139.797 195.545 140.828 193.25 141.891C190.857 142.839 188.465 143.788 186 144.766C184.68 145.096 183.36 145.426 182 145.766C180.359 145.809 178.718 145.853 177.027 145.898C175.018 145.896 173.008 145.893 170.938 145.891C168.802 145.879 166.666 145.867 164.465 145.855C162.331 145.826 160.198 145.796 158 145.766C156.083 145.726 154.166 145.686 152.191 145.645C150.478 145.581 148.765 145.518 147 145.453C144.36 145.226 141.72 144.999 139 144.766C139 143.776 139 142.786 139 141.766C141.189 140.205 141.189 140.205 143.422 138.613C147.173 137.204 147.173 137.204 151 135.766Z" fill="black"/>
<path d="M325 145.766C326.65 146.096 328.3 146.426 330 146.766C330.66 147.426 331.32 148.086 332 148.766C334.31 149.426 336.62 150.086 339 150.766C338.67 152.086 338.34 153.406 338 154.766C335.69 155.426 333.38 156.086 331 156.766C328.03 156.271 328.03 156.271 325 155.766C324.67 156.756 324.34 157.746 324 158.766C323.67 157.776 323.34 156.786 323 155.766C321.68 155.436 320.36 155.106 319 154.766C319.33 153.446 319.66 152.126 320 150.766C321.65 149.116 323.3 147.466 325 145.766ZM325 148.766C324.67 149.426 324.34 150.086 324 150.766C325.98 150.766 327.96 150.766 330 150.766C330 150.106 330 149.446 330 148.766C328.35 148.766 326.7 148.766 325 148.766Z" fill="black"/>
<path d="M62 187.766C63.65 188.096 65.3 188.426 67 188.766C67.66 190.086 68.32 191.406 69 192.766C69 195.736 69 198.706 69 201.766C68.01 203.251 68.01 203.251 67 204.766C65.35 203.446 63.7 202.126 62 200.766C61.67 198.786 61.34 196.806 61 194.766C61.33 192.456 61.66 190.146 62 187.766Z" fill="black"/>
<path d="M522 205.766C523.32 206.426 524.64 207.086 526 207.766C526.99 210.076 527.98 212.386 529 214.766C529.124 216.374 529.248 217.983 529.375 219.641C529.251 221.332 529.127 223.023 529 224.766C528.629 226.354 528.257 227.942 527.875 229.578C527.256 230.96 526.637 232.342 526 233.766C524.02 235.416 522.04 237.066 520 238.766C519.34 238.766 518.68 238.766 518 238.766C518.33 237.446 518.66 236.126 519 234.766C520.65 234.106 522.3 233.446 524 232.766C524.66 231.116 525.32 229.466 526 227.766C526.371 225.353 526.371 225.353 526.75 222.891C526.833 221.199 526.915 219.508 527 217.766C526.34 215.456 525.68 213.146 525 210.766C524.01 209.776 523.02 208.786 522 207.766C522 207.106 522 206.446 522 205.766Z" fill="black"/>
<path d="M521 210.766C521.99 211.096 522.98 211.426 524 211.766C524.66 213.416 525.32 215.066 526 216.766C526 219.076 526 221.386 526 223.766C525.01 226.406 524.02 229.046 523 231.766C521.35 231.436 519.7 231.106 518 230.766C517.67 230.106 517.34 229.446 517 228.766C516.897 226.868 516.794 224.971 516.688 223.016C516.791 220.953 516.894 218.891 517 216.766C518.32 214.786 519.64 212.806 521 210.766Z" fill="black"/>
<path d="M244 239.766C245.65 240.756 247.3 241.746 249 242.766C250.32 244.086 251.64 245.406 253 246.766C253.578 248.106 254.155 249.447 254.75 250.828C255.163 252.458 255.575 254.087 256 255.766C256.144 257.519 256.289 259.272 256.438 261.078C256.221 263.893 256.221 263.893 256 266.766C255.423 268.869 254.845 270.973 254.25 273.141C253.507 274.997 252.765 276.853 252 278.766C250.02 281.241 250.02 281.241 248 283.766C245.69 285.086 243.38 286.406 241 287.766C240.01 287.766 239.02 287.766 238 287.766C238.66 286.116 239.32 284.466 240 282.766C242.64 281.446 245.28 280.126 248 278.766C249.32 276.126 250.64 273.486 252 270.766C252.289 269.136 252.578 267.507 252.875 265.828C252.916 264.157 252.958 262.487 253 260.766C252.732 259.157 252.464 257.548 252.188 255.891C251.796 254.529 251.404 253.168 251 251.766C250.34 250.446 249.68 249.126 249 247.766C247.35 246.116 245.7 244.466 244 242.766C244 241.776 244 240.786 244 239.766Z" fill="black"/>
<path d="M241 248.766C242.65 248.766 244.3 248.766 246 248.766C247.32 250.416 248.64 252.066 250 253.766C250.33 254.756 250.66 255.746 251 256.766C251.124 259.89 251.124 259.89 251.25 263.078C251.167 265.285 251.085 267.492 251 269.766C250.01 271.746 249.02 273.726 248 275.766C247.34 276.426 246.68 277.086 246 277.766C243.36 277.766 240.72 277.766 238 277.766C237.01 276.776 236.02 275.786 235 274.766C234.34 272.786 233.68 270.806 233 268.766C233 265.796 233 262.826 233 259.766C233.99 257.456 234.98 255.146 236 252.766C237.65 251.446 239.3 250.126 241 248.766Z" fill="black"/>
</svg>
