<svg width="94" height="50" viewBox="0 0 94 50" fill="none" xmlns="http://www.w3.org/2000/svg">
<path d="M47.1345 0.123163C47.3976 0.10863 47.6606 0.0940981 47.9316 0.0791255C48.2923 0.0608242 48.2923 0.0608242 48.6603 0.0421532C49.1322 0.0290975 49.6042 0.0160417 50.0905 0.00259042C50.333 0.00173558 50.5755 0.000880742 50.8254 0C51.0833 0.00520674 51.3411 0.0104135 51.6068 0.015778C51.8844 0.0281343 52.162 0.0404906 52.448 0.0532213C52.7649 0.0763019 53.0819 0.0993825 53.4084 0.123163C53.7961 0.163029 54.1837 0.202896 54.5831 0.24397C55.0106 0.29425 55.4381 0.34453 55.8786 0.396334C56.5512 0.481371 56.5512 0.481371 57.2374 0.568126C57.935 0.661206 57.935 0.661206 58.6467 0.756166C59.1199 0.821639 59.593 0.887112 60.0805 0.954569C60.5561 1.02214 61.0316 1.08971 61.5216 1.15933C61.9964 1.22818 62.4713 1.29704 62.9605 1.36798C63.4182 1.43465 63.8759 1.50133 64.3475 1.57003C64.7622 1.62925 65.177 1.68846 65.6043 1.74947C66.001 1.80589 66.3977 1.86231 66.8064 1.92044C67.201 1.97689 67.5957 2.03333 68.0023 2.09149C68.3955 2.14819 68.7886 2.2049 69.1936 2.26332C69.5867 2.32106 69.9797 2.3788 70.3846 2.43829C70.7908 2.49826 71.197 2.55823 71.6155 2.62001C72.0397 2.6826 72.4639 2.74518 72.901 2.80966C73.3697 2.87805 73.8384 2.94643 74.3213 3.01689C74.88 3.09647 75.4387 3.17605 76.0144 3.25804C76.9089 3.38487 76.9089 3.38487 77.8215 3.51425C78.421 3.59998 79.0204 3.68571 79.6381 3.77404C80.2326 3.85907 80.8272 3.9441 81.4398 4.03171C82.3052 4.15319 82.3052 4.15319 83.188 4.27713C83.7268 4.35468 84.2655 4.43222 84.8205 4.51211C85.3013 4.58036 85.782 4.6486 86.2773 4.71892C86.6849 4.79387 87.0926 4.86882 87.5126 4.94605C87.8169 5.04784 88.1213 5.14963 88.4349 5.2545C88.6614 5.36492 88.8879 5.47534 89.1212 5.5891C89.5194 5.90741 89.5194 5.90741 89.9256 6.23215C90.0616 6.41452 90.1977 6.59688 90.3378 6.78477C90.4672 7.02682 90.5966 7.26887 90.7299 7.51825C90.8305 7.81501 90.9311 8.11177 91.0347 8.41752C91.2024 9.00689 91.2024 9.00689 91.3734 9.60817C91.4285 9.83915 91.4837 10.0701 91.5404 10.3081C91.5952 10.5565 91.65 10.8048 91.7065 11.0607C91.761 11.3238 91.8155 11.5869 91.8717 11.8579C91.9263 12.1268 91.9808 12.3957 92.037 12.6727C92.0928 12.9323 92.1486 13.1918 92.206 13.4593C92.2602 13.7255 92.3143 13.9916 92.37 14.2659C92.4208 14.547 92.4715 14.8281 92.5237 15.1177C92.5688 15.4216 92.6139 15.7256 92.6604 16.0387C92.6962 16.3808 92.7321 16.723 92.769 17.0755C92.7981 17.4417 92.8271 17.8079 92.857 18.1851C92.8807 18.5664 92.9044 18.9477 92.9288 19.3405C92.9552 19.9343 92.9552 19.9343 92.9821 20.54C92.9926 20.9489 93.0031 21.3577 93.014 21.7789C93.0194 22.195 93.0249 22.6112 93.0305 23.04C93.0316 23.4571 93.0328 23.8742 93.0339 24.3038C93.0334 24.723 93.0329 25.1421 93.0324 25.5739C93.035 26.0011 93.0376 26.4284 93.0402 26.8685C93.0403 27.2829 93.0404 27.6972 93.0405 28.1242C93.0357 28.5135 93.0308 28.9028 93.0258 29.3039C93.0042 29.82 93.0042 29.82 92.9821 30.3466C92.9328 30.7455 92.9328 30.7455 92.8824 31.1525C92.8413 31.3663 92.8001 31.5801 92.7578 31.8004C92.6299 32.2744 92.6299 32.2744 92.4995 32.758C92.3933 33.0233 92.2871 33.2885 92.1777 33.5618C91.9123 33.774 91.6469 33.9863 91.3734 34.2049C91.0546 34.364 91.0546 34.364 90.7293 34.5264C90.4873 34.6325 90.2453 34.7386 89.996 34.8479C89.6121 35.0174 89.6121 35.0174 89.2205 35.1902C88.9754 35.2895 88.7303 35.3887 88.4778 35.491C88.1095 35.5938 87.7412 35.6966 87.3617 35.8025C86.9586 35.9666 86.9586 35.9666 86.5473 36.134C86.4509 36.3796 86.3545 36.6252 86.2551 36.8782C86.1923 37.1101 86.1295 37.342 86.0647 37.5809C86.3499 37.6004 86.635 37.6199 86.9288 37.6399C87.4915 37.6804 87.4915 37.6804 88.0655 37.7216C88.6226 37.7607 88.6226 37.7607 89.191 37.8007C89.5396 37.8343 89.8882 37.8679 90.2473 37.9024C90.5312 37.9526 90.8151 38.0027 91.1076 38.0544C91.3015 38.1104 91.4954 38.1663 91.6951 38.224C91.6951 38.3301 91.6951 38.4362 91.6951 38.5455C91.3169 38.6881 90.9387 38.8306 90.549 38.9775C90.2791 39.0639 90.0092 39.1503 89.7311 39.2394C89.4237 39.3287 89.1163 39.418 88.7995 39.5101C88.4812 39.5912 88.1629 39.6724 87.8349 39.756C87.4745 39.8408 87.1141 39.9257 86.7428 40.0131C86.3162 40.1114 85.8896 40.2097 85.45 40.3109C84.9627 40.418 84.4755 40.5251 83.9734 40.6354C83.4153 40.7505 82.8571 40.8655 82.282 40.9841C81.6762 41.1052 81.0704 41.2264 80.4463 41.3513C79.8125 41.4763 79.1788 41.6014 78.5258 41.7302C77.8649 41.8596 77.2041 41.9891 76.5232 42.1225C75.8305 42.2589 75.1379 42.3953 74.4242 42.5358C73.7362 42.6711 73.0482 42.8064 72.3394 42.9457C71.6747 43.0759 71.01 43.206 70.3252 43.34C69.7328 43.4555 69.1404 43.5709 68.5301 43.6899C68.0919 43.7745 67.6538 43.8591 67.2024 43.9462C66.6558 44.0509 66.6558 44.0509 66.0982 44.1577C65.757 44.2229 65.4158 44.2881 65.0643 44.3553C64.5751 44.4487 64.5751 44.4487 64.076 44.544C63.7477 44.6066 63.4193 44.6693 63.0811 44.7338C62.7269 44.8019 62.3728 44.87 62.008 44.9402C61.6174 45.016 61.2269 45.0919 60.8245 45.17C60.3414 45.2651 59.8583 45.3603 59.3605 45.4583C58.6931 45.5918 58.0257 45.7253 57.338 45.8628C56.5827 46.0147 55.8273 46.1665 55.0491 46.323C54.2655 46.481 53.4819 46.6389 52.6746 46.8017C51.485 47.0419 51.485 47.0419 50.2715 47.287C49.5045 47.442 48.7375 47.5971 47.9472 47.7569C47.2162 47.9048 46.4851 48.0527 45.7319 48.2051C45.0768 48.3378 44.4216 48.4705 43.7465 48.6072C42.7958 48.7992 42.7958 48.7992 41.8259 48.9951C41.1057 49.1414 40.3856 49.2876 39.6437 49.4384C39.0366 49.5573 38.4296 49.6763 37.8041 49.7989C37.4197 49.8412 37.0352 49.8834 36.6391 49.927C36.2273 49.9378 35.8154 49.9486 35.3911 49.9597C35.0586 49.9656 34.7262 49.9715 34.3836 49.9776C33.999 49.9824 33.6144 49.9873 33.2181 49.9923C32.6112 49.9953 32.6112 49.9953 31.9921 49.9984C31.5676 49.9989 31.1431 49.9994 30.7058 49.9998C30.0477 49.9999 30.0477 49.9999 29.3762 50C28.939 49.9983 28.5019 49.9966 28.0515 49.9948C27.6251 49.9907 27.1988 49.9865 26.7595 49.9823C26.3696 49.9748 25.9798 49.9673 25.5781 49.9597C25.109 49.941 25.109 49.941 24.6305 49.922C24.2236 49.8983 24.2236 49.8983 23.8086 49.8742C23.5584 49.8562 23.3083 49.8382 23.0505 49.8196C22.8163 49.7995 22.582 49.7794 22.3406 49.7587C21.8838 49.7141 21.427 49.6696 20.9563 49.6237C20.5173 49.5754 20.0783 49.5271 19.626 49.4774C19.1654 49.4307 18.7048 49.3841 18.2303 49.3361C17.7652 49.2865 17.3001 49.237 16.8208 49.186C16.3628 49.1317 15.9047 49.0774 15.4327 49.0215C15.0834 48.9771 15.0834 48.9771 14.7269 48.9318C14.4856 48.8996 14.2442 48.8675 13.9956 48.8343C13.7362 48.798 13.4768 48.7617 13.2095 48.7243C12.8101 48.6662 12.8101 48.6662 12.4026 48.607C12.1366 48.567 11.8706 48.527 11.5966 48.4858C11.3331 48.445 11.0697 48.4041 10.7983 48.3621C10.5412 48.3211 10.2841 48.2802 10.0192 48.238C9.77117 48.1971 9.52311 48.1562 9.26754 48.114C8.8105 48.0334 8.35346 47.9528 7.88257 47.8697C7.51511 47.7941 7.14765 47.7185 6.76905 47.6405C6.46629 47.5703 6.16353 47.5 5.8516 47.4276C5.1847 47.2486 5.1847 47.2486 4.50432 47.0659C4.29198 46.9598 4.07963 46.8537 3.86085 46.7444C3.91393 46.5852 3.96702 46.4261 4.02172 46.2621C4.29379 46.1792 4.56586 46.0963 4.84617 46.0109C5.21114 45.9347 5.57611 45.8584 5.95214 45.7798C6.38347 45.7201 6.8148 45.6605 7.2592 45.599C7.80665 45.5293 7.80665 45.5293 8.36517 45.4583C8.47134 45.4052 8.57752 45.3522 8.68691 45.2975C8.51106 45.1583 8.33521 45.019 8.15403 44.8755C7.95827 44.6965 7.76252 44.5174 7.56083 44.333C7.40157 44.0146 7.24231 43.6963 7.07822 43.3684C6.62367 43.2357 6.16911 43.1031 5.70078 42.9665C5.44074 42.9014 5.1807 42.8363 4.91278 42.7693C4.55133 42.6679 4.55133 42.6679 4.18259 42.5646C3.88066 42.412 3.57872 42.2595 3.26764 42.1024C3.03871 41.9366 2.80977 41.7708 2.5739 41.6C2.37151 41.4309 2.16911 41.2618 1.96059 41.0876C1.70677 40.7842 1.70677 40.7842 1.44782 40.4746C1.30183 40.1961 1.15584 39.9176 1.00543 39.6306C0.885984 39.3256 0.766539 39.0205 0.643475 38.7063C0.504122 38.2785 0.504122 38.2785 0.361955 37.8422C0.295596 37.5437 0.229238 37.2453 0.160869 36.9379C0.1111 36.5764 0.0613312 36.215 0.0100543 35.8427C0.00673638 35.5144 0.00341846 35.1861 0 34.8479C0.212347 34.5296 0.424693 34.2113 0.643475 33.8834C0.689718 33.5804 0.735962 33.2774 0.783606 32.9653C0.813675 32.6117 0.843744 32.2582 0.874723 31.8939C0.93258 31.3356 0.93258 31.3356 0.991605 30.7661C1.03598 30.4154 1.08036 30.0648 1.12608 29.7035C1.18373 29.4391 1.24138 29.1747 1.30077 28.9022C1.36589 28.6826 1.431 28.4629 1.49809 28.2366C1.64076 27.8718 1.78343 27.5071 1.93042 27.1313C2.0565 26.9025 2.18259 26.6738 2.31249 26.438C2.50493 26.2424 2.69737 26.0468 2.89564 25.8452C3.25065 25.5667 3.60567 25.2882 3.97145 25.0012C4.18317 24.8514 4.39489 24.7016 4.61303 24.5472C4.84259 24.392 5.07215 24.2368 5.30867 24.0768C5.55316 23.9166 5.79764 23.7564 6.04954 23.5914C6.42934 23.3493 6.42934 23.3493 6.81681 23.1022C7.07333 22.9414 7.32984 22.7806 7.59413 22.6149C7.84858 22.4607 8.10302 22.3065 8.36517 22.1477C8.61132 22.0101 8.85747 21.8725 9.11107 21.7307C9.34602 21.5997 9.58097 21.4688 9.82304 21.3338C10.0443 21.2035 10.2656 21.0731 10.4935 20.9388C10.6937 20.8072 10.8938 20.6756 11.0999 20.54C11.4118 20.2615 11.7237 19.983 12.045 19.696C12.264 19.391 12.483 19.0859 12.7086 18.7717C12.8048 18.3771 12.9011 17.9825 13.0002 17.576C13.0632 17.2278 13.1263 16.8797 13.1912 16.521C13.4567 16.3088 13.7221 16.0966 13.9956 15.8779C14.3141 15.8249 14.6326 15.7718 14.9608 15.7172C15.1997 15.3989 15.4386 15.0805 15.6847 14.7526C15.8228 14.5487 15.9609 14.3447 16.1032 14.1347C16.2571 13.9142 16.4109 13.6937 16.5695 13.4665C16.7466 13.2427 16.9237 13.0189 17.1061 12.7883C17.294 12.5611 17.4819 12.334 17.6754 12.1C17.8668 11.8706 18.0583 11.6412 18.2555 11.4048C18.4423 11.1833 18.6291 10.9618 18.8216 10.7335C19.0745 10.4335 19.0745 10.4335 19.3325 10.1275C19.4924 9.93955 19.6523 9.75159 19.817 9.55793C20.1256 9.20315 20.4341 8.84837 20.7521 8.48283C21.2149 7.97055 21.2149 7.97055 21.6871 7.44792C21.9625 7.15282 22.2379 6.85772 22.5216 6.55368C22.7273 6.34479 22.933 6.1359 23.145 5.92067C23.3109 5.7582 23.4768 5.59573 23.6477 5.42834C23.9131 5.16308 24.1786 4.89782 24.452 4.62452C24.7258 4.36092 24.7258 4.36092 25.005 4.092C25.2472 3.89637 25.4894 3.70074 25.739 3.49918C26.1006 3.27703 26.4623 3.05487 26.8349 2.82599C27.2165 2.62373 27.598 2.42147 27.9911 2.21308C28.2701 2.09952 28.549 1.98595 28.8363 1.86895C29.1414 1.7703 29.4464 1.67166 29.7607 1.57003C30.0465 1.52009 30.3322 1.47014 30.6266 1.41869C30.9315 1.38574 31.2363 1.35279 31.5504 1.31884C31.906 1.2805 32.2616 1.24216 32.6281 1.20266C33.009 1.16474 33.3899 1.12681 33.7824 1.08774C34.3563 1.02837 34.3563 1.02837 34.9418 0.967796C35.5574 0.907802 35.5574 0.907802 36.1854 0.846596C36.8563 0.787845 36.8563 0.787845 37.5408 0.727907C37.9075 0.698182 37.9075 0.698182 38.2815 0.667857C38.5487 0.647263 38.8158 0.626669 39.0911 0.605451C39.5475 0.571763 39.5475 0.571763 40.0132 0.537394C40.3383 0.514469 40.6633 0.491543 40.9983 0.467924C41.3331 0.445387 41.668 0.42285 42.0131 0.399631C42.3561 0.378027 42.6991 0.356423 43.0525 0.334164C43.4012 0.314425 43.7499 0.294686 44.1092 0.274349C44.4547 0.256164 44.8003 0.237979 45.1563 0.219244C45.4947 0.202691 45.833 0.186138 46.1816 0.169084C46.496 0.15393 46.8105 0.138776 47.1345 0.123163ZM50.0302 1.08774C49.7581 1.22368 49.486 1.35963 49.2057 1.49969C48.8971 1.77324 48.8971 1.77324 48.5823 2.05232C48.3999 2.20816 48.2174 2.364 48.0294 2.52456C47.8402 2.74008 47.6511 2.9556 47.4563 3.17766C47.1941 3.55234 46.932 3.92701 46.662 4.31305C46.5259 4.52235 46.3899 4.73166 46.2497 4.9473C46.117 5.1591 45.9843 5.37089 45.8476 5.5891C45.612 5.98367 45.3764 6.37825 45.1337 6.78477C44.9446 7.13293 44.7555 7.48108 44.5606 7.83978C44.4014 8.26419 44.2421 8.68861 44.078 9.12588C43.9144 9.43217 43.7508 9.73847 43.5822 10.054C43.3842 10.4043 43.1861 10.7545 42.9821 11.1153C42.766 11.4999 42.5499 11.8846 42.3273 12.2809C42.1087 12.6721 41.8902 13.0634 41.665 13.4665C41.4696 13.8279 41.2743 14.1893 41.073 14.5617C40.8868 14.9098 40.7006 15.258 40.5087 15.6167C40.3269 15.9561 40.145 16.2956 39.9576 16.6453C39.7779 16.9756 39.5981 17.306 39.4128 17.6463C39.2247 17.9766 39.0367 18.307 38.8429 18.6473C38.666 18.9536 38.4891 19.2599 38.3069 19.5755C38.0686 19.9833 38.0686 19.9833 37.8255 20.3994C37.7123 20.605 37.5991 20.8105 37.4824 21.0223C37.4824 21.1284 37.4824 21.2345 37.4824 21.3439C37.8374 21.377 38.1924 21.4102 38.5582 21.4443C39.1405 21.3946 39.1405 21.3946 39.7346 21.3439C39.9884 21.0604 39.9884 21.0604 40.2473 20.7711C40.3436 20.5357 40.4398 20.3003 40.5389 20.0578C40.6982 19.6864 40.8574 19.315 41.0215 18.9324C41.058 18.5378 41.0945 18.1433 41.1321 17.7367C41.2366 17.0554 41.2366 17.0554 41.3433 16.3602C41.5125 15.9756 41.6817 15.591 41.856 15.1947C41.9692 14.987 42.0825 14.7794 42.1991 14.5654C42.3414 14.3089 42.4836 14.0523 42.6302 13.788C42.8222 13.4154 43.0142 13.0428 43.2121 12.6589C43.4215 12.2556 43.631 11.8523 43.8468 11.4368C44.0461 11.0535 44.2453 10.6701 44.4507 10.2751C44.6462 9.9489 44.8418 9.62272 45.0432 9.28665C45.2388 9.08915 45.4343 8.89166 45.6358 8.68818C45.8119 8.56736 45.9879 8.44655 46.1693 8.32207C46.4082 8.22591 46.6471 8.12976 46.8932 8.03069C47.2516 7.93619 47.2516 7.93619 47.6171 7.83978C48.1745 7.7602 48.1745 7.7602 48.7432 7.67902C49.1534 7.57457 49.5636 7.47013 49.9862 7.36252C50.2183 7.31642 50.4504 7.27032 50.6896 7.22283C50.9299 7.18769 51.1701 7.15255 51.4176 7.11635C52.1303 7.09117 52.1303 7.09117 52.8573 7.06548C53.2515 7.2149 53.6457 7.36431 54.0519 7.51825C54.2104 7.84344 54.2104 7.84344 54.3721 8.1752C54.469 8.59388 54.469 8.59388 54.5678 9.02101C54.6095 9.33252 54.6512 9.64403 54.6942 9.96498C54.7178 10.3015 54.7414 10.638 54.7657 10.9847C54.7906 11.5061 54.7906 11.5061 54.8159 12.038C54.8249 12.3863 54.8338 12.7346 54.843 13.0935C54.8448 13.4364 54.8465 13.7793 54.8483 14.1326C54.8509 14.4433 54.8535 14.754 54.8562 15.0741C54.8888 15.5122 54.9213 15.9503 54.9549 16.4017C54.9887 16.7693 55.0225 17.1369 55.0573 17.5157C55.0799 17.88 55.1025 18.2443 55.1258 18.6197C55.1516 19.252 55.1516 19.252 55.178 19.897C55.1845 20.1897 55.191 20.4823 55.1977 20.7839C55.2063 21.2656 55.2063 21.2656 55.215 21.7571C55.2209 22.082 55.2267 22.4069 55.2328 22.7416C55.2405 23.2285 55.2405 23.2285 55.2483 23.7252C55.2508 24.0426 55.2532 24.36 55.2557 24.687C55.2597 24.9807 55.2637 25.2745 55.2678 25.5771C55.2912 26.0369 55.3147 26.4968 55.3388 26.9706C55.4981 27.0236 55.6573 27.0767 55.8214 27.1313C55.9276 27.0783 56.0338 27.0252 56.1432 26.9706C56.1497 26.5205 56.1497 26.5205 56.1564 26.0612C56.1421 25.6451 56.1277 25.229 56.113 24.8003C56.0859 24.0962 56.0859 24.0962 56.0583 23.3779C56.0406 22.9986 56.0406 22.9986 56.0226 22.6117C56.0093 22.3525 55.996 22.0932 55.9823 21.8262C55.968 21.5675 55.9536 21.3089 55.9389 21.0425C55.9153 20.6499 55.9153 20.6499 55.8912 20.2493C55.8652 19.8494 55.8652 19.8494 55.8386 19.4415C55.8197 19.1707 55.8007 18.8999 55.7812 18.6209C55.7607 18.3456 55.7402 18.0703 55.7191 17.7866C55.6969 17.508 55.6747 17.2294 55.6518 16.9424C55.6278 16.6617 55.6038 16.3811 55.579 16.092C55.5528 15.8091 55.5267 15.5263 55.4997 15.2349C55.4706 14.9489 55.4415 14.663 55.4116 14.3683C55.365 13.9396 55.365 13.9396 55.3175 13.5023C55.2691 13.0775 55.2691 13.0775 55.2197 12.6441C55.186 12.3651 55.1523 12.086 55.1176 11.7986C55.082 11.5257 55.0463 11.2527 55.0096 10.9716C54.9737 10.7061 54.9378 10.4406 54.9008 10.1671C54.8653 9.91036 54.8299 9.65365 54.7933 9.38916C54.761 9.14313 54.7287 8.89709 54.6954 8.64359C54.6491 8.19058 54.6029 7.73757 54.5552 7.27083C54.5052 6.87501 54.4553 6.4792 54.4038 6.07139C54.3092 5.56501 54.3092 5.56501 54.2127 5.04841C54.0535 4.67943 54.0535 4.67943 53.891 4.303C53.4497 4.18695 53.0084 4.0709 52.5538 3.95133C51.9416 4.04583 51.9416 4.04583 51.3171 4.14223C51.7186 4.14223 52.12 4.14223 52.5337 4.14223C53.1259 4.06266 53.1259 4.06266 53.7301 3.98147C53.6505 3.34485 53.6505 3.34485 53.5693 2.69537C53.41 2.30245 53.41 2.30245 53.2475 1.9016C53.0883 1.57832 53.0883 1.57832 52.9258 1.2485C52.8462 1.16893 52.8462 1.16893 52.7649 1.08774C52.1279 1.05292 52.1279 1.05292 51.478 1.01741C51.2295 1.01906 50.9811 1.02072 50.7252 1.02243C50.4958 1.04398 50.2665 1.06553 50.0302 1.08774ZM48.4215 1.08774C47.7785 1.10857 47.7785 1.10857 47.1226 1.12981C46.8535 1.14018 46.5845 1.15054 46.3073 1.16121C46.0129 1.17344 45.7185 1.18567 45.4152 1.19826C45.1088 1.21153 44.8024 1.22479 44.4867 1.23846C44.1617 1.254 43.8367 1.26954 43.5018 1.28555C43.157 1.30387 42.8122 1.32218 42.457 1.34105C42.0895 1.36356 41.7219 1.38607 41.3433 1.40927C40.9436 1.43861 40.5439 1.46796 40.1321 1.4982C39.7183 1.53123 39.3044 1.56426 38.8781 1.59829C38.2554 1.65045 38.2554 1.65045 37.6201 1.70367C37.2097 1.73915 36.7993 1.77462 36.3764 1.81117C35.9783 1.84551 35.5803 1.87984 35.1701 1.91522C34.7922 1.94886 34.4143 1.98249 34.025 2.01715C33.4958 2.06675 33.4958 2.06675 32.9559 2.11735C32.6447 2.14894 32.3335 2.18053 32.0129 2.21308C31.3481 2.29732 31.3481 2.29732 30.67 2.38326C30.2199 2.45818 30.2199 2.45818 29.7607 2.53461C29.4654 2.6175 29.1701 2.70039 28.8659 2.7858C28.5772 2.91511 28.2886 3.04443 27.9911 3.17766C27.6428 3.39981 27.2944 3.62197 26.9354 3.85085C26.5937 4.10616 26.252 4.36147 25.8999 4.62452C25.6377 4.84668 25.3756 5.06883 25.1056 5.29772C24.8368 5.55303 24.5681 5.80834 24.2912 6.07139C24.0931 6.26287 23.8951 6.45436 23.6911 6.65164C23.3809 6.95628 23.3809 6.95628 23.0645 7.26706C22.87 7.45917 22.6755 7.65127 22.4751 7.8492C22.2592 8.08327 22.2592 8.08327 22.039 8.32207C22.039 8.42817 22.039 8.53428 22.039 8.64359C22.507 8.62101 22.9751 8.59842 23.4573 8.57514C23.7599 8.55307 24.0626 8.531 24.3744 8.50827C24.8558 8.47081 24.8558 8.47081 25.3469 8.43259C25.8068 8.39793 25.8068 8.39793 26.2759 8.36257C26.5834 8.33988 26.8908 8.31719 27.2075 8.29381C27.6847 8.25985 27.6847 8.25985 28.1715 8.2252C28.4836 8.20412 28.7957 8.18303 29.1172 8.16131C29.3985 8.14312 29.6798 8.12494 29.9696 8.1062C30.254 8.09102 30.5384 8.07584 30.8315 8.0602C31.1357 8.04757 31.4399 8.03495 31.7534 8.02193C32.1044 8.01488 32.4555 8.00782 32.8172 8.00054C33.2646 8.00436 33.712 8.00819 34.1729 8.01212C34.666 8.01949 35.159 8.02686 35.667 8.03445C36.4242 8.04067 36.4242 8.04067 37.1968 8.04701C37.7124 8.05157 38.228 8.05613 38.7593 8.06083C39.5467 8.08072 39.5467 8.08072 40.3501 8.10102C40.8518 8.10226 41.3535 8.10351 41.8705 8.10479C42.3254 8.1117 42.7804 8.11862 43.2491 8.12575C43.8187 7.98419 43.8187 7.98419 44.3998 7.83978C44.6495 7.45902 44.8993 7.07825 45.1567 6.68595C45.419 6.06343 45.419 6.06343 45.6867 5.42834C45.9223 5.06692 46.1578 4.70551 46.4006 4.33314C46.6428 4.00488 46.885 3.67663 47.1345 3.33842C47.39 3.04332 47.6455 2.74822 47.9087 2.44418C48.131 2.20876 48.3533 1.97334 48.5823 1.73079C48.7947 1.51858 49.007 1.30638 49.2258 1.08774C48.9604 1.08774 48.6949 1.08774 48.4215 1.08774ZM53.2475 1.2485C53.3172 1.45739 53.3869 1.66629 53.4587 1.88151C53.5483 2.15008 53.6378 2.41866 53.7301 2.69537C53.7746 2.94409 53.819 3.19281 53.8648 3.44906C53.9796 3.67781 54.0944 3.90656 54.2127 4.14223C54.4963 4.22229 54.7798 4.30235 55.0719 4.38483C55.6255 4.42794 55.6255 4.42794 56.1903 4.47192C56.5984 4.50754 57.0065 4.54316 57.427 4.57986C58.0805 4.62684 58.0805 4.62684 58.7472 4.67476C59.4046 4.73044 59.4046 4.73044 60.0753 4.78725C60.7274 4.84316 60.7274 4.84316 61.3928 4.90021C61.8188 4.93479 62.2447 4.96937 62.6836 5.005C63.0734 5.0386 63.4632 5.0722 63.8649 5.10681C64.1792 5.14062 64.4935 5.17442 64.8174 5.20925C65.0866 5.24197 65.3558 5.27468 65.6332 5.30839C66.3156 5.39761 66.3156 5.39761 67.0119 5.48862C67.3969 5.5396 67.782 5.59058 68.1788 5.64311C68.454 5.67834 68.7291 5.71357 69.0127 5.74986C69.1719 5.74986 69.3312 5.74986 69.4953 5.74986C69.4787 5.53102 69.4621 5.31219 69.445 5.08672C69.4085 4.82809 69.372 4.56946 69.3344 4.303C69.1751 3.98469 69.0159 3.66638 68.8518 3.33842C68.5333 3.23232 68.2148 3.12621 67.8866 3.01689C67.4641 2.95128 67.0416 2.88566 66.6064 2.81806C66.0758 2.74566 65.5452 2.67326 64.9985 2.59866C64.421 2.51991 63.8434 2.44116 63.2484 2.36003C62.6423 2.27838 62.0361 2.19673 61.4116 2.1126C60.808 2.02971 60.2043 1.94682 59.5824 1.86141C59.004 1.78308 58.4257 1.70474 57.8298 1.62403C57.0328 1.51598 57.0328 1.51598 56.2197 1.40573C55.7697 1.35385 55.3198 1.30196 54.8562 1.2485C54.3661 1.23688 54.3661 1.23688 53.866 1.22503C53.5599 1.23665 53.5599 1.23665 53.2475 1.2485ZM69.1735 3.33842C69.2498 3.5871 69.3262 3.83578 69.4048 4.092C69.4877 4.37383 69.5707 4.65567 69.6561 4.94605C69.7092 5.21131 69.7623 5.47657 69.817 5.74986C70.1502 5.8226 70.4835 5.89534 70.8268 5.97028C71.5164 6.05515 71.5164 6.05515 72.22 6.14172C72.4663 6.17336 72.7126 6.20501 72.9664 6.23761C73.3546 6.28775 73.3546 6.28775 73.7507 6.33891C74.0235 6.37295 74.2963 6.40698 74.5774 6.44205C75.0081 6.49731 75.0081 6.49731 75.4474 6.55368C75.754 6.59632 76.0606 6.63895 76.3765 6.68288C76.846 6.75011 76.846 6.75011 77.3251 6.81869C77.7876 6.88538 77.7876 6.88538 78.2595 6.95343C78.5625 6.99724 78.8654 7.04106 79.1776 7.0862C79.6275 7.15053 79.6275 7.15053 80.0865 7.21616C80.501 7.27524 80.501 7.27524 80.9239 7.33551C81.3463 7.39582 81.7687 7.45612 82.2039 7.51825C81.5591 7.44241 81.5591 7.44241 80.9012 7.36503C80.4818 7.31551 80.4818 7.31551 80.0539 7.26498C79.7514 7.2292 79.449 7.19341 79.1373 7.15654C78.8324 7.12044 78.5274 7.08434 78.2132 7.04715C77.9054 7.01051 77.5976 6.97387 77.2804 6.93612C76.9714 6.89905 76.6623 6.86198 76.3439 6.82379C75.9001 6.76966 75.9001 6.76966 75.4474 6.71444C75.1837 6.68105 74.92 6.64766 74.6483 6.61326C74.405 6.58178 74.1617 6.55031 73.911 6.51788C73.4691 6.46006 73.0272 6.40225 72.5719 6.34268C72.1775 6.29025 71.783 6.23782 71.3767 6.1838C71.0743 6.1467 70.772 6.10961 70.4605 6.07139C70.2481 6.07139 70.0358 6.07139 69.817 6.07139C69.8369 6.27696 69.8568 6.48254 69.8773 6.69434C69.9105 6.96624 69.9437 7.23813 69.9779 7.51825C70.0243 7.80672 70.0708 8.09519 70.1186 8.3924C70.1784 8.63445 70.2381 8.8765 70.2996 9.12588C70.4589 9.23199 70.6181 9.33809 70.7822 9.44741C71.2815 9.5016 71.7809 9.55579 72.2953 9.61163C72.9602 9.66851 73.625 9.7254 74.31 9.78401C75.3931 9.87819 75.3931 9.87819 76.4981 9.97428C77.2595 10.0391 78.021 10.104 78.8055 10.1708C79.9384 10.2681 79.9384 10.2681 81.0941 10.3674C82.1804 10.4616 82.1804 10.4616 83.2885 10.5577C83.9552 10.6146 84.6218 10.6714 85.3087 10.7301C85.8767 10.7843 86.4447 10.8384 87.03 10.8943C87.4356 10.941 87.8412 10.9877 88.2592 11.0359C88.5437 11.0953 88.8281 11.1546 89.1212 11.2158C89.3867 11.428 89.6521 11.6402 89.9256 11.8589C90.0351 12.1805 90.1446 12.5021 90.2574 12.8335C90.3086 13.0459 90.3598 13.2583 90.4126 13.4772C90.49 13.8698 90.49 13.8698 90.5691 14.2703C90.6257 14.6133 90.6823 14.9562 90.7406 15.3096C90.8249 15.8694 90.8249 15.8694 90.9109 16.4406C90.9912 16.9992 90.9912 16.9992 91.073 17.5691C91.1191 17.9129 91.1651 18.2567 91.2125 18.6109C91.242 18.8801 91.2714 19.1493 91.3018 19.4266C91.3254 19.6449 91.3491 19.8631 91.3734 20.0879C91.4265 20.3963 91.4796 20.7046 91.5343 21.0223C91.7466 21.0223 91.959 21.0223 92.1777 21.0223C92.1522 20.7185 92.1267 20.4147 92.1005 20.1017C92.0629 19.6827 92.0254 19.2637 91.9867 18.8319C91.9426 18.3781 91.8984 17.9243 91.8529 17.4567C91.8008 16.9887 91.7488 16.5208 91.6951 16.0387C91.6046 15.3965 91.6046 15.3965 91.5123 14.7413C91.4465 14.3339 91.3808 13.9264 91.3131 13.5067C91.2438 13.1125 91.1746 12.7184 91.1032 12.3123C91.0331 11.9504 90.963 11.5886 90.8908 11.2158C90.824 10.907 90.7573 10.5982 90.6885 10.2801C90.6225 10.012 90.5566 9.74379 90.4886 9.4675C90.3559 9.03646 90.2232 8.60541 90.0865 8.16131C89.9654 7.93874 89.8443 7.71617 89.7195 7.48686C89.5751 7.28501 89.4308 7.08317 89.2821 6.8752C88.9636 6.60994 88.6451 6.34469 88.3169 6.07139C87.9899 5.98467 87.6628 5.89796 87.3259 5.80862C86.7016 5.69996 86.7016 5.69996 86.0647 5.5891C85.5788 5.51428 85.0928 5.43945 84.5921 5.36236C84.0464 5.28611 83.5007 5.20986 82.9385 5.1313C82.3397 5.04727 81.7409 4.96324 81.124 4.87666C80.1904 4.74688 80.1904 4.74688 79.2379 4.61448C78.6161 4.52733 77.9943 4.44019 77.3536 4.35041C76.7547 4.26658 76.1557 4.18276 75.5385 4.09639C74.9926 4.02032 74.4467 3.94426 73.8843 3.86588C73.3915 3.79792 72.8987 3.72996 72.3909 3.65995C71.9444 3.59789 71.4979 3.53584 71.0379 3.4719C70.5132 3.40583 70.5132 3.40583 69.9779 3.33842C69.7124 3.33842 69.447 3.33842 69.1735 3.33842ZM54.2127 4.303C54.2333 4.52888 54.2538 4.75477 54.275 4.9875C54.3075 5.29213 54.3401 5.59676 54.3736 5.91063C54.4178 6.20863 54.462 6.50663 54.5075 6.81366C54.5595 7.14565 54.6116 7.47764 54.6652 7.81969C54.7222 8.19975 54.7792 8.57982 54.838 8.9714C54.8971 9.39374 54.9562 9.81608 55.0171 10.2512C55.046 10.4845 55.075 10.7178 55.1048 10.9582C55.1333 11.2003 55.1618 11.4424 55.1912 11.6918C55.2191 11.937 55.2471 12.1822 55.2759 12.4348C55.3033 12.6824 55.3307 12.93 55.3589 13.1851C55.386 13.4355 55.4131 13.6858 55.4411 13.9437C55.467 14.1882 55.493 14.4328 55.5198 14.6848C55.5663 15.1316 55.6127 15.5784 55.6606 16.0387C55.6937 16.3495 55.7269 16.6604 55.7611 16.9807C55.7876 17.2534 55.8142 17.5261 55.8415 17.8071C55.877 18.223 55.877 18.223 55.9132 18.6473C55.936 19.0067 55.9588 19.366 55.9823 19.7362C55.9951 20.0139 56.0079 20.2915 56.0211 20.5776C56.0411 21.0483 56.0411 21.0483 56.0615 21.5285C56.0751 21.8509 56.0888 22.1734 56.1029 22.5056C56.1162 22.8318 56.1295 23.158 56.1432 23.4941C56.1546 23.8157 56.166 24.1373 56.1778 24.4687C56.1896 24.7684 56.2014 25.068 56.2135 25.3767C56.2434 25.8497 56.2733 26.3226 56.304 26.8098C56.4102 26.8629 56.5164 26.9159 56.6258 26.9706C57.1033 26.9103 57.1033 26.9103 57.5904 26.8489C58.2284 26.7512 58.2284 26.7512 58.8792 26.6515C59.5809 26.5452 59.5809 26.5452 60.2968 26.4368C61.0378 26.323 61.0378 26.323 61.7937 26.2069C62.2739 26.1336 62.7542 26.0602 63.249 25.9846C63.7214 25.9129 64.1938 25.8412 64.6805 25.7674C65.1428 25.6974 65.6051 25.6275 66.0814 25.5554C66.5178 25.4919 66.9543 25.4284 67.404 25.3629C67.8002 25.3119 68.1964 25.2608 68.6047 25.2081C68.9546 25.1656 69.3044 25.123 69.6649 25.0791C69.9689 25.0438 70.2729 25.0085 70.5861 24.9722C70.8101 24.942 71.034 24.9118 71.2648 24.8806C71.371 24.8276 71.4772 24.7745 71.5866 24.7199C71.6189 24.5058 71.6513 24.2917 71.6846 24.0712C71.6921 23.8045 71.6995 23.5378 71.7072 23.263C71.723 22.9958 71.7387 22.7287 71.755 22.4535C71.6463 22.2465 71.5376 22.0394 71.4257 21.8262C70.7943 21.7767 70.7943 21.7767 70.1501 21.7263C69.8875 21.7393 69.625 21.7522 69.3545 21.7656C69.0824 21.7856 68.8104 21.8056 68.5301 21.8262C68.2796 21.8379 68.0291 21.8498 67.771 21.8619C67.5242 21.8733 67.2774 21.8847 67.0232 21.8965C66.7729 21.911 66.5225 21.9256 66.2646 21.9406C66.0102 21.9559 65.7558 21.9712 65.4937 21.9869C65.2274 22.0018 64.9612 22.0167 64.6869 22.032C64.4231 22.0461 64.1593 22.0603 63.8875 22.0748C63.6342 22.088 63.3809 22.1012 63.1199 22.1147C62.888 22.1256 62.656 22.1365 62.417 22.1477C61.8783 22.1638 61.8783 22.1638 61.3287 22.1803C61.0442 22.1828 60.7596 22.1853 60.4665 22.1879C60.0485 22.1746 59.6304 22.1613 59.1997 22.1477C58.9873 22.0416 58.775 21.9355 58.5562 21.8262C58.3886 21.5224 58.3886 21.5224 58.2176 21.2125C58.117 20.9375 58.0164 20.6626 57.9127 20.3793C57.8456 20.0576 57.7785 19.7359 57.7093 19.4045C57.6249 18.8584 57.6249 18.8584 57.5388 18.3013C57.4763 17.9012 57.4138 17.5012 57.3494 17.089C57.255 16.4646 57.255 16.4646 57.1586 15.8277C57.0938 15.4133 57.029 14.999 56.9623 14.572C56.9004 14.1714 56.8385 13.7707 56.7747 13.3578C56.719 12.9933 56.6633 12.6287 56.6059 12.253C56.5593 11.9107 56.5128 11.5685 56.4649 11.2158C56.4056 10.692 56.4056 10.692 56.345 10.1575C56.3315 9.87014 56.318 9.58275 56.304 9.28665C56.4102 9.07444 56.5164 8.86223 56.6258 8.64359C57.0175 8.6237 57.4092 8.60381 57.8128 8.58331C58.0747 8.58911 58.3367 8.59491 58.6065 8.60089C58.9085 8.61498 59.2104 8.62908 59.5214 8.64359C59.8642 8.66432 60.2069 8.68504 60.5601 8.70639C60.9288 8.73209 61.2975 8.75779 61.6774 8.78426C62.0593 8.81328 62.4412 8.84229 62.8346 8.87218C63.2244 8.90285 63.6141 8.93352 64.0157 8.96512C64.6068 9.01113 64.6068 9.01113 65.2099 9.05806C65.5904 9.08707 65.9708 9.11609 66.3627 9.14598C66.7057 9.17292 67.0487 9.19986 67.4021 9.22762C67.7212 9.2471 68.0404 9.26658 68.3692 9.28665C68.8692 9.291 68.8692 9.291 69.3794 9.29544C69.63 9.29254 69.8806 9.28964 70.1387 9.28665C70.0923 8.96502 70.0458 8.64339 69.998 8.31202C69.9383 7.94397 69.8785 7.57593 69.817 7.19673C69.6577 6.63969 69.6577 6.63969 69.4953 6.07139C69.2258 6.0023 68.9564 5.93322 68.6787 5.86204C68.3112 5.82502 67.9436 5.788 67.5648 5.74986C67.1452 5.69399 66.7256 5.63811 66.2932 5.58054C65.8216 5.52161 65.3499 5.46268 64.864 5.40196C64.3477 5.33772 63.8313 5.27348 63.2993 5.20729C62.4943 5.10782 62.4943 5.10782 61.673 5.00633C60.8662 4.905 60.8662 4.905 60.043 4.80161C59.527 4.73779 59.0111 4.67396 58.4795 4.6082C58.0083 4.54963 57.537 4.49106 57.0514 4.43071C56.6455 4.38857 56.2396 4.34642 55.8214 4.303C55.5012 4.2967 55.1809 4.29041 54.851 4.28392C54.535 4.29336 54.535 4.29336 54.2127 4.303ZM51.6388 7.67902C50.9321 7.70389 50.9321 7.70389 50.2111 7.72926C49.965 7.74459 49.7188 7.75993 49.4652 7.77573C49.1078 7.80743 49.1078 7.80743 48.7432 7.83978C48.1311 7.93428 48.1311 7.93428 47.5065 8.03069C47.1714 8.12684 46.8363 8.223 46.491 8.32207C46.3009 8.46237 46.1107 8.60266 45.9148 8.74721C45.7334 8.92523 45.5519 9.10324 45.365 9.28665C45.1559 9.57263 45.1559 9.57263 44.9427 9.86439C44.8166 10.0716 44.6905 10.2789 44.5606 10.4924C44.3553 10.8312 44.3553 10.8312 44.1459 11.1769C44.0173 11.4019 43.8887 11.627 43.7563 11.8589C43.4577 12.4457 43.4577 12.4457 43.153 13.0445C42.9805 13.3959 42.808 13.7474 42.6302 14.1095C42.4543 14.398 42.2785 14.6865 42.0973 14.9837C41.9547 15.2257 41.812 15.4678 41.665 15.7172C41.5588 16.0885 41.4526 16.4599 41.3433 16.8425C41.3433 17.2139 41.3433 17.5852 41.3433 17.9678C41.6618 17.57 41.6618 17.57 41.9867 17.164C42.1692 16.8026 42.3517 16.4412 42.5397 16.0688C42.6504 15.844 42.7612 15.6191 42.8753 15.3875C43.0067 15.1249 43.1382 14.8623 43.2737 14.5918C43.4416 14.2679 43.6096 13.944 43.7827 13.6103C43.9631 13.271 44.1435 12.9318 44.3294 12.5823C44.4988 12.2623 44.6682 11.9423 44.8428 11.6127C45.0151 11.3226 45.1874 11.0324 45.365 10.7335C45.5555 10.4896 45.7461 10.2457 45.9425 9.99438C46.214 9.72363 46.214 9.72363 46.491 9.44741C46.7565 9.34462 47.0219 9.24183 47.2954 9.13593C47.5608 9.07956 47.8263 9.0232 48.0997 8.96512C48.6571 8.88554 48.6571 8.88554 49.2258 8.80436C49.5236 8.78985 49.8214 8.77534 50.1282 8.7604C50.4542 8.75501 50.7802 8.74962 51.116 8.74407C51.4437 8.7362 51.7713 8.72832 52.1089 8.72021C52.5133 8.76186 52.5133 8.76186 52.9258 8.80436C53.0851 9.06962 53.2443 9.33488 53.4084 9.60817C53.4443 9.88172 53.4801 10.1553 53.5171 10.4371C53.5429 10.9817 53.5429 10.9817 53.5693 11.5373C53.5782 12.0065 53.5871 12.4757 53.5963 12.9591C53.5972 13.2125 53.5982 13.466 53.5991 13.7271C53.5992 13.9859 53.5993 14.2448 53.5994 14.5114C53.6014 14.7703 53.6034 15.0291 53.6054 15.2958C53.6057 15.5492 53.606 15.8027 53.6063 16.0638C53.5941 16.533 53.5819 17.0022 53.5693 17.4856C53.5322 17.8453 53.495 18.2051 53.4568 18.5757C53.3877 18.8526 53.3187 19.1295 53.2475 19.4147C52.8494 19.8922 52.8494 19.8922 52.4432 20.3793C52.2043 20.4887 51.9654 20.5981 51.7193 20.7109C51.2017 20.865 51.2017 20.865 50.6736 21.0223C50.3951 21.0887 50.1166 21.155 49.8297 21.2233C49.5276 21.2929 49.2254 21.3626 48.9141 21.4343C48.624 21.4975 48.3339 21.5607 48.035 21.6258C47.7909 21.6919 47.5469 21.758 47.2954 21.8262C47.083 21.9853 46.8707 22.1445 46.6519 22.3084C46.8112 22.0697 46.8112 22.0697 46.9737 21.8262C46.9737 21.4017 46.9737 20.9773 46.9737 20.54C46.9206 20.4339 46.8675 20.3278 46.8128 20.2185C46.4943 20.2981 46.4943 20.2981 46.1693 20.3793C46.0233 20.6114 45.8773 20.8435 45.7269 21.0826C45.6075 21.328 45.488 21.5734 45.365 21.8262C45.365 21.9853 45.365 22.1445 45.365 22.3084C45.4711 22.3084 45.5773 22.3084 45.6867 22.3084C45.6867 22.4145 45.6867 22.5206 45.6867 22.63C45.471 22.6465 45.2554 22.6631 45.0332 22.6802C44.718 22.7167 44.4028 22.7531 44.078 22.7907C43.6434 22.8769 43.2087 22.9631 42.7609 23.052C42.3993 23.231 42.0376 23.4101 41.665 23.5945C41.6683 23.9468 41.6716 24.2991 41.675 24.6621C41.7248 25.1056 41.7746 25.5491 41.8259 26.006C41.8315 26.4573 41.8371 26.9087 41.8428 27.3737C41.8472 27.8309 41.8515 28.288 41.856 28.7591C41.8583 29.2204 41.8606 29.6817 41.8629 30.1569C41.9038 30.5378 41.9446 30.9187 41.9867 31.3112C42.4645 31.709 42.4645 31.709 42.9519 32.115C43.1012 32.4267 43.2505 32.7383 43.4044 33.0595C43.6267 33.3313 43.849 33.6032 44.078 33.8834C44.4602 33.8821 44.8424 33.8809 45.2361 33.8796C45.4799 33.8575 45.7238 33.8353 45.9749 33.8125C46.2514 33.7828 46.5279 33.7532 46.8128 33.7226C47.1244 33.6931 47.4361 33.6637 47.7571 33.6334C48.0892 33.6015 48.4212 33.5696 48.7633 33.5367C49.1022 33.5017 49.441 33.4667 49.7901 33.4306C50.1348 33.3943 50.4794 33.3581 50.8345 33.3207C51.1891 33.2844 51.5437 33.2482 51.9091 33.2108C52.2446 33.1758 52.5801 33.1408 52.9258 33.1047C53.3837 33.057 53.3837 33.057 53.8508 33.0083C54.0764 32.9787 54.302 32.9492 54.5345 32.9188C54.5876 32.8657 54.6407 32.8127 54.6954 32.758C54.7149 32.3549 54.7149 32.3549 54.7349 31.9435C54.7451 31.5989 54.7553 31.2543 54.7657 30.8992C54.7755 30.5575 54.7852 30.2157 54.7953 29.8637C54.8154 29.5456 54.8355 29.2275 54.8562 28.8997C55.0155 28.2631 55.0155 28.2631 55.178 27.6136C54.7533 27.6136 54.3286 27.6136 53.891 27.6136C53.4315 27.6948 52.9719 27.7761 52.4985 27.8598C52.2413 27.9106 51.9842 27.9613 51.7193 28.0136C51.4538 28.0673 51.1884 28.121 50.9149 28.1763C50.6445 28.23 50.3741 28.2836 50.0955 28.3389C49.7123 28.4151 49.7123 28.4151 49.3213 28.4928C48.9182 28.574 48.5151 28.6553 48.0997 28.739C48.6677 28.5929 48.6677 28.5929 49.2472 28.4438C49.4824 28.385 49.7176 28.3262 49.9599 28.2656C50.1955 28.2096 50.431 28.1536 50.6736 28.0959C51.2453 27.9834 51.2453 27.9834 51.8286 27.8686C52.3618 27.7722 52.3618 27.7722 52.9057 27.6739C53.2669 27.6088 53.6282 27.5438 54.0003 27.4767C54.2828 27.4158 54.5652 27.3549 54.8562 27.2921C54.9624 27.186 55.0686 27.0799 55.178 26.9706C55.1877 26.7479 55.1974 26.5251 55.2074 26.2957C55.202 26.0005 55.1967 25.7054 55.1912 25.4012C55.1825 24.9069 55.1825 24.9069 55.1736 24.4025C55.1651 24.0463 55.1566 23.6902 55.1478 23.3233C55.1397 22.9602 55.1316 22.5971 55.1232 22.223C55.1137 21.8558 55.1042 21.4886 55.0944 21.1103C55.0826 20.7419 55.0709 20.3735 55.0588 19.994C55.045 19.6437 55.0313 19.2934 55.0171 18.9324C55.001 18.6273 54.985 18.3221 54.9685 18.0077C54.9507 17.7268 54.933 17.4459 54.9147 17.1565C54.8861 16.7545 54.8861 16.7545 54.8569 16.3445C54.8267 15.9594 54.8267 15.9594 54.7959 15.5664C54.775 15.3144 54.7542 15.0623 54.7327 14.8025C54.7113 14.5583 54.6898 14.3141 54.6677 14.0624C54.6018 13.3695 54.6018 13.3695 54.5345 12.6627C54.4685 12.0021 54.4685 12.0021 54.4013 11.3282C54.359 10.933 54.3167 10.5378 54.2731 10.1307C54.2345 9.78996 54.1959 9.44927 54.1562 9.09825C54.1218 8.84211 54.0873 8.58597 54.0519 8.32207C53.9722 8.08334 53.9722 8.08334 53.891 7.83978C53.7317 7.7602 53.7317 7.7602 53.5693 7.67902C53.1711 7.66907 53.1711 7.66907 52.7649 7.65892C52.3933 7.66555 52.0217 7.67219 51.6388 7.67902ZM11.9043 21.0223C11.745 21.1815 11.5858 21.3406 11.4217 21.5046C13.2532 21.6638 13.2532 21.6638 15.1217 21.8262C14.6439 22.1445 14.1661 22.4628 13.6738 22.7907C13.3454 22.8653 13.3454 22.8653 13.0103 22.9414C12.7515 22.9448 12.4927 22.9481 12.226 22.9515C11.798 22.9349 11.37 22.9183 10.929 22.9013C10.5607 22.8648 10.1924 22.8283 9.81299 22.7907C9.81299 22.6846 9.81299 22.5785 9.81299 22.4692C9.54756 22.5753 9.28212 22.6814 9.00865 22.7907C8.65363 23.0096 8.29861 23.2284 7.93284 23.4539C7.54464 23.7125 7.15644 23.9711 6.75648 24.2376C6.31852 24.5758 6.31852 24.5758 5.87171 24.9208C5.63282 25.1198 5.39393 25.3187 5.1478 25.5237C4.82928 25.789 4.51076 26.0542 4.18259 26.3275C3.95863 26.6558 3.95863 26.6558 3.73014 26.9907C3.61402 27.1962 3.49789 27.4018 3.37824 27.6136C3.32516 27.7728 3.27207 27.9319 3.21737 28.0959C3.21737 28.5734 3.21737 29.0508 3.21737 29.5428C3.32355 29.5428 3.42972 29.5428 3.53911 29.5428C3.69837 29.3836 3.85763 29.2245 4.02172 29.0605C4.60681 29.0288 4.60681 29.0288 5.20372 28.9964C5.45073 28.9955 5.69773 28.9945 5.95222 28.9935C6.22094 28.9957 6.48967 28.9979 6.76654 29.0002C7.18145 29.0019 7.18145 29.0019 7.60474 29.0037C7.89197 29.0067 8.1792 29.0097 8.47514 29.0128C8.92146 29.0219 8.92146 29.0219 9.37681 29.0313C9.68001 29.0409 9.98321 29.0506 10.2956 29.0605C10.6007 29.0751 10.9057 29.0897 11.22 29.1048C11.676 29.1313 11.676 29.1313 12.1412 29.1584C12.4411 29.1782 12.7411 29.198 13.0501 29.2183C13.3422 29.2392 13.6343 29.26 13.9352 29.2815C14.2152 29.3018 14.4952 29.322 14.7836 29.3428C15.0499 29.3636 15.3161 29.3844 15.5904 29.4059C15.8408 29.4284 16.0911 29.4509 16.3491 29.4742C16.5811 29.4968 16.8131 29.5194 17.0521 29.5428C17.4515 29.5846 17.8509 29.6265 18.2624 29.6696C18.5531 29.7339 18.8438 29.7981 19.1434 29.8643C19.3026 30.1296 19.4619 30.3948 19.626 30.6681C19.8914 30.509 20.1568 30.3498 20.4303 30.1858C20.5929 29.967 20.7555 29.7481 20.923 29.5227C21.132 29.264 21.341 29.0054 21.5564 28.739C21.8339 28.5129 22.1113 28.2868 22.3972 28.0538C22.9366 27.6768 22.9366 27.6768 23.4868 27.2921C23.7916 27.1154 23.7916 27.1154 24.1025 26.9351C24.3167 26.8202 24.531 26.7053 24.7518 26.5869C24.9742 26.4726 25.1966 26.3583 25.4257 26.2405C25.6519 26.1267 25.878 26.0128 26.111 25.8955C26.3353 25.7797 26.5595 25.664 26.7906 25.5447C27.1251 25.3742 27.1251 25.3742 27.4664 25.2003C27.6853 25.0918 27.9043 24.9834 28.1298 24.8716C28.3495 24.7685 28.5692 24.6654 28.7955 24.5591C29.1446 24.4116 29.1446 24.4116 29.5008 24.2611C29.8319 24.1285 29.8319 24.1285 30.1698 23.9933C30.5126 23.8617 30.8554 23.7301 31.2085 23.5945C30.9978 23.6961 30.7871 23.7976 30.5701 23.9023C30.2764 24.0461 29.9828 24.1899 29.6803 24.3381C29.3591 24.4989 29.0378 24.6597 28.7069 24.8254C28.1933 25.0915 28.1933 25.0915 27.6694 25.3629C27.3287 25.5503 26.988 25.7376 26.637 25.9306C26.1377 26.2166 26.1377 26.2166 25.6284 26.5084C25.3082 26.6976 24.988 26.8868 24.6582 27.0817C24.3778 27.2572 24.0974 27.4328 23.8086 27.6136C23.4535 27.8822 23.0985 28.1508 22.7328 28.4275C22.5038 28.6364 22.2749 28.8453 22.039 29.0605C21.7736 29.3257 21.5081 29.591 21.2347 29.8643C21.1285 30.0765 21.0223 30.2887 20.9129 30.5073C21.1253 30.4543 21.3376 30.4012 21.5564 30.3466C21.7223 30.1742 21.8882 30.0017 22.0591 29.8241C22.2648 29.6252 22.4705 29.4262 22.6825 29.2212C22.9214 29.0787 23.1603 28.9361 23.4064 28.7892C23.6984 28.6665 23.9903 28.5438 24.2912 28.4174C24.7026 28.3014 25.114 28.1853 25.5379 28.0658C25.9228 27.9696 26.3077 27.8734 26.7042 27.7744C27.0227 27.6683 27.3412 27.5622 27.6694 27.4529C27.9478 27.2704 27.9478 27.2704 28.2318 27.0842C28.4411 26.9307 28.6503 26.7771 28.8659 26.6189C29.2261 26.3603 29.2261 26.3603 29.5936 26.0964C29.8611 25.9074 30.1286 25.7184 30.4042 25.5237C30.7049 25.3214 31.0056 25.1192 31.3153 24.9108C31.6285 24.7052 31.9416 24.4996 32.2642 24.2878C32.5749 24.0862 32.8855 23.8846 33.2056 23.6768C33.6504 23.3974 33.6504 23.3974 34.1042 23.1123C34.3708 22.9575 34.6375 22.8026 34.9123 22.6432C35.2638 22.4476 35.2638 22.4476 35.6224 22.2482C36.1449 21.9597 36.1449 21.9597 36.6781 21.6654C36.6781 21.6123 36.6781 21.5593 36.6781 21.5046C35.8021 21.425 35.8021 21.425 34.9085 21.3439C34.2654 21.3281 33.6222 21.3123 32.9596 21.2961C32.1682 21.2835 31.3767 21.2708 30.5613 21.2578C29.2645 21.2368 29.2645 21.2368 27.9415 21.2154C27.0355 21.2015 26.1295 21.1875 25.1961 21.1731C23.8464 21.1511 23.8464 21.1511 22.4695 21.1288C21.6029 21.115 20.7363 21.1012 19.8434 21.087C19.0501 21.0746 18.2569 21.0621 17.4396 21.0493C16.7277 21.0404 16.0159 21.0315 15.2825 21.0223C14.3202 21.0054 14.3202 21.0054 13.3385 20.9882C12.8652 20.9994 12.3919 21.0107 11.9043 21.0223ZM91.2125 21.0223C90.6345 21.0401 90.0565 21.0579 89.461 21.0763C88.2884 21.1136 88.2884 21.1136 87.0922 21.1517C85.8254 21.193 85.8254 21.193 84.533 21.2352C83.6417 21.2644 82.7503 21.2937 81.8319 21.3238C80.9424 21.3517 80.0529 21.3797 79.1364 21.4085C77.8687 21.4505 77.8687 21.4505 76.5754 21.4933C75.7931 21.5186 75.0108 21.5438 74.2049 21.5699C73.307 21.6171 73.307 21.6171 72.3909 21.6654C72.1255 21.7715 71.86 21.8776 71.5866 21.9869C71.5434 22.4478 71.5003 22.9087 71.4559 23.3835C71.5521 23.8245 71.6483 24.2655 71.7474 24.7199C72.1247 24.7254 72.5019 24.7308 72.8906 24.7365C73.3628 24.678 73.8349 24.6194 74.3213 24.5591C74.9496 24.5088 74.9496 24.5088 75.5905 24.4574C76.2451 24.4011 76.2451 24.4011 76.9128 24.3437C77.6429 24.2814 77.6429 24.2814 78.3877 24.2178C78.8905 24.1746 79.3934 24.1314 79.9115 24.0869C80.4069 24.0443 80.9023 24.0017 81.4127 23.9578C81.9019 23.9161 82.3911 23.8743 82.8951 23.8313C83.3736 23.7907 83.8521 23.7501 84.3451 23.7083C84.8064 23.6707 85.2677 23.6332 85.743 23.5945C86.4063 23.5466 86.4063 23.5466 87.0831 23.4978C87.4877 23.4698 87.8924 23.4419 88.3094 23.4131C88.6655 23.3895 89.0216 23.366 89.3885 23.3417C89.6719 23.3191 89.9553 23.2964 90.2473 23.273C90.6455 23.1934 90.6455 23.1934 91.0517 23.1123C90.972 22.8735 90.972 22.8735 90.8908 22.63C90.997 22.63 91.1031 22.63 91.2125 22.63C91.2125 22.7891 91.2125 22.9483 91.2125 23.1123C91.3718 23.1123 91.5311 23.1123 91.6951 23.1123C91.7482 22.9531 91.8013 22.7939 91.856 22.63C91.9622 22.63 92.0684 22.63 92.1777 22.63C92.1777 22.2586 92.1777 21.8872 92.1777 21.5046C92.0185 21.4516 91.8592 21.3985 91.6951 21.3439C91.6155 21.1847 91.6155 21.1847 91.5343 21.0223C91.4281 21.0223 91.3219 21.0223 91.2125 21.0223ZM37.1607 21.5046C36.9037 21.6215 36.6468 21.7384 36.3821 21.8588C36.1048 22.0204 35.8276 22.1821 35.5419 22.3486C35.2454 22.5366 34.9488 22.7246 34.6433 22.9182C34.3061 23.1414 33.969 23.3646 33.6216 23.5945C33.416 23.7279 33.2104 23.8613 32.9987 23.9987C32.7808 24.1399 32.5629 24.2811 32.3384 24.4266C32.0102 24.6412 32.0102 24.6412 31.6755 24.8601C31.4583 25.0028 31.2412 25.1455 31.0175 25.2926C30.8052 25.4322 30.593 25.5718 30.3743 25.7157C30.1762 25.8482 29.978 25.9806 29.7739 26.1171C29.451 26.3457 29.1282 26.5743 28.7955 26.8098C28.6362 27.022 28.477 27.2342 28.3129 27.4529C29.2684 27.559 30.224 27.6651 31.2085 27.7744C31.1787 27.9667 31.1488 28.159 31.118 28.3571C31.0417 28.6423 30.9654 28.9274 30.8868 29.2212C30.7176 29.5959 30.5484 29.9706 30.374 30.3566C30.1716 30.7247 29.9692 31.0927 29.7607 31.4719C29.5517 31.7239 29.3426 31.9759 29.1273 32.2355C28.9647 32.408 28.8021 32.5804 28.6346 32.758C28.6346 32.8641 28.6346 32.9702 28.6346 33.0796C28.3161 33.2387 28.3161 33.2387 27.9911 33.4011C27.8319 33.5602 27.6726 33.7194 27.5085 33.8834C27.5616 34.1486 27.6147 34.4139 27.6694 34.6872C27.8818 35.0055 28.0941 35.3238 28.3129 35.6518C28.4721 35.7048 28.6314 35.7579 28.7955 35.8125C29.0632 35.8034 29.3309 35.7943 29.6067 35.7849C30.096 35.7389 30.096 35.7389 30.5952 35.6919C30.9293 35.647 31.2634 35.602 31.6076 35.5557C31.9006 35.4813 32.1936 35.4069 32.4955 35.3302C32.7609 35.055 33.0263 34.7798 33.2998 34.4963C33.5387 34.0337 33.5387 34.0337 33.7824 33.5618C33.9616 33.3364 34.1408 33.1109 34.3254 32.8786C34.614 32.5802 34.614 32.5802 34.9085 32.2757C35.1706 32.0735 35.4327 31.8712 35.7028 31.6628C35.9715 31.4937 36.2403 31.3246 36.5172 31.1504C36.9419 30.9912 37.3666 30.8321 37.8041 30.6681C38.2172 30.5985 38.2172 30.5985 38.6386 30.5274C38.9472 30.5208 39.2558 30.5142 39.5737 30.5073C39.938 30.5865 40.3024 30.6657 40.6778 30.7472C41.0036 30.8272 41.3293 30.9072 41.665 30.9896C41.6669 30.629 41.6687 30.2685 41.6706 29.8969C41.6721 29.422 41.6735 28.947 41.675 28.4576C41.6769 27.9876 41.6788 27.5176 41.6807 27.0334C41.6755 26.5882 41.6703 26.1431 41.665 25.6845C41.6547 25.1162 41.6547 25.1162 41.6442 24.5365C41.598 24.2787 41.5518 24.0209 41.5041 23.7553C41.1856 23.8084 40.8671 23.8614 40.5389 23.9161C40.2175 24.0373 39.8961 24.1585 39.5649 24.2834C39.2028 24.4308 38.8408 24.5781 38.4677 24.7299C38.1032 24.8777 37.7386 25.0254 37.363 25.1777C36.9443 25.349 36.9443 25.349 36.5172 25.5237C36.9738 25.3257 36.9738 25.3257 37.4397 25.1237C37.7723 24.9374 38.1049 24.7511 38.4476 24.5591C38.6629 24.2424 38.6629 24.2424 38.8825 23.9192C38.9646 23.696 39.0467 23.4728 39.1313 23.2429C39.2773 22.8284 39.4233 22.4139 39.5737 21.9869C39.5737 21.8278 39.5737 21.6686 39.5737 21.5046C39.086 21.425 39.086 21.425 38.5884 21.3439C38.1172 21.3969 37.6461 21.45 37.1607 21.5046ZM91.856 23.273C91.8029 23.3261 91.7498 23.3791 91.6951 23.4338C91.4863 23.4324 91.2774 23.431 91.0622 23.4295C90.7402 23.4309 90.4182 23.4323 90.0865 23.4338C89.4285 23.4811 89.4285 23.4811 88.7573 23.5294C88.2381 23.5735 87.7189 23.6176 87.1839 23.663C86.3218 23.7359 86.3218 23.7359 85.4423 23.8103C84.8415 23.8618 84.2406 23.9132 83.6216 23.9663C83.0338 24.0159 82.446 24.0656 81.8404 24.1167C81.2613 24.1659 80.6822 24.2151 80.0856 24.2659C79.5198 24.3151 78.954 24.3643 78.3711 24.4151C77.5609 24.4864 77.5609 24.4864 76.7344 24.5591C75.9736 24.6251 75.9736 24.6251 75.1975 24.6925C74.5159 24.7542 74.5159 24.7542 73.8205 24.8172C73.2222 24.8707 73.2222 24.8707 72.6119 24.9254C72.3266 24.9636 72.0414 25.0019 71.7474 25.0414C71.6943 25.1475 71.6413 25.2536 71.5866 25.3629C71.6396 25.6282 71.6927 25.8935 71.7474 26.1667C71.7321 26.5292 71.7167 26.8917 71.7009 27.2651C71.6831 27.6885 71.6653 28.1118 71.6469 28.548C71.6249 28.9735 71.6029 29.3989 71.5803 29.8373C71.6354 30.1645 71.6906 30.4917 71.7474 30.8289C72.0071 30.8525 72.2668 30.8761 72.5343 30.9004C72.8586 30.8768 73.1829 30.8532 73.517 30.8289C73.7992 30.8079 74.0814 30.7869 74.3722 30.7653C74.6621 30.7357 74.952 30.7061 75.2507 30.6756C75.7277 30.6256 75.7277 30.6256 76.2144 30.5745C76.5419 30.5391 76.8694 30.5037 77.2069 30.4672C77.5388 30.4342 77.8707 30.4013 78.2127 30.3673C78.5292 30.3331 78.8458 30.2989 79.1719 30.2637C79.4605 30.2334 79.7492 30.2031 80.0466 30.1718C80.2807 30.1234 80.5148 30.075 80.7561 30.0251C80.9684 29.8129 81.1808 29.6006 81.3996 29.382C81.665 29.0106 81.9304 28.6393 82.2039 28.2567C82.5224 28.0445 82.8409 27.8323 83.1691 27.6136C83.6469 27.6136 84.1247 27.6136 84.6169 27.6136C84.9354 27.8258 85.254 28.038 85.5821 28.2567C85.7945 28.575 86.0068 28.8933 86.2256 29.2212C86.5773 29.2212 86.929 29.2212 87.2914 29.2212C87.9583 29.1417 87.9583 29.1417 88.6386 29.0605C89.0275 29.0822 89.0275 29.0822 89.4241 29.1044C89.8117 29.1125 89.8117 29.1125 90.2071 29.1208C90.6451 28.9948 91.083 28.8688 91.5343 28.739C91.6696 28.324 91.6696 28.324 91.8076 27.9006C91.8468 27.5638 91.886 27.2271 91.9264 26.8801C91.946 26.3725 91.946 26.3725 91.966 25.8546C91.9828 25.5863 91.9996 25.3179 92.0169 25.0414C92.1761 24.9884 92.3354 24.9353 92.4995 24.8806C92.4929 24.6121 92.4862 24.3435 92.4794 24.0668C92.4097 23.6739 92.4097 23.6739 92.3386 23.273C92.1794 23.273 92.0201 23.273 91.856 23.273ZM70.1387 25.2022C69.7546 25.2492 69.3705 25.2962 68.9748 25.3446C68.5153 25.4099 68.0558 25.4753 67.5824 25.5425C67.08 25.6136 66.5775 25.6847 66.0598 25.7579C65.5346 25.8332 65.0093 25.9084 64.4681 25.9859C63.684 26.0969 63.684 26.0969 62.8839 26.2101C62.3807 26.2816 61.8774 26.3531 61.3588 26.4267C60.8986 26.4924 60.4384 26.5581 59.9643 26.6257C59.5527 26.6865 59.1411 26.7472 58.7171 26.8098C58.354 26.8641 57.991 26.9184 57.6169 26.9744C57.2059 27.0521 57.2059 27.0521 56.7866 27.1313C56.6274 27.2374 56.4681 27.3435 56.304 27.4529C56.2698 27.8346 56.2356 28.2163 56.2004 28.6096C56.1914 29.0833 56.1825 29.5571 56.1733 30.0452C56.159 30.5197 56.1447 30.9943 56.13 31.4832C56.1874 31.8509 56.2449 32.2185 56.304 32.5973C56.5132 32.6265 56.7223 32.6558 56.9378 32.686C57.2595 32.6567 57.5813 32.6274 57.9127 32.5973C58.3529 32.5551 58.7931 32.513 59.2466 32.4695C59.7645 32.411 60.2824 32.3524 60.8159 32.2921C61.6617 32.1963 61.6617 32.1963 62.5245 32.0986C63.407 31.9973 63.407 31.9973 64.3073 31.8939C64.898 31.8276 65.4888 31.7613 66.0975 31.693C66.6606 31.6287 67.2236 31.5645 67.8036 31.4983C68.3208 31.4394 68.8379 31.3804 69.3707 31.3197C69.7834 31.2638 70.1961 31.208 70.6213 31.1504C70.9399 31.0443 71.2584 30.9382 71.5866 30.8289C71.6195 30.4662 71.6525 30.1036 71.6865 29.7299C71.6767 29.2769 71.667 28.8239 71.6569 28.3571C71.6467 27.6789 71.6467 27.6789 71.6362 26.9869C71.6116 26.4218 71.6116 26.4218 71.5866 25.8452C71.5069 25.5269 71.5069 25.5269 71.4257 25.2022C71.001 25.2022 70.5763 25.2022 70.1387 25.2022ZM3.86085 26.1667C3.80776 26.2729 3.75467 26.379 3.69998 26.4883C3.80615 26.4883 3.91233 26.4883 4.02172 26.4883C3.96863 26.3822 3.91554 26.2761 3.86085 26.1667ZM3.37824 26.4883C3.21898 26.6474 3.05972 26.8066 2.89564 26.9706C2.94872 27.1828 3.00181 27.395 3.0565 27.6136C3.21576 27.4545 3.37502 27.2953 3.53911 27.1313C3.5922 26.9191 3.64528 26.7069 3.69998 26.4883C3.59381 26.4883 3.48763 26.4883 3.37824 26.4883ZM91.856 26.4883C91.856 26.5944 91.856 26.7005 91.856 26.8098C92.0153 26.8098 92.1745 26.8098 92.3386 26.8098C92.3386 26.7037 92.3386 26.5976 92.3386 26.4883C92.1794 26.4883 92.0201 26.4883 91.856 26.4883ZM92.0169 27.1313C91.9638 27.2905 91.9107 27.4496 91.856 27.6136C92.0153 27.6136 92.1745 27.6136 92.3386 27.6136C92.3386 27.4545 92.3386 27.2953 92.3386 27.1313C92.2324 27.1313 92.1263 27.1313 92.0169 27.1313ZM2.5739 27.4529C2.46773 27.7181 2.36155 27.9834 2.25216 28.2567C2.30525 28.4689 2.35833 28.6811 2.41303 28.8997C2.5192 28.9528 2.62538 29.0058 2.73477 29.0605C2.78785 28.6361 2.84094 28.2117 2.89564 27.7744C2.78946 27.6683 2.68329 27.5622 2.5739 27.4529ZM55.4997 27.4529C55.2608 28.0099 55.2608 28.0099 55.0171 28.5782C54.9769 28.9162 54.9366 29.2542 54.8952 29.6024C54.8757 29.9773 54.8562 30.3522 54.8361 30.7384C54.8125 31.1162 54.7888 31.494 54.7645 31.8833C54.7948 32.1719 54.825 32.4606 54.8562 32.758C55.2278 32.758 55.5994 32.758 55.9823 32.758C56.0354 32.5458 56.0885 32.3336 56.1432 32.115C56.1502 31.7846 56.1573 31.4543 56.1645 31.114C56.1639 30.5252 56.1639 30.5252 56.1633 29.9246C56.1637 29.5313 56.1641 29.1379 56.1645 28.7327C56.154 28.2583 56.154 28.2583 56.1432 27.7744C56.0901 27.6683 56.037 27.5622 55.9823 27.4529C55.823 27.4529 55.6638 27.4529 55.4997 27.4529ZM83.1691 27.7744C82.8257 28.0231 82.8257 28.0231 82.4754 28.2768C82.2796 28.4823 82.0838 28.6879 81.8822 28.8997C81.6698 29.218 81.4575 29.5363 81.2387 29.8643C81.2918 29.9173 81.3449 29.9704 81.3996 30.0251C81.7181 30.0251 82.0366 30.0251 82.3648 30.0251C82.6302 29.8129 82.8956 29.6006 83.1691 29.382C83.2753 29.329 83.3815 29.2759 83.4908 29.2212C83.8624 29.2212 84.2341 29.2212 84.6169 29.2212C84.8293 29.3804 85.0416 29.5396 85.2604 29.7035C85.5258 29.5974 85.7913 29.4913 86.0647 29.382C85.9055 29.1167 85.7462 28.8515 85.5821 28.5782C85.2636 28.3129 84.9451 28.0477 84.6169 27.7744C84.1391 27.7744 83.6614 27.7744 83.1691 27.7744ZM28.9564 27.7744C28.6909 27.8274 28.4255 27.8805 28.152 27.9351C28.5502 28.4126 28.5502 28.4126 28.9564 28.8997C29.3811 28.8467 29.8057 28.7936 30.2433 28.739C29.8717 28.8981 29.5001 29.0573 29.1172 29.2212C28.7987 29.3273 28.4802 29.4335 28.152 29.5428C28.152 29.5958 28.152 29.6489 28.152 29.7035C28.4175 29.7334 28.6829 29.7632 28.9564 29.794C29.3545 29.8288 29.3545 29.8288 29.7607 29.8643C29.5583 30.1793 29.3559 30.4943 29.1474 30.8188C28.872 31.1935 28.5966 31.5682 28.3129 31.9542C28.0176 32.2261 27.7223 32.498 27.4181 32.7781C27.1294 32.9837 26.8407 33.1893 26.5433 33.4011C26.1186 33.5602 25.6939 33.7194 25.2564 33.8834C24.8848 33.8834 24.5132 33.8834 24.1303 33.8834C23.8914 33.4855 23.8914 33.4855 23.6477 33.0796C23.5946 32.7612 23.5415 32.4429 23.4868 32.115C23.3807 32.2741 23.2745 32.4333 23.1651 32.5973C22.9527 32.9686 22.7404 33.34 22.5216 33.7226C22.5216 33.8287 22.5216 33.9348 22.5216 34.0441C22.3624 33.885 22.2031 33.7258 22.039 33.5618C21.9328 33.3496 21.8267 33.1374 21.7173 32.9188C21.3457 33.0779 20.9741 33.2371 20.5912 33.4011C20.7505 33.0828 20.9097 32.7645 21.0738 32.4365C21.3392 32.2243 21.6047 32.0121 21.8781 31.7934C22.2497 31.6873 22.6214 31.5812 23.0042 31.4719C23.1635 31.1536 23.3227 30.8353 23.4868 30.5073C23.8053 30.3482 24.1239 30.189 24.452 30.0251C24.7735 29.9571 25.0949 29.8891 25.426 29.8191C25.7881 29.7544 26.1502 29.6898 26.5232 29.6231C26.8878 29.5585 27.2523 29.4938 27.6279 29.4272C27.9071 29.3592 28.1862 29.2913 28.4738 29.2212C28.4738 29.0621 28.4738 28.9029 28.4738 28.739C28.0756 28.3411 28.0756 28.3411 27.6694 27.9351C27.3476 27.9584 27.0257 27.9816 26.6941 28.0055C26.3259 28.0884 25.9576 28.1713 25.5781 28.2567C25.0854 28.391 25.0854 28.391 24.5827 28.528C24.2742 28.6506 23.9656 28.7733 23.6477 28.8997C23.3901 29.0506 23.1326 29.2014 22.8672 29.3569C22.5939 29.5774 22.3206 29.7979 22.039 30.0251C21.8111 30.3477 21.5832 30.6704 21.3484 31.0028C21.0383 31.5384 21.0383 31.5384 20.7219 32.0848C20.5106 32.444 20.2993 32.8031 20.0816 33.1731C19.9312 33.4606 19.7809 33.748 19.626 34.0441C19.6791 34.1502 19.7322 34.2563 19.7868 34.3657C20.4139 34.3722 20.4139 34.3722 21.0537 34.3788C21.3152 34.3727 21.5767 34.3666 21.8461 34.3603C22.2601 34.348 22.2601 34.348 22.6825 34.3355C22.9535 34.3304 23.2245 34.3254 23.5038 34.3201C23.7669 34.313 24.0301 34.3058 24.3012 34.2985C25.0129 34.2521 25.0129 34.2521 25.739 34.2049C25.9922 34.1335 26.2454 34.0622 26.5063 33.9887C26.7308 33.9009 26.9554 33.8131 27.1868 33.7226C27.4323 33.5601 27.6779 33.3977 27.9308 33.2303C28.1631 33.0214 28.3953 32.8125 28.6346 32.5973C28.9283 32.2292 28.9283 32.2292 29.2278 31.8537C29.4916 31.426 29.4916 31.426 29.7607 30.9896C29.9399 30.6282 30.119 30.2668 30.3036 29.8944C30.443 29.5662 30.5823 29.2379 30.7259 28.8997C30.779 28.6345 30.8321 28.3692 30.8868 28.0959C30.6214 27.9898 30.3559 27.8837 30.0824 27.7744C29.7108 27.7744 29.3392 27.7744 28.9564 27.7744ZM2.25216 29.0605C2.25216 29.2196 2.25216 29.3788 2.25216 29.5428C2.35833 29.8611 2.46451 30.1794 2.5739 30.5073C2.68007 30.5073 2.78625 30.5073 2.89564 30.5073C2.84255 30.136 2.78946 29.7646 2.73477 29.382C2.57551 29.2759 2.41625 29.1698 2.25216 29.0605ZM27.5085 29.5428C27.5085 29.7019 27.5085 29.8611 27.5085 30.0251C27.6147 30.0251 27.7209 30.0251 27.8303 30.0251C27.8303 29.8659 27.8303 29.7067 27.8303 29.5428C27.7241 29.5428 27.6179 29.5428 27.5085 29.5428ZM9.81299 29.8643C9.75658 30.1362 9.70018 30.4081 9.64207 30.6882C9.5923 30.9999 9.54253 31.3116 9.49125 31.6327C9.22582 31.8979 8.96039 32.1632 8.68691 32.4365C8.58074 32.4896 8.47456 32.5426 8.36517 32.5973C8.31208 32.332 8.259 32.0667 8.2043 31.7934C8.15122 31.7934 8.09813 31.7934 8.04343 31.7934C8.06334 32.0289 8.08325 32.2643 8.10376 32.5068C8.13694 32.7489 8.17012 32.9909 8.2043 33.2403C8.31048 33.2934 8.41665 33.3464 8.52604 33.4011C8.52604 33.2419 8.52604 33.0828 8.52604 32.9188C8.79147 32.7596 9.05691 32.6005 9.33038 32.4365C9.54273 32.4896 9.75508 32.5426 9.97386 32.5973C10.2924 32.7564 10.6109 32.9156 10.9391 33.0796C11.0452 32.8673 11.1514 32.6551 11.2608 32.4365C11.2774 32.1746 11.294 31.9126 11.3111 31.6427C11.2945 31.3742 11.2779 31.1056 11.2608 30.8289C11.1015 30.5636 10.9423 30.2984 10.7782 30.0251C10.3004 29.9455 10.3004 29.9455 9.81299 29.8643ZM25.8999 29.8643C26.0591 30.0301 26.2184 30.1959 26.3825 30.3667C26.6214 30.675 26.6214 30.675 26.8651 30.9896C26.8651 31.3079 26.8651 31.6263 26.8651 31.9542C26.5499 31.9675 26.2347 31.9807 25.9099 31.9944C25.5881 31.9811 25.2662 31.9679 24.9346 31.9542C24.8816 32.0603 24.8285 32.1664 24.7738 32.2757C24.9861 32.7002 25.1985 33.1246 25.4172 33.5618C25.6827 33.5088 25.9481 33.4557 26.2216 33.4011C26.5434 33.1491 26.8653 32.8971 27.1969 32.6375C27.5121 32.3589 27.8273 32.0804 28.152 31.7934C28.3644 31.5282 28.5767 31.2629 28.7955 30.9896C28.7955 30.8835 28.7955 30.7774 28.7955 30.6681C28.477 30.562 28.1585 30.4559 27.8303 30.3466C27.6179 30.1874 27.4056 30.0283 27.1868 29.8643C26.7621 29.8643 26.3374 29.8643 25.8999 29.8643ZM2.5739 30.6681C2.52081 30.8273 2.46773 30.9864 2.41303 31.1504C2.30686 31.2565 2.20068 31.3626 2.09129 31.4719C2.30364 31.4719 2.51599 31.4719 2.73477 31.4719C2.78785 31.2067 2.84094 30.9414 2.89564 30.6681C2.78946 30.6681 2.68329 30.6681 2.5739 30.6681ZM3.0565 29.8643C3.04655 30.1196 3.0366 30.3749 3.02634 30.638C3.0363 30.9662 3.04625 31.2945 3.0565 31.6327C3.09632 32.1251 3.09632 32.1251 3.13694 32.6274C3.16348 32.8827 3.19003 33.138 3.21737 33.4011C2.63342 33.1889 2.04947 32.9767 1.44782 32.758C1.44782 33.1824 1.44782 33.6069 1.44782 34.0441C1.75307 34.1469 2.05831 34.2497 2.37281 34.3556C2.8705 34.4402 2.8705 34.4402 3.37824 34.5264C3.59059 34.5795 3.80294 34.6325 4.02172 34.6872C4.44641 34.8994 4.8711 35.1116 5.30867 35.3302C5.69686 35.4164 6.08506 35.5027 6.48502 35.5915C6.72163 35.6294 6.95824 35.6673 7.20201 35.7064C7.61852 35.7589 7.61852 35.7589 8.04343 35.8125C8.38912 35.8459 8.7348 35.8792 9.09097 35.9136C9.64744 35.9581 9.64744 35.9581 10.2152 36.0034C10.7729 36.0404 10.7729 36.0404 11.3419 36.0782C11.6867 36.0966 12.0316 36.115 12.3869 36.134C12.6571 36.1442 12.9273 36.1544 13.2057 36.1648C13.5519 36.1695 13.5519 36.1695 13.9051 36.1742C14.3066 36.161 14.708 36.1477 15.1217 36.134C15.4292 36.0789 15.7367 36.0238 16.0536 35.967C16.3831 35.916 16.7126 35.865 17.0521 35.8125C17.3337 35.8138 17.6153 35.815 17.9054 35.8163C18.2011 35.8349 18.4969 35.8536 18.8015 35.8728C19.1453 35.8902 19.4892 35.9076 19.8434 35.9256C20.2494 35.9413 20.6555 35.9571 21.0738 35.9733C21.3276 35.9771 21.5813 35.981 21.8428 35.9849C22.2504 35.9879 22.2504 35.9879 22.6661 35.9909C22.9411 35.9916 23.2161 35.9924 23.4995 35.9931C23.774 35.9932 24.0485 35.9933 24.3314 35.9934C24.6003 35.9941 24.8693 35.9948 25.1463 35.9955C25.5255 35.9951 25.5255 35.9951 25.9124 35.9946C26.5432 35.9841 26.5432 35.9841 27.1868 35.9733C27.585 35.8937 27.585 35.8937 27.9911 35.8125C27.8319 35.4146 27.8319 35.4146 27.6694 35.0087C27.5102 34.7434 27.3509 34.4782 27.1868 34.2049C26.709 34.2845 26.709 34.2845 26.2216 34.3657C25.8457 34.382 25.8457 34.382 25.4623 34.3987C25.025 34.4075 25.025 34.4075 24.579 34.4165C24.2627 34.4233 23.9465 34.43 23.6207 34.4369C23.1264 34.4464 23.1264 34.4464 22.6222 34.4561C22.2889 34.463 21.9557 34.47 21.6123 34.4771C21.1398 34.4869 21.1398 34.4869 20.6578 34.4969C20.2222 34.5055 20.2222 34.5055 19.7778 34.5142C19.5684 34.5182 19.3591 34.5223 19.1434 34.5264C19.3557 34.102 19.5681 33.6776 19.7868 33.2403C20.1253 32.6932 20.1253 32.6932 20.4705 32.1351C20.6696 31.8101 20.8687 31.4852 21.0738 31.1504C21.0738 31.0443 21.0738 30.9382 21.0738 30.8289C20.8084 30.8819 20.5429 30.935 20.2695 30.9896C20.0571 31.361 19.8448 31.7324 19.626 32.115C19.7852 31.7967 19.9445 31.4784 20.1086 31.1504C20.1086 31.0443 20.1086 30.9382 20.1086 30.8289C19.8432 30.8289 19.5777 30.8289 19.3042 30.8289C19.0968 31.1484 19.0968 31.1484 18.8851 31.4744C18.748 31.7521 18.611 32.0298 18.4697 32.3159C18.2623 32.73 18.2623 32.73 18.0506 33.1524C17.8749 33.5142 17.8749 33.5142 17.6956 33.8834C17.5894 34.0956 17.4832 34.3078 17.3738 34.5264C17.1615 34.6325 16.9491 34.7386 16.7303 34.8479C16.3587 34.954 15.9871 35.0602 15.6043 35.1695C15.1947 35.1854 14.7852 35.2014 14.3632 35.2178C14.1251 35.2193 13.887 35.2208 13.6417 35.2223C13.3902 35.2215 13.1387 35.2206 12.8795 35.2197C12.6215 35.2192 12.3635 35.2186 12.0976 35.218C11.8389 35.2157 11.5802 35.2133 11.3136 35.2109C11.0582 35.2058 10.8028 35.2007 10.5397 35.1954C10.2999 35.1868 10.0601 35.1783 9.81299 35.1695C9.22447 35.1241 9.22447 35.1241 8.62407 35.0778C8.28979 35.0384 7.95551 34.999 7.6111 34.9585C7.32182 34.9193 7.03254 34.8801 6.73449 34.8398C6.47632 34.7894 6.21814 34.7391 5.95214 34.6872C5.69231 34.6219 5.43247 34.5566 5.16476 34.4894C4.94682 34.3955 4.72887 34.3016 4.50432 34.2049C4.29198 33.8866 4.07963 33.5683 3.86085 33.2403C3.79781 32.9916 3.73477 32.743 3.66982 32.4867C3.60512 32.064 3.60512 32.064 3.53911 31.6327C3.4993 31.1453 3.4993 31.1453 3.45868 30.648C3.43213 30.3894 3.40559 30.1308 3.37824 29.8643C3.27207 29.8643 3.1659 29.8643 3.0565 29.8643ZM38.4476 30.8289C38.0544 30.9184 38.0544 30.9184 37.6533 31.0097C37.3846 31.1092 37.1158 31.2087 36.8389 31.3112C36.4308 31.525 36.4308 31.525 36.0145 31.7432C35.7557 31.9189 35.4969 32.0947 35.2302 32.2757C35.0046 32.4813 34.779 32.6869 34.5465 32.8987C34.3475 33.1175 34.1484 33.3364 33.9433 33.5618C33.7575 33.7906 33.5717 34.0194 33.3802 34.2551C33.2475 34.4508 33.1148 34.6464 32.9781 34.8479C32.9781 35.0071 32.9781 35.1663 32.9781 35.3302C33.5355 35.38 33.5355 35.38 34.1042 35.4307C34.7412 35.381 34.7412 35.381 35.3911 35.3302C35.6267 35.1578 35.8623 34.9854 36.105 34.8078C36.2941 34.6088 36.4832 34.4099 36.6781 34.2049C37.1028 33.9927 37.5274 33.7805 37.965 33.5618C38.1774 33.5088 38.3897 33.4557 38.6085 33.4011C39.0265 33.3812 39.0265 33.3812 39.453 33.3609C39.7583 33.3741 40.0635 33.3874 40.378 33.4011C40.8027 33.5602 41.2274 33.7194 41.665 33.8834C42.0631 34.2017 42.0631 34.2017 42.4693 34.5264C42.7348 34.4734 43.0002 34.4203 43.2737 34.3657C43.4329 34.2596 43.5922 34.1535 43.7563 34.0441C43.597 33.6462 43.597 33.6462 43.4345 33.2403C43.2686 33.0281 43.1027 32.8159 42.9318 32.5973C42.7261 32.3851 42.5204 32.1728 42.3085 31.9542C42.0961 31.8017 41.8838 31.6492 41.665 31.492C41.4526 31.3793 41.2403 31.2665 41.0215 31.1504C40.6499 31.0443 40.2783 30.9382 39.8954 30.8289C39.4177 30.8289 38.9399 30.8289 38.4476 30.8289ZM1.60869 31.6327C1.5556 31.8449 1.50251 32.0571 1.44782 32.2757C1.84597 32.594 1.84597 32.594 2.25216 32.9188C2.46451 32.9188 2.67685 32.9188 2.89564 32.9188C2.89564 32.8127 2.89564 32.7066 2.89564 32.5973C2.6302 32.5442 2.36477 32.4912 2.09129 32.4365C2.03821 32.1712 1.98512 31.906 1.93042 31.6327C1.82425 31.6327 1.71808 31.6327 1.60869 31.6327ZM90.7299 31.4719C90.4311 31.5397 90.1323 31.6075 89.8244 31.6773C89.2723 31.8094 89.2723 31.8094 88.709 31.9442C88.1563 32.0757 88.1563 32.0757 87.5924 32.2098C87.3006 32.2846 87.0088 32.3594 86.7082 32.4365C86.6551 32.4896 86.602 32.5426 86.5473 32.5973C86.5175 33.025 86.4876 33.4527 86.4569 33.8934C86.4336 34.3145 86.4104 34.7356 86.3865 35.1695C87.0235 35.0899 87.0235 35.0899 87.6734 35.0087C87.9086 34.926 88.1437 34.8433 88.386 34.7581C88.622 34.6585 88.858 34.5588 89.1011 34.4561C89.5325 34.2671 89.9638 34.0781 90.4082 33.8834C90.5144 33.7773 90.6205 33.6712 90.7299 33.5618C90.8361 33.1374 90.9423 32.713 91.0517 32.2757C91.0517 32.0105 91.0517 31.7452 91.0517 31.4719C90.9455 31.4719 90.8393 31.4719 90.7299 31.4719ZM83.33 32.4365C83.0645 32.7018 82.7991 32.967 82.5256 33.2403C82.4294 33.4492 82.3332 33.6581 82.2341 33.8733C82.171 34.1419 82.108 34.4105 82.043 34.6872C82.0331 35.0884 82.0231 35.4896 82.0129 35.903C82.0228 36.2445 82.0328 36.586 82.043 36.9379C82.3085 36.8848 82.5739 36.8318 82.8474 36.7771C82.8474 36.9363 82.8474 37.0954 82.8474 37.2594C82.635 37.2063 82.4227 37.1533 82.2039 37.0986C82.257 37.3639 82.3101 37.6291 82.3648 37.9024C82.5771 38.1677 82.7895 38.433 83.0082 38.7063C83.2206 38.7593 83.4329 38.8124 83.6517 38.867C83.9171 38.7079 84.1826 38.5487 84.4561 38.3847C84.6684 38.0134 84.8807 37.642 85.0995 37.2594C85.1526 36.9941 85.2057 36.7289 85.2604 36.4556C85.277 36.124 85.2936 35.7924 85.3107 35.4508C85.2858 34.9137 85.2858 34.9137 85.2604 34.3657C85.1161 33.9578 85.1161 33.9578 84.9688 33.5417C84.8527 33.3362 84.7366 33.1306 84.6169 32.9188C84.4577 32.7596 84.2984 32.6005 84.1343 32.4365C83.8689 32.4365 83.6034 32.4365 83.33 32.4365ZM8.52604 33.4011C8.68691 33.7226 8.68691 33.7226 8.68691 33.7226L8.52604 33.4011ZM80.4343 33.2403C80.182 33.2736 79.9296 33.3068 79.6697 33.3411C79.1729 33.4103 79.1729 33.4103 78.666 33.4808C78.3071 33.5309 77.9481 33.5809 77.5783 33.6325C77.2003 33.6854 76.8222 33.7384 76.4327 33.7929C75.8675 33.8714 75.8675 33.8714 75.2909 33.9515C74.7519 34.0269 74.7519 34.0269 74.2019 34.1038C73.7046 34.1732 73.7046 34.1732 73.1972 34.2441C72.9311 34.2842 72.665 34.3243 72.3909 34.3657C72.1786 34.4187 71.9662 34.4718 71.7474 34.5264C71.6545 34.9376 71.5616 35.3487 71.4659 35.7723C71.3996 36.21 71.3332 36.6477 71.2648 37.0986C71.2648 37.3639 71.2648 37.6291 71.2648 37.9024C71.6512 37.8384 72.0375 37.7744 72.4355 37.7084C72.6845 37.667 72.9334 37.6257 73.1899 37.5831C73.5857 37.5174 73.5857 37.5174 73.9895 37.4503C74.3695 37.3873 74.3695 37.3873 74.7571 37.3231C75.0096 37.2812 75.2621 37.2392 75.5222 37.196C75.9016 37.1324 75.9016 37.1324 76.2887 37.0675C76.542 37.0247 76.7952 36.9819 77.0561 36.9379C77.317 36.8936 77.5779 36.8494 77.8467 36.8039C78.2171 36.7399 78.2171 36.7399 78.595 36.6747C78.9897 36.6024 79.3843 36.5301 79.7909 36.4556C79.897 36.4025 80.0032 36.3495 80.1126 36.2948C80.2818 35.7129 80.2818 35.7129 80.4544 35.1192C80.554 34.7114 80.6535 34.3036 80.7561 33.8834C80.7561 33.6712 80.7561 33.459 80.7561 33.2403C80.6499 33.2403 80.5437 33.2403 80.4343 33.2403ZM8.68691 33.7226C8.74 33.8287 8.79308 33.9348 8.84778 34.0441C9.00704 33.9911 9.1663 33.938 9.33038 33.8834C9.11804 33.8303 8.90569 33.7773 8.68691 33.7226ZM71.2648 34.5264C70.953 34.5609 70.6413 34.5953 70.32 34.6308C69.6953 34.7168 69.6953 34.7168 69.0579 34.8046C68.5988 34.8675 68.1397 34.9304 67.6666 34.9952C67.1818 35.0627 66.697 35.1301 66.1975 35.1996C65.7276 35.264 65.2577 35.3283 64.7735 35.3946C64.3094 35.4585 63.8453 35.5225 63.3672 35.5883C62.9101 35.6524 62.4531 35.7166 61.9822 35.7826C61.3215 35.877 61.3215 35.877 60.6475 35.9733C60.2269 36.0348 59.8064 36.0962 59.3731 36.1596C58.9924 36.2168 58.6116 36.2741 58.2194 36.3331C57.8831 36.384 57.5469 36.4348 57.2004 36.4872C56.8363 36.5511 56.8363 36.5511 56.4649 36.6163C56.4118 36.6694 56.3587 36.7224 56.304 36.7771C56.2509 37.1485 56.1979 37.5198 56.1432 37.9024C56.0901 38.3269 56.037 38.7513 55.9823 39.1885C55.9524 39.4538 55.9226 39.7191 55.8918 39.9924C55.8686 40.2046 55.8454 40.4168 55.8214 40.6354C56.3057 40.5561 56.3057 40.5561 56.7998 40.4753C57.2633 40.3988 57.7268 40.3223 58.2043 40.2435C58.456 40.2017 58.7077 40.1599 58.967 40.1169C59.2362 40.0718 59.5054 40.0268 59.7828 39.9804C60.0725 39.9316 60.3622 39.8829 60.6607 39.8326C60.9749 39.7792 61.289 39.7258 61.6127 39.6708C61.963 39.6106 62.3132 39.5504 62.6741 39.4883C63.0405 39.4248 63.4069 39.3613 63.7844 39.2959C64.1523 39.2317 64.5203 39.1674 64.8993 39.1012C65.2647 39.0372 65.63 38.9732 66.0064 38.9072C66.3652 38.8447 66.7241 38.7823 67.0937 38.7179C67.4311 38.6585 67.7684 38.5991 68.1159 38.538C68.4169 38.4852 68.7179 38.4324 69.0279 38.378C69.2883 38.3272 69.5487 38.2763 69.817 38.224C70.1886 38.1179 70.5602 38.0118 70.9431 37.9024C71.0426 37.604 71.1422 37.3056 71.2447 36.9981C71.3343 36.4908 71.3343 36.4908 71.4257 35.9733C71.4788 35.5489 71.5319 35.1245 71.5866 34.6872C71.4273 34.6076 71.4273 34.6076 71.2648 34.5264ZM55.3388 36.7771C55.0734 36.8302 54.808 36.8832 54.5345 36.9379C54.4113 37.2854 54.4113 37.2854 54.2856 37.6399C54.2218 37.9321 54.1579 38.2243 54.0921 38.5254C54.0266 38.8168 53.961 39.1081 53.8935 39.4083C53.8396 39.6541 53.7857 39.8999 53.7301 40.1531C53.6505 40.3919 53.6505 40.3919 53.5693 40.6354C53.1778 40.7363 52.7862 40.8373 52.3829 40.9412C52.1344 40.9948 51.886 41.0484 51.63 41.1036C51.3675 41.158 51.105 41.2124 50.8345 41.2684C50.4556 41.3491 50.4556 41.3491 50.0691 41.4314C49.6915 41.512 49.6915 41.512 49.3062 41.5943C49.0547 41.6476 48.8032 41.7008 48.544 41.7556C48.1648 41.8377 48.1648 41.8377 47.778 41.9215C47.5136 41.9823 47.2492 42.043 46.9768 42.1056C46.7269 42.1644 46.477 42.2232 46.2196 42.2839C45.8314 42.3765 45.4432 42.4691 45.0432 42.5646C45.0963 42.4054 45.1494 42.2463 45.2041 42.0823C45.234 41.8236 45.2638 41.565 45.2946 41.2986C45.3178 40.9736 45.341 40.6487 45.365 40.3139C45.3998 39.7419 45.3998 39.7419 45.4353 39.1584C45.4121 38.85 45.3889 38.5417 45.365 38.224C45.0464 38.224 44.7279 38.224 44.3998 38.224C44.3732 38.5624 44.3467 38.9008 44.3193 39.2495C44.3459 39.6836 44.3724 40.1178 44.3998 40.5651C44.4197 40.9996 44.4396 41.4342 44.4601 41.8819C44.5463 42.2133 44.6326 42.5447 44.7215 42.8861C45.0809 42.8871 45.0809 42.8871 45.4475 42.8882C45.7388 42.8344 46.0301 42.7807 46.3302 42.7253C46.5776 42.678 46.825 42.6307 47.08 42.5819C47.3325 42.5252 47.585 42.4685 47.8452 42.4101C48.2675 42.3162 48.2675 42.3162 48.6983 42.2204C48.9885 42.1549 49.2787 42.0895 49.5777 42.022C49.8648 41.9577 50.1519 41.8935 50.4477 41.8273C50.7303 41.7643 51.0128 41.7013 51.3039 41.6364C51.5783 41.5751 51.8528 41.5138 52.1355 41.4507C52.3963 41.3938 52.6571 41.337 52.9258 41.2785C53.3864 41.1869 53.8469 41.0953 54.3215 41.0009C54.6572 40.9333 54.9929 40.8658 55.3388 40.7962C55.4981 40.7166 55.4981 40.7166 55.6606 40.6354C55.7058 40.3517 55.751 40.068 55.7976 39.7757C55.8591 39.2414 55.8591 39.2414 55.922 38.6962C55.9639 38.3396 56.0057 37.9829 56.0489 37.6155C56.08 37.3388 56.1111 37.0621 56.1432 36.7771C55.8777 36.7771 55.6123 36.7771 55.3388 36.7771ZM52.7649 37.0986C52.4922 37.106 52.2195 37.1133 51.9386 37.1208C51.4966 37.1415 51.4966 37.1415 51.0456 37.1627C50.7239 37.1847 50.4023 37.2068 50.0708 37.2295C49.7389 37.2592 49.4069 37.289 49.0649 37.3197C48.7319 37.3542 48.3988 37.3887 48.0556 37.4243C47.7394 37.4727 47.4232 37.521 47.0974 37.5709C46.8081 37.6368 46.5187 37.7027 46.2206 37.7706C45.8767 37.9154 45.8767 37.9154 45.5258 38.0632C45.3572 38.3915 45.1887 38.7197 45.0149 39.0579C45.0077 39.4392 45.0004 39.8205 44.993 40.2134C45.0433 40.5926 45.0937 40.9719 45.1457 41.3626C45.218 41.6531 45.2904 41.9437 45.365 42.243C45.9672 42.1137 45.9672 42.1137 46.5815 41.9818C46.8557 41.9217 47.1298 41.8616 47.4123 41.7997C47.7453 41.7338 48.0783 41.6679 48.4215 41.6C48.8474 41.5374 49.2733 41.4748 49.7122 41.4103C50.3822 41.3053 50.3822 41.3053 51.0658 41.1981C51.4936 41.1367 51.9214 41.0754 52.3621 41.0122C52.88 40.8257 52.88 40.8257 53.4084 40.6354C53.5604 40.3246 53.7124 40.0137 53.869 39.6934C53.9294 39.3677 53.9897 39.0419 54.0519 38.7063C54.0917 38.4012 54.1315 38.0962 54.1725 37.7819C54.1858 37.5564 54.1991 37.3309 54.2127 37.0986C53.735 37.0986 53.2572 37.0986 52.7649 37.0986ZM38.7694 37.9024C38.3447 38.0616 37.92 38.2207 37.4824 38.3847C37.3099 38.5505 37.1373 38.7163 36.9596 38.8871C36.8136 39.0927 36.6676 39.2983 36.5172 39.5101C36.3944 39.7587 36.2717 40.0074 36.1452 40.2636C36.0108 40.6068 36.0108 40.6068 35.8737 40.9569C35.8206 41.1691 35.7675 41.3813 35.7128 41.6C35.688 42.1222 35.688 42.1222 35.6626 42.655C35.6792 43.0496 35.6958 43.4441 35.7128 43.8507C35.8057 44.1723 35.8986 44.4939 35.9944 44.8253C36.1138 45.0872 36.2333 45.3492 36.3563 45.6191C36.5687 45.8843 36.781 46.1496 36.9998 46.4229C37.3714 46.582 37.743 46.7412 38.1259 46.9052C38.6833 46.8256 38.6833 46.8256 39.252 46.7444C39.5705 46.5322 39.889 46.32 40.2172 46.1013C40.3598 45.9024 40.5025 45.7035 40.6495 45.4985C40.7723 45.273 40.895 45.0475 41.0215 44.8152C41.1808 44.3908 41.34 43.9664 41.5041 43.5291C41.5414 43.1642 41.5414 43.1642 41.5795 42.7919C41.5812 42.5378 41.5828 42.2838 41.5846 42.022C41.58 41.7551 41.5754 41.4882 41.5707 41.2132C41.5378 40.8476 41.5378 40.8476 41.5041 40.4746C41.3913 40.163 41.2785 39.8513 41.1623 39.5302C41.0096 39.3113 40.857 39.0925 40.6998 38.867C40.3813 38.6018 40.0627 38.3365 39.7346 38.0632C39.2568 37.9836 39.2568 37.9836 38.7694 37.9024ZM6.11301 39.8316C6.03006 40.14 5.94711 40.4483 5.86165 40.766C5.9446 41.0943 6.02755 41.4225 6.11301 41.7607C6.31312 41.8347 6.51323 41.9087 6.71941 41.9849C6.98381 42.0237 7.2482 42.0624 7.52061 42.1024C7.95826 42.1418 7.95826 42.1418 8.40476 42.1821C8.71022 42.2022 9.01567 42.2223 9.33038 42.243C9.62423 42.2747 9.91807 42.3064 10.2208 42.3391C10.501 42.3704 10.7811 42.4017 11.0698 42.4339C11.3263 42.4594 11.5828 42.4849 11.8471 42.5112C12.1939 42.5376 12.1939 42.5376 12.5478 42.5646C12.9194 42.5646 13.291 42.5646 13.6738 42.5646C13.7269 42.4585 13.78 42.3524 13.8347 42.243C13.8148 41.9745 13.7949 41.7059 13.7744 41.4292C13.7412 41.1672 13.708 40.9053 13.6738 40.6354C13.5942 40.5558 13.5942 40.5558 13.513 40.4746C12.805 40.3972 12.805 40.3972 12.0827 40.3183C11.7893 40.2898 11.4959 40.2613 11.1936 40.2319C10.7292 40.1879 10.7292 40.1879 10.2554 40.1431C9.94826 40.1131 9.64115 40.0832 9.32473 40.0523C9.03047 40.024 8.73621 39.9958 8.43304 39.9666C8.16195 39.9407 7.89087 39.9148 7.61157 39.8881C7.26793 39.8601 7.26793 39.8601 6.91735 39.8316C6.65192 39.8316 6.38649 39.8316 6.11301 39.8316Z" fill="#226078"/>
<path d="M24.2908 21.826C24.7354 21.7837 24.7354 21.7837 25.1891 21.7405C25.6913 21.7278 25.6913 21.7278 26.2036 21.7148C26.553 21.7158 26.9024 21.7167 27.2624 21.7177C27.6222 21.7236 27.982 21.7295 28.3527 21.7356C28.72 21.7359 29.0872 21.7362 29.4656 21.7365C29.8125 21.7393 30.1595 21.7421 30.5169 21.745C30.9938 21.7504 30.9938 21.7504 31.4804 21.7559C31.7091 21.7791 31.9377 21.8022 32.1733 21.826C32.1733 21.9852 32.1733 22.1443 32.1733 22.3083C31.815 22.4741 31.4567 22.6399 31.0875 22.8107C30.7026 22.9632 30.3177 23.1157 29.9212 23.2729C29.7088 23.3259 29.4965 23.379 29.2777 23.4336C29.0137 23.4407 28.7497 23.4477 28.4778 23.455C28.1545 23.4546 27.8312 23.4541 27.4981 23.4537C27.1545 23.4519 26.8109 23.45 26.4568 23.4481C26.1136 23.4433 25.7705 23.4385 25.4169 23.4336C25.1085 23.4272 24.8001 23.4208 24.4824 23.4142C24.2068 23.404 23.9312 23.3938 23.6473 23.3834C23.2226 23.3469 22.7979 23.3104 22.3604 23.2729C22.3604 23.1137 22.3604 22.9546 22.3604 22.7906C22.7125 22.5397 22.7125 22.5397 23.0717 22.2838C23.6751 22.0572 23.6751 22.0572 24.2908 21.826Z" fill="#226078"/>
<path d="M52.2821 23.4336C52.5475 23.4866 52.813 23.5397 53.0864 23.5944C53.1926 23.7005 53.2988 23.8066 53.4082 23.9159C53.7798 24.022 54.1514 24.1281 54.5343 24.2374C54.4812 24.4496 54.4281 24.6618 54.3734 24.8805C54.0018 24.9866 53.6302 25.0927 53.2473 25.202C52.7695 25.1224 52.7695 25.1224 52.2821 25.0412C52.229 25.2004 52.1759 25.3595 52.1212 25.5235C52.0682 25.3644 52.0151 25.2052 51.9604 25.0412C51.748 24.9882 51.5357 24.9351 51.3169 24.8805C51.37 24.6683 51.4231 24.456 51.4778 24.2374C51.7432 23.9721 52.0086 23.7069 52.2821 23.4336ZM52.2821 23.9159C52.229 24.022 52.1759 24.1281 52.1212 24.2374C52.4398 24.2374 52.7583 24.2374 53.0864 24.2374C53.0864 24.1313 53.0864 24.0252 53.0864 23.9159C52.821 23.9159 52.5556 23.9159 52.2821 23.9159Z" fill="#226078"/>
<path d="M9.97361 30.1855C10.239 30.2386 10.5045 30.2917 10.778 30.3463C10.8841 30.5585 10.9903 30.7707 11.0997 30.9894C11.0997 31.4668 11.0997 31.9443 11.0997 32.4362C10.9404 32.675 10.9404 32.675 10.778 32.9185C10.5125 32.7063 10.2471 32.4941 9.97361 32.2755C9.92053 31.9572 9.86744 31.6388 9.81274 31.3109C9.86583 30.9395 9.91892 30.5682 9.97361 30.1855Z" fill="#226078"/>
<path d="M83.9733 33.0801C84.1857 33.1862 84.398 33.2923 84.6168 33.4016C84.776 33.773 84.9353 34.1443 85.0994 34.5269C85.1193 34.7856 85.1392 35.0442 85.1597 35.3107C85.1398 35.5826 85.1199 35.8544 85.0994 36.1346C85.0397 36.3899 84.9799 36.6452 84.9184 36.9082C84.8189 37.1304 84.7193 37.3526 84.6168 37.5814C84.2983 37.8467 83.9797 38.112 83.6516 38.3853C83.5454 38.3853 83.4392 38.3853 83.3298 38.3853C83.3829 38.173 83.436 37.9608 83.4907 37.7422C83.7561 37.6361 84.0216 37.53 84.295 37.4207C84.4012 37.1554 84.5074 36.8902 84.6168 36.6169C84.6765 36.2289 84.6765 36.2289 84.7374 35.8331C84.7507 35.5613 84.764 35.2894 84.7777 35.0092C84.6715 34.6379 84.5653 34.2665 84.4559 33.8839C84.2967 33.7247 84.1374 33.5656 83.9733 33.4016C83.9733 33.2955 83.9733 33.1894 83.9733 33.0801Z" fill="#226078"/>
<path d="M83.8124 33.8828C83.9717 33.9359 84.1309 33.9889 84.295 34.0436C84.4012 34.3088 84.5074 34.5741 84.6167 34.8474C84.6167 35.2188 84.6167 35.5901 84.6167 35.9727C84.4575 36.3971 84.2982 36.8216 84.1341 37.2588C83.8687 37.2058 83.6033 37.1527 83.3298 37.0981C83.2767 36.992 83.2236 36.8859 83.1689 36.7765C83.1523 36.4715 83.1357 36.1664 83.1187 35.8522C83.1352 35.5206 83.1518 35.189 83.1689 34.8474C83.3813 34.5291 83.5936 34.2108 83.8124 33.8828Z" fill="#226078"/>
<path d="M39.2518 38.5469C39.5173 38.706 39.7827 38.8652 40.0562 39.0292C40.2685 39.2414 40.4809 39.4536 40.6997 39.6722C40.7926 39.8877 40.8855 40.1033 40.9812 40.3253C41.0475 40.5873 41.1139 40.8492 41.1823 41.1191C41.2055 41.4009 41.2287 41.6828 41.2526 41.9731C41.2178 42.4257 41.2178 42.4257 41.1823 42.8875C41.0894 43.2257 40.9965 43.5639 40.9007 43.9123C40.7813 44.2108 40.6618 44.5092 40.5388 44.8166C40.2203 45.2145 40.2203 45.2145 39.8953 45.6204C39.5237 45.8326 39.1521 46.0449 38.7692 46.2635C38.61 46.2635 38.4507 46.2635 38.2866 46.2635C38.3928 45.9982 38.499 45.733 38.6084 45.4597C39.0331 45.2475 39.4577 45.0353 39.8953 44.8166C40.1077 44.3922 40.32 43.9678 40.5388 43.5305C40.5852 43.2686 40.6317 43.0066 40.6795 42.7368C40.6862 42.4682 40.6928 42.1996 40.6997 41.9229C40.6565 41.6643 40.6134 41.4056 40.5689 41.1392C40.5059 40.9203 40.4429 40.7015 40.3779 40.476C40.2717 40.2638 40.1656 40.0516 40.0562 39.833C39.7907 39.5677 39.5253 39.3025 39.2518 39.0292C39.2518 38.87 39.2518 38.7109 39.2518 38.5469Z" fill="#226078"/>
<path d="M38.7691 39.9922C39.0346 39.9922 39.3 39.9922 39.5735 39.9922C39.7858 40.2574 39.9982 40.5227 40.2169 40.796C40.27 40.9552 40.3231 41.1143 40.3778 41.2783C40.3977 41.7806 40.3977 41.7806 40.418 42.2931C40.4048 42.6479 40.3915 43.0027 40.3778 43.3682C40.2186 43.6865 40.0593 44.0048 39.8952 44.3328C39.789 44.4389 39.6829 44.545 39.5735 44.6543C39.1488 44.6543 38.7241 44.6543 38.2865 44.6543C38.1273 44.4952 37.968 44.336 37.8039 44.172C37.6977 43.8537 37.5916 43.5354 37.4822 43.2074C37.4822 42.73 37.4822 42.2525 37.4822 41.7606C37.6414 41.3892 37.8007 41.0179 37.9648 40.6352C38.2302 40.423 38.4957 40.2108 38.7691 39.9922Z" fill="#226078"/>
</svg>
