<svg width="93" height="50" viewBox="0 0 93 50" fill="none" xmlns="http://www.w3.org/2000/svg">
<path d="M47.1035 0.123163C47.3664 0.10863 47.6293 0.0940981 47.9001 0.0791255C48.2605 0.0608242 48.2605 0.0608242 48.6283 0.0421532C49.0999 0.0290975 49.5716 0.0160417 50.0575 0.00259042C50.2999 0.00173558 50.5423 0.000880742 50.792 0C51.0497 0.00520674 51.3074 0.0104135 51.5729 0.015778C51.8503 0.0281343 52.1277 0.0404906 52.4135 0.0532213C52.7302 0.0763019 53.0469 0.0993825 53.3733 0.123163C53.7607 0.163029 54.1481 0.202896 54.5472 0.24397C54.9744 0.29425 55.4017 0.34453 55.8419 0.396334C56.514 0.481371 56.514 0.481371 57.1997 0.568126C57.8969 0.661206 57.8969 0.661206 58.6081 0.756166C59.081 0.821639 59.5538 0.887112 60.041 0.954569C60.5162 1.02214 60.9915 1.08971 61.4811 1.15933C61.9557 1.22818 62.4302 1.29704 62.9191 1.36798C63.3765 1.43465 63.8339 1.50133 64.3052 1.57003C64.7196 1.62925 65.1341 1.68846 65.5612 1.74947C65.9576 1.80589 66.354 1.86231 66.7624 1.92044C67.1568 1.97689 67.5512 2.03333 67.9576 2.09149C68.3505 2.14819 68.7434 2.2049 69.1481 2.26332C69.5409 2.32106 69.9337 2.3788 70.3383 2.43829C70.7443 2.49826 71.1502 2.55823 71.5684 2.62001C71.9923 2.6826 72.4163 2.74518 72.8531 2.80966C73.3215 2.87805 73.7899 2.94643 74.2724 3.01689C74.8308 3.09647 75.3891 3.17605 75.9644 3.25804C76.8583 3.38487 76.8583 3.38487 77.7703 3.51425C78.3694 3.59998 78.9685 3.68571 79.5857 3.77404C80.1799 3.85907 80.774 3.9441 81.3862 4.03171C82.251 4.15319 82.251 4.15319 83.1333 4.27713C83.6717 4.35468 84.2101 4.43222 84.7647 4.51211C85.2452 4.58036 85.7256 4.6486 86.2206 4.71892C86.6279 4.79387 87.0353 4.86882 87.455 4.94605C87.7592 5.04784 88.0633 5.14963 88.3767 5.2545C88.6031 5.36492 88.8294 5.47534 89.0626 5.5891C89.4605 5.90741 89.4605 5.90741 89.8664 6.23215C90.0024 6.41452 90.1383 6.59688 90.2784 6.78477C90.4077 7.02682 90.537 7.26887 90.6703 7.51825C90.7708 7.81501 90.8713 8.11177 90.9748 8.41752C91.1424 9.00689 91.1424 9.00689 91.3133 9.60817C91.3684 9.83915 91.4235 10.0701 91.4802 10.3081C91.535 10.5565 91.5897 10.8048 91.6461 11.0607C91.7006 11.3238 91.7551 11.5869 91.8113 11.8579C91.8658 12.1268 91.9203 12.3957 91.9765 12.6727C92.0322 12.9323 92.088 13.1918 92.1454 13.4593C92.1995 13.7255 92.2536 13.9916 92.3093 14.2659C92.36 14.547 92.4107 14.8281 92.4629 15.1177C92.5079 15.4216 92.553 15.7256 92.5994 16.0387C92.6353 16.3808 92.6711 16.723 92.708 17.0755C92.737 17.4417 92.7661 17.8079 92.796 18.1851C92.8196 18.5664 92.8433 18.9477 92.8677 19.3405C92.8941 19.9343 92.8941 19.9343 92.9209 20.54C92.9315 20.9489 92.942 21.3577 92.9528 21.7789C92.9583 22.195 92.9637 22.6112 92.9693 23.04C92.9704 23.4571 92.9716 23.8742 92.9727 24.3038C92.9722 24.723 92.9717 25.1421 92.9712 25.5739C92.9738 26.0011 92.9764 26.4284 92.979 26.8685C92.9791 27.2829 92.9792 27.6972 92.9793 28.1242C92.9745 28.5135 92.9697 28.9028 92.9647 29.3039C92.943 29.82 92.943 29.82 92.9209 30.3466C92.8716 30.7455 92.8716 30.7455 92.8213 31.1525C92.7802 31.3663 92.7391 31.5801 92.6968 31.8004C92.569 32.2744 92.569 32.2744 92.4387 32.758C92.3326 33.0233 92.2264 33.2885 92.1171 33.5618C91.8519 33.774 91.5866 33.9863 91.3133 34.2049C90.9947 34.364 90.9947 34.364 90.6696 34.5264C90.4278 34.6325 90.186 34.7386 89.9368 34.8479C89.5532 35.0174 89.5532 35.0174 89.1619 35.1902C88.9169 35.2895 88.672 35.3887 88.4196 35.491C88.0515 35.5938 87.6835 35.6966 87.3043 35.8025C86.9014 35.9666 86.9014 35.9666 86.4904 36.134C86.3941 36.3796 86.2977 36.6252 86.1984 36.8782C86.1356 37.1101 86.0728 37.342 86.0081 37.5809C86.2931 37.6004 86.578 37.6199 86.8716 37.6399C87.4339 37.6804 87.4339 37.6804 88.0076 37.7216C88.5644 37.7607 88.5644 37.7607 89.1323 37.8007C89.4807 37.8343 89.8291 37.8679 90.188 37.9024C90.4717 37.9526 90.7554 38.0027 91.0477 38.0544C91.2414 38.1104 91.4352 38.1663 91.6348 38.224C91.6348 38.3301 91.6348 38.4362 91.6348 38.5455C91.2568 38.6881 90.8789 38.8306 90.4894 38.9775C90.2197 39.0639 89.95 39.1503 89.6721 39.2394C89.3649 39.3287 89.0577 39.418 88.7411 39.5101C88.423 39.5912 88.1049 39.6724 87.7771 39.756C87.417 39.8408 87.0568 39.9257 86.6857 40.0131C86.2594 40.1114 85.8331 40.2097 85.3938 40.3109C84.9069 40.418 84.4199 40.5251 83.9182 40.6354C83.3604 40.7505 82.8026 40.8655 82.2279 40.9841C81.6225 41.1052 81.0171 41.2264 80.3934 41.3513C79.76 41.4763 79.1267 41.6014 78.4741 41.7302C77.8137 41.8596 77.1533 41.9891 76.4729 42.1225C75.7807 42.2589 75.0884 42.3953 74.3752 42.5358C73.6877 42.6711 73.0002 42.8064 72.2918 42.9457C71.6276 43.0759 70.9633 43.206 70.279 43.34C69.687 43.4555 69.0949 43.5709 68.485 43.6899C68.0471 43.7745 67.6093 43.8591 67.1582 43.9462C66.612 44.0509 66.612 44.0509 66.0547 44.1577C65.7138 44.2229 65.3728 44.2881 65.0216 44.3553C64.5326 44.4487 64.5326 44.4487 64.0339 44.544C63.7057 44.6066 63.3776 44.6693 63.0396 44.7338C62.6857 44.8019 62.3318 44.87 61.9672 44.9402C61.5769 45.016 61.1866 45.0919 60.7845 45.17C60.3017 45.2651 59.8189 45.3603 59.3215 45.4583C58.6545 45.5918 57.9875 45.7253 57.3003 45.8628C56.5454 46.0147 55.7906 46.1665 55.0129 46.323C54.2298 46.481 53.4467 46.6389 52.6399 46.8017C51.4512 47.0419 51.4512 47.0419 50.2384 47.287C49.4719 47.442 48.7054 47.5971 47.9157 47.7569C47.1851 47.9048 46.4546 48.0527 45.7019 48.2051C45.0471 48.3378 44.3924 48.4705 43.7178 48.6072C42.7677 48.7992 42.7677 48.7992 41.7983 48.9951C41.0787 49.1414 40.3591 49.2876 39.6176 49.4384C39.011 49.5573 38.4043 49.6763 37.7793 49.7989C37.3951 49.8412 37.0109 49.8834 36.615 49.927C36.2034 49.9378 35.7919 49.9486 35.3678 49.9597C35.0356 49.9656 34.7033 49.9715 34.361 49.9776C33.9767 49.9824 33.5923 49.9873 33.1963 49.9923C32.5898 49.9953 32.5898 49.9953 31.971 49.9984C31.5468 49.9989 31.1226 49.9994 30.6856 49.9998C30.0279 49.9999 30.0279 49.9999 29.3569 50C28.92 49.9983 28.4831 49.9966 28.033 49.9948C27.607 49.9907 27.1809 49.9865 26.7419 49.9823C26.3523 49.9748 25.9627 49.9673 25.5613 49.9597C25.0925 49.941 25.0925 49.941 24.6143 49.922C24.2077 49.8983 24.2077 49.8983 23.7929 49.8742C23.5429 49.8562 23.2929 49.8382 23.0354 49.8196C22.8013 49.7995 22.5671 49.7794 22.3259 49.7587C21.8694 49.7141 21.4129 49.6696 20.9425 49.6237C20.5038 49.5754 20.0651 49.5271 19.6131 49.4774C19.1528 49.4307 18.6925 49.3841 18.2183 49.3361C17.7535 49.2865 17.2887 49.237 16.8098 49.186C16.352 49.1317 15.8942 49.0774 15.4226 49.0215C15.0734 48.9771 15.0734 48.9771 14.7173 48.9318C14.4761 48.8996 14.2349 48.8675 13.9864 48.8343C13.7271 48.798 13.4679 48.7617 13.2008 48.7243C12.8017 48.6662 12.8017 48.6662 12.3944 48.607C12.1286 48.567 11.8628 48.527 11.5889 48.4858C11.3257 48.445 11.0624 48.4041 10.7912 48.3621C10.5343 48.3211 10.2773 48.2802 10.0126 48.238C9.76474 48.1971 9.51685 48.1562 9.26145 48.114C8.80471 48.0334 8.34796 47.9528 7.87738 47.8697C7.51016 47.7941 7.14295 47.7185 6.7646 47.6405C6.46204 47.5703 6.15948 47.5 5.84775 47.4276C5.18129 47.2486 5.18129 47.2486 4.50136 47.0659C4.28915 46.9598 4.07695 46.8537 3.85831 46.7444C3.91136 46.5852 3.96441 46.4261 4.01907 46.2621C4.29096 46.1792 4.56285 46.0963 4.84298 46.0109C5.20771 45.9347 5.57244 45.8584 5.94823 45.7798C6.37927 45.7201 6.81032 45.6605 7.25442 45.599C7.80152 45.5293 7.80152 45.5293 8.35967 45.4583C8.46577 45.4052 8.57188 45.3522 8.6812 45.2975C8.50546 45.1583 8.32973 45.019 8.14867 44.8755C7.95304 44.6965 7.75741 44.5174 7.55586 44.333C7.3967 44.0146 7.23754 43.6963 7.07357 43.3684C6.61931 43.2357 6.16506 43.1031 5.69703 42.9665C5.43716 42.9014 5.17729 42.8363 4.90955 42.7693C4.54834 42.6679 4.54834 42.6679 4.17983 42.5646C3.8781 42.412 3.57637 42.2595 3.2655 42.1024C3.03671 41.9366 2.80792 41.7708 2.57221 41.6C2.36995 41.4309 2.16769 41.2618 1.9593 41.0876C1.70564 40.7842 1.70564 40.7842 1.44687 40.4746C1.30097 40.1961 1.15508 39.9176 1.00477 39.6306C0.885402 39.3256 0.766035 39.0205 0.643052 38.7063C0.503791 38.2785 0.503791 38.2785 0.361716 37.8422C0.295402 37.5437 0.229087 37.2453 0.160763 36.9379C0.111027 36.5764 0.0612908 36.215 0.0100477 35.8427C0.00673195 35.5144 0.00341621 35.1861 0 34.8479C0.212207 34.5296 0.424414 34.2113 0.643052 33.8834C0.689265 33.5804 0.735478 33.2774 0.783091 32.9653C0.81314 32.6117 0.843189 32.2582 0.874148 31.8939C0.931966 31.3356 0.931966 31.3356 0.990952 30.7661C1.0353 30.4154 1.07965 30.0648 1.12534 29.7035C1.18295 29.4391 1.24056 29.1747 1.29992 28.9022C1.36499 28.6826 1.43006 28.4629 1.4971 28.2366C1.63968 27.8718 1.78226 27.5071 1.92915 27.1313C2.05515 26.9025 2.18115 26.6738 2.31097 26.438C2.50328 26.2424 2.69559 26.0468 2.89373 25.8452C3.24852 25.5667 3.6033 25.2882 3.96883 25.0012C4.18042 24.8514 4.392 24.7016 4.61 24.5472C4.83941 24.392 5.06882 24.2368 5.30517 24.0768C5.5495 23.9166 5.79383 23.7564 6.04556 23.5914C6.42511 23.3493 6.42511 23.3493 6.81233 23.1022C7.06867 22.9414 7.32502 22.7806 7.58914 22.6149C7.84341 22.4607 8.09769 22.3065 8.35967 22.1477C8.60566 22.0101 8.85164 21.8725 9.10508 21.7307C9.33988 21.5997 9.57467 21.4688 9.81658 21.3338C10.0377 21.2035 10.2588 21.0731 10.4866 20.9388C10.6866 20.8072 10.8866 20.6756 11.0926 20.54C11.4043 20.2615 11.716 19.983 12.0371 19.696C12.256 19.391 12.4748 19.0859 12.7003 18.7717C12.7964 18.3771 12.8926 17.9825 12.9916 17.576C13.0546 17.2278 13.1176 16.8797 13.1826 16.521C13.4478 16.3088 13.7131 16.0966 13.9864 15.8779C14.3047 15.8249 14.623 15.7718 14.9509 15.7172C15.1897 15.3989 15.4284 15.0805 15.6744 14.7526C15.8124 14.5487 15.9504 14.3447 16.0926 14.1347C16.2464 13.9142 16.4002 13.6937 16.5586 13.4665C16.7356 13.2427 16.9125 13.0189 17.0949 12.7883C17.2826 12.5611 17.4704 12.334 17.6638 12.1C17.8551 11.8706 18.0464 11.6412 18.2434 11.4048C18.4302 11.1833 18.6169 10.9618 18.8093 10.7335C19.062 10.4335 19.062 10.4335 19.3198 10.1275C19.4796 9.93955 19.6394 9.75159 19.804 9.55793C20.1123 9.20315 20.4207 8.84837 20.7384 8.48283C21.201 7.97055 21.201 7.97055 21.6728 7.44792C21.9481 7.15282 22.2233 6.85772 22.5068 6.55368C22.7124 6.34479 22.918 6.1359 23.1298 5.92067C23.2955 5.7582 23.4613 5.59573 23.6321 5.42834C23.8974 5.16308 24.1627 4.89782 24.436 4.62452C24.7095 4.36092 24.7095 4.36092 24.9886 4.092C25.2306 3.89637 25.4727 3.70074 25.7221 3.49918C26.0835 3.27703 26.4449 3.05487 26.8173 2.82599C27.1986 2.62373 27.5799 2.42147 27.9727 2.21308C28.2515 2.09952 28.5302 1.98595 28.8174 1.86895C29.1222 1.7703 29.4271 1.67166 29.7411 1.57003C30.0267 1.52009 30.3123 1.47014 30.6065 1.41869C30.9111 1.38574 31.2158 1.35279 31.5296 1.31884C31.885 1.2805 32.2404 1.24216 32.6066 1.20266C32.9873 1.16474 33.368 1.12681 33.7602 1.08774C34.3337 1.02837 34.3337 1.02837 34.9188 0.967796C35.534 0.907802 35.534 0.907802 36.1616 0.846596C36.8321 0.787845 36.8321 0.787845 37.5162 0.727907C37.8825 0.698182 37.8825 0.698182 38.2563 0.667857C38.5233 0.647263 38.7903 0.626669 39.0654 0.605451C39.5215 0.571763 39.5215 0.571763 39.9869 0.537394C40.3117 0.514469 40.6366 0.491543 40.9713 0.467924C41.306 0.445387 41.6406 0.42285 41.9854 0.399631C42.3282 0.378027 42.671 0.356423 43.0242 0.334164C43.3726 0.314425 43.7211 0.294686 44.0802 0.274349C44.4255 0.256164 44.7708 0.237979 45.1266 0.219244C45.4647 0.202691 45.8028 0.186138 46.1512 0.169084C46.4655 0.15393 46.7797 0.138776 47.1035 0.123163ZM49.9973 1.08774C49.7254 1.22368 49.4535 1.35963 49.1733 1.49969C48.865 1.77324 48.865 1.77324 48.5504 2.05232C48.368 2.20816 48.1857 2.364 47.9978 2.52456C47.8088 2.74008 47.6198 2.9556 47.425 3.17766C47.1631 3.55234 46.9012 3.92701 46.6313 4.31305C46.4953 4.52235 46.3594 4.73166 46.2193 4.9473C46.0867 5.1591 45.9541 5.37089 45.8174 5.5891C45.582 5.98367 45.3466 6.37825 45.104 6.78477C44.915 7.13293 44.726 7.48108 44.5313 7.83978C44.3722 8.26419 44.213 8.68861 44.049 9.12588C43.8855 9.43217 43.722 9.73847 43.5536 10.054C43.3556 10.4043 43.1577 10.7545 42.9538 11.1153C42.7379 11.4999 42.522 11.8846 42.2995 12.2809C42.0811 12.6721 41.8626 13.0634 41.6376 13.4665C41.4424 13.8279 41.2472 14.1893 41.046 14.5617C40.8599 14.9098 40.6738 15.258 40.4821 15.6167C40.3004 15.9561 40.1186 16.2956 39.9314 16.6453C39.7517 16.9756 39.572 17.306 39.3869 17.6463C39.1989 17.9766 39.011 18.307 38.8173 18.6473C38.6406 18.9536 38.4638 19.2599 38.2817 19.5755C38.0435 19.9833 38.0435 19.9833 37.8006 20.3994C37.6875 20.605 37.5743 20.8105 37.4577 21.0223C37.4577 21.1284 37.4577 21.2345 37.4577 21.3439C37.8125 21.377 38.1673 21.4102 38.5329 21.4443C39.1148 21.3946 39.1148 21.3946 39.7084 21.3439C39.9621 21.0604 39.9621 21.0604 40.2209 20.7711C40.317 20.5357 40.4132 20.3003 40.5122 20.0578C40.6714 19.6864 40.8306 19.315 40.9945 18.9324C41.031 18.5378 41.0675 18.1433 41.1051 17.7367C41.2095 17.0554 41.2095 17.0554 41.3161 16.3602C41.4852 15.9756 41.6543 15.591 41.8285 15.1947C41.9416 14.987 42.0548 14.7794 42.1714 14.5654C42.3135 14.3089 42.4557 14.0523 42.6022 13.788C42.7941 13.4154 42.986 13.0428 43.1837 12.6589C43.393 12.2556 43.6023 11.8523 43.8179 11.4368C44.0171 11.0535 44.2162 10.6701 44.4214 10.2751C44.6168 9.9489 44.8123 9.62272 45.0136 9.28665C45.209 9.08915 45.4044 8.89166 45.6058 8.68818C45.7817 8.56736 45.9577 8.44655 46.1389 8.32207C46.3777 8.22591 46.6164 8.12976 46.8624 8.03069C47.2205 7.93619 47.2205 7.93619 47.5858 7.83978C48.1429 7.7602 48.1429 7.7602 48.7112 7.67902C49.1211 7.57457 49.531 7.47013 49.9533 7.36252C50.1853 7.31642 50.4173 7.27032 50.6563 7.22283C50.8964 7.18769 51.1365 7.15255 51.3838 7.11635C52.096 7.09117 52.096 7.09117 52.8225 7.06548C53.2165 7.2149 53.6104 7.36431 54.0163 7.51825C54.1747 7.84344 54.1747 7.84344 54.3364 8.1752C54.4332 8.59388 54.4332 8.59388 54.5319 9.02101C54.5736 9.33252 54.6153 9.64403 54.6582 9.96498C54.6818 10.3015 54.7054 10.638 54.7297 10.9847C54.7545 11.5061 54.7545 11.5061 54.7799 12.038C54.7888 12.3863 54.7977 12.7346 54.807 13.0935C54.8087 13.4364 54.8104 13.7793 54.8122 14.1326C54.8148 14.4433 54.8174 14.754 54.8201 15.0741C54.8527 15.5122 54.8852 15.9503 54.9187 16.4017C54.9525 16.7693 54.9863 17.1369 55.0211 17.5157C55.0437 17.88 55.0663 18.2443 55.0895 18.6197C55.1153 19.252 55.1153 19.252 55.1417 19.897C55.1482 20.1897 55.1547 20.4823 55.1614 20.7839C55.17 21.2656 55.17 21.2656 55.1787 21.7571C55.1846 22.082 55.1904 22.4069 55.1965 22.7416C55.2042 23.2285 55.2042 23.2285 55.212 23.7252C55.2144 24.0426 55.2169 24.36 55.2194 24.687C55.2234 24.9807 55.2274 25.2745 55.2315 25.5771C55.2549 26.0369 55.2783 26.4968 55.3024 26.9706C55.4616 27.0236 55.6207 27.0767 55.7847 27.1313C55.8908 27.0783 55.9969 27.0252 56.1062 26.9706C56.1128 26.5205 56.1128 26.5205 56.1194 26.0612C56.1051 25.6451 56.0908 25.229 56.0761 24.8003C56.0491 24.0962 56.0491 24.0962 56.0215 23.3779C56.0038 22.9986 56.0038 22.9986 55.9857 22.6117C55.9725 22.3525 55.9592 22.0932 55.9455 21.8262C55.9312 21.5675 55.9168 21.3089 55.9021 21.0425C55.8785 20.6499 55.8785 20.6499 55.8544 20.2493C55.8284 19.8494 55.8284 19.8494 55.8019 19.4415C55.7829 19.1707 55.764 18.8999 55.7445 18.6209C55.724 18.3456 55.7036 18.0703 55.6825 17.7866C55.6603 17.508 55.6381 17.2294 55.6152 16.9424C55.5912 16.6617 55.5672 16.3811 55.5425 16.092C55.5163 15.8091 55.4901 15.5263 55.4632 15.2349C55.4341 14.9489 55.4051 14.663 55.3751 14.3683C55.3286 13.9396 55.3286 13.9396 55.2811 13.5023C55.2327 13.0775 55.2327 13.0775 55.1834 12.6441C55.1497 12.3651 55.1161 12.086 55.0814 11.7986C55.0457 11.5257 55.0101 11.2527 54.9734 10.9716C54.9375 10.7061 54.9017 10.4406 54.8647 10.1671C54.8293 9.91036 54.7938 9.65365 54.7573 9.38916C54.725 9.14313 54.6927 8.89709 54.6594 8.64359C54.6132 8.19058 54.567 7.73757 54.5193 7.27083C54.4694 6.87501 54.4195 6.4792 54.368 6.07139C54.2735 5.56501 54.2735 5.56501 54.1771 5.04841C54.0179 4.67943 54.0179 4.67943 53.8556 4.303C53.4146 4.18695 52.9736 4.0709 52.5192 3.95133C51.9075 4.04583 51.9075 4.04583 51.2834 4.14223C51.6846 4.14223 52.0858 4.14223 52.4991 4.14223C53.091 4.06266 53.091 4.06266 53.6948 3.98147C53.6152 3.34485 53.6152 3.34485 53.534 2.69537C53.3749 2.30245 53.3749 2.30245 53.2125 1.9016C53.0534 1.57832 53.0534 1.57832 52.891 1.2485C52.8114 1.16893 52.8114 1.16893 52.7302 1.08774C52.0936 1.05292 52.0936 1.05292 51.4441 1.01741C51.1959 1.01906 50.9476 1.02072 50.6918 1.02243C50.4626 1.04398 50.2334 1.06553 49.9973 1.08774ZM48.3896 1.08774C47.7471 1.10857 47.7471 1.10857 47.0916 1.12981C46.8227 1.14018 46.5539 1.15054 46.2769 1.16121C45.9827 1.17344 45.6885 1.18567 45.3854 1.19826C45.0792 1.21153 44.7729 1.22479 44.4575 1.23846C44.1326 1.254 43.8078 1.26954 43.4732 1.28555C43.1286 1.30387 42.7841 1.32218 42.4291 1.34105C42.0618 1.36356 41.6945 1.38607 41.3161 1.40927C40.9166 1.43861 40.5172 1.46796 40.1057 1.4982C39.6921 1.53123 39.2786 1.56426 38.8525 1.59829C38.2302 1.65045 38.2302 1.65045 37.5954 1.70367C37.1852 1.73915 36.7751 1.77462 36.3525 1.81117C35.9547 1.84551 35.5569 1.87984 35.147 1.91522C34.7693 1.94886 34.3917 1.98249 34.0026 2.01715C33.4738 2.06675 33.4738 2.06675 32.9342 2.11735C32.6232 2.14894 32.3122 2.18053 31.9918 2.21308C31.3275 2.29732 31.3275 2.29732 30.6498 2.38326C30.2 2.45818 30.2 2.45818 29.7411 2.53461C29.446 2.6175 29.1509 2.70039 28.8469 2.7858C28.5584 2.91511 28.27 3.04443 27.9727 3.17766C27.6246 3.39981 27.2764 3.62197 26.9177 3.85085C26.5762 4.10616 26.2347 4.36147 25.8828 4.62452C25.6209 4.84668 25.3589 5.06883 25.0891 5.29772C24.8205 5.55303 24.5519 5.80834 24.2752 6.07139C24.0773 6.26287 23.8794 6.45436 23.6755 6.65164C23.3656 6.95628 23.3656 6.95628 23.0494 7.26706C22.855 7.45917 22.6606 7.65127 22.4603 7.8492C22.2446 8.08327 22.2446 8.08327 22.0245 8.32207C22.0245 8.42817 22.0245 8.53428 22.0245 8.64359C22.4922 8.62101 22.96 8.59842 23.4419 8.57514C23.7443 8.55307 24.0468 8.531 24.3584 8.50827C24.8394 8.47081 24.8394 8.47081 25.3302 8.43259C25.7898 8.39793 25.7898 8.39793 26.2587 8.36257C26.5659 8.33988 26.8731 8.31719 27.1896 8.29381C27.6665 8.25985 27.6665 8.25985 28.153 8.2252C28.4649 8.20412 28.7768 8.18303 29.0981 8.16131C29.3792 8.14312 29.6603 8.12494 29.9499 8.1062C30.2341 8.09102 30.5184 8.07584 30.8112 8.0602C31.1152 8.04757 31.4193 8.03495 31.7325 8.02193C32.0833 8.01488 32.4342 8.00782 32.7956 8.00054C33.2427 8.00436 33.6898 8.00819 34.1505 8.01212C34.6432 8.01949 35.1359 8.02686 35.6435 8.03445C36.4003 8.04067 36.4003 8.04067 37.1723 8.04701C37.6876 8.05157 38.2029 8.05613 38.7338 8.06083C39.5207 8.08072 39.5207 8.08072 40.3235 8.10102C40.8249 8.10226 41.3263 8.10351 41.8429 8.10479C42.2976 8.1117 42.7522 8.11862 43.2207 8.12575C43.7899 7.98419 43.7899 7.98419 44.3706 7.83978C44.6202 7.45902 44.8698 7.07825 45.127 6.68595C45.3892 6.06343 45.3892 6.06343 45.6567 5.42834C45.8921 5.06692 46.1275 4.70551 46.37 4.33314C46.6121 4.00488 46.8541 3.67663 47.1035 3.33842C47.3588 3.04332 47.6141 2.74822 47.8772 2.44418C48.0993 2.20876 48.3215 1.97334 48.5504 1.73079C48.7626 1.51858 48.9748 1.30638 49.1934 1.08774C48.9282 1.08774 48.6629 1.08774 48.3896 1.08774ZM53.2125 1.2485C53.2821 1.45739 53.3518 1.66629 53.4235 1.88151C53.513 2.15008 53.6026 2.41866 53.6948 2.69537C53.7392 2.94409 53.7836 3.19281 53.8294 3.44906C53.9441 3.67781 54.0589 3.90656 54.1771 4.14223C54.4604 4.22229 54.7437 4.30235 55.0357 4.38483C55.5889 4.42794 55.5889 4.42794 56.1533 4.47192C56.5612 4.50754 56.969 4.54316 57.3892 4.57986C58.0423 4.62684 58.0423 4.62684 58.7086 4.67476C59.3656 4.73044 59.3656 4.73044 60.0358 4.78725C60.6875 4.84316 60.6875 4.84316 61.3524 4.90021C61.7781 4.93479 62.2038 4.96937 62.6424 5.005C63.032 5.0386 63.4215 5.0722 63.8229 5.10681C64.137 5.14062 64.4511 5.17442 64.7747 5.20925C65.0438 5.24197 65.3128 5.27468 65.59 5.30839C66.272 5.39761 66.272 5.39761 66.9678 5.48862C67.3526 5.5396 67.7374 5.59058 68.1339 5.64311C68.4089 5.67834 68.6839 5.71357 68.9673 5.74986C69.1264 5.74986 69.2856 5.74986 69.4496 5.74986C69.433 5.53102 69.4164 5.31219 69.3993 5.08672C69.3629 4.82809 69.3264 4.56946 69.2888 4.303C69.1296 3.98469 68.9705 3.66638 68.8065 3.33842C68.4882 3.23232 68.1699 3.12621 67.8419 3.01689C67.4197 2.95128 66.9976 2.88566 66.5626 2.81806C66.0323 2.74566 65.5021 2.67326 64.9557 2.59866C64.3786 2.51991 63.8014 2.44116 63.2068 2.36003C62.6011 2.27838 61.9953 2.19673 61.3712 2.1126C60.768 2.02971 60.1647 1.94682 59.5432 1.86141C58.9652 1.78308 58.3872 1.70474 57.7917 1.62403C56.9953 1.51598 56.9953 1.51598 56.1827 1.40573C55.7331 1.35385 55.2834 1.30196 54.8201 1.2485C54.3303 1.23688 54.3303 1.23688 53.8306 1.22503C53.5246 1.23665 53.5246 1.23665 53.2125 1.2485ZM69.128 3.33842C69.2043 3.5871 69.2806 3.83578 69.3591 4.092C69.442 4.37383 69.5249 4.65567 69.6103 4.94605C69.6634 5.21131 69.7164 5.47657 69.7711 5.74986C70.1041 5.8226 70.4371 5.89534 70.7803 5.97028C71.4694 6.05515 71.4694 6.05515 72.1725 6.14172C72.4186 6.17336 72.6648 6.20501 72.9184 6.23761C73.3064 6.28775 73.3064 6.28775 73.7022 6.33891C73.9749 6.37295 74.2475 6.40698 74.5284 6.44205C74.9587 6.49731 74.9587 6.49731 75.3978 6.55368C75.7042 6.59632 76.0106 6.63895 76.3263 6.68288C76.7955 6.75011 76.7955 6.75011 77.2742 6.81869C77.7365 6.88538 77.7365 6.88538 78.208 6.95343C78.5108 6.99724 78.8135 7.04106 79.1255 7.0862C79.5751 7.15053 79.5751 7.15053 80.0338 7.21616C80.448 7.27524 80.448 7.27524 80.8706 7.33551C81.2928 7.39582 81.7149 7.45612 82.1498 7.51825C81.5054 7.44241 81.5054 7.44241 80.848 7.36503C80.4289 7.31551 80.4289 7.31551 80.0013 7.26498C79.699 7.2292 79.3967 7.19341 79.0853 7.15654C78.7805 7.12044 78.4758 7.08434 78.1618 7.04715C77.8541 7.01051 77.5465 6.97387 77.2296 6.93612C76.9208 6.89905 76.6119 6.86198 76.2937 6.82379C75.8502 6.76966 75.8502 6.76966 75.3978 6.71444C75.1343 6.68105 74.8707 6.64766 74.5992 6.61326C74.3561 6.58178 74.1129 6.55031 73.8624 6.51788C73.4208 6.46006 72.9791 6.40225 72.5242 6.34268C72.13 6.29025 71.7358 6.23782 71.3297 6.1838C71.0276 6.1467 70.7254 6.10961 70.4141 6.07139C70.2019 6.07139 69.9897 6.07139 69.7711 6.07139C69.791 6.27696 69.8109 6.48254 69.8314 6.69434C69.8645 6.96624 69.8977 7.23813 69.9319 7.51825C69.9783 7.80672 70.0247 8.09519 70.0725 8.3924C70.1322 8.63445 70.1919 8.8765 70.2534 9.12588C70.4125 9.23199 70.5717 9.33809 70.7357 9.44741C71.2347 9.5016 71.7337 9.55579 72.2478 9.61163C72.9122 9.66851 73.5766 9.7254 74.2611 9.78401C75.3435 9.87819 75.3435 9.87819 76.4478 9.97428C77.2087 10.0391 77.9697 10.104 78.7537 10.1708C79.8858 10.2681 79.8858 10.2681 81.0408 10.3674C82.1263 10.4616 82.1263 10.4616 83.2337 10.5577C83.9 10.6146 84.5662 10.6714 85.2526 10.7301C85.8202 10.7843 86.3879 10.8384 86.9727 10.8943C87.3781 10.941 87.7835 10.9877 88.2011 11.0359C88.4854 11.0953 88.7697 11.1546 89.0626 11.2158C89.3279 11.428 89.5931 11.6402 89.8664 11.8589C89.9759 12.1805 90.0853 12.5021 90.198 12.8335C90.2492 13.0459 90.3004 13.2583 90.3531 13.4772C90.4305 13.8698 90.4305 13.8698 90.5095 14.2703C90.5661 14.6133 90.6227 14.9562 90.6809 15.3096C90.7652 15.8694 90.7652 15.8694 90.8511 16.4406C90.9313 16.9992 90.9313 16.9992 91.0131 17.5691C91.0591 17.9129 91.1051 18.2567 91.1525 18.6109C91.182 18.8801 91.2114 19.1493 91.2417 19.4266C91.2654 19.6449 91.289 19.8631 91.3133 20.0879C91.3664 20.3963 91.4194 20.7046 91.4741 21.0223C91.6863 21.0223 91.8985 21.0223 92.1171 21.0223C92.0916 20.7185 92.0661 20.4147 92.0399 20.1017C92.0024 19.6827 91.9649 19.2637 91.9262 18.8319C91.8821 18.3781 91.8379 17.9243 91.7925 17.4567C91.7404 16.9887 91.6884 16.5208 91.6348 16.0387C91.5444 15.3965 91.5444 15.3965 91.4521 14.7413C91.3864 14.3339 91.3207 13.9264 91.253 13.5067C91.1838 13.1125 91.1146 12.7184 91.0433 12.3123C90.9732 11.9504 90.9032 11.5886 90.831 11.2158C90.7643 10.907 90.6976 10.5982 90.6288 10.2801C90.5629 10.012 90.497 9.74379 90.4291 9.4675C90.2965 9.03646 90.1639 8.60541 90.0272 8.16131C89.9062 7.93874 89.7852 7.71617 89.6605 7.48686C89.5162 7.28501 89.372 7.08317 89.2234 6.8752C88.9051 6.60994 88.5868 6.34469 88.2588 6.07139C87.932 5.98467 87.6052 5.89796 87.2685 5.80862C86.6446 5.69996 86.6446 5.69996 86.0081 5.5891C85.5225 5.51428 85.0369 5.43945 84.5365 5.36236C83.9912 5.28611 83.4458 5.20986 82.8839 5.1313C82.2856 5.04727 81.6872 4.96324 81.0706 4.87666C80.1376 4.74688 80.1376 4.74688 79.1858 4.61448C78.5644 4.52733 77.943 4.44019 77.3028 4.35041C76.7042 4.26658 76.1056 4.18276 75.4888 4.09639C74.9433 4.02032 74.3978 3.94426 73.8357 3.86588C73.3432 3.79792 72.8507 3.72996 72.3433 3.65995C71.8971 3.59789 71.4509 3.53584 70.9912 3.4719C70.4668 3.40583 70.4668 3.40583 69.9319 3.33842C69.6666 3.33842 69.4013 3.33842 69.128 3.33842ZM54.1771 4.303C54.1976 4.52888 54.2181 4.75477 54.2393 4.9875C54.2718 5.29213 54.3043 5.59676 54.3379 5.91063C54.382 6.20863 54.4261 6.50663 54.4716 6.81366C54.5236 7.14565 54.5756 7.47764 54.6292 7.81969C54.6862 8.19975 54.7432 8.57982 54.8019 8.9714C54.861 9.39374 54.9201 9.81608 54.9809 10.2512C55.0098 10.4845 55.0388 10.7178 55.0686 10.9582C55.0971 11.2003 55.1255 11.4424 55.1549 11.6918C55.1828 11.937 55.2107 12.1822 55.2395 12.4348C55.2669 12.6824 55.2943 12.93 55.3225 13.1851C55.3496 13.4355 55.3767 13.6858 55.4046 13.9437C55.4306 14.1882 55.4565 14.4328 55.4833 14.6848C55.5297 15.1316 55.5761 15.5784 55.624 16.0387C55.6571 16.3495 55.6903 16.6604 55.7244 16.9807C55.751 17.2534 55.7775 17.5261 55.8048 17.8071C55.8403 18.223 55.8403 18.223 55.8764 18.6473C55.8992 19.0067 55.922 19.366 55.9455 19.7362C55.9583 20.0139 55.9711 20.2915 55.9843 20.5776C56.0042 21.0483 56.0042 21.0483 56.0246 21.5285C56.0383 21.8509 56.0519 22.1734 56.066 22.5056C56.0793 22.8318 56.0926 23.158 56.1062 23.4941C56.1177 23.8157 56.1291 24.1373 56.1409 24.4687C56.1526 24.7684 56.1644 25.068 56.1766 25.3767C56.2064 25.8497 56.2363 26.3226 56.267 26.8098C56.3731 26.8629 56.4792 26.9159 56.5885 26.9706C57.0657 26.9103 57.0657 26.9103 57.5526 26.8489C58.1901 26.7512 58.1901 26.7512 58.8405 26.6515C59.5417 26.5452 59.5417 26.5452 60.2572 26.4368C60.9976 26.323 60.9976 26.323 61.753 26.2069C62.233 26.1336 62.7129 26.0602 63.2074 25.9846C63.6795 25.9129 64.1516 25.8412 64.638 25.7674C65.1 25.6974 65.5619 25.6275 66.0379 25.5554C66.4741 25.4919 66.9103 25.4284 67.3596 25.3629C67.7556 25.3119 68.1516 25.2608 68.5596 25.2081C68.9092 25.1656 69.2589 25.123 69.6191 25.0791C69.9229 25.0438 70.2267 25.0085 70.5397 24.9722C70.7635 24.942 70.9873 24.9118 71.218 24.8806C71.3241 24.8276 71.4302 24.7745 71.5395 24.7199C71.5718 24.5058 71.6041 24.2917 71.6374 24.0712C71.6449 23.8045 71.6524 23.5378 71.66 23.263C71.6758 22.9958 71.6916 22.7287 71.7078 22.4535C71.5992 22.2465 71.4906 22.0394 71.3787 21.8262C70.7477 21.7767 70.7477 21.7767 70.1039 21.7263C69.8416 21.7393 69.5792 21.7522 69.3089 21.7656C69.037 21.7856 68.7651 21.8056 68.485 21.8262C68.2346 21.8379 67.9843 21.8498 67.7264 21.8619C67.4798 21.8733 67.2332 21.8847 66.9791 21.8965C66.7289 21.911 66.4788 21.9256 66.221 21.9406C65.9668 21.9559 65.7125 21.9712 65.4506 21.9869C65.1845 22.0018 64.9185 22.0167 64.6443 22.032C64.3807 22.0461 64.1171 22.0603 63.8455 22.0748C63.5923 22.088 63.3392 22.1012 63.0784 22.1147C62.8466 22.1256 62.6148 22.1365 62.376 22.1477C61.8376 22.1638 61.8376 22.1638 61.2883 22.1803C61.004 22.1828 60.7197 22.1853 60.4267 22.1879C60.009 22.1746 59.5912 22.1613 59.1607 22.1477C58.9485 22.0416 58.7363 21.9355 58.5177 21.8262C58.3502 21.5224 58.3502 21.5224 58.1793 21.2125C58.0788 20.9375 57.9782 20.6626 57.8746 20.3793C57.8076 20.0576 57.7405 19.7359 57.6714 19.4045C57.587 18.8584 57.587 18.8584 57.501 18.3013C57.4385 17.9012 57.376 17.5012 57.3117 17.089C57.2173 16.4646 57.2173 16.4646 57.1211 15.8277C57.0563 15.4133 56.9915 14.999 56.9248 14.572C56.863 14.1714 56.8011 13.7707 56.7374 13.3578C56.6817 12.9933 56.626 12.6287 56.5686 12.253C56.5221 11.9107 56.4757 11.5685 56.4278 11.2158C56.3685 10.692 56.3685 10.692 56.3079 10.1575C56.2944 9.87014 56.2809 9.58275 56.267 9.28665C56.3731 9.07444 56.4792 8.86223 56.5885 8.64359C56.98 8.6237 57.3715 8.60381 57.7748 8.58331C58.0365 8.58911 58.2983 8.59491 58.568 8.60089C58.8697 8.61498 59.1714 8.62908 59.4823 8.64359C59.8248 8.66432 60.1673 8.68504 60.5202 8.70639C60.8887 8.73209 61.2572 8.75779 61.6369 8.78426C62.0185 8.81328 62.4001 8.84229 62.7933 8.87218C63.1828 8.90285 63.5723 8.93352 63.9736 8.96512C64.5643 9.01113 64.5643 9.01113 65.1671 9.05806C65.5472 9.08707 65.9274 9.11609 66.3191 9.14598C66.6618 9.17292 67.0046 9.19986 67.3577 9.22762C67.6767 9.2471 67.9956 9.26658 68.3242 9.28665C68.8239 9.291 68.8239 9.291 69.3337 9.29544C69.5842 9.29254 69.8346 9.28964 70.0926 9.28665C70.0462 8.96502 69.9998 8.64339 69.952 8.31202C69.8923 7.94397 69.8326 7.57593 69.7711 7.19673C69.6119 6.63969 69.6119 6.63969 69.4496 6.07139C69.1803 6.0023 68.911 5.93322 68.6336 5.86204C68.2662 5.82502 67.8989 5.788 67.5204 5.74986C67.101 5.69399 66.6817 5.63811 66.2496 5.58054C65.7783 5.52161 65.307 5.46268 64.8214 5.40196C64.3053 5.33772 63.7893 5.27348 63.2577 5.20729C62.4532 5.10782 62.4532 5.10782 61.6325 5.00633C60.8261 4.905 60.8261 4.905 60.0035 4.80161C59.4879 4.73779 58.9723 4.67396 58.4411 4.6082C57.9701 4.54963 57.4991 4.49106 57.0139 4.43071C56.6083 4.38857 56.2026 4.34642 55.7847 4.303C55.4647 4.2967 55.1446 4.29041 54.8149 4.28392C54.4992 4.29336 54.4992 4.29336 54.1771 4.303ZM51.6049 7.67902C50.8986 7.70389 50.8986 7.70389 50.1781 7.72926C49.9321 7.74459 49.6861 7.75993 49.4327 7.77573C49.0755 7.80743 49.0755 7.80743 48.7112 7.83978C48.0994 7.93428 48.0994 7.93428 47.4753 8.03069C47.1404 8.12684 46.8055 8.223 46.4605 8.32207C46.2704 8.46237 46.0804 8.60266 45.8846 8.74721C45.7033 8.92523 45.522 9.10324 45.3351 9.28665C45.1262 9.57263 45.1262 9.57263 44.9131 9.86439C44.7871 10.0716 44.6611 10.2789 44.5313 10.4924C44.3262 10.8312 44.3262 10.8312 44.1169 11.1769C43.9884 11.4019 43.8599 11.627 43.7275 11.8589C43.4291 12.4457 43.4291 12.4457 43.1246 13.0445C42.9522 13.3959 42.7798 13.7474 42.6022 14.1095C42.4264 14.398 42.2507 14.6865 42.0696 14.9837C41.9271 15.2257 41.7845 15.4678 41.6376 15.7172C41.5315 16.0885 41.4254 16.4599 41.3161 16.8425C41.3161 17.2139 41.3161 17.5852 41.3161 17.9678C41.6344 17.57 41.6344 17.57 41.9591 17.164C42.1415 16.8026 42.3238 16.4412 42.5117 16.0688C42.6224 15.844 42.7331 15.6191 42.8471 15.3875C42.9785 15.1249 43.1098 14.8623 43.2452 14.5918C43.4131 14.2679 43.5809 13.944 43.7539 13.6103C43.9342 13.271 44.1145 12.9318 44.3002 12.5823C44.4695 12.2623 44.6388 11.9423 44.8133 11.6127C44.9855 11.3226 45.1577 11.0324 45.3351 10.7335C45.5256 10.4896 45.716 10.2457 45.9122 9.99438C46.1836 9.72363 46.1836 9.72363 46.4605 9.44741C46.7257 9.34462 46.991 9.24183 47.2643 9.13593C47.5295 9.07956 47.7948 9.0232 48.0681 8.96512C48.6251 8.88554 48.6251 8.88554 49.1934 8.80436C49.491 8.78985 49.7886 8.77534 50.0952 8.7604C50.421 8.75501 50.7468 8.74962 51.0824 8.74407C51.4098 8.7362 51.7373 8.72832 52.0746 8.72021C52.4787 8.76186 52.4787 8.76186 52.891 8.80436C53.0501 9.06962 53.2093 9.33488 53.3733 9.60817C53.4091 9.88172 53.445 10.1553 53.4819 10.4371C53.5077 10.9817 53.5077 10.9817 53.534 11.5373C53.5429 12.0065 53.5519 12.4757 53.561 12.9591C53.562 13.2125 53.5629 13.466 53.5639 13.7271C53.564 13.9859 53.5641 14.2448 53.5642 14.5114C53.5662 14.7703 53.5681 15.0291 53.5701 15.2958C53.5705 15.5492 53.5708 15.8027 53.5711 16.0638C53.5589 16.533 53.5466 17.0022 53.534 17.4856C53.4969 17.8453 53.4598 18.2051 53.4216 18.5757C53.3526 18.8526 53.2836 19.1295 53.2125 19.4147C52.8146 19.8922 52.8146 19.8922 52.4087 20.3793C52.17 20.4887 51.9312 20.5981 51.6853 20.7109C51.168 20.865 51.168 20.865 50.6403 21.0223C50.362 21.0887 50.0837 21.155 49.7969 21.2233C49.495 21.2929 49.1931 21.3626 48.882 21.4343C48.592 21.4975 48.3021 21.5607 48.0034 21.6258C47.7595 21.6919 47.5156 21.758 47.2643 21.8262C47.0521 21.9853 46.8399 22.1445 46.6212 22.3084C46.7804 22.0697 46.7804 22.0697 46.9428 21.8262C46.9428 21.4017 46.9428 20.9773 46.9428 20.54C46.8897 20.4339 46.8367 20.3278 46.782 20.2185C46.4637 20.2981 46.4637 20.2981 46.1389 20.3793C45.9931 20.6114 45.8472 20.8435 45.6968 21.0826C45.5775 21.328 45.4581 21.5734 45.3351 21.8262C45.3351 21.9853 45.3351 22.1445 45.3351 22.3084C45.4412 22.3084 45.5473 22.3084 45.6567 22.3084C45.6567 22.4145 45.6567 22.5206 45.6567 22.63C45.4411 22.6465 45.2256 22.6631 45.0036 22.6802C44.6886 22.7167 44.3736 22.7531 44.049 22.7907C43.6147 22.8769 43.1803 22.9631 42.7328 23.052C42.3714 23.231 42.01 23.4101 41.6376 23.5945C41.6409 23.9468 41.6442 24.2991 41.6476 24.6621C41.6974 25.1056 41.7471 25.5491 41.7983 26.006C41.8039 26.4573 41.8095 26.9087 41.8153 27.3737C41.8197 27.8309 41.824 28.288 41.8285 28.7591C41.8308 29.2204 41.833 29.6817 41.8354 30.1569C41.8762 30.5378 41.917 30.9187 41.9591 31.3112C42.4366 31.709 42.4366 31.709 42.9237 32.115C43.0729 32.4267 43.2221 32.7383 43.3758 33.0595C43.598 33.3313 43.8201 33.6032 44.049 33.8834C44.431 33.8821 44.8129 33.8809 45.2064 33.8796C45.45 33.8575 45.6937 33.8353 45.9447 33.8125C46.221 33.7828 46.4973 33.7532 46.782 33.7226C47.0934 33.6931 47.4049 33.6637 47.7257 33.6334C48.0576 33.6015 48.3894 33.5696 48.7312 33.5367C49.0699 33.5017 49.4085 33.4667 49.7574 33.4306C50.1018 33.3943 50.4462 33.3581 50.8011 33.3207C51.1554 33.2844 51.5098 33.2482 51.8749 33.2108C52.2102 33.1758 52.5455 33.1408 52.891 33.1047C53.3486 33.057 53.3486 33.057 53.8154 33.0083C54.0408 32.9787 54.2663 32.9492 54.4986 32.9188C54.5517 32.8657 54.6047 32.8127 54.6594 32.758C54.679 32.3549 54.679 32.3549 54.6989 31.9435C54.7091 31.5989 54.7192 31.2543 54.7297 30.8992C54.7395 30.5575 54.7492 30.2157 54.7592 29.8637C54.7793 29.5456 54.7994 29.2275 54.8201 28.8997C54.9793 28.2631 54.9793 28.2631 55.1417 27.6136C54.7173 27.6136 54.2928 27.6136 53.8556 27.6136C53.3963 27.6948 52.9371 27.7761 52.464 27.8598C52.207 27.9106 51.95 27.9613 51.6853 28.0136C51.42 28.0673 51.1547 28.121 50.8815 28.1763C50.6112 28.23 50.341 28.2836 50.0626 28.3389C49.6796 28.4151 49.6796 28.4151 49.2889 28.4928C48.886 28.574 48.4832 28.6553 48.0681 28.739C48.6357 28.5929 48.6357 28.5929 49.2148 28.4438C49.4498 28.385 49.6849 28.3262 49.9271 28.2656C50.1624 28.2096 50.3978 28.1536 50.6403 28.0959C51.2116 27.9834 51.2116 27.9834 51.7945 27.8686C52.3273 27.7722 52.3273 27.7722 52.8709 27.6739C53.2319 27.6088 53.5929 27.5438 53.9648 27.4767C54.2471 27.4158 54.5293 27.3549 54.8201 27.2921C54.9262 27.186 55.0323 27.0799 55.1417 26.9706C55.1514 26.7479 55.1611 26.5251 55.1711 26.2957C55.1657 26.0005 55.1604 25.7054 55.1549 25.4012C55.1462 24.9069 55.1462 24.9069 55.1373 24.4025C55.1288 24.0463 55.1203 23.6902 55.1115 23.3233C55.1034 22.9602 55.0953 22.5971 55.087 22.223C55.0774 21.8558 55.0679 21.4886 55.0581 21.1103C55.0464 20.7419 55.0347 20.3735 55.0226 19.994C55.0088 19.6437 54.9951 19.2934 54.9809 18.9324C54.9649 18.6273 54.9488 18.3221 54.9323 18.0077C54.9146 17.7268 54.8968 17.4459 54.8785 17.1565C54.85 16.7545 54.85 16.7545 54.8208 16.3445C54.7906 15.9594 54.7906 15.9594 54.7599 15.5664C54.739 15.3144 54.7182 15.0623 54.6967 14.8025C54.6753 14.5583 54.6538 14.3141 54.6317 14.0624C54.5658 13.3695 54.5658 13.3695 54.4986 12.6627C54.4327 12.0021 54.4327 12.0021 54.3655 11.3282C54.3232 10.933 54.2809 10.5378 54.2374 10.1307C54.1988 9.78996 54.1603 9.44927 54.1206 9.09825C54.0862 8.84211 54.0518 8.58597 54.0163 8.32207C53.9367 8.08334 53.9367 8.08334 53.8556 7.83978C53.6964 7.7602 53.6964 7.7602 53.534 7.67902C53.1362 7.66907 53.1362 7.66907 52.7302 7.65892C52.3589 7.66555 51.9875 7.67219 51.6049 7.67902ZM11.8965 21.0223C11.7373 21.1815 11.5781 21.3406 11.4142 21.5046C13.2444 21.6638 13.2444 21.6638 15.1117 21.8262C14.6342 22.1445 14.1568 22.4628 13.6648 22.7907C13.3366 22.8653 13.3366 22.8653 13.0017 22.9414C12.7431 22.9448 12.4844 22.9481 12.218 22.9515C11.7902 22.9349 11.3625 22.9183 10.9218 22.9013C10.5538 22.8648 10.1857 22.8283 9.80654 22.7907C9.80654 22.6846 9.80654 22.5785 9.80654 22.4692C9.54128 22.5753 9.27602 22.6814 9.00272 22.7907C8.64794 23.0096 8.29315 23.2284 7.92762 23.4539C7.53968 23.7125 7.15174 23.9711 6.75204 24.2376C6.31436 24.5758 6.31436 24.5758 5.86785 24.9208C5.62911 25.1198 5.39038 25.3187 5.14441 25.5237C4.8261 25.789 4.50779 26.0542 4.17983 26.3275C3.95602 26.6558 3.95602 26.6558 3.72769 26.9907C3.61164 27.1962 3.49559 27.4018 3.37602 27.6136C3.32297 27.7728 3.26992 27.9319 3.21526 28.0959C3.21526 28.5734 3.21526 29.0508 3.21526 29.5428C3.32136 29.5428 3.42746 29.5428 3.53678 29.5428C3.69594 29.3836 3.85509 29.2245 4.01907 29.0605C4.60378 29.0288 4.60378 29.0288 5.2003 28.9964C5.44714 28.9955 5.69398 28.9945 5.94831 28.9935C6.21685 28.9957 6.4854 28.9979 6.76209 29.0002C7.17672 29.0019 7.17672 29.0019 7.59974 29.0037C7.88678 29.0067 8.17382 29.0097 8.46957 29.0128C8.9156 29.0219 8.9156 29.0219 9.37064 29.0313C9.67364 29.0409 9.97664 29.0506 10.2888 29.0605C10.5937 29.0751 10.8986 29.0897 11.2127 29.1048C11.6683 29.1313 11.6683 29.1313 12.1332 29.1584C12.433 29.1782 12.7327 29.198 13.0415 29.2183C13.3334 29.2392 13.6253 29.26 13.9261 29.2815C14.2059 29.3018 14.4856 29.322 14.7739 29.3428C15.04 29.3636 15.306 29.3844 15.5802 29.4059C15.8304 29.4284 16.0805 29.4509 16.3383 29.4742C16.5702 29.4968 16.802 29.5194 17.0409 29.5428C17.44 29.5846 17.8391 29.6265 18.2504 29.6696C18.5409 29.7339 18.8314 29.7981 19.1308 29.8643C19.2899 30.1296 19.4491 30.3948 19.6131 30.6681C19.8783 30.509 20.1436 30.3498 20.4169 30.1858C20.5794 29.967 20.7418 29.7481 20.9092 29.5227C21.1181 29.264 21.327 29.0054 21.5422 28.739C21.8195 28.5129 22.0968 28.2868 22.3825 28.0538C22.9215 27.6768 22.9215 27.6768 23.4714 27.2921C23.7759 27.1154 23.7759 27.1154 24.0866 26.9351C24.3007 26.8202 24.5149 26.7053 24.7355 26.5869C24.9578 26.4726 25.18 26.3583 25.409 26.2405C25.635 26.1267 25.861 26.0128 26.0938 25.8955C26.3179 25.7797 26.5421 25.664 26.773 25.5447C27.1073 25.3742 27.1073 25.3742 27.4484 25.2003C27.6671 25.0918 27.8859 24.9834 28.1113 24.8716C28.3308 24.7685 28.5504 24.6654 28.7766 24.5591C29.1254 24.4116 29.1254 24.4116 29.4814 24.2611C29.8123 24.1285 29.8123 24.1285 30.1499 23.9933C30.4925 23.8617 30.8351 23.7301 31.188 23.5945C30.9774 23.6961 30.7669 23.7976 30.55 23.9023C30.2565 24.0461 29.9631 24.1899 29.6608 24.3381C29.3397 24.4989 29.0187 24.6597 28.688 24.8254C28.1748 25.0915 28.1748 25.0915 27.6512 25.3629C27.3107 25.5503 26.9702 25.7376 26.6194 25.9306C26.1205 26.2166 26.1205 26.2166 25.6115 26.5084C25.2916 26.6976 24.9716 26.8868 24.6419 27.0817C24.3618 27.2572 24.0816 27.4328 23.7929 27.6136C23.4381 27.8822 23.0833 28.1508 22.7178 28.4275C22.489 28.6364 22.2602 28.8453 22.0245 29.0605C21.7593 29.3257 21.494 29.591 21.2207 29.8643C21.1146 30.0765 21.0085 30.2887 20.8992 30.5073C21.1114 30.4543 21.3236 30.4012 21.5422 30.3466C21.708 30.1742 21.8738 30.0017 22.0446 29.8241C22.2502 29.6252 22.4558 29.4262 22.6676 29.2212C22.9063 29.0787 23.145 28.9361 23.391 28.7892C23.6828 28.6665 23.9746 28.5438 24.2752 28.4174C24.6863 28.3014 25.0975 28.1853 25.5211 28.0658C25.9057 27.9696 26.2904 27.8734 26.6866 27.7744C27.0049 27.6683 27.3233 27.5622 27.6512 27.4529C27.9294 27.2704 27.9294 27.2704 28.2133 27.0842C28.4224 26.9307 28.6315 26.7771 28.8469 26.6189C29.2069 26.3603 29.2069 26.3603 29.5741 26.0964C29.8414 25.9074 30.1088 25.7184 30.3842 25.5237C30.6847 25.3214 30.9852 25.1192 31.2948 24.9108C31.6077 24.7052 31.9206 24.4996 32.243 24.2878C32.5534 24.0862 32.8639 23.8846 33.1837 23.6768C33.6282 23.3974 33.6282 23.3974 34.0817 23.1123C34.3482 22.9575 34.6147 22.8026 34.8893 22.6432C35.2406 22.4476 35.2406 22.4476 35.5989 22.2482C36.1212 21.9597 36.1212 21.9597 36.6539 21.6654C36.6539 21.6123 36.6539 21.5593 36.6539 21.5046C35.7786 21.425 35.7786 21.425 34.8855 21.3439C34.2428 21.3281 33.6001 21.3123 32.9379 21.2961C32.147 21.2835 31.3561 21.2708 30.5412 21.2578C29.2452 21.2368 29.2452 21.2368 27.9231 21.2154C27.0177 21.2015 26.1123 21.1875 25.1795 21.1731C23.8307 21.1511 23.8307 21.1511 22.4547 21.1288C21.5887 21.115 20.7226 21.1012 19.8304 21.087C19.0376 21.0746 18.2449 21.0621 17.4281 21.0493C16.7167 21.0404 16.0054 21.0315 15.2725 21.0223C14.3108 21.0054 14.3108 21.0054 13.3297 20.9882C12.8568 20.9994 12.3838 21.0107 11.8965 21.0223ZM91.1525 21.0223C90.5749 21.0401 89.9973 21.0579 89.4022 21.0763C88.2304 21.1136 88.2304 21.1136 87.0349 21.1517C85.769 21.193 85.769 21.193 84.4774 21.2352C83.5866 21.2644 82.6959 21.2937 81.7781 21.3238C80.8891 21.3517 80.0002 21.3797 79.0843 21.4085C77.8175 21.4505 77.8175 21.4505 76.525 21.4933C75.7433 21.5186 74.9615 21.5438 74.1561 21.5699C73.2588 21.6171 73.2588 21.6171 72.3433 21.6654C72.078 21.7715 71.8128 21.8776 71.5395 21.9869C71.4964 22.4478 71.4533 22.9087 71.4089 23.3835C71.505 23.8245 71.6012 24.2655 71.7002 24.7199C72.0773 24.7254 72.4543 24.7308 72.8427 24.7365C73.3145 24.678 73.7863 24.6194 74.2724 24.5591C74.9003 24.5088 74.9003 24.5088 75.5408 24.4574C76.1949 24.4011 76.1949 24.4011 76.8622 24.3437C77.5918 24.2814 77.5918 24.2814 78.3361 24.2178C78.8386 24.1746 79.3412 24.1314 79.859 24.0869C80.354 24.0443 80.8491 24.0017 81.3592 23.9578C81.8481 23.9161 82.3369 23.8743 82.8406 23.8313C83.3188 23.7907 83.797 23.7501 84.2897 23.7083C84.7507 23.6707 85.2117 23.6332 85.6866 23.5945C86.3495 23.5466 86.3495 23.5466 87.0258 23.4978C87.4302 23.4698 87.8346 23.4419 88.2513 23.4131C88.6072 23.3895 88.963 23.366 89.3297 23.3417C89.6129 23.3191 89.8962 23.2964 90.188 23.273C90.5859 23.1934 90.5859 23.1934 90.9918 23.1123C90.9122 22.8735 90.9122 22.8735 90.831 22.63C90.9371 22.63 91.0432 22.63 91.1525 22.63C91.1525 22.7891 91.1525 22.9483 91.1525 23.1123C91.3117 23.1123 91.4709 23.1123 91.6348 23.1123C91.6879 22.9531 91.7409 22.7939 91.7956 22.63C91.9017 22.63 92.0078 22.63 92.1171 22.63C92.1171 22.2586 92.1171 21.8872 92.1171 21.5046C91.958 21.4516 91.7988 21.3985 91.6348 21.3439C91.5553 21.1847 91.5553 21.1847 91.4741 21.0223C91.368 21.0223 91.2619 21.0223 91.1525 21.0223ZM37.1362 21.5046C36.8795 21.6215 36.6227 21.7384 36.3582 21.8588C36.0811 22.0204 35.804 22.1821 35.5185 22.3486C35.2222 22.5366 34.9259 22.7246 34.6205 22.9182C34.2836 23.1414 33.9466 23.3646 33.5994 23.5945C33.394 23.7279 33.1886 23.8613 32.977 23.9987C32.7592 24.1399 32.5415 24.2811 32.3171 24.4266C31.9892 24.6412 31.9892 24.6412 31.6546 24.8601C31.4376 25.0028 31.2207 25.1455 30.9971 25.2926C30.785 25.4322 30.5729 25.5718 30.3543 25.7157C30.1563 25.8482 29.9583 25.9806 29.7543 26.1171C29.4317 26.3457 29.109 26.5743 28.7766 26.8098C28.6174 27.022 28.4582 27.2342 28.2943 27.4529C29.2492 27.559 30.2041 27.6651 31.188 27.7744C31.1582 27.9667 31.1283 28.159 31.0976 28.3571C31.0213 28.6423 30.945 28.9274 30.8665 29.2212C30.6974 29.5959 30.5283 29.9706 30.354 30.3566C30.1518 30.7247 29.9495 31.0927 29.7411 31.4719C29.5322 31.7239 29.3233 31.9759 29.1081 32.2355C28.9457 32.408 28.7832 32.5804 28.6158 32.758C28.6158 32.8641 28.6158 32.9702 28.6158 33.0796C28.2975 33.2387 28.2975 33.2387 27.9727 33.4011C27.8136 33.5602 27.6544 33.7194 27.4905 33.8834C27.5435 34.1486 27.5966 34.4139 27.6512 34.6872C27.8634 35.0055 28.0756 35.3238 28.2943 35.6518C28.4534 35.7048 28.6126 35.7579 28.7766 35.8125C29.0441 35.8034 29.3116 35.7943 29.5873 35.7849C30.0762 35.7389 30.0762 35.7389 30.5751 35.6919C30.9089 35.647 31.2428 35.602 31.5868 35.5557C31.8796 35.4813 32.1724 35.4069 32.4741 35.3302C32.7394 35.055 33.0046 34.7798 33.2779 34.4963C33.5166 34.0337 33.5166 34.0337 33.7602 33.5618C33.9393 33.3364 34.1183 33.1109 34.3028 32.8786C34.5912 32.5802 34.5912 32.5802 34.8855 32.2757C35.1475 32.0735 35.4094 31.8712 35.6793 31.6628C35.9479 31.4937 36.2165 31.3246 36.4932 31.1504C36.9176 30.9912 37.342 30.8321 37.7793 30.6681C38.1921 30.5985 38.1921 30.5985 38.6132 30.5274C38.9216 30.5208 39.23 30.5142 39.5477 30.5073C39.9118 30.5865 40.2759 30.6657 40.651 30.7472C40.9766 30.8272 41.3022 30.9072 41.6376 30.9896C41.6395 30.629 41.6413 30.2685 41.6432 29.8969C41.6447 29.422 41.6461 28.947 41.6476 28.4576C41.6495 27.9876 41.6514 27.5176 41.6533 27.0334C41.6481 26.5882 41.6429 26.1431 41.6376 25.6845C41.6273 25.1162 41.6273 25.1162 41.6169 24.5365C41.5706 24.2787 41.5244 24.0209 41.4768 23.7553C41.1585 23.8084 40.8402 23.8614 40.5122 23.9161C40.191 24.0373 39.8698 24.1585 39.5389 24.2834C39.177 24.4308 38.8152 24.5781 38.4424 24.7299C38.0781 24.8777 37.7138 25.0254 37.3384 25.1777C36.92 25.349 36.92 25.349 36.4932 25.5237C36.9495 25.3257 36.9495 25.3257 37.415 25.1237C37.7475 24.9374 38.0799 24.7511 38.4223 24.5591C38.6374 24.2424 38.6374 24.2424 38.8569 23.9192C38.939 23.696 39.021 23.4728 39.1056 23.2429C39.2515 22.8284 39.3974 22.4139 39.5477 21.9869C39.5477 21.8278 39.5477 21.6686 39.5477 21.5046C39.0603 21.425 39.0603 21.425 38.563 21.3439C38.0922 21.3969 37.6213 21.45 37.1362 21.5046ZM91.7956 23.273C91.7426 23.3261 91.6895 23.3791 91.6348 23.4338C91.4261 23.4324 91.2173 23.431 91.0023 23.4295C90.6805 23.4309 90.3587 23.4323 90.0272 23.4338C89.3697 23.4811 89.3697 23.4811 88.6989 23.5294C88.18 23.5735 87.6612 23.6176 87.1266 23.663C86.2651 23.7359 86.2651 23.7359 85.3861 23.8103C84.7857 23.8618 84.1852 23.9132 83.5666 23.9663C82.9791 24.0159 82.3917 24.0656 81.7865 24.1167C81.2078 24.1659 80.6291 24.2151 80.0329 24.2659C79.4675 24.3151 78.9021 24.3643 78.3195 24.4151C77.5099 24.4864 77.5099 24.4864 76.6839 24.5591C75.9237 24.6251 75.9237 24.6251 75.1481 24.6925C74.4669 24.7542 74.4669 24.7542 73.7719 24.8172C73.1741 24.8707 73.1741 24.8707 72.5641 24.9254C72.2791 24.9636 71.994 25.0019 71.7002 25.0414C71.6472 25.1475 71.5941 25.2536 71.5395 25.3629C71.5925 25.6282 71.6456 25.8935 71.7002 26.1667C71.6849 26.5292 71.6696 26.8917 71.6538 27.2651C71.6359 27.6885 71.6181 28.1118 71.5998 28.548C71.5778 28.9735 71.5558 29.3989 71.5332 29.8373C71.5883 30.1645 71.6434 30.4917 71.7002 30.8289C71.9597 30.8525 72.2192 30.8761 72.4866 30.9004C72.8107 30.8768 73.1347 30.8532 73.4686 30.8289C73.7507 30.8079 74.0327 30.7869 74.3233 30.7653C74.613 30.7357 74.9027 30.7061 75.2012 30.6756C75.6779 30.6256 75.6779 30.6256 76.1642 30.5745C76.4916 30.5391 76.8189 30.5037 77.1561 30.4672C77.4878 30.4342 77.8195 30.4013 78.1612 30.3673C78.4776 30.3331 78.7939 30.2989 79.1198 30.2637C79.4083 30.2334 79.6967 30.2031 79.9939 30.1718C80.2279 30.1234 80.4619 30.075 80.703 30.0251C80.9152 29.8129 81.1274 29.6006 81.346 29.382C81.6113 29.0106 81.8765 28.6393 82.1498 28.2567C82.4681 28.0445 82.7865 27.8323 83.1144 27.6136C83.5919 27.6136 84.0693 27.6136 84.5613 27.6136C84.8796 27.8258 85.1979 28.038 85.5258 28.2567C85.7381 28.575 85.9503 28.8933 86.1689 29.2212C86.5204 29.2212 86.8718 29.2212 87.234 29.2212C87.9004 29.1417 87.9004 29.1417 88.5803 29.0605C88.9689 29.0822 88.9689 29.0822 89.3653 29.1044C89.7526 29.1125 89.7526 29.1125 90.1478 29.1208C90.5855 28.9948 91.0231 28.8688 91.4741 28.739C91.6093 28.324 91.6093 28.324 91.7472 27.9006C91.7864 27.5638 91.8256 27.2271 91.8659 26.8801C91.8855 26.3725 91.8855 26.3725 91.9055 25.8546C91.9223 25.5863 91.9391 25.3179 91.9564 25.0414C92.1155 24.9884 92.2747 24.9353 92.4387 24.8806C92.432 24.6121 92.4254 24.3435 92.4186 24.0668C92.3489 23.6739 92.3489 23.6739 92.2779 23.273C92.1187 23.273 91.9596 23.273 91.7956 23.273ZM70.0926 25.2022C69.7088 25.2492 69.3249 25.2962 68.9294 25.3446C68.4703 25.4099 68.0111 25.4753 67.538 25.5425C67.0359 25.6136 66.5337 25.6847 66.0164 25.7579C65.4915 25.8332 64.9666 25.9084 64.4257 25.9859C63.6421 26.0969 63.6421 26.0969 62.8426 26.2101C62.3396 26.2816 61.8367 26.3531 61.3185 26.4267C60.8586 26.4924 60.3987 26.5581 59.9248 26.6257C59.5135 26.6865 59.1022 26.7472 58.6785 26.8098C58.3156 26.8641 57.9528 26.9184 57.579 26.9744C57.1683 27.0521 57.1683 27.0521 56.7493 27.1313C56.5901 27.2374 56.431 27.3435 56.267 27.4529C56.2328 27.8346 56.1986 28.2163 56.1634 28.6096C56.1545 29.0833 56.1456 29.5571 56.1364 30.0452C56.1221 30.5197 56.1078 30.9943 56.0931 31.4832C56.1505 31.8509 56.2079 32.2185 56.267 32.5973C56.476 32.6265 56.685 32.6558 56.9004 32.686C57.2219 32.6567 57.5434 32.6274 57.8746 32.5973C58.3145 32.5551 58.7544 32.513 59.2077 32.4695C59.7252 32.411 60.2427 32.3524 60.7759 32.2921C61.6211 32.1963 61.6211 32.1963 62.4834 32.0986C63.3653 31.9973 63.3653 31.9973 64.265 31.8939C64.8554 31.8276 65.4458 31.7613 66.0541 31.693C66.6167 31.6287 67.1794 31.5645 67.759 31.4983C68.2758 31.4394 68.7926 31.3804 69.3251 31.3197C69.7375 31.2638 70.15 31.208 70.5749 31.1504C70.8932 31.0443 71.2115 30.9382 71.5395 30.8289C71.5724 30.4662 71.6054 30.1036 71.6393 29.7299C71.6296 29.2769 71.6199 28.8239 71.6098 28.3571C71.5996 27.6789 71.5996 27.6789 71.5891 26.9869C71.5645 26.4218 71.5645 26.4218 71.5395 25.8452C71.4599 25.5269 71.4599 25.5269 71.3787 25.2022C70.9543 25.2022 70.5299 25.2022 70.0926 25.2022ZM3.85831 26.1667C3.80526 26.2729 3.75221 26.379 3.69755 26.4883C3.80365 26.4883 3.90975 26.4883 4.01907 26.4883C3.96602 26.3822 3.91297 26.2761 3.85831 26.1667ZM3.37602 26.4883C3.21687 26.6474 3.05771 26.8066 2.89373 26.9706C2.94678 27.1828 2.99984 27.395 3.05449 27.6136C3.21365 27.4545 3.37281 27.2953 3.53678 27.1313C3.58983 26.9191 3.64289 26.7069 3.69755 26.4883C3.59144 26.4883 3.48534 26.4883 3.37602 26.4883ZM91.7956 26.4883C91.7956 26.5944 91.7956 26.7005 91.7956 26.8098C91.9548 26.8098 92.1139 26.8098 92.2779 26.8098C92.2779 26.7037 92.2779 26.5976 92.2779 26.4883C92.1187 26.4883 91.9596 26.4883 91.7956 26.4883ZM91.9564 27.1313C91.9033 27.2905 91.8503 27.4496 91.7956 27.6136C91.9548 27.6136 92.1139 27.6136 92.2779 27.6136C92.2779 27.4545 92.2779 27.2953 92.2779 27.1313C92.1718 27.1313 92.0657 27.1313 91.9564 27.1313ZM2.57221 27.4529C2.4661 27.7181 2.36 27.9834 2.25068 28.2567C2.30373 28.4689 2.35678 28.6811 2.41144 28.8997C2.51755 28.9528 2.62365 29.0058 2.73297 29.0605C2.78602 28.6361 2.83907 28.2117 2.89373 27.7744C2.78763 27.6683 2.68152 27.5622 2.57221 27.4529ZM55.4632 27.4529C55.2245 28.0099 55.2245 28.0099 54.9809 28.5782C54.9407 28.9162 54.9005 29.2542 54.8591 29.6024C54.8396 29.9773 54.8201 30.3522 54.8 30.7384C54.7764 31.1162 54.7528 31.494 54.7285 31.8833C54.7587 32.1719 54.789 32.4606 54.8201 32.758C55.1915 32.758 55.5629 32.758 55.9455 32.758C55.9985 32.5458 56.0516 32.3336 56.1062 32.115C56.1133 31.7846 56.1203 31.4543 56.1276 31.114C56.127 30.5252 56.127 30.5252 56.1263 29.9246C56.1268 29.5313 56.1272 29.1379 56.1276 28.7327C56.117 28.2583 56.117 28.2583 56.1062 27.7744C56.0532 27.6683 56.0001 27.5622 55.9455 27.4529C55.7863 27.4529 55.6272 27.4529 55.4632 27.4529ZM83.1144 27.7744C82.7712 28.0231 82.7712 28.0231 82.4211 28.2768C82.2255 28.4823 82.0299 28.6879 81.8283 28.8997C81.6161 29.218 81.4039 29.5363 81.1852 29.8643C81.2383 29.9173 81.2914 29.9704 81.346 30.0251C81.6643 30.0251 81.9826 30.0251 82.3106 30.0251C82.5759 29.8129 82.8411 29.6006 83.1144 29.382C83.2205 29.329 83.3266 29.2759 83.4359 29.2212C83.8073 29.2212 84.1787 29.2212 84.5613 29.2212C84.7735 29.3804 84.9857 29.5396 85.2043 29.7035C85.4696 29.5974 85.7348 29.4913 86.0081 29.382C85.849 29.1167 85.6898 28.8515 85.5258 28.5782C85.2075 28.3129 84.8892 28.0477 84.5613 27.7744C84.0838 27.7744 83.6063 27.7744 83.1144 27.7744ZM28.9373 27.7744C28.6721 27.8274 28.4068 27.8805 28.1335 27.9351C28.5314 28.4126 28.5314 28.4126 28.9373 28.8997C29.3617 28.8467 29.7861 28.7936 30.2234 28.739C29.8521 28.8981 29.4807 29.0573 29.0981 29.2212C28.7798 29.3273 28.4615 29.4335 28.1335 29.5428C28.1335 29.5958 28.1335 29.6489 28.1335 29.7035C28.3988 29.7334 28.664 29.7632 28.9373 29.794C29.3352 29.8288 29.3352 29.8288 29.7411 29.8643C29.5389 30.1793 29.3366 30.4943 29.1282 30.8188C28.853 31.1935 28.5778 31.5682 28.2943 31.9542C27.9992 32.2261 27.7041 32.498 27.4 32.7781C27.1116 32.9837 26.8231 33.1893 26.5259 33.4011C26.1015 33.5602 25.677 33.7194 25.2398 33.8834C24.8684 33.8834 24.497 33.8834 24.1144 33.8834C23.8757 33.4855 23.8757 33.4855 23.6321 33.0796C23.5791 32.7612 23.526 32.4429 23.4714 32.115C23.3653 32.2741 23.2592 32.4333 23.1499 32.5973C22.9376 32.9686 22.7254 33.34 22.5068 33.7226C22.5068 33.8287 22.5068 33.9348 22.5068 34.0441C22.3476 33.885 22.1885 33.7258 22.0245 33.5618C21.9184 33.3496 21.8123 33.1374 21.703 32.9188C21.3316 33.0779 20.9603 33.2371 20.5776 33.4011C20.7368 33.0828 20.896 32.7645 21.0599 32.4365C21.3252 32.2243 21.5905 32.0121 21.8638 31.7934C22.2351 31.6873 22.6065 31.5812 22.9891 31.4719C23.1482 31.1536 23.3074 30.8353 23.4714 30.5073C23.7897 30.3482 24.108 30.189 24.436 30.0251C24.7572 29.9571 25.0784 29.8891 25.4093 29.8191C25.7712 29.7544 26.133 29.6898 26.5058 29.6231C26.8701 29.5585 27.2344 29.4938 27.6098 29.4272C27.8887 29.3592 28.1676 29.2913 28.455 29.2212C28.455 29.0621 28.455 28.9029 28.455 28.739C28.0571 28.3411 28.0571 28.3411 27.6512 27.9351C27.3296 27.9584 27.008 27.9816 26.6766 28.0055C26.3085 28.0884 25.9405 28.1713 25.5613 28.2567C25.0689 28.391 25.0689 28.391 24.5666 28.528C24.2582 28.6506 23.9499 28.7733 23.6321 28.8997C23.3748 29.0506 23.1174 29.2014 22.8522 29.3569C22.5791 29.5774 22.3059 29.7979 22.0245 30.0251C21.7968 30.3477 21.569 30.6704 21.3344 31.0028C21.0244 31.5384 21.0244 31.5384 20.7083 32.0848C20.4971 32.444 20.2859 32.8031 20.0684 33.1731C19.9181 33.4606 19.7679 33.748 19.6131 34.0441C19.6661 34.1502 19.7192 34.2563 19.7738 34.3657C20.4005 34.3722 20.4005 34.3722 21.0398 34.3788C21.3012 34.3727 21.5625 34.3666 21.8317 34.3603C22.2455 34.348 22.2455 34.348 22.6676 34.3355C22.9384 34.3304 23.2093 34.3254 23.4883 34.3201C23.7513 34.313 24.0143 34.3058 24.2852 34.2985C24.9965 34.2521 24.9965 34.2521 25.7221 34.2049C25.9751 34.1335 26.2281 34.0622 26.4888 33.9887C26.7133 33.9009 26.9377 33.8131 27.1689 33.7226C27.4143 33.5601 27.6597 33.3977 27.9125 33.2303C28.1446 33.0214 28.3767 32.8125 28.6158 32.5973C28.9092 32.2292 28.9092 32.2292 29.2086 31.8537C29.4722 31.426 29.4722 31.426 29.7411 30.9896C29.9202 30.6282 30.0992 30.2668 30.2837 29.8944C30.423 29.5662 30.5622 29.2379 30.7057 28.8997C30.7588 28.6345 30.8118 28.3692 30.8665 28.0959C30.6012 27.9898 30.336 27.8837 30.0627 27.7744C29.6913 27.7744 29.3199 27.7744 28.9373 27.7744ZM2.25068 29.0605C2.25068 29.2196 2.25068 29.3788 2.25068 29.5428C2.35678 29.8611 2.46289 30.1794 2.57221 30.5073C2.67831 30.5073 2.78441 30.5073 2.89373 30.5073C2.84068 30.136 2.78763 29.7646 2.73297 29.382C2.57381 29.2759 2.41466 29.1698 2.25068 29.0605ZM27.4905 29.5428C27.4905 29.7019 27.4905 29.8611 27.4905 30.0251C27.5966 30.0251 27.7027 30.0251 27.812 30.0251C27.812 29.8659 27.812 29.7067 27.812 29.5428C27.7059 29.5428 27.5998 29.5428 27.4905 29.5428ZM9.80654 29.8643C9.75017 30.1362 9.6938 30.4081 9.63573 30.6882C9.58599 30.9999 9.53625 31.3116 9.48501 31.6327C9.21975 31.8979 8.95449 32.1632 8.6812 32.4365C8.57509 32.4896 8.46899 32.5426 8.35967 32.5973C8.30662 32.332 8.25357 32.0667 8.19891 31.7934C8.14585 31.7934 8.0928 31.7934 8.03814 31.7934C8.05804 32.0289 8.07793 32.2643 8.09843 32.5068C8.13159 32.7489 8.16474 32.9909 8.19891 33.2403C8.30501 33.2934 8.41111 33.3464 8.52043 33.4011C8.52043 33.2419 8.52043 33.0828 8.52043 32.9188C8.78569 32.7596 9.05095 32.6005 9.32425 32.4365C9.53645 32.4896 9.74866 32.5426 9.9673 32.5973C10.2856 32.7564 10.6039 32.9156 10.9319 33.0796C11.038 32.8673 11.1441 32.6551 11.2534 32.4365C11.27 32.1746 11.2866 31.9126 11.3036 31.6427C11.2871 31.3742 11.2705 31.1056 11.2534 30.8289C11.0942 30.5636 10.9351 30.2984 10.7711 30.0251C10.2936 29.9455 10.2936 29.9455 9.80654 29.8643ZM25.8828 29.8643C26.042 30.0301 26.2011 30.1959 26.3651 30.3667C26.6038 30.675 26.6038 30.675 26.8474 30.9896C26.8474 31.3079 26.8474 31.6263 26.8474 31.9542C26.5324 31.9675 26.2174 31.9807 25.8929 31.9944C25.5712 31.9811 25.2496 31.9679 24.9182 31.9542C24.8652 32.0603 24.8121 32.1664 24.7575 32.2757C24.9697 32.7002 25.1819 33.1246 25.4005 33.5618C25.6658 33.5088 25.9311 33.4557 26.2043 33.4011C26.526 33.1491 26.8476 32.8971 27.179 32.6375C27.494 32.3589 27.809 32.0804 28.1335 31.7934C28.3457 31.5282 28.5579 31.2629 28.7766 30.9896C28.7766 30.8835 28.7766 30.7774 28.7766 30.6681C28.4582 30.562 28.1399 30.4559 27.812 30.3466C27.5998 30.1874 27.3876 30.0283 27.1689 29.8643C26.7445 29.8643 26.3201 29.8643 25.8828 29.8643ZM2.57221 30.6681C2.51915 30.8273 2.4661 30.9864 2.41144 31.1504C2.30534 31.2565 2.19924 31.3626 2.08992 31.4719C2.30212 31.4719 2.51433 31.4719 2.73297 31.4719C2.78602 31.2067 2.83907 30.9414 2.89373 30.6681C2.78763 30.6681 2.68152 30.6681 2.57221 30.6681ZM3.05449 29.8643C3.04455 30.1196 3.0346 30.3749 3.02435 30.638C3.0343 30.9662 3.04425 31.2945 3.05449 31.6327C3.09428 32.1251 3.09428 32.1251 3.13488 32.6274C3.1614 32.8827 3.18793 33.138 3.21526 33.4011C2.63169 33.1889 2.04812 32.9767 1.44687 32.758C1.44687 33.1824 1.44687 33.6069 1.44687 34.0441C1.75191 34.1469 2.05696 34.2497 2.37125 34.3556C2.86861 34.4402 2.86861 34.4402 3.37602 34.5264C3.58823 34.5795 3.80043 34.6325 4.01907 34.6872C4.44349 34.8994 4.8679 35.1116 5.30517 35.3302C5.69312 35.4164 6.08106 35.5027 6.48075 35.5915C6.71721 35.6294 6.95366 35.6673 7.19728 35.7064C7.61351 35.7589 7.61351 35.7589 8.03814 35.8125C8.3836 35.8459 8.72906 35.8792 9.08499 35.9136C9.6411 35.9581 9.6411 35.9581 10.2084 36.0034C10.7658 36.0404 10.7658 36.0404 11.3344 36.0782C11.679 36.0966 12.0237 36.115 12.3787 36.134C12.6488 36.1442 12.9188 36.1544 13.197 36.1648C13.543 36.1695 13.543 36.1695 13.8959 36.1742C14.2971 36.161 14.6983 36.1477 15.1117 36.134C15.419 36.0789 15.7264 36.0238 16.043 35.967C16.3723 35.916 16.7016 35.865 17.0409 35.8125C17.3223 35.8138 17.6037 35.815 17.8937 35.8163C18.1892 35.8349 18.4847 35.8536 18.7892 35.8728C19.1328 35.8902 19.4763 35.9076 19.8304 35.9256C20.2361 35.9413 20.6419 35.9571 21.0599 35.9733C21.3135 35.9771 21.5671 35.981 21.8284 35.9849C22.2357 35.9879 22.2357 35.9879 22.6512 35.9909C22.9261 35.9916 23.2009 35.9924 23.484 35.9931C23.7584 35.9932 24.0327 35.9933 24.3154 35.9934C24.5841 35.9941 24.8529 35.9948 25.1298 35.9955C25.5088 35.9951 25.5088 35.9951 25.8954 35.9946C26.5258 35.9841 26.5258 35.9841 27.1689 35.9733C27.5668 35.8937 27.5668 35.8937 27.9727 35.8125C27.8136 35.4146 27.8136 35.4146 27.6512 35.0087C27.4921 34.7434 27.3329 34.4782 27.1689 34.2049C26.6915 34.2845 26.6915 34.2845 26.2043 34.3657C25.8287 34.382 25.8287 34.382 25.4455 34.3987C25.0086 34.4075 25.0086 34.4075 24.5628 34.4165C24.2468 34.4233 23.9307 34.43 23.6051 34.4369C23.1112 34.4464 23.1112 34.4464 22.6073 34.4561C22.2743 34.463 21.9412 34.47 21.5981 34.4771C21.1259 34.4869 21.1259 34.4869 20.6442 34.4969C20.2089 34.5055 20.2089 34.5055 19.7648 34.5142C19.5556 34.5182 19.3463 34.5223 19.1308 34.5264C19.343 34.102 19.5552 33.6776 19.7738 33.2403C20.112 32.6932 20.112 32.6932 20.4571 32.1351C20.656 31.8101 20.855 31.4852 21.0599 31.1504C21.0599 31.0443 21.0599 30.9382 21.0599 30.8289C20.7947 30.8819 20.5294 30.935 20.2561 30.9896C20.0439 31.361 19.8317 31.7324 19.6131 32.115C19.7722 31.7967 19.9314 31.4784 20.0954 31.1504C20.0954 31.0443 20.0954 30.9382 20.0954 30.8289C19.8301 30.8289 19.5648 30.8289 19.2915 30.8289C19.0842 31.1484 19.0842 31.1484 18.8727 31.4744C18.7357 31.7521 18.5987 32.0298 18.4576 32.3159C18.2502 32.73 18.2502 32.73 18.0387 33.1524C17.8631 33.5142 17.8631 33.5142 17.6839 33.8834C17.5778 34.0956 17.4717 34.3078 17.3624 34.5264C17.1502 34.6325 16.938 34.7386 16.7193 34.8479C16.348 34.954 15.9766 35.0602 15.594 35.1695C15.1847 35.1854 14.7754 35.2014 14.3537 35.2178C14.1158 35.2193 13.8779 35.2208 13.6327 35.2223C13.3814 35.2215 13.13 35.2206 12.8711 35.2197C12.6132 35.2192 12.3554 35.2186 12.0897 35.218C11.8311 35.2157 11.5725 35.2133 11.3062 35.2109C11.0509 35.2058 10.7957 35.2007 10.5328 35.1954C10.2931 35.1868 10.0535 35.1783 9.80654 35.1695C9.21841 35.1241 9.21841 35.1241 8.6184 35.0778C8.28434 35.0384 7.95028 34.999 7.60609 34.9585C7.317 34.9193 7.02791 34.8801 6.73006 34.8398C6.47206 34.7894 6.21405 34.7391 5.94823 34.6872C5.68856 34.6219 5.4289 34.5566 5.16137 34.4894C4.94357 34.3955 4.72576 34.3016 4.50136 34.2049C4.28915 33.8866 4.07695 33.5683 3.85831 33.2403C3.79531 32.9916 3.73231 32.743 3.6674 32.4867C3.60275 32.064 3.60275 32.064 3.53678 31.6327C3.49699 31.1453 3.49699 31.1453 3.4564 30.648C3.42988 30.3894 3.40335 30.1308 3.37602 29.8643C3.26992 29.8643 3.16381 29.8643 3.05449 29.8643ZM38.4223 30.8289C38.0294 30.9184 38.0294 30.9184 37.6286 31.0097C37.36 31.1092 37.0914 31.2087 36.8147 31.3112C36.4069 31.525 36.4069 31.525 35.9908 31.7432C35.7322 31.9189 35.4735 32.0947 35.2071 32.2757C34.9816 32.4813 34.7561 32.6869 34.5238 32.8987C34.3249 33.1175 34.1259 33.3364 33.921 33.5618C33.7353 33.7906 33.5496 34.0194 33.3583 34.2551C33.2257 34.4508 33.093 34.6464 32.9564 34.8479C32.9564 35.0071 32.9564 35.1663 32.9564 35.3302C33.5134 35.38 33.5134 35.38 34.0817 35.4307C34.7183 35.381 34.7183 35.381 35.3678 35.3302C35.6032 35.1578 35.8387 34.9854 36.0812 34.8078C36.2702 34.6088 36.4592 34.4099 36.6539 34.2049C37.0784 33.9927 37.5028 33.7805 37.94 33.5618C38.1522 33.5088 38.3645 33.4557 38.5831 33.4011C39.0009 33.3812 39.0009 33.3812 39.4271 33.3609C39.7321 33.3741 40.0372 33.3874 40.3515 33.4011C40.7759 33.5602 41.2003 33.7194 41.6376 33.8834C42.0355 34.2017 42.0355 34.2017 42.4414 34.5264C42.7067 34.4734 42.9719 34.4203 43.2452 34.3657C43.4044 34.2596 43.5635 34.1535 43.7275 34.0441C43.5683 33.6462 43.5683 33.6462 43.406 33.2403C43.2402 33.0281 43.0744 32.8159 42.9036 32.5973C42.698 32.3851 42.4924 32.1728 42.2806 31.9542C42.0684 31.8017 41.8562 31.6492 41.6376 31.492C41.4254 31.3793 41.2132 31.2665 40.9945 31.1504C40.6232 31.0443 40.2518 30.9382 39.8692 30.8289C39.3917 30.8289 38.9143 30.8289 38.4223 30.8289ZM1.60763 31.6327C1.55458 31.8449 1.50153 32.0571 1.44687 32.2757C1.84475 32.594 1.84475 32.594 2.25068 32.9188C2.46289 32.9188 2.67509 32.9188 2.89373 32.9188C2.89373 32.8127 2.89373 32.7066 2.89373 32.5973C2.62847 32.5442 2.36321 32.4912 2.08992 32.4365C2.03687 32.1712 1.98381 31.906 1.92915 31.6327C1.82305 31.6327 1.71695 31.6327 1.60763 31.6327ZM90.6703 31.4719C90.3716 31.5397 90.073 31.6075 89.7653 31.6773C89.2136 31.8094 89.2136 31.8094 88.6507 31.9442C88.0983 32.0757 88.0983 32.0757 87.5348 32.2098C87.2432 32.2846 86.9516 32.3594 86.6512 32.4365C86.5981 32.4896 86.5451 32.5426 86.4904 32.5973C86.4606 33.025 86.4307 33.4527 86.4 33.8934C86.3768 34.3145 86.3536 34.7356 86.3297 35.1695C86.9663 35.0899 86.9663 35.0899 87.6158 35.0087C87.8508 34.926 88.0858 34.8433 88.3279 34.7581C88.5637 34.6585 88.7996 34.5588 89.0425 34.4561C89.4736 34.2671 89.9046 34.0781 90.3487 33.8834C90.4548 33.7773 90.5609 33.6712 90.6703 33.5618C90.7764 33.1374 90.8825 32.713 90.9918 32.2757C90.9918 32.0105 90.9918 31.7452 90.9918 31.4719C90.8857 31.4719 90.7796 31.4719 90.6703 31.4719ZM83.2752 32.4365C83.0099 32.7018 82.7447 32.967 82.4714 33.2403C82.3752 33.4492 82.279 33.6581 82.18 33.8733C82.117 34.1419 82.054 34.4105 81.9891 34.6872C81.9791 35.0884 81.9692 35.4896 81.9589 35.903C81.9689 36.2445 81.9788 36.586 81.9891 36.9379C82.2543 36.8848 82.5196 36.8318 82.7929 36.7771C82.7929 36.9363 82.7929 37.0954 82.7929 37.2594C82.5807 37.2063 82.3685 37.1533 82.1498 37.0986C82.2029 37.3639 82.2559 37.6291 82.3106 37.9024C82.5228 38.1677 82.735 38.433 82.9536 38.7063C83.1658 38.7593 83.3781 38.8124 83.5967 38.867C83.862 38.7079 84.1272 38.5487 84.4005 38.3847C84.6127 38.0134 84.8249 37.642 85.0436 37.2594C85.0966 36.9941 85.1497 36.7289 85.2043 36.4556C85.2209 36.124 85.2375 35.7924 85.2546 35.4508C85.2297 34.9137 85.2297 34.9137 85.2043 34.3657C85.0601 33.9578 85.0601 33.9578 84.9129 33.5417C84.7969 33.3362 84.6808 33.1306 84.5613 32.9188C84.4021 32.7596 84.243 32.6005 84.079 32.4365C83.8137 32.4365 83.5485 32.4365 83.2752 32.4365ZM8.52043 33.4011C8.6812 33.7226 8.6812 33.7226 8.6812 33.7226L8.52043 33.4011ZM80.3814 33.2403C80.1293 33.2736 79.8771 33.3068 79.6173 33.3411C79.1208 33.4103 79.1208 33.4103 78.6143 33.4808C78.2556 33.5309 77.8969 33.5809 77.5273 33.6325C77.1495 33.6854 76.7717 33.7384 76.3825 33.7929C75.8176 33.8714 75.8176 33.8714 75.2414 33.9515C74.7027 34.0269 74.7027 34.0269 74.1531 34.1038C73.6561 34.1732 73.6561 34.1732 73.1491 34.2441C72.8832 34.2842 72.6173 34.3243 72.3433 34.3657C72.1311 34.4187 71.9189 34.4718 71.7002 34.5264C71.6074 34.9376 71.5146 35.3487 71.4189 35.7723C71.3526 36.21 71.2863 36.6477 71.218 37.0986C71.218 37.3639 71.218 37.6291 71.218 37.9024C71.604 37.8384 71.9901 37.7744 72.3879 37.7084C72.6367 37.667 72.8854 37.6257 73.1418 37.5831C73.5373 37.5174 73.5373 37.5174 73.9409 37.4503C74.3206 37.3873 74.3206 37.3873 74.708 37.3231C74.9603 37.2812 75.2126 37.2392 75.4725 37.196C75.8517 37.1324 75.8517 37.1324 76.2386 37.0675C76.4916 37.0247 76.7447 36.9819 77.0054 36.9379C77.2661 36.8936 77.5269 36.8494 77.7955 36.8039C78.1657 36.7399 78.1657 36.7399 78.5433 36.6747C78.9377 36.6024 79.3321 36.5301 79.7384 36.4556C79.8445 36.4025 79.9506 36.3495 80.0599 36.2948C80.229 35.7129 80.229 35.7129 80.4015 35.1192C80.501 34.7114 80.6005 34.3036 80.703 33.8834C80.703 33.6712 80.703 33.459 80.703 33.2403C80.5969 33.2403 80.4908 33.2403 80.3814 33.2403ZM8.6812 33.7226C8.73425 33.8287 8.7873 33.9348 8.84196 34.0441C9.00111 33.9911 9.16027 33.938 9.32425 33.8834C9.11204 33.8303 8.89983 33.7773 8.6812 33.7226ZM71.218 34.5264C70.9064 34.5609 70.5948 34.5953 70.2738 34.6308C69.6494 34.7168 69.6494 34.7168 69.0125 34.8046C68.5537 34.8675 68.0949 34.9304 67.6221 34.9952C67.1376 35.0627 66.6531 35.1301 66.1539 35.1996C65.6843 35.264 65.2147 35.3283 64.7309 35.3946C64.2671 35.4585 63.8033 35.5225 63.3255 35.5883C62.8688 35.6524 62.412 35.7166 61.9414 35.7826C61.2812 35.877 61.2812 35.877 60.6076 35.9733C60.1873 36.0348 59.7671 36.0962 59.3341 36.1596C58.9536 36.2168 58.5731 36.2741 58.1811 36.3331C57.8451 36.384 57.509 36.4348 57.1628 36.4872C56.799 36.5511 56.799 36.5511 56.4278 36.6163C56.3747 36.6694 56.3217 36.7224 56.267 36.7771C56.214 37.1485 56.1609 37.5198 56.1062 37.9024C56.0532 38.3269 56.0001 38.7513 55.9455 39.1885C55.9156 39.4538 55.8858 39.7191 55.8551 39.9924C55.8318 40.2046 55.8086 40.4168 55.7847 40.6354C56.2687 40.5561 56.2687 40.5561 56.7625 40.4753C57.2257 40.3988 57.6888 40.3223 58.166 40.2435C58.4175 40.2017 58.6691 40.1599 58.9282 40.1169C59.1972 40.0718 59.4663 40.0268 59.7435 39.9804C60.033 39.9316 60.3225 39.8829 60.6208 39.8326C60.9347 39.7792 61.2487 39.7258 61.5722 39.6708C61.9222 39.6106 62.2722 39.5504 62.6328 39.4883C62.999 39.4248 63.3652 39.3613 63.7425 39.2959C64.1102 39.2317 64.4778 39.1674 64.8566 39.1012C65.2217 39.0372 65.5868 38.9732 65.963 38.9072C66.3216 38.8447 66.6802 38.7823 67.0496 38.7179C67.3867 38.6585 67.7238 38.5991 68.0711 38.538C68.3719 38.4852 68.6727 38.4324 68.9825 38.378C69.2428 38.3272 69.503 38.2763 69.7711 38.224C70.1424 38.1179 70.5138 38.0118 70.8964 37.9024C70.9959 37.604 71.0954 37.3056 71.1979 36.9981C71.2874 36.4908 71.2874 36.4908 71.3787 35.9733C71.4318 35.5489 71.4848 35.1245 71.5395 34.6872C71.3803 34.6076 71.3803 34.6076 71.218 34.5264ZM55.3024 36.7771C55.0372 36.8302 54.7719 36.8832 54.4986 36.9379C54.3755 37.2854 54.3755 37.2854 54.2499 37.6399C54.1861 37.9321 54.1223 38.2243 54.0565 38.5254C53.991 38.8168 53.9255 39.1081 53.8581 39.4083C53.8042 39.6541 53.7503 39.8999 53.6948 40.1531C53.6152 40.3919 53.6152 40.3919 53.534 40.6354C53.1428 40.7363 52.7515 40.8373 52.3484 40.9412C52.1001 40.9948 51.8519 41.0484 51.5961 41.1036C51.3337 41.158 51.0714 41.2124 50.8011 41.2684C50.4225 41.3491 50.4225 41.3491 50.0362 41.4314C49.6588 41.512 49.6588 41.512 49.2738 41.5943C49.0224 41.6476 48.7711 41.7008 48.5121 41.7556C48.1332 41.8377 48.1332 41.8377 47.7466 41.9215C47.4824 41.9823 47.2181 42.043 46.9459 42.1056C46.6962 42.1644 46.4465 42.2232 46.1892 42.2839C45.8012 42.3765 45.4133 42.4691 45.0136 42.5646C45.0667 42.4054 45.1197 42.2463 45.1744 42.0823C45.2042 41.8236 45.2341 41.565 45.2648 41.2986C45.288 40.9736 45.3112 40.6487 45.3351 40.3139C45.3699 39.7419 45.3699 39.7419 45.4055 39.1584C45.3823 38.85 45.359 38.5417 45.3351 38.224C45.0168 38.224 44.6985 38.224 44.3706 38.224C44.344 38.5624 44.3175 38.9008 44.2902 39.2495C44.3167 39.6836 44.3432 40.1178 44.3706 40.5651C44.3904 40.9996 44.4103 41.4342 44.4308 41.8819C44.517 42.2133 44.6033 42.5447 44.6921 42.8861C45.0512 42.8871 45.0512 42.8871 45.4176 42.8882C45.7087 42.8344 45.9998 42.7807 46.2997 42.7253C46.547 42.678 46.7942 42.6307 47.049 42.5819C47.3014 42.5252 47.5537 42.4685 47.8138 42.4101C48.2357 42.3162 48.2357 42.3162 48.6663 42.2204C48.9563 42.1549 49.2463 42.0895 49.5451 42.022C49.832 41.9577 50.1189 41.8935 50.4145 41.8273C50.6969 41.7643 50.9793 41.7013 51.2702 41.6364C51.5444 41.5751 51.8187 41.5138 52.1012 41.4507C52.3618 41.3938 52.6225 41.337 52.891 41.2785C53.3513 41.1869 53.8115 41.0953 54.2857 41.0009C54.6212 40.9333 54.9568 40.8658 55.3024 40.7962C55.4616 40.7166 55.4616 40.7166 55.624 40.6354C55.6691 40.3517 55.7143 40.068 55.7609 39.7757C55.8224 39.2414 55.8224 39.2414 55.8852 38.6962C55.9271 38.3396 55.9689 37.9829 56.012 37.6155C56.0431 37.3388 56.0742 37.0621 56.1062 36.7771C55.841 36.7771 55.5757 36.7771 55.3024 36.7771ZM52.7302 37.0986C52.4577 37.106 52.1852 37.1133 51.9044 37.1208C51.4627 37.1415 51.4627 37.1415 51.0121 37.1627C50.6906 37.1847 50.3691 37.2068 50.0379 37.2295C49.7062 37.2592 49.3744 37.289 49.0327 37.3197C48.6998 37.3542 48.367 37.3887 48.024 37.4243C47.708 37.4727 47.392 37.521 47.0665 37.5709C46.7773 37.6368 46.4881 37.7027 46.1902 37.7706C45.8465 37.9154 45.8465 37.9154 45.4959 38.0632C45.3274 38.3915 45.1589 38.7197 44.9853 39.0579C44.9781 39.4392 44.9708 39.8205 44.9634 40.2134C45.0137 40.5926 45.0641 40.9719 45.116 41.3626C45.1883 41.6531 45.2606 41.9437 45.3351 42.243C45.9369 42.1137 45.9369 42.1137 46.5509 41.9818C46.8249 41.9217 47.0988 41.8616 47.3811 41.7997C47.7139 41.7338 48.0467 41.6679 48.3896 41.6C48.8153 41.5374 49.2409 41.4748 49.6795 41.4103C50.3491 41.3053 50.3491 41.3053 51.0322 41.1981C51.4597 41.1367 51.8872 41.0754 52.3277 41.0122C52.8453 40.8257 52.8453 40.8257 53.3733 40.6354C53.5252 40.3246 53.6771 40.0137 53.8336 39.6934C53.8939 39.3677 53.9542 39.0419 54.0163 38.7063C54.0561 38.4012 54.0959 38.0962 54.1369 37.7819C54.1502 37.5564 54.1634 37.3309 54.1771 37.0986C53.6996 37.0986 53.2222 37.0986 52.7302 37.0986ZM38.7439 37.9024C38.3194 38.0616 37.895 38.2207 37.4577 38.3847C37.2853 38.5505 37.1129 38.7163 36.9353 38.8871C36.7894 39.0927 36.6435 39.2983 36.4932 39.5101C36.3705 39.7587 36.2478 40.0074 36.1214 40.2636C35.9871 40.6068 35.9871 40.6068 35.8501 40.9569C35.7971 41.1691 35.744 41.3813 35.6894 41.6C35.6645 42.1222 35.6645 42.1222 35.6391 42.655C35.6557 43.0496 35.6723 43.4441 35.6894 43.8507C35.7822 44.1723 35.875 44.4939 35.9707 44.8253C36.0901 45.0872 36.2094 45.3492 36.3324 45.6191C36.5446 45.8843 36.7568 46.1496 36.9755 46.4229C37.3468 46.582 37.7182 46.7412 38.1008 46.9052C38.6578 46.8256 38.6578 46.8256 39.2261 46.7444C39.5445 46.5322 39.8628 46.32 40.1907 46.1013C40.3333 45.9024 40.4759 45.7035 40.6228 45.4985C40.7455 45.273 40.8681 45.0475 40.9945 44.8152C41.1537 44.3908 41.3128 43.9664 41.4768 43.5291C41.5141 43.1642 41.5141 43.1642 41.5522 42.7919C41.5538 42.5378 41.5555 42.2838 41.5572 42.022C41.5526 41.7551 41.5481 41.4882 41.5434 41.2132C41.5104 40.8476 41.5104 40.8476 41.4768 40.4746C41.3641 40.163 41.2514 39.8513 41.1352 39.5302C40.9827 39.3113 40.8302 39.0925 40.673 38.867C40.3547 38.6018 40.0364 38.3365 39.7084 38.0632C39.231 37.9836 39.231 37.9836 38.7439 37.9024ZM6.10899 39.8316C6.0261 40.14 5.9432 40.4483 5.8578 40.766C5.94069 41.0943 6.02358 41.4225 6.10899 41.7607C6.30897 41.8347 6.50895 41.9087 6.71499 41.9849C6.97921 42.0237 7.24343 42.0624 7.51566 42.1024C7.95303 42.1418 7.95303 42.1418 8.39923 42.1821C8.70449 42.2022 9.00974 42.2223 9.32425 42.243C9.6179 42.2747 9.91155 42.3064 10.2141 42.3391C10.4941 42.3704 10.774 42.4017 11.0625 42.4339C11.3188 42.4594 11.5752 42.4849 11.8393 42.5112C12.1859 42.5376 12.1859 42.5376 12.5395 42.5646C12.9109 42.5646 13.2822 42.5646 13.6648 42.5646C13.7179 42.4585 13.7709 42.3524 13.8256 42.243C13.8057 41.9745 13.7858 41.7059 13.7653 41.4292C13.7322 41.1672 13.699 40.9053 13.6648 40.6354C13.5853 40.5558 13.5853 40.5558 13.5041 40.4746C12.7966 40.3972 12.7966 40.3972 12.0748 40.3183C11.7816 40.2898 11.4883 40.2613 11.1862 40.2319C10.7221 40.1879 10.7221 40.1879 10.2486 40.1431C9.94172 40.1131 9.63481 40.0832 9.31859 40.0523C9.02453 40.024 8.73047 39.9958 8.42749 39.9666C8.15659 39.9407 7.88568 39.9148 7.60656 39.8881C7.26315 39.8601 7.26315 39.8601 6.9128 39.8316C6.64754 39.8316 6.38229 39.8316 6.10899 39.8316Z" fill="#40536C"/>
</svg>
