<svg width="213" height="50" viewBox="0 0 213 50" fill="none" xmlns="http://www.w3.org/2000/svg">
<path fill-rule="evenodd" clip-rule="evenodd" d="M45.1857 6.10679C46.1345 6.09618 47.8954 6.15058 49.1003 6.22622C50.3052 6.30186 52.1551 6.48499 53.214 6.63361C54.273 6.78091 55.8242 7.04233 56.6642 7.21351C57.5042 7.38469 58.5777 7.62355 59.0528 7.74431C59.5279 7.86507 60.9305 8.29103 62.1713 8.69179C63.412 9.09254 64.3966 9.4442 64.3608 9.47206C64.325 9.50126 63.907 9.40439 63.4319 9.25576C62.9568 9.10847 61.7333 8.786 60.7116 8.53918C59.6898 8.29236 58.1372 7.96857 57.2614 7.81862C56.3855 7.67 54.8621 7.45635 53.8775 7.34356C52.8929 7.23209 50.7723 7.10337 49.1667 7.05958C47.3779 7.01048 45.3728 7.03967 43.9914 7.13787C42.7506 7.22413 41.0494 7.38337 40.2094 7.48953C39.3694 7.59701 37.9668 7.80403 37.091 7.95132C36.2151 8.09862 34.4237 8.48345 33.11 8.80591C31.7962 9.1297 30.0645 9.6114 29.2617 9.87812C28.4588 10.1435 27.0708 10.6531 26.1764 11.0114C25.282 11.3683 23.7745 12.0491 22.8257 12.5228C21.8769 12.9966 20.4889 13.7609 19.7405 14.2187C18.992 14.6766 17.7831 15.4966 17.0533 16.0394C16.3234 16.5821 14.9765 17.7751 14.0596 18.6894C12.9316 19.816 12.1102 20.7807 11.5131 21.6791C11.0287 22.409 10.3825 23.5436 10.0759 24.2004C9.76938 24.8573 9.36996 25.9614 9.18948 26.6554C8.92939 27.6506 8.85773 28.2664 8.84712 29.5748C8.84048 30.5116 8.91081 31.5799 9.01034 32.0297C9.10721 32.4676 9.30759 33.1842 9.45621 33.6221C9.60351 34.06 9.90341 34.7766 10.1224 35.2145C10.34 35.6524 10.8058 36.4287 11.1561 36.9396C11.5064 37.4505 12.3796 38.4378 13.0962 39.1345C13.8127 39.8298 14.9075 40.7362 15.5272 41.1462C16.1469 41.5576 17.312 42.2224 18.1149 42.6245C18.9177 43.0266 20.112 43.5428 20.7689 43.771C21.4257 43.9993 22.5298 44.3283 23.2238 44.5035C23.9178 44.6773 24.8083 44.8684 25.9229 45.0343L25.6788 44.5699C25.5434 44.3138 25.3696 43.7803 25.148 42.663L23.8873 42.4334C23.1933 42.3073 22.2976 42.0857 21.8968 41.9424C21.4961 41.7991 20.9042 41.5695 20.5844 41.4342C20.2168 41.2776 19.9249 41.0387 19.7949 40.7879C19.6316 40.4761 19.5812 39.8617 19.56 37.9349C19.5454 36.584 19.5732 34.8828 19.621 34.1529C19.7046 32.8671 19.7179 32.8246 20.039 32.7781C20.3628 32.7304 20.3695 32.7463 20.2381 34.068L21.167 34.1383C21.6779 34.1781 24.0373 34.2432 26.4086 34.2843C28.7813 34.3254 31.9754 34.417 33.5081 34.4886C35.0408 34.559 37.4585 34.7089 38.8824 34.8217C40.3063 34.9332 42.6949 35.1654 44.1904 35.3379C45.6859 35.5104 46.9997 35.6551 47.1098 35.6604C47.22 35.6657 48.0852 35.8011 49.034 35.9616C49.9828 36.1222 50.6993 36.2761 50.6264 36.3013C50.5534 36.3279 49.4493 36.2005 48.1714 36.02C46.8948 35.8382 44.7146 35.5715 43.3279 35.4255C41.9412 35.2795 39.4636 35.0699 37.8208 34.9584C36.1793 34.8483 33.3117 34.6983 31.4512 34.6253C29.5908 34.5537 26.2905 34.4475 20.1704 34.2856V35.5463C20.1704 36.2403 20.2062 37.075 20.3296 38.0012L22.5404 38.11C23.756 38.1684 24.9741 38.2733 25.2475 38.3423C25.6642 38.4458 25.8048 38.4219 26.1101 38.1963C26.3184 38.0424 26.6754 37.9269 26.9394 37.9296C27.2115 37.9322 27.6242 38.0782 27.9347 38.2812C28.2916 38.5148 28.5623 38.6023 28.764 38.5466C28.9286 38.5028 32.3323 38.6183 36.3279 38.8054C40.3235 38.9912 44.4744 39.1849 47.5079 39.3282L47.5583 36.8069L47.707 39.3282L55.4036 39.6892L55.6013 39.376C55.7088 39.2035 56.1055 38.7337 56.4824 38.333C57.0358 37.7425 57.3423 37.5421 58.0775 37.2846C58.8246 37.0219 59.1629 36.9768 59.9817 37.0272C60.6479 37.0697 61.2185 37.1984 61.7068 37.4187C62.1076 37.6005 62.7273 38.0145 63.0829 38.3396C63.4385 38.6647 63.8552 39.1093 64.0105 39.3282C64.1657 39.5472 63.9348 39.3773 63.4969 38.9513C63.0391 38.5055 62.3371 37.9986 61.8422 37.757C61.0712 37.3815 60.8602 37.3377 59.7853 37.3377C58.7781 37.3377 58.4729 37.3921 57.8585 37.6788C57.4471 37.8712 56.8221 38.3343 56.4267 38.7404C56.0405 39.1371 55.7273 39.5352 55.73 39.6268C55.7327 39.7197 55.9848 39.8285 56.2993 39.8749C56.7889 39.9466 56.9416 39.9028 57.4604 39.5405C57.7895 39.311 58.3561 39.0588 58.7211 38.9792C59.2001 38.8744 59.5876 38.8744 60.1144 38.9779C60.5497 39.0641 61.1654 39.3309 61.6405 39.6387C62.0784 39.9227 62.653 40.4469 62.917 40.8038C63.1811 41.1595 63.5049 41.6598 63.6363 41.9159C63.7676 42.172 64.0397 42.8872 64.2401 43.5083C64.5678 44.5208 64.6435 44.6442 64.9805 44.7145C65.1875 44.757 66.4017 44.8366 67.6783 44.8897C69.0119 44.9454 71.2997 44.9255 73.0527 44.8419C74.7313 44.7623 76.97 44.6097 78.0289 44.5022C79.0878 44.3947 80.1627 44.2474 80.4175 44.1757C80.6723 44.1054 80.8979 44.0603 80.9178 44.0762C80.9364 44.0921 80.7877 44.27 80.586 44.4717C80.3312 44.7264 79.8933 44.9242 79.1568 45.1166C78.573 45.2705 77.9015 45.4337 77.6653 45.4802C77.3097 45.5505 77.1916 45.6686 76.9912 46.1623C76.8572 46.4914 76.5427 46.9943 76.2932 47.2796C76.0358 47.5742 75.5103 47.9484 74.3226 48.4845L75.6788 48.6597C76.4232 48.7565 77.6613 48.9516 78.427 49.0949C79.1927 49.2369 79.9265 49.3975 80.0566 49.4506C80.1853 49.5023 77.319 49.5315 73.687 49.5129C72.6362 49.5079 70.3571 49.5015 67.3452 49.4943C67.3366 49.4943 64.7576 47.5065 64.7576 47.5065C65.4874 47.6392 70.0892 48.0699 70.6627 48.1036C70.1319 47.5065 69.7174 47.24 69.5348 46.9093C69.1473 46.7332 68.313 46.6926 67.4116 46.6439C66.6148 46.6009 65.7365 46.5424 65.4874 46.5112C65.023 46.2458 64.8033 47.5066 64.7576 47.5065L66.0514 48.5004L67.3452 49.4943C59.9168 49.4768 47.9021 49.4539 39.2142 49.4373L40.8052 45.9804C42.663 45.9804 46.1132 46.2551 48.8336 46.4449C51.6866 46.6439 55.0705 46.843 56.5302 46.9757C56.3975 46.5776 56.2648 46.2458 56.1321 45.8477C55.9994 45.7814 48.7009 45.1179 47.7056 44.9852C47.7056 44.9852 43.99 44.5871 42.9284 44.4544C41.9995 45.516 40.9301 45.8466 40.009 45.715C38.6137 45.5157 38.4486 44.9343 38.0185 44.4544C37.9854 44.3549 37.9387 44.2948 37.8858 44.189C37.8227 44.1089 37.6868 43.9899 37.5541 43.9899C35.9617 43.6582 32.3788 43.3928 31.3835 43.3928C30.8991 43.3928 30.6296 45.3167 30.4546 45.3169C29.8536 45.3176 37.8858 45.715 40.8052 45.9804L39.2142 49.4373C23.2685 49.402 21.3473 49.3541 20.3044 49.1692C19.6104 49.0458 18.3577 48.791 17.5177 48.6026C16.6777 48.4142 15.2751 48.0227 14.3993 47.7321C13.5235 47.4402 12.0611 46.8457 11.1481 46.4104C10.2365 45.9738 8.83252 45.179 8.02969 44.6428C7.22685 44.1067 6.12279 43.2853 5.57474 42.8169C5.02801 42.3485 4.24376 41.5815 3.83372 41.1117C3.425 40.6419 2.80529 39.8391 2.45762 39.3282C2.11127 38.8173 1.63355 38.0105 1.39734 37.5368C1.16114 37.063 0.841332 36.2854 0.686073 35.8117C0.532141 35.3379 0.314513 34.5165 0.203045 33.987C0.088923 33.4456 1.42407e-05 32.3442 1.42407e-05 31.4657C-0.00131276 30.5753 0.09025 29.4222 0.212334 28.7786C0.330437 28.1575 0.577259 27.2021 0.760385 26.6554C0.943511 26.1073 1.38275 25.0935 1.73573 24.3995C2.09004 23.7055 2.71107 22.6611 3.11713 22.0772C3.5232 21.4933 4.28755 20.518 4.81437 19.9102C5.34251 19.3025 6.22231 18.4028 6.76904 17.9104C7.31709 17.4181 8.30172 16.598 8.95859 16.0885C9.61545 15.5789 10.6014 14.861 11.1481 14.4934C11.6962 14.1258 12.8002 13.4464 13.6031 12.9846C14.4059 12.5215 15.7196 11.8301 16.5225 11.4493C17.3253 11.0671 18.6098 10.5045 19.3755 10.1993C20.1412 9.89405 21.7243 9.32079 22.8921 8.92534C24.0598 8.52857 25.075 8.21009 25.148 8.21539C25.221 8.2207 24.8335 8.39321 24.2854 8.5989C23.7387 8.80458 22.693 9.22657 21.9632 9.53709C21.2333 9.84628 20.0695 10.385 19.3755 10.7327C18.6815 11.0817 17.6066 11.659 16.9869 12.0186C16.3672 12.3769 15.3507 13.0072 14.731 13.4212C14.1113 13.8339 13.0962 14.5717 12.4751 15.0614C11.8554 15.5497 10.6014 16.7029 9.68844 17.6212C8.77679 18.5408 7.62628 19.8585 7.13396 20.5525C6.64164 21.2452 5.9118 22.4687 5.51237 23.2715C5.11427 24.0744 4.6392 25.1784 4.4574 25.7265C4.27693 26.2732 4.03675 27.2884 3.92395 27.9824C3.80983 28.6764 3.71827 29.6464 3.71694 30.1387C3.71694 30.6311 3.78064 31.4976 3.85893 32.0629C3.93722 32.6282 4.18006 33.6288 4.39769 34.2856C4.61664 34.9425 5.04526 35.9483 5.35047 36.5203C5.65701 37.0935 6.27274 38.049 6.71861 38.6435C7.16581 39.2393 7.9421 40.1151 8.44371 40.5915C8.94664 41.0666 9.80521 41.7964 10.3519 42.2105C10.9 42.6258 12.0346 43.357 12.8732 43.8374C13.7132 44.3164 15.011 44.9467 15.7595 45.2373C16.5079 45.5266 17.1939 45.7628 17.2855 45.7615C17.3771 45.7615 16.8848 45.5014 16.1907 45.1856C15.4967 44.8711 14.4524 44.3283 13.8685 43.9833C13.2846 43.637 12.3597 43.0199 11.8116 42.6112C11.2649 42.2038 10.2179 41.2683 9.4854 40.5331C8.75423 39.7966 7.81737 38.6886 7.40334 38.0676C6.99065 37.4465 6.43198 36.4619 6.1626 35.878C5.89322 35.2941 5.52962 34.2498 5.35578 33.5558C5.18195 32.8617 5.00413 31.7577 4.95901 31.1008C4.91124 30.4068 4.94441 29.4062 5.03863 28.7122C5.12754 28.0554 5.34517 27.011 5.52431 26.39C5.70213 25.7689 6.12013 24.6954 6.45321 24.0014C6.78761 23.3074 7.36088 22.2922 7.72978 21.7455C8.09736 21.1974 8.77015 20.3017 9.22399 19.755C9.67782 19.2069 10.5789 18.2608 11.2291 17.649C11.878 17.0386 13.0165 16.0832 13.7583 15.5258C14.5001 14.9698 15.725 14.1272 16.4787 13.6561C17.2324 13.1837 18.7452 12.3477 19.84 11.797C20.9348 11.2463 22.4873 10.535 23.2902 10.2165C24.093 9.89803 25.6151 9.35131 26.674 9.00098C27.733 8.65065 29.3148 8.18355 30.1906 7.96327C31.0664 7.74298 32.5898 7.41123 33.5744 7.22545C34.5591 7.03835 36.3213 6.76499 37.4891 6.61636C38.6568 6.46774 40.4775 6.29655 41.5364 6.23551C42.5954 6.1758 44.2369 6.11741 45.1857 6.10679ZM49.8302 20.7237L48.1714 20.8285C47.2598 20.8869 43.2283 21.2956 39.2142 21.7388C35.2 22.1807 31.767 22.5364 31.5839 22.5284C31.4021 22.5191 32.3868 22.3718 33.7735 22.198C35.1602 22.0241 37.9071 21.7017 39.8777 21.4801C41.8483 21.2598 44.2966 20.9957 45.3184 20.8962C46.3402 20.7967 47.7733 20.7157 49.8302 20.7237ZM49.8302 23.1189L47.9724 23.2715L47.8078 24.2004L47.764 23.7957C47.7388 23.5635 47.7999 23.3233 47.906 23.2317C48.0162 23.1375 48.4434 23.0818 49.8302 23.1189ZM50.9581 23.1176C51.5062 23.1176 51.7145 23.1402 51.4226 23.1693C51.1306 23.1972 50.6821 23.1972 50.4273 23.1693C50.1725 23.1402 50.4114 23.1176 50.9581 23.1176ZM54.683 23.4706H55.4407C55.8587 23.4719 57.0358 23.5316 58.0576 23.6046C59.0793 23.6789 60.7222 23.8315 61.7068 23.947C62.6914 24.0611 63.976 24.2429 64.5599 24.3504C65.1437 24.4579 65.7104 24.5707 65.8205 24.6025C65.9306 24.6344 66.9219 25.6309 68.0233 26.8186C69.1261 28.0063 70.5712 29.6053 71.2373 30.371C71.9035 31.1367 72.4343 31.7776 72.4184 31.7935C72.4024 31.8094 71.5823 31.767 70.5977 31.702C69.6131 31.6356 67.0148 31.544 64.8252 31.4989C62.6357 31.4538 60.8137 31.4657 60.7779 31.5241C60.7421 31.5838 60.4435 31.5958 60.1144 31.552C59.7468 31.5029 59.6566 31.4644 59.8822 31.4525C60.0826 31.4419 60.2471 31.4021 60.2471 31.3662C60.2471 31.3304 59.5464 30.2993 58.6905 29.0771C57.8346 27.855 56.5833 26.0927 55.9091 25.1625L54.683 23.4706ZM45.6169 23.8846C45.7815 23.8766 46.0044 23.9576 46.1146 24.0677C46.2234 24.1765 46.3136 24.4008 46.3123 24.5654C46.3123 24.7299 46.0787 26.3263 45.7934 28.1151C45.5081 29.9039 45.2175 31.5148 45.1459 31.698C45.0755 31.8798 44.9057 32.1266 44.769 32.2447C44.546 32.4398 43.365 32.465 20.7702 32.5605L20.81 32.0297C20.8312 31.7378 20.9334 30.9615 21.0356 30.3046C21.1391 29.6478 21.3554 28.5437 21.5173 27.8497C21.7256 26.9566 21.9114 26.4815 22.1529 26.2188C22.4781 25.8671 22.5869 25.8406 24.4845 25.6628C25.5793 25.5593 29.7593 25.2023 33.7735 24.8679C37.7876 24.5348 42.0274 24.1805 43.1952 24.081C44.3629 23.9828 45.4524 23.8939 45.6169 23.8846ZM50.069 23.87C50.7405 23.87 51.6176 23.9218 52.0197 23.9855C52.4205 24.0491 52.9579 24.1951 53.214 24.3119C53.5192 24.4499 53.977 24.9197 54.5556 25.688C55.0386 26.3303 55.8746 27.4954 56.4134 28.2796C57.0451 29.1979 57.4286 29.6464 57.4909 29.5403C57.5533 29.4368 57.5891 29.4859 57.5905 29.6743C57.5918 29.8388 57.7868 30.302 58.0244 30.704C58.4092 31.3569 58.5047 31.4366 58.9201 31.4538C59.3009 31.4684 59.3195 31.4803 59.0196 31.5188C58.8047 31.5467 58.6746 31.6343 58.7025 31.7311C58.729 31.8227 58.9586 32.2261 59.212 32.6269C59.6115 33.2598 59.7827 33.4005 60.4913 33.6885C60.9411 33.8703 61.2941 34.0308 61.2755 34.0454C61.257 34.0587 60.555 33.8742 59.7163 33.6341C58.8763 33.3939 58.0257 33.159 57.8253 33.1112C57.5108 33.0369 57.4578 33.0674 57.4471 33.3235C57.4339 33.6128 57.4312 33.6128 57.3476 33.2997C57.2746 33.0303 57.1074 32.9387 56.3325 32.7423C55.8216 32.6136 55.105 32.4716 54.7401 32.4265C54.3751 32.38 53.8072 32.2593 53.4794 32.1558C53.1503 32.0536 52.1657 31.8147 51.2899 31.6276C50.414 31.4392 49.5634 31.199 49.3989 31.0942C49.2343 30.988 49.0101 30.7226 48.9013 30.5037C48.7911 30.2847 48.6438 29.523 48.5722 28.8117C48.5018 28.1005 48.4355 26.8292 48.4275 25.9879C48.4143 24.7578 48.4541 24.4008 48.6292 24.1633C48.8269 23.8965 48.9596 23.8687 50.069 23.87ZM47.2067 32.4278C47.2346 32.7198 47.2346 33.167 47.2067 33.4231C47.1775 33.6792 47.1536 33.439 47.1536 32.8923C47.1536 32.3442 47.1775 32.1359 47.2067 32.4278ZM72.5219 32.2394L72.9863 32.2447C73.2411 32.246 73.6896 32.3588 74.5124 32.7397L73.9816 32.7436C73.6896 32.7463 73.2411 32.6335 72.9863 32.4942L72.5219 32.2394ZM57.2932 34.4847C57.3197 34.8854 57.3197 35.5728 57.2932 36.0107C57.2667 36.4486 57.2454 36.1195 57.2454 35.2809C57.2454 34.4409 57.2667 34.0826 57.2932 34.4847ZM67.1143 34.8735C67.2789 34.9518 67.4421 35.0752 67.4792 35.1482C67.5151 35.2212 67.7393 35.314 67.9769 35.3552C68.2144 35.3963 69.0717 35.6206 69.8838 35.8528C71.0184 36.1779 71.3461 36.3212 71.301 36.4752C71.2678 36.584 71.5293 37.3244 71.8809 38.118C72.2339 38.9129 72.567 39.5843 72.6214 39.6109C72.6758 39.6374 72.7209 39.7038 72.7196 39.7595C72.7196 39.8139 72.5258 39.8431 72.2883 39.8232C72.0521 39.8046 71.1113 39.7064 70.1996 39.6069C68.9615 39.4715 68.3723 39.3415 67.8773 39.096C67.5124 38.9142 66.9193 38.475 66.5596 38.118C66.2 37.761 65.6759 37.1121 65.3945 36.6742C65.1145 36.2363 64.8996 35.7798 64.9168 35.6591C64.9341 35.5396 65.0256 35.4056 65.1185 35.3605C65.2127 35.3167 65.782 35.2795 67.4792 35.2742L67.1475 35.0035C66.8449 34.7567 66.8423 34.7448 67.1143 34.8735ZM77.8962 36.1819C78.7349 36.2164 79.5271 36.296 79.6545 36.3597C79.7819 36.4234 79.8867 36.5787 79.8867 36.7074C79.8854 36.8985 79.7407 36.9463 79.0573 36.9834C78.4204 37.0166 78.1895 36.9781 78.0634 36.8175C77.9732 36.7021 77.794 36.6052 77.6653 36.6026C77.5366 36.6012 77.3282 36.7047 77.2009 36.8348C77.0735 36.9648 76.9315 37.2807 76.8864 37.5368C76.8399 37.7915 76.8691 38.2242 76.9501 38.4988C77.035 38.7788 77.2446 39.0827 77.4317 39.1955C77.6733 39.3402 77.8352 39.3574 78.0289 39.2619C78.1749 39.1889 78.3235 39.0097 78.3606 38.8638C78.3965 38.7178 78.5318 38.5957 78.6592 38.5917C78.7866 38.5891 79.1157 38.4988 79.8867 38.2003L79.8204 39.5936L79.0905 39.9705C78.3885 40.3328 78.3089 40.3447 77.0336 40.2651C76.3038 40.22 75.3086 40.1111 74.8215 40.0209C74.3345 39.932 73.8568 39.7754 73.7599 39.6732C73.6339 39.5419 73.6312 39.5127 73.7493 39.5737C73.8409 39.6215 74.7512 39.7794 75.773 39.9254C77.2619 40.1377 77.7423 40.1616 78.1948 40.0435C78.5053 39.9625 78.983 39.8139 79.2564 39.7117C79.604 39.583 79.754 39.4463 79.754 39.2619C79.754 39.1159 79.7089 39.0137 79.6545 39.0363C79.6001 39.0588 79.3161 39.1876 79.0241 39.3216C78.7322 39.4569 78.1948 39.5963 77.8298 39.6308C77.4649 39.6653 76.5984 39.6228 75.9057 39.5352C75.2117 39.4476 74.3584 39.3057 74.0081 39.2194C73.6578 39.1331 73.3141 38.958 73.2451 38.8306C73.1747 38.7019 73.1336 38.5678 73.1522 38.5294C73.1708 38.4922 73.9908 38.5148 74.9768 38.5785C75.9614 38.6422 76.7974 38.6713 76.8346 38.6435C76.8704 38.6156 76.8412 38.5347 76.7682 38.4617C76.6953 38.39 75.9787 38.2759 75.1758 38.2096C74.373 38.1419 73.537 38.0437 73.3181 37.9906C73.0991 37.9375 72.8762 37.8287 72.8218 37.7478C72.7687 37.6681 72.7236 37.5275 72.7222 37.4372C72.7209 37.3072 73.1548 37.2899 74.6782 37.355C76.41 37.4293 76.6462 37.4134 76.7351 37.2223C76.8227 37.0299 76.69 37.006 75.5408 37.006C74.8295 37.006 73.8727 36.9622 73.4163 36.9064C72.7501 36.8268 72.5856 36.7605 72.5869 36.5747C72.5869 36.446 72.6333 36.3345 72.6877 36.3265C72.7421 36.3173 73.5927 36.2668 74.5787 36.2151C75.5633 36.162 77.0562 36.1474 77.8962 36.1819ZM27.0721 36.4778C27.2539 36.4752 27.7024 36.6172 28.0674 36.795C28.4323 36.9715 28.906 37.3457 29.121 37.6257C29.5019 38.1206 29.4939 38.118 28.8224 37.5036C28.4005 37.1174 27.928 36.8215 27.6029 36.7406C27.242 36.6503 26.9076 36.6517 26.5586 36.7472C26.264 36.8268 25.8022 37.1254 25.4771 37.4439C25.1639 37.7504 24.9715 37.8818 25.0485 37.7358C25.1267 37.5898 25.3298 37.339 25.501 37.1785C25.6708 37.0192 26.0198 36.7976 26.2759 36.6862C26.5307 36.576 26.889 36.4818 27.0721 36.4778ZM77.648 36.8733C77.7847 36.8733 77.9864 37.0073 78.0966 37.1718C78.2054 37.3351 78.297 37.7385 78.2996 38.0676C78.3023 38.5068 78.228 38.7337 77.7383 39.1955L77.4185 38.8306C77.2115 38.5931 77.1 38.3011 77.1 38.0012C77.1 37.7451 77.1677 37.3868 77.25 37.205C77.3322 37.0219 77.5114 36.8733 77.648 36.8733ZM79.8535 37.1546C79.8721 37.1453 79.8867 37.3019 79.888 37.5036C79.8894 37.8261 79.8137 37.8911 79.2272 38.0676C78.638 38.2441 78.565 38.2441 78.5597 38.0676C78.5584 37.9574 78.5146 37.7186 78.4628 37.5368C78.4071 37.3351 78.4204 37.2369 78.4987 37.2873C78.569 37.3324 78.8941 37.3258 79.2232 37.27C79.551 37.2156 79.8349 37.1639 79.8535 37.1546Z" fill="#11313D"/>
<path fill-rule="evenodd" clip-rule="evenodd" d="M65.2246 2.002C66.0182 2.00333 66.0766 2.01792 65.6227 2.10153C65.3308 2.15461 64.9128 2.15461 64.6938 2.1002C64.4046 2.02721 64.5479 2.00067 65.2246 2.002ZM48.0135 19.9736C48.6491 20.0081 49.8248 20.1222 52.0873 20.4154L52.6022 20.9807C52.8849 21.2913 53.8111 22.471 54.6617 23.6029C55.5123 24.7335 57.0716 26.8753 58.1278 28.3628C59.1855 29.8491 60.0294 31.1031 60.0042 31.1495C59.9803 31.1947 60.0401 31.2769 60.1369 31.33C60.2351 31.3844 59.9113 31.4295 58.5233 31.4322L58.0628 30.6692C57.8107 30.2498 57.6024 29.7562 57.601 29.5744C57.5997 29.3913 57.5307 29.0343 57.4484 28.7782C57.3648 28.5221 56.7823 27.5374 56.1519 26.59C55.5216 25.6425 54.7082 24.5583 54.3432 24.1815C53.8377 23.6586 53.5059 23.4423 52.9499 23.2765C52.5027 23.1424 51.4756 23.027 50.2959 22.9779C48.9583 22.9221 48.2802 22.9447 48.0732 23.0522C47.8104 23.1862 47.7587 23.3627 47.6392 24.4986C47.5649 25.2099 47.4137 26.927 47.3035 28.3137C47.1934 29.7005 47.0739 30.8656 47.0368 30.9014C47.001 30.9372 46.9731 30.8775 46.9757 30.7687C46.9811 30.6041 46.8563 30.5869 46.2499 30.6692C45.6036 30.7567 45.5187 30.7421 45.52 30.5365C45.52 30.4091 45.6992 29.1697 45.9155 27.7829C46.1331 26.3962 46.3428 25.0679 46.3799 24.8304C46.4277 24.5252 46.3733 24.3115 45.942 23.8019L43.706 23.9745C42.4772 24.0687 38.3065 24.4124 34.4383 24.7375C30.5701 25.0613 27.1663 25.3267 26.3436 25.3267L26.2772 23.2711L26.9075 23.1743C27.2539 23.1212 29.5085 22.8651 31.917 22.6076C34.3255 22.3489 38.7736 21.8645 41.8031 21.5328C44.8326 21.1997 47.9073 20.925 48.6371 20.9224C49.4904 20.9184 50.2004 20.9914 50.6276 21.1254C50.9926 21.2408 51.3071 21.3231 51.3256 21.3085C51.3442 21.2926 51.0748 21.1506 50.7285 20.9927C50.3808 20.8334 49.7386 20.6636 49.3006 20.6145C48.8402 20.5627 47.5264 20.6171 46.1822 20.7419C44.9043 20.8613 42.7851 21.075 41.4714 21.2169C40.1576 21.3589 36.2761 21.8141 32.8459 22.2281C29.4156 22.6435 26.5041 22.9434 26.3767 22.8943C26.1936 22.8253 26.1511 22.674 26.1777 22.1764C26.2069 21.615 26.2467 21.5407 26.5426 21.5036C26.7987 21.4704 26.8292 21.4346 26.6753 21.3496C26.5466 21.2793 26.7921 21.213 27.372 21.1612C27.8643 21.1174 28.342 21.1267 28.4323 21.1811C28.553 21.2541 28.5623 21.2289 28.4654 21.0896C28.354 20.9263 28.4442 20.9104 29.0639 20.9847C29.5801 21.0471 29.7155 21.0338 29.5284 20.9423C29.3346 20.848 29.4594 20.8295 29.9928 20.8759C30.5223 20.9224 30.6497 20.9038 30.4573 20.8109C30.2662 20.718 30.4148 20.6994 30.9881 20.7432C31.4684 20.779 31.6529 20.7631 31.4525 20.7007C31.1884 20.6198 31.2986 20.58 31.9833 20.5057C32.4584 20.4539 32.8764 20.4446 32.9122 20.4844C32.948 20.5256 32.7689 20.5614 32.5141 20.5654C32.2593 20.568 32.1094 20.5999 32.1824 20.6344C32.2553 20.6676 33.3594 20.5694 34.6373 20.4154C36.4951 20.1899 37.9389 20.1235 41.8562 20.081C44.5487 20.0518 46.7767 20.0027 46.8059 19.9696C46.8364 19.9377 47.3792 19.9404 48.0135 19.9736ZM48.0679 23.2048L49.6138 23.2074C50.4631 23.2088 51.5619 23.2685 52.0542 23.3401C52.5465 23.4118 53.1742 23.5817 53.4475 23.7197C53.7209 23.8563 54.1601 24.2292 54.4229 24.549C54.6856 24.8675 55.3571 25.8004 55.9157 26.6218C56.4744 27.4432 56.9946 28.2792 57.0716 28.4796C57.1485 28.68 57.2454 28.9932 57.2865 29.1763C57.3277 29.3581 56.8592 28.7915 56.2462 27.9156C55.6331 27.0398 54.8886 25.9941 54.594 25.5934C54.2981 25.1926 53.8669 24.699 53.636 24.4986C53.3732 24.2717 52.9525 24.0859 52.5186 24.0063C52.1351 23.936 51.3442 23.8378 50.7603 23.7887C50.1765 23.7409 49.4745 23.7382 49.2011 23.7847C48.8703 23.8404 48.6544 23.9678 48.5535 24.1669C48.4593 24.3553 48.4129 25.2232 48.4248 26.5223C48.4368 27.6529 48.4938 28.9374 48.5535 29.3753C48.6133 29.8132 48.6411 30.3056 48.6159 30.4701C48.5867 30.6625 48.5151 30.7329 48.4142 30.6692C48.3001 30.5975 48.2815 30.6625 48.4354 31.2331L48.2709 30.9014C48.1581 30.6731 48.0135 30.5803 47.8078 30.6028C47.6432 30.6214 47.4853 30.7408 47.4561 30.8682C47.4283 30.9956 47.4322 30.563 47.4654 29.9061C47.4999 29.2493 47.6127 27.6662 47.7162 26.3896C47.8197 25.1117 47.9405 23.8736 47.9856 23.6361L48.0679 23.2048ZM59.6605 31.6087C60.1701 31.5941 60.3147 31.618 60.0692 31.675C59.7003 31.7626 59.7083 31.7719 60.4342 32.1289C61.1388 32.4752 61.1879 32.4818 61.387 32.2616C61.5011 32.1342 61.5462 32.1156 61.4865 32.2218C61.4069 32.3611 61.4307 32.3929 61.5754 32.3385C61.6855 32.2961 62.7737 32.7605 63.9972 33.3736C65.2193 33.984 66.2199 34.544 66.2199 34.617C66.2199 34.69 66.2796 34.7192 66.3526 34.6833C66.4256 34.6475 66.4853 34.6767 66.4853 34.7497C66.4853 34.8227 66.5596 34.8373 66.6498 34.7829C66.7595 34.7174 66.7816 34.7395 66.7162 34.8492C66.6392 34.9793 66.5105 34.9686 66.1204 34.8014C65.847 34.6847 65.5033 34.5573 65.0919 34.4511L65.3573 34.6687C65.6108 34.8771 65.6068 34.8797 65.2631 34.7192C65.0654 34.6263 64.946 34.4909 64.9964 34.4179C65.0481 34.345 65.0309 34.3277 64.9579 34.3808C64.8862 34.4325 64.2294 34.1486 63.4995 33.7491C62.7697 33.3497 62.0677 32.9927 61.9403 32.9569C61.8129 32.9211 61.7386 32.8322 61.7744 32.7592C61.8116 32.6862 61.7665 32.661 61.6749 32.7048C61.5834 32.7472 61.375 32.7167 61.2105 32.6384C60.9862 32.5296 60.7301 32.5429 59.4522 32.8919L59.1284 32.3279C58.9506 32.0174 58.8192 31.7334 58.8378 31.6976C58.8577 31.6604 59.2266 31.6206 59.6605 31.6087ZM64.3621 32.6782C64.4722 32.7141 64.7721 32.8149 65.0296 32.9038C65.2883 32.9941 65.5113 33.1175 65.5272 33.1785C65.5431 33.2396 65.5113 33.2873 65.4569 33.2834C65.4025 33.2807 65.0893 33.1294 64.7602 32.9463C64.4324 32.7645 64.2533 32.6437 64.3621 32.6782ZM59.415 33.5687C59.4296 33.5607 59.415 33.6151 59.3819 33.6881C59.3474 33.7611 59.4986 33.8513 59.7176 33.8871C59.9365 33.923 60.19 33.9097 60.2816 33.8553C60.3921 33.7907 60.4143 33.8128 60.3479 33.9216C60.2776 34.0384 60.3559 34.0822 60.6133 34.0716C60.8137 34.0636 61.4865 34.2534 62.1062 34.4922C62.7272 34.7298 63.2726 34.9899 63.3191 35.0695C63.3757 35.1668 63.4642 35.1712 63.5845 35.0828C63.7158 34.9872 63.7384 34.9965 63.6654 35.1159C63.611 35.2062 63.4611 35.2447 63.3337 35.2022C63.2063 35.1584 62.1287 34.9049 60.9398 34.6382C59.7494 34.3715 58.7648 34.1061 58.7502 34.049C58.7343 33.992 58.8723 33.8633 59.0541 33.7624C59.2372 33.6629 59.3991 33.5753 59.415 33.5687ZM68.6417 34.2215C68.6961 34.2202 69.264 34.4617 69.9023 34.7576C70.5406 35.0549 71.078 35.3535 71.0966 35.4212C71.1152 35.4902 71.2041 35.5008 71.2943 35.4464C71.404 35.3809 71.4261 35.403 71.3607 35.5127C71.3063 35.6043 71.1882 35.6799 71.0966 35.6812C71.005 35.6826 70.737 35.5937 70.4995 35.4822C70.2619 35.3707 69.9939 35.3256 69.9036 35.38C69.7829 35.453 69.7736 35.4278 69.8705 35.2831C69.9713 35.1332 69.9554 35.1067 69.8028 35.169C69.694 35.2128 69.3357 35.1173 69.0066 34.954C68.4944 34.6993 68.4466 34.6449 68.6748 34.5639C68.8991 34.4856 68.9097 34.4511 68.7412 34.3463C68.6324 34.2786 68.5873 34.2215 68.6417 34.2215ZM25.0113 34.5294C27.0575 34.5772 30.4347 34.6833 32.5141 34.7643C34.5948 34.8466 36.3558 34.9686 36.4288 35.035C36.5017 35.1013 36.9197 35.1212 37.3577 35.0775C37.8115 35.0337 38.2109 35.0549 38.2866 35.1292C38.3595 35.1995 38.8678 35.3044 39.4145 35.3614C39.9626 35.4185 40.3049 35.4835 40.1775 35.5047C40.0501 35.5273 39.9758 35.6056 40.0117 35.6786C40.0528 35.7595 39.7277 35.8206 38.2866 35.8577L39.2155 35.944C39.7263 35.9918 39.9652 36.0395 39.7463 36.0515C39.5273 36.0647 38.2441 36.0183 36.8932 35.9493C35.5436 35.8803 32.3788 35.7609 29.8601 35.6826C27.3428 35.6056 24.3716 35.514 23.2583 35.4782C21.2983 35.4158 21.232 35.4039 21.1523 35.1146C21.1072 34.9501 21.1205 34.7324 21.1802 34.6289C21.2731 34.4723 21.8888 34.4564 25.0113 34.5294ZM75.8406 35.6998C76.4245 35.7051 76.7828 35.737 76.6368 35.7715C76.4152 35.8232 76.4046 35.8538 76.5705 35.9533C76.7111 36.0382 76.6143 36.074 76.2387 36.078C75.9468 36.0807 75.4996 35.9944 75.2435 35.8869C74.7817 35.6905 74.7857 35.6892 75.8406 35.6998ZM72.7938 37.9345C72.8217 37.9345 72.8045 38.0685 72.758 38.2331C72.6903 38.4732 72.7102 38.5051 72.8628 38.3989C73.0009 38.3021 73.0247 38.31 72.9531 38.4321C72.8987 38.5237 72.9146 38.598 72.9876 38.598C73.0606 38.598 73.0911 38.6577 73.0539 38.7307C73.0181 38.8037 73.0619 38.8886 73.1535 38.9191C73.2623 38.9563 73.2512 38.9797 73.1203 38.9894C73.0115 38.9974 72.8469 38.8528 72.7554 38.6683C72.6638 38.4839 72.624 38.2424 72.6678 38.1335C72.7102 38.0247 72.7673 37.9345 72.7938 37.9345ZM56.8844 38.3326C56.9044 38.3326 56.8937 38.3923 56.8606 38.4653C56.8261 38.5383 56.8579 38.598 56.9309 38.598C57.0039 38.598 57.0782 38.5277 57.0968 38.4401C57.1153 38.3538 57.2043 38.3233 57.2958 38.3737C57.4179 38.4414 57.3834 38.5542 57.1631 38.801C56.9986 38.9841 56.9017 39.1341 56.9468 39.1328C56.9933 39.1301 56.903 39.2801 56.7478 39.4645C56.5938 39.6476 56.4067 39.7963 56.3337 39.7936C56.2608 39.791 56.1121 39.7312 56.002 39.6622C55.8308 39.5548 55.8401 39.5096 56.0683 39.3371C56.2143 39.227 56.274 39.1367 56.201 39.1354C56.1281 39.1354 56.2435 38.9536 56.4572 38.7333C56.6721 38.5131 56.8632 38.3326 56.8844 38.3326ZM73.1787 39.1288C73.2928 39.1288 73.3857 39.1885 73.3857 39.2615C73.3857 39.3345 73.3711 39.4181 73.3525 39.4473C73.3339 39.4751 73.4388 39.6277 73.5847 39.7843C73.7307 39.9409 73.9244 40.0364 74.016 39.9966C74.1076 39.9568 74.1527 39.9847 74.1155 40.0577C74.0797 40.1307 73.9895 40.1904 73.9165 40.1904C73.8435 40.1904 73.659 40.0564 73.5078 39.8918C73.3552 39.7273 73.1734 39.4884 73.1017 39.361C73.0035 39.1832 73.0221 39.1288 73.1787 39.1288Z" fill="#C1C3C5"/>
<path d="M53.1152 1.3092C53.6447 1.16455 54.9133 0.871288 55.9351 0.657641C56.9569 0.445321 57.8818 0.271484 57.9919 0.271484C58.1021 0.271484 57.8035 0.389587 57.3284 0.532903C56.8534 0.676219 55.6896 1.03053 54.7408 1.32247C53.792 1.61308 52.8817 1.90767 52.7171 1.97801C52.5526 2.04834 52.2898 2.35885 52.1319 2.66937C51.9753 2.97989 51.5122 3.5704 51.1035 3.9831C50.6868 4.40376 50.0419 4.88148 49.6318 5.07389C49.2311 5.261 48.5729 5.47863 48.1721 5.55825C47.7196 5.64716 47.0973 5.66043 45.627 5.48925L45.7092 5.09115C45.753 4.87219 45.9866 4.39447 46.2268 4.02955C46.4683 3.66462 46.9288 3.14709 47.2525 2.87904C47.5763 2.61098 48.1085 2.27525 48.4375 2.13459C48.7666 1.9926 49.3479 1.80948 49.7314 1.72588C50.1149 1.64227 50.8155 1.5746 51.2906 1.5746C51.7657 1.5746 52.5857 1.45517 53.1152 1.3092Z" fill="#EEBB3A"/>
<path d="M57.3948 2.5579C58.7085 2.54065 60.6486 2.4398 61.7075 2.33364C62.7665 2.22615 63.8108 2.13725 64.0298 2.13592C64.4106 2.13194 64.408 2.13592 63.9634 2.23279C63.7087 2.2872 62.9907 2.40795 62.371 2.49952C61.7513 2.59108 60.6459 2.78349 58.5891 3.18159L57.6602 4.18348C56.9702 4.92792 56.5097 5.29152 55.8687 5.59806C55.2052 5.91654 54.7766 6.0227 54.0109 6.06384C53.4642 6.09436 52.672 6.05057 52.2527 5.96962C51.8068 5.88204 51.491 5.75199 51.4923 5.65512C51.495 5.56356 51.6887 5.19598 51.9236 4.83636C52.1598 4.47807 52.6203 3.95258 52.9493 3.6686C53.2784 3.38595 53.8756 3.02633 54.2763 2.87108C54.9093 2.62691 55.3247 2.58577 57.3948 2.5579Z" fill="#EEBB3A"/>
<path d="M59.518 4.3812C59.7369 4.29495 60.1841 4.17021 60.5132 4.10253C60.8423 4.03485 61.4687 4.00831 61.9066 4.04282C62.3445 4.07865 63.0014 4.19277 63.3663 4.29627C63.7312 4.40111 64.895 4.5776 65.9539 4.68906C67.0129 4.80053 68.3558 4.95712 68.9397 5.03541C69.5236 5.11503 70.0318 5.20659 70.0676 5.23844C70.1035 5.27162 69.9548 5.2955 69.7359 5.29418C69.5169 5.29152 68.2324 5.21986 64.4279 4.9757L63.6317 5.67635C63.1938 6.06118 62.5064 6.53227 62.1056 6.72468C61.5642 6.98212 61.1011 7.08695 60.3142 7.12809C59.5512 7.16923 58.9766 7.11482 58.2733 6.93435C57.7345 6.79634 57.2714 6.63843 57.2448 6.58402C57.2183 6.52961 57.3417 6.26023 57.5222 5.98687C57.7013 5.71351 58.1339 5.2756 58.4843 5.01285C58.8333 4.75143 59.299 4.46746 59.518 4.3812Z" fill="#EEBB3A"/>
<path d="M64.1625 6.6517C64.5274 6.46459 64.9746 6.26687 65.1577 6.21113C65.3395 6.1554 65.8186 6.10497 66.2193 6.10099C66.6201 6.09701 67.188 6.14744 67.48 6.21379C67.7719 6.28014 69.2051 6.82023 70.6648 7.41472C72.1245 8.00789 73.9013 8.77357 74.6113 9.11461C75.3225 9.45565 75.8905 9.75157 75.8719 9.77015C75.8547 9.78872 74.8846 9.45299 73.7169 9.02304C72.5491 8.5931 71.1757 8.10476 69.7359 7.63633L69.1387 8.02647C68.8096 8.24011 68.3027 8.52542 68.0108 8.65945C67.7188 8.79215 67.1217 8.95139 66.6838 9.0111C66.2459 9.07082 65.589 9.07082 65.2241 9.00845C64.8592 8.94608 64.2315 8.77357 63.8307 8.62362C63.43 8.47367 62.9815 8.26267 62.8355 8.15651C62.5754 7.96675 62.5807 7.95216 63.0345 7.47709C63.2893 7.21036 63.7976 6.8388 64.1625 6.6517Z" fill="#EEBB3A"/>
<path d="M45.9985 9.03897C45.826 8.69262 45.6402 8.2149 45.5872 7.97737L45.4916 7.54609L46.5333 7.54477C47.1092 7.54344 47.9014 7.64031 48.3048 7.75841C48.7056 7.87784 49.3333 8.17244 49.6982 8.41528C50.0631 8.65679 50.582 9.1438 50.85 9.49413C51.1194 9.84578 51.483 10.4615 51.6595 10.8636C51.9183 11.4541 52.1027 11.6664 52.6295 11.9783C52.9878 12.1906 53.9897 12.8475 54.8562 13.438C55.7214 14.0298 56.4447 14.542 56.4632 14.5792C56.4805 14.6163 55.4733 14.0895 54.2246 13.4088C52.9759 12.7294 51.7152 12.1203 51.4233 12.0566C51.1314 11.9929 50.505 11.8721 50.0299 11.7872C49.5549 11.7036 48.8091 11.474 48.3712 11.2776C47.9306 11.0799 47.2937 10.6407 46.9447 10.2943C46.5983 9.95062 46.1724 9.38531 45.9985 9.03897Z" fill="#EEBB3A"/>
<path d="M51.8705 9.47024C51.6582 9.03233 51.4538 8.44315 51.4153 8.16049L51.3463 7.64827L52.3137 7.70135C52.9785 7.73718 53.508 7.85794 54.0109 8.08884C54.4117 8.27329 54.9797 8.63689 55.2716 8.89565C55.5635 9.15574 55.9908 9.71839 56.2204 10.1483C56.45 10.5783 56.7193 11.1914 56.8175 11.5112C56.9755 12.0221 57.1865 12.2397 58.5891 13.3345C59.4649 14.0192 60.4495 14.8207 60.7786 15.118C61.1409 15.4457 60.4403 15.0383 58.9872 14.0776C57.1758 12.8793 56.4221 12.4573 55.8687 12.3286C55.4667 12.2357 54.7806 11.9915 54.3427 11.7872C53.9048 11.5828 53.2559 11.1569 52.9016 10.841C52.5141 10.4947 52.104 9.95062 51.8705 9.47024Z" fill="#EEBB3A"/>
<path d="M57.1387 9.80067C57.0232 9.39991 56.9277 8.87707 56.929 8.63954C56.929 8.40334 56.9648 8.20827 57.0086 8.20827C57.0511 8.20827 57.5142 8.33168 58.0371 8.48296C58.5586 8.63291 59.2261 8.89433 59.518 9.06153C59.8099 9.23006 60.3049 9.65868 60.6194 10.0156C60.9326 10.3713 61.3055 10.9777 61.4488 11.3599C61.5908 11.7434 61.7513 12.306 61.8071 12.6112C61.896 13.1115 62.0473 13.284 63.3663 14.3921C64.1691 15.0675 65.1246 15.8942 66.153 16.8444L65.1577 16.153C64.6097 15.7735 63.6251 15.0742 62.9682 14.5978C62.3113 14.1227 61.3851 13.5747 60.9113 13.3796C60.4363 13.1845 59.8391 12.9191 59.5843 12.7891C59.3282 12.6577 58.9102 12.3896 58.6554 12.1919C58.3993 11.9929 58.0012 11.539 57.7703 11.1807C57.5394 10.8238 57.2555 10.2027 57.1387 9.80067Z" fill="#EEBB3A"/>
<path d="M34.3714 10.1828C35.0641 10.0276 35.9903 9.82588 36.4282 9.73432C36.8661 9.64275 37.3677 9.56048 37.5442 9.55119C37.7207 9.54323 37.8401 9.56048 37.8096 9.591C37.7791 9.62019 37.2178 9.77413 36.5609 9.93204C35.904 10.0913 34.6195 10.4615 33.7079 10.7561C32.7949 11.0507 31.1534 11.6492 30.0586 12.0858C28.9638 12.521 27.321 13.2588 26.4094 13.7246C25.4964 14.1904 24.2424 14.8751 23.6227 15.2467C23.0016 15.6196 22.0223 16.2632 21.4464 16.6772C20.8705 17.0925 19.7664 17.9723 18.9914 18.6318C18.2178 19.2927 17.1761 20.3078 16.6771 20.8877C16.1782 21.469 15.4284 22.4509 15.0104 23.0707C14.5924 23.6917 14.0643 24.5874 13.8374 25.0612C13.6091 25.5362 13.2641 26.4014 13.069 26.9853C12.8726 27.5692 12.6298 28.4808 12.5276 29.009C12.4254 29.5385 12.3432 30.405 12.3432 30.9331C12.3432 31.4626 12.4294 32.3729 12.5343 32.9568C12.6391 33.5407 12.8235 34.3475 12.9443 34.7482C13.0637 35.1503 13.4857 36.1058 13.8798 36.8714C14.5831 38.2343 14.5885 38.2529 14.1267 37.734C13.8679 37.4421 13.3942 36.8157 13.0743 36.3406C12.7545 35.8669 12.2728 35.0004 12.0035 34.4165C11.7341 33.8326 11.3944 32.9077 11.2497 32.3597C11.048 31.6033 10.987 30.9517 10.9896 29.6393C10.9936 28.3269 11.06 27.6607 11.2723 26.8526C11.4249 26.2687 11.8708 25.1341 12.2622 24.3313C12.655 23.5285 13.3411 22.3793 13.7869 21.7768C14.2328 21.1757 15.1524 20.13 15.8305 19.4546C16.5086 18.7805 17.6286 17.8038 18.3186 17.2863C19.01 16.7674 20.1128 16.0017 20.7696 15.5824C21.4265 15.1631 22.9194 14.3523 24.0871 13.7803C25.2549 13.2071 27.0158 12.4414 28.0018 12.0778C28.9864 11.7155 30.539 11.2033 31.452 10.9419C32.3636 10.6805 33.6773 10.3394 34.3714 10.1828Z" fill="#EEBB3A"/>
<path d="M62.7068 12.1057C62.4148 11.5311 62.2994 11.0918 62.2622 10.4257L62.2118 9.52332L62.59 9.61356C62.797 9.66399 63.2362 9.79403 63.5653 9.90285C63.8931 10.013 64.3708 10.2333 64.6269 10.3952C64.8817 10.5571 65.378 11.0109 65.7297 11.4063C66.08 11.8005 66.4834 12.4374 66.6254 12.8196C66.7661 13.2031 66.9266 13.7644 66.9824 14.0656C67.0806 14.6071 67.1071 14.6309 69.006 15.7456C70.0637 16.3667 71.3177 17.1058 71.7927 17.3884C72.2665 17.6698 72.5956 17.8993 72.5226 17.898C72.4496 17.898 71.1054 17.2491 69.5368 16.4569C67.967 15.6633 66.5338 14.9693 66.352 14.9136C66.1689 14.8579 65.6341 14.6243 65.163 14.3961C64.6906 14.1678 64.0338 13.7339 63.7034 13.4327C63.3716 13.1314 62.9231 12.5343 62.7068 12.1057Z" fill="#EEBB3A"/>
<path d="M66.0561 10.212C66.0402 10.147 66.2631 10.0302 66.5537 9.95327C66.8444 9.87763 67.6485 9.82853 68.3425 9.84711C69.3643 9.87232 69.7399 9.94265 70.333 10.2147C70.7338 10.3991 71.2964 10.7548 71.5831 11.0056C71.8697 11.2551 72.3633 11.7885 72.6818 12.1906C73.1012 12.7201 73.5218 13.0598 74.2172 13.4313C74.7453 13.7127 75.8626 14.3536 76.7026 14.8565C77.5413 15.3595 78.3773 15.8889 78.5604 16.0323C78.7422 16.1756 77.6076 15.6567 73.1861 13.4658L71.9254 13.4459C71.2314 13.4353 70.3357 13.3584 69.9349 13.2734C69.5329 13.1885 68.8468 12.9072 68.4089 12.6471C67.971 12.387 67.4893 12.0433 67.338 11.8841C67.188 11.7235 66.8444 11.3095 66.575 10.9631C66.3056 10.6154 66.072 10.2784 66.0561 10.212Z" fill="#EEBB3A"/>
<path fill-rule="evenodd" clip-rule="evenodd" d="M48.3699 18.5831C48.4429 18.5698 49.6969 18.68 51.1566 18.826C52.6163 18.9719 54.6466 19.2426 55.6684 19.4258C56.6902 19.6089 58.1539 19.9141 58.9196 20.1039C59.6852 20.2923 60.7004 20.624 61.1755 20.8403C61.6505 21.0566 62.3963 21.4919 62.8342 21.8091C63.2721 22.1262 64.1387 22.872 64.7584 23.4665C65.6209 24.2932 65.808 24.5321 65.5546 24.479C65.3714 24.4418 64.6854 24.3184 64.0285 24.2056C63.3716 24.0915 61.9982 23.9084 60.9764 23.7982C59.9546 23.6881 58.0862 23.5541 54.5325 23.4041L53.5081 22.0944C52.9441 21.3738 52.1253 20.4927 51.6874 20.1357C51.2495 19.7774 50.5621 19.3594 50.1614 19.2042C49.6438 19.0051 49.1422 18.9242 48.4363 18.9281C47.8895 18.9308 45.5607 19.1497 43.261 19.4151C40.9613 19.6792 37.5575 20.076 35.6971 20.2949C33.8366 20.5139 32.2535 20.6718 32.1805 20.6453C32.1075 20.6201 32.8241 20.494 33.7729 20.3679C34.7217 20.2405 38.0963 19.8159 41.2705 19.4244C44.4447 19.0316 47.311 18.6866 47.6401 18.6588C47.9692 18.6296 48.2969 18.5964 48.3699 18.5831ZM26.4081 21.3751C26.8102 21.3738 26.8274 21.3857 26.5408 21.4654C26.2541 21.545 26.205 21.6418 26.1759 22.1819C26.1467 22.7287 26.1798 22.8189 26.4413 22.9025C26.6589 22.9715 26.4532 23.0418 25.6782 23.1599C24.756 23.3019 24.7201 23.3152 26.209 23.213L26.3086 24.0716C26.363 24.544 26.3776 25.0204 26.3417 25.1292C26.2975 25.2619 26.3749 25.3402 26.574 25.3641C26.7385 25.3827 25.9914 25.4729 24.9152 25.5631C23.839 25.652 22.7482 25.8166 22.4934 25.9254C22.2387 26.0355 21.9467 26.289 21.8459 26.4894C21.7437 26.6898 21.5075 27.6014 21.3177 28.5131C21.1293 29.426 20.913 30.6349 20.8387 31.2002C20.763 31.7655 20.702 32.3189 20.702 32.4277C20.702 32.6029 22.0953 32.6267 32.4459 32.6267C42.0879 32.6267 44.2549 32.5949 44.5548 32.4463C44.7552 32.3468 45.0246 32.0482 45.1519 31.7828C45.2793 31.5174 45.3842 31.1657 45.3842 31.0012C45.3855 30.7278 45.4545 30.6999 46.1804 30.6694C46.9062 30.6389 46.9845 30.6628 47.0602 30.9348C47.1053 31.0994 47.1053 32.2034 47.0602 33.3898C46.9845 35.3232 46.9527 35.5461 46.7443 35.5448C46.617 35.5448 45.1984 35.3975 43.5927 35.217C41.9871 35.0366 39.4485 34.7977 37.953 34.6876C36.4574 34.5761 34.8292 34.4845 34.3369 34.4845C33.8446 34.4845 33.4412 34.4394 33.4398 34.385C33.4398 34.3306 32.231 34.2762 30.7527 34.2656C29.2757 34.2536 26.3205 34.2099 20.3039 34.0864V33.4229C20.3039 32.8298 20.272 32.7555 19.6974 32.6931L19.8673 30.968C19.9615 30.0192 20.2176 28.3167 20.4379 27.1861C20.6582 26.0554 21.0006 24.6223 21.1983 24.0013C21.4544 23.1997 21.684 22.7486 21.9932 22.442C22.236 22.2005 22.6752 21.9471 22.9911 21.8661C23.3016 21.7865 24.0925 21.6432 24.7493 21.549C25.4062 21.4534 26.1533 21.3751 26.4081 21.3751ZM48.3182 31.0343C48.4349 31.2905 48.6446 31.5957 48.7826 31.7138C48.9206 31.8332 49.2431 31.9951 49.4979 32.0747C49.7527 32.1543 51.5441 32.5564 53.4789 32.9678C55.4136 33.3805 57.0405 33.7401 57.0949 33.7693C57.1493 33.7972 57.1547 34.7022 57.0166 37.7357L56.3041 38.4655C55.9139 38.8663 55.5649 39.3002 55.5317 39.4276C55.476 39.6333 55.338 39.6519 54.3082 39.5882C53.67 39.5484 51.9528 39.4595 50.4931 39.3905C49.0334 39.3215 47.8245 39.2485 47.8086 39.2299C47.7913 39.2113 47.7316 38.5916 47.6759 37.8525C47.6082 36.9713 47.6188 36.5241 47.7064 36.552C47.7794 36.5759 48.9737 36.69 50.3604 36.8055C51.7471 36.9222 53.0609 36.974 53.2798 36.9222C53.5691 36.8532 53.6514 36.8692 53.5784 36.9833C53.5187 37.0775 53.5572 37.1385 53.6779 37.1385C53.7881 37.1385 53.9075 37.0788 53.9433 37.0058C53.9805 36.9315 53.6142 36.7895 53.1139 36.6834C52.6216 36.5786 51.5614 36.3729 50.7585 36.2269C49.9557 36.0796 48.8277 35.8819 47.2035 35.6125L47.2805 33.4229C47.3229 32.2194 47.4025 31.102 47.4569 30.9428C47.5127 30.7822 47.6799 30.6323 47.8312 30.611C48.0329 30.5805 48.1603 30.6907 48.3182 31.0343ZM64.1798 31.5731C65.7019 31.5625 68.1422 31.6182 69.6019 31.6992C71.0616 31.7801 72.4045 31.8624 72.5877 31.8823C72.7695 31.9009 73.0388 31.9858 73.1848 32.0694C73.3985 32.1928 73.3268 32.2034 72.8172 32.1265C72.4696 32.0734 72.1869 32.0747 72.1869 32.1291C72.1882 32.1835 72.4735 32.3521 72.8199 32.5033C73.1662 32.6533 73.7488 32.8152 74.1137 32.8616C74.6127 32.924 74.752 32.9054 74.6777 32.786C74.6233 32.6984 75.2204 32.9519 76.0047 33.35C76.7889 33.7481 77.8187 34.3213 78.2937 34.6239C78.7688 34.9278 79.2916 35.3046 79.4588 35.4612C79.6247 35.6178 79.7588 35.7757 79.7574 35.8115C79.7548 35.8474 78.9917 35.8261 78.0615 35.7638C77.053 35.6948 75.5389 35.7001 72.2559 35.9031L71.3934 35.4732C70.9183 35.237 70.1725 34.88 69.7346 34.6823C69.2967 34.4845 67.8927 33.9445 66.6162 33.4827C65.3383 33.0222 64.278 32.6559 64.2581 32.6692C64.2395 32.6825 64.627 32.8722 65.1206 33.0899C65.6156 33.3088 67.0036 33.9763 68.2086 34.5735C69.4135 35.1719 70.5175 35.7492 70.6635 35.8593C70.84 35.9907 70.3915 35.9151 69.3365 35.6364C68.2232 35.3418 67.5039 35.0631 66.9479 34.7141C66.51 34.4381 65.0914 33.6764 63.7963 33.0222C62.5011 32.3667 61.4342 31.7775 61.4263 31.7124C61.4183 31.6474 62.6511 31.5851 64.1798 31.5731ZM60.8105 32.506C60.8649 32.4994 61.2538 32.6467 61.6731 32.8324C62.0924 33.0182 63.1978 33.5848 64.128 34.0931C65.0583 34.6 65.82 35.0751 65.82 35.148C65.82 35.221 65.6554 35.2821 65.455 35.2834C65.2547 35.2834 65.0012 35.3405 64.8911 35.4095C64.7212 35.517 64.7491 35.643 65.0901 36.2826C65.3091 36.694 65.8518 37.4278 66.295 37.9135C66.8723 38.5452 67.3274 38.8995 67.8874 39.1543C68.5138 39.4396 69.0884 39.555 70.7299 39.7288C71.8605 39.8483 72.8464 39.9836 72.9194 40.0314C72.9924 40.0792 72.9221 39.9398 72.7641 39.7235C72.6049 39.5059 72.2838 38.9101 72.0502 38.3992C71.8167 37.8883 71.5433 37.246 71.4425 36.9727C71.2633 36.4817 71.2646 36.475 71.5924 36.475C71.8605 36.475 71.9534 36.5706 72.0754 36.9727C72.159 37.246 72.4496 37.948 72.7217 38.5319C72.9937 39.1158 73.3281 39.7142 73.4661 39.8629C73.6134 40.0221 74.0407 40.1959 74.5118 40.2875C74.9497 40.3724 75.9051 40.5091 76.635 40.5887C77.8479 40.7228 78.0337 40.7108 78.7914 40.4627C79.3408 40.2822 79.7123 40.0672 79.8901 39.8257C80.0387 39.6253 80.1648 39.2525 80.1701 38.9963C80.1807 38.5531 80.186 38.5584 80.3002 39.129C80.3652 39.4581 80.5682 39.9505 80.75 40.2238C80.9318 40.4972 81.0818 40.7666 81.0831 40.821C81.0844 40.8754 80.9862 41.1302 80.8641 41.3849C80.6731 41.7844 80.6651 41.933 80.8071 42.4465C80.8973 42.7756 81.0008 43.2534 81.1043 43.9726L80.263 44.1332C79.7999 44.2207 78.9135 44.3534 78.2937 44.4277C77.674 44.5021 76.0604 44.6241 74.7109 44.6985C73.3613 44.7741 71.181 44.8351 69.8673 44.8351C68.5536 44.8351 66.8417 44.7913 64.6495 44.6361L64.4293 43.8399C64.3098 43.402 63.9967 42.5965 63.7339 42.0484C63.4088 41.3703 63.0001 40.7958 62.4481 40.245C61.8536 39.6506 61.4302 39.3586 60.8437 39.1383C60.2386 38.9114 59.8378 38.8504 59.1743 38.8849C58.4272 38.9234 58.191 39.0016 57.5488 39.4276C57.1348 39.701 56.7367 39.9252 56.6637 39.9252C56.5907 39.9252 56.5283 39.8801 56.5243 39.8257C56.5217 39.7713 56.7605 39.5019 57.0551 39.2286C57.4094 38.9008 57.8527 38.6566 58.3556 38.5146C58.8665 38.3713 59.3376 38.3275 59.7821 38.3833C60.147 38.4297 60.7747 38.6221 61.1755 38.8106C61.5762 38.999 62.1442 39.3586 62.4361 39.6081C62.8077 39.9279 63.0956 40.0632 63.3982 40.0606C63.6357 40.0593 63.9184 40.0274 64.0285 39.9916C64.1917 39.9372 64.197 39.8841 64.0617 39.701C63.929 39.5205 63.929 39.494 64.0617 39.5683C64.1532 39.6187 64.2276 39.6001 64.2276 39.5271C64.2276 39.4542 63.8839 39.0415 63.4645 38.6102C63.0134 38.1471 62.4029 37.6879 61.9717 37.4862C61.5709 37.2991 60.8835 37.0802 60.4456 36.9992C60.0077 36.9196 59.4106 36.8957 59.1186 36.9448C58.8267 36.9952 58.3038 37.1492 57.3272 37.5366L57.3431 36.1101C57.3511 35.3259 57.4002 34.5045 57.4492 34.2855C57.4997 34.0665 57.5979 33.898 57.6669 33.91C57.7359 33.9232 58.7762 34.1488 59.9812 34.4129C61.1861 34.677 62.6936 35.0392 63.3318 35.2197C63.9701 35.3988 64.4624 35.4864 64.4266 35.4134C64.3908 35.3405 64.0351 35.1759 63.6384 35.0485C63.2416 34.9211 62.943 34.7712 62.9749 34.7168C63.0067 34.6624 62.391 34.3678 61.6067 34.0612C60.8225 33.756 60.1656 33.4574 60.147 33.3977C60.1285 33.3393 60.0687 33.3102 60.0143 33.3354C59.9599 33.3606 59.81 33.2703 59.6826 33.1363C59.5127 32.9572 59.4955 32.8762 59.6162 32.8311C59.7078 32.7979 59.9918 32.7143 60.2466 32.644C60.5013 32.575 60.7561 32.5126 60.8105 32.506ZM21.3655 34.3983C21.9852 34.3983 22.2254 34.4208 21.8963 34.4487C21.5672 34.4766 21.0603 34.4766 20.7683 34.4487C20.4764 34.4208 20.7458 34.3983 21.3655 34.3983ZM26.9389 34.5297C27.4856 34.5297 27.6953 34.5522 27.4033 34.5814C27.1114 34.6093 26.6629 34.6093 26.4081 34.5814C26.1533 34.5522 26.3908 34.5297 26.9389 34.5297ZM20.3039 35.4134L23.3228 35.4864C24.9829 35.5262 28.0443 35.6151 30.1237 35.6842C32.2031 35.7532 35.3388 35.8752 37.0904 35.9549C38.8421 36.0358 41.8371 36.2004 43.7467 36.3211C45.6549 36.4419 47.2526 36.5719 47.2977 36.6077C47.3428 36.6436 47.4224 37.2659 47.5737 39.3042L46.1804 39.218C45.4147 39.1715 41.4138 38.9764 37.2895 38.7867C30.7222 38.4841 29.7707 38.4138 29.6207 38.2214C29.5265 38.1006 29.3965 38.0011 29.3328 38.0011C29.2691 38.0011 29.1669 37.9467 29.1059 37.8803C29.0422 37.81 29.0661 37.7967 29.1616 37.8472C29.2532 37.8949 29.3288 37.8896 29.3301 37.8352C29.3315 37.7808 29.1377 37.5486 28.8989 37.319C28.66 37.0908 28.2712 36.8068 28.0337 36.6887C27.7961 36.5719 27.3489 36.4737 27.0384 36.4737C26.6456 36.4724 26.2926 36.5852 25.8773 36.8479C25.5482 37.0549 25.1607 37.4424 24.7493 38.1948L23.0906 38.1245C22.1776 38.086 21.1784 38.0276 20.3039 37.9347L20.3052 36.9063C20.3052 36.341 20.284 35.6098 20.2561 35.2807C20.2282 34.9516 20.2282 34.8481 20.3039 35.4134ZM72.8743 36.8824C73.1185 36.9501 73.9744 37.0098 74.7772 37.0151C75.58 37.0204 76.3563 37.0762 76.5023 37.1385C76.6682 37.2102 76.0697 37.2553 74.9099 37.2606C73.8881 37.2646 72.9181 37.2381 72.7535 37.2036C72.589 37.1677 72.4496 37.0536 72.443 36.9488C72.4324 36.7962 72.5186 36.7829 72.8743 36.8824ZM79.1205 37.0085C79.6207 37.0098 79.7627 37.047 79.6207 37.1385C79.5106 37.2089 79.1974 37.2686 78.9241 37.2686C78.5021 37.2712 78.4238 37.3164 78.4105 37.5698C78.3973 37.8379 78.3893 37.8405 78.3349 37.603C78.303 37.457 78.3083 37.2633 78.3482 37.1717C78.3919 37.0682 78.6852 37.0072 79.1205 37.0085ZM26.9389 37.4159C26.9747 37.4106 27.2149 37.4623 27.4697 37.5327C27.7245 37.603 28.0987 37.8405 28.2991 38.0621C28.4994 38.2837 28.6043 38.4961 28.5313 38.5319C28.4583 38.5677 28.2646 38.4801 28.1 38.3355C27.9355 38.1922 27.6077 38.013 27.3702 37.9374C27.0756 37.8445 26.8022 37.8458 26.5076 37.9387C26.2701 38.013 25.9675 38.1723 25.8335 38.2904C25.6398 38.4629 25.592 38.4695 25.5973 38.3196C25.5999 38.2174 25.7101 38.0303 25.8401 37.9029C25.9702 37.7768 26.2555 37.6176 26.4744 37.5499C26.6934 37.4822 26.9017 37.4225 26.9389 37.4159ZM72.9526 37.9241C73.08 37.9918 73.693 38.1112 74.3128 38.1895C74.9325 38.2691 75.7247 38.3328 76.071 38.3328C76.4174 38.3328 76.7013 38.3926 76.7013 38.4655C76.7013 38.5505 76.2289 38.5717 75.4075 38.5266C74.6963 38.4868 73.8443 38.4257 73.5166 38.3912C73.08 38.3435 72.8929 38.2559 72.8199 38.0648C72.7363 37.8445 72.7575 37.8219 72.9526 37.9241ZM78.518 38.1006C78.5406 38.228 78.5737 38.3342 78.5923 38.3355C78.6109 38.3368 78.879 38.2479 79.1895 38.1364C79.6898 37.9573 79.7534 37.9573 79.7534 38.1338C79.7534 38.2718 79.5398 38.366 79.0568 38.4403C78.6733 38.5 78.3415 38.5452 78.3176 38.5399C78.2951 38.5359 78.3216 38.3833 78.3773 38.2001C78.453 37.9493 78.4875 37.9255 78.518 38.1006ZM79.6818 39.0481C79.6898 39.0866 79.6791 39.21 79.6579 39.3228C79.638 39.4356 79.2917 39.6466 78.8909 39.7925C78.4901 39.9385 77.9076 40.0566 77.5971 40.0553C77.2866 40.054 76.436 39.969 75.7061 39.8655C74.9763 39.7633 74.2 39.6346 73.981 39.5802C73.6028 39.4887 73.5935 39.4966 73.782 39.7368C73.9651 39.9717 73.9624 39.9783 73.7488 39.8257C73.6214 39.7342 73.5471 39.6001 73.5829 39.5271C73.6187 39.4542 73.5749 39.3732 73.4834 39.3467C73.3918 39.3201 73.348 39.2578 73.3839 39.21C73.4197 39.1609 73.8085 39.2087 74.2464 39.3161C74.6843 39.4223 75.6398 39.5815 76.3696 39.6678C77.6157 39.8138 77.751 39.8058 78.5737 39.5324C79.0554 39.3719 79.4987 39.1821 79.5597 39.1105C79.6194 39.0375 79.6738 39.0096 79.6818 39.0481Z" fill="#A6AAAF"/>
<path d="M48.9002 7.1141C48.1703 7.13799 47.0065 7.13799 46.3125 7.1141C45.6185 7.09022 46.2156 7.07031 47.6395 7.07031C49.0634 7.07031 49.63 7.09022 48.9002 7.1141Z" fill="#8D949C"/>
<path d="M50.1608 23.0354C49.906 23.0633 49.4283 23.0633 49.0992 23.0354C48.7701 23.0076 48.9798 22.985 49.5637 22.9837C50.1475 22.9837 50.4156 23.0062 50.1608 23.0354Z" fill="#8D949C"/>
<path fill-rule="evenodd" clip-rule="evenodd" d="M59.5177 0L59.2523 0.10616C59.1063 0.165875 58.7931 0.250803 58.5556 0.297248C58.3008 0.346347 58.1243 0.326442 58.1243 0.248149C58.1243 0.175164 58.3181 0.0955439 58.5556 0.0703309C58.7931 0.045118 59.1063 0.019905 59.5177 0ZM66.02 5.0771L65.1707 5.12487C64.478 5.16335 64.2445 5.23899 63.4987 5.88789L63.8875 5.45662C64.2577 5.04658 64.3201 5.02667 66.02 5.0771ZM70.7308 5.25624C71.0599 5.29738 71.4779 5.38231 71.6597 5.44335C71.8906 5.52164 71.7898 5.53624 71.328 5.48847C70.9631 5.45131 70.3964 5.41548 70.0673 5.40885C69.5684 5.39956 69.5246 5.37965 69.8019 5.28942C69.9837 5.2297 70.4017 5.21511 70.7308 5.25624ZM38.916 9.28899C39.1164 9.2797 39.2809 9.30226 39.2809 9.33809C39.2809 9.37525 38.9824 9.46416 38.6174 9.53714C38.2525 9.61013 37.8796 9.62605 37.7881 9.57164C37.6846 9.5106 37.7987 9.4416 38.0866 9.38985C38.3414 9.3434 38.7156 9.29828 38.916 9.28899ZM75.8066 9.5398C75.861 9.53847 75.9366 9.62738 75.9725 9.73619C76.0083 9.84501 76.0985 9.90605 76.1715 9.86889C76.2445 9.83306 76.5285 9.92728 76.8018 10.0799C77.0752 10.2338 77.3592 10.4143 77.4322 10.482C77.5052 10.551 77.3088 10.5005 76.9969 10.3705C76.6851 10.2405 76.4303 10.0892 76.4329 10.0348C76.4356 9.98036 76.3772 9.96576 76.3042 10.0016C76.2312 10.0387 76.0826 10.0387 75.9725 10.0016C75.8623 9.96576 75.796 9.86889 75.8238 9.78795C75.857 9.69373 75.7734 9.67382 75.5916 9.73088C75.37 9.80122 75.3514 9.7906 75.508 9.68046C75.6182 9.60349 75.7522 9.5398 75.8066 9.5398ZM56.8902 14.7337C57.2206 14.9659 57.4834 15.1756 57.4754 15.1994C57.4675 15.2233 57.3321 15.1981 57.1755 15.1437C57.0176 15.0893 56.869 14.9699 56.8438 14.8783C56.8186 14.7868 56.7376 14.743 56.6646 14.7788C56.5917 14.8159 56.5319 14.7854 56.5319 14.7124C56.5319 14.6395 56.4868 14.5864 56.4324 14.5957C56.378 14.6036 56.2878 14.6036 56.2334 14.5957C56.179 14.5864 56.1683 14.5187 56.2108 14.4457C56.2559 14.3674 56.5412 14.4882 56.8902 14.7337ZM78.4938 15.8736C78.5668 15.9147 78.9994 16.2066 79.4558 16.5238C79.9123 16.8409 80.2852 17.1316 80.2852 17.1674C80.2852 17.2045 80.061 17.105 79.7876 16.9484C79.5142 16.7905 79.2303 16.5822 79.1573 16.4853C79.0843 16.3884 78.9781 16.3526 78.9211 16.4057C78.864 16.4601 78.8202 16.4296 78.8215 16.338C78.8242 16.2411 78.7578 16.2133 78.661 16.2717C78.5402 16.3446 78.5309 16.3194 78.6278 16.1748C78.7287 16.0248 78.7114 15.9983 78.5601 16.058C78.446 16.1045 78.3611 16.066 78.3611 15.9691C78.3611 15.8762 78.4208 15.8324 78.4938 15.8736ZM66.1195 16.6366C66.4274 16.9285 66.71 17.182 66.7472 17.2006C66.7857 17.2191 66.7857 17.2643 66.7498 17.3014C66.714 17.3386 66.5189 17.2191 66.3186 17.036C66.1182 16.8529 65.955 16.7481 65.9563 16.8025C65.9576 16.8569 65.882 16.8237 65.7904 16.7281C65.6975 16.6313 65.6086 16.4521 65.5914 16.33C65.5715 16.1828 65.7546 16.2889 66.1195 16.6366ZM12.4397 30.2383C12.4676 30.5674 12.4676 31.1646 12.4411 31.5653C12.4145 31.9661 12.392 31.698 12.392 30.9682C12.3906 30.2383 12.4132 29.9092 12.4397 30.2383Z" fill="#EEBB3A"/>
<path fill-rule="evenodd" clip-rule="evenodd" d="M8.8549 29.2395C8.88277 29.5314 8.88277 29.9786 8.8549 30.2347C8.82571 30.4909 8.80315 30.252 8.80315 29.7039C8.80315 29.1559 8.82571 28.9476 8.8549 29.2395ZM64.5583 31.4874L62.7669 31.5299C61.5527 31.5591 60.9436 31.6254 60.8786 31.7329C60.8131 31.8409 60.7799 31.817 60.7791 31.6613C60.7764 31.4489 60.9436 31.4317 64.5583 31.4874ZM35.8952 32.553C40.4932 32.553 42.4041 32.5703 40.1416 32.5902C37.879 32.6101 34.117 32.6101 31.7815 32.5902C29.4459 32.5703 31.2971 32.553 35.8952 32.553ZM47.2025 34.6138C47.2264 35.0876 47.1999 35.5189 47.1441 35.5693C47.0884 35.621 47.0446 35.4419 47.0486 35.1712C47.0526 34.9018 47.0791 34.4718 47.1083 34.2157C47.1415 33.9105 47.1747 34.0472 47.2025 34.6138ZM28.2649 34.2609C28.813 34.2609 29.0213 34.2834 28.7294 34.3126C28.4374 34.3405 27.9889 34.3405 27.7341 34.3126C27.4793 34.2834 27.7182 34.2609 28.2649 34.2609ZM57.1935 36.6043C57.2638 36.7132 57.3236 36.9679 57.3236 37.1683C57.3249 37.3687 57.2665 37.5638 57.1935 37.5996C57.1139 37.6394 57.0621 37.4125 57.0635 37.0356C57.0648 36.5791 57.1006 36.461 57.1935 36.6043ZM75.7051 37.313C76.289 37.313 76.5571 37.3355 76.3023 37.3647C76.0475 37.3926 75.5698 37.3926 75.2407 37.3647C74.9116 37.3368 75.1213 37.3143 75.7051 37.313ZM79.9648 37.4005C79.994 37.4005 80.0099 37.8039 80.0006 38.2963C79.986 39.1455 79.9794 39.1615 79.8905 38.5948C79.8387 38.2657 79.8228 37.8637 79.8547 37.6991C79.8852 37.5346 79.9356 37.4005 79.9648 37.4005ZM69.7336 44.8835C70.7554 44.8848 71.1442 44.9047 70.5962 44.9299C70.0495 44.9551 69.2135 44.9551 68.7384 44.9299C68.2633 44.9047 68.7119 44.8835 69.7336 44.8835ZM80.1121 49.3767C80.128 49.3581 80.1134 49.4032 80.0789 49.4762C80.0391 49.5638 70.6864 49.5983 24.6157 49.5439L52.35 49.4762C67.6038 49.4391 80.0975 49.394 80.1121 49.3767Z" fill="#565C68"/>
<path d="M67.9584 37.9675C67.8934 37.8401 67.7686 37.5216 67.6824 37.2602L67.5245 36.7852L68.2649 36.8953C68.6723 36.9563 69.1699 37.0691 69.3703 37.1474C69.5707 37.2244 69.8706 37.4195 70.0378 37.5787C70.2037 37.7379 70.3377 37.9423 70.3364 38.0339C70.3337 38.1254 70.2382 38.2886 70.1241 38.3988C70.0086 38.5076 69.71 38.5978 69.4606 38.5978C69.2098 38.5978 68.7957 38.5076 68.541 38.3988C68.2862 38.2886 68.0234 38.0949 67.9584 37.9675Z" fill="#FCFBF4"/>
<path d="M79.3215 40.7343C79.7421 40.5578 80.1429 40.3641 80.2119 40.303C80.2809 40.2407 80.3711 40.1876 80.4109 40.1849C80.4508 40.1809 80.5742 40.2752 80.683 40.3946C80.8595 40.5857 80.8595 40.6228 80.683 40.7263C80.5742 40.79 80.0659 40.9081 79.555 40.9891C79.0441 41.0687 78.6115 41.1165 78.5916 41.0939C78.5731 41.0714 78.9022 40.9095 79.3215 40.7343Z" fill="#FCFBF4"/>
<path d="M64.8015 40.8604C64.1154 40.8657 64.0491 40.8431 64.2096 40.6613C64.3344 40.5193 64.6356 40.4556 65.181 40.4556C65.8843 40.4556 65.9506 40.4782 65.7728 40.6547C65.6441 40.7847 65.3044 40.8564 64.8015 40.8604Z" fill="#FCFBF4"/>
<path d="M75.0432 41.1138C74.2776 41.1059 73.9445 41.0607 74.1143 40.9904C74.2603 40.9307 74.7686 40.9135 75.2423 40.9519C75.7174 40.9917 76.1354 41.0475 76.1712 41.0753C76.2084 41.1032 75.7001 41.1205 75.0432 41.1138Z" fill="#FCFBF4"/>
<path d="M58.4889 43.8222C58.6163 43.5568 58.8711 43.2609 59.0529 43.164C59.236 43.0672 59.5638 42.9836 59.7827 42.9783C60.0349 42.9716 60.3149 43.0924 60.5458 43.3047C60.7462 43.4892 60.9704 43.7904 61.0434 43.9722C61.1164 44.1553 61.1761 44.5428 61.1761 44.8347C61.1761 45.1267 61.0713 45.5832 60.9439 45.8486C60.8165 46.114 60.5471 46.4125 60.3467 46.5121C60.1463 46.6116 59.8478 46.6952 59.6832 46.6978C59.5187 46.7005 59.2201 46.5811 59.0197 46.4324C58.8193 46.2838 58.5659 45.9826 58.4557 45.7636C58.3469 45.5447 58.2567 45.1267 58.2567 44.8347C58.2567 44.5428 58.3615 44.0876 58.4889 43.8222Z" fill="#FCFBF4"/>
<path d="M69.6026 43.7373C69.3106 43.7665 68.8926 43.7652 68.6737 43.736C68.4547 43.7068 68.6936 43.6842 69.2045 43.6842C69.7153 43.6842 69.8945 43.7081 69.6026 43.7373Z" fill="#FCFBF4"/>
<path d="M58.8538 47.2286C58.6349 47.0893 58.3376 46.7788 58.1943 46.5359C57.9382 46.106 57.9449 46.1087 58.4597 46.6368C58.749 46.934 59.1657 47.222 59.3846 47.2777C59.6036 47.3321 59.9619 47.3441 60.1808 47.303C60.3998 47.2618 60.7581 47.0946 60.977 46.9314C61.2756 46.7085 61.3247 46.6952 61.1761 46.8783C61.0673 47.0123 60.8125 47.2048 60.6121 47.3056C60.4117 47.4065 60.0229 47.4874 59.7496 47.4847C59.4762 47.4821 59.0728 47.368 58.8538 47.2286Z" fill="#FCFBF4"/>
<path d="M64.2626 32.2298C63.8062 32.0838 63.4412 31.9259 63.4518 31.8795C63.4611 31.833 64.402 31.8264 65.5419 31.8649C67.0984 31.918 67.7779 31.9963 68.9403 32.4275L67.0162 32.462C65.3853 32.4926 64.966 32.4567 64.2626 32.2298Z" fill="#11313D"/>
<path d="M47.7402 33.9297C47.7229 33.8806 47.8291 33.8129 47.9751 33.7797C48.1197 33.7466 48.4926 33.7121 48.8031 33.7041C49.1136 33.6948 49.517 33.7479 49.6988 33.8209C49.882 33.8939 50.0001 34.0133 49.9642 34.0863C49.9284 34.1593 49.6139 34.2203 49.2676 34.2203C48.9212 34.2216 48.4422 34.1765 48.2033 34.1208C47.9644 34.0651 47.7561 33.9801 47.7402 33.9297Z" fill="#11313D"/>
<path d="M70.8976 36.2838C70.8432 36.2506 70.1413 36.0463 69.3384 35.8286C68.5356 35.611 67.9981 35.4292 68.1441 35.4226C68.2901 35.4173 69.0664 35.5977 69.8692 35.826C71.2904 36.2281 71.3276 36.248 71.2758 36.589C71.2228 36.934 71.2214 36.9354 71.11 36.6408C71.0476 36.4762 70.952 36.3156 70.8976 36.2838Z" fill="#11313D"/>
<path d="M75.4094 41.6356C76.0119 41.6276 77.0708 41.5772 77.7649 41.5241C78.4589 41.471 79.279 41.418 79.5895 41.406C80.1482 41.3848 80.1548 41.3901 80.2941 41.9488C80.3711 42.2593 80.468 42.6322 80.5091 42.7781C80.5754 43.013 80.5449 43.0064 80.2397 42.7118C79.965 42.4464 79.8615 42.4132 79.7262 42.5446C79.6333 42.6348 79.0189 42.7688 78.362 42.8405C77.7051 42.9135 76.5254 42.9732 75.7412 42.9745C74.9569 42.9759 74.1647 42.9175 73.9829 42.8445C73.6923 42.7277 73.6087 42.7649 72.9611 43.5743L73.273 42.9905C73.4442 42.6706 73.7494 42.2367 73.9497 42.0284C74.2894 41.6754 74.389 41.6489 75.4094 41.6356Z" fill="#11313D"/>
<path d="M67.4647 42.7038C67.6757 42.4052 68.034 42.0788 68.2609 41.9766C68.5475 41.8492 69.1845 41.7975 70.3337 41.8054C71.2466 41.8121 71.7854 41.8545 71.5319 41.8997C71.1458 41.9687 71.0078 42.0974 70.254 43.4416H68.7798C67.969 43.4416 67.255 43.3978 67.194 43.3448C67.1329 43.2904 67.255 43.0024 67.4647 42.7038Z" fill="#11313D"/>
<path d="M53.9888 28.9479C53.9756 28.7768 54.0711 28.6003 54.2197 28.5206C54.3604 28.4463 54.7426 28.3932 55.6688 28.4185L55.008 28.4981C54.4785 28.5604 54.3153 28.6427 54.1813 28.9081C54.018 29.2306 54.0127 29.2319 53.9888 28.9479Z" fill="#C1C3C5"/>
<path d="M65.1993 40.4265C64.6862 40.4088 64.9153 40.3707 65.8867 40.3124C66.6895 40.2646 67.7047 40.2473 68.1426 40.2739C68.5805 40.3004 69.3263 40.3283 69.8014 40.3362C70.5113 40.3495 70.5936 40.3721 70.2658 40.4636C70.0137 40.5353 70.3308 40.5512 71.1284 40.5087C71.8861 40.4689 72.7738 40.5101 73.3537 40.6136C73.8832 40.7078 74.3171 40.8299 74.3158 40.8843C74.3145 40.9387 74.1486 41.0143 73.9482 41.0515C73.7479 41.0886 71.7029 41.0886 69.4033 41.0515C67.1036 41.0143 65.1927 40.9533 65.1569 40.9148C65.1197 40.875 65.1993 40.8458 65.332 40.8471C65.4647 40.8498 65.6638 40.7622 65.7726 40.6521C65.9504 40.4756 65.8867 40.4504 65.1993 40.4265Z" fill="#C1C3C5"/>
<path d="M70.0203 43.8515C69.0529 43.8634 68.9415 43.8475 69.4696 43.7732C69.8345 43.7214 70.3574 43.6697 70.6307 43.659C70.9041 43.6471 71.1522 43.6829 71.1814 43.7373C71.2106 43.7917 70.6878 43.8435 70.0203 43.8515Z" fill="#C1C3C5"/>
<path d="M66.3145 36.0331C65.8195 35.8739 65.4161 35.6695 65.4187 35.578C65.4214 35.4599 65.7186 35.4121 66.4511 35.4121C67.0908 35.4121 68.0064 35.5382 68.8729 35.7465C69.6386 35.9296 70.4335 36.1539 70.6365 36.2441C70.8395 36.333 71.0041 36.4074 71.0014 36.4074C70.9988 36.4074 71.1447 36.8108 71.3279 37.3031C71.5097 37.7954 71.6145 38.2267 71.5601 38.2598C71.5057 38.293 71.162 38.0223 70.7971 37.6574C70.314 37.1744 69.9531 36.9421 69.4701 36.8081C69.1051 36.7059 68.4483 36.556 68.0104 36.4737C67.5725 36.3901 66.8094 36.1924 66.3145 36.0331Z" fill="#EEBB3A"/>
<path d="M66.6834 37.948C66.3185 37.5685 65.9058 37.0815 65.7651 36.8652C65.5355 36.5122 65.5315 36.4737 65.7319 36.4737C65.854 36.4737 66.2149 36.7869 66.5348 37.1704C66.8546 37.5539 67.3734 38.0462 67.6866 38.2652C68.0011 38.4841 68.65 38.7615 69.129 38.8809C69.6081 39.0016 70.0301 39.1755 70.0672 39.2684C70.119 39.3984 69.9704 39.4143 69.4037 39.336C69.0016 39.2816 68.3753 39.1025 68.0104 38.9379C67.6454 38.7721 67.0483 38.3275 66.6834 37.948Z" fill="#EEBB3A"/>
<path d="M28.4332 40.034C28.2328 39.8031 27.8891 39.5377 27.6701 39.4422C27.4512 39.348 27.3463 39.2683 27.4379 39.2657C27.5295 39.263 27.7829 39.3506 28.0019 39.4594C28.2208 39.5682 28.5194 39.8668 28.6654 40.1229C28.8113 40.379 28.8989 40.6325 28.8604 40.6869C28.822 40.7413 28.7928 40.7121 28.7941 40.6205C28.7968 40.529 28.6335 40.2662 28.4332 40.034Z" fill="#A6AAAF"/>
<path d="M20.8361 40.5874C20.7631 40.2225 20.7113 39.8575 20.722 39.7766C20.7326 39.6956 20.8653 39.6611 21.0205 39.7009C21.1745 39.7394 22.0795 39.8443 24.7653 40.099L24.8171 42.1798L24.3858 42.1041C24.1483 42.063 23.506 41.9369 22.9593 41.8241C22.4112 41.7113 21.7398 41.5349 21.4664 41.434C21.0152 41.2681 20.9568 41.1885 20.8361 40.5874Z" fill="#A6AAAF"/>
<path d="M26.2436 41.2973C26.371 41.0306 26.5953 40.7307 26.7412 40.6325C26.8872 40.533 27.0955 40.452 27.2057 40.452C27.3158 40.452 27.5388 40.5423 27.7033 40.6524C27.8679 40.7625 28.0908 41.0319 28.2009 41.2509C28.3164 41.4818 28.4 42.0099 28.4 42.5115C28.4 42.9853 28.3403 43.4046 28.2673 43.4404C28.1943 43.4763 28.1651 43.5665 28.2009 43.6395C28.2368 43.7125 28.2076 43.7722 28.1346 43.7722C28.0616 43.7722 28.0457 43.8465 28.1001 43.938C28.1571 44.0349 28.1439 44.0681 28.0669 44.0177C27.9952 43.9712 27.8612 44.0163 27.7697 44.1172C27.6781 44.2194 27.6489 44.3335 27.7033 44.3706C27.7577 44.4078 27.6529 44.3985 27.4711 44.3507C27.288 44.3016 26.9894 44.1543 26.8076 44.0203C26.6245 43.8876 26.4267 43.8226 26.367 43.8757C26.3073 43.9274 26.306 43.8518 26.3644 43.7058C26.4413 43.5121 26.4267 43.467 26.3073 43.5399C26.1879 43.6129 26.1693 43.5585 26.2383 43.3409C26.2954 43.1591 26.2834 43.0768 26.2051 43.1299C26.1295 43.1817 26.0645 42.9242 26.0446 42.4996C26.0233 42.0298 26.091 41.6145 26.2436 41.2973Z" fill="#A6AAAF"/>
<path d="M30.0003 41.8148C29.8584 41.3225 29.6991 40.8143 29.6474 40.6869C29.5677 40.4932 29.6261 40.4547 30.0043 40.4547C30.2538 40.456 35.234 40.7811 41.0728 41.1792C46.9116 41.576 52.3165 41.9422 54.4755 42.0802L54.4304 43.2254C54.4052 43.8544 54.4463 44.5179 54.5206 44.7011C54.6294 44.9638 54.66 44.7794 54.6666 43.8053C54.6706 43.1299 54.7051 42.4876 54.7409 42.3788C54.7767 42.27 54.9559 42.1798 55.139 42.1798C55.4509 42.1798 55.4655 42.2103 55.3792 42.6774C55.3288 42.9508 55.2837 43.6076 55.2797 44.1371C55.2757 44.6851 55.2146 45.0992 55.139 45.0992C55.066 45.0992 54.2897 45.0116 53.4139 44.9041C52.5381 44.7979 50.3286 44.5578 48.504 44.3733C46.6794 44.1875 41.9022 43.7377 37.888 43.3727C33.8738 43.0078 30.5152 42.7092 30.4237 42.7092C30.3321 42.7106 30.1423 42.3072 30.0003 41.8148Z" fill="#A6AAAF"/>
<path d="M60.9645 40.9311C60.6806 40.7917 60.1179 40.6351 59.7172 40.5834L58.9873 40.4892L59.7835 40.4733C60.4417 40.46 60.7005 40.5263 61.2764 40.8541C61.6599 41.0717 62.0872 41.4154 62.2278 41.6158C62.3672 41.8162 62.6047 42.2488 62.7547 42.5779C62.9059 42.907 63.0267 43.2653 63.024 43.3741C63.0214 43.4829 62.8847 43.2745 62.7202 42.9096C62.5556 42.5447 62.2106 42.0073 61.9518 41.7153C61.6944 41.4234 61.2498 41.0704 60.9645 40.9311Z" fill="#A6AAAF"/>
<path d="M58.4127 42.7769C58.6516 42.558 58.9395 42.3403 59.051 42.2939C59.1611 42.2461 59.473 42.2143 59.7424 42.2222C60.0131 42.2302 60.236 42.2833 60.24 42.3417C60.2453 42.3987 60.3077 42.416 60.3807 42.3788C60.4536 42.343 60.512 42.3881 60.5094 42.4783C60.508 42.5699 60.5372 42.6004 60.5757 42.5447C60.6142 42.4903 60.8239 42.6097 61.0415 42.8101C61.2578 43.0118 61.4078 43.2201 61.3733 43.2745C61.3374 43.3303 61.2206 43.3144 61.1105 43.2414C60.9778 43.1529 60.8893 43.1529 60.8451 43.2414C60.804 43.3223 60.662 43.2971 60.4802 43.1737C60.3156 43.0649 59.9573 42.9746 59.684 42.9746C59.3562 42.976 59.0616 43.0821 58.8214 43.2865C58.6051 43.4709 58.3888 43.8505 58.2906 44.2154C58.1646 44.6878 58.1606 44.9678 58.2734 45.3977C58.361 45.7255 58.5972 46.121 58.8374 46.3426C59.1943 46.669 59.339 46.7155 59.8711 46.6743C60.4523 46.6292 60.4762 46.6398 60.2692 46.8508C60.0635 47.0618 60.0662 47.0804 60.3143 47.1348C60.4603 47.1666 60.2665 47.1985 59.883 47.2078C59.2527 47.221 59.1346 47.1759 58.6463 46.7247C58.349 46.4514 58.0359 46.0068 57.9496 45.7375C57.8633 45.4668 57.7479 45.273 57.6935 45.3062C57.6391 45.338 57.594 45.1708 57.5926 44.9333C57.5913 44.6971 57.6789 44.2034 57.785 43.8385C57.9058 43.4218 58.1394 43.0277 58.4127 42.7769Z" fill="#A6AAAF"/>
<path d="M61.3932 43.7722C61.4038 43.6634 61.4184 43.5293 61.4263 43.4736C61.4356 43.4192 61.4701 43.3741 61.5033 43.3741C61.5378 43.3741 61.5378 43.4338 61.5033 43.5068C61.4701 43.5798 61.502 43.6395 61.575 43.6395C61.6479 43.6395 61.6771 43.6992 61.6413 43.7722C61.6055 43.8452 61.6254 43.9208 61.6864 43.938C61.7488 43.9566 61.778 44.1955 61.7528 44.4688C61.7227 44.8015 61.6413 44.9674 61.5086 44.9665C61.3985 44.9665 61.2883 45.0421 61.2618 45.1323C61.2366 45.2239 61.2299 45.2093 61.2485 45.0992C61.2671 44.9904 61.2286 44.6772 61.1636 44.4025C61.0734 44.0256 61.084 43.9128 61.21 43.938C61.3016 43.9566 61.3839 43.8823 61.3932 43.7722Z" fill="#A6AAAF"/>
<path d="M60.8451 46.4262C60.6965 46.4262 60.6779 46.3678 60.7721 46.1939C60.8411 46.0666 61.0495 45.9617 61.2352 45.9617C61.421 45.9617 61.6028 46.0374 61.64 46.1276C61.6771 46.2192 61.6479 46.2643 61.575 46.2271C61.502 46.1913 61.3812 46.2961 61.3056 46.4593C61.2299 46.6239 61.0362 46.8415 60.8743 46.9424C60.5903 47.1215 60.5877 47.1189 60.808 46.876C60.934 46.738 61.0388 46.5814 61.0402 46.5257C61.0428 46.4713 60.9552 46.4262 60.8451 46.4262Z" fill="#A6AAAF"/>
<path d="M68.8071 46.6571C68.4422 46.6836 67.8755 46.6836 67.5465 46.6571C67.2174 46.6292 67.5159 46.6066 68.21 46.6066C68.904 46.6066 69.172 46.6292 68.8071 46.6571Z" fill="#A6AAAF"/>
<path d="M75.8399 43.0727C75.5479 43.1005 75.1299 43.1005 74.9109 43.0713C74.692 43.0421 74.9309 43.0183 75.4418 43.0196C75.9526 43.0196 76.1318 43.0435 75.8399 43.0727Z" fill="#8D949C"/>
<path d="M65.4888 32.5699L67.2139 32.4916C68.1627 32.4478 68.9535 32.4014 68.9721 32.3854C68.9907 32.3708 69.0053 32.4186 69.0053 32.4916C69.0053 32.5752 68.3484 32.6137 65.4888 32.5699Z" fill="#565C68"/>
<path d="M72.3467 41.7487C72.2578 41.8045 71.5744 41.8151 70.8273 41.7713L69.4698 41.693L70.9892 41.6704C71.8252 41.6585 72.4356 41.693 72.3467 41.7487Z" fill="#565C68"/>
<path d="M26.4065 42.611C26.4079 42.2062 26.5047 41.8227 26.6799 41.5414C26.8935 41.1964 27.0276 41.1101 27.2996 41.1433C27.5358 41.1712 27.7282 41.3331 27.9021 41.6489C28.1024 42.0138 28.1356 42.2407 28.06 42.7105C28.0029 43.0635 27.837 43.4297 27.6552 43.6062C27.4854 43.7708 27.285 43.9048 27.2094 43.9048C27.1324 43.9048 26.9214 43.7562 26.7383 43.573C26.4769 43.3116 26.4065 43.1073 26.4065 42.611Z" fill="#FCFBF4"/>
<path d="M58.705 44.4016C58.7515 44.2012 58.9081 43.9172 59.054 43.7713C59.2 43.6253 59.4681 43.5059 59.6512 43.5059C59.8436 43.5059 60.1249 43.6598 60.3187 43.8708C60.5748 44.1481 60.6557 44.379 60.6557 44.8329C60.6557 45.2257 60.5628 45.5547 60.385 45.7949C60.2085 46.0351 59.9909 46.1612 59.7507 46.1652C59.5503 46.1691 59.2491 46.0643 59.0832 45.9329C58.9174 45.8029 58.7448 45.4871 58.7011 45.231C58.6573 44.9748 58.6586 44.602 58.705 44.4016Z" fill="#11313D"/>
<path d="M68.4725 42.9069C68.2947 42.7066 68.3013 42.6641 68.5348 42.4982C68.6795 42.3974 68.9489 42.3151 69.132 42.3164C69.3165 42.3164 69.5566 42.3748 69.6668 42.4451C69.8207 42.542 69.8327 42.6256 69.7199 42.8074C69.6376 42.9401 69.3748 43.0622 69.1227 43.0874C68.8228 43.1157 68.6061 43.0556 68.4725 42.9069Z" fill="#A6AAAF"/>
<path d="M26.6055 42.5109C26.6055 42.2043 26.6864 41.8553 26.7859 41.7346C26.8855 41.6138 27.0792 41.5156 27.2172 41.5156C27.3552 41.5156 27.5277 41.6351 27.6007 41.781C27.6737 41.927 27.7334 42.2853 27.7334 42.5772C27.7334 42.8864 27.6471 43.1916 27.5251 43.3071C27.4096 43.4172 27.2464 43.5088 27.1601 43.5114C27.0739 43.5154 26.9146 43.4159 26.8045 43.2925C26.6944 43.1691 26.6055 42.8174 26.6055 42.5109Z" fill="#11313D"/>
<path d="M206.948 18.8231C206.322 18.8231 205.762 18.9468 205.267 19.1943C204.787 19.4417 204.379 19.7983 204.044 20.2641C203.709 20.7153 203.455 21.2683 203.28 21.9233C203.12 22.5783 203.04 23.3133 203.04 24.1284C203.04 25.2345 203.171 26.1806 203.433 26.9666C203.71 27.738 204.139 28.3275 204.721 28.735C205.303 29.1425 206.046 29.3463 206.948 29.3463C207.588 29.3463 208.222 29.2735 208.847 29.128C209.488 28.9824 210.179 28.7787 210.921 28.5167V31.2894C210.237 31.5659 209.561 31.7697 208.891 31.9007C208.222 32.0317 207.472 32.0972 206.642 32.0972C205.041 32.0972 203.717 31.7697 202.669 31.1147C201.635 30.4452 200.871 29.5137 200.376 28.3202C199.882 27.1121 199.634 25.7076 199.634 24.1065C199.634 22.9276 199.794 21.8505 200.114 20.8754C200.435 19.8856 200.9 19.0342 201.512 18.321C202.138 17.6078 202.902 17.0547 203.804 16.6617C204.721 16.2688 205.769 16.0723 206.948 16.0723C207.719 16.0723 208.491 16.1741 209.262 16.3779C210.048 16.5671 210.798 16.8291 211.511 17.1639L210.441 19.8493C209.859 19.5727 209.269 19.3326 208.673 19.1288C208.091 18.925 207.516 18.8231 206.948 18.8231Z" fill="#EEBB3A"/>
<path d="M198.799 31.8832H195.044L189.389 23.9799V31.8832H186.092V16.2949H189.389V23.8489L194.978 16.2949H198.493L192.817 23.7834L198.799 31.8832Z" fill="#EEBB3A"/>
<path d="M182.851 24.0632C182.851 25.2713 182.713 26.3702 182.436 27.3599C182.16 28.3351 181.73 29.1793 181.148 29.8925C180.581 30.6056 179.86 31.1514 178.987 31.5299C178.113 31.9083 177.087 32.0975 175.908 32.0975C174.453 32.0975 173.23 31.8137 172.241 31.2461C171.265 30.6639 170.509 29.8561 169.97 28.8227C169.446 27.7747 169.126 26.5521 169.009 25.1548H166.018V31.8792H162.722V16.2909H166.018V22.404H169.075C169.235 21.1086 169.584 19.9879 170.123 19.0418C170.676 18.0812 171.433 17.3462 172.393 16.8367C173.354 16.3128 174.533 16.0508 175.93 16.0508C177.502 16.0508 178.798 16.3855 179.816 17.0551C180.85 17.71 181.614 18.6415 182.109 19.8496C182.604 21.0431 182.851 22.4476 182.851 24.0632ZM172.393 24.0632C172.393 25.1548 172.517 26.0936 172.765 26.8796C173.012 27.6656 173.398 28.2696 173.922 28.6917C174.446 29.1138 175.108 29.3248 175.908 29.3248C176.738 29.3248 177.415 29.1138 177.939 28.6917C178.463 28.2696 178.841 27.6656 179.074 26.8796C179.322 26.0936 179.445 25.1548 179.445 24.0632C179.445 22.9716 179.322 22.0328 179.074 21.2469C178.841 20.4609 178.463 19.8569 177.939 19.4348C177.429 19.0127 176.767 18.8016 175.952 18.8016C175.137 18.8016 174.46 19.0127 173.922 19.4348C173.398 19.8569 173.012 20.4609 172.765 21.2469C172.517 22.0328 172.393 22.9716 172.393 24.0632Z" fill="#EEBB3A"/>
<path d="M158.799 31.8832H155.502V19.0458H151.681C151.594 19.7153 151.499 20.4431 151.397 21.229C151.31 22.015 151.208 22.8155 151.092 23.6306C150.99 24.4311 150.881 25.1952 150.764 25.923C150.648 26.6361 150.531 27.2693 150.415 27.8224C150.226 28.7248 149.971 29.4962 149.651 30.1366C149.345 30.777 148.916 31.2646 148.363 31.5994C147.824 31.9341 147.118 32.1015 146.245 32.1015C145.954 32.1015 145.677 32.0797 145.415 32.036C145.153 31.9923 144.906 31.9341 144.673 31.8613V29.1541C144.862 29.2124 145.044 29.2633 145.219 29.307C145.408 29.3506 145.612 29.3725 145.83 29.3725C146.121 29.3725 146.361 29.2779 146.551 29.0886C146.74 28.8994 146.907 28.5792 147.053 28.128C147.198 27.6623 147.344 27.0219 147.489 26.2068C147.562 25.8575 147.65 25.3626 147.751 24.7222C147.853 24.0672 147.97 23.3031 148.101 22.4298C148.246 21.5419 148.392 20.5813 148.537 19.5479C148.683 18.5 148.821 17.4156 148.952 16.2949H158.799V31.8832Z" fill="#EEBB3A"/>
<path d="M143.651 24.0632C143.651 25.2713 143.498 26.3702 143.192 27.3599C142.901 28.3351 142.45 29.1793 141.839 29.8925C141.242 30.6056 140.47 31.1514 139.524 31.5299C138.593 31.9083 137.494 32.0975 136.228 32.0975C134.961 32.0975 133.855 31.9083 132.909 31.5299C131.978 31.1369 131.206 30.5911 130.595 29.8925C129.998 29.1793 129.547 28.3278 129.241 27.3381C128.95 26.3483 128.805 25.2495 128.805 24.0414C128.805 22.4258 129.067 21.0213 129.591 19.8278C130.129 18.6343 130.944 17.71 132.036 17.0551C133.142 16.3855 134.547 16.0508 136.249 16.0508C137.938 16.0508 139.328 16.3855 140.419 17.0551C141.511 17.71 142.319 18.6415 142.843 19.8496C143.381 21.0431 143.651 22.4476 143.651 24.0632ZM132.276 24.0632C132.276 25.1548 132.414 26.0936 132.691 26.8796C132.967 27.6656 133.397 28.2696 133.979 28.6917C134.561 29.1138 135.311 29.3248 136.228 29.3248C137.174 29.3248 137.931 29.1138 138.498 28.6917C139.08 28.2696 139.502 27.6656 139.764 26.8796C140.041 26.0936 140.179 25.1548 140.179 24.0632C140.179 22.4185 139.874 21.1304 139.262 20.1989C138.651 19.2674 137.647 18.8016 136.249 18.8016C135.318 18.8016 134.561 19.0127 133.979 19.4348C133.397 19.8569 132.967 20.4609 132.691 21.2469C132.414 22.0328 132.276 22.9716 132.276 24.0632Z" fill="#11313D"/>
<path d="M123.297 31.8832H120V19.0458H115.764V16.2949H127.532V19.0458H123.297V31.8832Z" fill="#11313D"/>
<path d="M107.473 16.2949C108.856 16.2949 110.013 16.4259 110.945 16.6879C111.891 16.9353 112.597 17.3501 113.063 17.9323C113.543 18.5 113.783 19.2714 113.783 20.2466C113.783 20.8288 113.688 21.36 113.499 21.8403C113.31 22.3206 113.033 22.7136 112.67 23.0193C112.32 23.3249 111.891 23.5214 111.381 23.6087V23.7179C111.905 23.8198 112.378 24.0017 112.801 24.2637C113.223 24.5257 113.557 24.9041 113.805 25.399C114.052 25.8939 114.176 26.5488 114.176 27.3639C114.176 28.31 113.943 29.125 113.477 29.8091C113.026 30.4786 112.371 30.9953 111.512 31.3592C110.654 31.7085 109.635 31.8832 108.456 31.8832H102.627V16.2949H107.473ZM107.845 22.4735C108.805 22.4735 109.468 22.3206 109.831 22.015C110.21 21.7093 110.399 21.2654 110.399 20.6832C110.399 20.0865 110.181 19.6571 109.744 19.3951C109.307 19.1331 108.616 19.0021 107.67 19.0021H105.923V22.4735H107.845ZM105.923 25.0933V29.1541H108.085C109.075 29.1541 109.766 28.9649 110.159 28.5865C110.552 28.1935 110.748 27.6768 110.748 27.0364C110.748 26.6434 110.661 26.3014 110.486 26.0103C110.326 25.7192 110.042 25.4936 109.635 25.3335C109.227 25.1734 108.674 25.0933 107.976 25.0933H105.923Z" fill="#11313D"/>
<path d="M97.1007 31.8862L95.9654 28.1747H90.289L89.1537 31.8862H85.595L91.0968 16.2324H95.1358L100.659 31.8862H97.1007ZM94.0441 21.7778C93.9714 21.5304 93.8768 21.2175 93.7603 20.839C93.6439 20.4606 93.5274 20.0749 93.411 19.6819C93.2946 19.2889 93.2 18.9469 93.1272 18.6558C93.0544 18.9469 92.9525 19.3108 92.8215 19.7474C92.7051 20.1695 92.5887 20.577 92.4722 20.97C92.3703 21.3485 92.2903 21.6177 92.2321 21.7778L91.1186 25.402H95.1794L94.0441 21.7778Z" fill="#11313D"/>
<path d="M212.206 43.0444H209.965C209.924 42.7545 209.84 42.4969 209.714 42.2718C209.588 42.0432 209.426 41.8488 209.228 41.6885C209.03 41.5282 208.802 41.4054 208.542 41.3201C208.287 41.2348 208.009 41.1922 207.708 41.1922C207.166 41.1922 206.694 41.3269 206.291 41.5964C205.889 41.8625 205.576 42.2513 205.355 42.763C205.133 43.2713 205.022 43.8887 205.022 44.6153C205.022 45.3623 205.133 45.99 205.355 46.4983C205.58 47.0065 205.894 47.3903 206.296 47.6495C206.699 47.9088 207.164 48.0384 207.693 48.0384C207.99 48.0384 208.264 47.9992 208.517 47.9207C208.773 47.8423 209 47.728 209.197 47.5779C209.395 47.4244 209.559 47.2385 209.689 47.0202C209.822 46.8019 209.914 46.5528 209.965 46.2731L212.206 46.2834C212.148 46.7643 212.003 47.2283 211.771 47.6751C211.543 48.1186 211.234 48.516 210.845 48.8673C210.46 49.2153 209.999 49.4916 209.463 49.6963C208.931 49.8975 208.329 49.9981 207.657 49.9981C206.723 49.9981 205.887 49.7867 205.15 49.3637C204.417 48.9407 203.837 48.3284 203.41 47.5267C202.987 46.7251 202.776 45.7546 202.776 44.6153C202.776 43.4725 202.991 42.5003 203.421 41.6987C203.85 40.8971 204.434 40.2865 205.17 39.8669C205.907 39.4439 206.736 39.2324 207.657 39.2324C208.264 39.2324 208.827 39.3177 209.346 39.4883C209.868 39.6588 210.33 39.9078 210.732 40.2353C211.135 40.5594 211.462 40.9568 211.715 41.4275C211.971 41.8983 212.134 42.4372 212.206 43.0444Z" fill="#11313D"/>
<path d="M189.659 39.3757V49.8549H187.444V39.3757H189.659ZM191.911 43.9348V45.6642H188.564V43.9348H191.911ZM201.034 44.6153C201.034 45.758 200.817 46.7302 200.384 47.5319C199.954 48.3335 199.368 48.9458 198.624 49.3688C197.884 49.7884 197.051 49.9981 196.127 49.9981C195.196 49.9981 194.36 49.7867 193.62 49.3637C192.88 48.9407 192.295 48.3284 191.865 47.5267C191.435 46.7251 191.22 45.7546 191.22 44.6153C191.22 43.4725 191.435 42.5003 191.865 41.6987C192.295 40.8971 192.88 40.2865 193.62 39.8669C194.36 39.4439 195.196 39.2324 196.127 39.2324C197.051 39.2324 197.884 39.4439 198.624 39.8669C199.368 40.2865 199.954 40.8971 200.384 41.6987C200.817 42.5003 201.034 43.4725 201.034 44.6153ZM198.788 44.6153C198.788 43.8751 198.677 43.2508 198.455 42.7425C198.237 42.2343 197.928 41.8488 197.529 41.5861C197.13 41.3235 196.663 41.1922 196.127 41.1922C195.592 41.1922 195.124 41.3235 194.725 41.5861C194.326 41.8488 194.016 42.2343 193.794 42.7425C193.575 43.2508 193.466 43.8751 193.466 44.6153C193.466 45.3555 193.575 45.9798 193.794 46.488C194.016 46.9963 194.326 47.3818 194.725 47.6444C195.124 47.9071 195.592 48.0384 196.127 48.0384C196.663 48.0384 197.13 47.9071 197.529 47.6444C197.928 47.3818 198.237 46.9963 198.455 46.488C198.677 45.9798 198.788 45.3555 198.788 44.6153Z" fill="#11313D"/>
<path d="M176.062 49.8581V48.0775L176.358 48.0519C176.74 48.0212 177.049 47.8762 177.284 47.6169C177.52 47.3543 177.695 46.9364 177.811 46.3633C177.931 45.7868 178.008 45.0125 178.042 44.0403L178.216 39.3789H185.328V49.8581H183.174V41.1544H180.273L180.109 44.8027C180.054 45.9762 179.914 46.9347 179.689 47.6783C179.468 48.422 179.113 48.9712 178.625 49.3259C178.141 49.6807 177.477 49.8581 176.635 49.8581H176.062Z" fill="#11313D"/>
<path d="M174.243 39.3789V49.8581H172.053V41.18H167.816V49.8581H165.627V39.3789H174.243Z" fill="#11313D"/>
<path d="M163.14 43.7461V45.4756H158.361V43.7461H163.14Z" fill="#11313D"/>
<path d="M147.39 39.3789H149.6V45.9693H149.687L154.216 39.3789H156.155V49.8581H153.939V43.2626H153.863L149.309 49.8581H147.39V39.3789Z" fill="#11313D"/>
<path d="M145.528 43.0444H143.287C143.246 42.7545 143.163 42.4969 143.036 42.2718C142.91 42.0432 142.748 41.8488 142.55 41.6885C142.352 41.5282 142.124 41.4054 141.865 41.3201C141.609 41.2348 141.331 41.1922 141.031 41.1922C140.488 41.1922 140.016 41.3269 139.613 41.5964C139.211 41.8625 138.899 42.2513 138.677 42.763C138.455 43.2713 138.344 43.8887 138.344 44.6153C138.344 45.3623 138.455 45.99 138.677 46.4983C138.902 47.0065 139.216 47.3903 139.618 47.6495C140.021 47.9088 140.487 48.0384 141.015 48.0384C141.312 48.0384 141.587 47.9992 141.839 47.9207C142.095 47.8423 142.322 47.728 142.52 47.5779C142.717 47.4244 142.881 47.2385 143.011 47.0202C143.144 46.8019 143.236 46.5528 143.287 46.2731L145.528 46.2834C145.47 46.7643 145.325 47.2283 145.093 47.6751C144.865 48.1186 144.556 48.516 144.167 48.8673C143.782 49.2153 143.321 49.4916 142.786 49.6963C142.254 49.8975 141.651 49.9981 140.979 49.9981C140.045 49.9981 139.209 49.7867 138.472 49.3637C137.739 48.9407 137.159 48.3284 136.733 47.5267C136.31 46.7251 136.098 45.7546 136.098 44.6153C136.098 43.4725 136.313 42.5003 136.743 41.6987C137.173 40.8971 137.756 40.2865 138.493 39.8669C139.23 39.4439 140.058 39.2324 140.979 39.2324C141.587 39.2324 142.149 39.3177 142.668 39.4883C143.19 39.6588 143.652 39.9078 144.055 40.2353C144.457 40.5594 144.785 40.9568 145.037 41.4275C145.293 41.8983 145.457 42.4372 145.528 43.0444Z" fill="#11313D"/>
<path d="M127.508 49.8581H125.134L128.751 39.3789H131.606L135.219 49.8581H132.845L130.22 41.7736H130.138L127.508 49.8581ZM127.359 45.7391H132.967V47.4686H127.359V45.7391Z" fill="#11313D"/>
<path d="M121.554 49.8581L118.187 45.3911H117.43V49.8581H115.214V39.3789H117.43V43.5644H117.875L121.354 39.3789H124.112L120.024 44.2399L124.302 49.8581H121.554Z" fill="#11313D"/>
<path d="M105.608 49.8581V39.3789H109.743C110.537 39.3789 111.214 39.5307 111.774 39.8343C112.333 40.1345 112.76 40.5524 113.053 41.0879C113.35 41.6201 113.498 42.2341 113.498 42.93C113.498 43.6258 113.348 44.2399 113.048 44.772C112.748 45.3041 112.313 45.7186 111.743 46.0154C111.177 46.3122 110.491 46.4605 109.686 46.4605H107.051V44.685H109.328C109.754 44.685 110.106 44.6117 110.382 44.465C110.662 44.3149 110.87 44.1085 111.006 43.8459C111.146 43.5798 111.216 43.2745 111.216 42.93C111.216 42.582 111.146 42.2784 111.006 42.0192C110.87 41.7565 110.662 41.5535 110.382 41.4103C110.102 41.2636 109.748 41.1903 109.318 41.1903H107.824V49.8581H105.608Z" fill="#11313D"/>
<path d="M96.4967 49.8581V39.3789H103.558V41.2056H98.7123V43.7026H103.195V45.5293H98.7123V48.0314H103.578V49.8581H96.4967Z" fill="#11313D"/>
<path d="M85.595 39.3789H87.7492V42.756C87.7492 43.1585 87.8191 43.4826 87.959 43.7282C88.0989 43.9704 88.3155 44.146 88.6088 44.2552C88.9056 44.361 89.286 44.4138 89.7499 44.4138C89.9136 44.4138 90.1064 44.4087 90.3281 44.3985C90.5498 44.3848 90.7784 44.3661 91.0137 44.3422C91.2525 44.3183 91.4777 44.2893 91.6891 44.2552C91.9006 44.2211 92.0763 44.1819 92.2162 44.1375V45.8875C92.0729 45.9352 91.8938 45.9779 91.6789 46.0154C91.4674 46.0495 91.244 46.0802 91.0086 46.1075C90.7732 46.1314 90.5447 46.1501 90.323 46.1638C90.1012 46.1774 89.9102 46.1842 89.7499 46.1842C88.9073 46.1842 88.1739 46.0648 87.5497 45.8261C86.9254 45.5839 86.4427 45.2103 86.1016 44.7055C85.7639 44.2006 85.595 43.5508 85.595 42.756V39.3789ZM91.8324 39.3789H93.9968V49.8581H91.8324V39.3789Z" fill="#11313D"/>
</svg>
