<svg width="91" height="34" viewBox="0 0 91 34" fill="none" xmlns="http://www.w3.org/2000/svg">
<path d="M34.9475 0.280529C34.077 0.606762 33.4966 1.13236 32.9888 2.07482C32.608 2.76354 32.5898 3.01727 32.5898 8.41827V14.0549L33.0614 14.943C33.6599 16.1392 34.7843 16.846 36.2715 16.9729C38.4478 17.1722 40.1345 16.3566 40.8599 14.7617C41.1682 14.1093 41.2045 13.4568 41.2045 8.49077V2.92665L40.6967 1.96607C39.9894 0.606762 38.8105 -0.00945854 36.9606 0.00866508C36.2533 0.00866508 35.3465 0.135534 34.9475 0.280529ZM37.9219 2.69104C38.4659 3.23476 38.5022 3.83286 38.4478 9.01637L38.3934 13.8011L37.8856 14.2361C37.2145 14.798 36.4166 14.798 35.8543 14.218L35.4009 13.783V8.50889V3.23476L35.8543 2.79978C36.3984 2.23794 37.414 2.18356 37.9219 2.69104Z" fill="#226078"/>
<path d="M62.8771 0.281586C61.2086 0.897806 60.592 2.07588 60.4469 5.06636L60.3381 7.15064L59.5038 7.20501L58.6696 7.25938L58.5607 6.02694C58.4882 5.35635 58.4338 3.76142 58.4338 2.47461V0.17284H57.0736H55.7134V8.50995V16.8471H57.0736H58.4338L58.4701 16.1583C58.5063 15.7959 58.5245 14.1828 58.5245 12.5879V9.68802L59.4494 9.63365L60.3744 9.57927L60.5013 10.703C60.5557 11.3192 60.6101 12.316 60.6101 12.9322C60.6283 14.8897 61.5532 16.2671 63.2217 16.7564C65.8877 17.5539 68.2998 16.5208 69.0071 14.2916C69.4424 12.9685 69.4605 4.16015 69.0253 2.72835C68.6807 1.5684 67.7013 0.517199 66.6676 0.209089C65.6701 -0.0808983 63.7839 -0.0446491 62.8771 0.281586ZM65.9603 2.80084L66.4137 3.23582V8.4737C66.4137 13.476 66.3955 13.7116 66.0509 14.0922C65.2711 14.9259 64.0741 14.7628 63.5663 13.766C63.2761 13.186 63.2399 4.06953 63.5119 3.30832C63.7658 2.63772 64.1829 2.34774 64.9084 2.34774C65.3255 2.34774 65.6701 2.49273 65.9603 2.80084Z" fill="#EEBB3A"/>
<path d="M78.4748 0.137209C77.967 0.191582 77.8219 0.409071 76.2078 3.54455C75.2647 5.39321 74.4305 6.95189 74.3579 6.98814C74.2673 7.04251 74.2128 5.52008 74.2128 3.63517V0.173456H72.8526H71.4924V8.45619V16.7571L72.8526 16.7752L74.2128 16.7933V14.2559C74.2128 11.8454 74.231 11.6823 74.6844 10.903L75.1559 10.1055L76.4799 13.3135C77.2234 15.0896 77.8945 16.6121 77.9851 16.7027C78.0758 16.7933 78.765 16.8477 79.5267 16.8114L80.9051 16.7571L80.0889 14.854C79.6174 13.8028 78.7287 11.7004 78.094 10.1599L76.9333 7.36874L78.094 5.26634C79.1821 3.29081 80.7418 0.245953 80.7418 0.119083C80.7418 0.046587 79.2365 0.0647125 78.4748 0.137209Z" fill="#EEBB3A"/>
<path d="M84.5497 0.281212C83.7155 0.643694 83.1532 1.18742 82.6817 2.0755C82.3009 2.76422 82.2827 3.01796 82.2827 8.41896V14.0374L82.7905 14.9437C83.4072 16.0855 84.2051 16.6292 85.5653 16.8829C87.651 17.2635 89.5009 16.5386 90.3533 15.0343C90.716 14.3456 90.8067 13.9106 90.8611 12.3519L90.9336 10.5032H89.5734H88.2132L88.1407 12.1525C88.0863 13.6206 88.0319 13.8381 87.651 14.1462C86.9981 14.6718 85.9462 14.5993 85.4747 14.0193C85.1119 13.5481 85.0938 13.3125 85.0938 8.41896C85.0938 3.52543 85.1119 3.28982 85.4747 2.81859C85.9281 2.23862 86.9981 2.16612 87.651 2.69172C88.0137 2.98171 88.0863 3.23545 88.1407 4.41352L88.2132 5.79095H89.4646H90.716V4.28665C90.6979 2.0755 90.0631 0.933681 88.5034 0.263086C87.6329 -0.0993958 85.4021 -0.0812721 84.5497 0.281212Z" fill="#EEBB3A"/>
<path d="M3.04686 0.481569C2.99245 0.662809 2.666 2.47523 2.30328 4.52325C1.72293 7.83997 0.380858 15.0353 0.108816 16.3402L0 16.8477H1.37834C2.88364 16.8477 2.81109 16.9202 3.02872 15.3071C3.22822 13.676 3.11941 13.7666 5.09624 13.7666H6.89171L7.09121 15.144C7.20002 15.9052 7.34511 16.5939 7.39952 16.6846C7.45393 16.7752 8.10683 16.8477 8.85041 16.8477C10.1562 16.8477 10.1925 16.8296 10.1925 16.3946C10.1925 16.1408 10.0474 15.2165 9.84789 14.3465C9.66653 13.4766 8.99549 9.94238 8.36073 6.46254L7.21816 0.173458H5.16878C3.39145 0.173458 3.13754 0.209707 3.04686 0.481569ZM5.65846 7.06064C5.96677 8.9093 6.25695 10.6311 6.31135 10.903L6.42017 11.4104H5.04183C4.28011 11.4104 3.66349 11.3561 3.66349 11.2654C3.64535 11.0117 4.78792 3.88891 4.8786 3.61705C5.00556 3.23644 5.04183 3.32706 5.65846 7.06064Z" fill="#226078"/>
<path d="M12.0059 8.52809V16.8833L15.0527 16.8108C17.628 16.7565 18.2084 16.684 18.9157 16.3577C20.4573 15.669 20.9651 14.4366 20.8563 11.7179C20.7656 9.5793 20.4935 8.87245 19.5142 8.29248L18.8794 7.91187L19.5142 7.4044C20.3122 6.7338 20.548 5.99071 20.548 4.1783C20.548 2.56525 20.294 1.78591 19.5323 1.04282C18.8069 0.317854 18.0452 0.172861 14.8714 0.172861H12.0059V8.52809ZM17.3379 2.87336C17.6643 3.19959 17.7187 3.47146 17.7187 4.6314C17.7187 6.37132 17.4104 6.69756 15.7963 6.69756H14.7263V4.6314C14.7263 2.29339 14.7081 2.32963 16.159 2.43838C16.6668 2.47463 17.084 2.61962 17.3379 2.87336ZM17.5192 9.5793C17.8457 9.90553 17.9182 10.2318 17.9545 11.6636C18.027 13.2222 17.9908 13.3854 17.5918 13.8203C17.1746 14.2916 16.6487 14.4184 15.3248 14.3459L14.7263 14.3097V11.8086C14.7263 10.4311 14.7807 9.23494 14.8714 9.16244C14.9439 9.07182 15.488 9.05369 16.0683 9.10807C16.8301 9.18056 17.2472 9.32556 17.5192 9.5793Z" fill="#226078"/>
<path d="M22.1621 1.35085V2.52892H23.613C24.8644 2.52892 25.0639 2.56516 25.1002 2.83703C25.1183 3.01827 25.1364 6.22624 25.1364 9.95982L25.1546 16.7564H26.6054H28.0563L28.0926 9.68796L28.1289 2.61954L29.5979 2.56516L31.0488 2.51079V1.35085V0.172777H26.6054H22.1621V1.35085Z" fill="#226078"/>
<path d="M44.9405 2.20222C44.886 3.32592 44.7772 6.29828 44.6865 8.79941C44.5233 13.8923 44.4145 14.3092 43.3808 14.3092H42.8367V15.596V16.9009L43.9248 16.7922C45.4483 16.6653 46.2644 16.1941 46.8085 15.161C47.1893 14.4179 47.2619 13.9285 47.3888 11.4455C47.4614 9.88686 47.5339 7.62134 47.5521 6.40702C47.5521 5.1927 47.6065 3.83339 47.6609 3.36216L47.7878 2.52845H49.1118H50.4538V9.68749V16.8465H51.814H53.1742V8.50942V0.172314H49.1118H45.0493L44.9405 2.20222Z" fill="#EEBB3A"/>
<path d="M86.9152 33.7194C86.092 33.7194 85.4445 33.5576 84.9728 33.2341C84.5103 32.9106 84.1866 32.4715 84.0016 31.9169C83.8166 31.3531 83.7241 30.7061 83.7241 29.9758V25.9689C83.7241 25.2017 83.8166 24.5361 84.0016 23.9723C84.1866 23.4085 84.5103 22.974 84.9728 22.669C85.4445 22.364 86.092 22.2115 86.9152 22.2115C87.6921 22.2115 88.298 22.3455 88.7327 22.6135C89.1766 22.8724 89.4911 23.2467 89.6761 23.7366C89.8611 24.2265 89.9536 24.795 89.9536 25.442V26.3848H87.9835V25.4143C87.9835 25.1 87.965 24.8134 87.928 24.5546C87.9002 24.2958 87.8124 24.0925 87.6644 23.9446C87.5256 23.7874 87.2805 23.7089 86.929 23.7089C86.5776 23.7089 86.3186 23.7921 86.1521 23.9584C85.9949 24.1156 85.8931 24.3328 85.8469 24.6101C85.8006 24.8781 85.7775 25.1832 85.7775 25.5252V30.4057C85.7775 30.8124 85.8099 31.1497 85.8746 31.4178C85.9394 31.6766 86.055 31.8753 86.2215 32.014C86.3972 32.1434 86.6331 32.2081 86.929 32.2081C87.2713 32.2081 87.5118 32.1295 87.6505 31.9724C87.7985 31.806 87.891 31.5888 87.928 31.3207C87.965 31.0527 87.9835 30.7523 87.9835 30.4195V29.4074H89.9536V30.3086C89.9536 30.9741 89.8657 31.5657 89.69 32.0833C89.5143 32.5917 89.2044 32.9938 88.7604 33.2896C88.3257 33.5761 87.7106 33.7194 86.9152 33.7194Z" fill="#226078"/>
<path d="M79.3758 33.7194C78.6173 33.7194 78.0208 33.5622 77.586 33.248C77.1513 32.9337 76.8461 32.4946 76.6703 31.9308C76.4946 31.367 76.4067 30.7061 76.4067 29.9481V28.6171H75.1581V33.5669H73.1741V22.3362H75.1581V27.0919H76.4067V25.9134C76.4067 25.1555 76.4946 24.4992 76.6703 23.9446C76.8461 23.39 77.1513 22.9648 77.586 22.669C78.0208 22.364 78.6173 22.2115 79.3758 22.2115C80.1435 22.2115 80.7401 22.364 81.1655 22.669C81.6003 22.974 81.9055 23.4038 82.0812 23.9584C82.2662 24.513 82.3587 25.1647 82.3587 25.9134V29.9481C82.3587 30.6968 82.2662 31.3577 82.0812 31.9308C81.9055 32.4946 81.6003 32.9337 81.1655 33.248C80.7401 33.5622 80.1435 33.7194 79.3758 33.7194ZM79.3758 32.2081C79.6995 32.2081 79.94 32.1342 80.0972 31.9863C80.2545 31.8384 80.3562 31.635 80.4025 31.3762C80.458 31.1174 80.4857 30.8355 80.4857 30.5304V25.3588C80.4857 25.0445 80.458 24.7626 80.4025 24.513C80.3562 24.2635 80.2545 24.0694 80.0972 23.9307C79.94 23.7828 79.6995 23.7089 79.3758 23.7089C79.0613 23.7089 78.8208 23.7828 78.6543 23.9307C78.4971 24.0694 78.3954 24.2635 78.3491 24.513C78.3029 24.7626 78.2797 25.0445 78.2797 25.3588V30.5304C78.2797 30.8355 78.3029 31.1174 78.3491 31.3762C78.3954 31.635 78.4971 31.8384 78.6543 31.9863C78.8208 32.1342 79.0613 32.2081 79.3758 32.2081Z" fill="#226078"/>
<path d="M63.7656 33.5671V32.0974C64.0246 32.1066 64.242 32.0928 64.4177 32.0558C64.6027 32.0096 64.7553 31.9125 64.8756 31.7646C65.005 31.6167 65.1114 31.3903 65.1947 31.0853C65.2779 30.771 65.3473 30.3504 65.4028 29.8235C65.4583 29.2967 65.5184 28.6265 65.5831 27.8131L65.9439 22.3365H71.4102V33.5671H69.3708V23.8755H67.7614L67.5116 28.0627C67.4561 28.8853 67.3914 29.6109 67.3174 30.2395C67.2526 30.868 67.1463 31.4041 66.9983 31.8478C66.8595 32.2823 66.6607 32.6335 66.4017 32.9016C66.1427 33.1696 65.8005 33.3591 65.375 33.47C64.9495 33.5717 64.4131 33.6041 63.7656 33.5671Z" fill="#226078"/>
<path d="M56.3726 33.5671V22.3365H62.8518V33.5671H60.8261V23.7923H58.3982V33.5671H56.3726Z" fill="#226078"/>
<path d="M51.6631 30.1552V28.8657H55.0206V30.1552H51.6631Z" fill="#226078"/>
<path d="M44.1521 33.5671V22.3365H45.8309V29.4215L48.9109 22.3365H50.2845V33.5671H48.5918V26.3712L45.4979 33.5671H44.1521Z" fill="#226078"/>
<path d="M39.6564 33.7194C38.8332 33.7194 38.1857 33.5576 37.714 33.2341C37.2515 32.9106 36.9278 32.4715 36.7428 31.9169C36.5578 31.3531 36.4653 30.7061 36.4653 29.9758V25.9689C36.4653 25.2017 36.5578 24.5361 36.7428 23.9723C36.9278 23.4085 37.2515 22.974 37.714 22.669C38.1857 22.364 38.8332 22.2115 39.6564 22.2115C40.4333 22.2115 41.0392 22.3455 41.4739 22.6135C41.9179 22.8724 42.2323 23.2467 42.4173 23.7366C42.6023 24.2265 42.6948 24.795 42.6948 25.442V26.3848H40.7247V25.4143C40.7247 25.1 40.7062 24.8134 40.6692 24.5546C40.6414 24.2958 40.5536 24.0925 40.4056 23.9446C40.2668 23.7874 40.0217 23.7089 39.6703 23.7089C39.3188 23.7089 39.0598 23.7921 38.8933 23.9584C38.7361 24.1156 38.6343 24.3328 38.5881 24.6101C38.5418 24.8781 38.5187 25.1832 38.5187 25.5252V30.4057C38.5187 30.8124 38.5511 31.1497 38.6158 31.4178C38.6806 31.6766 38.7962 31.8753 38.9627 32.014C39.1384 32.1434 39.3743 32.2081 39.6703 32.2081C40.0125 32.2081 40.253 32.1295 40.3917 31.9724C40.5397 31.806 40.6322 31.5888 40.6692 31.3207C40.7062 31.0527 40.7247 30.7523 40.7247 30.4195V29.4074H42.6948V30.3086C42.6948 30.9741 42.6069 31.5657 42.4312 32.0833C42.2555 32.5917 41.9456 32.9938 41.5016 33.2896C41.0669 33.5761 40.4518 33.7194 39.6564 33.7194Z" fill="#226078"/>
<path d="M28.8145 33.5671L31.0621 22.3365H33.2542L35.5018 33.5671H33.601L33.157 30.9743H31.2008L30.743 33.5671H28.8145ZM31.4089 29.671H32.9351L32.172 24.9569L31.4089 29.671Z" fill="#226078"/>
<path d="M21.9048 33.5671V22.3365H23.9443V27.0505H24.3605L26.178 22.3365H28.2175L26.0809 27.6329L28.384 33.5671H26.3029L24.3605 28.3954H23.9443V33.5671H21.9048Z" fill="#226078"/>
<path d="M14.5608 33.5671V22.3365H17.8628C18.538 22.3365 19.0837 22.4612 19.5 22.7108C19.9254 22.9604 20.2353 23.3255 20.4295 23.8061C20.633 24.2775 20.7348 24.8506 20.7348 25.5254C20.7348 26.2556 20.6099 26.8472 20.3602 27.3001C20.1104 27.7438 19.759 28.0673 19.3057 28.2707C18.8618 28.474 18.3345 28.5757 17.7241 28.5757H16.6142V33.5671H14.5608ZM16.6142 27.1337H17.3911C17.7611 27.1337 18.0478 27.0829 18.2513 26.9812C18.464 26.8703 18.6074 26.6993 18.6814 26.4682C18.7646 26.2279 18.8063 25.909 18.8063 25.5115C18.8063 25.1048 18.7739 24.7767 18.7091 24.5271C18.6537 24.2683 18.5242 24.0788 18.3207 23.9587C18.1264 23.8385 17.8166 23.7784 17.3911 23.7784H16.6142V27.1337Z" fill="#226078"/>
<path d="M8.62622 33.5671V22.3365H13.3434V23.7784H10.6796V27.0089H12.7746V28.437H10.6796V32.1529H13.3712V33.5671H8.62622Z" fill="#226078"/>
<path d="M4.86533 33.5671V28.6589C4.58784 28.7143 4.33348 28.7559 4.10225 28.7837C3.87101 28.8114 3.6444 28.8253 3.42242 28.8253C2.44198 28.8253 1.68816 28.5988 1.16094 28.1459C0.633725 27.693 0.370117 27.0043 0.370117 26.08V22.3365H2.42348V25.8027C2.42348 26.2094 2.46511 26.5422 2.54835 26.801C2.64084 27.0598 2.78884 27.2493 2.99232 27.3694C3.20506 27.4804 3.48254 27.5358 3.82477 27.5358C3.97276 27.5358 4.13462 27.5266 4.31036 27.5081C4.49535 27.4804 4.68034 27.448 4.86533 27.411V22.3365H6.90482V33.5671H4.86533Z" fill="#226078"/>
</svg>
