<svg width="40" height="40" viewBox="0 0 40 40" fill="none" xmlns="http://www.w3.org/2000/svg">
<path d="M27.4495 10.7829C27.9377 10.2947 28.729 10.2947 29.2171 10.7829C29.7053 11.271 29.7053 12.0623 29.2171 12.5504L21.7676 20L29.2171 27.4495C29.7053 27.9377 29.7053 28.729 29.2171 29.2171C28.729 29.7053 27.9377 29.7053 27.4495 29.2171L20 21.7676L12.5504 29.2171C12.0623 29.7053 11.271 29.7053 10.7829 29.2171C10.2947 28.729 10.2947 27.9377 10.7829 27.4495L18.2324 20L10.7829 12.5504C10.2947 12.0623 10.2947 11.271 10.7829 10.7829C11.271 10.2947 12.0623 10.2947 12.5504 10.7829L20 18.2324L27.4495 10.7829Z" fill="#1B242E"/>
</svg>
