<svg width="24" height="24" viewBox="0 0 24 24" fill="none" xmlns="http://www.w3.org/2000/svg">
<path d="M15.75 20.25H20.25V3.75H15.75V20.25ZM9.75 20.25H14.25V9.75H9.75V20.25ZM3.75 20.25H8.25V16.75H3.75V20.25ZM21.75 20.4004C21.7499 20.7583 21.6076 21.1014 21.3545 21.3545C21.1014 21.6076 20.7583 21.7499 20.4004 21.75H3.59961C3.24171 21.7499 2.89859 21.6076 2.64551 21.3545C2.39243 21.1014 2.2501 20.7583 2.25 20.4004V16.5996C2.2501 16.2417 2.39243 15.8986 2.64551 15.6455L2.74414 15.5557C2.98429 15.3588 3.2864 15.2501 3.59961 15.25H8.25V9.59961C8.2501 9.24171 8.39242 8.89859 8.64551 8.64551L8.74414 8.55566C8.98429 8.35884 9.2864 8.25009 9.59961 8.25H14.25V3.59961C14.2501 3.24171 14.3924 2.89859 14.6455 2.64551L14.7441 2.55566C14.9843 2.35884 15.2864 2.25009 15.5996 2.25H20.4004C20.7583 2.2501 21.1014 2.39243 21.3545 2.64551C21.6076 2.89859 21.7499 3.24171 21.75 3.59961V20.4004Z" fill="#226078"/>
</svg>
