<svg width="24" height="24" viewBox="0 0 24 24" fill="none" xmlns="http://www.w3.org/2000/svg">
<path d="M3.25 18V9C3.25 8.27065 3.53994 7.57139 4.05566 7.05566C4.57139 6.53994 5.27065 6.25 6 6.25H7C7.41421 6.25 7.75 6.58579 7.75 7C7.75 7.41421 7.41421 7.75 7 7.75H6C5.66848 7.75 5.35063 7.88179 5.11621 8.11621C4.88179 8.35063 4.75 8.66848 4.75 9V18C4.75 18.3315 4.88179 18.6494 5.11621 18.8838C5.35063 19.1182 5.66848 19.25 6 19.25H15C15.3315 19.25 15.6494 19.1182 15.8838 18.8838C16.1182 18.6494 16.25 18.3315 16.25 18V17C16.25 16.5858 16.5858 16.25 17 16.25C17.4142 16.25 17.75 16.5858 17.75 17V18C17.75 18.7293 17.4601 19.4286 16.9443 19.9443C16.4286 20.4601 15.7293 20.75 15 20.75H6C5.27065 20.75 4.57139 20.4601 4.05566 19.9443C3.53994 19.4286 3.25 18.7293 3.25 18Z" fill="#FCFEFE"/>
<path d="M20.25 5.10059C20.25 4.74251 20.1077 4.3987 19.8545 4.14551C19.6014 3.89244 19.2583 3.7501 18.9004 3.75C18.5423 3.75 18.1985 3.89231 17.9453 4.14551L17.9443 4.14648L17.0732 5.0127L18.9863 6.92578L19.8535 6.05566L19.8545 6.05469C20.1076 5.80161 20.2499 5.45848 20.25 5.10059ZM9.75 12.3105V14.25H11.6885L17.9277 7.98828L16.0107 6.07129L9.75 12.3105ZM21.75 5.10059C21.7499 5.85587 21.4488 6.57898 20.915 7.11328L20.916 7.11426L19.6299 8.40332C19.6013 8.44792 19.5693 8.49127 19.5303 8.53027C19.4912 8.56939 19.4481 8.60219 19.4033 8.63086L12.5312 15.5293C12.3905 15.6705 12.1994 15.75 12 15.75H9C8.58579 15.75 8.25 15.4142 8.25 15V12C8.25003 11.8007 8.3295 11.6095 8.4707 11.4688L15.3711 4.59277C15.3993 4.54939 15.4317 4.50777 15.4697 4.46973C15.5087 4.43081 15.5512 4.39771 15.5957 4.36914L16.8857 3.08398C17.4202 2.55007 18.1449 2.25 18.9004 2.25C19.6561 2.2501 20.3806 2.55059 20.915 3.08496C21.4495 3.61946 21.75 4.34469 21.75 5.10059Z" fill="#FCFEFE"/>
</svg>
