<svg width="24" height="24" viewBox="0 0 24 24" fill="none" xmlns="http://www.w3.org/2000/svg">
<path d="M1.25391 14V8C1.25391 7.31429 1.25196 6.72411 1.31544 6.25391C1.38186 5.76187 1.5323 5.29019 1.91602 4.9082C2.29896 4.52714 2.77103 4.37872 3.26368 4.3125C3.73519 4.24915 4.32669 4.25 5.01563 4.25H12.1006C13.8242 4.25 15.1644 4.24922 16.2383 4.34082C17.322 4.43325 18.2014 4.6242 18.9922 5.04395H18.9932C20.0924 5.62847 21.0093 6.50552 21.6416 7.57617H21.6426C22.0976 8.34618 22.3251 9.2149 22.4629 10.29C22.5994 11.3551 22.6551 12.689 22.7266 14.4043L22.75 15.0342C22.7549 15.2276 22.7554 15.4044 22.7481 15.5635C22.7328 15.8913 22.6823 16.2192 22.5195 16.5322L22.5186 16.5313C22.3176 16.9202 22.0092 17.2406 21.6279 17.4561C21.3223 17.6291 20.998 17.6937 20.6709 17.7227C20.353 17.7507 19.9632 17.75 19.5088 17.75H19.0039C18.5897 17.75 18.2539 17.4142 18.2539 17C18.2539 16.5858 18.5897 16.25 19.0039 16.25H19.5088C19.9902 16.25 20.3025 16.2494 20.5391 16.2285C20.7663 16.2084 20.8493 16.1742 20.8897 16.1514L20.9815 16.0908C21.0672 16.0244 21.1373 15.9401 21.1875 15.8428L21.2227 15.7373C21.2342 15.6839 21.2447 15.6071 21.25 15.4941C21.261 15.2585 21.2481 14.9474 21.2275 14.4678V14.4668C21.155 12.7255 21.102 11.4667 20.9756 10.4805C20.8505 9.50463 20.6604 8.86266 20.3516 8.33984L20.3506 8.33887C19.9205 7.61048 19.3203 6.99679 18.6035 6.54981L18.2891 6.36816C17.8767 6.14934 17.3974 6.00265 16.7539 5.9082V10C16.7539 10.4142 16.4181 10.75 16.0039 10.75C15.5897 10.75 15.2539 10.4142 15.2539 10V5.78418C14.4071 5.75047 13.384 5.75 12.1006 5.75H11.7539V10C11.7539 10.4142 11.4181 10.75 11.0039 10.75C10.5897 10.75 10.2539 10.4142 10.2539 10V5.75H6.75391V10C6.75391 10.4142 6.41813 10.75 6.00391 10.75C5.5897 10.75 5.25391 10.4142 5.25391 10V5.75H5.01563C4.28496 5.75 3.81149 5.75197 3.4629 5.79883C3.13565 5.84285 3.03163 5.91395 2.97364 5.97168C2.91644 6.02872 2.8465 6.13091 2.80274 6.45508C2.756 6.80159 2.75391 7.27193 2.75391 8V14C2.75391 14.7281 2.756 15.1984 2.80274 15.5449C2.8465 15.8691 2.91644 15.9713 2.97364 16.0283L2.97462 16.0293C3.03245 16.087 3.13588 16.1573 3.4629 16.2012C3.81154 16.2479 4.28464 16.25 5.01563 16.25C5.42984 16.25 5.76563 16.5858 5.76563 17C5.76563 17.4142 5.42984 17.75 5.01563 17.75C4.32695 17.75 3.73516 17.7517 3.26368 17.6885C2.77075 17.6224 2.29822 17.4731 1.91505 17.0908L1.91602 17.0898C1.53284 16.708 1.38182 16.2378 1.31544 15.7461C1.25196 15.2759 1.25391 14.6857 1.25391 14ZM15.0039 16.25C15.4181 16.25 15.7539 16.5858 15.7539 17C15.7539 17.4142 15.4181 17.75 15.0039 17.75H9.00391C8.5897 17.75 8.25391 17.4142 8.25391 17C8.25391 16.5858 8.5897 16.25 9.00391 16.25H15.0039Z" fill="#FCFEFE"/>
<path d="M8.25391 17C8.25391 16.6685 8.12212 16.3506 7.8877 16.1162C7.65327 15.8818 7.33543 15.75 7.00391 15.75C6.67239 15.75 6.35454 15.8818 6.12012 16.1162C5.8857 16.3506 5.75391 16.6685 5.75391 17C5.75391 17.3315 5.8857 17.6494 6.12012 17.8838C6.35454 18.1182 6.67239 18.25 7.00391 18.25C7.33543 18.25 7.65327 18.1182 7.8877 17.8838C8.12212 17.6494 8.25391 17.3315 8.25391 17ZM18.2539 17C18.2539 16.6685 18.1221 16.3506 17.8877 16.1162C17.6533 15.8818 17.3354 15.75 17.0039 15.75C16.6724 15.75 16.3545 15.8818 16.1201 16.1162C15.8857 16.3506 15.7539 16.6685 15.7539 17C15.7539 17.3315 15.8857 17.6494 16.1201 17.8838C16.3545 18.1182 16.6724 18.25 17.0039 18.25C17.3354 18.25 17.6533 18.1182 17.8877 17.8838C18.1221 17.6494 18.2539 17.3315 18.2539 17ZM9.75391 17C9.75391 17.7293 9.46397 18.4286 8.94824 18.9443C8.43252 19.4601 7.73325 19.75 7.00391 19.75C6.27456 19.75 5.5753 19.4601 5.05957 18.9443C4.54385 18.4286 4.25391 17.7293 4.25391 17C4.25391 16.2707 4.54385 15.5714 5.05957 15.0557C5.5753 14.5399 6.27456 14.25 7.00391 14.25C7.73325 14.25 8.43252 14.5399 8.94824 15.0557C9.46397 15.5714 9.75391 16.2707 9.75391 17ZM19.7539 17C19.7539 17.7293 19.464 18.4286 18.9482 18.9443C18.4325 19.4601 17.7333 19.75 17.0039 19.75C16.2746 19.75 15.5753 19.4601 15.0596 18.9443C14.5438 18.4286 14.2539 17.7293 14.2539 17C14.2539 16.2707 14.5438 15.5714 15.0596 15.0557C15.5753 14.5399 16.2746 14.25 17.0039 14.25C17.7333 14.25 18.4325 14.5399 18.9482 15.0557C19.464 15.5714 19.7539 16.2707 19.7539 17Z" fill="#FCFEFE"/>
<path d="M15.3643 9.25C15.8627 9.25004 16.2437 9.41042 16.5664 9.68652C16.8121 9.89684 17.0493 10.2075 17.2383 10.4365C17.5126 10.7049 17.6974 10.8858 17.8711 11.0176C17.9945 11.1111 18.0852 11.1582 18.1621 11.1816L18.2354 11.1982L18.5381 11.2256C18.9172 11.2484 19.5021 11.2578 20.0859 11.2578C20.4598 11.2578 20.8124 11.2543 21.0713 11.251C21.2005 11.2493 21.3066 11.2473 21.3799 11.2461C21.4163 11.2455 21.4447 11.2455 21.4639 11.2451C21.4732 11.2449 21.4805 11.2442 21.4854 11.2441H21.4932C21.9071 11.2359 22.2493 11.5646 22.2578 11.9785C22.2662 12.3926 21.9375 12.7357 21.5234 12.7441H21.4922C21.4721 12.7445 21.4427 12.7455 21.4053 12.7461C21.3301 12.7474 21.2215 12.7493 21.0898 12.751C20.8268 12.7544 20.4679 12.7578 20.0859 12.7578C19.3524 12.7578 18.4409 12.7459 18.0127 12.6816C17.5912 12.6185 17.2536 12.4319 16.9648 12.2129C16.6916 12.0056 16.4203 11.7359 16.1592 11.4805L16.1328 11.4531L16.1084 11.4238C16.045 11.3477 15.986 11.2754 15.9336 11.2109C15.88 11.145 15.8338 11.0881 15.79 11.0361C15.7012 10.9306 15.6407 10.8681 15.5918 10.8262C15.5481 10.7888 15.5211 10.7754 15.5029 10.7686C15.4843 10.7616 15.4449 10.75 15.3643 10.75H1.99609C1.58188 10.75 1.24609 10.4142 1.24609 10C1.24609 9.58579 1.58188 9.25 1.99609 9.25H15.3643Z" fill="#FCFEFE"/>
</svg>
