<svg width="24" height="24" viewBox="0 0 24 24" fill="none" xmlns="http://www.w3.org/2000/svg">
<path d="M2.25 19V3C2.25 2.58579 2.58579 2.25 3 2.25C3.41421 2.25 3.75 2.58579 3.75 3V19C3.75 19.3315 3.88179 19.6494 4.11621 19.8838C4.35063 20.1182 4.66848 20.25 5 20.25H21C21.4142 20.25 21.75 20.5858 21.75 21C21.75 21.4142 21.4142 21.75 21 21.75H5C4.27065 21.75 3.57139 21.4601 3.05566 20.9443C2.53994 20.4286 2.25 19.7293 2.25 19Z" fill="#FCFEFE"/>
<path d="M20.4697 7.46967C20.7626 7.17678 21.2373 7.17678 21.5302 7.46967C21.8231 7.76256 21.8231 8.23732 21.5302 8.53022L15.5302 14.5302C15.2373 14.8231 14.7626 14.8231 14.4697 14.5302L10.9999 11.0605L7.53022 14.5302C7.23732 14.8231 6.76256 14.8231 6.46967 14.5302C6.17678 14.2373 6.17678 13.7626 6.46967 13.4697L10.4697 9.46967L10.5263 9.41791C10.8209 9.1776 11.2556 9.19507 11.5302 9.46967L14.9999 12.9394L20.4697 7.46967Z" fill="#FCFEFE"/>
<path d="M20.25 11V8.75H18C17.5858 8.75 17.25 8.41421 17.25 8C17.25 7.58579 17.5858 7.25 18 7.25H21C21.4142 7.25 21.75 7.58579 21.75 8V11C21.75 11.4142 21.4142 11.75 21 11.75C20.5858 11.75 20.25 11.4142 20.25 11Z" fill="#FCFEFE"/>
</svg>
