<svg width="24" height="24" viewBox="0 0 24 24" fill="none" xmlns="http://www.w3.org/2000/svg">
<path d="M1.79297 18.667V5.33301C1.79306 4.78921 2.01116 4.26266 2.40747 3.87012C2.8048 3.47657 3.35013 3.25 3.92482 3.25H9.64246L9.87457 3.47949L12.3346 5.91699H20.0778C20.6523 5.91699 21.1978 6.1428 21.5951 6.53613C21.9915 6.92875 22.2096 7.45609 22.2096 8V18.667C22.2095 19.2108 21.9914 19.7373 21.5951 20.1299C21.1978 20.5234 20.6525 20.75 20.0778 20.75H3.92482C3.35013 20.75 2.8048 20.5234 2.40747 20.1299C2.01116 19.7373 1.79306 19.2108 1.79297 18.667ZM15.4399 10.1826C15.7196 9.86636 16.2148 9.82674 16.5462 10.0938C16.8774 10.3609 16.9198 10.8339 16.6402 11.1504L11.3674 17.1191L8.07093 13.8535C7.76998 13.5553 7.7782 13.0805 8.09036 12.793C8.40243 12.5056 8.89969 12.5146 9.20076 12.8125L11.2897 14.8809L15.4399 10.1826ZM3.36348 18.667C3.36357 18.8301 3.429 18.9815 3.5373 19.0889C3.64487 19.1954 3.78546 19.25 3.92482 19.25H20.0778C20.2171 19.25 20.3577 19.1954 20.4653 19.0889C20.5736 18.9815 20.639 18.8301 20.6391 18.667V8C20.6391 7.83687 20.5736 7.68558 20.4653 7.57812C20.3577 7.47158 20.2171 7.41699 20.0778 7.41699H11.668L11.4359 7.1875L8.97581 4.75H3.92482C3.78546 4.75 3.64487 4.80458 3.5373 4.91113C3.429 5.01852 3.36357 5.16991 3.36348 5.33301V18.667Z" fill="#FCFEFE"/>
</svg>
