<svg width="24" height="24" viewBox="0 0 24 24" fill="none" xmlns="http://www.w3.org/2000/svg">
<path d="M12.0007 11.3333C12.9236 11.3333 13.8259 11.0596 14.5933 10.5469C15.3607 10.0341 15.9589 9.30525 16.3121 8.45253C16.6653 7.5998 16.7577 6.66149 16.5776 5.75625C16.3976 4.851 15.9531 4.01948 15.3005 3.36684C14.6478 2.71419 13.8163 2.26974 12.9111 2.08967C12.0058 1.90961 11.0675 2.00202 10.2148 2.35523C9.36207 2.70844 8.63324 3.30658 8.12046 4.07401C7.60768 4.84144 7.33398 5.74369 7.33398 6.66667C7.33398 7.90435 7.82565 9.09133 8.70082 9.9665C9.57599 10.8417 10.763 11.3333 12.0007 11.3333ZM12.0007 3.33334C12.6599 3.33334 13.3044 3.52883 13.8526 3.8951C14.4007 4.26137 14.828 4.78197 15.0802 5.39106C15.3325 6.00014 15.3986 6.67037 15.2699 7.31697C15.1413 7.96357 14.8238 8.55752 14.3577 9.02369C13.8915 9.48987 13.2976 9.80734 12.651 9.93595C12.0043 10.0646 11.3341 9.99856 10.725 9.74627C10.116 9.49398 9.59536 9.06673 9.22909 8.51857C8.86281 7.97041 8.66732 7.32594 8.66732 6.66667C8.66732 5.78261 9.01851 4.93477 9.64363 4.30965C10.2687 3.68452 11.1166 3.33334 12.0007 3.33334Z" fill="#7B98A3"/>
<path d="M20.314 16.2475C19.2449 15.1175 17.9565 14.2174 16.5277 13.6023C15.0989 12.9872 13.5596 12.6699 12.004 12.6699C10.4484 12.6699 8.90911 12.9872 7.48029 13.6023C6.05147 14.2174 4.76311 15.1175 3.69399 16.2475C3.46219 16.4951 3.33346 16.8217 3.33399 17.1608V20.6675C3.33399 21.0211 3.47446 21.3603 3.72451 21.6103C3.97456 21.8604 4.3137 22.0008 4.66732 22.0008H19.334C19.6876 22.0008 20.0267 21.8604 20.2768 21.6103C20.5268 21.3603 20.6673 21.0211 20.6673 20.6675V17.1608C20.6697 16.8226 20.5433 16.4961 20.314 16.2475ZM19.334 20.6675H4.66732V17.1542C5.61214 16.1593 6.74951 15.3671 8.01022 14.8257C9.27094 14.2843 10.6286 14.0052 12.0007 14.0052C13.3727 14.0052 14.7304 14.2843 15.9911 14.8257C17.2518 15.3671 18.3892 16.1593 19.334 17.1542V20.6675Z" fill="#7B98A3"/>
</svg>
