<svg width="24" height="24" viewBox="0 0 24 24" fill="none" xmlns="http://www.w3.org/2000/svg">
<g clip-path="url(#clip0_2110_2992)">
<path d="M12.0586 5.38086C12.0977 5.41999 12.127 5.468 12.1445 5.52051C12.2353 5.79427 12.3892 6.04276 12.5928 6.24707C12.7967 6.45165 13.0454 6.60655 13.3193 6.69824C13.3457 6.70705 13.372 6.71889 13.3955 6.7334L13.4609 6.78516L21.5156 14.8369L20.1855 16.167C19.7067 15.8878 19.1549 15.7473 18.5938 15.7686C17.8536 15.7967 17.1517 16.1042 16.6279 16.6279C16.1042 17.1517 15.7977 17.8536 15.7695 18.5938C15.7483 19.1548 15.8889 19.7058 16.168 20.1846L14.8379 21.5137L6.78223 13.46C6.74324 13.4206 6.71385 13.3729 6.69629 13.3203C6.60546 13.0465 6.45168 12.7981 6.24805 12.5938C6.04415 12.3892 5.79538 12.2343 5.52148 12.1426C5.46898 12.1251 5.41998 12.0958 5.38086 12.0566L2.48535 9.16016L3.81543 7.83008C4.29335 8.10904 4.84309 8.25087 5.40332 8.23047C6.14332 8.2034 6.84655 7.89767 7.37109 7.375L7.37207 7.37402C7.89558 6.85031 8.20221 6.14816 8.23047 5.4082C8.25187 4.84738 8.11175 4.29615 7.83301 3.81738L9.16309 2.48438L12.0586 5.38086ZM0.75 9.16016C0.75 9.40736 0.848692 9.64451 1.02344 9.81934L4.32031 13.1162C4.52425 13.3203 4.77316 13.4733 5.04688 13.5645L5.0459 13.5654C5.09871 13.5831 5.1472 13.6129 5.18652 13.6523C5.22576 13.6918 5.25497 13.7401 5.27246 13.793L5.27344 13.7939C5.3646 14.0675 5.51797 14.3164 5.72168 14.5205L14.1777 22.9766C14.3526 23.1513 14.5907 23.25 14.8379 23.25C15.0849 23.2499 15.3214 23.1512 15.4961 22.9766L17.5654 20.9082C17.7305 20.7431 17.8281 20.5214 17.8379 20.2881C17.8477 20.0534 17.7686 19.8233 17.6162 19.6445L17.6143 19.6426C17.3781 19.3676 17.254 19.0136 17.2676 18.6514C17.2813 18.289 17.4321 17.9449 17.6885 17.6885C17.9449 17.432 18.2889 17.2813 18.6514 17.2676C19.0136 17.2539 19.3675 17.3781 19.6426 17.6143L19.6445 17.6152C19.8233 17.7677 20.0533 17.8477 20.2881 17.8379C20.5229 17.8281 20.7457 17.7294 20.9111 17.5625L22.9766 15.4961C23.1511 15.3213 23.25 15.0839 23.25 14.8369C23.2499 14.5898 23.1512 14.3525 22.9766 14.1777L14.5215 5.72363C14.3175 5.5201 14.0682 5.36656 13.7949 5.27539L13.7197 5.24023C13.6963 5.22569 13.6749 5.20812 13.6553 5.18848C13.6159 5.14896 13.5859 5.10081 13.5684 5.04785C13.4772 4.77406 13.3232 4.52431 13.1191 4.32031L9.82227 1.02344C9.64752 0.848779 9.41014 0.750098 9.16309 0.75C8.94688 0.75 8.73812 0.825185 8.57227 0.960938L8.50391 1.02246L6.4375 3.0918L6.37793 3.15625C6.26584 3.29051 6.19361 3.45367 6.16992 3.62695L6.16211 3.71387L6.16309 3.80176C6.17373 4.00553 6.2513 4.20094 6.38477 4.35742L6.38574 4.35938C6.62163 4.63449 6.74518 4.98845 6.73145 5.35059C6.71764 5.71236 6.56812 6.05619 6.3125 6.3125L6.21191 6.40332C5.96905 6.6036 5.6657 6.71985 5.34863 6.73145C4.98642 6.74461 4.63219 6.62018 4.35742 6.38379L4.35547 6.38184C4.19906 6.24843 4.0035 6.17085 3.7998 6.16016H3.71191L3.625 6.16797C3.42383 6.19543 3.23632 6.28781 3.0918 6.43262L1.02344 8.50098C0.848715 8.67578 0.750025 8.91298 0.75 9.16016Z" fill="#7B98A3"/>
<path d="M7.11334 11.7265C6.82056 11.4337 6.34571 11.434 6.05279 11.7265L5.27838 12.5009C4.98564 12.7938 4.98554 13.2686 5.27838 13.5615C5.57122 13.8543 6.04602 13.8542 6.33892 13.5615L7.11334 12.7871C7.40588 12.4941 7.40611 12.0193 7.11334 11.7265ZM9.17584 9.66303C8.88279 9.37052 8.40797 9.37106 8.11529 9.66401L7.59967 10.1796C7.30702 10.4727 7.30765 10.9475 7.60064 11.2402C7.89363 11.5329 8.36843 11.5331 8.66119 11.2402L9.17681 10.7236C9.46942 10.4305 9.46881 9.95574 9.17584 9.66303ZM11.2403 7.60053C10.9475 7.3075 10.4728 7.30679 10.1797 7.59955L9.66412 8.11518C9.37118 8.40786 9.37063 8.88268 9.66314 9.17572C9.9558 9.46865 10.4306 9.46915 10.7237 9.1767L11.2403 8.66108C11.5333 8.36832 11.533 7.89356 11.2403 7.60053ZM13.5616 5.27826C13.2687 4.98537 12.7939 4.98537 12.501 5.27826L11.7266 6.0517C11.4337 6.3446 11.4337 6.82034 11.7266 7.11322C12.0195 7.40611 12.4952 7.4061 12.7881 7.11322L13.5616 6.33881C13.8545 6.04592 13.8545 5.57116 13.5616 5.27826Z" fill="#7B98A3"/>
</g>
<defs>
<clipPath id="clip0_2110_2992">
<rect width="24" height="24" fill="white" transform="matrix(-1 0 0 1 24 0)"/>
</clipPath>
</defs>
</svg>
