<svg width="24" height="24" viewBox="0 0 24 24" fill="none" xmlns="http://www.w3.org/2000/svg">
<rect width="24" height="24" rx="12" fill="#7B98A3"/>
<path d="M12 1.4032C14.8104 1.4032 17.5058 2.51964 19.4931 4.50693C21.4804 6.49422 22.5968 9.18955 22.5968 12C22.5968 14.8104 21.4804 17.5058 19.4931 19.4931C17.5058 21.4804 14.8104 22.5968 12 22.5968C9.18955 22.5968 6.49422 21.4804 4.50693 19.4931C2.51964 17.5058 1.4032 14.8104 1.4032 12C1.4032 9.18955 2.51964 6.49422 4.50693 4.50693C6.49422 2.51964 9.18955 1.4032 12 1.4032ZM12 15.96C10.8723 15.9594 9.76421 16.2554 8.78694 16.8181C7.80967 17.3809 6.99755 18.1907 6.432 19.1664C8.02309 20.406 9.98303 21.0779 12 21.0752C14.0166 21.0771 15.976 20.4046 17.5664 19.1648C17.0008 18.1897 16.1888 17.3803 15.2119 16.8178C14.2349 16.2554 13.1273 15.9595 12 15.96ZM12 2.9216C10.2411 2.92267 8.5204 3.43466 7.04704 4.39535C5.57368 5.35603 4.41111 6.72402 3.70066 8.33305C2.99021 9.94207 2.76247 11.7228 3.04512 13.4589C3.32776 15.1949 4.10863 16.8114 5.2928 18.112C6.01213 16.9856 7.00376 16.0587 8.17606 15.4169C9.34836 14.7751 10.6635 14.4391 12 14.44C14.8176 14.44 17.2928 15.9056 18.7072 18.1104C19.8909 16.8098 20.6713 15.1934 20.9536 13.4576C21.236 11.7219 21.0081 9.94144 20.2977 8.33272C19.5873 6.72401 18.425 5.35625 16.952 4.39565C15.4789 3.43504 13.7586 2.92295 12 2.9216ZM12 6.6496C12.5028 6.63493 13.0034 6.72129 13.4722 6.90356C13.941 7.08584 14.3685 7.36033 14.7293 7.71078C15.0902 8.06123 15.377 8.48052 15.5729 8.94381C15.7688 9.40711 15.8697 9.905 15.8697 10.408C15.8697 10.911 15.7688 11.4089 15.5729 11.8722C15.377 12.3355 15.0902 12.7548 14.7293 13.1052C14.3685 13.4557 13.941 13.7302 13.4722 13.9124C13.0034 14.0947 12.5028 14.1811 12 14.1664C11.0164 14.1461 10.08 13.7411 9.39155 13.0384C8.70313 12.3356 8.31756 11.391 8.31756 10.4072C8.31756 9.42342 8.70313 8.47882 9.39155 7.77604C10.08 7.07326 11.0164 6.66989 12 6.6496ZM12 8.1664C11.4059 8.1664 10.8362 8.4024 10.4161 8.82248C9.996 9.24256 9.76 9.81231 9.76 10.4064C9.76 11.0005 9.996 11.5702 10.4161 11.9903C10.8362 12.4104 11.4059 12.6464 12 12.6464C12.5941 12.6464 13.1638 12.4104 13.5839 11.9903C14.004 11.5702 14.24 11.0005 14.24 10.4064C14.24 9.81231 14.004 9.24256 13.5839 8.82248C13.1638 8.4024 12.5941 8.1664 12 8.1664Z" fill="#C9E4E7"/>
</svg>
