<svg width="301" height="301" viewBox="0 0 301 301" fill="none" xmlns="http://www.w3.org/2000/svg">
<rect x="188.516" y="0.878418" width="154.773" height="267.306" rx="24" transform="rotate(44.5 188.516 0.878418)" fill="#FCFEFE"/>
<path d="M126.275 285.33L126.238 285.368C122.222 289.382 116.777 291.637 111.1 291.637C105.422 291.637 99.9769 289.382 95.9617 285.368L95.9116 285.318L15.038 204.444C11.0666 200.43 8.84537 195.007 8.85944 189.36C8.87352 183.713 11.1218 178.301 15.1131 174.306L15.1882 174.231L174.231 15.1882L174.306 15.113C178.299 11.12 183.71 8.86954 189.357 8.85312C195.004 8.8367 200.428 11.0557 204.444 15.0254L285.318 95.899L285.356 95.9366C289.37 99.9518 291.625 105.397 291.625 111.075C291.625 116.752 289.37 122.197 285.356 126.213L285.305 126.263L126.275 285.33ZM251.16 141.438L252.663 142.941C253.903 144.18 255.931 144.18 257.171 142.941C258.41 141.701 258.41 139.673 257.171 138.433L255.668 136.931C254.428 135.691 252.4 135.691 251.16 136.931C249.921 138.17 249.921 140.199 251.16 141.438ZM240.643 130.908L242.145 132.41C243.385 133.65 245.413 133.65 246.653 132.41C247.892 131.171 247.892 129.143 246.653 127.903L245.15 126.4C243.911 125.161 241.882 125.161 240.643 126.4C239.403 127.64 239.403 129.668 240.643 130.908ZM242.796 85.5191L263.394 106.116C264.633 107.356 266.662 107.356 267.901 106.116C269.141 104.877 269.141 102.848 267.901 101.609L247.304 81.0115C246.064 79.7719 244.036 79.7719 242.796 81.0115C241.557 82.2511 241.557 84.2795 242.796 85.5191ZM187.303 49.6086L253.602 115.908C254.842 117.147 256.87 117.147 258.11 115.908C259.349 114.668 259.349 112.64 258.11 111.4L191.811 45.101C190.571 43.8614 188.543 43.8614 187.303 45.101C186.063 46.3406 186.063 48.369 187.303 49.6086ZM177.386 165.366C180.395 167.538 184.077 168.571 187.777 168.279C191.476 167.988 194.951 166.392 197.583 163.776L197.67 163.688C200.262 161.045 201.851 157.58 202.162 153.89C202.473 150.201 201.486 146.519 199.373 143.479L199.311 143.404L203.368 139.347C206.034 136.674 207.532 133.052 207.535 129.277C207.537 125.501 206.043 121.878 203.38 119.201L188.217 104.038C182.625 98.4729 175.058 95.3489 167.169 95.3489C159.28 95.3489 151.713 98.4729 146.121 104.038L62.5429 187.616C61.965 188.222 61.6426 189.026 61.6426 189.863C61.6426 190.701 61.965 191.505 62.5429 192.111L104.338 233.906C104.944 234.484 105.749 234.807 106.586 234.807C107.423 234.807 108.228 234.484 108.833 233.906L129.443 213.297C132.453 215.472 136.138 216.507 139.84 216.215C143.542 215.924 147.02 214.326 149.652 211.707L149.727 211.631C152.324 208.989 153.917 205.522 154.23 201.83C154.543 198.138 153.557 194.452 151.443 191.41L151.38 191.335L177.386 165.366ZM132.886 226.093C133.167 225.814 133.389 225.482 133.54 225.117C133.692 224.752 133.77 224.36 133.77 223.965C133.77 223.569 133.692 223.177 133.54 222.812C133.389 222.447 133.167 222.115 132.886 221.836L132.761 221.711C132.151 221.125 131.336 220.8 130.49 220.805C129.644 220.81 128.833 221.143 128.229 221.736L102.523 246.24C101.283 247.479 101.283 249.508 102.523 250.747C103.762 251.987 105.791 251.987 107.03 250.747L132.886 226.093ZM165.804 188.355C166.41 188.933 167.215 189.255 168.052 189.255C168.889 189.255 169.694 188.933 170.299 188.355L182.332 176.322C183.572 175.082 183.572 173.054 182.332 171.814C181.093 170.575 179.064 170.575 177.825 171.814L165.792 183.847C165.204 184.46 164.879 185.278 164.886 186.127C164.893 186.976 165.232 187.789 165.829 188.392L165.804 188.355ZM230.15 120.415L231.653 121.918C232.892 123.157 234.921 123.157 236.16 121.918C237.4 120.678 237.4 118.65 236.16 117.41L234.658 115.908C233.418 114.668 231.39 114.668 230.15 115.908C228.911 117.147 228.911 119.176 230.15 120.415ZM219.62 109.885L221.122 111.388C222.362 112.627 224.39 112.627 225.63 111.388C226.87 110.148 226.87 108.12 225.63 106.88L224.127 105.377C222.888 104.138 220.859 104.138 219.62 105.377C218.38 106.617 218.38 108.646 219.62 109.885ZM209.102 99.3674L210.605 100.87C211.844 102.109 213.873 102.109 215.112 100.87C216.352 99.6303 216.352 97.6019 215.112 96.3623L213.61 94.8598C212.37 93.6202 210.342 93.6202 209.102 94.8598C207.863 96.0994 207.863 98.1278 209.102 99.3674ZM198.584 88.8497L200.087 90.3522C201.327 91.5918 203.355 91.5918 204.595 90.3522C205.834 89.1126 205.834 87.0842 204.595 85.8446L203.105 84.3546C201.865 83.115 199.837 83.115 198.597 84.3546C197.357 85.5942 197.357 87.6226 198.597 88.8622L198.584 88.8497ZM212.107 55.7815L217.967 61.6414C219.207 62.8809 221.235 62.8809 222.475 61.6414C223.714 60.4018 223.714 58.3734 222.475 57.1338L216.615 51.2739C215.375 50.0343 213.347 50.0343 212.107 51.2739C210.868 52.5135 210.868 54.5419 212.107 55.7815ZM59.6881 215.726L59.7257 215.763C60.0165 216.055 60.3619 216.286 60.7422 216.444C61.1225 216.602 61.5302 216.683 61.9419 216.683C62.3537 216.683 62.7614 216.602 63.1417 216.444C63.5219 216.286 63.8674 216.055 64.1582 215.763L64.1957 215.726L69.4546 210.467C70.6942 209.227 70.6942 207.199 69.4546 205.959C68.215 204.72 66.1866 204.72 64.947 205.959L59.6881 211.218C59.1066 211.824 58.7818 212.632 58.7818 213.472C58.7818 214.312 59.1066 215.12 59.6881 215.726ZM188.067 78.3194L189.569 79.822C190.809 81.0616 192.837 81.0616 194.077 79.822C195.316 78.5824 195.316 76.554 194.077 75.3144L192.574 73.8119C191.335 72.5723 189.306 72.5723 188.067 73.8119C186.827 75.0514 186.827 77.0799 188.067 78.3194ZM45.8523 209.403L45.8899 209.44C46.1807 209.732 46.5261 209.963 46.9064 210.121C47.2867 210.279 47.6944 210.36 48.1061 210.36C48.5179 210.36 48.9256 210.279 49.3059 210.121C49.6862 209.963 50.0316 209.732 50.3224 209.44L50.3599 209.403L59.3876 200.375C60.6272 199.135 60.6272 197.107 59.3876 195.867C58.148 194.628 56.1196 194.628 54.88 195.867L45.8523 204.895C45.2708 205.501 44.946 206.309 44.946 207.149C44.946 207.989 45.2708 208.796 45.8523 209.403ZM197.082 40.7437L202.954 46.6161C204.194 47.8557 206.222 47.8557 207.462 46.6161C208.701 45.3765 208.701 43.3481 207.462 42.1085L201.59 36.2361C200.35 34.9965 198.322 34.9965 197.082 36.2361C195.842 37.4757 195.842 39.5041 197.082 40.7437ZM177.537 67.8017L179.039 69.3043C180.279 70.5439 182.307 70.5439 183.547 69.3043C184.786 68.0647 184.786 66.0363 183.547 64.7967L182.044 63.2941C180.805 62.0546 178.776 62.0546 177.537 63.2941C176.297 64.5337 176.297 66.5621 177.537 67.8017ZM167.019 57.284L168.521 58.7866C169.761 60.0262 171.789 60.0262 173.029 58.7866C174.269 57.547 174.269 55.5186 173.029 54.279L171.514 52.7639C170.274 51.5243 168.246 51.5243 167.006 52.7639C165.767 54.0035 165.767 56.0319 167.006 57.2715L167.019 57.284ZM156.489 46.7663L157.991 48.2689C159.231 49.5084 161.259 49.5084 162.499 48.2689C163.738 47.0293 163.738 45.0009 162.499 43.7613L160.984 42.2462C159.744 41.0066 157.716 41.0066 156.476 42.2462C155.236 43.4858 155.236 45.5142 156.476 46.7538L156.489 46.7663ZM180.091 158.742L179.49 158.141C179.189 157.841 179.039 157.39 178.739 157.09C178.588 156.939 178.588 156.639 178.438 156.489C178.288 156.038 178.138 155.888 177.987 155.424C177.987 155.124 177.837 154.973 177.837 154.66C177.645 154.412 177.536 154.11 177.524 153.797C177.399 153.461 177.348 153.102 177.374 152.745C177.374 152.444 177.224 152.294 177.224 151.993C177.07 151.607 177.07 151.177 177.224 150.791V150.779C177.224 150.478 177.073 150.328 177.224 150.178C177.272 149.775 177.368 149.38 177.511 149.001L177.524 148.976C177.674 148.826 177.524 148.675 177.674 148.525C177.825 148.074 178.125 147.774 178.275 147.323C178.275 147.023 178.275 147.023 178.426 146.872C179.127 145.764 180.068 144.827 181.18 144.13L181.13 144.168C181.431 144.168 181.431 144.168 181.581 144.018C182.032 143.867 182.332 143.567 182.783 143.417C182.933 143.266 183.083 143.417 183.234 143.266C183.636 143.218 184.031 143.122 184.411 142.978L184.436 142.966H185.037C185.487 143.116 185.951 142.966 186.239 142.966C186.527 142.966 186.689 143.116 187.002 143.116C187.338 143.241 187.697 143.292 188.054 143.266C188.355 143.266 188.655 143.567 188.968 143.567C189.281 143.567 189.419 143.717 189.732 143.717C190.045 143.717 190.333 144.018 190.784 144.168C190.934 144.318 191.235 144.318 191.385 144.468C191.629 144.616 191.903 144.707 192.188 144.733C192.472 144.759 192.758 144.72 193.025 144.619L193.639 145.22C195.218 147.046 196.047 149.403 195.961 151.816C195.875 154.229 194.88 156.52 193.175 158.23C191.47 159.94 189.181 160.942 186.769 161.034C184.356 161.127 181.997 160.304 180.166 158.73L180.141 158.705L180.091 158.742ZM183.096 155.737C183.984 156.598 185.171 157.079 186.408 157.079C187.644 157.079 188.832 156.598 189.72 155.737L189.882 155.587C190.31 155.158 190.645 154.646 190.869 154.083C191.092 153.521 191.199 152.918 191.182 152.313C191.166 151.707 191.027 151.112 190.773 150.562C190.52 150.012 190.157 149.519 189.707 149.114L189.72 149.126C189.285 148.692 188.77 148.348 188.203 148.113C187.636 147.878 187.028 147.757 186.414 147.757C185.8 147.757 185.192 147.878 184.625 148.113C184.058 148.348 183.542 148.692 183.108 149.126C182.674 149.56 182.33 150.076 182.095 150.643C181.86 151.21 181.739 151.818 181.739 152.432C181.739 153.046 181.86 153.653 182.095 154.221C182.33 154.788 182.662 155.303 183.096 155.737ZM131.985 206.848L131.384 206.247C131.083 205.947 130.933 205.496 130.633 205.196C130.482 205.045 130.482 204.745 130.332 204.595C130.332 204.294 130.032 203.994 129.881 203.543C129.881 203.242 129.731 203.092 129.731 202.779C129.536 202.519 129.431 202.203 129.431 201.877C129.304 201.538 129.253 201.175 129.28 200.813C129.13 200.663 129.13 200.362 129.13 200.062C128.98 199.611 129.143 199.16 129.13 198.86V198.259C129.178 197.856 129.275 197.461 129.418 197.082L129.431 197.057C129.581 196.907 129.431 196.756 129.581 196.606C129.731 196.155 130.032 195.855 130.182 195.404C130.182 195.104 130.182 195.104 130.332 194.953C131.033 193.845 131.975 192.908 133.087 192.211L133.037 192.249C133.337 192.249 133.337 192.249 133.487 192.098C133.938 191.948 134.239 191.648 134.689 191.497C134.84 191.347 134.99 191.497 135.14 191.347C135.543 191.299 135.938 191.203 136.317 191.059L136.342 191.047H138.145C138.446 191.047 138.596 191.197 138.896 191.197C139.197 191.197 139.648 191.335 139.961 191.347C140.274 191.36 140.562 191.648 140.862 191.648C141.163 191.648 141.313 191.798 141.626 191.798C141.939 191.798 142.227 192.098 142.678 192.249C142.828 192.399 143.129 192.399 143.279 192.549C143.523 192.697 143.797 192.788 144.082 192.814C144.366 192.84 144.652 192.801 144.919 192.699L145.533 193.301C147.112 195.127 147.941 197.484 147.855 199.897C147.769 202.31 146.774 204.601 145.069 206.311C143.364 208.021 141.076 209.022 138.663 209.115C136.25 209.208 133.891 208.385 132.06 206.811L132.035 206.786L131.985 206.848ZM134.99 203.843C135.878 204.704 137.065 205.185 138.302 205.185C139.538 205.185 140.726 204.704 141.614 203.843L141.676 203.781C142.102 203.356 142.44 202.852 142.671 202.296C142.901 201.741 143.02 201.145 143.02 200.544C143.02 199.943 142.901 199.347 142.671 198.792C142.44 198.236 142.102 197.732 141.676 197.307L141.601 197.232C140.724 196.355 139.535 195.863 138.295 195.863C137.056 195.863 135.867 196.355 134.99 197.232C134.113 198.109 133.621 199.298 133.621 200.538C133.621 201.778 134.113 202.967 134.99 203.843ZM194.515 139.197C193.791 138.745 193.013 138.387 192.199 138.133L192.261 138.158C191.557 137.763 190.783 137.508 189.982 137.406H190.008C189.857 137.256 189.707 137.406 189.557 137.256C188.806 137.118 188.204 137.106 187.453 136.956H186.84C186.154 136.81 185.446 136.81 184.761 136.956H184.736C184.586 136.805 184.436 136.956 184.135 136.956C183.536 136.967 182.941 137.064 182.37 137.244L182.332 137.256C182.182 137.406 182.032 137.256 181.881 137.406C181.28 137.707 180.529 137.857 179.916 138.158C179.765 138.308 179.465 138.308 179.315 138.458C178.714 138.759 177.962 139.209 177.349 139.51L177.048 139.81C175.621 140.815 174.379 142.061 173.38 143.492L173.442 143.417L173.117 143.742C172.816 144.343 172.365 145.094 172.065 145.708C171.915 145.858 171.915 146.159 171.764 146.309C171.421 146.934 171.168 147.604 171.013 148.3L171.026 148.262C170.875 148.412 171.026 148.563 170.875 148.713C170.875 149.314 170.575 149.915 170.575 150.516C170.725 150.666 170.575 150.816 170.562 151.117V153.221C170.412 153.371 170.562 153.521 170.575 153.822C170.713 154.573 170.725 155.174 170.875 155.925C171.026 156.075 170.875 156.226 171.026 156.376C171.126 157.06 171.318 157.745 171.602 158.429L171.627 158.479C171.846 159.269 172.192 160.018 172.653 160.696L172.678 160.733L146.397 187.015C145.674 186.559 144.895 186.197 144.08 185.938L144.143 185.963C143.462 185.674 142.746 185.472 142.014 185.362H142.039C141.889 185.212 141.739 185.362 141.589 185.212C140.893 185.052 140.185 184.951 139.472 184.911H139.485C139.335 185.062 139.184 184.911 138.871 184.911C138.18 184.854 137.485 184.854 136.793 184.911H136.768C136.618 184.761 136.467 184.911 136.167 184.911C135.568 184.922 134.973 185.019 134.401 185.199L134.364 185.212C134.214 185.362 134.063 185.212 133.913 185.362C133.312 185.663 132.561 185.813 131.947 186.113C131.797 186.264 131.497 186.264 131.346 186.414C130.745 186.714 129.994 187.165 129.38 187.466L129.067 187.779C127.64 188.783 126.399 190.029 125.399 191.46L125.461 191.385L125.186 191.66C124.885 192.261 124.435 193.013 124.134 193.626C123.984 193.776 123.984 194.077 123.834 194.227C123.49 194.852 123.237 195.522 123.082 196.218L123.095 196.18C122.945 196.331 123.095 196.481 122.945 196.631C122.895 197.232 122.657 197.833 122.669 198.434C122.819 198.584 122.669 198.735 122.669 199.035V201.139C122.519 201.289 122.669 201.439 122.682 201.74C122.819 202.491 122.832 203.092 122.982 203.843C123.132 203.994 122.982 204.144 123.132 204.294C123.299 204.97 123.533 205.684 123.834 206.435L123.884 206.56C124.084 207.32 124.422 208.059 124.898 208.777L124.923 208.814L106.567 227.17L90.6277 211.231L178.4 123.47L192.712 117.886L198.722 123.896L198.735 123.909C199.464 124.637 200.042 125.501 200.437 126.453C200.832 127.405 201.035 128.425 201.035 129.456C201.035 130.486 200.832 131.506 200.437 132.458C200.042 133.41 199.464 134.274 198.735 135.002L198.722 135.015L194.515 139.197ZM175.571 117.861C175.27 117.861 175.27 117.861 175.12 118.011L159.932 102.823C163.994 101.464 168.354 101.265 172.524 102.247C176.693 103.229 180.506 105.353 183.534 108.383L183.547 108.395L187.904 112.752L175.571 117.861ZM158.742 134.088L141.914 117.26L150.629 108.545C151.722 107.494 152.87 106.563 154.072 105.753L153.934 105.853L170.462 122.381L158.742 134.088ZM85.9824 206.848L69.1541 190.02L78.1818 180.992L95.0226 197.833L85.9824 206.848ZM129.869 162.649L113.04 145.821L137.244 121.617L154.085 138.458L129.869 162.649ZM99.3299 193.2L82.5015 176.372L108.508 150.366L125.349 167.207L99.3299 193.2Z" fill="#7B98A3"/>
</svg>
