<svg width="283" height="283" viewBox="0 0 283 283" fill="none" xmlns="http://www.w3.org/2000/svg">
<path d="M117.416 276.477L117.378 276.515C113.363 280.529 107.918 282.784 102.24 282.784C96.5627 282.784 91.1175 280.529 87.1023 276.515L87.0522 276.465L6.17859 195.591C2.20723 191.577 -0.0140118 186.154 6.46428e-05 180.507C0.0141411 174.86 2.26239 169.448 6.25372 165.453L6.32884 165.378L165.372 6.33514L165.447 6.26001C169.44 2.26702 174.851 0.0165147 180.498 9.23635e-05C186.145 -0.01633 191.569 2.20267 195.585 6.17237L276.459 87.046L276.496 87.0836C280.51 91.0988 282.765 96.5439 282.765 102.222C282.765 107.899 280.51 113.344 276.496 117.36L276.446 117.41L117.416 276.477ZM242.301 132.585L243.804 134.088C245.043 135.327 247.072 135.327 248.311 134.088C249.551 132.848 249.551 130.82 248.311 129.58L246.809 128.078C245.569 126.838 243.541 126.838 242.301 128.078C241.062 129.317 241.062 131.346 242.301 132.585ZM231.783 122.055L233.286 123.557C234.526 124.797 236.554 124.797 237.794 123.557C239.033 122.318 239.033 120.289 237.794 119.05L236.291 117.547C235.051 116.308 233.023 116.308 231.783 117.547C230.544 118.787 230.544 120.815 231.783 122.055ZM233.937 76.666L254.534 97.2632C255.774 98.5028 257.802 98.5028 259.042 97.2632C260.281 96.0236 260.281 93.9952 259.042 92.7556L238.445 72.1584C237.205 70.9189 235.177 70.9189 233.937 72.1584C232.697 73.398 232.697 75.4265 233.937 76.666ZM178.444 40.7556L244.743 107.055C245.982 108.294 248.011 108.294 249.25 107.055C250.49 105.815 250.49 103.787 249.25 102.547L182.951 36.248C181.712 35.0084 179.683 35.0084 178.444 36.248C177.204 37.4876 177.204 39.516 178.444 40.7556ZM168.527 156.513C171.535 158.685 175.218 159.718 178.917 159.426C182.616 159.135 186.092 157.539 188.723 154.923L188.811 154.835C191.403 152.192 192.991 148.727 193.302 145.037C193.613 141.348 192.627 137.666 190.514 134.626L190.451 134.551L194.508 130.494C197.174 127.821 198.673 124.199 198.675 120.424C198.678 116.648 197.184 113.025 194.521 110.348L179.358 95.1847C173.766 89.6199 166.198 86.4959 158.31 86.4959C150.421 86.4959 142.853 89.6199 137.262 95.1847L53.6836 178.763C53.1057 179.369 52.7832 180.173 52.7832 181.01C52.7832 181.848 53.1057 182.652 53.6836 183.258L95.4789 225.053C96.0845 225.631 96.8894 225.954 97.7265 225.954C98.5635 225.954 99.3684 225.631 99.974 225.053L120.584 204.444C123.593 206.619 127.278 207.654 130.98 207.362C134.683 207.071 138.16 205.473 140.793 202.853L140.868 202.778C143.465 200.136 145.058 196.669 145.371 192.977C145.684 189.285 144.698 185.599 142.583 182.557L142.521 182.482L168.527 156.513ZM124.027 217.24C124.307 216.961 124.529 216.629 124.681 216.264C124.833 215.899 124.911 215.507 124.911 215.112C124.911 214.716 124.833 214.324 124.681 213.959C124.529 213.594 124.307 213.262 124.027 212.983L123.902 212.858C123.291 212.272 122.476 211.947 121.63 211.952C120.784 211.957 119.973 212.29 119.369 212.883L93.6634 237.387C92.4238 238.626 92.4238 240.655 93.6634 241.894C94.903 243.134 96.9314 243.134 98.171 241.894L124.027 217.24ZM156.945 179.502C157.55 180.08 158.355 180.402 159.192 180.402C160.03 180.402 160.834 180.08 161.44 179.502L173.473 167.469C174.712 166.229 174.712 164.201 173.473 162.961C172.233 161.722 170.205 161.722 168.965 162.961L156.932 174.994C156.345 175.607 156.02 176.425 156.027 177.274C156.034 178.123 156.372 178.936 156.97 179.539L156.945 179.502ZM221.291 111.562L222.793 113.065C224.033 114.304 226.061 114.304 227.301 113.065C228.54 111.825 228.54 109.797 227.301 108.557L225.798 107.055C224.559 105.815 222.53 105.815 221.291 107.055C220.051 108.294 220.051 110.323 221.291 111.562ZM210.761 101.032L212.263 102.535C213.503 103.774 215.531 103.774 216.771 102.535C218.01 101.295 218.01 99.2666 216.771 98.027L215.268 96.5245C214.029 95.2849 212 95.2849 210.761 96.5245C209.521 97.7641 209.521 99.7925 210.761 101.032ZM200.243 90.5144L201.745 92.0169C202.985 93.2565 205.013 93.2565 206.253 92.0169C207.493 90.7773 207.493 88.7489 206.253 87.5093L204.75 86.0068C203.511 84.7672 201.482 84.7672 200.243 86.0068C199.003 87.2464 199.003 89.2748 200.243 90.5144ZM189.725 79.9967L191.228 81.4992C192.467 82.7388 194.496 82.7388 195.735 81.4992C196.975 80.2596 196.975 78.2312 195.735 76.9916L194.245 75.5016C193.006 74.262 190.977 74.262 189.738 75.5016C188.498 76.7412 188.498 78.7696 189.738 80.0092L189.725 79.9967ZM203.248 46.9285L209.108 52.7883C210.347 54.0279 212.376 54.0279 213.615 52.7883C214.855 51.5488 214.855 49.5203 213.615 48.2808L207.755 42.4209C206.516 41.1813 204.487 41.1813 203.248 42.4209C202.008 43.6605 202.008 45.6889 203.248 46.9285ZM50.8288 206.873L50.8663 206.91C51.1571 207.202 51.5025 207.433 51.8828 207.591C52.2631 207.749 52.6708 207.83 53.0826 207.83C53.4943 207.83 53.902 207.749 54.2823 207.591C54.6626 207.433 55.008 207.202 55.2988 206.91L55.3363 206.873L60.5952 201.614C61.8348 200.374 61.8348 198.346 60.5952 197.106C59.3556 195.867 57.3272 195.867 56.0876 197.106L50.8288 202.365C50.2472 202.971 49.9224 203.779 49.9224 204.619C49.9224 205.459 50.2472 206.267 50.8288 206.873ZM179.207 69.4664L180.71 70.969C181.95 72.2085 183.978 72.2085 185.218 70.969C186.457 69.7294 186.457 67.7009 185.218 66.4614L183.715 64.9588C182.475 63.7192 180.447 63.7192 179.207 64.9588C177.968 66.1984 177.968 68.2268 179.207 69.4664ZM36.993 200.55L37.0305 200.587C37.3213 200.879 37.6667 201.11 38.047 201.268C38.4273 201.426 38.835 201.507 39.2468 201.507C39.6585 201.507 40.0662 201.426 40.4465 201.268C40.8268 201.11 41.1722 200.879 41.463 200.587L41.5006 200.55L50.5283 191.522C51.7678 190.282 51.7678 188.254 50.5283 187.014C49.2887 185.775 47.2602 185.775 46.0207 187.014L36.993 196.042C36.4114 196.648 36.0866 197.456 36.0866 198.296C36.0866 199.136 36.4114 199.943 36.993 200.55ZM188.223 31.8907L194.095 37.7631C195.335 39.0026 197.363 39.0026 198.603 37.7631C199.842 36.5235 199.842 34.495 198.603 33.2555L192.73 27.3831C191.491 26.1435 189.462 26.1435 188.223 27.3831C186.983 28.6227 186.983 30.6511 188.223 31.8907ZM168.677 58.9487L170.18 60.4512C171.419 61.6908 173.448 61.6908 174.687 60.4512C175.927 59.2117 175.927 57.1832 174.687 55.9437L173.185 54.4411C171.945 53.2015 169.917 53.2015 168.677 54.4411C167.438 55.6807 167.438 57.7091 168.677 58.9487ZM158.159 48.431L159.662 49.9335C160.902 51.1731 162.93 51.1731 164.17 49.9335C165.409 48.694 165.409 46.6655 164.17 45.426L162.655 43.9109C161.415 42.6713 159.387 42.6713 158.147 43.9109C156.907 45.1505 156.907 47.1789 158.147 48.4185L158.159 48.431ZM147.629 37.9133L149.132 39.4158C150.371 40.6554 152.4 40.6554 153.639 39.4158C154.879 38.1762 154.879 36.1478 153.639 34.9082L152.124 33.3932C150.885 32.1536 148.856 32.1536 147.617 33.3932C146.377 34.6328 146.377 36.6612 147.617 37.9008L147.629 37.9133ZM171.231 149.889L170.63 149.288C170.33 148.988 170.18 148.537 169.879 148.237C169.729 148.086 169.729 147.786 169.579 147.636C169.428 147.185 169.278 147.035 169.128 146.571C169.128 146.271 168.978 146.12 168.978 145.807C168.786 145.559 168.676 145.257 168.665 144.943C168.54 144.608 168.489 144.249 168.514 143.892C168.514 143.591 168.364 143.441 168.364 143.14C168.211 142.754 168.211 142.324 168.364 141.938L168.364 141.926C168.364 141.625 168.214 141.475 168.364 141.325C168.412 140.922 168.509 140.527 168.652 140.148L168.665 140.123C168.815 139.973 168.665 139.822 168.815 139.672C168.965 139.221 169.266 138.921 169.416 138.47C169.416 138.17 169.416 138.17 169.566 138.019C170.268 136.911 171.209 135.974 172.321 135.277L172.271 135.315C172.571 135.315 172.571 135.315 172.721 135.165C173.172 135.014 173.473 134.714 173.923 134.564C174.074 134.413 174.224 134.564 174.374 134.413C174.777 134.365 175.172 134.269 175.551 134.125L175.576 134.113L176.177 134.113C176.628 134.263 177.091 134.113 177.379 134.113C177.667 134.113 177.83 134.263 178.143 134.263C178.479 134.388 178.838 134.439 179.195 134.413C179.495 134.413 179.796 134.714 180.109 134.714C180.422 134.714 180.56 134.864 180.873 134.864C181.186 134.864 181.474 135.165 181.924 135.315C182.075 135.465 182.375 135.465 182.525 135.615C182.769 135.763 183.044 135.854 183.328 135.88C183.612 135.906 183.899 135.867 184.166 135.766L184.779 136.367C186.358 138.193 187.188 140.55 187.102 142.963C187.016 145.376 186.021 147.667 184.316 149.377C182.611 151.087 180.322 152.089 177.909 152.181C175.496 152.274 173.138 151.451 171.307 149.877L171.282 149.852L171.231 149.889ZM174.237 146.884C175.124 147.745 176.312 148.226 177.548 148.226C178.785 148.226 179.973 147.745 180.86 146.884L181.023 146.734C181.45 146.305 181.786 145.793 182.009 145.23C182.233 144.667 182.339 144.065 182.323 143.46C182.307 142.854 182.167 142.259 181.914 141.709C181.66 141.159 181.297 140.666 180.848 140.261L180.86 140.273C180.426 139.839 179.911 139.495 179.344 139.26C178.776 139.025 178.169 138.904 177.555 138.904C176.941 138.904 176.333 139.025 175.766 139.26C175.198 139.495 174.683 139.839 174.249 140.273C173.815 140.707 173.471 141.223 173.236 141.79C173.001 142.357 172.88 142.965 172.88 143.579C172.88 144.193 173.001 144.8 173.236 145.368C173.471 145.935 173.802 146.45 174.237 146.884ZM123.125 197.995L122.524 197.394C122.224 197.094 122.074 196.643 121.773 196.343C121.623 196.192 121.623 195.892 121.473 195.742C121.473 195.441 121.172 195.141 121.022 194.69C121.022 194.389 120.872 194.239 120.872 193.926C120.677 193.666 120.571 193.35 120.571 193.024C120.445 192.685 120.393 192.322 120.421 191.96C120.271 191.81 120.271 191.509 120.271 191.209C120.12 190.758 120.283 190.307 120.271 190.007L120.271 189.406C120.319 189.003 120.415 188.608 120.559 188.229L120.571 188.204C120.721 188.054 120.571 187.903 120.721 187.753C120.872 187.302 121.172 187.002 121.322 186.551C121.322 186.251 121.322 186.251 121.473 186.1C122.174 184.992 123.115 184.055 124.227 183.358L124.177 183.396C124.478 183.396 124.478 183.396 124.628 183.245C125.079 183.095 125.379 182.795 125.83 182.644C125.98 182.494 126.131 182.644 126.281 182.494C126.683 182.446 127.079 182.35 127.458 182.206L127.483 182.194L129.286 182.194C129.586 182.194 129.737 182.344 130.037 182.344C130.338 182.344 130.788 182.482 131.101 182.494C131.414 182.507 131.702 182.795 132.003 182.795C132.303 182.795 132.454 182.945 132.767 182.945C133.08 182.945 133.368 183.245 133.818 183.396C133.969 183.546 134.269 183.546 134.419 183.696C134.664 183.844 134.938 183.935 135.222 183.961C135.506 183.987 135.793 183.948 136.06 183.846L136.673 184.447C138.252 186.274 139.082 188.631 138.996 191.044C138.91 193.457 137.915 195.748 136.21 197.458C134.505 199.168 132.216 200.169 129.803 200.262C127.39 200.355 125.032 199.532 123.201 197.958L123.176 197.933L123.125 197.995ZM126.131 194.99C127.018 195.851 128.206 196.332 129.442 196.332C130.679 196.332 131.867 195.851 132.754 194.99L132.817 194.928C133.243 194.503 133.581 193.999 133.811 193.443C134.042 192.888 134.16 192.292 134.16 191.691C134.16 191.09 134.042 190.494 133.811 189.939C133.581 189.383 133.243 188.879 132.817 188.454L132.742 188.379C131.865 187.502 130.676 187.01 129.436 187.01C128.196 187.01 127.007 187.502 126.131 188.379C125.254 189.256 124.761 190.445 124.761 191.685C124.761 192.925 125.254 194.114 126.131 194.99ZM185.656 130.344C184.932 129.892 184.154 129.534 183.339 129.28L183.402 129.305C182.698 128.91 181.924 128.655 181.123 128.553L181.148 128.553C180.998 128.403 180.848 128.553 180.697 128.403C179.946 128.265 179.345 128.253 178.594 128.103L177.98 128.103C177.295 127.957 176.587 127.957 175.902 128.103L175.877 128.103C175.727 127.952 175.576 128.103 175.276 128.103C174.677 128.114 174.082 128.211 173.51 128.391L173.473 128.403C173.322 128.553 173.172 128.403 173.022 128.553C172.421 128.854 171.67 129.004 171.056 129.305C170.906 129.455 170.605 129.455 170.455 129.605C169.854 129.906 169.103 130.356 168.489 130.657L168.189 130.957C166.761 131.962 165.52 133.208 164.52 134.639L164.583 134.564L164.257 134.889C163.957 135.49 163.506 136.241 163.205 136.855C163.055 137.005 163.055 137.306 162.905 137.456C162.561 138.081 162.308 138.751 162.154 139.447L162.166 139.409C162.016 139.559 162.166 139.71 162.016 139.86C162.016 140.461 161.715 141.062 161.715 141.663C161.866 141.813 161.715 141.963 161.703 142.264L161.703 144.368C161.553 144.518 161.703 144.668 161.715 144.969C161.853 145.72 161.866 146.321 162.016 147.072C162.166 147.222 162.016 147.373 162.166 147.523C162.266 148.207 162.458 148.892 162.742 149.576L162.767 149.626C162.986 150.416 163.333 151.165 163.794 151.843L163.819 151.88L137.537 178.162C136.814 177.706 136.036 177.344 135.221 177.085L135.283 177.11C134.602 176.821 133.887 176.619 133.155 176.509L133.18 176.509C133.03 176.359 132.879 176.509 132.729 176.359C132.034 176.199 131.326 176.098 130.613 176.058L130.626 176.058C130.475 176.209 130.325 176.058 130.012 176.058C129.32 176.001 128.625 176.001 127.934 176.058L127.909 176.058C127.758 175.908 127.608 176.058 127.308 176.058C126.708 176.069 126.114 176.166 125.542 176.346L125.504 176.359C125.354 176.509 125.204 176.359 125.054 176.509C124.453 176.81 123.701 176.96 123.088 177.26C122.938 177.411 122.637 177.411 122.487 177.561C121.886 177.861 121.135 178.312 120.521 178.613L120.208 178.926C118.781 179.93 117.539 181.176 116.539 182.607L116.602 182.532L116.327 182.807C116.026 183.408 115.575 184.16 115.275 184.773C115.125 184.923 115.125 185.224 114.974 185.374C114.631 185.999 114.378 186.669 114.223 187.365L114.236 187.327C114.085 187.478 114.236 187.628 114.085 187.778C114.035 188.379 113.797 188.98 113.81 189.581C113.96 189.731 113.81 189.882 113.81 190.182L113.81 192.286C113.66 192.436 113.81 192.586 113.822 192.887C113.96 193.638 113.973 194.239 114.123 194.99C114.273 195.141 114.123 195.291 114.273 195.441C114.44 196.117 114.674 196.831 114.974 197.582L115.024 197.707C115.225 198.467 115.563 199.206 116.039 199.924L116.064 199.961L97.7077 218.317L81.7683 202.378L169.541 114.617L183.853 109.033L189.863 115.043L189.875 115.056C190.605 115.784 191.183 116.648 191.578 117.6C191.972 118.552 192.175 119.572 192.175 120.603C192.175 121.633 191.972 122.653 191.578 123.605C191.183 124.557 190.605 125.421 189.875 126.149L189.863 126.162L185.656 130.344ZM166.711 109.008C166.411 109.008 166.411 109.008 166.261 109.158L151.073 93.9702C155.135 92.6112 159.495 92.4115 163.664 93.3935C167.833 94.3756 171.646 96.5004 174.675 99.5295L174.687 99.542L179.045 103.899L166.711 109.008ZM149.883 125.235L133.055 108.407L141.769 99.6923C142.863 98.6405 144.011 97.7098 145.213 96.9001L145.075 97.0003L161.603 113.528L149.883 125.235ZM77.123 197.995L60.2947 181.167L69.3224 172.139L86.1632 188.98L77.123 197.995ZM121.009 153.796L104.181 136.968L128.384 112.764L145.225 129.605L121.009 153.796ZM90.4705 184.347L73.6422 167.519L99.6485 141.513L116.489 158.354L90.4705 184.347Z" fill="#7B98A3"/>
</svg>
